<svg xmlns="http://www.w3.org/2000/svg" viewBox="0 0 278.51 36.2"><defs><style>.cls-1{fill:#221714;}</style></defs><title>资源 46</title><g id="图层_2" data-name="图层 2"><g id="图层_1-2" data-name="图层 1"><path class="cls-1" d="M14.31,14.68H3.57v10h12v3H0V0H14.92V3H3.57v8.74H14.31Z"/><path class="cls-1" d="M23.9,7.79l3.9,11.15A53.29,53.29,0,0,1,29.4,24h.12c.45-1.64,1-3.28,1.68-5.09L35.05,7.79h3.78L31,27.63H27.59L20.05,7.79Z"/><path class="cls-1" d="M46.7,18.37c.08,4.88,3.2,6.89,6.8,6.89a12.94,12.94,0,0,0,5.5-1l.61,2.58A16,16,0,0,1,53,28c-6.11,0-9.76-4-9.76-10s3.53-10.7,9.31-10.7c6.48,0,8.2,5.7,8.2,9.35a13.9,13.9,0,0,1-.12,1.68Zm10.58-2.58c0-2.3-1-5.87-5-5.87-3.65,0-5.24,3.36-5.53,5.87Z"/><path class="cls-1" d="M67.69,13.16c0-2.05,0-3.73-.16-5.37h3.19l.21,3.28H71a7.28,7.28,0,0,1,6.56-3.73c2.75,0,7,1.64,7,8.45V27.63H81V16.2c0-3.2-1.19-5.87-4.59-5.87A5.13,5.13,0,0,0,71.54,14a5.32,5.32,0,0,0-.24,1.68V27.63H67.69Z"/><path class="cls-1" d="M97.25,2.09v5.7h5.17v2.75H97.25v10.7c0,2.46.7,3.85,2.71,3.85a8.22,8.22,0,0,0,2.09-.24l.16,2.7A8.77,8.77,0,0,1,99,28a5,5,0,0,1-3.89-1.51c-1-1.07-1.4-2.83-1.4-5.17V10.54H90.65V7.79h3.07V3Z"/><path class="cls-1" d="M120.09,14.27c0-2.54-.09-4.59-.17-6.48h3.24l.17,3.4h.08a7.79,7.79,0,0,1,7.05-3.85c4.8,0,8.4,4.06,8.4,10.09,0,7.13-4.34,10.66-9,10.66a6.94,6.94,0,0,1-6.1-3.12h-.09V35.75h-3.56Zm3.56,5.29a8.24,8.24,0,0,0,.17,1.47,5.57,5.57,0,0,0,5.41,4.23c3.81,0,6-3.12,6-7.67,0-4-2.09-7.38-5.91-7.38a5.75,5.75,0,0,0-5.45,4.47,6,6,0,0,0-.25,1.47Z"/><path class="cls-1" d="M145.88,14c0-2.34,0-4.34-.17-6.19h3.16l.12,3.9h.17a5.94,5.94,0,0,1,5.49-4.35,3.91,3.91,0,0,1,1,.12v3.41a4.88,4.88,0,0,0-1.23-.13c-2.54,0-4.34,1.93-4.83,4.64a9.25,9.25,0,0,0-.17,1.68V27.63h-3.56Z"/><path class="cls-1" d="M179.7,17.55c0,7.34-5.08,10.54-9.88,10.54-5.37,0-9.51-3.94-9.51-10.21,0-6.65,4.34-10.54,9.84-10.54C175.85,7.34,179.7,11.48,179.7,17.55Zm-15.74.2c0,4.35,2.5,7.63,6,7.63s6-3.24,6-7.71c0-3.36-1.68-7.63-5.95-7.63S164,14,164,17.75Z"/><path class="cls-1" d="M203.81,7.79c-.08,1.44-.17,3-.17,5.45V24.76c0,4.56-.9,7.34-2.83,9.07a10.51,10.51,0,0,1-7.21,2.37,12.76,12.76,0,0,1-6.6-1.64l.9-2.74a11.18,11.18,0,0,0,5.82,1.55c3.69,0,6.4-1.92,6.4-6.92V24.23H200a7.08,7.08,0,0,1-6.32,3.32c-4.92,0-8.44-4.18-8.44-9.67,0-6.73,4.38-10.54,8.93-10.54a6.59,6.59,0,0,1,6.19,3.44h.09l.16-3Zm-3.73,7.83a5,5,0,0,0-.21-1.64,5.19,5.19,0,0,0-5-3.81c-3.45,0-5.91,2.91-5.91,7.5,0,3.9,2,7.14,5.87,7.14a5.28,5.28,0,0,0,5-3.69,6.2,6.2,0,0,0,.29-1.93Z"/><path class="cls-1" d="M212.09,14c0-2.34,0-4.34-.16-6.19h3.15l.13,3.9h.16a5.94,5.94,0,0,1,5.49-4.35,4,4,0,0,1,1,.12v3.41a5,5,0,0,0-1.23-.13c-2.54,0-4.35,1.93-4.84,4.64a10.31,10.31,0,0,0-.16,1.68V27.63h-3.57Z"/><path class="cls-1" d="M238.94,27.63l-.28-2.5h-.13a7.38,7.38,0,0,1-6.06,3,5.65,5.65,0,0,1-6.07-5.7c0-4.8,4.26-7.42,11.93-7.38V14.6c0-1.64-.45-4.6-4.51-4.6a9.93,9.93,0,0,0-5.17,1.48l-.82-2.38a12.38,12.38,0,0,1,6.52-1.76c6.07,0,7.55,4.14,7.55,8.12v7.42a28.54,28.54,0,0,0,.32,4.75Zm-.53-10.12c-3.93-.08-8.4.61-8.4,4.47a3.19,3.19,0,0,0,3.4,3.44,5,5,0,0,0,4.8-3.32,3.86,3.86,0,0,0,.2-1.15Z"/><path class="cls-1" d="M250.18,13.16c0-2.05,0-3.73-.17-5.37h3.16l.16,3.2h.13a6.82,6.82,0,0,1,6.23-3.65,5.86,5.86,0,0,1,5.62,4h.08a8.16,8.16,0,0,1,2.21-2.59A6.78,6.78,0,0,1,272,7.34c2.62,0,6.52,1.72,6.52,8.61V27.63H275V16.4c0-3.81-1.39-6.11-4.3-6.11a4.69,4.69,0,0,0-4.27,3.28,6.09,6.09,0,0,0-.28,1.81V27.63H262.6V15.74c0-3.15-1.39-5.45-4.14-5.45A4.93,4.93,0,0,0,254,13.9a5.08,5.08,0,0,0-.29,1.76v12h-3.52Z"/></g></g></svg>