<svg xmlns="http://www.w3.org/2000/svg" xmlns:xlink="http://www.w3.org/1999/xlink" viewBox="0 0 2994.13 2413.87"><defs><style>.cls-1{fill:url(#未命名的渐变_6);}.cls-2{fill:url(#未命名的渐变_6-2);}.cls-3{fill:url(#未命名的渐变_6-3);}.cls-4{fill:url(#未命名的渐变_8);}.cls-17,.cls-18,.cls-24,.cls-5{fill:none;}.cls-6{fill:#080b3b;}.cls-7{clip-path:url(#clip-path);}.cls-8{fill:url(#未命名的渐变_4);}.cls-9{clip-path:url(#clip-path-2);}.cls-10{clip-path:url(#clip-path-3);}.cls-11{fill:url(#未命名的渐变_2);}.cls-12{clip-path:url(#clip-path-4);}.cls-13{mask:url(#mask);}.cls-14{fill:url(#未命名的渐变_5);}.cls-15{mask:url(#mask-2);}.cls-16{fill:url(#未命名的渐变_5-2);}.cls-17,.cls-18{stroke:#fff;}.cls-17,.cls-18,.cls-24{stroke-miterlimit:10;}.cls-17{stroke-width:3px;stroke-dasharray:20 21;}.cls-18{stroke-width:4px;}.cls-19{fill:#fff;}.cls-20{fill:#4d217a;}.cls-21{fill:#a78aff;}.cls-22{mask:url(#mask-3);}.cls-23{fill:url(#未命名的渐变_5-3);}.cls-24{stroke:#099;stroke-width:4.5px;}.cls-25{fill:#099;}.cls-26{clip-path:url(#clip-path-6);}.cls-27{mask:url(#mask-4);}.cls-28{fill:url(#未命名的渐变_7);}</style><linearGradient id="未命名的渐变_6" x1="3365.93" y1="1494.43" x2="3367.08" y2="1494.43" gradientTransform="translate(-580942.86 1313219.94) rotate(-90) scale(389.63)" gradientUnits="userSpaceOnUse"><stop offset="0"/><stop offset="0.08" stop-color="#090909"/><stop offset="0.22" stop-color="#212121"/><stop offset="0.4" stop-color="#494949"/><stop offset="0.6" stop-color="gray"/><stop offset="0.83" stop-color="#c6c6c6"/><stop offset="1" stop-color="#fff"/></linearGradient><linearGradient id="未命名的渐变_6-2" x1="3373.76" y1="1483.18" x2="3374.91" y2="1483.18" gradientTransform="translate(649514.81 -1473190.43) rotate(90) scale(437.02)" xlink:href="#未命名的渐变_6"/><linearGradient id="未命名的渐变_6-3" x1="3359.44" y1="1488.54" x2="3360.59" y2="1488.54" gradientTransform="translate(771342.55 342717.34) rotate(180) scale(229.2)" xlink:href="#未命名的渐变_6"/><radialGradient id="未命名的渐变_8" cx="3340.6" cy="1483.64" r="1.15" gradientTransform="translate(314975.09 140931.2) rotate(180) scale(93.85)" gradientUnits="userSpaceOnUse"><stop offset="0" stop-color="#fff"/><stop offset="0.17" stop-color="#c6c6c6"/><stop offset="0.4" stop-color="gray"/><stop offset="0.6" stop-color="#494949"/><stop offset="0.78" stop-color="#212121"/><stop offset="0.92" stop-color="#090909"/><stop offset="1"/></radialGradient><clipPath id="clip-path"><rect class="cls-5" x="704.92" width="1080" height="1920"/></clipPath><radialGradient id="未命名的渐变_4" cx="1495.19" cy="1326.97" r="747.22" gradientTransform="translate(70.08 -3339.94) scale(0.91 3.46)" gradientUnits="userSpaceOnUse"><stop offset="0.98" stop-color="#05093b"/><stop offset="1" stop-color="#05093b"/></radialGradient><clipPath id="clip-path-2"><rect class="cls-5" x="875.82" y="426.76" width="1110.45" height="1656.33"/></clipPath><clipPath id="clip-path-3"><rect class="cls-5" x="423.95" y="736.19" width="1747.65" height="1373.11"/></clipPath><radialGradient id="未命名的渐变_2" cx="3372.27" cy="1493.45" r="0.71" gradientTransform="matrix(0, -968.41, -765.73, 0, 1145035.46, 3267386.56)" gradientUnits="userSpaceOnUse"><stop offset="0" stop-color="#471e7d"/><stop offset="0.02" stop-color="#471e7d"/><stop offset="0.98" stop-color="#05093b"/><stop offset="1" stop-color="#05093b"/></radialGradient><clipPath id="clip-path-4"><rect class="cls-5" x="230.94" y="923.19" width="2215.7" height="1246.33" transform="translate(-547.99 756.65) rotate(-26.4)"/></clipPath><mask id="mask" x="-211.92" y="-4.56" width="3101.42" height="3101.84" maskUnits="userSpaceOnUse"><rect class="cls-1" x="114.61" y="322.51" width="2448.36" height="2447.69" transform="translate(-554.15 2321.19) rotate(-71.38)"/></mask><linearGradient id="未命名的渐变_5" x1="3365.93" y1="1494.59" x2="3367.08" y2="1494.59" gradientTransform="translate(1058365.02 972231.11) rotate(-161.38) scale(389.63)" gradientUnits="userSpaceOnUse"><stop offset="0" stop-color="#fff"/><stop offset="1" stop-color="#fff"/></linearGradient><mask id="mask-2" x="69.39" y="495.55" width="2538.8" height="2101.62" maskUnits="userSpaceOnUse"><rect class="cls-2" x="230.94" y="923.19" width="2215.7" height="1246.33" transform="translate(-547.99 756.65) rotate(-26.4)"/></mask><linearGradient id="未命名的渐变_5-2" x1="3373.76" y1="1483.41" x2="3374.91" y2="1483.41" gradientTransform="translate(-73897.67 -1607589.56) rotate(63.6) scale(437.02)" xlink:href="#未命名的渐变_5"/><mask id="mask-3" x="69.39" y="495.55" width="2538.8" height="2101.62" maskUnits="userSpaceOnUse"><rect class="cls-3" x="230.94" y="923.19" width="2215.7" height="1246.33" transform="translate(-547.99 756.65) rotate(-26.4)"/></mask><linearGradient id="未命名的渐变_5-3" x1="3359.44" y1="1487.48" x2="3360.59" y2="1487.48" gradientTransform="matrix(-205.29, 101.92, -101.92, -205.29, 842736.12, -35283.54)" xlink:href="#未命名的渐变_5"/><clipPath id="clip-path-6"><path class="cls-5" d="M1540.92,1636.46a108.31,108.31,0,1,1-145.18-48.85,108.3,108.3,0,0,1,145.18,48.85"/></clipPath><mask id="mask-4" x="1298.73" y="1539.45" width="290.35" height="290.35" maskUnits="userSpaceOnUse"><rect class="cls-4" x="1335.6" y="1576.31" width="216.62" height="216.62" transform="translate(-598.51 817.82) rotate(-26.4)"/></mask><radialGradient id="未命名的渐变_7" cx="3340.6" cy="1483.64" r="1.15" gradientTransform="translate(314975.11 140931.22) rotate(180) scale(93.85)" gradientUnits="userSpaceOnUse"><stop offset="0" stop-color="#099"/><stop offset="1" stop-color="#099"/></radialGradient></defs><title>资源 55</title><g id="图层_2" data-name="图层 2"><g id="图层_1-2" data-name="图层 1"><rect class="cls-6" x="704.92" width="1080" height="1920"/><g class="cls-7"><rect class="cls-8" x="876.78" y="427.24" width="1108.53" height="1655.36"/><g class="cls-9"><g class="cls-10"><rect class="cls-11" y="282.31" width="2994.13" height="2129.98"/><rect class="cls-5" x="423.95" y="736.19" width="2135.3" height="1677.68"/></g></g></g><rect class="cls-5" x="704.92" width="1080" height="1920"/><g class="cls-12"><g class="cls-12"><g class="cls-13"><path class="cls-14" d="M1498.69,1338.55l1.33-1.11c-68.53-81.71-181.51-103.69-271.24-59.15a217.08,217.08,0,0,0-42.73,28c-79.38,66.44-99.12,178-54.16,268.57a230.52,230.52,0,0,0,29.92,45.67c68.54,81.71,181.52,103.69,271.24,59.15a216.5,216.5,0,0,0,42.73-28c79.39-66.44,99.12-178,54.17-268.57a231,231,0,0,0-29.93-45.67l-1.33,1.11-1.32,1.11a227.24,227.24,0,0,1,29.48,45c44.27,89.18,24.82,199-53.29,264.37a213.35,213.35,0,0,1-42,27.51c-88.27,43.83-199.54,22.22-267-58.27a226.79,226.79,0,0,1-29.48-45c-44.27-89.18-24.82-199,53.28-264.37a213.35,213.35,0,0,1,42-27.51c88.27-43.83,199.54-22.22,267,58.27Z"/></g><g class="cls-15"><path class="cls-16" d="M1208.31,1231.77q-2.82,1.31-5.59,2.69c-119.24,59.2-169,205.18-111.15,329.16q1.34,2.88,2.75,5.72c60.5,121.86,205.41,174.93,326.8,118.46l-1.46-3.14c-119.63,55.67-262.55,3.36-322.24-116.86-.93-1.87-1.83-3.75-2.72-5.65-57.08-122.32-8-266.26,109.56-324.59,1.82-.91,3.66-1.79,5.52-2.66l-1.47-3.13Z"/></g><path class="cls-17" d="M1563.73,1426.46c-122.89,13.4-230,84.89-285.31,195.42"/><path class="cls-18" d="M1447.62,1679.72a387.67,387.67,0,0,1-520.95-476.59"/><path class="cls-19" d="M920.81,1206a6.54,6.54,0,1,1,8.77,3,6.54,6.54,0,0,1-8.77-3"/><path class="cls-20" d="M1590.62,1096.62a13.09,13.09,0,1,0,5.9-17.54,13.09,13.09,0,0,0-5.9,17.54"/><path class="cls-21" d="M1430.34,1236.05a3.27,3.27,0,1,0,1.48-4.39,3.28,3.28,0,0,0-1.48,4.39"/><path class="cls-20" d="M1389.07,1371.5a3.27,3.27,0,1,0,1.48-4.38,3.26,3.26,0,0,0-1.48,4.38"/><path class="cls-20" d="M873.6,1296.74a6.54,6.54,0,1,0,2.95-8.77,6.54,6.54,0,0,0-2.95,8.77"/><path class="cls-20" d="M1211.32,1586.22a6.54,6.54,0,1,0,3-8.77,6.56,6.56,0,0,0-3,8.77"/><path class="cls-20" d="M1116.3,1572.51a3.27,3.27,0,1,0,1.47-4.38,3.27,3.27,0,0,0-1.47,4.38"/><path class="cls-19" d="M986.46,1494.47a3.27,3.27,0,1,0,1.48-4.38,3.28,3.28,0,0,0-1.48,4.38"/><path class="cls-21" d="M1671.27,1543.77a3.27,3.27,0,1,0,1.48-4.39,3.26,3.26,0,0,0-1.48,4.39"/><path class="cls-18" d="M1442.11,1682.45a213.93,213.93,0,0,0,121.62-256"/><path class="cls-19" d="M1557.87,1429.37a6.54,6.54,0,1,1,8.77,3,6.54,6.54,0,0,1-8.77-3"/><path class="cls-19" d="M1267.35,1266a3.27,3.27,0,1,0,1.47-4.38,3.27,3.27,0,0,0-1.47,4.38"/><path class="cls-18" d="M1231.16,1448.15c80.33-163.52,291.4-23,215.21,222.38"/><path class="cls-19" d="M1225.36,1451.17a6.54,6.54,0,1,1,8.82,2.78,6.54,6.54,0,0,1-8.82-2.78"/><path class="cls-19" d="M1272.56,1624.79a6.54,6.54,0,1,1,8.77,3,6.56,6.56,0,0,1-8.77-3"/><g class="cls-22"><path class="cls-23" d="M1437.73,1697.4a225.33,225.33,0,0,1-182.51,216.71l.66,3.4a228.8,228.8,0,0,0,185.31-220l-3.46-.08Z"/></g><path class="cls-19" d="M1249.69,1918.72a6.54,6.54,0,1,1,8.77,3,6.54,6.54,0,0,1-8.77-3"/><path class="cls-18" d="M1442.11,1682.45a171.13,171.13,0,0,1-163.69-60.57"/><path class="cls-24" d="M1185.52,1459.56c-141.48,83.68-224.25,199.56-188.21,271,39.49,78.28,206.75,73.51,373.58-10.67,20.18-10.18,39.43-21,57.6-32.45"/><path class="cls-25" d="M1179.57,1462.73a6.54,6.54,0,1,1,8.86,2.69,6.54,6.54,0,0,1-8.86-2.69"/></g><g class="cls-26"><g class="cls-27"><rect class="cls-28" x="1335.6" y="1576.31" width="216.62" height="216.62" transform="translate(-598.51 817.82) rotate(-26.4)"/></g></g><g class="cls-12"><path class="cls-19" d="M1422.71,1695.14a23.66,23.66,0,1,0,10.67-31.71,23.65,23.65,0,0,0-10.67,31.71"/></g></g></g></g></svg>