<svg xmlns="http://www.w3.org/2000/svg" viewBox="0 0 157.45 103.34"><defs><style>.cls-1{fill:#fff;}</style></defs><title>资源 47</title><g id="图层_2" data-name="图层 2"><g id="图层_1-2" data-name="图层 1"><path class="cls-1" d="M2.65,31.83V0H21.36V4.49H8.22v8.94H20.71v4.49H8.22V31.83Z"/><path class="cls-1" d="M40.23,29.15a11.45,11.45,0,0,1-2.32,2A9.5,9.5,0,0,1,33,32.34a7.63,7.63,0,0,1-5.6-1.93,6.82,6.82,0,0,1-2-5.16A6.94,6.94,0,0,1,29,18.78q2.23-1.3,7.07-1.31c1,0,2.23.05,3.87.14v-.43q0-5.34-5.19-5.34a12.94,12.94,0,0,0-6.34,1.95L27,9.93a18.23,18.23,0,0,1,8.46-2.07q5.69,0,8.13,3.06a8.52,8.52,0,0,1,1.6,4.29,36,36,0,0,1,.13,3.63v7q0,3.73.23,6h-5.1ZM39.94,21c-.9-.08-1.71-.11-2.43-.11Q31,20.87,31,25.13a3.38,3.38,0,0,0,3.61,3.55c2.07,0,3.84-1.09,5.33-3.28Z"/><path class="cls-1" d="M68.69,26.37l1.73,3.95a14,14,0,0,1-7.6,2c-3.68,0-6.56-1.1-8.62-3.32s-3-5.11-3-8.83q0-6,3.19-9.32a10.39,10.39,0,0,1,7.9-3,17.23,17.23,0,0,1,7.64,1.78l-1.62,4a10.28,10.28,0,0,0-5.45-1.7,5.13,5.13,0,0,0-4.61,2.27,10.32,10.32,0,0,0-1.48,5.88,9.45,9.45,0,0,0,1.73,6,5.85,5.85,0,0,0,4.83,2.11A9.19,9.19,0,0,0,68.69,26.37Z"/><path class="cls-1" d="M76.34,12.47H72.57V8.38h3.77V3.28l5.37-1V8.38h5.35v4.09H81.71V23.36a8.05,8.05,0,0,0,.47,3.3A2.72,2.72,0,0,0,84.86,28a7.73,7.73,0,0,0,2.54-.58l.47,4.11a15.92,15.92,0,0,1-4.79.78c-2.65,0-4.51-.8-5.59-2.42-.76-1.15-1.15-3.24-1.15-6.27Z"/><path class="cls-1" d="M102.13,7.86a10.59,10.59,0,0,1,8.58,3.66,12.93,12.93,0,0,1,2.76,8.58q0,5.77-3.25,9.12A11,11,0,0,1,102,32.34q-5.64,0-8.71-3.66a13,13,0,0,1-2.76-8.6q0-5.77,3.25-9.1Q96.77,7.86,102.13,7.86ZM101.91,12A5.09,5.09,0,0,0,97.12,15a11,11,0,0,0-1.05,5.07,10.71,10.71,0,0,0,1.25,5.48,5.39,5.39,0,0,0,9.53-.4,11,11,0,0,0,1.05-5.08,10.66,10.66,0,0,0-1.26-5.48A5.17,5.17,0,0,0,101.91,12Z"/><path class="cls-1" d="M119.38,31.83V17.21c0-3-.07-5.9-.2-8.83h5l.18,4.4Q126.5,8,130.61,8a8.36,8.36,0,0,1,2,.27L132.34,13a8.78,8.78,0,0,0-1.84-.23,5.24,5.24,0,0,0-4.27,2.29,9.33,9.33,0,0,0-1.5,3.1V31.83Z"/><path class="cls-1" d="M142.87,31.47,133.44,8.38h5.73l4.69,11.88q1,2.58,2,5.37,1-3.15,2-5.62l4.4-11.63h5.23l-9.48,24a28.49,28.49,0,0,1-3.84,7.42,7.43,7.43,0,0,1-6,2.49,15.94,15.94,0,0,1-4.69-.81l.92-4.18a8.14,8.14,0,0,0,2.92.65,4.47,4.47,0,0,0,4-2.69A22.1,22.1,0,0,0,142.87,31.47Z"/><path class="cls-1" d="M3.77,83.47H0V79.38H3.77v-5.1l5.37-1v6.13h5.35v4.09H9.14V94.36a8.05,8.05,0,0,0,.47,3.3A2.73,2.73,0,0,0,12.29,99a7.63,7.63,0,0,0,2.53-.58l.48,4.11a15.92,15.92,0,0,1-4.79.78c-2.65,0-4.51-.8-5.59-2.42-.76-1.16-1.15-3.24-1.15-6.27Z"/><path class="cls-1" d="M29.56,78.86a10.59,10.59,0,0,1,8.58,3.66A12.93,12.93,0,0,1,40.9,91.1q0,5.78-3.26,9.12a10.94,10.94,0,0,1-8.24,3.12q-5.64,0-8.71-3.66a12.91,12.91,0,0,1-2.77-8.6q0-5.77,3.26-9.1Q24.2,78.86,29.56,78.86ZM29.33,83A5.07,5.07,0,0,0,24.55,86a11,11,0,0,0-1.06,5.07,10.71,10.71,0,0,0,1.26,5.48,5.12,5.12,0,0,0,4.67,2.68,5.13,5.13,0,0,0,4.86-3.08,11,11,0,0,0,1-5.08,10.66,10.66,0,0,0-1.26-5.48A5.17,5.17,0,0,0,29.33,83Z"/><path class="cls-1" d="M67.09,79.38v15.2q0,4.2.2,8.25H62.24l-.18-3.46a17.75,17.75,0,0,1-2.43,2.18,9.6,9.6,0,0,1-5.75,1.79c-3,0-5.13-1.1-6.29-3.3-.67-1.29-1-3.47-1-6.56V79.38H52V93.21a12.27,12.27,0,0,0,.45,4,3.12,3.12,0,0,0,3.24,2q3.21,0,6.08-4V79.38Z"/><path class="cls-1" d="M74.75,102.83V88.21q0-4.44-.2-8.83h5l.18,4.4Q81.87,79,86,79a8.36,8.36,0,0,1,2,.27L87.71,84a8.78,8.78,0,0,0-1.84-.23,5.24,5.24,0,0,0-4.27,2.29,9.52,9.52,0,0,0-1.5,3.1v13.64Z"/></g></g></svg>