<svg xmlns="http://www.w3.org/2000/svg" viewBox="0 0 145.03 115.05"><defs><style>.cls-1{fill:#fff;}</style></defs><title>资源 46</title><g id="图层_2" data-name="图层 2"><g id="图层_1-2" data-name="图层 1"><path class="cls-1" d="M1.89,33.62V1.8H9.55a28.45,28.45,0,0,1,6.24.54,8.12,8.12,0,0,1,5.1,3.54,9.88,9.88,0,0,1,1.48,5.49,8.71,8.71,0,0,1-3.75,7.7c-1.83,1.23-4.69,1.84-8.6,1.84H7.46V33.62ZM7.37,16.55H9.16a13,13,0,0,0,5.28-.76q2.25-1.09,2.25-4.29a4.75,4.75,0,0,0-2.05-4.33q-1.52-1-5.21-1H7.37Z"/><path class="cls-1" d="M27.09,33.62V0h5.37V13.3a10.89,10.89,0,0,1,8-3.64c3.09,0,5.21,1.1,6.38,3.3.69,1.29,1,3.47,1,6.56v14.1H42.5V19.79a12.31,12.31,0,0,0-.45-4,3.25,3.25,0,0,0-3.37-2q-3.28,0-6.2,4V33.62Z"/><path class="cls-1" d="M65.18,9.66a10.59,10.59,0,0,1,8.58,3.66,12.93,12.93,0,0,1,2.76,8.58q0,5.78-3.25,9.12A11,11,0,0,1,65,34.14q-5.62,0-8.71-3.66a13,13,0,0,1-2.76-8.6q0-5.77,3.25-9.1Q59.82,9.66,65.18,9.66ZM65,13.75a5.09,5.09,0,0,0-4.79,3.07,11.08,11.08,0,0,0-1.05,5.08,10.74,10.74,0,0,0,1.26,5.48A5.39,5.39,0,0,0,69.9,27a11.08,11.08,0,0,0,1-5.08,10.66,10.66,0,0,0-1.25-5.48A5.19,5.19,0,0,0,65,13.75Z"/><path class="cls-1" d="M83.64,14.26H79.87V10.17h3.77V5.08L89,4v6.13h5.35v4.09H89v10.9a8.12,8.12,0,0,0,.47,3.3,2.73,2.73,0,0,0,2.68,1.37,7.79,7.79,0,0,0,2.54-.59l.47,4.11a15.64,15.64,0,0,1-4.79.79q-4,0-5.59-2.43c-.76-1.15-1.15-3.24-1.15-6.26Z"/><path class="cls-1" d="M109.43,9.66A10.59,10.59,0,0,1,118,13.32a12.93,12.93,0,0,1,2.76,8.58q0,5.78-3.25,9.12a11,11,0,0,1-8.25,3.12q-5.64,0-8.71-3.66a13,13,0,0,1-2.77-8.6q0-5.77,3.26-9.1Q104.07,9.66,109.43,9.66Zm-.22,4.09a5.08,5.08,0,0,0-4.79,3.07,11.08,11.08,0,0,0-1,5.08,10.74,10.74,0,0,0,1.25,5.48,5.4,5.4,0,0,0,9.53-.4,11.08,11.08,0,0,0,1-5.08,10.66,10.66,0,0,0-1.26-5.48A5.17,5.17,0,0,0,109.21,13.75Z"/><path class="cls-1" d="M16.82,81.15l5.17,0-.07,1.6q-.18,4.8-.18,7.64V102a28.43,28.43,0,0,1-.49,6.18,8,8,0,0,1-4.49,5.55A15.29,15.29,0,0,1,10.11,115,19.92,19.92,0,0,1,1,112.93l1.71-4a13.64,13.64,0,0,0,7,2c2.88,0,4.82-1,5.84-3a13.53,13.53,0,0,0,.83-5.66v-1.68a9,9,0,0,1-7,3.43,8.46,8.46,0,0,1-6.89-3.23Q0,97.79,0,92.45a13.5,13.5,0,0,1,2.61-8.58,8.23,8.23,0,0,1,6.82-3.21,8.33,8.33,0,0,1,7.24,3.77Zm-.45,7.95a7.8,7.8,0,0,0-1.66-2.49,5.58,5.58,0,0,0-4-1.82,4.28,4.28,0,0,0-3.95,2.45,10.8,10.8,0,0,0-1.17,5.28,9.64,9.64,0,0,0,1.24,5.12,4.41,4.41,0,0,0,4,2.31,5.63,5.63,0,0,0,4-1.88A8.93,8.93,0,0,0,16.37,96Z"/><path class="cls-1" d="M42.18,102a12.05,12.05,0,0,1-2.31,2A9.51,9.51,0,0,1,35,105.14a7.59,7.59,0,0,1-5.59-1.93,6.85,6.85,0,0,1-2-5.17A7,7,0,0,1,31,91.57c1.5-.86,3.86-1.3,7.08-1.3.94,0,2.23,0,3.86.14V90c0-3.56-1.73-5.35-5.19-5.35a12.9,12.9,0,0,0-6.33,2l-1.44-3.87a18.36,18.36,0,0,1,8.47-2.06q5.68,0,8.13,3A8.5,8.5,0,0,1,47.12,88a35.55,35.55,0,0,1,.14,3.64v7c0,2.48.07,4.48.22,6h-5.1Zm-.29-8.17q-1.35-.12-2.43-.12c-4.34,0-6.51,1.43-6.51,4.27a3.4,3.4,0,0,0,3.62,3.55c2.06,0,3.84-1.09,5.32-3.28Z"/><path class="cls-1" d="M54.89,104.62V71h5.37v33.62Z"/><path class="cls-1" d="M67.88,104.62V71h5.37v33.62Z"/><path class="cls-1" d="M84.75,94.61q.61,6.51,6.76,6.51a12.77,12.77,0,0,0,7-2.27l1.91,4a17.73,17.73,0,0,1-9,2.34q-6.19,0-9.39-3.46Q79.1,98.56,79.11,93q0-5.89,3.28-9.28a10.47,10.47,0,0,1,8-3q7.43,0,9.66,5.75a24.43,24.43,0,0,1,1.14,8.2Zm10.89-3.8a8.7,8.7,0,0,0-.81-3.57,4.63,4.63,0,0,0-4.49-2.61,4.93,4.93,0,0,0-4.58,2.56,7.8,7.8,0,0,0-1,3.62Z"/><path class="cls-1" d="M107,104.62V90q0-4.43-.2-8.83h5l.18,4.41q2.08-4.78,6.2-4.79a8.42,8.42,0,0,1,2,.27l-.31,4.76a8.71,8.71,0,0,0-1.84-.22,5.21,5.21,0,0,0-4.27,2.29A9.44,9.44,0,0,0,112.3,91v13.63Z"/><path class="cls-1" d="M130.45,104.26,121,81.17h5.73l4.69,11.89q1,2.58,2,5.36,1-3.14,2-5.61l4.41-11.64H145l-9.48,24a29.2,29.2,0,0,1-3.84,7.41,7.45,7.45,0,0,1-6,2.5,16.05,16.05,0,0,1-4.7-.81l.93-4.18a8.36,8.36,0,0,0,2.92.65,4.49,4.49,0,0,0,4-2.69A22.67,22.67,0,0,0,130.45,104.26Z"/></g></g></svg>