<svg xmlns="http://www.w3.org/2000/svg" viewBox="0 0 230.81 105.9"><defs><style>.cls-1{fill:#fff;}</style></defs><title>资源 49</title><g id="图层_2" data-name="图层 2"><g id="图层_1-2" data-name="图层 1"><path class="cls-1" d="M.81,34.39V2.56H6.38V29.9H20.1v4.49Z"/><path class="cls-1" d="M33.78,10.42a10.59,10.59,0,0,1,8.58,3.66,12.93,12.93,0,0,1,2.76,8.58q0,5.78-3.25,9.12a11,11,0,0,1-8.25,3.12q-5.62,0-8.71-3.66a13,13,0,0,1-2.76-8.6q0-5.78,3.25-9.1Q28.42,10.42,33.78,10.42Zm-.22,4.09a5.1,5.1,0,0,0-4.79,3.08,11,11,0,0,0-1.05,5.07A10.81,10.81,0,0,0,29,28.14a5.39,5.39,0,0,0,9.53-.4,11,11,0,0,0,1-5.08,10.79,10.79,0,0,0-1.25-5.48A5.19,5.19,0,0,0,33.56,14.51Z"/><path class="cls-1" d="M66.06,10.92l5.16,0-.06,1.59C71,15.74,71,18.28,71,20.17V31.71a28.3,28.3,0,0,1-.5,6.18A8,8,0,0,1,66,43.44a15.11,15.11,0,0,1-6.65,1.35,20,20,0,0,1-9.12-2.09l1.71-4a13.57,13.57,0,0,0,7,2q4.31,0,5.84-3a13.73,13.73,0,0,0,.83-5.66V30.41a9,9,0,0,1-7,3.44,8.5,8.5,0,0,1-6.9-3.24q-2.52-3-2.52-8.4a13.5,13.5,0,0,1,2.61-8.58,8.84,8.84,0,0,1,14.06.57Zm-.45,8A8,8,0,0,0,64,16.37a5.62,5.62,0,0,0-4-1.82A4.29,4.29,0,0,0,56,17a10.8,10.8,0,0,0-1.17,5.28A9.71,9.71,0,0,0,56,27.4a4.44,4.44,0,0,0,4,2.32,5.6,5.6,0,0,0,4-1.89,9.18,9.18,0,0,0,1.51-2.11Z"/><path class="cls-1" d="M81.35,0a3.19,3.19,0,0,1,2.52,1.1,3.36,3.36,0,0,1,.79,2.25,3.31,3.31,0,0,1-.79,2.22,3.49,3.49,0,0,1-5.12,0A3.23,3.23,0,0,1,78,3.35a3.27,3.27,0,0,1,.79-2.25A3.35,3.35,0,0,1,81.35,0ZM78.59,34.39V10.94H84V34.39Z"/><path class="cls-1" d="M89.75,33.06,91.19,29a12.62,12.62,0,0,0,6.18,1.93,4.44,4.44,0,0,0,2.9-.83,2.68,2.68,0,0,0,1-2.18,2.28,2.28,0,0,0-.92-2,19.11,19.11,0,0,0-3.77-1.6,15.42,15.42,0,0,1-4.9-2.47,5.54,5.54,0,0,1-1.77-4.33,6.32,6.32,0,0,1,2.54-5.33,9.87,9.87,0,0,1,6.13-1.75,19,19,0,0,1,7.61,1.69l-1.39,4.13a11.66,11.66,0,0,0-6-1.82,4.3,4.3,0,0,0-2.56.7,2.26,2.26,0,0,0-1,2,2.22,2.22,0,0,0,1.28,2,34.46,34.46,0,0,0,3.68,1.51,13.49,13.49,0,0,1,5,2.83,5.4,5.4,0,0,1,1.42,3.91,6.86,6.86,0,0,1-2.38,5.39,9.85,9.85,0,0,1-6.74,2.15A16.84,16.84,0,0,1,89.75,33.06Z"/><path class="cls-1" d="M113.7,15h-3.78V10.94h3.78V5.84l5.37-1v6.13h5.34V15h-5.34V25.92a7.88,7.88,0,0,0,.47,3.3,2.69,2.69,0,0,0,2.67,1.37,7.73,7.73,0,0,0,2.54-.58l.47,4.11a15.86,15.86,0,0,1-4.78.78c-2.65,0-4.52-.8-5.6-2.42q-1.14-1.72-1.14-6.27Z"/><path class="cls-1" d="M132.32,0a3.19,3.19,0,0,1,2.51,1.1,3.31,3.31,0,0,1,.79,2.25,3.26,3.26,0,0,1-.79,2.22,3.49,3.49,0,0,1-5.12,0,3.27,3.27,0,0,1-.78-2.22,3.31,3.31,0,0,1,.78-2.25A3.35,3.35,0,0,1,132.32,0Zm-2.77,34.39V10.94h5.37V34.39Z"/><path class="cls-1" d="M158.21,28.93l1.73,4a14,14,0,0,1-7.59,2c-3.68,0-6.56-1.1-8.62-3.32s-3-5.11-3-8.83q0-5.94,3.19-9.32a10.38,10.38,0,0,1,7.9-3,17.23,17.23,0,0,1,7.64,1.78l-1.62,4a10.28,10.28,0,0,0-5.45-1.7,5.13,5.13,0,0,0-4.61,2.27,10.35,10.35,0,0,0-1.48,5.88,9.45,9.45,0,0,0,1.73,6,5.85,5.85,0,0,0,4.83,2.11A9.14,9.14,0,0,0,158.21,28.93Z"/><path class="cls-1" d="M3.39,71a3.22,3.22,0,0,1,2.52,1.1,3.59,3.59,0,0,1,0,4.47,3.22,3.22,0,0,1-2.56,1.12A3.19,3.19,0,0,1,.79,76.57,3.23,3.23,0,0,1,0,74.35,3.27,3.27,0,0,1,.79,72.1,3.33,3.33,0,0,1,3.39,71ZM.63,105.39V81.94H6v23.45Z"/><path class="cls-1" d="M13.57,105.39V90.16q0-3.51-.14-6.72l-.07-1.5h5.06l.18,3.46a15.82,15.82,0,0,1,2.45-2.18,10,10,0,0,1,5.86-1.8q4.62,0,6.38,3.3c.69,1.28,1,3.46,1,6.56v14.11H29V91.55a12.2,12.2,0,0,0-.45-4,3.25,3.25,0,0,0-3.37-2q-3.27,0-6.2,4v15.86Z"/><path class="cls-1" d="M43,105.39V86H39.24V81.94H43V80.39c0-2.82.43-4.91,1.28-6.29,1.2-1.92,3.23-2.88,6.11-2.88a16,16,0,0,1,4.29.63l-.43,4.29a6.72,6.72,0,0,0-2.76-.65,2.69,2.69,0,0,0-2.76,2,11.83,11.83,0,0,0-.36,3.37v1.06h5.37V86H48.36v19.36Z"/><path class="cls-1" d="M68.64,81.42a10.59,10.59,0,0,1,8.58,3.66A12.93,12.93,0,0,1,80,93.66q0,5.78-3.25,9.12a11,11,0,0,1-8.25,3.12q-5.64,0-8.71-3.66A13,13,0,0,1,57,93.64q0-5.77,3.25-9.1Q63.28,81.42,68.64,81.42Zm-.22,4.09a5.09,5.09,0,0,0-4.79,3.08,11,11,0,0,0-1.05,5.07,10.81,10.81,0,0,0,1.25,5.48,5.39,5.39,0,0,0,9.53-.4,11,11,0,0,0,1-5.08,10.79,10.79,0,0,0-1.25-5.48A5.19,5.19,0,0,0,68.42,85.51Z"/><path class="cls-1" d="M85.87,105.39V90.16q0-3.51-.14-6.63l-.06-1.59h5l.18,3.46a15.07,15.07,0,0,1,2.31-2.16,8.84,8.84,0,0,1,5.46-1.82c3.24,0,5.35,1.43,6.36,4.29a17.21,17.21,0,0,1,2.54-2.49,8.66,8.66,0,0,1,5.41-1.8q4.38,0,6,3.3c.66,1.31,1,3.49,1,6.56v14.11h-5.37V91.55a13.43,13.43,0,0,0-.4-4,3,3,0,0,0-3-2c-2,0-3.84,1.33-5.59,4v15.86h-5.37V91a9.33,9.33,0,0,0-.54-3.68,2.79,2.79,0,0,0-2.76-1.78q-3,0-5.7,4v15.86Z"/><path class="cls-1" d="M140.2,102.71a11.7,11.7,0,0,1-2.31,2A9.51,9.51,0,0,1,133,105.9a7.59,7.59,0,0,1-5.59-1.93,6.83,6.83,0,0,1-2-5.16A6.94,6.94,0,0,1,129,92.34q2.25-1.31,7.08-1.3c.94,0,2.23,0,3.86.13v-.43q0-5.34-5.19-5.34a12.88,12.88,0,0,0-6.33,1.95L127,83.49a18.24,18.24,0,0,1,8.47-2.07q5.69,0,8.13,3.06a8.43,8.43,0,0,1,1.59,4.29,35.55,35.55,0,0,1,.14,3.64v7q0,3.74.22,6h-5.1Zm-.29-8.17c-.9-.08-1.71-.11-2.43-.11q-6.51,0-6.51,4.26a3.38,3.38,0,0,0,3.62,3.55c2.06,0,3.84-1.09,5.32-3.28Z"/><path class="cls-1" d="M154.17,86H150.4V81.94h3.77v-5.1l5.37-1v6.13h5.35V86h-5.35V96.92a8.05,8.05,0,0,0,.47,3.3,2.73,2.73,0,0,0,2.67,1.37,7.68,7.68,0,0,0,2.54-.58l.47,4.11a15.81,15.81,0,0,1-4.78.78c-2.65,0-4.51-.8-5.59-2.42q-1.15-1.73-1.15-6.27Z"/><path class="cls-1" d="M172.79,71a3.21,3.21,0,0,1,2.52,1.1,3.59,3.59,0,0,1,0,4.47,3.35,3.35,0,0,1-5.91-2.22,3.27,3.27,0,0,1,.79-2.25A3.33,3.33,0,0,1,172.79,71ZM170,105.39V81.94h5.37v23.45Z"/><path class="cls-1" d="M192.83,81.42a10.59,10.59,0,0,1,8.58,3.66,12.93,12.93,0,0,1,2.76,8.58q0,5.78-3.26,9.12a11,11,0,0,1-8.24,3.12q-5.64,0-8.71-3.66a12.91,12.91,0,0,1-2.77-8.6q0-5.77,3.26-9.1Q187.47,81.42,192.83,81.42Zm-.23,4.09a5.09,5.09,0,0,0-4.78,3.08,10.87,10.87,0,0,0-1.06,5.07A10.71,10.71,0,0,0,188,99.14a5.38,5.38,0,0,0,9.52-.4,10.92,10.92,0,0,0,1.06-5.08,10.69,10.69,0,0,0-1.26-5.48A5.17,5.17,0,0,0,192.6,85.51Z"/><path class="cls-1" d="M210.05,105.39V90.16q0-3.51-.13-6.72l-.07-1.5h5.06l.18,3.46a16.28,16.28,0,0,1,2.44-2.18,10,10,0,0,1,5.87-1.8q4.62,0,6.38,3.3c.68,1.28,1,3.46,1,6.56v14.11h-5.37V91.55a12.2,12.2,0,0,0-.45-4,3.25,3.25,0,0,0-3.37-2q-3.27,0-6.2,4v15.86Z"/></g></g></svg>