<svg xmlns="http://www.w3.org/2000/svg" viewBox="0 0 113.76 103.86"><defs><style>.cls-1{fill:#fff;}</style></defs><title>资源 48</title><g id="图层_2" data-name="图层 2"><g id="图层_1-2" data-name="图层 1"><path class="cls-1" d="M.31,32.34V.52H18.93V5h-13V14h12.4v4.49H5.88v9.41H19.61v4.49Z"/><path class="cls-1" d="M26.08,32.34V.52h5.57V13.84H45V.52h5.57V32.34H45v-14H31.65v14Z"/><path class="cls-1" d="M56.92,31.22l.78-4.85a24.8,24.8,0,0,0,8.58,2A5.81,5.81,0,0,0,70.46,27a4.29,4.29,0,0,0,1.33-3.24,3.47,3.47,0,0,0-1.22-2.81,22.77,22.77,0,0,0-4.94-2.53,30.87,30.87,0,0,1-6.2-3.22A7,7,0,0,1,56.8,9.37,8.64,8.64,0,0,1,60,2.2,11.44,11.44,0,0,1,67.41,0a30.06,30.06,0,0,1,8.93,1.59l-1.1,4.74a20.5,20.5,0,0,0-7.57-1.84A5.63,5.63,0,0,0,64,5.57a3.56,3.56,0,0,0-1.42,2.94,3.37,3.37,0,0,0,1.19,2.61,18.8,18.8,0,0,0,4.54,2.4A28,28,0,0,1,75,17a7.73,7.73,0,0,1,2.65,6.31,8.69,8.69,0,0,1-3.26,7.28,12.63,12.63,0,0,1-7.93,2.27A29.45,29.45,0,0,1,56.92,31.22Z"/><path class="cls-1" d="M.2,103.34V88.12q0-3.51-.13-6.72L0,79.89H5.05l.18,3.46a17.49,17.49,0,0,1,2.45-2.18,10.07,10.07,0,0,1,5.86-1.79c3.09,0,5.21,1.1,6.38,3.3q1,1.91,1,6.56v14.1H15.59V89.51a12.31,12.31,0,0,0-.45-4,3.25,3.25,0,0,0-3.37-2c-2.19,0-4.25,1.33-6.2,4v15.85Z"/><path class="cls-1" d="M38.27,79.38A10.59,10.59,0,0,1,46.85,83a12.88,12.88,0,0,1,2.77,8.58q0,5.77-3.26,9.12a11,11,0,0,1-8.24,3.12q-5.64,0-8.72-3.66a13,13,0,0,1-2.76-8.6q0-5.77,3.26-9.1Q32.9,79.38,38.27,79.38Zm-.22,4.09a5.09,5.09,0,0,0-4.79,3.07,11.08,11.08,0,0,0-1,5.08,10.76,10.76,0,0,0,1.26,5.48A5.39,5.39,0,0,0,43,96.7a11.07,11.07,0,0,0,1.06-5.08,10.66,10.66,0,0,0-1.26-5.48A5.18,5.18,0,0,0,38.05,83.47Z"/><path class="cls-1" d="M56.74,84H53V79.89h3.78V74.8l5.36-1v6.13h5.35V84H62.1v10.9a7.91,7.91,0,0,0,.48,3.3,2.71,2.71,0,0,0,2.67,1.37A7.79,7.79,0,0,0,67.79,99l.47,4.11a15.59,15.59,0,0,1-4.79.79q-4,0-5.59-2.43-1.14-1.73-1.14-6.26Z"/><path class="cls-1" d="M76.52,93.33q.63,6.51,6.77,6.51a12.8,12.8,0,0,0,7-2.27l1.91,4a17.73,17.73,0,0,1-9,2.34q-6.19,0-9.39-3.46-2.9-3.12-2.89-8.71,0-5.89,3.28-9.28a10.47,10.47,0,0,1,8-3q7.42,0,9.66,5.75a24.43,24.43,0,0,1,1.14,8.2Zm10.9-3.8A8.7,8.7,0,0,0,86.61,86a4.63,4.63,0,0,0-4.49-2.61,4.93,4.93,0,0,0-4.58,2.56,7.8,7.8,0,0,0-1,3.62Z"/><path class="cls-1" d="M96.94,102l1.44-4.11a12.56,12.56,0,0,0,6.18,1.93,4.46,4.46,0,0,0,2.89-.83,2.67,2.67,0,0,0,1-2.18,2.31,2.31,0,0,0-.92-2,20.34,20.34,0,0,0-3.77-1.59,15.42,15.42,0,0,1-4.9-2.47,5.56,5.56,0,0,1-1.77-4.34,6.32,6.32,0,0,1,2.53-5.32,9.86,9.86,0,0,1,6.14-1.75,19.1,19.1,0,0,1,7.61,1.68L112,85.2a11.57,11.57,0,0,0-6-1.82,4.38,4.38,0,0,0-2.56.69,2.26,2.26,0,0,0-1,2,2.21,2.21,0,0,0,1.28,2,35.8,35.8,0,0,0,3.68,1.51,13.35,13.35,0,0,1,5,2.83,5.41,5.41,0,0,1,1.41,3.9,6.83,6.83,0,0,1-2.38,5.39,9.81,9.81,0,0,1-6.73,2.16A16.84,16.84,0,0,1,96.94,102Z"/></g></g></svg>