<svg xmlns="http://www.w3.org/2000/svg" viewBox="0 0 177.24 113.23"><defs><style>.cls-1{fill:#fff;}</style></defs><title>资源 50</title><g id="图层_2" data-name="图层 2"><g id="图层_1-2" data-name="图层 1"><path class="cls-1" d="M.43,31.83V0H19.05V4.49H6v8.94H18.4v4.49H6v9.41H19.72v4.5Z"/><path class="cls-1" d="M31.67,31.83,22.8,8.38h5.57l4.85,13c.67,1.81,1.26,3.52,1.75,5.12q.72-2.4,1.73-5.16L41.42,8.38h5.12L37.76,31.83Z"/><path class="cls-1" d="M54.74,21.81q.63,6.51,6.76,6.51a12.69,12.69,0,0,0,7-2.27l1.91,4a17.71,17.71,0,0,1-9,2.33q-6.21,0-9.39-3.46-2.89-3.12-2.9-8.71,0-5.88,3.28-9.28a10.47,10.47,0,0,1,7.95-3q7.44,0,9.66,5.75a24.47,24.47,0,0,1,1.14,8.2ZM65.63,18a8.39,8.39,0,0,0-.81-3.57,4.64,4.64,0,0,0-4.49-2.6,4.92,4.92,0,0,0-4.58,2.56,7.76,7.76,0,0,0-1,3.61Z"/><path class="cls-1" d="M76.93,31.83V16.6q0-3.51-.14-6.72l-.06-1.5h5L82,11.84a15.82,15.82,0,0,1,2.45-2.18,10,10,0,0,1,5.86-1.8c3.09,0,5.21,1.1,6.38,3.3.69,1.28,1,3.46,1,6.56V31.83H92.31V18a12.26,12.26,0,0,0-.44-4,3.26,3.26,0,0,0-3.37-2q-3.28,0-6.2,4V31.83Z"/><path class="cls-1" d="M106.38,12.47H102.6V8.38h3.78V3.28l5.36-1V8.38h5.35v4.09h-5.35V23.36a8.05,8.05,0,0,0,.47,3.3A2.73,2.73,0,0,0,114.89,28a7.73,7.73,0,0,0,2.54-.58l.47,4.11a15.87,15.87,0,0,1-4.79.78c-2.65,0-4.51-.8-5.59-2.42q-1.14-1.73-1.14-6.27Z"/><path class="cls-1" d="M.2,112.71V88.79q0-5.69-.2-9.41H5.14l.18,3.23a8.92,8.92,0,0,1,7.12-3.75,8.08,8.08,0,0,1,7,3.6,14.45,14.45,0,0,1,2.41,8.6q0,5.75-2.79,9.21a8.13,8.13,0,0,1-6.67,3.07,8.2,8.2,0,0,1-6.85-3.5v12.87ZM5.57,95.17q2.49,4,5.57,4a4.24,4.24,0,0,0,3.91-2.49A12,12,0,0,0,16.31,91a11,11,0,0,0-1.37-5.75A4.36,4.36,0,0,0,11,83q-3,0-5.44,3.87Z"/><path class="cls-1" d="M27.76,102.83V88.21c0-2.95-.07-5.9-.2-8.83h5.05l.18,4.4C34.19,80.59,36.25,79,39,79a8.44,8.44,0,0,1,2,.27L40.72,84a8.78,8.78,0,0,0-1.84-.23,5.24,5.24,0,0,0-4.27,2.29,9.52,9.52,0,0,0-1.5,3.1v13.64Z"/><path class="cls-1" d="M55.16,78.86a10.59,10.59,0,0,1,8.58,3.66,12.88,12.88,0,0,1,2.77,8.58q0,5.78-3.26,9.12A11,11,0,0,1,55,103.34q-5.64,0-8.72-3.66a13,13,0,0,1-2.76-8.6q0-5.77,3.26-9.1Q49.79,78.86,55.16,78.86ZM54.94,83A5.08,5.08,0,0,0,50.16,86,10.87,10.87,0,0,0,49.1,91.1a10.71,10.71,0,0,0,1.26,5.48,5.38,5.38,0,0,0,9.52-.4,11,11,0,0,0,1.06-5.08,10.66,10.66,0,0,0-1.26-5.48A5.17,5.17,0,0,0,54.94,83Z"/><path class="cls-1" d="M87.44,79.36l5.17,0L92.54,81c-.12,3.21-.18,5.75-.18,7.64v11.54a29.08,29.08,0,0,1-.49,6.18,8,8,0,0,1-4.5,5.55,15.08,15.08,0,0,1-6.65,1.35,20,20,0,0,1-9.11-2.09l1.7-4a13.57,13.57,0,0,0,7,2c2.88,0,4.82-1,5.84-3a13.73,13.73,0,0,0,.83-5.66V98.85a9,9,0,0,1-7,3.44,8.5,8.5,0,0,1-6.9-3.24q-2.5-3-2.51-8.4a13.55,13.55,0,0,1,2.6-8.58,8.84,8.84,0,0,1,14.06.56Zm-.45,8a8,8,0,0,0-1.66-2.5,5.58,5.58,0,0,0-4-1.82,4.27,4.27,0,0,0-4,2.45,10.8,10.8,0,0,0-1.17,5.28,9.71,9.71,0,0,0,1.23,5.12,4.44,4.44,0,0,0,4,2.32,5.62,5.62,0,0,0,4-1.89A9.07,9.07,0,0,0,87,94.16Z"/><path class="cls-1" d="M100.06,102.83V88.21c0-2.95-.06-5.9-.2-8.83h5.06l.17,4.4c1.4-3.19,3.46-4.78,6.2-4.78a8.44,8.44,0,0,1,2,.27L113,84a8.78,8.78,0,0,0-1.84-.23,5.24,5.24,0,0,0-4.27,2.29,9.52,9.52,0,0,0-1.5,3.1v13.64Z"/><path class="cls-1" d="M130.36,100.15a11.7,11.7,0,0,1-2.31,2,9.51,9.51,0,0,1-4.92,1.23,7.61,7.61,0,0,1-5.59-1.93,6.83,6.83,0,0,1-2-5.16,6.94,6.94,0,0,1,3.57-6.47q2.25-1.31,7.08-1.31c.94,0,2.23,0,3.86.14v-.43q0-5.34-5.19-5.34a12.94,12.94,0,0,0-6.33,2l-1.44-3.86a18.24,18.24,0,0,1,8.47-2.07q5.69,0,8.13,3.06a8.43,8.43,0,0,1,1.59,4.29,35.33,35.33,0,0,1,.14,3.63v7q0,3.74.22,6h-5.09ZM130.07,92c-.9-.08-1.71-.11-2.42-.11q-6.53,0-6.52,4.26a3.38,3.38,0,0,0,3.62,3.55c2.06,0,3.84-1.09,5.32-3.28Z"/><path class="cls-1" d="M143.1,102.83V87.6q0-3.51-.14-6.63l-.06-1.59h5l.18,3.46a15.07,15.07,0,0,1,2.31-2.16,8.86,8.86,0,0,1,5.46-1.82c3.24,0,5.35,1.43,6.36,4.29a17.21,17.21,0,0,1,2.54-2.49,8.66,8.66,0,0,1,5.41-1.8q4.38,0,6,3.3c.66,1.31,1,3.49,1,6.56v14.11h-5.37V89a13.38,13.38,0,0,0-.4-4,3,3,0,0,0-3-2c-2,0-3.84,1.33-5.59,4v15.86h-5.37V88.45a9.33,9.33,0,0,0-.54-3.68A2.79,2.79,0,0,0,154.17,83q-3,0-5.7,4v15.86Z"/></g></g></svg>