<svg xmlns="http://www.w3.org/2000/svg" viewBox="0 0 200.19 34.14"><defs><style>.cls-1{fill:#fff;}</style></defs><title>资源 45</title><g id="图层_2" data-name="图层 2"><g id="图层_1-2" data-name="图层 1"><path class="cls-1" d="M0,33.62V1.8H18.71V6.29H5.57v8.94H18.06v4.49H5.57v13.9Z"/><path class="cls-1" d="M28.68,23.61q.63,6.51,6.76,6.51a12.83,12.83,0,0,0,7-2.27l1.91,3.95a17.75,17.75,0,0,1-9,2.34q-6.19,0-9.39-3.46Q23,27.56,23,22q0-5.89,3.28-9.28a10.51,10.51,0,0,1,8-3q7.42,0,9.65,5.75a24.14,24.14,0,0,1,1.15,8.2Zm10.9-3.8a8.7,8.7,0,0,0-.81-3.57,4.64,4.64,0,0,0-4.49-2.61,5,5,0,0,0-4.59,2.56,7.92,7.92,0,0,0-1,3.62Z"/><path class="cls-1" d="M54.74,23.61q.63,6.51,6.76,6.51a12.77,12.77,0,0,0,7-2.27l1.91,3.95a17.72,17.72,0,0,1-9,2.34q-6.21,0-9.39-3.46Q49.11,27.56,49.1,22q0-5.89,3.28-9.28a10.47,10.47,0,0,1,7.95-3q7.44,0,9.66,5.75a24.43,24.43,0,0,1,1.14,8.2Zm10.89-3.8a8.39,8.39,0,0,0-.81-3.57,4.63,4.63,0,0,0-4.49-2.61,4.94,4.94,0,0,0-4.58,2.56,7.8,7.8,0,0,0-1,3.62Z"/><path class="cls-1" d="M91.46,0h5.37V25.36q0,5.19.2,8.26H91.89l-.18-3.34a11.67,11.67,0,0,1-2.23,2.36,7.93,7.93,0,0,1-4.87,1.5,8.17,8.17,0,0,1-7.1-3.64,14.7,14.7,0,0,1-2.36-8.62q0-5.73,2.79-9.17a8.19,8.19,0,0,1,6.67-3.05,8.31,8.31,0,0,1,6.85,3.48Zm0,17.68Q89.24,13.8,86,13.79A4.37,4.37,0,0,0,82.09,16a11,11,0,0,0-1.37,5.75A11.89,11.89,0,0,0,82,27.51,4.24,4.24,0,0,0,85.89,30Q89,30,91.46,26Z"/><path class="cls-1" d="M109.18,33.62H104q.19-3.66.2-8.26V0h5.37V13.14a8.31,8.31,0,0,1,6.85-3.48,8.12,8.12,0,0,1,7.05,3.59,14.47,14.47,0,0,1,2.41,8.6q0,5.76-2.79,9.21a8.76,8.76,0,0,1-11.57,1.58,12.21,12.21,0,0,1-2.2-2.36Zm.43-7.66q2.44,4,5.57,4.05a4.24,4.24,0,0,0,3.91-2.5,11.89,11.89,0,0,0,1.26-5.72A11,11,0,0,0,119,16,4.37,4.37,0,0,0,115,13.79q-3.18,0-5.43,3.89Z"/><path class="cls-1" d="M144.54,31a11.79,11.79,0,0,1-2.32,2,9.51,9.51,0,0,1-4.92,1.23,7.61,7.61,0,0,1-5.59-1.93,6.85,6.85,0,0,1-2-5.17,6.94,6.94,0,0,1,3.58-6.47c1.49-.86,3.85-1.3,7.07-1.3.94,0,2.23.05,3.86.14V19c0-3.56-1.73-5.35-5.18-5.35a13,13,0,0,0-6.34,2l-1.44-3.87a18.39,18.39,0,0,1,8.47-2.06q5.69,0,8.13,3.05a8.6,8.6,0,0,1,1.6,4.29,36.21,36.21,0,0,1,.13,3.64v7q0,3.74.23,6h-5.1Zm-.3-8.17c-.89-.08-1.7-.12-2.42-.12-4.34,0-6.52,1.43-6.52,4.27a3.41,3.41,0,0,0,3.62,3.55q3.11,0,5.32-3.28Z"/><path class="cls-1" d="M173,28.17l1.73,3.95a14,14,0,0,1-7.59,2c-3.68,0-6.56-1.11-8.62-3.32s-3-5.12-3-8.83q0-6,3.19-9.32a10.34,10.34,0,0,1,7.9-3,17.35,17.35,0,0,1,7.64,1.77l-1.62,4a10.22,10.22,0,0,0-5.46-1.71,5.15,5.15,0,0,0-4.6,2.27,10.38,10.38,0,0,0-1.48,5.89,9.47,9.47,0,0,0,1.73,6A5.86,5.86,0,0,0,167.63,30,9.21,9.21,0,0,0,173,28.17Z"/><path class="cls-1" d="M179.4,33.62V0h5.36V20.06l8.31-9.89h6.23l-9.06,10.29,9.95,13.16h-6.53l-8.9-12v12Z"/></g></g></svg>