<svg xmlns="http://www.w3.org/2000/svg" viewBox="0 0 801.35 113.76"><defs><style>.cls-1{fill:#fff;}</style></defs><title>资源 53</title><g id="图层_2" data-name="图层 2"><g id="图层_1-2" data-name="图层 1"><path class="cls-1" d="M1.32,34.74a18.5,18.5,0,0,0,9.36,2.64c5.34,0,8.46-2.82,8.46-6.9,0-3.78-2.16-5.94-7.62-8C4.92,20.1.84,16.68.84,11c0-6.3,5.22-11,13.08-11a18.37,18.37,0,0,1,8.94,2L21.42,6.24a16.11,16.11,0,0,0-7.68-1.92c-5.52,0-7.62,3.3-7.62,6.06,0,3.78,2.46,5.64,8,7.8C21,20.82,24.48,24.12,24.48,30.06c0,6.24-4.62,11.64-14.16,11.64-3.9,0-8.16-1.14-10.32-2.58Z"/><path class="cls-1" d="M37.32,3.9a3.27,3.27,0,0,1-6.54,0A3.22,3.22,0,0,1,34.08.6,3.13,3.13,0,0,1,37.32,3.9ZM31.44,41.1v-29h5.28v29Z"/><path class="cls-1" d="M48.42,27.54c.12,7.14,4.68,10.08,10,10.08a19.09,19.09,0,0,0,8-1.5l.9,3.78a23.52,23.52,0,0,1-9.66,1.8c-8.94,0-14.28-5.88-14.28-14.64S48.54,11.4,57,11.4c9.48,0,12,8.34,12,13.68a19.91,19.91,0,0,1-.18,2.46ZM63.9,23.76c.06-3.36-1.38-8.58-7.32-8.58-5.34,0-7.68,4.92-8.1,8.58Z"/><path class="cls-1" d="M75.54,19.92c0-3-.06-5.46-.24-7.86h4.62l.24,4.68h.18a10,10,0,0,1,9.12-5.34,8.58,8.58,0,0,1,8.22,5.82h.12A12,12,0,0,1,101,13.44a9.91,9.91,0,0,1,6.42-2c3.84,0,9.54,2.52,9.54,12.6V41.1h-5.16V24.66c0-5.58-2-8.94-6.3-8.94a6.84,6.84,0,0,0-6.24,4.8,8.7,8.7,0,0,0-.42,2.64V41.1H93.72V23.7c0-4.62-2-8-6.06-8-3.3,0-5.7,2.64-6.54,5.28a7.28,7.28,0,0,0-.42,2.58V41.1H75.54Z"/><path class="cls-1" d="M128.52,27.54c.12,7.14,4.68,10.08,10,10.08a19.09,19.09,0,0,0,8-1.5l.9,3.78a23.52,23.52,0,0,1-9.66,1.8c-8.94,0-14.28-5.88-14.28-14.64S128.64,11.4,137.1,11.4c9.48,0,12,8.34,12,13.68a19.91,19.91,0,0,1-.18,2.46ZM144,23.76c.06-3.36-1.38-8.58-7.32-8.58-5.34,0-7.68,4.92-8.1,8.58Z"/><path class="cls-1" d="M155.64,19.92c0-3-.06-5.46-.24-7.86h4.68l.3,4.8h.12a10.68,10.68,0,0,1,9.6-5.46c4,0,10.26,2.4,10.26,12.36V41.1h-5.28V24.36c0-4.68-1.74-8.58-6.72-8.58a7.5,7.5,0,0,0-7.08,5.4,7.59,7.59,0,0,0-.36,2.46V41.1h-5.28Z"/><path class="cls-1" d="M188.22,35.7a13.84,13.84,0,0,0,7,2.1c3.84,0,5.64-1.92,5.64-4.32s-1.5-3.9-5.4-5.34c-5.22-1.86-7.68-4.74-7.68-8.22,0-4.68,3.78-8.52,10-8.52a14.49,14.49,0,0,1,7.14,1.8L203.58,17a11.3,11.3,0,0,0-5.94-1.68c-3.12,0-4.86,1.8-4.86,4,0,2.4,1.74,3.48,5.52,4.92,5,1.92,7.62,4.44,7.62,8.76,0,5.1-4,8.7-10.86,8.7a16.56,16.56,0,0,1-8.16-2Z"/><path class="cls-1" d="M246.54,22.14H230.82V36.72h17.52V41.1H225.6V.66h21.84V5H230.82V17.82h15.72Z"/><path class="cls-1" d="M254.94,19.92c0-3-.06-5.46-.24-7.86h4.68l.3,4.8h.12a10.68,10.68,0,0,1,9.6-5.46c4,0,10.26,2.4,10.26,12.36V41.1h-5.28V24.36c0-4.68-1.74-8.58-6.72-8.58a7.5,7.5,0,0,0-7.08,5.4,7.59,7.59,0,0,0-.36,2.46V41.1h-5.28Z"/><path class="cls-1" d="M291.18,27.54c.12,7.14,4.68,10.08,10,10.08a19,19,0,0,0,8-1.5l.9,3.78a23.46,23.46,0,0,1-9.65,1.8c-8.94,0-14.28-5.88-14.28-14.64S291.3,11.4,299.76,11.4c9.47,0,12,8.34,12,13.68a19.91,19.91,0,0,1-.18,2.46Zm15.47-3.78c.06-3.36-1.38-8.58-7.31-8.58-5.34,0-7.68,4.92-8.1,8.58Z"/><path class="cls-1" d="M318.3,21.12c0-3.42-.06-6.36-.24-9.06h4.62l.17,5.7h.25c1.32-3.9,4.5-6.36,8-6.36a5.71,5.71,0,0,1,1.5.18v5a7.93,7.93,0,0,0-1.8-.18c-3.72,0-6.35,2.82-7.07,6.78a14.86,14.86,0,0,0-.24,2.46V41.1H318.3Z"/><path class="cls-1" d="M362.45,12.06c-.12,2.1-.24,4.44-.24,8V36.9c0,6.66-1.32,10.74-4.14,13.26s-6.9,3.48-10.56,3.48c-3.48,0-7.32-.84-9.66-2.4l1.32-4a16.38,16.38,0,0,0,8.52,2.28c5.4,0,9.36-2.82,9.36-10.14V36.12h-.12A10.37,10.37,0,0,1,347.69,41c-7.2,0-12.36-6.12-12.36-14.16,0-9.84,6.42-15.42,13.08-15.42,5,0,7.8,2.64,9.06,5h.12l.24-4.38ZM357,23.52a7.52,7.52,0,0,0-.3-2.4,7.61,7.61,0,0,0-7.38-5.58c-5,0-8.64,4.26-8.64,11,0,5.7,2.88,10.44,8.58,10.44a7.72,7.72,0,0,0,7.32-5.4,9.19,9.19,0,0,0,.42-2.82Z"/><path class="cls-1" d="M372.9,12.06l6.35,17.16c.66,1.92,1.38,4.2,1.86,5.94h.12c.54-1.74,1.14-4,1.86-6.06l5.76-17h5.58l-7.92,20.7c-3.78,10-6.36,15.06-9.95,18.18a14.28,14.28,0,0,1-6.49,3.42l-1.31-4.44a14,14,0,0,0,4.61-2.58,16,16,0,0,0,4.44-5.88,3.57,3.57,0,0,0,.42-1.26,4.6,4.6,0,0,0-.36-1.38L367.14,12.06Z"/><path class="cls-1" d="M2,73.2a50.58,50.58,0,0,1,9.54-.84c5.22,0,8.58.9,11.1,2.94A8.48,8.48,0,0,1,26,82.44c0,3.9-2.58,7.32-6.84,8.88v.12c3.84,1,8.34,4.14,8.34,10.14a10.9,10.9,0,0,1-3.42,8.1c-2.82,2.58-7.38,3.78-14,3.78A61,61,0,0,1,2,113ZM7.26,89.76H12c5.52,0,8.76-2.88,8.76-6.78,0-4.74-3.6-6.6-8.88-6.6a22.39,22.39,0,0,0-4.62.36Zm0,19.38a27.89,27.89,0,0,0,4.38.24c5.4,0,10.38-2,10.38-7.86,0-5.52-4.74-7.8-10.44-7.8H7.26Z"/><path class="cls-1" d="M58.68,105.18c0,3,.06,5.64.24,7.92H54.24l-.3-4.74h-.12a10.93,10.93,0,0,1-9.6,5.4c-4.56,0-10-2.52-10-12.72v-17h5.28v16.08c0,5.52,1.68,9.24,6.48,9.24a7.63,7.63,0,0,0,7-4.8,7.72,7.72,0,0,0,.48-2.7V84.06h5.28Z"/><path class="cls-1" d="M66.72,107.7a13.84,13.84,0,0,0,7,2.1c3.84,0,5.64-1.92,5.64-4.32s-1.5-3.9-5.4-5.34c-5.22-1.86-7.68-4.74-7.68-8.22,0-4.68,3.78-8.52,10-8.52a14.49,14.49,0,0,1,7.14,1.8L82.08,89a11.3,11.3,0,0,0-5.94-1.68c-3.12,0-4.86,1.8-4.86,4,0,2.4,1.74,3.48,5.52,4.92,5,1.92,7.62,4.44,7.62,8.76,0,5.1-4,8.7-10.86,8.7a16.56,16.56,0,0,1-8.16-2Z"/><path class="cls-1" d="M97.08,75.9a3.27,3.27,0,0,1-6.54,0,3.22,3.22,0,0,1,3.3-3.3A3.13,3.13,0,0,1,97.08,75.9ZM91.2,113.1v-29h5.28v29Z"/><path class="cls-1" d="M105.24,91.92c0-3-.06-5.46-.24-7.86h4.68l.3,4.8h.12a10.68,10.68,0,0,1,9.6-5.46c4,0,10.26,2.4,10.26,12.36V113.1h-5.28V96.36c0-4.68-1.74-8.58-6.72-8.58a7.5,7.5,0,0,0-7.08,5.4,7.59,7.59,0,0,0-.36,2.46V113.1h-5.28Z"/><path class="cls-1" d="M141.48,99.54c.12,7.14,4.68,10.08,10,10.08a19.09,19.09,0,0,0,8-1.5l.9,3.78a23.52,23.52,0,0,1-9.66,1.8c-8.94,0-14.28-5.88-14.28-14.64S141.6,83.4,150.06,83.4c9.48,0,12,8.34,12,13.68a19.91,19.91,0,0,1-.18,2.46ZM157,95.76c.06-3.36-1.38-8.58-7.32-8.58-5.34,0-7.68,4.92-8.1,8.58Z"/><path class="cls-1" d="M167.88,107.7a13.84,13.84,0,0,0,7,2.1c3.84,0,5.64-1.92,5.64-4.32s-1.5-3.9-5.4-5.34c-5.22-1.86-7.68-4.74-7.68-8.22,0-4.68,3.78-8.52,10-8.52a14.49,14.49,0,0,1,7.14,1.8L183.24,89a11.3,11.3,0,0,0-5.94-1.68c-3.12,0-4.86,1.8-4.86,4,0,2.4,1.74,3.48,5.52,4.92,5,1.92,7.62,4.44,7.62,8.76,0,5.1-4,8.7-10.86,8.7a16.56,16.56,0,0,1-8.16-2Z"/><path class="cls-1" d="M191.64,107.7a13.84,13.84,0,0,0,7,2.1c3.84,0,5.64-1.92,5.64-4.32s-1.5-3.9-5.4-5.34c-5.22-1.86-7.68-4.74-7.68-8.22,0-4.68,3.78-8.52,10-8.52a14.49,14.49,0,0,1,7.14,1.8L207,89a11.3,11.3,0,0,0-5.94-1.68c-3.12,0-4.86,1.8-4.86,4,0,2.4,1.74,3.48,5.52,4.92,5,1.92,7.62,4.44,7.62,8.76,0,5.1-4,8.7-10.86,8.7a16.56,16.56,0,0,1-8.16-2Z"/><path class="cls-1" d="M257.27,111.78a25.86,25.86,0,0,1-10.67,1.92c-11.4,0-20-7.2-20-20.46,0-12.66,8.58-21.24,21.11-21.24,5,0,8.22,1.08,9.6,1.8l-1.26,4.26a19,19,0,0,0-8.15-1.68c-9.48,0-15.78,6.06-15.78,16.68,0,9.9,5.7,16.26,15.54,16.26a20.88,20.88,0,0,0,8.51-1.68Z"/><path class="cls-1" d="M289.25,98.34c0,10.74-7.43,15.42-14.45,15.42-7.86,0-13.92-5.76-13.92-14.94,0-9.72,6.36-15.42,14.4-15.42C283.62,83.4,289.25,89.46,289.25,98.34Zm-23,.3c0,6.36,3.66,11.16,8.82,11.16s8.81-4.74,8.81-11.28c0-4.92-2.45-11.16-8.69-11.16S266.22,93.12,266.22,98.64Z"/><path class="cls-1" d="M295.92,91.92c0-3-.06-5.46-.24-7.86h4.68l.3,4.8h.12a10.68,10.68,0,0,1,9.6-5.46c4,0,10.25,2.4,10.25,12.36V113.1h-5.28V96.36c0-4.68-1.73-8.58-6.71-8.58a7.5,7.5,0,0,0-7.08,5.4,7.59,7.59,0,0,0-.36,2.46V113.1h-5.28Z"/><path class="cls-1" d="M329.76,113.1v-25h-4.08v-4h4.08V82.68c0-4.08.9-7.8,3.36-10.14a10.08,10.08,0,0,1,7.07-2.7,12.24,12.24,0,0,1,4.5.84L344,74.76a7.88,7.88,0,0,0-3.36-.66c-4.5,0-5.63,4-5.63,8.4v1.56h7v4h-7v25Z"/><path class="cls-1" d="M348.9,99.54c.12,7.14,4.68,10.08,10,10.08a19.15,19.15,0,0,0,8-1.5l.89,3.78a23.46,23.46,0,0,1-9.65,1.8c-8.94,0-14.28-5.88-14.28-14.64S349,83.4,357.48,83.4c9.47,0,12,8.34,12,13.68a19.91,19.91,0,0,1-.18,2.46Zm15.47-3.78c.07-3.36-1.38-8.58-7.31-8.58-5.34,0-7.68,4.92-8.1,8.58Z"/><path class="cls-1" d="M376,93.12c0-3.42-.07-6.36-.25-9.06h4.63l.17,5.7h.24c1.33-3.9,4.5-6.36,8-6.36a5.71,5.71,0,0,1,1.5.18v5a7.93,7.93,0,0,0-1.8-.18c-3.72,0-6.36,2.82-7.07,6.78a13.81,13.81,0,0,0-.25,2.46V113.1H376Z"/><path class="cls-1" d="M398,99.54c.12,7.14,4.68,10.08,10,10.08a19.13,19.13,0,0,0,8-1.5l.89,3.78a23.46,23.46,0,0,1-9.65,1.8c-8.94,0-14.28-5.88-14.28-14.64S398.1,83.4,406.56,83.4c9.47,0,12,8.34,12,13.68a18.1,18.1,0,0,1-.18,2.46Zm15.47-3.78c.07-3.36-1.38-8.58-7.31-8.58-5.34,0-7.68,4.92-8.1,8.58Z"/><path class="cls-1" d="M425.1,91.92c0-3-.07-5.46-.25-7.86h4.68l.31,4.8H430a10.69,10.69,0,0,1,9.6-5.46c4,0,10.26,2.4,10.26,12.36V113.1h-5.28V96.36c0-4.68-1.74-8.58-6.72-8.58a7.51,7.51,0,0,0-7.08,5.4,7.59,7.59,0,0,0-.36,2.46V113.1H425.1Z"/><path class="cls-1" d="M479.09,112a19.45,19.45,0,0,1-8.34,1.68c-8.76,0-14.45-5.94-14.45-14.82s6.11-15.42,15.59-15.42a17.65,17.65,0,0,1,7.32,1.5L478,89a12.24,12.24,0,0,0-6.12-1.38c-6.66,0-10.25,4.92-10.25,11,0,6.72,4.31,10.86,10.07,10.86a15,15,0,0,0,6.48-1.44Z"/><path class="cls-1" d="M487.85,99.54c.13,7.14,4.68,10.08,10,10.08a19.06,19.06,0,0,0,8-1.5l.9,3.78a23.46,23.46,0,0,1-9.65,1.8c-8.94,0-14.28-5.88-14.28-14.64S488,83.4,496.44,83.4c9.47,0,12,8.34,12,13.68a19.91,19.91,0,0,1-.18,2.46Zm15.48-3.78c.07-3.36-1.38-8.58-7.31-8.58-5.34,0-7.68,4.92-8.1,8.58Z"/><path class="cls-1" d="M556.13,111.78a25.91,25.91,0,0,1-10.68,1.92c-11.4,0-20-7.2-20-20.46,0-12.66,8.57-21.24,21.11-21.24,5,0,8.22,1.08,9.6,1.8l-1.26,4.26a19,19,0,0,0-8.16-1.68c-9.48,0-15.78,6.06-15.78,16.68,0,9.9,5.7,16.26,15.54,16.26a20.89,20.89,0,0,0,8.52-1.68Z"/><path class="cls-1" d="M562.49,70.5h5.28V88.62h.12a9.8,9.8,0,0,1,3.78-3.72,10.87,10.87,0,0,1,5.4-1.5c3.9,0,10.14,2.4,10.14,12.42V113.1h-5.28V96.42c0-4.68-1.74-8.64-6.72-8.64a7.59,7.59,0,0,0-7.08,5.28,6.39,6.39,0,0,0-.36,2.52V113.1h-5.28Z"/><path class="cls-1" d="M601.67,75.9a3.27,3.27,0,0,1-6.54,0,3.22,3.22,0,0,1,3.3-3.3A3.13,3.13,0,0,1,601.67,75.9Zm-5.88,37.2v-29h5.28v29Z"/><path class="cls-1" d="M609.83,91.92c0-3-.06-5.46-.24-7.86h4.68l.3,4.8h.12a10.68,10.68,0,0,1,9.6-5.46c4,0,10.26,2.4,10.26,12.36V113.1h-5.28V96.36c0-4.68-1.74-8.58-6.72-8.58a7.5,7.5,0,0,0-7.08,5.4,7.59,7.59,0,0,0-.36,2.46V113.1h-5.28Z"/><path class="cls-1" d="M659.21,113.1l-.42-3.66h-.18a10.82,10.82,0,0,1-8.88,4.32c-5.88,0-8.88-4.14-8.88-8.34,0-7,6.24-10.86,17.46-10.8V94c0-2.4-.66-6.72-6.6-6.72a14.47,14.47,0,0,0-7.56,2.16L643,86a18,18,0,0,1,9.54-2.58c8.88,0,11,6.06,11,11.88v10.86a40.89,40.89,0,0,0,.48,7Zm-.78-14.82c-5.76-.12-12.3.9-12.3,6.54a4.67,4.67,0,0,0,5,5,7.23,7.23,0,0,0,7-4.86,5.51,5.51,0,0,0,.3-1.68Z"/><path class="cls-1" d="M683.09,113.1v-3.24l4.14-4c10-9.48,14.46-14.52,14.52-20.4,0-4-1.92-7.62-7.74-7.62a13.28,13.28,0,0,0-8.28,3.3l-1.68-3.72a17.11,17.11,0,0,1,11-4c8.4,0,11.94,5.76,11.94,11.34,0,7.2-5.22,13-13.44,20.94l-3.12,2.88v.12H708v4.38Z"/><path class="cls-1" d="M739.79,93.18c0,13.26-4.92,20.58-13.56,20.58-7.62,0-12.78-7.14-12.9-20,0-13.08,5.64-20.28,13.56-20.28C735.11,73.44,739.79,80.76,739.79,93.18Zm-21.18.6c0,10.14,3.12,15.9,7.92,15.9,5.4,0,8-6.3,8-16.26,0-9.6-2.46-15.9-7.92-15.9C722,77.52,718.61,83.16,718.61,93.78Z"/><path class="cls-1" d="M744.65,113.1v-3.24l4.14-4c10-9.48,14.46-14.52,14.52-20.4,0-4-1.92-7.62-7.74-7.62a13.28,13.28,0,0,0-8.28,3.3l-1.68-3.72a17.11,17.11,0,0,1,11-4c8.4,0,11.94,5.76,11.94,11.34,0,7.2-5.22,13-13.44,20.94L752,108.6v.12h17.52v4.38Z"/><path class="cls-1" d="M801.35,93.18c0,13.26-4.92,20.58-13.56,20.58-7.62,0-12.78-7.14-12.9-20,0-13.08,5.64-20.28,13.56-20.28C796.67,73.44,801.35,80.76,801.35,93.18Zm-21.18.6c0,10.14,3.12,15.9,7.92,15.9,5.4,0,8-6.3,8-16.26,0-9.6-2.46-15.9-7.92-15.9C783.53,77.52,780.17,83.16,780.17,93.78Z"/></g></g></svg>