<svg xmlns="http://www.w3.org/2000/svg" viewBox="0 0 278.8 95.6"><defs><style>.cls-1{fill:#fff;}</style></defs><title>资源 54</title><g id="图层_2" data-name="图层 2"><g id="图层_1-2" data-name="图层 1"><path class="cls-1" d="M136.32,52.74c-3.72-.19-7.48-.35-11.27-.35s-7.54.15-11.26.35a12.68,12.68,0,0,0-12,12.62V82.64a12.66,12.66,0,0,0,12,12.61c3.72.2,7.48.35,11.26.35s7.55-.15,11.27-.35a12.66,12.66,0,0,0,12-12.61v-1H142.9v1a7.22,7.22,0,0,1-6.81,7.17c-3.64.21-7.32.36-11,.36s-7.39-.15-11-.36a7.22,7.22,0,0,1-6.81-7.17V65.36A7.22,7.22,0,0,1,114,58.19c3.64-.21,7.32-.36,11-.36s7.4.15,11,.36a7.22,7.22,0,0,1,6.81,7.17v5.85H120.46v5.58h27.87V65.36A12.68,12.68,0,0,0,136.32,52.74Zm-101.78,0c-3.72-.19-7.47-.35-11.26-.35s-7.55.15-11.26.35A12.68,12.68,0,0,0,0,65.36V82.64A12.66,12.66,0,0,0,12,95.25c3.71.2,7.47.35,11.26.35s7.54-.15,11.26-.35a12.67,12.67,0,0,0,12-12.61v-1H41.12v1a7.21,7.21,0,0,1-6.8,7.17c-3.65.21-7.33.36-11,.36s-7.4-.15-11-.36a7.21,7.21,0,0,1-6.8-7.17V65.36a7.21,7.21,0,0,1,6.8-7.17c3.64-.21,7.32-.36,11-.36s7.39.15,11,.36a7.21,7.21,0,0,1,6.8,7.17v5.85H18.68v5.58H46.56V65.36A12.69,12.69,0,0,0,34.54,52.74ZM156,65.36V95.19h5.44V65.36a7.1,7.1,0,0,1,6.9-7.11h11.08V52.81H168.15A12.55,12.55,0,0,0,156,65.36ZM83.37,52.82c-3-.27-6.06-.43-9.12-.43s-6.11.16-9.11.43A12.62,12.62,0,0,0,53.62,65.36V95.19h5.44V65.36a7.26,7.26,0,0,1,6.77-7.19c2.77-.19,5.58-.34,8.42-.34s5.66.15,8.43.34a7.26,7.26,0,0,1,6.77,7.19V95.19h5.43V65.36A12.59,12.59,0,0,0,83.37,52.82Zm134.49-.07c-3.72-.2-7.47-.36-11.26-.36s-7.55.15-11.26.36a12.66,12.66,0,0,0-12,12.61V82.64a12.68,12.68,0,0,0,12,12.62c3.71.19,7.47.34,11.26.34s7.54-.15,11.26-.34a12.68,12.68,0,0,0,12-12.62V71.21H202v5.58h22.44v5.85a7.21,7.21,0,0,1-6.8,7.17c-3.65.21-7.33.36-11,.36s-7.4-.15-11-.36a7.21,7.21,0,0,1-6.8-7.17V65.36a7.21,7.21,0,0,1,6.8-7.17c3.64-.21,7.32-.36,11-.36s7.39.15,11,.36a7.21,7.21,0,0,1,6.8,7.17v1h5.43v-1A12.66,12.66,0,0,0,217.86,52.75Zm60.94.06H272L253.53,77.32A12.47,12.47,0,0,0,251,84.87V95.19h5.43V84.87a7.07,7.07,0,0,1,1.44-4.28Zm-41.18,0h-7.1l19.36,23.08,3.36-4.46Z"/><path class="cls-1" d="M73.5,25H90V18H73.5V8.42h19V.74H62.07V43.2H93V35.09H73.5ZM19.22,16.76q-5.4-2.43-6.6-3.18a2.77,2.77,0,0,1-1.44-2.4q0-3.93,7.15-3.93a29.83,29.83,0,0,1,11,2.36V1.55A69.23,69.23,0,0,0,17.16,0Q9.54,0,4.8,3.27A10.92,10.92,0,0,0,0,12.87,10.8,10.8,0,0,0,3.3,21q2.54,2.43,10.92,5.88c3.12,1.28,5,2.28,5.81,3a3.29,3.29,0,0,1,1.11,2.52q0,4-7.61,4A43,43,0,0,1,.86,34.13v8.38A57.88,57.88,0,0,0,14,44.06q7.74,0,12.6-2.94a11.6,11.6,0,0,0,6-10.53,10.54,10.54,0,0,0-3.06-7.83Q27,20.21,19.22,16.76ZM126.78,27.87,116.09.74H100.72V43.2h8.35V13.14l12.21,30.49h7.36l12.45-30.49V43.2h11.24V.74h-14.6ZM39.33,43.2H51.19V.74H39.33ZM275.74,22.76q-2.6-2.55-10.32-6c-3.66-1.64-5.86-2.7-6.63-3.18a2.78,2.78,0,0,1-1.43-2.4c0-2.62,2.36-3.93,7.11-3.93a29.89,29.89,0,0,1,11,2.36V1.55l-1-.19A59.11,59.11,0,0,0,263.33,0Q255.71,0,251,3.27a10.89,10.89,0,0,0-4.8,9.57,10.79,10.79,0,0,0,3.3,8.12q2.57,2.46,10.92,5.88c3.14,1.28,5.08,2.28,5.84,3a3.33,3.33,0,0,1,1.08,2.52q0,4-7.61,4A42.47,42.47,0,0,1,247,34.13v8.38a57.88,57.88,0,0,0,13.17,1.55q7.74,0,12.63-2.94a11.61,11.61,0,0,0,6-10.53A10.54,10.54,0,0,0,275.74,22.76ZM174.64,25h16.53V18H174.64V8.42h19V.74H163.21V43.2h30.91V35.09H174.64Zm55.62,4.15L215.67.74H201.93V43.2h8.35V14.39l15,28.81h13.35V.74h-8.35Z"/></g></g></svg>