<svg xmlns="http://www.w3.org/2000/svg" viewBox="0 0 77.64 77.64"><defs><style>.cls-1{fill:#7d6764;}.cls-2{fill:#fff;}</style></defs><title>资源 29</title><g id="图层_2" data-name="图层 2"><g id="图层_1-2" data-name="图层 1"><rect class="cls-1" width="77.64" height="77.64"/><path class="cls-2" d="M47.68,26.85a14,14,0,0,0-2.91.17,11.63,11.63,0,0,0-9.94,10.17H35a8.53,8.53,0,0,1,6.91-3.3c5.06,0,8.62,3.65,8.62,9.24,0,5.24-3.56,10.08-9.5,10.08-6.12,0-10.13-4.76-10.13-12.19a18,18,0,0,1,4.85-12.9,15.55,15.55,0,0,1,9.15-4.22,18,18,0,0,1,2.82-.22Zm-1.11,16.5c0-4.09-2.33-6.56-5.89-6.56a6.4,6.4,0,0,0-5.55,3.52A3.36,3.36,0,0,0,34.69,42c.09,4.71,2.25,8.19,6.3,8.19C44.33,50.22,46.57,47.44,46.57,43.35Z"/></g></g></svg>