<svg xmlns="http://www.w3.org/2000/svg" viewBox="0 0 77.64 77.64"><defs><style>.cls-1{fill:#bb5633;}.cls-2{fill:#fff;}</style></defs><title>资源 33</title><g id="图层_2" data-name="图层 2"><g id="图层_1-2" data-name="图层 1"><rect class="cls-1" width="77.64" height="77.64"/><path class="cls-2" d="M32.27,48.28a13,13,0,0,0,6.34,1.8c5,0,6.51-3.17,6.47-5.54,0-4-3.65-5.72-7.39-5.72H35.53V35.91h2.16c2.81,0,6.38-1.45,6.38-4.84,0-2.29-1.46-4.31-5-4.31a10.49,10.49,0,0,0-5.72,1.89l-1-2.81a13.58,13.58,0,0,1,7.48-2.2C45.43,23.64,48,27,48,30.46c0,2.94-1.76,5.45-5.28,6.73v.09c3.52.7,6.38,3.34,6.38,7.35,0,4.57-3.56,8.58-10.43,8.58a14.46,14.46,0,0,1-7.43-1.94Z"/></g></g></svg>