<svg xmlns="http://www.w3.org/2000/svg" viewBox="0 0 346.51 35.84"><defs><style>.cls-1{fill:#434343;}</style></defs><title>资源 32</title><g id="图层_2" data-name="图层 2"><g id="图层_1-2" data-name="图层 1"><path class="cls-1" d="M21.57,26.52A24.44,24.44,0,0,1,13.49,28c-4,0-7.25-1-9.82-3.47A13.48,13.48,0,0,1,0,14.7C0,6.86,5.42,1.13,14.24,1.13a16.17,16.17,0,0,1,6.55,1.21L20,5.11A13.56,13.56,0,0,0,14.16,4C7.76,4,3.59,8,3.59,14.55s4,10.61,10.14,10.61a11,11,0,0,0,4.52-.71V16.61H12.91V13.88h8.66Z"/><path class="cls-1" d="M37.4,27.69l-.27-2.38H37a7,7,0,0,1-5.77,2.81,5.38,5.38,0,0,1-5.77-5.42c0-4.56,4.05-7.06,11.35-7v-.39c0-1.56-.43-4.37-4.29-4.37a9.5,9.5,0,0,0-4.92,1.4l-.78-2.26A11.74,11.74,0,0,1,33,8.39c5.77,0,7.18,3.93,7.18,7.72v7.06a27,27,0,0,0,.31,4.52Zm-.51-9.63c-3.74-.08-8,.58-8,4.25a3,3,0,0,0,3.23,3.27,4.71,4.71,0,0,0,4.57-3.15,3.58,3.58,0,0,0,.19-1.1Z"/><path class="cls-1" d="M49.72,3.39V8.81h4.92v2.62H49.72V21.61c0,2.34.67,3.66,2.58,3.66a7.54,7.54,0,0,0,2-.23l.15,2.57a8.21,8.21,0,0,1-3,.47,4.76,4.76,0,0,1-3.7-1.44c-1-1-1.33-2.69-1.33-4.92V11.43H43.45V8.81h2.92V4.29Z"/><path class="cls-1" d="M58.5,0h3.43V11.78H62a6.36,6.36,0,0,1,2.46-2.42,7.09,7.09,0,0,1,3.51-1c2.53,0,6.59,1.56,6.59,8.07V27.69H71.14V16.85c0-3-1.14-5.62-4.37-5.62a4.92,4.92,0,0,0-4.6,3.43,4.08,4.08,0,0,0-.24,1.64V27.69H58.5Z"/><path class="cls-1" d="M82.05,18.88c.08,4.64,3,6.55,6.48,6.55a12.36,12.36,0,0,0,5.23-1l.58,2.46a15.24,15.24,0,0,1-6.28,1.17c-5.81,0-9.28-3.82-9.28-9.52S82.13,8.39,87.63,8.39c6.16,0,7.8,5.42,7.8,8.89a15.49,15.49,0,0,1-.11,1.6Zm10.07-2.46c0-2.18-.9-5.58-4.76-5.58-3.47,0-5,3.2-5.27,5.58Z"/><path class="cls-1" d="M99.68,14.7c0-2.22,0-4.13-.15-5.89h3l.12,3.71h.15A5.66,5.66,0,0,1,108,8.39a3.6,3.6,0,0,1,1,.11v3.24a5,5,0,0,0-1.17-.12c-2.41,0-4.13,1.84-4.6,4.41a9.47,9.47,0,0,0-.15,1.6V27.69h-3.4Z"/><path class="cls-1" d="M116.41,3.51a2.13,2.13,0,0,1-4.25,0,2.1,2.1,0,0,1,2.15-2.15A2,2,0,0,1,116.41,3.51Zm-3.82,24.18V8.81H116V27.69Z"/><path class="cls-1" d="M121.72,13.92c0-1.95,0-3.55-.16-5.11h3l.2,3.12h.08a6.94,6.94,0,0,1,6.24-3.54c2.61,0,6.67,1.56,6.67,8V27.69h-3.44V16.81c0-3-1.13-5.58-4.36-5.58a4.88,4.88,0,0,0-4.61,3.51,5.14,5.14,0,0,0-.23,1.6V27.69h-3.43Z"/><path class="cls-1" d="M159.62,8.81c-.07,1.37-.15,2.89-.15,5.19V25c0,4.33-.86,7-2.69,8.62a10,10,0,0,1-6.87,2.26,12.16,12.16,0,0,1-6.28-1.56l.86-2.61A10.66,10.66,0,0,0,150,33.15c3.51,0,6.09-1.83,6.09-6.59V24.45H156a6.74,6.74,0,0,1-6,3.16c-4.68,0-8-4-8-9.2,0-6.4,4.17-10,8.5-10a6.27,6.27,0,0,1,5.89,3.27h.08l.15-2.85Zm-3.54,7.45a4.8,4.8,0,0,0-.2-1.56,4.93,4.93,0,0,0-4.8-3.62c-3.27,0-5.61,2.77-5.61,7.13,0,3.71,1.87,6.79,5.57,6.79a5,5,0,0,0,4.76-3.51,5.86,5.86,0,0,0,.28-1.83Z"/><path class="cls-1" d="M177.56,3.39V8.81h4.92v2.62h-4.92V21.61c0,2.34.67,3.66,2.58,3.66a7.54,7.54,0,0,0,2-.23l.15,2.57a8.21,8.21,0,0,1-3,.47,4.76,4.76,0,0,1-3.7-1.44c-1-1-1.33-2.69-1.33-4.92V11.43h-2.92V8.81h2.92V4.29Z"/><path class="cls-1" d="M190.16,3.51a2.13,2.13,0,0,1-4.25,0,2.1,2.1,0,0,1,2.15-2.15A2,2,0,0,1,190.16,3.51Zm-3.82,24.18V8.81h3.43V27.69Z"/><path class="cls-1" d="M195.46,13.92c0-1.95,0-3.55-.15-5.11h3l.16,3h.11a6.51,6.51,0,0,1,5.93-3.47,5.59,5.59,0,0,1,5.35,3.78h.07A8,8,0,0,1,212,9.71a6.43,6.43,0,0,1,4.17-1.32c2.5,0,6.21,1.63,6.21,8.19V27.69h-3.36V17c0-3.62-1.32-5.81-4.09-5.81a4.46,4.46,0,0,0-4.06,3.12,5.59,5.59,0,0,0-.27,1.72V27.69h-3.36V16.38c0-3-1.32-5.19-3.94-5.19a4.7,4.7,0,0,0-4.25,3.44,4.8,4.8,0,0,0-.27,1.67V27.69h-3.36Z"/><path class="cls-1" d="M229.9,18.88c.08,4.64,3,6.55,6.48,6.55a12.31,12.31,0,0,0,5.22-1l.59,2.46a15.24,15.24,0,0,1-6.28,1.17c-5.81,0-9.28-3.82-9.28-9.52S230,8.39,235.48,8.39c6.16,0,7.8,5.42,7.8,8.89a12.66,12.66,0,0,1-.12,1.6ZM240,16.42c0-2.18-.89-5.58-4.75-5.58-3.47,0-5,3.2-5.27,5.58Z"/><path class="cls-1" d="M246.71,11.93a2.32,2.32,0,1,1,4.64,0,2.32,2.32,0,1,1-4.64,0Zm0,13.77a2.32,2.32,0,1,1,4.64,0,2.32,2.32,0,1,1-4.64,0Z"/><path class="cls-1" d="M270.23,5.54h-.08l-4.41,2.38-.66-2.62,5.54-3h2.92V27.69h-3.31Z"/><path class="cls-1" d="M282.79,27.69V25.58L285.48,23c6.47-6.16,9.4-9.44,9.44-13.26,0-2.57-1.25-5-5-5A8.66,8.66,0,0,0,284.5,6.9l-1.09-2.42a11.12,11.12,0,0,1,7.18-2.57c5.46,0,7.76,3.75,7.76,7.37,0,4.68-3.4,8.47-8.74,13.61l-2,1.88v.07H299v2.85Z"/><path class="cls-1" d="M303.07,11.93a2.32,2.32,0,1,1,4.64,0,2.32,2.32,0,1,1-4.64,0Zm0,13.77a2.32,2.32,0,1,1,4.64,0,2.32,2.32,0,1,1-4.64,0Z"/><path class="cls-1" d="M318.31,5.54h-.07l-4.41,2.38-.66-2.62,5.53-3h2.93V27.69h-3.32Z"/><path class="cls-1" d="M346,5.23h-9.67l-1,6.51a13.13,13.13,0,0,1,2.06-.16A10.68,10.68,0,0,1,342.88,13a7.22,7.22,0,0,1,3.63,6.51c0,5-3.94,8.66-9.44,8.66a12.42,12.42,0,0,1-6.32-1.56l.86-2.61a11.43,11.43,0,0,0,5.42,1.4c3.24,0,6-2.11,6-5.5s-2.22-5.61-7.29-5.61a25.62,25.62,0,0,0-3.51.27l1.63-12.17H346Z"/></g></g></svg>