<svg xmlns="http://www.w3.org/2000/svg" viewBox="0 0 839.67 96.74"><defs><style>.cls-1{fill:#434343;}</style></defs><title>资源 36</title><g id="图层_2" data-name="图层 2"><g id="图层_1-2" data-name="图层 1"><path class="cls-1" d="M.27,2.15a38.64,38.64,0,0,1,6.52-.51c3.35,0,5.81.78,7.37,2.18a7.08,7.08,0,0,1,2.3,5.5,7.74,7.74,0,0,1-2,5.62c-1.79,1.91-4.72,2.88-8,2.88a11.94,11.94,0,0,1-2.73-.23V28.12H.27Zm3.4,12.67a11.09,11.09,0,0,0,2.8.27c4.1,0,6.6-2,6.6-5.61S10.61,4.33,6.86,4.33a14.55,14.55,0,0,0-3.19.27Z"/><path class="cls-1" d="M20.71.43h3.43V28.12H20.71Z"/><path class="cls-1" d="M31.82,19.31c.08,4.64,3,6.55,6.48,6.55a12.36,12.36,0,0,0,5.23-1l.58,2.46a15.24,15.24,0,0,1-6.28,1.17c-5.81,0-9.28-3.82-9.28-9.52S31.9,8.81,37.4,8.81c6.16,0,7.8,5.43,7.8,8.9a12.83,12.83,0,0,1-.12,1.6Zm10.07-2.46c0-2.19-.9-5.58-4.76-5.58-3.47,0-5,3.2-5.27,5.58Z"/><path class="cls-1" d="M59.91,28.12l-.28-2.38h-.12a7,7,0,0,1-5.77,2.81A5.38,5.38,0,0,1,48,23.13c0-4.57,4.06-7.06,11.35-7v-.39c0-1.56-.43-4.37-4.29-4.37a9.43,9.43,0,0,0-4.91,1.4l-.78-2.26a11.75,11.75,0,0,1,6.2-1.68c5.77,0,7.17,3.94,7.17,7.73V23.6A26,26,0,0,0,63,28.12Zm-.51-9.63c-3.75-.08-8,.58-8,4.25A3,3,0,0,0,54.64,26a4.68,4.68,0,0,0,4.56-3.16,3.49,3.49,0,0,0,.2-1.09Z"/><path class="cls-1" d="M67.78,24.61A9.05,9.05,0,0,0,72.31,26C74.8,26,76,24.73,76,23.17s-1-2.54-3.51-3.47c-3.39-1.21-5-3.09-5-5.35,0-3,2.46-5.54,6.51-5.54A9.45,9.45,0,0,1,78.62,10l-.85,2.5a7.34,7.34,0,0,0-3.86-1.09c-2,0-3.16,1.17-3.16,2.57,0,1.56,1.13,2.26,3.58,3.2,3.28,1.25,5,2.89,5,5.69,0,3.32-2.58,5.66-7.06,5.66a10.79,10.79,0,0,1-5.31-1.29Z"/><path class="cls-1" d="M85.6,19.31c.08,4.64,3.05,6.55,6.48,6.55a12.36,12.36,0,0,0,5.23-1l.58,2.46a15.24,15.24,0,0,1-6.28,1.17c-5.81,0-9.28-3.82-9.28-9.52S85.68,8.81,91.18,8.81c6.16,0,7.8,5.43,7.8,8.9a15.71,15.71,0,0,1-.11,1.6Zm10.07-2.46c0-2.19-.9-5.58-4.76-5.58-3.47,0-5,3.2-5.27,5.58Z"/><path class="cls-1" d="M111.85,28.12V11.86H109.2V9.24h2.65V8.35c0-2.66.59-5.07,2.19-6.6A6.58,6.58,0,0,1,118.64,0a7.76,7.76,0,0,1,2.92.55l-.47,2.65a5,5,0,0,0-2.18-.43c-2.92,0-3.67,2.57-3.67,5.46v1h4.57v2.62h-4.57V28.12Z"/><path class="cls-1" d="M139.46,18.53c0,7-4.83,10-9.4,10-5.1,0-9-3.74-9-9.71,0-6.32,4.13-10,9.36-10C135.8,8.81,139.46,12.75,139.46,18.53Zm-15,.19c0,4.13,2.38,7.26,5.73,7.26S136,22.89,136,18.64c0-3.2-1.6-7.25-5.65-7.25S124.49,15.13,124.49,18.72Z"/><path class="cls-1" d="M143.79.43h3.43V28.12h-3.43Z"/><path class="cls-1" d="M153,.43h3.43V28.12H153Z"/><path class="cls-1" d="M179.28,18.53c0,7-4.83,10-9.4,10-5.11,0-9-3.74-9-9.71,0-6.32,4.13-10,9.36-10C175.62,8.81,179.28,12.75,179.28,18.53Zm-15,.19c0,4.13,2.38,7.26,5.73,7.26s5.73-3.09,5.73-7.34c0-3.2-1.6-7.25-5.65-7.25S164.31,15.13,164.31,18.72Z"/><path class="cls-1" d="M184.7,9.24l2.5,9.6c.55,2.1,1.05,4.05,1.4,6h.12c.43-1.91,1.05-3.94,1.68-6l3.08-9.64h2.89l2.92,9.44c.7,2.26,1.25,4.25,1.68,6.16h.11a57.21,57.21,0,0,1,1.45-6.12l2.69-9.48h3.39l-6.08,18.88h-3.12l-2.89-9c-.66-2.11-1.21-4-1.68-6.2h-.07a57.19,57.19,0,0,1-1.72,6.24l-3,9h-3.12l-5.7-18.88Z"/><path class="cls-1" d="M221.56,9.24l4.13,11.16c.43,1.25.9,2.73,1.21,3.86H227c.35-1.13.74-2.57,1.21-3.94l3.74-11.08h3.63L230.41,22.7c-2.45,6.47-4.13,9.79-6.47,11.82a9.4,9.4,0,0,1-4.21,2.22l-.86-2.89a9.07,9.07,0,0,0,3-1.67,10.35,10.35,0,0,0,2.89-3.83,2.59,2.59,0,0,0,.27-.81,3.13,3.13,0,0,0-.23-.9l-7-17.4Z"/><path class="cls-1" d="M255.37,18.53c0,7-4.83,10-9.4,10-5.11,0-9-3.74-9-9.71,0-6.32,4.13-10,9.36-10C251.71,8.81,255.37,12.75,255.37,18.53Zm-15,.19c0,4.13,2.38,7.26,5.73,7.26s5.73-3.09,5.73-7.34c0-3.2-1.6-7.25-5.65-7.25S240.4,15.13,240.4,18.72Z"/><path class="cls-1" d="M275.5,23c0,2,0,3.67.15,5.15h-3L272.42,25h-.08a7.11,7.11,0,0,1-6.24,3.51c-3,0-6.52-1.64-6.52-8.27v-11H263V19.7c0,3.58,1.09,6,4.21,6a4.85,4.85,0,0,0,4.84-4.87V9.24h3.43Z"/><path class="cls-1" d="M281.19,15.13c0-2.22,0-4.13-.15-5.89h3l.12,3.71h.15a5.67,5.67,0,0,1,5.23-4.14,3.58,3.58,0,0,1,1,.12v3.24a5,5,0,0,0-1.17-.12c-2.42,0-4.13,1.83-4.6,4.41a9.41,9.41,0,0,0-.16,1.6V28.12h-3.39Z"/><path class="cls-1" d="M306.35,3.82V9.24h4.91v2.62h-4.91V22c0,2.34.66,3.66,2.57,3.66a8,8,0,0,0,2-.23l.15,2.57a8.42,8.42,0,0,1-3,.47,4.76,4.76,0,0,1-3.7-1.44c-1-1-1.33-2.69-1.33-4.92V11.86h-2.92V9.24H303V4.72Z"/><path class="cls-1" d="M318.94,3.94a2.13,2.13,0,0,1-4.25,0,2.1,2.1,0,0,1,2.15-2.15A2,2,0,0,1,318.94,3.94Zm-3.82,24.18V9.24h3.43V28.12Z"/><path class="cls-1" d="M324.25,14.35c0-1.95,0-3.55-.16-5.11h3l.16,3h.12a6.49,6.49,0,0,1,5.92-3.48,5.58,5.58,0,0,1,5.35,3.79h.08a7.69,7.69,0,0,1,2.1-2.46A6.44,6.44,0,0,1,345,8.81c2.49,0,6.2,1.64,6.2,8.19V28.12h-3.36V17.43c0-3.62-1.32-5.81-4.09-5.81a4.46,4.46,0,0,0-4.06,3.12,5.85,5.85,0,0,0-.27,1.72V28.12h-3.36V16.81c0-3-1.32-5.19-3.94-5.19a4.7,4.7,0,0,0-4.25,3.43,4.89,4.89,0,0,0-.27,1.68V28.12h-3.35Z"/><path class="cls-1" d="M358.68,19.31c.08,4.64,3.05,6.55,6.48,6.55a12.27,12.27,0,0,0,5.22-1l.59,2.46a15.24,15.24,0,0,1-6.28,1.17c-5.81,0-9.28-3.82-9.28-9.52s3.35-10.18,8.85-10.18c6.16,0,7.8,5.43,7.8,8.9a12.83,12.83,0,0,1-.12,1.6Zm10.07-2.46c0-2.19-.9-5.58-4.76-5.58-3.47,0-5,3.2-5.27,5.58Z"/><path class="cls-1" d="M384.11,24.61A9.05,9.05,0,0,0,388.64,26c2.49,0,3.66-1.25,3.66-2.81s-1-2.54-3.51-3.47c-3.39-1.21-5-3.09-5-5.35,0-3,2.46-5.54,6.51-5.54A9.45,9.45,0,0,1,395,10l-.85,2.5a7.38,7.38,0,0,0-3.87-1.09c-2,0-3.15,1.17-3.15,2.57,0,1.56,1.13,2.26,3.58,3.2,3.28,1.25,5,2.89,5,5.69,0,3.32-2.58,5.66-7.06,5.66a10.79,10.79,0,0,1-5.31-1.29Z"/><path class="cls-1" d="M413.48,27.42a12.64,12.64,0,0,1-5.42,1.09c-5.7,0-9.4-3.86-9.4-9.63s4-10,10.14-10a11.45,11.45,0,0,1,4.76,1l-.78,2.65a8,8,0,0,0-4-.9c-4.33,0-6.67,3.2-6.67,7.14,0,4.37,2.81,7.06,6.55,7.06a9.7,9.7,0,0,0,4.21-.94Z"/><path class="cls-1" d="M417.49.43h3.44V12.21H421a6.36,6.36,0,0,1,2.46-2.42,7,7,0,0,1,3.51-1c2.54,0,6.59,1.56,6.59,8.08V28.12h-3.43V17.28c0-3-1.13-5.62-4.37-5.62a4.94,4.94,0,0,0-4.6,3.43,4.28,4.28,0,0,0-.23,1.64V28.12h-3.44Z"/><path class="cls-1" d="M441.05,19.31c.08,4.64,3,6.55,6.47,6.55a12.36,12.36,0,0,0,5.23-1l.59,2.46a15.24,15.24,0,0,1-6.28,1.17c-5.81,0-9.29-3.82-9.29-9.52s3.36-10.18,8.86-10.18c6.16,0,7.8,5.43,7.8,8.9a12.83,12.83,0,0,1-.12,1.6Zm10.06-2.46c0-2.19-.89-5.58-4.76-5.58-3.47,0-5,3.2-5.26,5.58Z"/><path class="cls-1" d="M475,.43V23.25c0,1.67,0,3.58.16,4.87h-3.08l-.16-3.28h-.08a7,7,0,0,1-6.43,3.71c-4.57,0-8.08-3.86-8.08-9.6,0-6.27,3.86-10.14,8.47-10.14a6.32,6.32,0,0,1,5.69,2.89h.08V.43Zm-3.43,16.5a6,6,0,0,0-.16-1.45,5,5,0,0,0-4.95-4c-3.55,0-5.66,3.12-5.66,7.29,0,3.82,1.88,7,5.58,7a5.16,5.16,0,0,0,5-4.09,5.87,5.87,0,0,0,.16-1.49Z"/><path class="cls-1" d="M496.47,23c0,2,0,3.67.16,5.15h-3.05L493.39,25h-.08a7.11,7.11,0,0,1-6.24,3.51c-3,0-6.51-1.64-6.51-8.27v-11H484V19.7c0,3.58,1.09,6,4.21,6a5,5,0,0,0,4.53-3.12,5.14,5.14,0,0,0,.31-1.75V9.24h3.43Z"/><path class="cls-1" d="M502.16.43h3.44V28.12h-3.44Z"/><path class="cls-1" d="M513.28,19.31c.08,4.64,3,6.55,6.47,6.55a12.36,12.36,0,0,0,5.23-1l.58,2.46a15.15,15.15,0,0,1-6.27,1.17c-5.82,0-9.29-3.82-9.29-9.52s3.36-10.18,8.86-10.18c6.16,0,7.8,5.43,7.8,8.9a12.83,12.83,0,0,1-.12,1.6Zm10.06-2.46c0-2.19-.9-5.58-4.76-5.58-3.47,0-5,3.2-5.26,5.58Z"/><path class="cls-1" d="M549.63,28.12l-.28-2.38h-.11a7.05,7.05,0,0,1-5.78,2.81,5.38,5.38,0,0,1-5.77-5.42c0-4.57,4.06-7.06,11.35-7v-.39c0-1.56-.43-4.37-4.29-4.37a9.46,9.46,0,0,0-4.91,1.4l-.78-2.26a11.75,11.75,0,0,1,6.2-1.68c5.77,0,7.17,3.94,7.17,7.73V23.6a26,26,0,0,0,.32,4.52Zm-.51-9.63c-3.74-.08-8,.58-8,4.25A3,3,0,0,0,544.36,26a4.68,4.68,0,0,0,4.56-3.16,3.49,3.49,0,0,0,.2-1.09Z"/><path class="cls-1" d="M571.43,27.42A12.64,12.64,0,0,1,566,28.51c-5.7,0-9.4-3.86-9.4-9.63s4-10,10.14-10a11.45,11.45,0,0,1,4.76,1l-.78,2.65a8,8,0,0,0-4-.9c-4.33,0-6.67,3.2-6.67,7.14,0,4.37,2.81,7.06,6.55,7.06a9.7,9.7,0,0,0,4.21-.94Z"/><path class="cls-1" d="M588.67,27.42a12.66,12.66,0,0,1-5.43,1.09c-5.69,0-9.4-3.86-9.4-9.63s4-10,10.14-10a11.41,11.41,0,0,1,4.76,1L588,12.48a7.92,7.92,0,0,0-4-.9c-4.32,0-6.66,3.2-6.66,7.14,0,4.37,2.8,7.06,6.55,7.06a9.74,9.74,0,0,0,4.21-.94Z"/><path class="cls-1" d="M609.53,18.53c0,7-4.84,10-9.4,10-5.11,0-9-3.74-9-9.71,0-6.32,4.14-10,9.36-10C605.86,8.81,609.53,12.75,609.53,18.53Zm-15,.19c0,4.13,2.38,7.26,5.74,7.26S606,22.89,606,18.64c0-3.2-1.6-7.25-5.65-7.25S594.55,15.13,594.55,18.72Z"/><path class="cls-1" d="M613.86,15.13c0-2.22,0-4.13-.16-5.89h3l.11,3.71H617a5.66,5.66,0,0,1,5.23-4.14,3.63,3.63,0,0,1,1,.12v3.24a5,5,0,0,0-1.17-.12c-2.42,0-4.13,1.83-4.6,4.41a9.41,9.41,0,0,0-.16,1.6V28.12h-3.39Z"/><path class="cls-1" d="M642.52.43V23.25c0,1.67,0,3.58.16,4.87H639.6l-.16-3.28h-.07a7,7,0,0,1-6.44,3.71c-4.56,0-8.07-3.86-8.07-9.6,0-6.27,3.86-10.14,8.46-10.14A6.29,6.29,0,0,1,639,11.7h.08V.43Zm-3.43,16.5a6.49,6.49,0,0,0-.15-1.45,5.05,5.05,0,0,0-5-4c-3.55,0-5.65,3.12-5.65,7.29,0,3.82,1.87,7,5.58,7a5.16,5.16,0,0,0,5-4.09,6.38,6.38,0,0,0,.15-1.49Z"/><path class="cls-1" d="M652,3.94a2.13,2.13,0,0,1-4.25,0,2.1,2.1,0,0,1,2.14-2.15A2,2,0,0,1,652,3.94Zm-3.82,24.18V9.24h3.43V28.12Z"/><path class="cls-1" d="M657.34,14.35c0-1.95,0-3.55-.15-5.11h3l.2,3.12h.07a7,7,0,0,1,6.24-3.55c2.62,0,6.67,1.56,6.67,8V28.12H670V17.24c0-3-1.13-5.58-4.37-5.58a5,5,0,0,0-4.83,5.11V28.12h-3.44Z"/><path class="cls-1" d="M695.25,9.24c-.08,1.37-.15,2.89-.15,5.19v11c0,4.33-.86,7-2.69,8.62a10,10,0,0,1-6.87,2.26,12.13,12.13,0,0,1-6.28-1.56l.86-2.61a10.66,10.66,0,0,0,5.54,1.48c3.51,0,6.08-1.83,6.08-6.59V24.88h-.08a6.72,6.72,0,0,1-6,3.16c-4.68,0-8-4-8-9.2,0-6.4,4.18-10,8.51-10A6.29,6.29,0,0,1,692,12.09h.07l.16-2.85Zm-3.55,7.45a5.1,5.1,0,0,0-.19-1.56,4.94,4.94,0,0,0-4.8-3.62c-3.28,0-5.62,2.76-5.62,7.13,0,3.71,1.88,6.79,5.58,6.79a5,5,0,0,0,4.76-3.51,6.15,6.15,0,0,0,.27-1.83Z"/><path class="cls-1" d="M713.19,3.82V9.24h4.92v2.62h-4.92V22c0,2.34.66,3.66,2.58,3.66a7.9,7.9,0,0,0,2-.23l.16,2.57a8.46,8.46,0,0,1-3,.47,4.79,4.79,0,0,1-3.71-1.44c-1-1-1.32-2.69-1.32-4.92V11.86h-2.93V9.24h2.93V4.72Z"/><path class="cls-1" d="M738.81,18.53c0,7-4.83,10-9.39,10-5.11,0-9-3.74-9-9.71,0-6.32,4.13-10,9.36-10C735.15,8.81,738.81,12.75,738.81,18.53Zm-15,.19c0,4.13,2.38,7.26,5.73,7.26s5.73-3.09,5.73-7.34c0-3.2-1.59-7.25-5.65-7.25S723.84,15.13,723.84,18.72Z"/><path class="cls-1" d="M751.41,14.35c0-1.95,0-3.55-.16-5.11h3l.19,3.12h.08a7,7,0,0,1,6.24-3.55c2.61,0,6.67,1.56,6.67,8V28.12h-3.43V17.24c0-3-1.13-5.58-4.37-5.58a5.05,5.05,0,0,0-4.84,5.11V28.12h-3.43Z"/><path class="cls-1" d="M783.51,28.12l-.28-2.38h-.11a7,7,0,0,1-5.77,2.81,5.38,5.38,0,0,1-5.78-5.42c0-4.57,4.06-7.06,11.35-7v-.39c0-1.56-.43-4.37-4.29-4.37a9.46,9.46,0,0,0-4.91,1.4l-.78-2.26a11.75,11.75,0,0,1,6.2-1.68c5.77,0,7.18,3.94,7.18,7.73V23.6a26,26,0,0,0,.31,4.52ZM783,18.49c-3.74-.08-8,.58-8,4.25A3,3,0,0,0,778.24,26a4.71,4.71,0,0,0,4.57-3.16,3.79,3.79,0,0,0,.19-1.09Z"/><path class="cls-1" d="M791.85,14.35c0-1.95,0-3.55-.15-5.11h3l.16,3H795a6.51,6.51,0,0,1,5.93-3.48,5.56,5.56,0,0,1,5.34,3.79h.08a7.84,7.84,0,0,1,2.11-2.46,6.43,6.43,0,0,1,4.17-1.33c2.5,0,6.2,1.64,6.2,8.19V28.12h-3.35V17.43c0-3.62-1.33-5.81-4.1-5.81a4.44,4.44,0,0,0-4.05,3.12,5.53,5.53,0,0,0-.28,1.72V28.12h-3.35V16.81c0-3-1.33-5.19-3.94-5.19a4.7,4.7,0,0,0-4.25,3.43,4.89,4.89,0,0,0-.27,1.68V28.12h-3.36Z"/><path class="cls-1" d="M826.29,19.31c.08,4.64,3,6.55,6.47,6.55a12.36,12.36,0,0,0,5.23-1l.59,2.46a15.24,15.24,0,0,1-6.28,1.17c-5.81,0-9.29-3.82-9.29-9.52s3.36-10.18,8.86-10.18c6.16,0,7.8,5.43,7.8,8.9a12.83,12.83,0,0,1-.12,1.6Zm10.06-2.46c0-2.19-.89-5.58-4.76-5.58-3.47,0-5,3.2-5.26,5.58Z"/><path class="cls-1" d="M0,88.12c.08-1.29.16-3.2.16-4.87V60.43H3.55V72.29h.08a7,7,0,0,1,6.43-3.48c4.68,0,8,3.9,8,9.64,0,6.74-4.25,10.1-8.47,10.1A6.71,6.71,0,0,1,3.24,85H3.12L3,88.12Zm3.55-7.57a6.28,6.28,0,0,0,.16,1.25,5.29,5.29,0,0,0,5.14,4c3.59,0,5.74-2.93,5.74-7.26,0-3.78-1.95-7-5.62-7a5.48,5.48,0,0,0-5.23,4.22,7.29,7.29,0,0,0-.19,1.4Z"/><path class="cls-1" d="M32.8,88.12l-.27-2.38h-.12a7,7,0,0,1-5.77,2.81,5.38,5.38,0,0,1-5.78-5.42c0-4.57,4.06-7.06,11.35-7v-.39c0-1.56-.43-4.37-4.29-4.37A9.46,9.46,0,0,0,23,72.75l-.78-2.26a11.75,11.75,0,0,1,6.2-1.68c5.77,0,7.18,3.94,7.18,7.73V83.6a26,26,0,0,0,.31,4.52Zm-.51-9.63c-3.74-.08-8,.58-8,4.25A3,3,0,0,0,27.53,86a4.71,4.71,0,0,0,4.57-3.16,3.79,3.79,0,0,0,.19-1.09Z"/><path class="cls-1" d="M57.45,60.43V83.25c0,1.67,0,3.58.15,4.87H54.52l-.15-3.28h-.08a7,7,0,0,1-6.44,3.71c-4.56,0-8.07-3.86-8.07-9.6,0-6.27,3.86-10.14,8.46-10.14a6.32,6.32,0,0,1,5.7,2.89H54V60.43ZM54,76.93a6,6,0,0,0-.15-1.45,5,5,0,0,0-5-4c-3.55,0-5.66,3.12-5.66,7.29,0,3.82,1.87,7,5.58,7a5.16,5.16,0,0,0,5-4.09A5.88,5.88,0,0,0,54,80.2Z"/><path class="cls-1" d="M79.4,69.24c-.07,1.37-.15,2.89-.15,5.19v11c0,4.33-.86,7-2.69,8.62a10,10,0,0,1-6.87,2.26,12.13,12.13,0,0,1-6.28-1.56l.86-2.61a10.66,10.66,0,0,0,5.54,1.48c3.51,0,6.08-1.83,6.08-6.59V84.88h-.07a6.75,6.75,0,0,1-6,3.16c-4.68,0-8-4-8-9.2,0-6.4,4.17-10,8.5-10a6.29,6.29,0,0,1,5.89,3.28h.07l.16-2.85Zm-3.55,7.45a4.81,4.81,0,0,0-.19-1.56,4.93,4.93,0,0,0-4.8-3.62c-3.27,0-5.61,2.76-5.61,7.13,0,3.71,1.87,6.79,5.57,6.79a5,5,0,0,0,4.76-3.51,5.84,5.84,0,0,0,.27-1.83Z"/><path class="cls-1" d="M86.85,79.31c.08,4.64,3,6.55,6.48,6.55a12.31,12.31,0,0,0,5.22-1l.59,2.46a15.24,15.24,0,0,1-6.28,1.17c-5.81,0-9.28-3.82-9.28-9.52s3.35-10.18,8.85-10.18c6.16,0,7.8,5.43,7.8,8.9a12.83,12.83,0,0,1-.12,1.6Zm10.06-2.46c0-2.19-.89-5.58-4.75-5.58-3.48,0-5,3.2-5.27,5.58Z"/><path class="cls-1" d="M112.75,74.35c0-1.95,0-3.55-.16-5.11h3l.2,3.12h.08a6.94,6.94,0,0,1,6.24-3.55c2.61,0,6.67,1.56,6.67,8V88.12h-3.44V77.24c0-3-1.13-5.58-4.36-5.58a4.88,4.88,0,0,0-4.61,3.51,5.14,5.14,0,0,0-.23,1.6V88.12h-3.43Z"/><path class="cls-1" d="M150.19,83c0,2,0,3.67.15,5.15h-3L147.11,85H147a7.11,7.11,0,0,1-6.24,3.51c-3,0-6.51-1.64-6.51-8.27v-11h3.43V79.7c0,3.58,1.09,6,4.21,6a4.85,4.85,0,0,0,4.84-4.87V69.24h3.43Z"/><path class="cls-1" d="M155.88,74.35c0-1.95,0-3.55-.15-5.11h3l.15,3.05H159a6.5,6.5,0,0,1,5.93-3.48,5.58,5.58,0,0,1,5.34,3.79h.08a7.84,7.84,0,0,1,2.11-2.46,6.43,6.43,0,0,1,4.17-1.33c2.5,0,6.2,1.64,6.2,8.19V88.12h-3.35V77.43c0-3.62-1.33-5.81-4.1-5.81a4.44,4.44,0,0,0-4,3.12,5.53,5.53,0,0,0-.28,1.72V88.12H167.7V76.81c0-3-1.33-5.19-3.94-5.19a5.1,5.1,0,0,0-4.52,5.11V88.12h-3.36Z"/><path class="cls-1" d="M188.25,88.12c.08-1.29.16-3.2.16-4.87V60.43h3.39V72.29h.08a7,7,0,0,1,6.43-3.48c4.68,0,8,3.9,8,9.64,0,6.74-4.25,10.1-8.46,10.1A6.72,6.72,0,0,1,191.49,85h-.12l-.15,3.12Zm3.55-7.57A6.28,6.28,0,0,0,192,81.8a5.29,5.29,0,0,0,5.15,4c3.58,0,5.73-2.93,5.73-7.26,0-3.78-2-7-5.62-7A5.46,5.46,0,0,0,192,75.76a6.53,6.53,0,0,0-.2,1.4Z"/><path class="cls-1" d="M212.51,79.31c.08,4.64,3,6.55,6.47,6.55a12.36,12.36,0,0,0,5.23-1l.58,2.46a15.15,15.15,0,0,1-6.27,1.17c-5.82,0-9.29-3.82-9.29-9.52s3.36-10.18,8.86-10.18c6.16,0,7.8,5.43,7.8,8.9a12.83,12.83,0,0,1-.12,1.6Zm10.06-2.46c0-2.19-.9-5.58-4.76-5.58-3.47,0-5,3.2-5.26,5.58Z"/><path class="cls-1" d="M230.14,75.13c0-2.22,0-4.13-.16-5.89h3L233.1,73h.16a5.66,5.66,0,0,1,5.22-4.14,3.65,3.65,0,0,1,1,.12v3.24a5,5,0,0,0-1.17-.12c-2.42,0-4.14,1.83-4.6,4.41a9.41,9.41,0,0,0-.16,1.6V88.12h-3.39Z"/><path class="cls-1" d="M251.51,88.12V71.86h-2.65V69.24h2.65v-.89c0-2.66.58-5.07,2.18-6.6a6.61,6.61,0,0,1,4.6-1.75,7.82,7.82,0,0,1,2.93.55l-.47,2.65a5,5,0,0,0-2.18-.43c-2.93,0-3.67,2.57-3.67,5.46v1h4.56v2.62H254.9V88.12Z"/><path class="cls-1" d="M279.12,78.53c0,7-4.83,10-9.4,10-5.11,0-9.05-3.74-9.05-9.71,0-6.32,4.14-10,9.36-10C275.46,68.81,279.12,72.75,279.12,78.53Zm-15,.19c0,4.13,2.38,7.26,5.74,7.26s5.73-3.09,5.73-7.34c0-3.2-1.6-7.25-5.65-7.25S264.14,75.13,264.14,78.72Z"/><path class="cls-1" d="M283.45,75.13c0-2.22,0-4.13-.16-5.89h3l.11,3.71h.16a5.67,5.67,0,0,1,5.23-4.14,3.58,3.58,0,0,1,1,.12v3.24a5,5,0,0,0-1.17-.12c-2.42,0-4.13,1.83-4.6,4.41a9.41,9.41,0,0,0-.16,1.6V88.12h-3.39Z"/><path class="cls-1" d="M304.82,88.12V71.86h-2.65V69.24h2.65v-.89c0-2.66.59-5.07,2.18-6.6A6.62,6.62,0,0,1,311.61,60a7.76,7.76,0,0,1,2.92.55l-.47,2.65a5,5,0,0,0-2.18-.43c-2.92,0-3.67,2.57-3.67,5.46v1h4.57v2.62h-4.57V88.12Z"/><path class="cls-1" d="M326.31,88.12,326,85.74h-.12a7,7,0,0,1-5.77,2.81,5.38,5.38,0,0,1-5.77-5.42c0-4.57,4.05-7.06,11.35-7v-.39c0-1.56-.43-4.37-4.29-4.37a9.5,9.5,0,0,0-4.92,1.4l-.78-2.26a11.75,11.75,0,0,1,6.2-1.68c5.77,0,7.18,3.94,7.18,7.73V83.6a27,27,0,0,0,.31,4.52Zm-.51-9.63c-3.74-.08-8,.58-8,4.25A3,3,0,0,0,321,86a4.71,4.71,0,0,0,4.57-3.16,3.47,3.47,0,0,0,.19-1.09Z"/><path class="cls-1" d="M348.11,87.42a12.64,12.64,0,0,1-5.42,1.09c-5.69,0-9.4-3.86-9.4-9.63s4-10,10.14-10a11.45,11.45,0,0,1,4.76,1l-.78,2.65a8,8,0,0,0-4-.9c-4.33,0-6.67,3.2-6.67,7.14,0,4.37,2.81,7.06,6.55,7.06a9.79,9.79,0,0,0,4.22-.94Z"/><path class="cls-1" d="M356.77,63.82v5.42h4.91v2.62h-4.91V82c0,2.34.66,3.66,2.57,3.66a8,8,0,0,0,2-.23l.16,2.57a8.5,8.5,0,0,1-3,.47,4.79,4.79,0,0,1-3.71-1.44c-1-1-1.33-2.69-1.33-4.92V71.86h-2.92V69.24h2.92V64.72Z"/><path class="cls-1" d="M382.39,78.53c0,7-4.83,10-9.4,10-5.11,0-9-3.74-9-9.71,0-6.32,4.13-10,9.36-10C378.73,68.81,382.39,72.75,382.39,78.53Zm-15,.19c0,4.13,2.37,7.26,5.73,7.26s5.73-3.09,5.73-7.34c0-3.2-1.6-7.25-5.65-7.25S367.42,75.13,367.42,78.72Z"/><path class="cls-1" d="M386.72,75.13c0-2.22,0-4.13-.15-5.89h3l.12,3.71h.15a5.67,5.67,0,0,1,5.23-4.14,3.58,3.58,0,0,1,1,.12v3.24a5,5,0,0,0-1.17-.12c-2.42,0-4.13,1.83-4.6,4.41a9.41,9.41,0,0,0-.16,1.6V88.12h-3.39Z"/><path class="cls-1" d="M401.7,69.24l4.13,11.16c.43,1.25.9,2.73,1.21,3.86h.08c.35-1.13.74-2.57,1.21-3.94l3.74-11.08h3.63L410.55,82.7c-2.46,6.47-4.13,9.79-6.47,11.82a9.37,9.37,0,0,1-4.22,2.22L399,93.85a9.17,9.17,0,0,0,3-1.67,10.34,10.34,0,0,0,2.88-3.83,2.42,2.42,0,0,0,.28-.81,2.92,2.92,0,0,0-.24-.9l-7-17.4Z"/><path class="cls-1" d="M431.22,63.82v5.42h4.91v2.62h-4.91V82c0,2.34.66,3.66,2.57,3.66a8,8,0,0,0,2-.23l.16,2.57a8.46,8.46,0,0,1-3,.47,4.79,4.79,0,0,1-3.71-1.44c-1-1-1.32-2.69-1.32-4.92V71.86h-2.93V69.24h2.93V64.72Z"/><path class="cls-1" d="M456.84,78.53c0,7-4.83,10-9.4,10-5.11,0-9-3.74-9-9.71,0-6.32,4.13-10,9.36-10C453.18,68.81,456.84,72.75,456.84,78.53Zm-15,.19c0,4.13,2.38,7.26,5.73,7.26s5.73-3.09,5.73-7.34c0-3.2-1.6-7.25-5.65-7.25S441.87,75.13,441.87,78.72Z"/><path class="cls-1" d="M477,83c0,2,0,3.67.15,5.15h-3L473.89,85h-.08a7.11,7.11,0,0,1-6.24,3.51c-3,0-6.52-1.64-6.52-8.27v-11h3.44V79.7c0,3.58,1.09,6,4.21,6a4.85,4.85,0,0,0,4.84-4.87V69.24H477Z"/><path class="cls-1" d="M482.66,75.13c0-2.22,0-4.13-.16-5.89h3l.11,3.71h.16A5.67,5.67,0,0,1,491,68.81a3.58,3.58,0,0,1,1,.12v3.24a5,5,0,0,0-1.17-.12c-2.42,0-4.13,1.83-4.6,4.41a9.41,9.41,0,0,0-.16,1.6V88.12h-3.39Z"/><path class="cls-1" d="M492.53,86.09a2.31,2.31,0,0,1,2.34-2.46,2.46,2.46,0,1,1-2.34,2.46Z"/></g></g></svg>