<svg xmlns="http://www.w3.org/2000/svg" viewBox="0 0 928.31 96.74"><defs><style>.cls-1{fill:#434343;}</style></defs><title>资源 27</title><g id="图层_2" data-name="图层 2"><g id="图层_1-2" data-name="图层 1"><path class="cls-1" d="M2.26,2.15a38.54,38.54,0,0,1,6.52-.51c3.35,0,5.81.78,7.37,2.18a7.08,7.08,0,0,1,2.3,5.5,7.74,7.74,0,0,1-2,5.62c-1.8,1.91-4.72,2.88-8,2.88a11.9,11.9,0,0,1-2.72-.23V28.12H2.26Zm3.4,12.67a11.09,11.09,0,0,0,2.8.27c4.1,0,6.59-2,6.59-5.61S12.6,4.33,8.85,4.33a14.55,14.55,0,0,0-3.19.27Z"/><path class="cls-1" d="M22.7.43h3.43V28.12H22.7Z"/><path class="cls-1" d="M33.81,19.31c.08,4.64,3,6.55,6.48,6.55a12.27,12.27,0,0,0,5.22-1l.59,2.46a15.24,15.24,0,0,1-6.28,1.17c-5.81,0-9.28-3.82-9.28-9.52S33.89,8.81,39.39,8.81c6.16,0,7.8,5.43,7.8,8.9a12.83,12.83,0,0,1-.12,1.6Zm10.07-2.46c0-2.19-.9-5.58-4.76-5.58-3.47,0-5,3.2-5.27,5.58Z"/><path class="cls-1" d="M61.89,28.12l-.27-2.38H61.5a7,7,0,0,1-5.77,2.81A5.38,5.38,0,0,1,50,23.13c0-4.57,4.06-7.06,11.35-7v-.39c0-1.56-.43-4.37-4.29-4.37a9.5,9.5,0,0,0-4.92,1.4l-.77-2.26a11.72,11.72,0,0,1,6.2-1.68c5.77,0,7.17,3.94,7.17,7.73V23.6A27,27,0,0,0,65,28.12Zm-.5-9.63c-3.75-.08-8,.58-8,4.25A3,3,0,0,0,56.63,26a4.68,4.68,0,0,0,4.56-3.16,3.49,3.49,0,0,0,.2-1.09Z"/><path class="cls-1" d="M69.77,24.61A9.05,9.05,0,0,0,74.3,26C76.79,26,78,24.73,78,23.17s-1-2.54-3.51-3.47c-3.39-1.21-5-3.09-5-5.35,0-3,2.46-5.54,6.51-5.54A9.45,9.45,0,0,1,80.61,10l-.85,2.5a7.38,7.38,0,0,0-3.87-1.09c-2,0-3.15,1.17-3.15,2.57,0,1.56,1.13,2.26,3.58,3.2,3.28,1.25,5,2.89,5,5.69,0,3.32-2.58,5.66-7.06,5.66a10.79,10.79,0,0,1-5.31-1.29Z"/><path class="cls-1" d="M87.59,19.31c.08,4.64,3,6.55,6.48,6.55a12.27,12.27,0,0,0,5.22-1l.59,2.46a15.24,15.24,0,0,1-6.28,1.17c-5.81,0-9.28-3.82-9.28-9.52S87.67,8.81,93.17,8.81c6.16,0,7.8,5.43,7.8,8.9a12.83,12.83,0,0,1-.12,1.6Zm10.07-2.46c0-2.19-.9-5.58-4.76-5.58-3.47,0-5,3.2-5.27,5.58Z"/><path class="cls-1" d="M123.94,28.12l-.27-2.38h-.12a7,7,0,0,1-5.77,2.81A5.38,5.38,0,0,1,112,23.13c0-4.57,4-7.06,11.35-7v-.39c0-1.56-.43-4.37-4.29-4.37a9.5,9.5,0,0,0-4.92,1.4l-.78-2.26a11.75,11.75,0,0,1,6.2-1.68c5.78,0,7.18,3.94,7.18,7.73V23.6a27,27,0,0,0,.31,4.52Zm-.51-9.63c-3.74-.08-8,.58-8,4.25A3,3,0,0,0,118.68,26a4.7,4.7,0,0,0,4.56-3.16,3.47,3.47,0,0,0,.19-1.09Z"/><path class="cls-1" d="M132.29,15.13c0-2.22,0-4.13-.16-5.89h3l.12,3.71h.16a5.66,5.66,0,0,1,5.22-4.14,3.65,3.65,0,0,1,1,.12v3.24a5,5,0,0,0-1.17-.12c-2.42,0-4.14,1.83-4.6,4.41a9.41,9.41,0,0,0-.16,1.6V28.12h-3.39Z"/><path class="cls-1" d="M145.2,15.13c0-2.22,0-4.13-.16-5.89h3l.12,3.71h.16a5.65,5.65,0,0,1,5.22-4.14,3.65,3.65,0,0,1,1,.12v3.24a5,5,0,0,0-1.17-.12c-2.42,0-4.14,1.83-4.6,4.41a9.41,9.41,0,0,0-.16,1.6V28.12H145.2Z"/><path class="cls-1" d="M161.93,3.94a2.13,2.13,0,0,1-4.25,0,2.09,2.09,0,0,1,2.14-2.15A2,2,0,0,1,161.93,3.94ZM158.1,28.12V9.24h3.44V28.12Z"/><path class="cls-1" d="M168.56,9.24l3.7,10.61a47.37,47.37,0,0,1,1.52,4.84h.12c.43-1.56,1-3.12,1.6-4.84l3.67-10.61h3.58l-7.41,18.88h-3.27L164.89,9.24Z"/><path class="cls-1" d="M187.51,19.31c.08,4.64,3,6.55,6.48,6.55a12.34,12.34,0,0,0,5.22-1l.59,2.46a15.24,15.24,0,0,1-6.28,1.17c-5.81,0-9.28-3.82-9.28-9.52s3.35-10.18,8.85-10.18c6.16,0,7.8,5.43,7.8,8.9a12.83,12.83,0,0,1-.12,1.6Zm10.06-2.46c0-2.19-.89-5.58-4.75-5.58-3.48,0-5,3.2-5.27,5.58Z"/><path class="cls-1" d="M217.54,3.82V9.24h4.92v2.62h-4.92V22c0,2.34.66,3.66,2.58,3.66a8,8,0,0,0,2-.23l.16,2.57a8.46,8.46,0,0,1-3,.47,4.79,4.79,0,0,1-3.71-1.44c-1-1-1.32-2.69-1.32-4.92V11.86h-2.93V9.24h2.93V4.72Z"/><path class="cls-1" d="M226.32.43h3.43V12.21h.08a6.27,6.27,0,0,1,2.45-2.42,7.05,7.05,0,0,1,3.51-1c2.54,0,6.59,1.56,6.59,8.08V28.12H239V17.28c0-3-1.13-5.62-4.37-5.62a4.94,4.94,0,0,0-4.6,3.43,4.28,4.28,0,0,0-.23,1.64V28.12h-3.43Z"/><path class="cls-1" d="M249.87,19.31c.08,4.64,3,6.55,6.48,6.55a12.31,12.31,0,0,0,5.22-1l.59,2.46a15.24,15.24,0,0,1-6.28,1.17c-5.81,0-9.28-3.82-9.28-9.52S250,8.81,255.45,8.81c6.16,0,7.8,5.43,7.8,8.9a12.83,12.83,0,0,1-.12,1.6Zm10.06-2.46c0-2.19-.89-5.58-4.75-5.58-3.48,0-5,3.2-5.27,5.58Z"/><path class="cls-1" d="M276.12,28.12V11.86h-2.65V9.24h2.65V8.35c0-2.66.58-5.07,2.18-6.59A6.58,6.58,0,0,1,282.9,0a7.82,7.82,0,0,1,2.93.55l-.47,2.65a5,5,0,0,0-2.18-.43c-2.93,0-3.67,2.57-3.67,5.46v1h4.56v2.62h-4.56V28.12Z"/><path class="cls-1" d="M303.73,18.53c0,7-4.84,10-9.4,10-5.11,0-9.05-3.74-9.05-9.71,0-6.32,4.14-10,9.36-10C300.06,8.81,303.73,12.75,303.73,18.53Zm-15,.19c0,4.13,2.38,7.26,5.74,7.26s5.73-3.09,5.73-7.34c0-3.2-1.6-7.25-5.65-7.25S288.75,15.13,288.75,18.72Z"/><path class="cls-1" d="M308.06.43h3.43V28.12h-3.43Z"/><path class="cls-1" d="M317.26.43h3.44V28.12h-3.44Z"/><path class="cls-1" d="M343.55,18.53c0,7-4.84,10-9.4,10-5.11,0-9-3.74-9-9.71,0-6.32,4.14-10,9.36-10C339.88,8.81,343.55,12.75,343.55,18.53Zm-15,.19c0,4.13,2.38,7.26,5.74,7.26S340,22.89,340,18.64c0-3.2-1.6-7.25-5.66-7.25S328.57,15.13,328.57,18.72Z"/><path class="cls-1" d="M349,9.24l2.5,9.6c.54,2.1,1,4.05,1.4,6H353c.43-1.91,1.05-3.94,1.68-6l3.08-9.64h2.88l2.93,9.44c.7,2.26,1.25,4.25,1.67,6.16h.12a57,57,0,0,1,1.44-6.12l2.7-9.48h3.39l-6.09,18.88h-3.12l-2.88-9a62,62,0,0,1-1.68-6.2H359a55,55,0,0,1-1.71,6.24l-3,9h-3.12l-5.7-18.88Z"/><path class="cls-1" d="M380.13,3.94a2.13,2.13,0,0,1-4.25,0A2.1,2.1,0,0,1,378,1.79,2,2,0,0,1,380.13,3.94Zm-3.82,24.18V9.24h3.43V28.12Z"/><path class="cls-1" d="M385.44,14.35c0-1.95,0-3.55-.16-5.11h3l.2,3.12h.07a7,7,0,0,1,6.24-3.55c2.62,0,6.67,1.56,6.67,8V28.12h-3.43V17.24c0-3-1.13-5.58-4.37-5.58a4.88,4.88,0,0,0-4.6,3.51,5.14,5.14,0,0,0-.23,1.6V28.12h-3.43Z"/><path class="cls-1" d="M423.34,9.24c-.07,1.37-.15,2.89-.15,5.19v11c0,4.33-.86,7-2.69,8.62a10,10,0,0,1-6.87,2.26,12.16,12.16,0,0,1-6.28-1.56l.86-2.61a10.66,10.66,0,0,0,5.54,1.48c3.51,0,6.08-1.83,6.08-6.59V24.88h-.07a6.75,6.75,0,0,1-6,3.16c-4.68,0-8-4-8-9.2,0-6.4,4.17-10,8.5-10a6.29,6.29,0,0,1,5.89,3.28h.07l.16-2.85Zm-3.55,7.45a4.81,4.81,0,0,0-.19-1.56,4.93,4.93,0,0,0-4.8-3.62c-3.27,0-5.61,2.76-5.61,7.13,0,3.71,1.87,6.79,5.57,6.79a5,5,0,0,0,4.76-3.51,5.84,5.84,0,0,0,.27-1.83Z"/><path class="cls-1" d="M453.41,9.24c-.08,1.37-.15,2.89-.15,5.19v11c0,4.33-.86,7-2.69,8.62a10,10,0,0,1-6.87,2.26,12.13,12.13,0,0,1-6.28-1.56l.86-2.61a10.66,10.66,0,0,0,5.54,1.48c3.51,0,6.08-1.83,6.08-6.59V24.88h-.08a6.72,6.72,0,0,1-6,3.16c-4.68,0-8-4-8-9.2,0-6.4,4.18-10,8.51-10a6.29,6.29,0,0,1,5.89,3.28h.07l.16-2.85Zm-3.55,7.45a5.1,5.1,0,0,0-.19-1.56,4.94,4.94,0,0,0-4.8-3.62c-3.28,0-5.62,2.76-5.62,7.13,0,3.71,1.88,6.79,5.58,6.79a5,5,0,0,0,4.76-3.51,5.84,5.84,0,0,0,.27-1.83Z"/><path class="cls-1" d="M469.4,28.12l-.27-2.38H469a7,7,0,0,1-5.77,2.81,5.38,5.38,0,0,1-5.77-5.42c0-4.57,4-7.06,11.35-7v-.39c0-1.56-.43-4.37-4.29-4.37a9.5,9.5,0,0,0-4.92,1.4l-.78-2.26A11.77,11.77,0,0,1,465,8.81c5.78,0,7.18,3.94,7.18,7.73V23.6a27,27,0,0,0,.31,4.52Zm-.5-9.63c-3.75-.08-8,.58-8,4.25A3,3,0,0,0,464.14,26a4.7,4.7,0,0,0,4.56-3.16,3.49,3.49,0,0,0,.2-1.09Z"/><path class="cls-1" d="M481.73,3.82V9.24h4.91v2.62h-4.91V22c0,2.34.66,3.66,2.57,3.66a8,8,0,0,0,2-.23l.16,2.57a8.52,8.52,0,0,1-3.05.47,4.76,4.76,0,0,1-3.7-1.44c-1-1-1.33-2.69-1.33-4.92V11.86h-2.92V9.24h2.92V4.72Z"/><path class="cls-1" d="M490.5.43h3.43V12.21H494a6.36,6.36,0,0,1,2.46-2.42,7,7,0,0,1,3.51-1c2.53,0,6.59,1.56,6.59,8.08V28.12h-3.43V17.28c0-3-1.13-5.62-4.37-5.62a4.93,4.93,0,0,0-4.6,3.43,4.08,4.08,0,0,0-.24,1.64V28.12H490.5Z"/><path class="cls-1" d="M514.06,19.31c.07,4.64,3,6.55,6.47,6.55a12.36,12.36,0,0,0,5.23-1l.58,2.46a15.2,15.2,0,0,1-6.28,1.17c-5.81,0-9.28-3.82-9.28-9.52s3.35-10.18,8.85-10.18c6.17,0,7.8,5.43,7.8,8.9a13.24,13.24,0,0,1-.11,1.6Zm10.06-2.46c0-2.19-.9-5.58-4.76-5.58-3.47,0-5,3.2-5.26,5.58Z"/><path class="cls-1" d="M531.68,15.13c0-2.22,0-4.13-.15-5.89h3l.12,3.71h.15A5.67,5.67,0,0,1,540,8.81a3.7,3.7,0,0,1,1,.12v3.24a5.07,5.07,0,0,0-1.17-.12c-2.42,0-4.14,1.83-4.61,4.41a10.63,10.63,0,0,0-.15,1.6V28.12h-3.4Z"/><path class="cls-1" d="M548.42,3.94a2.13,2.13,0,0,1-4.26,0,2.1,2.1,0,0,1,2.15-2.15A2,2,0,0,1,548.42,3.94Zm-3.83,24.18V9.24H548V28.12Z"/><path class="cls-1" d="M553.72,14.35c0-1.95,0-3.55-.16-5.11h3.05l.19,3.12h.08a6.94,6.94,0,0,1,6.24-3.55c2.61,0,6.67,1.56,6.67,8V28.12h-3.43V17.24c0-3-1.14-5.58-4.37-5.58a5.05,5.05,0,0,0-4.84,5.11V28.12h-3.43Z"/><path class="cls-1" d="M591.63,9.24c-.08,1.37-.16,2.89-.16,5.19v11c0,4.33-.86,7-2.69,8.62a10,10,0,0,1-6.86,2.26,12.11,12.11,0,0,1-6.28-1.56l.86-2.61A10.59,10.59,0,0,0,582,33.58c3.51,0,6.09-1.83,6.09-6.59V24.88H588A6.73,6.73,0,0,1,582,28c-4.68,0-8-4-8-9.2,0-6.4,4.17-10,8.5-10a6.28,6.28,0,0,1,5.89,3.28h.08l.15-2.85Zm-3.55,7.45a4.8,4.8,0,0,0-.2-1.56,4.93,4.93,0,0,0-4.79-3.62c-3.28,0-5.62,2.76-5.62,7.13,0,3.71,1.87,6.79,5.58,6.79a5,5,0,0,0,4.76-3.51,6.15,6.15,0,0,0,.27-1.83Z"/><path class="cls-1" d="M605.43,15.41c0-2.42-.08-4.37-.15-6.17h3.08l.15,3.24h.08a7.44,7.44,0,0,1,6.71-3.67c4.56,0,8,3.87,8,9.6,0,6.78-4.13,10.14-8.58,10.14a6.61,6.61,0,0,1-5.81-3h-.07V35.84h-3.4Zm3.4,5a7.6,7.6,0,0,0,.15,1.4,5.3,5.3,0,0,0,5.15,4c3.63,0,5.73-3,5.73-7.3,0-3.78-2-7-5.61-7a5.48,5.48,0,0,0-5.19,4.26,5.33,5.33,0,0,0-.23,1.4Z"/><path class="cls-1" d="M627.62.43h3.43V28.12h-3.43Z"/><path class="cls-1" d="M647.28,28.12,647,25.74h-.12a7,7,0,0,1-5.77,2.81,5.38,5.38,0,0,1-5.78-5.42c0-4.57,4.06-7.06,11.35-7v-.39c0-1.56-.43-4.37-4.29-4.37a9.49,9.49,0,0,0-4.91,1.4l-.78-2.26a11.75,11.75,0,0,1,6.2-1.68c5.77,0,7.18,3.94,7.18,7.73V23.6a27,27,0,0,0,.31,4.52Zm-.51-9.63c-3.74-.08-8,.58-8,4.25A3,3,0,0,0,642,26a4.71,4.71,0,0,0,4.57-3.16,3.79,3.79,0,0,0,.19-1.09Z"/><path class="cls-1" d="M669.08,27.42a12.64,12.64,0,0,1-5.42,1.09c-5.7,0-9.4-3.86-9.4-9.63s4-10,10.14-10a11.45,11.45,0,0,1,4.76,1l-.78,2.65a8,8,0,0,0-4-.9c-4.33,0-6.67,3.2-6.67,7.14,0,4.37,2.81,7.06,6.55,7.06a9.79,9.79,0,0,0,4.22-.94Z"/><path class="cls-1" d="M674.77,19.31c.08,4.64,3.05,6.55,6.48,6.55a12.27,12.27,0,0,0,5.22-1l.59,2.46a15.24,15.24,0,0,1-6.28,1.17c-5.81,0-9.28-3.82-9.28-9.52s3.35-10.18,8.85-10.18c6.16,0,7.8,5.43,7.8,8.9a12.83,12.83,0,0,1-.12,1.6Zm10.07-2.46c0-2.19-.9-5.58-4.76-5.58-3.47,0-5,3.2-5.27,5.58Z"/><path class="cls-1" d="M717.75,18.53c0,7-4.83,10-9.4,10-5.11,0-9.05-3.74-9.05-9.71,0-6.32,4.14-10,9.37-10C714.09,8.81,717.75,12.75,717.75,18.53Zm-15,.19c0,4.13,2.37,7.26,5.73,7.26s5.73-3.09,5.73-7.34c0-3.2-1.6-7.25-5.65-7.25S702.78,15.13,702.78,18.72Z"/><path class="cls-1" d="M722.08,14.35c0-1.95,0-3.55-.16-5.11H725l.19,3.12h.08a7,7,0,0,1,6.24-3.55c2.61,0,6.67,1.56,6.67,8V28.12h-3.43V17.24c0-3-1.13-5.58-4.37-5.58a5.05,5.05,0,0,0-4.84,5.11V28.12h-3.43Z"/><path class="cls-1" d="M756.13,3.82V9.24H761v2.62h-4.91V22c0,2.34.66,3.66,2.57,3.66a8,8,0,0,0,2-.23l.16,2.57a8.52,8.52,0,0,1-3.05.47,4.78,4.78,0,0,1-3.7-1.44c-1-1-1.33-2.69-1.33-4.92V11.86h-2.92V9.24h2.92V4.72Z"/><path class="cls-1" d="M768.72,3.94a2,2,0,0,1-2.18,2.11,2,2,0,0,1-2.07-2.11,2.1,2.1,0,0,1,2.15-2.15A2,2,0,0,1,768.72,3.94ZM764.9,28.12V9.24h3.43V28.12Z"/><path class="cls-1" d="M774,14.35c0-1.95,0-3.55-.16-5.11h3l.15,3h.12a6.5,6.5,0,0,1,5.93-3.48,5.58,5.58,0,0,1,5.34,3.79h.08a7.69,7.69,0,0,1,2.1-2.46,6.44,6.44,0,0,1,4.18-1.33c2.49,0,6.2,1.64,6.2,8.19V28.12h-3.36V17.43c0-3.62-1.32-5.81-4.09-5.81a4.46,4.46,0,0,0-4.06,3.12,5.85,5.85,0,0,0-.27,1.72V28.12h-3.36V16.81c0-3-1.32-5.19-3.93-5.19a4.68,4.68,0,0,0-4.25,3.43,4.67,4.67,0,0,0-.28,1.68V28.12H774Z"/><path class="cls-1" d="M808.46,19.31c.08,4.64,3,6.55,6.48,6.55a12.36,12.36,0,0,0,5.23-1l.58,2.46a15.24,15.24,0,0,1-6.28,1.17c-5.81,0-9.28-3.82-9.28-9.52S808.54,8.81,814,8.81c6.17,0,7.8,5.43,7.8,8.9a15.71,15.71,0,0,1-.11,1.6Zm10.07-2.46c0-2.19-.9-5.58-4.76-5.58-3.47,0-5,3.2-5.27,5.58Z"/><path class="cls-1" d="M824.81,26.09a2.31,2.31,0,0,1,2.34-2.46,2.28,2.28,0,0,1,2.3,2.46,2.32,2.32,0,1,1-4.64,0Z"/><path class="cls-1" d="M845.48,4.72h-8V1.83h19.46V4.72h-8v23.4h-3.43Z"/><path class="cls-1" d="M859.48.43h3.43V12.21H863a6.27,6.27,0,0,1,2.45-2.42,7.05,7.05,0,0,1,3.51-1c2.54,0,6.6,1.56,6.6,8.08V28.12h-3.44V17.28c0-3-1.13-5.62-4.36-5.62a4.94,4.94,0,0,0-4.61,3.43,4.28,4.28,0,0,0-.23,1.64V28.12h-3.43Z"/><path class="cls-1" d="M883,19.31c.08,4.64,3.05,6.55,6.48,6.55a12.31,12.31,0,0,0,5.22-1l.59,2.46A15.24,15.24,0,0,1,889,28.51c-5.81,0-9.28-3.82-9.28-9.52s3.35-10.18,8.85-10.18c6.16,0,7.8,5.43,7.8,8.9a12.83,12.83,0,0,1-.12,1.6Zm10.06-2.46c0-2.19-.89-5.58-4.75-5.58-3.47,0-5,3.2-5.27,5.58Z"/><path class="cls-1" d="M900.66,15.13c0-2.22,0-4.13-.16-5.89h3l.11,3.71h.16A5.67,5.67,0,0,1,909,8.81a3.58,3.58,0,0,1,1,.12v3.24a5,5,0,0,0-1.17-.12c-2.42,0-4.13,1.83-4.6,4.41a9.41,9.41,0,0,0-.16,1.6V28.12h-3.39Z"/><path class="cls-1" d="M914.93,19.31c.08,4.64,3.05,6.55,6.48,6.55a12.36,12.36,0,0,0,5.23-1l.58,2.46a15.24,15.24,0,0,1-6.28,1.17c-5.81,0-9.28-3.82-9.28-9.52S915,8.81,920.51,8.81c6.16,0,7.8,5.43,7.8,8.9a15.71,15.71,0,0,1-.11,1.6ZM925,16.85c0-2.19-.9-5.58-4.76-5.58-3.47,0-5,3.2-5.27,5.58Z"/><path class="cls-1" d="M3.51,69.24,6,78.84c.54,2.1,1,4,1.4,6h.12c.43-1.91,1-3.94,1.67-6l3.09-9.64h2.88l2.93,9.44c.7,2.26,1.24,4.25,1.67,6.16h.12a57,57,0,0,1,1.44-6.12L24,69.24h3.4L21.33,88.12H18.21l-2.88-9a62,62,0,0,1-1.68-6.2h-.08a57.2,57.2,0,0,1-1.71,6.24l-3,9H5.69L0,69.24Z"/><path class="cls-1" d="M34.67,63.94a2.13,2.13,0,0,1-4.25,0,2.1,2.1,0,0,1,2.15-2.15A2,2,0,0,1,34.67,63.94ZM30.85,88.12V69.24h3.43V88.12Z"/><path class="cls-1" d="M40,60.43h3.44V88.12H40Z"/><path class="cls-1" d="M49.18,60.43h3.43V88.12H49.18Z"/><path class="cls-1" d="M66.5,88.12c.07-1.29.15-3.2.15-4.87V60.43H70V72.29h.08a7,7,0,0,1,6.44-3.48c4.68,0,8,3.9,8,9.64,0,6.74-4.25,10.1-8.46,10.1A6.73,6.73,0,0,1,69.73,85h-.11l-.16,3.12ZM70,80.55a6.28,6.28,0,0,0,.16,1.25,5.29,5.29,0,0,0,5.15,4c3.59,0,5.73-2.93,5.73-7.26,0-3.78-2-7-5.62-7a5.46,5.46,0,0,0-5.22,4.22,6.53,6.53,0,0,0-.2,1.4Z"/><path class="cls-1" d="M90.75,79.31c.08,4.64,3,6.55,6.48,6.55a12.31,12.31,0,0,0,5.22-1l.59,2.46a15.24,15.24,0,0,1-6.28,1.17c-5.81,0-9.28-3.82-9.28-9.52s3.35-10.18,8.85-10.18c6.16,0,7.8,5.43,7.8,8.9a12.83,12.83,0,0,1-.12,1.6Zm10.06-2.46c0-2.19-.89-5.58-4.75-5.58-3.48,0-5,3.2-5.27,5.58Z"/><path class="cls-1" d="M116.18,84.61A9,9,0,0,0,120.7,86c2.5,0,3.67-1.25,3.67-2.81s-1-2.54-3.51-3.47c-3.39-1.21-5-3.09-5-5.35,0-3,2.46-5.54,6.51-5.54A9.45,9.45,0,0,1,127,70l-.86,2.5a7.31,7.31,0,0,0-3.86-1.09c-2,0-3.16,1.17-3.16,2.57,0,1.56,1.14,2.26,3.59,3.2,3.28,1.25,5,2.89,5,5.69,0,3.32-2.58,5.66-7.06,5.66a10.79,10.79,0,0,1-5.31-1.29Z"/><path class="cls-1" d="M136.23,63.82v5.42h4.91v2.62h-4.91V82c0,2.34.66,3.66,2.57,3.66a8,8,0,0,0,2-.23L141,88a8.52,8.52,0,0,1-3,.47,4.76,4.76,0,0,1-3.7-1.44c-1-1-1.33-2.69-1.33-4.92V71.86H130V69.24h2.92V64.72Z"/><path class="cls-1" d="M155.45,88.12l-.27-2.38h-.12a7,7,0,0,1-5.77,2.81,5.38,5.38,0,0,1-5.77-5.42c0-4.57,4.06-7.06,11.35-7v-.39c0-1.56-.43-4.37-4.29-4.37a9.5,9.5,0,0,0-4.92,1.4l-.78-2.26a11.78,11.78,0,0,1,6.21-1.68c5.77,0,7.17,3.94,7.17,7.73V83.6a27,27,0,0,0,.31,4.52Zm-.5-9.63c-3.75-.08-8,.58-8,4.25A3,3,0,0,0,150.19,86a4.68,4.68,0,0,0,4.56-3.16,3.49,3.49,0,0,0,.2-1.09Z"/><path class="cls-1" d="M175.46,88.12V71.86h-7.92V88.12h-3.39V71.86H161.5V69.24h2.65v-.62c0-2.65.62-5,2.11-6.44A6.44,6.44,0,0,1,171,60.43a6.1,6.1,0,0,1,2.7.66L173,63.63a4.85,4.85,0,0,0-2-.47c-2.7,0-3.44,2.3-3.44,5.26v.82h7.92v-.89c0-2.66.62-5.07,2.22-6.59A6.56,6.56,0,0,1,182.25,60a7.6,7.6,0,0,1,2.92.55l-.43,2.65a5.21,5.21,0,0,0-2.22-.43c-2.89,0-3.67,2.57-3.67,5.46v1h4.57v2.62h-4.53V88.12Z"/><path class="cls-1" d="M198.94,63.82v5.42h4.91v2.62h-4.91V82c0,2.34.66,3.66,2.57,3.66a8,8,0,0,0,2-.23l.16,2.57a8.52,8.52,0,0,1-3,.47,4.78,4.78,0,0,1-3.7-1.44c-1-1-1.33-2.69-1.33-4.92V71.86h-2.92V69.24h2.92V64.72Z"/><path class="cls-1" d="M224.56,78.53c0,7-4.83,10-9.4,10-5.11,0-9-3.74-9-9.71,0-6.32,4.14-10,9.36-10C220.9,68.81,224.56,72.75,224.56,78.53Zm-15,.19c0,4.13,2.38,7.26,5.74,7.26s5.73-3.09,5.73-7.34c0-3.2-1.6-7.25-5.65-7.25S209.58,75.13,209.58,78.72Z"/><path class="cls-1" d="M247.61,88.12l-.27-2.38h-.12a7,7,0,0,1-5.77,2.81,5.38,5.38,0,0,1-5.77-5.42c0-4.57,4-7.06,11.35-7v-.39c0-1.56-.43-4.37-4.29-4.37a9.5,9.5,0,0,0-4.92,1.4L237,70.49a11.75,11.75,0,0,1,6.2-1.68c5.77,0,7.18,3.94,7.18,7.73V83.6a27,27,0,0,0,.31,4.52Zm-.51-9.63c-3.74-.08-8,.58-8,4.25A3,3,0,0,0,242.34,86a4.71,4.71,0,0,0,4.57-3.16,3.47,3.47,0,0,0,.19-1.09Z"/><path class="cls-1" d="M255.49,84.61A9,9,0,0,0,260,86c2.5,0,3.67-1.25,3.67-2.81s-1-2.54-3.51-3.47c-3.4-1.21-5-3.09-5-5.35,0-3,2.45-5.54,6.51-5.54A9.45,9.45,0,0,1,266.33,70l-.86,2.5a7.31,7.31,0,0,0-3.86-1.09c-2,0-3.16,1.17-3.16,2.57,0,1.56,1.13,2.26,3.59,3.2,3.28,1.25,4.95,2.89,4.95,5.69,0,3.32-2.57,5.66-7.06,5.66a10.78,10.78,0,0,1-5.3-1.29Z"/><path class="cls-1" d="M270.93,84.61A9.05,9.05,0,0,0,275.46,86c2.49,0,3.66-1.25,3.66-2.81s-1-2.54-3.51-3.47c-3.39-1.21-5-3.09-5-5.35,0-3,2.46-5.54,6.51-5.54A9.45,9.45,0,0,1,281.77,70l-.85,2.5a7.38,7.38,0,0,0-3.87-1.09c-2,0-3.15,1.17-3.15,2.57,0,1.56,1.13,2.26,3.58,3.2,3.28,1.25,5,2.89,5,5.69,0,3.32-2.58,5.66-7.06,5.66a10.79,10.79,0,0,1-5.31-1.29Z"/><path class="cls-1" d="M290.67,63.94a2.13,2.13,0,0,1-4.26,0,2.1,2.1,0,0,1,2.15-2.15A2,2,0,0,1,290.67,63.94Zm-3.83,24.18V69.24h3.44V88.12Z"/><path class="cls-1" d="M295.5,84.61A9.05,9.05,0,0,0,300,86c2.49,0,3.66-1.25,3.66-2.81s-1-2.54-3.51-3.47c-3.39-1.21-5-3.09-5-5.35,0-3,2.46-5.54,6.51-5.54A9.45,9.45,0,0,1,306.34,70l-.85,2.5a7.38,7.38,0,0,0-3.87-1.09c-2,0-3.16,1.17-3.16,2.57,0,1.56,1.14,2.26,3.59,3.2,3.28,1.25,5,2.89,5,5.69,0,3.32-2.58,5.66-7.06,5.66a10.79,10.79,0,0,1-5.31-1.29Z"/><path class="cls-1" d="M315.55,63.82v5.42h4.91v2.62h-4.91V82c0,2.34.66,3.66,2.57,3.66a8,8,0,0,0,2-.23l.16,2.57a8.52,8.52,0,0,1-3,.47,4.78,4.78,0,0,1-3.7-1.44c-1-1-1.33-2.69-1.33-4.92V71.86h-2.92V69.24h2.92V64.72Z"/><path class="cls-1" d="M333.84,69.24,338,80.4c.43,1.25.9,2.73,1.21,3.86h.08c.35-1.13.74-2.57,1.21-3.94l3.74-11.08h3.63L342.69,82.7c-2.46,6.47-4.13,9.79-6.47,11.82A9.37,9.37,0,0,1,332,96.74l-.85-2.89a9.17,9.17,0,0,0,3-1.67A10.35,10.35,0,0,0,337,88.35a2.59,2.59,0,0,0,.27-.81,3.13,3.13,0,0,0-.23-.9l-7-17.4Z"/><path class="cls-1" d="M367.65,78.53c0,7-4.83,10-9.4,10-5.11,0-9.05-3.74-9.05-9.71,0-6.32,4.14-10,9.36-10C364,68.81,367.65,72.75,367.65,78.53Zm-15,.19c0,4.13,2.38,7.26,5.74,7.26s5.73-3.09,5.73-7.34c0-3.2-1.6-7.25-5.65-7.25S352.67,75.13,352.67,78.72Z"/><path class="cls-1" d="M387.78,83c0,2,0,3.67.15,5.15h-3l-.2-3.08h-.07a7.11,7.11,0,0,1-6.24,3.51c-3,0-6.52-1.64-6.52-8.27v-11h3.43V79.7c0,3.58,1.1,6,4.22,6a4.82,4.82,0,0,0,4.83-4.87V69.24h3.44Z"/><path class="cls-1" d="M405.56,63.94a2.13,2.13,0,0,1-4.25,0,2.1,2.1,0,0,1,2.14-2.15A2,2,0,0,1,405.56,63.94Zm-3.82,24.18V69.24h3.43V88.12Z"/><path class="cls-1" d="M410.86,74.35c0-1.95,0-3.55-.15-5.11h3l.19,3.12H414a7,7,0,0,1,6.24-3.55c2.62,0,6.67,1.56,6.67,8V88.12H423.5V77.24c0-3-1.13-5.58-4.37-5.58a5.05,5.05,0,0,0-4.84,5.11V88.12h-3.43Z"/><path class="cls-1" d="M444.91,63.82v5.42h4.91v2.62h-4.91V82c0,2.34.66,3.66,2.57,3.66a8,8,0,0,0,2-.23l.16,2.57a8.5,8.5,0,0,1-3,.47,4.79,4.79,0,0,1-3.71-1.44c-1-1-1.33-2.69-1.33-4.92V71.86h-2.92V69.24h2.92V64.72Z"/><path class="cls-1" d="M453.68,60.43h3.44V72.21h.07a6.36,6.36,0,0,1,2.46-2.42,7,7,0,0,1,3.51-1c2.54,0,6.59,1.56,6.59,8.08V88.12h-3.43V77.28c0-3-1.13-5.62-4.37-5.62a4.93,4.93,0,0,0-4.6,3.43,4.28,4.28,0,0,0-.23,1.64V88.12h-3.44Z"/><path class="cls-1" d="M477.24,79.31c.08,4.64,3,6.55,6.47,6.55a12.36,12.36,0,0,0,5.23-1l.59,2.46a15.24,15.24,0,0,1-6.28,1.17c-5.82,0-9.29-3.82-9.29-9.52s3.36-10.18,8.86-10.18c6.16,0,7.8,5.43,7.8,8.9a12.83,12.83,0,0,1-.12,1.6Zm10.06-2.46c0-2.19-.89-5.58-4.76-5.58-3.47,0-5,3.2-5.26,5.58Z"/><path class="cls-1" d="M507.27,63.82v5.42h4.91v2.62h-4.91V82c0,2.34.66,3.66,2.57,3.66a8,8,0,0,0,2-.23L512,88a8.46,8.46,0,0,1-3,.47,4.79,4.79,0,0,1-3.71-1.44c-1-1-1.32-2.69-1.32-4.92V71.86H501V69.24h2.93V64.72Z"/><path class="cls-1" d="M532.89,78.53c0,7-4.83,10-9.4,10-5.11,0-9-3.74-9-9.71,0-6.32,4.13-10,9.36-10C529.23,68.81,532.89,72.75,532.89,78.53Zm-15,.19c0,4.13,2.38,7.26,5.73,7.26s5.73-3.09,5.73-7.34c0-3.2-1.6-7.25-5.65-7.25S517.92,75.13,517.92,78.72Z"/><path class="cls-1" d="M553,83c0,2,0,3.67.15,5.15h-3L549.94,85h-.08a7.11,7.11,0,0,1-6.24,3.51c-3,0-6.51-1.64-6.51-8.27v-11h3.43V79.7c0,3.58,1.09,6,4.21,6a4.85,4.85,0,0,0,4.84-4.87V69.24H553Z"/><path class="cls-1" d="M558.71,75.13c0-2.22,0-4.13-.15-5.89h3l.12,3.71h.15a5.67,5.67,0,0,1,5.23-4.14,3.58,3.58,0,0,1,1,.12v3.24a5,5,0,0,0-1.17-.12c-2.42,0-4.13,1.83-4.6,4.41a9.41,9.41,0,0,0-.16,1.6V88.12h-3.39Z"/><path class="cls-1" d="M568.58,86.09a2.31,2.31,0,0,1,2.34-2.46,2.46,2.46,0,1,1-2.34,2.46Z"/></g></g></svg>