<?xml version="1.0" encoding="utf-8"?>
<!-- Generator: Adobe Illustrator 16.0.0, SVG Export Plug-In . SVG Version: 6.00 Build 0)  -->
<!DOCTYPE svg PUBLIC "-//W3C//DTD SVG 1.1//EN" "http://www.w3.org/Graphics/SVG/1.1/DTD/svg11.dtd">
<svg version="1.1" id="图层_1" xmlns="http://www.w3.org/2000/svg" xmlns:xlink="http://www.w3.org/1999/xlink" x="0px" y="0px"
	 width="894.048px" height="295.129px" viewBox="0 0 894.048 295.129" enable-background="new 0 0 894.048 295.129"
	 xml:space="preserve">
<rect fill="none" width="894.048" height="295.129"/>
<path fill="#FFFFFF" d="M72.951,107.604H53.752l-5.234,14.653h-8.986l18.911-51.139h9.961l19.344,51.139H78.22L72.951,107.604z
	 M70.497,100.603l-4.295-12.126c-0.986-2.791-1.936-5.726-2.851-8.806c-0.698,2.407-1.66,5.342-2.887,8.806l-4.294,12.126H70.497z"
	/>
<path fill="#FFFFFF" d="M117.847,84.579h8.299l-0.107,2.563c-0.169,4.33-0.266,8.421-0.289,12.27v18.55
	c0,4.451-0.266,7.759-0.794,9.924c-0.963,4.09-3.369,7.074-7.218,8.951c-2.983,1.443-6.545,2.165-10.682,2.165
	c-5.293,0-10.178-1.119-14.653-3.356l2.743-6.46c3.609,2.165,7.35,3.248,11.224,3.248c4.643,0,7.782-1.588,9.419-4.764
	c0.89-1.757,1.336-4.788,1.336-9.095v-2.706c-3.177,3.681-6.906,5.521-11.188,5.521c-4.547,0-8.241-1.732-11.08-5.196
	c-2.695-3.271-4.042-7.771-4.042-13.498c0-5.63,1.396-10.225,4.187-13.786c2.719-3.441,6.375-5.161,10.971-5.161
	c4.931,0,8.805,2.021,11.621,6.063L117.847,84.579z M117.125,97.318c-0.723-1.636-1.612-2.971-2.671-4.006
	c-1.949-1.949-4.102-2.923-6.46-2.923c-2.792,0-4.908,1.311-6.351,3.933c-1.252,2.262-1.877,5.089-1.877,8.481
	c0,3.321,0.661,6.063,1.984,8.229c1.492,2.478,3.646,3.717,6.46,3.717c2.311,0,4.476-1.011,6.496-3.032
	c0.939-0.938,1.744-2.068,2.419-3.392V97.318z"/>
<path fill="#FFFFFF" d="M143.867,106.16c0.288,3.104,1.082,5.449,2.382,7.037c1.925,2.286,4.764,3.429,8.517,3.429
	c3.705,0,7.434-1.215,11.188-3.645l3.067,6.351c-4.355,2.503-9.179,3.754-14.471,3.754c-6.641,0-11.67-1.864-15.086-5.594
	c-3.104-3.344-4.656-7.999-4.656-13.967c0-6.303,1.756-11.271,5.269-14.904c3.105-3.224,7.362-4.836,12.776-4.836
	c7.963,0,13.136,3.08,15.519,9.238c1.178,3.056,1.792,7.435,1.84,13.137H143.867z M161.37,100.062
	c-0.072-2.238-0.505-4.15-1.299-5.738c-1.42-2.767-3.825-4.151-7.218-4.151c-3.32,0-5.774,1.372-7.362,4.115
	c-0.938,1.612-1.456,3.536-1.552,5.774H161.37z"/>
<path fill="#FFFFFF" d="M179.522,122.256V97.787c-0.023-4.595-0.096-8.192-0.216-10.79l-0.108-2.418h8.12l0.288,5.557
	c1.468-1.539,2.779-2.706,3.935-3.5c2.765-1.925,5.906-2.887,9.418-2.887c4.957,0,8.374,1.769,10.25,5.305
	c1.106,2.045,1.66,5.557,1.66,10.538v22.664h-8.625v-22.23c0-3.007-0.242-5.137-0.722-6.388c-0.866-2.165-2.671-3.248-5.413-3.248
	c-3.514,0-6.834,2.129-9.961,6.388v25.479H179.522z"/>
<path fill="#FFFFFF" d="M248.201,68.23h8.625v40.781c0,5.533,0.108,9.949,0.325,13.244h-8.264l-0.29-5.377
	c-1.226,1.685-2.417,2.948-3.572,3.79c-2.166,1.611-4.776,2.417-7.832,2.417c-4.884,0-8.685-1.948-11.404-5.846
	c-2.526-3.609-3.789-8.228-3.789-13.858c0-6.111,1.491-11.007,4.474-14.689c2.671-3.272,6.245-4.908,10.719-4.908
	c4.427,0,8.096,1.853,11.008,5.558V68.23z M248.201,96.669c-2.382-4.162-5.294-6.243-8.734-6.243c-2.743,0-4.848,1.203-6.316,3.609
	c-1.468,2.43-2.201,5.509-2.201,9.237c0,3.634,0.673,6.701,2.021,9.203c1.444,2.647,3.537,3.97,6.28,3.97
	c3.344,0,6.327-2.165,8.95-6.496V96.669z"/>
<path fill="#FFFFFF" d="M289.416,117.962c-1.299,1.371-2.538,2.418-3.717,3.139c-2.238,1.323-4.872,1.985-7.904,1.985
	c-3.898,0-6.893-1.034-8.986-3.103c-2.118-2.045-3.176-4.813-3.176-8.301c0-4.715,1.913-8.18,5.738-10.394
	c2.406-1.395,6.195-2.093,11.368-2.093c1.396,0,3.465,0.072,6.208,0.216v-0.685c0-5.702-2.779-8.553-8.337-8.553
	c-3.152,0-6.545,1.047-10.177,3.139l-2.31-6.207c4.379-2.213,8.914-3.32,13.606-3.32c6.086,0,10.442,1.636,13.065,4.908
	c1.346,1.709,2.201,4.006,2.561,6.893c0.145,1.276,0.217,3.212,0.217,5.81v11.261c0.072,4.932,0.192,8.132,0.361,9.599h-8.192
	L289.416,117.962z M288.946,104.825c-1.42-0.12-2.72-0.181-3.897-0.181c-3.49,0-6.004,0.482-7.543,1.444
	c-1.95,1.228-2.924,3.031-2.924,5.414c0,1.612,0.493,2.947,1.48,4.006c1.058,1.13,2.514,1.695,4.366,1.695
	c3.296,0,6.136-1.755,8.518-5.269V104.825z"/>
<path fill="#FFFFFF" d="M63.062,177.253v13.461c-1.259,0.483-2.679,0.875-4.26,1.177c-1.58,0.301-3.047,0.452-4.399,0.452
	c-3.831,0-6.945-1.192-9.343-3.576c-2.68-2.653-4.019-6.217-4.019-10.689c0-4.675,1.346-8.406,4.039-11.191
	c2.451-2.545,5.598-3.817,9.443-3.817c2.665,0,5.445,0.67,8.338,2.009l-0.964,2.632c-2.505-1.286-4.997-1.929-7.475-1.929
	c-3.214,0-5.685,1.213-7.414,3.637c-1.647,2.331-2.47,5.204-2.47,8.619c0,3.898,1.125,6.925,3.375,9.082
	c1.754,1.675,4.025,2.512,6.811,2.512c1.648,0,3.328-0.302,5.043-0.904v-8.76h-5.605v-2.713H63.062z"/>
<path fill="#FFFFFF" d="M70.194,191.94V163.47h5.505c3.429,0,5.913,0.503,7.454,1.507c2.196,1.42,3.295,3.685,3.295,6.791
	c0,2.036-0.536,3.731-1.607,5.084c-1.058,1.313-2.592,2.19-4.601,2.632c-1.314,0.295-2.954,0.441-4.923,0.441h-1.828v12.016H70.194z
	 M73.489,177.213h1.346c2.746,0,4.675-0.281,5.787-0.845c1.554-0.789,2.33-2.322,2.33-4.601c0-1.205-0.281-2.276-0.844-3.215
	c-0.67-1.111-1.701-1.801-3.094-2.069c-1.004-0.201-2.223-0.301-3.657-0.301h-1.868V177.213z"/>
<path fill="#FFFFFF" d="M101.417,191.94V163.47h4.441c2.196,0,3.883,0.08,5.062,0.241c4.286,0.59,6.43,2.961,6.43,7.113
	c0,2.276-0.677,3.978-2.03,5.103c-0.843,0.697-2.089,1.199-3.737,1.507c4.366,0.496,6.55,2.807,6.55,6.933
	c0,3.134-1.212,5.311-3.637,6.529c-1.031,0.51-2.257,0.83-3.677,0.965c-0.562,0.054-1.814,0.08-3.756,0.08H101.417z
	 M104.712,176.228h1.486c2.706,0,4.555-0.28,5.546-0.843c1.406-0.804,2.11-2.19,2.11-4.159c0-2.09-0.657-3.496-1.969-4.22
	c-1.032-0.575-2.927-0.863-5.687-0.863h-1.486V176.228z M104.712,189.268h1.486c1.97,0,3.45-0.073,4.441-0.221
	c2.665-0.401,3.998-2.083,3.998-5.043c0-2.237-0.91-3.737-2.733-4.501c-1.125-0.482-3.027-0.723-5.706-0.723h-1.486V189.268z"/>
<path fill="#FFFFFF" d="M140.415,171.085v14.064c0.013,3.482,0.066,5.746,0.16,6.791h-3.094l-0.121-3.336
	c-0.736,0.791-1.466,1.447-2.189,1.969c-1.648,1.18-3.39,1.769-5.225,1.769c-2.585,0-4.359-0.964-5.324-2.894
	c-0.429-0.869-0.689-2.075-0.783-3.615c-0.054-0.898-0.08-1.795-0.08-2.693v-12.055h3.134v12.116c0,2.103,0.147,3.568,0.442,4.399
	c0.509,1.486,1.667,2.23,3.476,2.23c2.209,0,4.366-1.299,6.469-3.898v-14.848H140.415z"/>
<path fill="#FFFFFF" d="M146.02,190.915l0.944-2.471c1.916,0.924,3.604,1.386,5.064,1.386c1.057,0,1.975-0.288,2.753-0.864
	c0.83-0.614,1.245-1.5,1.245-2.651c0-0.924-0.275-1.628-0.823-2.109c-0.469-0.415-1.588-0.958-3.356-1.628
	c-1.406-0.549-2.397-1.011-2.973-1.386c-1.849-1.166-2.773-2.726-2.773-4.682c0-1.835,0.716-3.309,2.149-4.421
	c1.219-0.937,2.787-1.405,4.702-1.405c1.956,0,3.938,0.515,5.947,1.547l-0.944,2.471c-1.5-1.005-3.074-1.507-4.721-1.507
	c-1.072,0-1.949,0.229-2.633,0.684c-0.804,0.522-1.205,1.313-1.205,2.37c0,0.964,0.395,1.729,1.186,2.291
	c0.575,0.401,1.6,0.897,3.074,1.486c1.634,0.657,2.752,1.199,3.354,1.628c1.541,1.059,2.311,2.538,2.311,4.44
	c0,2.009-0.757,3.583-2.27,4.722c-1.34,1.018-3.027,1.527-5.063,1.527C150.019,192.343,148.03,191.867,146.02,190.915"/>
<path fill="#FFFFFF" d="M166.495,161.46c0.762,0,1.352,0.288,1.767,0.864c0.281,0.39,0.422,0.845,0.422,1.367
	c0,0.509-0.141,0.957-0.422,1.346c-0.415,0.576-1.017,0.864-1.809,0.864c-0.776,0-1.373-0.288-1.788-0.864
	c-0.281-0.389-0.421-0.837-0.421-1.346c0-0.522,0.14-0.978,0.421-1.367C165.08,161.748,165.691,161.46,166.495,161.46
	 M164.907,171.084h3.135v20.855h-3.135V171.084z"/>
<path fill="#FFFFFF" d="M175.193,191.94v-14.064c-0.014-3.401-0.067-5.666-0.16-6.791h3.094l0.12,3.336
	c0.791-0.832,1.534-1.5,2.23-2.01c1.58-1.152,3.362-1.728,5.345-1.728c2.639,0,4.447,0.964,5.425,2.893
	c0.428,0.857,0.689,2.063,0.783,3.616c0.054,0.938,0.081,1.836,0.081,2.693v12.055h-3.135v-12.115c0-2.09-0.147-3.557-0.442-4.4
	c-0.523-1.486-1.721-2.23-3.596-2.23c-2.264,0-4.468,1.3-6.61,3.898v14.848H175.193z"/>
<path fill="#FFFFFF" d="M200.832,182.356c0.227,2.33,0.762,4.065,1.607,5.203c1.151,1.515,2.853,2.271,5.103,2.271
	c1.916,0,3.817-0.655,5.706-1.968l1.206,2.431c-2.17,1.366-4.494,2.049-6.972,2.049c-3.296,0-5.834-1.077-7.615-3.234
	c-1.554-1.889-2.331-4.421-2.331-7.595c0-3.845,1.038-6.73,3.114-8.66c1.554-1.446,3.543-2.17,5.968-2.17
	c3.71,0,6.201,1.521,7.473,4.562c0.71,1.715,1.092,4.085,1.146,7.112H200.832z M211.901,179.845
	c-0.04-1.541-0.309-2.826-0.804-3.857c-0.897-1.861-2.425-2.792-4.581-2.792c-2.062,0-3.61,0.917-4.641,2.752
	c-0.589,1.058-0.911,2.356-0.964,3.897H211.901z"/>
<path fill="#FFFFFF" d="M219.174,190.915l0.944-2.471c1.916,0.924,3.604,1.386,5.064,1.386c1.057,0,1.975-0.288,2.753-0.864
	c0.83-0.614,1.245-1.5,1.245-2.651c0-0.924-0.275-1.628-0.823-2.109c-0.469-0.415-1.588-0.958-3.356-1.628
	c-1.406-0.549-2.397-1.011-2.973-1.386c-1.849-1.166-2.773-2.726-2.773-4.682c0-1.835,0.716-3.309,2.149-4.421
	c1.219-0.937,2.787-1.405,4.702-1.405c1.956,0,3.938,0.515,5.947,1.547l-0.944,2.471c-1.5-1.005-3.074-1.507-4.721-1.507
	c-1.072,0-1.949,0.229-2.633,0.684c-0.804,0.522-1.205,1.313-1.205,2.37c0,0.964,0.395,1.729,1.186,2.291
	c0.575,0.401,1.6,0.897,3.074,1.486c1.634,0.657,2.752,1.199,3.354,1.628c1.541,1.059,2.311,2.538,2.311,4.44
	c0,2.009-0.757,3.583-2.27,4.722c-1.34,1.018-3.027,1.527-5.063,1.527C223.173,192.343,221.184,191.867,219.174,190.915"/>
<path fill="#FFFFFF" d="M235.87,190.915l0.944-2.471c1.916,0.924,3.604,1.386,5.064,1.386c1.057,0,1.975-0.288,2.753-0.864
	c0.83-0.614,1.245-1.5,1.245-2.651c0-0.924-0.275-1.628-0.823-2.109c-0.469-0.415-1.588-0.958-3.356-1.628
	c-1.406-0.549-2.397-1.011-2.973-1.386c-1.849-1.166-2.773-2.726-2.773-4.682c0-1.835,0.716-3.309,2.149-4.421
	c1.219-0.937,2.787-1.405,4.702-1.405c1.956,0,3.938,0.515,5.947,1.547l-0.944,2.471c-1.5-1.005-3.074-1.507-4.721-1.507
	c-1.072,0-1.949,0.229-2.633,0.684c-0.804,0.522-1.205,1.313-1.205,2.37c0,0.964,0.395,1.729,1.186,2.291
	c0.575,0.401,1.6,0.897,3.074,1.486c1.634,0.657,2.752,1.199,3.354,1.628c1.541,1.059,2.311,2.538,2.311,4.44
	c0,2.009-0.757,3.583-2.27,4.722c-1.34,1.018-3.027,1.527-5.063,1.527C239.869,192.343,237.88,191.867,235.87,190.915"/>
<path fill="#FFFFFF" d="M283.81,188.123l0.824,2.632c-2.72,1.059-5.271,1.587-7.655,1.587c-3.911,0-7.059-1.259-9.443-3.776
	c-2.559-2.707-3.837-6.256-3.837-10.649c0-3.04,0.602-5.732,1.807-8.077c1.34-2.585,3.196-4.439,5.566-5.564
	c1.715-0.805,3.63-1.207,5.747-1.207c2.477,0,5.029,0.591,7.654,1.769l-1.064,2.632c-2.358-1.125-4.535-1.687-6.531-1.687
	c-3.133,0-5.532,1.185-7.192,3.556c-1.661,2.384-2.491,5.251-2.491,8.6c0,2.304,0.428,4.399,1.285,6.288
	c0.925,2.05,2.304,3.536,4.14,4.46c1.258,0.631,2.718,0.945,4.379,0.945C279.236,189.63,281.506,189.127,283.81,188.123"/>
<path fill="#FFFFFF" d="M297.352,170.683c2.96,0,5.352,1.146,7.173,3.436c1.54,1.93,2.311,4.394,2.311,7.395
	c0,3.229-0.891,5.833-2.672,7.816c-1.809,2.009-4.119,3.013-6.932,3.013c-3.041,0-5.472-1.146-7.294-3.435
	c-1.54-1.942-2.31-4.414-2.31-7.414c0-3.241,0.89-5.848,2.672-7.816C292.094,171.681,294.445,170.683,297.352,170.683
	 M297.151,173.194c-1.286,0-2.438,0.396-3.456,1.186c-1.849,1.447-2.773,3.824-2.773,7.133c0,2.29,0.482,4.179,1.447,5.666
	c1.151,1.768,2.772,2.652,4.862,2.652c2.264,0,3.965-1.025,5.104-3.074c0.803-1.42,1.205-3.175,1.205-5.264
	c0-2.291-0.483-4.174-1.447-5.646C300.941,174.079,299.294,173.194,297.151,173.194"/>
<path fill="#FFFFFF" d="M312.44,191.94v-14.064c-0.014-3.401-0.067-5.666-0.16-6.791h3.094l0.12,3.336
	c0.791-0.832,1.534-1.5,2.23-2.01c1.58-1.152,3.362-1.728,5.345-1.728c2.639,0,4.447,0.964,5.425,2.893
	c0.428,0.857,0.689,2.063,0.783,3.616c0.054,0.938,0.081,1.836,0.081,2.693v12.055h-3.135v-12.115c0-2.09-0.147-3.557-0.442-4.4
	c-0.523-1.486-1.721-2.23-3.596-2.23c-2.264,0-4.468,1.3-6.61,3.898v14.848H312.44z"/>
<path fill="#FFFFFF" d="M337.475,191.94v-18.344H334.1v-2.512h3.375v-1.99c0-2.45,0.342-4.231,1.025-5.344
	c0.938-1.526,2.525-2.289,4.762-2.289c0.91,0,1.889,0.133,2.934,0.4l-0.283,2.713c-0.736-0.402-1.533-0.603-2.39-0.603
	c-1.326,0-2.184,0.63-2.571,1.889c-0.229,0.737-0.342,1.902-0.342,3.496v1.728h4.923v2.512h-4.923v18.344H337.475z"/>
<path fill="#FFFFFF" d="M351.199,182.356c0.227,2.33,0.762,4.065,1.607,5.203c1.151,1.515,2.853,2.271,5.103,2.271
	c1.916,0,3.817-0.655,5.706-1.968l1.206,2.431c-2.17,1.366-4.494,2.049-6.972,2.049c-3.296,0-5.834-1.077-7.615-3.234
	c-1.554-1.889-2.331-4.421-2.331-7.595c0-3.845,1.038-6.73,3.114-8.66c1.554-1.446,3.543-2.17,5.968-2.17
	c3.71,0,6.201,1.521,7.473,4.562c0.71,1.715,1.092,4.085,1.146,7.112H351.199z M362.269,179.845
	c-0.04-1.541-0.309-2.826-0.804-3.857c-0.897-1.861-2.425-2.792-4.581-2.792c-2.062,0-3.61,0.917-4.641,2.752
	c-0.589,1.058-0.911,2.356-0.964,3.897H362.269z"/>
<path fill="#FFFFFF" d="M371.148,191.94v-11.895c0-2.732-0.04-5.397-0.12-7.996l-0.021-0.965h2.914l0.121,3.838
	c0.696-1.287,1.446-2.277,2.25-2.975c0.964-0.843,2.169-1.265,3.617-1.265c0.427,0,0.91,0.047,1.446,0.14l-0.281,2.813
	c-0.375-0.079-0.738-0.119-1.085-0.119c-1.554,0-2.92,0.77-4.099,2.31c-0.656,0.886-1.192,1.856-1.607,2.914v13.2H371.148z"/>
<path fill="#FFFFFF" d="M386.701,182.356c0.227,2.33,0.762,4.065,1.607,5.203c1.151,1.515,2.853,2.271,5.103,2.271
	c1.916,0,3.817-0.655,5.706-1.968l1.206,2.431c-2.17,1.366-4.494,2.049-6.972,2.049c-3.296,0-5.834-1.077-7.615-3.234
	c-1.554-1.889-2.331-4.421-2.331-7.595c0-3.845,1.038-6.73,3.114-8.66c1.554-1.446,3.543-2.17,5.968-2.17
	c3.71,0,6.201,1.521,7.473,4.562c0.71,1.715,1.092,4.085,1.146,7.112H386.701z M397.771,179.845
	c-0.04-1.541-0.309-2.826-0.804-3.857c-0.897-1.861-2.425-2.792-4.581-2.792c-2.062,0-3.61,0.917-4.641,2.752
	c-0.589,1.058-0.911,2.356-0.964,3.897H397.771z"/>
<path fill="#FFFFFF" d="M406.61,191.94v-14.064c-0.014-3.401-0.067-5.666-0.16-6.791h3.094l0.12,3.336
	c0.791-0.832,1.534-1.5,2.23-2.01c1.58-1.152,3.362-1.728,5.345-1.728c2.639,0,4.447,0.964,5.425,2.893
	c0.428,0.857,0.689,2.063,0.783,3.616c0.054,0.938,0.081,1.836,0.081,2.693v12.055h-3.135v-12.115c0-2.09-0.147-3.557-0.442-4.4
	c-0.523-1.486-1.721-2.23-3.596-2.23c-2.264,0-4.468,1.3-6.61,3.898v14.848H406.61z"/>
<path fill="#FFFFFF" d="M443.801,187.982l1.205,2.431c-1.889,1.286-3.998,1.93-6.329,1.93c-3,0-5.351-0.918-7.052-2.754
	c-1.782-1.929-2.673-4.554-2.673-7.875c0-3.656,0.945-6.47,2.833-8.439c1.648-1.727,3.852-2.591,6.611-2.591
	c2.156,0,4.232,0.556,6.228,1.667l-1.185,2.472c-1.688-1.085-3.375-1.628-5.063-1.628c-2.036,0-3.57,0.737-4.601,2.21
	c-1.018,1.46-1.527,3.43-1.527,5.908c0,2.665,0.603,4.788,1.808,6.369c1.112,1.433,2.666,2.148,4.661,2.148
	C440.486,189.83,442.18,189.214,443.801,187.982"/>
<path fill="#FFFFFF" d="M451.215,182.356c0.228,2.33,0.763,4.065,1.607,5.203c1.151,1.515,2.853,2.271,5.103,2.271
	c1.916,0,3.817-0.655,5.706-1.968l1.206,2.431c-2.17,1.366-4.494,2.049-6.972,2.049c-3.296,0-5.834-1.077-7.615-3.234
	c-1.554-1.889-2.331-4.421-2.331-7.595c0-3.845,1.038-6.73,3.114-8.66c1.554-1.446,3.543-2.17,5.968-2.17
	c3.71,0,6.201,1.521,7.474,4.562c0.71,1.715,1.092,4.085,1.146,7.112H451.215z M462.285,179.845
	c-0.04-1.541-0.309-2.826-0.804-3.857c-0.897-1.861-2.425-2.792-4.581-2.792c-2.063,0-3.61,0.917-4.642,2.752
	c-0.589,1.058-0.91,2.356-0.964,3.897H462.285z"/>
<path fill="#FFFFFF" d="M500.178,188.123l0.824,2.632c-2.72,1.059-5.271,1.587-7.655,1.587c-3.911,0-7.059-1.259-9.443-3.776
	c-2.559-2.707-3.837-6.256-3.837-10.649c0-3.04,0.603-5.732,1.808-8.077c1.34-2.585,3.195-4.439,5.565-5.564
	c1.716-0.805,3.63-1.207,5.747-1.207c2.478,0,5.029,0.591,7.654,1.769l-1.064,2.632c-2.357-1.125-4.534-1.687-6.53-1.687
	c-3.133,0-5.532,1.185-7.192,3.556c-1.661,2.384-2.491,5.251-2.491,8.6c0,2.304,0.429,4.399,1.285,6.288
	c0.925,2.05,2.304,3.536,4.141,4.46c1.258,0.631,2.718,0.945,4.379,0.945C495.604,189.63,497.874,189.127,500.178,188.123"/>
<path fill="#FFFFFF" d="M505.563,191.94v-30.078h3.135v12.457c2.29-2.424,4.788-3.636,7.494-3.636c2.625,0,4.435,0.964,5.425,2.893
	c0.429,0.857,0.689,2.063,0.783,3.616c0.055,0.938,0.081,1.836,0.081,2.693v12.055h-3.135v-12.115c0-2.09-0.147-3.557-0.442-4.4
	c-0.509-1.486-1.707-2.23-3.596-2.23c-2.277,0-4.48,1.3-6.61,3.898v14.848H505.563z"/>
<path fill="#FFFFFF" d="M531.06,161.46c0.764,0,1.353,0.288,1.769,0.864c0.28,0.39,0.421,0.845,0.421,1.367
	c0,0.509-0.141,0.957-0.421,1.346c-0.416,0.576-1.019,0.864-1.81,0.864c-0.775,0-1.373-0.288-1.788-0.864
	c-0.28-0.389-0.422-0.837-0.422-1.346c0-0.522,0.142-0.978,0.422-1.367C529.646,161.748,530.256,161.46,531.06,161.46
	 M529.472,171.084h3.135v20.855h-3.135V171.084z"/>
<path fill="#FFFFFF" d="M539.759,191.94v-14.064c-0.014-3.401-0.066-5.666-0.16-6.791h3.095l0.119,3.336
	c0.791-0.832,1.534-1.5,2.23-2.01c1.58-1.152,3.362-1.728,5.345-1.728c2.64,0,4.447,0.964,5.425,2.893
	c0.429,0.857,0.689,2.063,0.783,3.616c0.055,0.938,0.081,1.836,0.081,2.693v12.055h-3.135v-12.115c0-2.09-0.147-3.557-0.442-4.4
	c-0.522-1.486-1.721-2.23-3.596-2.23c-2.264,0-4.468,1.3-6.61,3.898v14.848H539.759z"/>
<path fill="#FFFFFF" d="M574.719,189.509c-0.71,0.764-1.394,1.347-2.05,1.748c-1.205,0.724-2.599,1.085-4.179,1.085
	c-2.184,0-3.851-0.615-5.003-1.848c-1.019-1.085-1.527-2.519-1.527-4.3c0-2.76,1.16-4.715,3.477-5.867
	c1.354-0.684,3.361-1.024,6.027-1.024c0.549,0,1.554,0.027,3.014,0.08v-0.563c0-1.513-0.194-2.664-0.583-3.455
	c-0.696-1.446-2.076-2.17-4.139-2.17c-1.688,0-3.482,0.603-5.384,1.809l-1.367-2.25c2.184-1.38,4.548-2.07,7.093-2.07
	c3.161,0,5.324,0.945,6.489,2.833c0.55,0.898,0.871,2.185,0.965,3.858c0.04,0.589,0.061,1.439,0.061,2.551v6.813
	c-0.014,2.009,0.04,3.743,0.16,5.203h-2.913L574.719,189.509z M574.478,181.773c-0.736-0.053-1.521-0.081-2.351-0.081
	c-2.224,0-3.845,0.295-4.862,0.886c-1.34,0.763-2.009,1.941-2.009,3.536c0,1.125,0.334,2.021,1.004,2.691
	c0.697,0.684,1.628,1.025,2.793,1.025c2.184,0,3.991-1.065,5.425-3.195V181.773z"/>
<path fill="#FFFFFF" d="M594.127,191.94v-2.873c4.354-3.911,7.527-6.992,9.523-9.242c1.795-2.036,3.067-3.777,3.817-5.224
	c0.71-1.407,1.065-2.74,1.065-3.998c0-1.435-0.529-2.585-1.587-3.456c-1.166-0.965-2.687-1.447-4.562-1.447
	c-2.144,0-4.347,0.703-6.61,2.11l-0.823-2.813c2.625-1.285,5.238-1.929,7.836-1.929c2.545,0,4.634,0.562,6.269,1.687
	c1.875,1.273,2.813,3.155,2.813,5.646c0,1.876-0.542,3.738-1.627,5.586c-1.273,2.21-3.758,5.163-7.454,8.861
	c-1.42,1.42-2.987,2.88-4.702,4.38h14.024v2.712H594.127z"/>
<path fill="#FFFFFF" d="M627.198,163.068c6.429,0,9.644,4.875,9.644,14.627c0,4.366-0.615,7.723-1.848,10.065
	c-1.621,3.055-4.266,4.582-7.937,4.582c-3.992,0-6.771-1.795-8.339-5.385c-0.978-2.25-1.466-5.345-1.466-9.282
	c0-4.353,0.615-7.696,1.849-10.026C620.722,164.595,623.421,163.068,627.198,163.068 M626.957,165.78
	c-1.366,0-2.564,0.449-3.597,1.347c-1.849,1.607-2.772,5.137-2.772,10.589c0,3.99,0.462,6.891,1.386,8.699
	c1.086,2.144,2.779,3.215,5.084,3.215c2.491,0,4.266-1.267,5.324-3.797c0.75-1.769,1.125-4.488,1.125-8.157
	c0-3.992-0.462-6.886-1.387-8.681C631.035,166.853,629.314,165.78,626.957,165.78"/>
<polygon fill="#FFFFFF" points="650.464,191.94 650.464,167.046 644.657,170.743 643.271,168.232 650.785,163.47 653.639,163.47 
	653.639,191.94 "/>
<path fill="#FFFFFF" d="M667.02,192.302l0.161-2.672c0.669,0.053,1.231,0.08,1.688,0.08c3.844,0,6.717-1.413,8.619-4.238
	c1.272-1.875,2.09-4.313,2.451-7.314c-1.741,2.197-4.025,3.295-6.852,3.295c-1.768,0-3.369-0.468-4.802-1.406
	c-2.385-1.566-3.576-4.079-3.576-7.534c0-2.827,0.877-5.11,2.632-6.852c1.756-1.728,4.006-2.592,6.751-2.592
	c2.357,0,4.306,0.609,5.847,1.827c2.384,1.89,3.576,5.198,3.576,9.927c0,4.059-0.783,7.588-2.351,10.588
	c-1.46,2.76-3.449,4.682-5.968,5.767c-1.821,0.776-3.951,1.165-6.389,1.165C668.554,192.342,667.957,192.328,667.02,192.302
	 M673.951,165.7c-1.741,0-3.161,0.583-4.26,1.748c-1.099,1.166-1.647,2.773-1.647,4.822c0,1.982,0.51,3.556,1.527,4.722
	c1.085,1.219,2.531,1.828,4.34,1.828c1.835,0,3.314-0.603,4.44-1.809c1.111-1.165,1.667-2.766,1.667-4.802
	c0-2.021-0.549-3.609-1.647-4.762C677.259,166.283,675.786,165.7,673.951,165.7"/>
<path fill="#FFFFFF" d="M41.15,229.441v-18.019h2.899l5.099,13.631c0.297,0.814,0.589,1.653,0.878,2.519
	c0.263-0.831,0.551-1.67,0.864-2.519l4.972-13.631h2.785v18.019h-2.085v-15.005c-0.568,1.831-1.077,3.365-1.526,4.603l-3.891,10.402
	h-2.416l-3.968-10.287c-0.474-1.229-1.017-2.802-1.628-4.718v15.005H41.15z"/>
<path fill="#FFFFFF" d="M70.256,227.903c-0.449,0.482-0.881,0.852-1.297,1.105c-0.762,0.457-1.644,0.687-2.644,0.687
	c-1.382,0-2.438-0.39-3.166-1.169c-0.645-0.688-0.967-1.594-0.967-2.723c0-1.746,0.734-2.983,2.2-3.713
	c0.856-0.432,2.127-0.647,3.815-0.647c0.347,0,0.983,0.017,1.907,0.051v-0.356c0-0.957-0.123-1.687-0.368-2.188
	c-0.442-0.915-1.315-1.373-2.62-1.373c-1.069,0-2.204,0.382-3.408,1.145l-0.865-1.424c1.382-0.873,2.878-1.311,4.49-1.311
	c2,0,3.369,0.598,4.106,1.793c0.348,0.568,0.552,1.382,0.61,2.441c0.026,0.373,0.038,0.912,0.038,1.615v4.312
	c-0.007,1.271,0.027,2.368,0.103,3.293h-1.844L70.256,227.903z M70.104,223.007c-0.466-0.033-0.962-0.051-1.487-0.051
	c-1.408,0-2.434,0.186-3.077,0.559c-0.849,0.484-1.273,1.23-1.273,2.239c0,0.711,0.212,1.279,0.636,1.703
	c0.441,0.433,1.03,0.649,1.767,0.649c1.382,0,2.527-0.674,3.434-2.022V223.007z"/>
<path fill="#FFFFFF" d="M79.374,229.632l-5.2-13.39h2.123l3.014,7.896c0.356,0.941,0.716,1.946,1.081,3.015
	c0.347-1.025,0.715-2.06,1.106-3.103l2.925-7.808h1.856l-5.366,14.318c-0.56,1.483-1.157,2.628-1.793,3.433
	c-0.695,0.873-1.709,1.311-3.039,1.311c-0.619,0-1.268-0.086-1.946-0.254l0.343-1.615c0.535,0.186,1.026,0.279,1.475,0.279
	c0.721,0,1.298-0.221,1.73-0.662C78.318,232.408,78.883,231.269,79.374,229.632"/>
<path fill="#FFFFFF" d="M94.773,229.441v-1.818c2.755-2.475,4.764-4.426,6.027-5.85c1.136-1.288,1.942-2.39,2.416-3.306
	c0.45-0.891,0.674-1.734,0.674-2.53c0-0.908-0.335-1.636-1.005-2.188c-0.737-0.61-1.699-0.916-2.886-0.916
	c-1.357,0-2.751,0.445-4.183,1.335l-0.522-1.779c1.662-0.814,3.315-1.222,4.959-1.222c1.611,0,2.933,0.356,3.968,1.068
	c1.187,0.806,1.78,1.997,1.78,3.574c0,1.187-0.343,2.364-1.03,3.534c-0.805,1.398-2.378,3.268-4.718,5.607
	c-0.898,0.899-1.89,1.823-2.975,2.772h8.876v1.717H94.773z"/>
<path fill="#FFFFFF" d="M110.897,229.671l0.102-1.691c0.424,0.034,0.779,0.05,1.068,0.05c2.433,0,4.251-0.894,5.455-2.683
	c0.805-1.187,1.323-2.729,1.551-4.629c-1.101,1.391-2.547,2.086-4.336,2.086c-1.119,0-2.132-0.297-3.039-0.891
	c-1.509-0.992-2.264-2.581-2.264-4.768c0-1.789,0.556-3.234,1.666-4.336c1.111-1.094,2.535-1.641,4.273-1.641
	c1.492,0,2.725,0.386,3.7,1.156c1.509,1.196,2.264,3.289,2.264,6.282c0,2.567-0.496,4.802-1.488,6.701
	c-0.924,1.747-2.183,2.963-3.777,3.649c-1.152,0.491-2.501,0.737-4.043,0.737C111.868,229.695,111.49,229.688,110.897,229.671
	 M115.284,212.834c-1.103,0-2.001,0.369-2.696,1.106c-0.695,0.738-1.042,1.755-1.042,3.052c0,1.255,0.322,2.251,0.966,2.988
	c0.686,0.772,1.602,1.157,2.747,1.157c1.161,0,2.097-0.381,2.81-1.145c0.703-0.738,1.055-1.75,1.055-3.039
	c0-1.279-0.348-2.285-1.042-3.014C117.378,213.203,116.445,212.834,115.284,212.834"/>
<path fill="#FFFFFF" d="M124.852,214.001h-1.245v-0.927h1.245v-1.683l1.157-0.244v1.927h1.817v0.927h-1.817v4.204
	c0,0.637,0.054,1.071,0.163,1.304c0.159,0.322,0.45,0.482,0.874,0.482c0.257,0,0.552-0.076,0.883-0.23l0.104,0.92
	c-0.445,0.158-0.861,0.237-1.245,0.237c-0.772,0-1.305-0.237-1.602-0.712c-0.223-0.352-0.334-0.941-0.334-1.772V214.001z"/>
<path fill="#FFFFFF" d="M129.581,220.77v-11.099h1.157v4.598c0.845-0.896,1.767-1.342,2.765-1.342c0.969,0,1.636,0.354,2.002,1.066
	c0.158,0.317,0.254,0.762,0.289,1.335c0.019,0.347,0.029,0.677,0.029,0.993v4.448h-1.156v-4.47c0-0.771-0.055-1.313-0.163-1.625
	c-0.188-0.549-0.63-0.822-1.327-0.822c-0.84,0-1.654,0.48-2.439,1.438v5.479H129.581z"/>
<path fill="#FFFFFF" d="M148.452,220.616c0.416,0,0.768,0.141,1.056,0.42c0.305,0.297,0.458,0.67,0.458,1.119
	c0,0.44-0.153,0.813-0.458,1.118c-0.288,0.28-0.649,0.42-1.081,0.42s-0.793-0.14-1.081-0.42c-0.305-0.305-0.457-0.678-0.457-1.118
	c0-0.449,0.152-0.822,0.457-1.119C147.642,220.757,148.012,220.616,148.452,220.616"/>
<path fill="#FFFFFF" d="M171.455,229.441v-8.113l-6.307-9.905h2.454l3.751,5.989c0.484,0.771,0.895,1.476,1.234,2.111
	c0.509-0.916,0.929-1.642,1.259-2.175l3.701-5.926h2.288l-6.294,9.905v8.113H171.455z"/>
<path fill="#FFFFFF" d="M183.472,210.151c0.483,0,0.856,0.182,1.119,0.547c0.179,0.245,0.268,0.533,0.268,0.864
	c0,0.321-0.089,0.606-0.268,0.852c-0.263,0.365-0.644,0.548-1.144,0.548c-0.492,0-0.869-0.183-1.131-0.548
	c-0.179-0.245-0.268-0.53-0.268-0.852c0-0.331,0.089-0.619,0.268-0.864C182.578,210.333,182.964,210.151,183.472,210.151
	 M182.468,216.242h1.983v13.199h-1.983V216.242z"/>
<polygon fill="#FFFFFF" points="187.211,229.441 192.03,222.804 187.44,216.242 189.792,216.242 193.2,221.214 196.774,216.242 
	198.909,216.242 194.243,222.625 199.011,229.441 196.659,229.441 193.073,224.291 189.347,229.441 "/>
<path fill="#FFFFFF" d="M202.775,210.151c0.483,0,0.856,0.182,1.119,0.547c0.179,0.245,0.267,0.533,0.267,0.864
	c0,0.321-0.088,0.606-0.267,0.852c-0.263,0.365-0.645,0.548-1.145,0.548c-0.491,0-0.869-0.183-1.13-0.548
	c-0.179-0.245-0.268-0.53-0.268-0.852c0-0.331,0.089-0.619,0.268-0.864C201.88,210.333,202.267,210.151,202.775,210.151
	 M201.771,216.242h1.983v13.199h-1.983V216.242z"/>
<path fill="#FFFFFF" d="M208.281,229.441v-8.901c-0.009-2.152-0.043-3.586-0.102-4.298h1.958l0.077,2.111
	c0.5-0.526,0.97-0.95,1.411-1.272c1.001-0.729,2.128-1.094,3.383-1.094c1.669,0,2.814,0.611,3.433,1.831
	c0.271,0.543,0.437,1.306,0.496,2.29c0.033,0.593,0.051,1.161,0.051,1.704v7.629h-1.984v-7.668c0-1.322-0.093-2.25-0.28-2.785
	c-0.331-0.94-1.089-1.411-2.276-1.411c-1.433,0-2.827,0.822-4.184,2.467v9.397H208.281z"/>
<path fill="#FFFFFF" d="M231.704,216.242h1.933c-0.068,2.034-0.102,3.769-0.102,5.2v6.6c0,1.483-0.089,2.615-0.267,3.396
	c-0.288,1.238-0.984,2.221-2.085,2.95c-0.925,0.611-2.035,0.916-3.332,0.916c-1.755,0-3.416-0.479-4.985-1.438l0.852-1.525
	c1.331,0.916,2.696,1.373,4.095,1.373c1.551,0,2.628-0.627,3.229-1.883c0.34-0.703,0.509-1.906,0.509-3.61v-1.095
	c-1.229,1.392-2.572,2.086-4.03,2.086c-1.476,0-2.7-0.593-3.676-1.779c-0.958-1.162-1.437-2.738-1.437-4.73
	c0-2.153,0.531-3.857,1.59-5.111c0.907-1.069,2.094-1.604,3.561-1.604c1.737,0,3.094,0.764,4.068,2.289L231.704,216.242z
	 M231.551,220.12c-0.355-0.678-0.754-1.207-1.195-1.589c-0.738-0.636-1.531-0.954-2.378-0.954c-1.178,0-2.073,0.534-2.683,1.603
	c-0.534,0.94-0.801,2.106-0.801,3.497c0,1.348,0.28,2.479,0.839,3.395c0.645,1.034,1.552,1.551,2.721,1.551
	c1.416,0,2.582-0.771,3.497-2.313V220.12z"/>
</svg>
