<?xml version="1.0" encoding="utf-8"?>
<!-- Generator: Adobe Illustrator 16.0.0, SVG Export Plug-In . SVG Version: 6.00 Build 0)  -->
<!DOCTYPE svg PUBLIC "-//W3C//DTD SVG 1.1//EN" "http://www.w3.org/Graphics/SVG/1.1/DTD/svg11.dtd">
<svg version="1.1" id="图层_1" xmlns="http://www.w3.org/2000/svg" xmlns:xlink="http://www.w3.org/1999/xlink" x="0px" y="0px"
	 width="50px" height="50px" viewBox="0 0 50 50" enable-background="new 0 0 50 50" xml:space="preserve">
<g>
	<path fill="#FFFFFF" d="M45.068,8.309h-7.641c-0.389-0.322-1.328-1.487-1.799-2.071c-1.746-2.169-3.396-4.218-5.121-4.218H19.097
		c-1.581,0-3.065,1.58-5.324,4.182c-0.484,0.559-1.582,1.826-1.956,2.106H4.933c-2.444,0-4.433,1.993-4.433,4.444v30.781
		c0,2.452,1.988,4.447,4.433,4.447h40.136c2.443,0,4.432-1.995,4.432-4.447V12.752C49.5,10.302,47.512,8.309,45.068,8.309
		 M48.131,43.533c0,1.697-1.375,3.076-3.063,3.076H4.933c-1.688,0-3.063-1.379-3.063-3.076V12.752c0-1.695,1.375-3.074,3.063-3.074
		h7.053c0.077,0,0.153-0.013,0.226-0.039c0.486-0.169,1.194-0.92,2.597-2.541c1.824-2.102,3.298-3.709,4.289-3.709h11.411
		c1.069,0,2.725,2.055,4.055,3.708c1.322,1.638,1.95,2.352,2.422,2.534c0.079,0.03,0.162,0.045,0.246,0.045h7.838
		c1.688,0,3.063,1.379,3.063,3.074V43.533z"/>
	<path fill="#FFFFFF" d="M24.998,14.443c-6.69,0-12.133,5.459-12.133,12.168c0,6.708,5.443,12.166,12.133,12.166
		c3.369,0,6.498-1.352,8.814-3.805c0.389-0.412,0.369-1.063-0.043-1.453c-0.412-0.389-1.063-0.37-1.452,0.043
		c-1.923,2.037-4.522,3.159-7.319,3.159c-5.557,0-10.078-4.536-10.078-10.11c0-5.576,4.521-10.113,10.078-10.113
		c5.559,0,10.081,4.537,10.081,10.113c0,0.568,0.46,1.027,1.028,1.027c0.567,0,1.027-0.459,1.027-1.027
		C37.135,19.901,31.689,14.443,24.998,14.443"/>
</g>
</svg>
