<?xml version="1.0" encoding="utf-8"?>
<!-- Generator: Adobe Illustrator 16.0.0, SVG Export Plug-In . SVG Version: 6.00 Build 0)  -->
<!DOCTYPE svg PUBLIC "-//W3C//DTD SVG 1.1//EN" "http://www.w3.org/Graphics/SVG/1.1/DTD/svg11.dtd">
<svg version="1.1" id="图层_1" xmlns="http://www.w3.org/2000/svg" xmlns:xlink="http://www.w3.org/1999/xlink" x="0px" y="0px"
	 width="896.714px" height="261.311px" viewBox="0 0 896.714 261.311" enable-background="new 0 0 896.714 261.311"
	 xml:space="preserve">
<rect x="2.667" fill="none" width="894.048" height="261.31"/>
<path fill="#FFFFFF" d="M82.799,112.475l2.49,7.218c-2.189,0.987-4.006,1.684-5.449,2.093c-2.936,0.866-6.16,1.299-9.672,1.299
	c-7.651,0-13.654-2.201-18.009-6.604c-4.668-4.715-7.002-11.188-7.002-19.416c0-9.263,2.828-16.384,8.482-21.365
	c4.138-3.609,9.491-5.413,16.059-5.413c4.956,0,9.973,1.154,15.05,3.464l-2.96,6.965c-4.186-2.141-8.072-3.212-11.656-3.212
	c-5.029,0-8.878,1.793-11.549,5.378c-2.719,3.705-4.078,8.361-4.078,13.967c0,6.567,1.792,11.584,5.377,15.049
	c2.743,2.646,6.304,3.97,10.683,3.97c2.671,0,5.233-0.445,7.687-1.336C79.431,114.099,80.947,113.413,82.799,112.475"/>
<path fill="#FFFFFF" d="M108.603,83.785c5.895,0,10.49,1.961,13.786,5.882c2.959,3.513,4.439,8.097,4.439,13.75
	c0,6.184-1.744,11.067-5.232,14.651c-3.225,3.345-7.64,5.018-13.246,5.018c-6.039,0-10.706-1.961-14.003-5.883
	c-2.959-3.512-4.438-8.107-4.438-13.786c0-6.184,1.744-11.067,5.232-14.652C98.389,85.444,102.877,83.785,108.603,83.785
	 M108.242,90.353c-3.44,0-6.003,1.648-7.687,4.944c-1.131,2.189-1.696,4.908-1.696,8.156c0,3.561,0.673,6.484,2.021,8.77
	c1.708,2.863,4.198,4.295,7.47,4.295c3.561,0,6.172-1.648,7.832-4.945c1.13-2.189,1.696-4.908,1.696-8.156
	c0-3.585-0.674-6.508-2.021-8.771C114.148,91.785,111.61,90.353,108.242,90.353"/>
<path fill="#FFFFFF" d="M136.283,122.255V97.786c-0.023-4.619-0.096-8.168-0.216-10.646l-0.108-2.562h8.12l0.288,5.557
	c1.275-1.419,2.515-2.574,3.718-3.464c2.574-1.949,5.497-2.923,8.769-2.923c5.198,0,8.602,2.298,10.213,6.893
	c1.445-1.684,2.803-3.019,4.078-4.006c2.527-1.925,5.426-2.887,8.699-2.887c4.691,0,7.926,1.768,9.708,5.305
	c1.058,2.093,1.587,5.605,1.587,10.538v22.664h-8.626v-22.231c0-3.032-0.215-5.161-0.649-6.388
	c-0.794-2.165-2.418-3.248-4.872-3.248c-3.176,0-6.171,2.129-8.986,6.388v25.479h-8.625V99.158c0-2.695-0.289-4.668-0.867-5.919
	c-0.842-1.899-2.322-2.851-4.439-2.851c-3.199,0-6.256,2.129-9.166,6.388v25.479H136.283z"/>
<path fill="#FFFFFF" d="M203.084,122.255V97.786c-0.023-4.619-0.096-8.168-0.216-10.646l-0.108-2.562h8.12l0.288,5.557
	c1.275-1.419,2.515-2.574,3.718-3.464c2.574-1.949,5.497-2.923,8.769-2.923c5.198,0,8.602,2.298,10.213,6.893
	c1.445-1.684,2.803-3.019,4.078-4.006c2.527-1.925,5.426-2.887,8.699-2.887c4.691,0,7.926,1.768,9.708,5.305
	c1.058,2.093,1.587,5.605,1.587,10.538v22.664h-8.626v-22.231c0-3.032-0.215-5.161-0.649-6.388
	c-0.794-2.165-2.418-3.248-4.872-3.248c-3.176,0-6.171,2.129-8.986,6.388v25.479h-8.625V99.158c0-2.695-0.289-4.668-0.867-5.919
	c-0.842-1.899-2.322-2.851-4.439-2.851c-3.199,0-6.256,2.129-9.166,6.388v25.479H203.084z"/>
<path fill="#FFFFFF" d="M274.217,67.003c1.66,0,3.008,0.589,4.042,1.768c0.842,0.987,1.264,2.19,1.264,3.609
	c0,1.395-0.422,2.586-1.264,3.573c-1.034,1.203-2.406,1.804-4.114,1.804s-3.08-0.601-4.114-1.804
	c-0.842-0.962-1.263-2.153-1.263-3.573c0-1.443,0.421-2.646,1.263-3.609C271.089,67.592,272.485,67.003,274.217,67.003
	 M269.779,84.578h8.625v37.677h-8.625V84.578z"/>
<path fill="#FFFFFF" d="M292.55,91.146h-6.063v-6.568h6.063v-8.193l8.625-1.66v9.853h8.59v6.568h-8.59v17.503
	c0,2.551,0.253,4.319,0.758,5.305c0.746,1.468,2.178,2.202,4.295,2.202c1.058,0,2.418-0.313,4.078-0.938l0.758,6.604
	c-2.647,0.842-5.209,1.264-7.687,1.264c-4.259,0-7.254-1.299-8.986-3.897c-1.228-1.853-1.841-5.209-1.841-10.07V91.146z"/>
<path fill="#FFFFFF" d="M338.6,91.146h-6.063v-6.568h6.063v-8.193l8.625-1.66v9.853h8.59v6.568h-8.59v17.503
	c0,2.551,0.253,4.319,0.758,5.305c0.746,1.468,2.178,2.202,4.295,2.202c1.058,0,2.418-0.313,4.078-0.938l0.758,6.604
	c-2.647,0.842-5.209,1.264-7.687,1.264c-4.259,0-7.254-1.299-8.986-3.897c-1.228-1.853-1.841-5.209-1.841-10.07V91.146z"/>
<path fill="#FFFFFF" d="M379.381,83.785c5.895,0,10.49,1.961,13.786,5.882c2.959,3.513,4.439,8.097,4.439,13.75
	c0,6.184-1.744,11.067-5.232,14.651c-3.225,3.345-7.64,5.018-13.246,5.018c-6.039,0-10.706-1.961-14.003-5.883
	c-2.959-3.512-4.438-8.107-4.438-13.786c0-6.184,1.744-11.067,5.232-14.652C369.167,85.444,373.655,83.785,379.381,83.785
	 M379.02,90.353c-3.44,0-6.003,1.648-7.687,4.944c-1.131,2.189-1.696,4.908-1.696,8.156c0,3.561,0.673,6.484,2.021,8.77
	c1.708,2.863,4.198,4.295,7.47,4.295c3.561,0,6.172-1.648,7.832-4.945c1.13-2.189,1.696-4.908,1.696-8.156
	c0-3.585-0.674-6.508-2.021-8.771C384.926,91.785,382.388,90.353,379.02,90.353"/>
<path fill="#FFFFFF" d="M465.49,94.611v25.263c-5.967,2.141-11.645,3.212-17.034,3.212c-7.699,0-13.727-2.13-18.081-6.388
	c-4.86-4.715-7.29-11.2-7.29-19.452c0-8.998,2.755-15.988,8.264-20.968c4.404-3.994,10.238-5.991,17.504-5.991
	c5.605,0,11.103,1.191,16.492,3.573l-2.922,7.109c-4.645-2.309-9.108-3.464-13.391-3.464c-5.653,0-9.9,1.973-12.739,5.918
	c-2.575,3.562-3.862,8.097-3.862,13.606c0,6.473,1.841,11.403,5.522,14.797c2.911,2.695,6.58,4.042,11.008,4.042
	c2.645,0,5.232-0.469,7.758-1.408v-12.631h-9.382v-7.218H465.49z"/>
<path fill="#FFFFFF" d="M477.941,122.256V71.117h12.307c4.234,0,7.579,0.289,10.033,0.866c3.562,0.843,6.291,2.743,8.193,5.702
	c1.587,2.455,2.381,5.378,2.381,8.771c0,5.534-2.009,9.66-6.027,12.379c-2.02,1.371-4.596,2.262-7.723,2.67
	c-1.709,0.217-3.742,0.325-6.1,0.325h-4.113v20.427H477.941z M486.747,94.828h2.889c3.992,0,6.819-0.409,8.479-1.227
	c2.406-1.179,3.61-3.477,3.61-6.893c0-3.225-1.095-5.546-3.285-6.965c-1.636-1.083-4.426-1.624-8.373-1.624h-3.32V94.828z"/>
<path fill="#FFFFFF" d="M70.711,177.638v13.457c-1.26,0.483-2.679,0.875-4.259,1.177c-1.58,0.301-3.047,0.452-4.399,0.452
	c-3.83,0-6.944-1.192-9.341-3.576c-2.679-2.651-4.018-6.214-4.018-10.686c0-4.675,1.346-8.404,4.038-11.189
	c2.451-2.544,5.598-3.817,9.442-3.817c2.664,0,5.443,0.67,8.336,2.009l-0.964,2.631c-2.505-1.284-4.996-1.928-7.473-1.928
	c-3.214,0-5.685,1.213-7.413,3.637c-1.646,2.33-2.47,5.203-2.47,8.617c0,3.897,1.125,6.924,3.375,9.079
	c1.753,1.675,4.024,2.511,6.809,2.511c1.648,0,3.328-0.301,5.042-0.903v-8.758h-5.604v-2.712H70.711z"/>
<path fill="#FFFFFF" d="M77.842,192.321v-28.464h5.504c3.428,0,5.912,0.502,7.452,1.507c2.196,1.419,3.295,3.684,3.295,6.789
	c0,2.036-0.536,3.73-1.607,5.082c-1.058,1.313-2.591,2.189-4.6,2.632c-1.313,0.294-2.953,0.442-4.922,0.442h-1.828v12.012H77.842z
	 M81.136,177.597h1.346c2.745,0,4.674-0.28,5.785-0.844c1.554-0.789,2.331-2.322,2.331-4.6c0-1.205-0.281-2.276-0.844-3.214
	c-0.67-1.111-1.701-1.802-3.094-2.069c-1.004-0.201-2.223-0.301-3.656-0.301h-1.868V177.597z"/>
<path fill="#FFFFFF" d="M109.059,192.321v-28.464h4.44c2.196,0,3.882,0.08,5.061,0.241c4.285,0.589,6.429,2.96,6.429,7.111
	c0,2.275-0.677,3.977-2.03,5.102c-0.843,0.696-2.088,1.199-3.736,1.506c4.365,0.496,6.549,2.807,6.549,6.932
	c0,3.133-1.212,5.31-3.636,6.527c-1.031,0.51-2.257,0.831-3.677,0.964c-0.562,0.054-1.814,0.081-3.755,0.081H109.059z
	 M112.353,176.612h1.486c2.705,0,4.554-0.281,5.545-0.843c1.407-0.804,2.109-2.19,2.109-4.159c0-2.088-0.657-3.495-1.968-4.218
	c-1.031-0.576-2.927-0.864-5.686-0.864h-1.486V176.612z M112.353,189.649h1.486c1.969,0,3.449-0.073,4.44-0.221
	c2.665-0.402,3.998-2.082,3.998-5.042c0-2.236-0.911-3.736-2.733-4.499c-1.125-0.483-3.026-0.723-5.705-0.723h-1.486V189.649z"/>
<path fill="#FFFFFF" d="M148.048,171.47v14.063c0.014,3.481,0.067,5.745,0.161,6.789h-3.094l-0.12-3.334
	c-0.737,0.79-1.467,1.446-2.19,1.968c-1.647,1.179-3.388,1.769-5.223,1.769c-2.584,0-4.358-0.965-5.323-2.894
	c-0.429-0.87-0.69-2.075-0.783-3.614c-0.054-0.898-0.08-1.795-0.08-2.692V171.47h3.133v12.113c0,2.104,0.147,3.569,0.442,4.399
	c0.509,1.487,1.668,2.229,3.475,2.229c2.209,0,4.366-1.299,6.468-3.896V171.47H148.048z"/>
<path fill="#FFFFFF" d="M153.653,191.297l0.944-2.471c1.915,0.924,3.602,1.386,5.062,1.386c1.057,0,1.975-0.288,2.752-0.864
	c0.83-0.614,1.246-1.499,1.246-2.65c0-0.925-0.275-1.627-0.824-2.109c-0.469-0.415-1.587-0.958-3.355-1.627
	c-1.406-0.549-2.397-1.011-2.972-1.387c-1.849-1.165-2.773-2.724-2.773-4.681c0-1.834,0.717-3.307,2.149-4.418
	c1.219-0.938,2.786-1.406,4.702-1.406c1.955,0,3.936,0.516,5.945,1.546l-0.944,2.471c-1.5-1.004-3.074-1.506-4.721-1.506
	c-1.071,0-1.948,0.228-2.631,0.683c-0.804,0.522-1.205,1.313-1.205,2.37c0,0.964,0.395,1.728,1.185,2.29
	c0.576,0.402,1.6,0.897,3.073,1.486c1.634,0.656,2.753,1.199,3.355,1.628c1.539,1.058,2.31,2.537,2.31,4.438
	c0,2.008-0.757,3.582-2.27,4.721c-1.34,1.018-3.027,1.526-5.062,1.526C157.65,192.723,155.662,192.248,153.653,191.297"/>
<path fill="#FFFFFF" d="M174.122,161.849c0.763,0,1.352,0.288,1.768,0.864c0.281,0.388,0.422,0.843,0.422,1.365
	c0,0.51-0.141,0.958-0.422,1.346c-0.416,0.576-1.018,0.864-1.809,0.864c-0.776,0-1.373-0.288-1.787-0.864
	c-0.281-0.388-0.421-0.836-0.421-1.346c0-0.522,0.14-0.978,0.421-1.365C172.708,162.137,173.319,161.849,174.122,161.849
	 M172.535,171.47h3.134v20.852h-3.134V171.47z"/>
<path fill="#FFFFFF" d="M182.82,192.321V178.26c-0.013-3.401-0.066-5.664-0.16-6.789h3.094l0.12,3.334
	c0.79-0.83,1.533-1.499,2.229-2.009c1.58-1.151,3.362-1.727,5.344-1.727c2.638,0,4.445,0.963,5.424,2.893
	c0.428,0.856,0.689,2.062,0.783,3.615c0.053,0.938,0.08,1.835,0.08,2.691v12.053H196.6v-12.113c0-2.089-0.147-3.555-0.441-4.398
	c-0.523-1.487-1.722-2.23-3.596-2.23c-2.264,0-4.467,1.301-6.609,3.897v14.845H182.82z"/>
<path fill="#FFFFFF" d="M208.452,182.739c0.227,2.33,0.763,4.065,1.607,5.203c1.151,1.514,2.853,2.27,5.103,2.27
	c1.915,0,3.816-0.655,5.704-1.969l1.206,2.432c-2.17,1.365-4.493,2.049-6.971,2.049c-3.294,0-5.832-1.078-7.613-3.235
	c-1.554-1.888-2.33-4.419-2.33-7.593c0-3.843,1.038-6.729,3.113-8.657c1.554-1.446,3.542-2.17,5.966-2.17
	c3.71,0,6.2,1.521,7.472,4.561c0.71,1.714,1.092,4.085,1.146,7.11H208.452z M219.52,180.229c-0.04-1.54-0.308-2.825-0.803-3.856
	c-0.897-1.861-2.425-2.793-4.58-2.793c-2.062,0-3.609,0.918-4.64,2.752c-0.59,1.059-0.912,2.357-0.964,3.897H219.52z"/>
<path fill="#FFFFFF" d="M226.792,191.297l0.944-2.471c1.915,0.924,3.602,1.386,5.062,1.386c1.057,0,1.975-0.288,2.752-0.864
	c0.83-0.614,1.246-1.499,1.246-2.65c0-0.925-0.275-1.627-0.824-2.109c-0.469-0.415-1.587-0.958-3.355-1.627
	c-1.406-0.549-2.397-1.011-2.972-1.387c-1.849-1.165-2.773-2.724-2.773-4.681c0-1.834,0.717-3.307,2.149-4.418
	c1.219-0.938,2.786-1.406,4.702-1.406c1.955,0,3.936,0.516,5.945,1.546l-0.944,2.471c-1.5-1.004-3.074-1.506-4.721-1.506
	c-1.071,0-1.948,0.228-2.631,0.683c-0.804,0.522-1.205,1.313-1.205,2.37c0,0.964,0.395,1.728,1.185,2.29
	c0.576,0.402,1.6,0.897,3.073,1.486c1.634,0.656,2.753,1.199,3.355,1.628c1.539,1.058,2.31,2.537,2.31,4.438
	c0,2.008-0.757,3.582-2.27,4.721c-1.34,1.018-3.027,1.526-5.062,1.526C230.79,192.723,228.802,192.248,226.792,191.297"/>
<path fill="#FFFFFF" d="M243.485,191.297l0.944-2.471c1.915,0.924,3.602,1.386,5.062,1.386c1.057,0,1.975-0.288,2.752-0.864
	c0.83-0.614,1.246-1.499,1.246-2.65c0-0.925-0.275-1.627-0.824-2.109c-0.469-0.415-1.587-0.958-3.355-1.627
	c-1.406-0.549-2.397-1.011-2.972-1.387c-1.849-1.165-2.773-2.724-2.773-4.681c0-1.834,0.717-3.307,2.149-4.418
	c1.219-0.938,2.786-1.406,4.702-1.406c1.955,0,3.936,0.516,5.945,1.546l-0.944,2.471c-1.5-1.004-3.074-1.506-4.721-1.506
	c-1.071,0-1.948,0.228-2.631,0.683c-0.804,0.522-1.205,1.313-1.205,2.37c0,0.964,0.395,1.728,1.185,2.29
	c0.576,0.402,1.6,0.897,3.073,1.486c1.634,0.656,2.753,1.199,3.355,1.628c1.539,1.058,2.31,2.537,2.31,4.438
	c0,2.008-0.757,3.582-2.27,4.721c-1.34,1.018-3.027,1.526-5.062,1.526C247.482,192.723,245.494,192.248,243.485,191.297"/>
<path fill="#FFFFFF" d="M291.415,188.505l0.823,2.631c-2.719,1.059-5.269,1.587-7.653,1.587c-3.911,0-7.058-1.259-9.441-3.775
	c-2.558-2.705-3.837-6.254-3.837-10.647c0-3.04,0.602-5.731,1.808-8.074c1.339-2.584,3.194-4.439,5.564-5.564
	c1.714-0.805,3.629-1.205,5.745-1.205c2.477,0,5.028,0.589,7.653,1.767l-1.064,2.632c-2.358-1.125-4.534-1.687-6.529-1.687
	c-3.133,0-5.531,1.185-7.191,3.555c-1.661,2.384-2.491,5.25-2.491,8.598c0,2.304,0.428,4.398,1.286,6.288
	c0.924,2.049,2.303,3.535,4.138,4.459c1.258,0.63,2.718,0.943,4.378,0.943C286.841,190.011,289.111,189.509,291.415,188.505"/>
<path fill="#FFFFFF" d="M304.954,171.068c2.959,0,5.35,1.146,7.171,3.436c1.54,1.929,2.311,4.392,2.311,7.392
	c0,3.229-0.892,5.832-2.672,7.814c-1.808,2.009-4.118,3.014-6.931,3.014c-3.04,0-5.471-1.145-7.292-3.436
	c-1.54-1.941-2.309-4.412-2.309-7.412c0-3.24,0.89-5.846,2.671-7.814C299.697,172.066,302.048,171.068,304.954,171.068
	 M304.752,173.579c-1.285,0-2.438,0.396-3.455,1.186c-1.848,1.446-2.773,3.824-2.773,7.131c0,2.29,0.483,4.18,1.447,5.665
	c1.152,1.769,2.772,2.651,4.861,2.651c2.264,0,3.964-1.024,5.103-3.073c0.803-1.419,1.205-3.174,1.205-5.263
	c0-2.29-0.483-4.172-1.447-5.646C308.542,174.464,306.896,173.579,304.752,173.579"/>
<path fill="#FFFFFF" d="M320.039,192.321V178.26c-0.013-3.401-0.066-5.664-0.16-6.789h3.094l0.12,3.334
	c0.79-0.83,1.533-1.499,2.229-2.009c1.58-1.151,3.362-1.727,5.344-1.727c2.638,0,4.445,0.963,5.424,2.893
	c0.428,0.856,0.689,2.062,0.783,3.615c0.053,0.938,0.08,1.835,0.08,2.691v12.053h-3.134v-12.113c0-2.089-0.147-3.555-0.441-4.398
	c-0.523-1.487-1.722-2.23-3.596-2.23c-2.264,0-4.467,1.301-6.609,3.897v14.845H320.039z"/>
<path fill="#FFFFFF" d="M345.068,192.321v-18.34h-3.374v-2.511h3.374v-1.988c0-2.451,0.342-4.231,1.024-5.344
	c0.938-1.526,2.525-2.29,4.761-2.29c0.911,0,1.889,0.134,2.934,0.402l-0.281,2.711c-0.738-0.401-1.535-0.603-2.391-0.603
	c-1.326,0-2.184,0.629-2.571,1.888c-0.228,0.737-0.342,1.902-0.342,3.495v1.729h4.922v2.511h-4.922v18.34H345.068z"/>
<path fill="#FFFFFF" d="M358.788,182.739c0.227,2.33,0.763,4.065,1.607,5.203c1.151,1.514,2.853,2.27,5.103,2.27
	c1.915,0,3.816-0.655,5.704-1.969l1.206,2.432c-2.17,1.365-4.493,2.049-6.971,2.049c-3.294,0-5.832-1.078-7.613-3.235
	c-1.554-1.888-2.33-4.419-2.33-7.593c0-3.843,1.038-6.729,3.113-8.657c1.554-1.446,3.542-2.17,5.966-2.17
	c3.71,0,6.2,1.521,7.472,4.561c0.71,1.714,1.092,4.085,1.146,7.11H358.788z M369.856,180.229c-0.04-1.54-0.308-2.825-0.803-3.856
	c-0.897-1.861-2.425-2.793-4.58-2.793c-2.062,0-3.609,0.918-4.64,2.752c-0.59,1.059-0.912,2.357-0.964,3.897H369.856z"/>
<path fill="#FFFFFF" d="M378.736,192.321V180.43c0-2.732-0.041-5.397-0.121-7.995l-0.02-0.964h2.912l0.122,3.837
	c0.695-1.286,1.446-2.277,2.249-2.973c0.964-0.845,2.17-1.266,3.616-1.266c0.429,0,0.91,0.046,1.446,0.141l-0.281,2.812
	c-0.375-0.08-0.736-0.12-1.085-0.12c-1.554,0-2.919,0.77-4.098,2.311c-0.656,0.883-1.192,1.854-1.607,2.911v13.198H378.736z"/>
<path fill="#FFFFFF" d="M394.284,182.739c0.227,2.33,0.763,4.065,1.607,5.203c1.151,1.514,2.853,2.27,5.103,2.27
	c1.915,0,3.816-0.655,5.704-1.969l1.206,2.432c-2.17,1.365-4.493,2.049-6.971,2.049c-3.294,0-5.832-1.078-7.613-3.235
	c-1.554-1.888-2.33-4.419-2.33-7.593c0-3.843,1.038-6.729,3.113-8.657c1.554-1.446,3.542-2.17,5.966-2.17
	c3.71,0,6.2,1.521,7.472,4.561c0.71,1.714,1.092,4.085,1.146,7.11H394.284z M405.352,180.229c-0.04-1.54-0.308-2.825-0.803-3.856
	c-0.897-1.861-2.425-2.793-4.58-2.793c-2.062,0-3.609,0.918-4.64,2.752c-0.59,1.059-0.912,2.357-0.964,3.897H405.352z"/>
<path fill="#FFFFFF" d="M414.191,192.321V178.26c-0.013-3.401-0.066-5.664-0.16-6.789h3.094l0.12,3.334
	c0.79-0.83,1.533-1.499,2.229-2.009c1.58-1.151,3.362-1.727,5.344-1.727c2.638,0,4.445,0.963,5.424,2.893
	c0.428,0.856,0.689,2.062,0.783,3.615c0.053,0.938,0.08,1.835,0.08,2.691v12.053h-3.134v-12.113c0-2.089-0.147-3.555-0.441-4.398
	c-0.523-1.487-1.722-2.23-3.596-2.23c-2.264,0-4.467,1.301-6.609,3.897v14.845H414.191z"/>
<path fill="#FFFFFF" d="M451.374,188.364l1.205,2.43c-1.888,1.286-3.997,1.93-6.327,1.93c-3,0-5.351-0.917-7.051-2.752
	c-1.781-1.93-2.672-4.553-2.672-7.875c0-3.655,0.945-6.469,2.832-8.437c1.648-1.728,3.851-2.591,6.61-2.591
	c2.155,0,4.231,0.555,6.226,1.667l-1.184,2.47c-1.688-1.084-3.375-1.627-5.063-1.627c-2.035,0-3.568,0.737-4.599,2.21
	c-1.019,1.46-1.528,3.429-1.528,5.906c0,2.665,0.603,4.788,1.809,6.367c1.111,1.433,2.664,2.149,4.66,2.149
	C448.06,190.212,449.754,189.597,451.374,188.364"/>
<path fill="#FFFFFF" d="M458.787,182.739c0.227,2.33,0.763,4.065,1.606,5.203c1.151,1.514,2.854,2.27,5.104,2.27
	c1.915,0,3.815-0.655,5.704-1.969l1.205,2.432c-2.17,1.365-4.492,2.049-6.971,2.049c-3.294,0-5.832-1.078-7.613-3.235
	c-1.554-1.888-2.33-4.419-2.33-7.593c0-3.843,1.038-6.729,3.113-8.657c1.555-1.446,3.542-2.17,5.966-2.17
	c3.71,0,6.2,1.521,7.473,4.561c0.71,1.714,1.092,4.085,1.146,7.11H458.787z M469.854,180.229c-0.04-1.54-0.308-2.825-0.803-3.856
	c-0.897-1.861-2.425-2.793-4.58-2.793c-2.062,0-3.609,0.918-4.64,2.752c-0.59,1.059-0.912,2.357-0.965,3.897H469.854z"/>
<path fill="#FFFFFF" d="M507.741,188.505l0.823,2.631c-2.719,1.059-5.27,1.587-7.653,1.587c-3.911,0-7.058-1.259-9.44-3.775
	c-2.559-2.705-3.837-6.254-3.837-10.647c0-3.04,0.602-5.731,1.808-8.074c1.339-2.584,3.194-4.439,5.564-5.564
	c1.714-0.805,3.629-1.205,5.744-1.205c2.478,0,5.028,0.589,7.653,1.767l-1.063,2.632c-2.358-1.125-4.534-1.687-6.529-1.687
	c-3.133,0-5.531,1.185-7.191,3.555c-1.661,2.384-2.49,5.25-2.49,8.598c0,2.304,0.428,4.398,1.285,6.288
	c0.925,2.049,2.304,3.535,4.139,4.459c1.258,0.63,2.718,0.943,4.378,0.943C503.167,190.011,505.437,189.509,507.741,188.505"/>
<path fill="#FFFFFF" d="M513.124,192.321v-30.07h3.134v12.453c2.29-2.424,4.788-3.635,7.493-3.635c2.624,0,4.434,0.963,5.424,2.893
	c0.429,0.856,0.689,2.062,0.783,3.615c0.054,0.938,0.08,1.835,0.08,2.691v12.053h-3.134v-12.113c0-2.089-0.147-3.555-0.441-4.398
	c-0.51-1.487-1.708-2.23-3.596-2.23c-2.277,0-4.479,1.301-6.609,3.897v14.845H513.124z"/>
<path fill="#FFFFFF" d="M538.615,161.849c0.764,0,1.353,0.288,1.769,0.864c0.282,0.388,0.422,0.843,0.422,1.365
	c0,0.51-0.14,0.958-0.422,1.346c-0.416,0.576-1.019,0.864-1.808,0.864c-0.777,0-1.373-0.288-1.787-0.864
	c-0.282-0.388-0.422-0.836-0.422-1.346c0-0.522,0.14-0.978,0.422-1.365C537.203,162.137,537.812,161.849,538.615,161.849
	 M537.028,171.47h3.135v20.852h-3.135V171.47z"/>
<path fill="#FFFFFF" d="M547.313,192.321V178.26c-0.013-3.401-0.065-5.664-0.16-6.789h3.095l0.119,3.334
	c0.791-0.83,1.533-1.499,2.229-2.009c1.58-1.151,3.362-1.727,5.344-1.727c2.639,0,4.445,0.963,5.424,2.893
	c0.429,0.856,0.689,2.062,0.783,3.615c0.054,0.938,0.08,1.835,0.08,2.691v12.053h-3.134v-12.113c0-2.089-0.147-3.555-0.441-4.398
	c-0.522-1.487-1.722-2.23-3.596-2.23c-2.264,0-4.467,1.301-6.609,3.897v14.845H547.313z"/>
<path fill="#FFFFFF" d="M582.266,189.891c-0.71,0.763-1.393,1.347-2.049,1.747c-1.206,0.725-2.599,1.085-4.178,1.085
	c-2.184,0-3.851-0.614-5.003-1.848c-1.018-1.085-1.526-2.517-1.526-4.299c0-2.759,1.159-4.714,3.476-5.865
	c1.353-0.683,3.36-1.025,6.025-1.025c0.55,0,1.554,0.028,3.014,0.081v-0.563c0-1.514-0.193-2.664-0.583-3.455
	c-0.696-1.446-2.075-2.169-4.138-2.169c-1.688,0-3.482,0.602-5.383,1.807l-1.366-2.249c2.183-1.379,4.546-2.068,7.091-2.068
	c3.16,0,5.323,0.943,6.488,2.832c0.549,0.897,0.87,2.183,0.964,3.856c0.04,0.589,0.061,1.44,0.061,2.551v6.811
	c-0.014,2.009,0.04,3.743,0.16,5.202h-2.912L582.266,189.891z M582.025,182.157c-0.735-0.054-1.521-0.08-2.351-0.08
	c-2.223,0-3.843,0.295-4.861,0.884c-1.339,0.763-2.009,1.942-2.009,3.535c0,1.125,0.335,2.021,1.005,2.691
	c0.696,0.684,1.627,1.024,2.792,1.024c2.183,0,3.99-1.064,5.424-3.194V182.157z"/>
<path fill="#FFFFFF" d="M601.671,192.321v-2.873c4.353-3.91,7.525-6.99,9.521-9.24c1.794-2.035,3.066-3.775,3.816-5.222
	c0.71-1.407,1.064-2.739,1.064-3.998c0-1.433-0.529-2.584-1.587-3.455c-1.165-0.964-2.685-1.446-4.56-1.446
	c-2.143,0-4.346,0.703-6.609,2.109l-0.823-2.812c2.625-1.286,5.237-1.93,7.834-1.93c2.544,0,4.634,0.563,6.269,1.688
	c1.875,1.272,2.812,3.153,2.812,5.645c0,1.875-0.543,3.736-1.627,5.584c-1.272,2.21-3.756,5.163-7.453,8.859
	c-1.42,1.42-2.986,2.88-4.7,4.379h14.022v2.712H601.671z"/>
<path fill="#FFFFFF" d="M634.735,163.456c6.428,0,9.643,4.875,9.643,14.623c0,4.366-0.615,7.721-1.849,10.064
	c-1.62,3.053-4.265,4.58-7.934,4.58c-3.991,0-6.771-1.795-8.336-5.384c-0.979-2.25-1.468-5.343-1.468-9.28
	c0-4.352,0.616-7.693,1.849-10.023C628.261,164.981,630.958,163.456,634.735,163.456 M634.494,166.167
	c-1.365,0-2.563,0.449-3.596,1.347c-1.848,1.606-2.771,5.135-2.771,10.586c0,3.991,0.462,6.89,1.387,8.698
	c1.085,2.142,2.777,3.214,5.082,3.214c2.49,0,4.265-1.267,5.322-3.797c0.75-1.769,1.125-4.486,1.125-8.155
	c0-3.991-0.462-6.884-1.386-8.678C638.572,167.238,636.851,166.167,634.494,166.167"/>
<polygon fill="#FFFFFF" points="657.997,192.321 657.997,167.433 652.191,171.13 650.806,168.618 658.318,163.857 661.17,163.857 
	661.17,192.321 "/>
<path fill="#FFFFFF" d="M674.548,192.683l0.16-2.672c0.67,0.055,1.232,0.081,1.688,0.081c3.844,0,6.716-1.413,8.618-4.239
	c1.272-1.873,2.089-4.312,2.45-7.312c-1.741,2.197-4.024,3.295-6.85,3.295c-1.768,0-3.367-0.469-4.801-1.407
	c-2.384-1.565-3.576-4.076-3.576-7.531c0-2.826,0.877-5.109,2.633-6.851c1.754-1.728,4.004-2.591,6.749-2.591
	c2.356,0,4.305,0.609,5.845,1.827c2.384,1.888,3.576,5.196,3.576,9.924c0,4.057-0.784,7.586-2.351,10.586
	c-1.46,2.759-3.447,4.681-5.966,5.765c-1.821,0.777-3.951,1.166-6.389,1.166C676.083,192.724,675.485,192.71,674.548,192.683
	 M681.478,166.087c-1.741,0-3.16,0.583-4.258,1.748s-1.646,2.771-1.646,4.821c0,1.981,0.509,3.555,1.525,4.72
	c1.085,1.219,2.531,1.828,4.339,1.828c1.835,0,3.314-0.602,4.439-1.809c1.112-1.164,1.667-2.765,1.667-4.801
	c0-2.021-0.548-3.608-1.646-4.76C684.787,166.67,683.313,166.087,681.478,166.087"/>
</svg>
