<?xml version="1.0" encoding="utf-8"?>
<!-- Generator: Adobe Illustrator 16.0.0, SVG Export Plug-In . SVG Version: 6.00 Build 0)  -->
<!DOCTYPE svg PUBLIC "-//W3C//DTD SVG 1.1//EN" "http://www.w3.org/Graphics/SVG/1.1/DTD/svg11.dtd">
<svg version="1.1" id="图层_1" xmlns="http://www.w3.org/2000/svg" xmlns:xlink="http://www.w3.org/1999/xlink" x="0px" y="0px"
	 width="245.015px" height="222.316px" viewBox="0 0 245.015 222.316" enable-background="new 0 0 245.015 222.316"
	 xml:space="preserve">
<path fill="#FFFFFF" d="M27.183,128.6h4.238v14.338c0,2.53,0.336,4.25,1.009,5.162c0.831,1.127,2.21,1.69,4.136,1.69
	c2.164,0,3.651-0.666,4.461-1.998c0.558-0.911,0.837-2.449,0.837-4.614V128.6h4.085v13.467c0,2.689-0.098,4.489-0.291,5.4
	c-0.82,3.827-3.856,5.741-9.109,5.741c-4.021,0-6.756-1.161-8.203-3.485c-0.638-1.024-1.002-2.472-1.094-4.341
	c-0.046-0.865-0.068-1.971-0.068-3.315V128.6z"/>
<path fill="#FFFFFF" d="M49.804,160.335v-18.201c0-2.881-0.052-5.269-0.154-7.159h3.914l0.138,2.461
	c1.525-1.903,3.331-2.854,5.415-2.854c2.291,0,4.074,0.911,5.35,2.734c1.22,1.721,1.829,3.902,1.829,6.546
	c0,2.917-0.707,5.252-2.119,7.006c-1.266,1.562-2.956,2.343-5.075,2.343c-2.131,0-3.869-0.89-5.213-2.666v9.791H49.804z
	 M53.888,146.989c1.265,2.051,2.677,3.076,4.238,3.076c1.299,0,2.29-0.632,2.974-1.897c0.638-1.184,0.957-2.637,0.957-4.357
	c0-1.766-0.348-3.225-1.042-4.375c-0.695-1.139-1.692-1.709-2.991-1.709c-1.538,0-2.917,0.979-4.136,2.939V146.989z"/>
<rect x="68.989" y="127.233" fill="#FFFFFF" width="4.084" height="25.583"/>
<path fill="#FFFFFF" d="M84.637,134.582c2.791,0,4.967,0.929,6.527,2.785c1.402,1.676,2.103,3.852,2.103,6.529
	c0,2.928-0.826,5.24-2.478,6.938c-1.539,1.584-3.63,2.377-6.272,2.377c-2.86,0-5.071-0.93-6.631-2.787
	c-1.401-1.674-2.103-3.856-2.103-6.545c0-2.928,0.826-5.234,2.479-6.922C79.788,135.375,81.913,134.582,84.637,134.582
	 M84.465,137.692c-1.629,0-2.843,0.781-3.64,2.341c-0.536,1.037-0.804,2.325-0.804,3.863c0,1.686,0.319,3.076,0.957,4.17
	c0.81,1.355,1.994,2.033,3.555,2.033c1.676,0,2.906-0.78,3.691-2.342c0.536-1.036,0.803-2.323,0.803-3.861
	c0-1.698-0.318-3.088-0.957-4.17C87.262,138.371,86.061,137.692,84.465,137.692"/>
<path fill="#FFFFFF" d="M105.701,150.783c-0.615,0.649-1.202,1.146-1.761,1.487c-1.059,0.626-2.307,0.938-3.742,0.938
	c-1.846,0-3.264-0.488-4.256-1.469c-1.002-0.969-1.504-2.279-1.504-3.931c0-2.233,0.906-3.873,2.718-4.922
	c1.139-0.66,2.934-0.991,5.384-0.991c0.717,0,1.697,0.034,2.939,0.104v-0.326c0-2.711-1.316-4.067-3.948-4.067
	c-1.481,0-3.088,0.496-4.819,1.487l-1.094-2.939c2.039-1.048,4.188-1.572,6.443-1.572c2.882,0,4.944,0.774,6.186,2.324
	c0.639,0.809,1.043,1.897,1.214,3.264c0.068,0.615,0.103,1.539,0.103,2.769v5.332c0,1.892,0.057,3.407,0.171,4.546h-3.88
	L105.701,150.783z M105.479,144.562c-0.684-0.057-1.299-0.085-1.846-0.085c-3.305,0-4.957,1.082-4.957,3.247
	c0,0.763,0.233,1.396,0.7,1.896c0.502,0.535,1.186,0.803,2.052,0.803c1.571,0,2.922-0.832,4.051-2.494V144.562z"/>
<path fill="#FFFFFF" d="M124.698,127.233h4.084v19.295c0,2.632,0.051,4.728,0.154,6.289h-3.914l-0.138-2.548
	c-0.581,0.787-1.144,1.386-1.69,1.795c-1.025,0.764-2.263,1.146-3.709,1.146c-2.313,0-4.113-0.923-5.4-2.769
	c-1.197-1.709-1.795-3.896-1.795-6.563c0-2.904,0.707-5.229,2.119-6.973c1.266-1.549,2.957-2.324,5.076-2.324
	c2.107,0,3.846,0.883,5.213,2.649V127.233z M124.698,140.683c-1.129-1.972-2.507-2.957-4.137-2.957c-1.3,0-2.296,0.569-2.99,1.709
	c-0.695,1.15-1.043,2.609-1.043,4.375c0,1.721,0.319,3.174,0.957,4.357c0.684,1.266,1.676,1.896,2.975,1.896
	c1.583,0,2.996-1.024,4.238-3.075V140.683z"/>
<path fill="#FFFFFF" d="M145.517,152.816V142.46l-8.887-13.859h4.939l4.478,7.108c0.523,0.843,1.1,1.853,1.726,3.024
	c0.627-1.195,1.208-2.222,1.744-3.075l4.426-7.058h4.648l-8.836,13.859v10.355H145.517z"/>
<path fill="#FFFFFF" d="M167.044,134.582c2.791,0,4.967,0.929,6.527,2.785c1.402,1.676,2.103,3.852,2.103,6.529
	c0,2.928-0.826,5.24-2.478,6.938c-1.539,1.584-3.63,2.377-6.272,2.377c-2.86,0-5.07-0.93-6.631-2.787
	c-1.401-1.674-2.103-3.856-2.103-6.545c0-2.928,0.826-5.234,2.479-6.922C162.195,135.375,164.32,134.582,167.044,134.582
	 M166.872,137.692c-1.629,0-2.843,0.781-3.64,2.341c-0.536,1.037-0.804,2.325-0.804,3.863c0,1.686,0.319,3.076,0.957,4.17
	c0.81,1.355,1.994,2.033,3.555,2.033c1.676,0,2.906-0.78,3.691-2.342c0.536-1.036,0.804-2.323,0.804-3.861
	c0-1.698-0.319-3.088-0.957-4.17C169.669,138.371,168.468,137.692,166.872,137.692"/>
<path fill="#FFFFFF" d="M193.851,134.974v11.57c0,2.131,0.052,4.221,0.153,6.272h-3.845l-0.137-2.632
	c-0.649,0.684-1.265,1.235-1.846,1.658c-1.276,0.91-2.734,1.366-4.375,1.366c-2.313,0-3.908-0.838-4.785-2.512
	c-0.513-0.979-0.769-2.644-0.769-4.991v-10.732h4.084v10.527c0,1.426,0.113,2.434,0.342,3.025c0.398,1.025,1.219,1.537,2.461,1.537
	c1.629,0,3.173-1.008,4.631-3.024v-12.065H193.851z"/>
<path fill="#FFFFFF" d="M197.928,152.816v-11.125c0-2.244-0.051-4.482-0.153-6.717h3.845l0.137,3.351
	c1.061-2.427,2.633-3.64,4.717-3.64c0.49,0,1.009,0.067,1.556,0.204l-0.239,3.623c-0.524-0.114-0.991-0.171-1.401-0.171
	c-1.276,0-2.358,0.581-3.247,1.743c-0.49,0.638-0.871,1.424-1.145,2.358v10.373H197.928z"/>
<path fill="#FFFFFF" d="M27.388,194.816v-24.217h5.828c2.005,0,3.589,0.137,4.751,0.411c1.686,0.41,2.979,1.31,3.88,2.701
	c0.752,1.161,1.127,2.552,1.127,4.17c0,2.608-0.951,4.562-2.853,5.86c-1.392,0.936-3.573,1.401-6.546,1.401h-1.949v9.673H27.388z
	 M31.558,181.828h1.367c1.892,0,3.23-0.192,4.017-0.58c1.139-0.559,1.709-1.647,1.709-3.266c0-1.525-0.519-2.625-1.556-3.298
	c-0.774-0.512-2.096-0.769-3.965-0.769h-1.572V181.828z"/>
<path fill="#FFFFFF" d="M44.813,194.816v-25.584h4.084v10.117c1.8-1.845,3.828-2.767,6.084-2.767c2.347,0,3.965,0.837,4.853,2.511
	c0.524,0.98,0.787,2.645,0.787,4.991v10.731h-4.085V184.29c0-1.425-0.113-2.433-0.342-3.026c-0.41-1.025-1.264-1.537-2.563-1.537
	c-1.664,0-3.236,1.008-4.717,3.025v12.064H44.813z"/>
<path fill="#FFFFFF" d="M72.048,176.583c2.791,0,4.967,0.928,6.527,2.784c1.402,1.676,2.103,3.852,2.103,6.529
	c0,2.928-0.826,5.24-2.478,6.938c-1.539,1.584-3.63,2.375-6.272,2.375c-2.86,0-5.07-0.929-6.631-2.786
	c-1.401-1.674-2.103-3.855-2.103-6.545c0-2.928,0.826-5.234,2.479-6.921C67.199,177.375,69.324,176.583,72.048,176.583
	 M71.876,179.691c-1.629,0-2.843,0.781-3.64,2.342c-0.536,1.037-0.804,2.324-0.804,3.863c0,1.687,0.319,3.075,0.957,4.17
	c0.81,1.355,1.994,2.033,3.555,2.033c1.676,0,2.906-0.779,3.691-2.342c0.536-1.036,0.804-2.324,0.804-3.861
	c0-1.697-0.319-3.088-0.957-4.17C74.673,180.371,73.472,179.691,71.876,179.691"/>
<path fill="#FFFFFF" d="M84.346,180.085h-2.871v-3.11h2.871v-3.879l4.084-0.787v4.666h4.067v3.11H88.43v8.287
	c0,1.209,0.119,2.047,0.359,2.514c0.353,0.695,1.03,1.042,2.033,1.042c0.489,0,1.134-0.148,1.932-0.444l0.358,3.127
	c-1.254,0.399-2.467,0.598-3.64,0.598c-2.018,0-3.436-0.614-4.256-1.846c-0.581-0.877-0.871-2.465-0.871-4.767V180.085z"/>
<path fill="#FFFFFF" d="M102.215,176.583c2.791,0,4.967,0.928,6.527,2.784c1.402,1.676,2.103,3.852,2.103,6.529
	c0,2.928-0.826,5.24-2.478,6.938c-1.539,1.584-3.63,2.375-6.272,2.375c-2.86,0-5.071-0.929-6.631-2.786
	c-1.401-1.674-2.103-3.855-2.103-6.545c0-2.928,0.826-5.234,2.479-6.921C97.366,177.375,99.491,176.583,102.215,176.583
	 M102.043,179.691c-1.629,0-2.843,0.781-3.64,2.342c-0.536,1.037-0.804,2.324-0.804,3.863c0,1.687,0.319,3.075,0.957,4.17
	c0.81,1.355,1.994,2.033,3.555,2.033c1.676,0,2.906-0.779,3.691-2.342c0.536-1.036,0.803-2.324,0.803-3.861
	c0-1.697-0.318-3.088-0.957-4.17C104.84,180.371,103.639,179.691,102.043,179.691"/>
<path fill="#FFFFFF" d="M193.394,78.273c-1.183-2.797-2.88-5.313-5.037-7.469c-2.156-2.157-4.672-3.856-7.47-5.037
	c-0.805-0.341-1.628-0.634-2.462-0.881c3.396-2.198,5.653-6.024,5.653-10.367c0-6.806-5.536-12.342-12.342-12.342
	c-1.877,0-3.65,0.434-5.245,1.187c-2.002,0.945-3.716,2.403-4.954,4.217c-1.351,1.979-2.142,4.367-2.142,6.938
	c0,2.562,0.8,4.933,2.142,6.907c0.933,1.372,2.118,2.558,3.512,3.46c-0.835,0.247-1.657,0.54-2.463,0.881
	c-2.139,0.903-4.109,2.114-5.885,3.596c-0.546,0.456-1.077,0.933-1.585,1.441c-2.157,2.156-3.854,4.672-5.036,7.469
	c-1.229,2.898-1.846,5.977-1.846,9.151c0,0.81,0.658,1.469,1.47,1.469c0.811,0,1.469-0.659,1.469-1.469
	c0-5.495,2.14-10.661,6.024-14.546c3.885-3.884,9.05-6.024,14.545-6.024s10.661,2.14,14.546,6.024
	c3.884,3.885,6.023,9.051,6.023,14.546c0,0.81,0.658,1.469,1.47,1.469c0.811,0,1.469-0.659,1.469-1.469
	C195.238,84.25,194.615,81.171,193.394,78.273 M171.73,63.916c-1.946,0-3.756-0.595-5.258-1.612
	c-2.499-1.693-4.145-4.554-4.145-7.791c0-3.245,1.654-6.112,4.163-7.803c1.498-1.009,3.301-1.6,5.239-1.6
	c5.184,0,9.403,4.22,9.403,9.403C181.134,59.697,176.914,63.916,171.73,63.916"/>
<path fill="none" stroke="#FFFFFF" stroke-width="4" stroke-miterlimit="10" d="M193.394,78.273
	c-1.183-2.797-2.88-5.313-5.037-7.469c-2.156-2.157-4.672-3.856-7.47-5.037c-0.805-0.341-1.628-0.634-2.462-0.881
	c3.396-2.198,5.653-6.024,5.653-10.367c0-6.806-5.536-12.342-12.342-12.342c-1.877,0-3.65,0.434-5.245,1.187
	c-2.002,0.945-3.716,2.403-4.954,4.217c-1.351,1.979-2.142,4.367-2.142,6.938c0,2.562,0.8,4.933,2.142,6.907
	c0.933,1.372,2.118,2.558,3.512,3.46c-0.835,0.247-1.657,0.54-2.463,0.881c-2.139,0.903-4.109,2.114-5.885,3.596
	c-0.546,0.456-1.077,0.933-1.585,1.441c-2.157,2.156-3.854,4.672-5.036,7.469c-1.229,2.898-1.846,5.977-1.846,9.151
	c0,0.81,0.658,1.469,1.47,1.469c0.811,0,1.469-0.659,1.469-1.469c0-5.495,2.14-10.661,6.024-14.546
	c3.885-3.884,9.05-6.024,14.545-6.024s10.661,2.14,14.546,6.024c3.884,3.885,6.023,9.051,6.023,14.546
	c0,0.81,0.658,1.469,1.47,1.469c0.811,0,1.469-0.659,1.469-1.469C195.238,84.25,194.615,81.171,193.394,78.273z M171.73,63.916
	c-1.946,0-3.756-0.595-5.258-1.612c-2.499-1.693-4.145-4.554-4.145-7.791c0-3.245,1.654-6.112,4.163-7.803
	c1.498-1.009,3.301-1.6,5.239-1.6c5.184,0,9.403,4.22,9.403,9.403C181.134,59.697,176.914,63.916,171.73,63.916z"/>
<path fill="none" stroke="#FFFFFF" stroke-width="4" stroke-linecap="round" stroke-miterlimit="10" d="M153.222,29.032h-15.603
	c-5.61,0-10.158,4.548-10.158,10.158v11.181"/>
<path fill="none" stroke="#FFFFFF" stroke-width="4" stroke-linecap="round" stroke-miterlimit="10" d="M190.264,29.032h15.603
	c5.61,0,10.158,4.548,10.158,10.158v11.181"/>
<path fill="none" stroke="#FFFFFF" stroke-width="4" stroke-linecap="round" stroke-miterlimit="10" d="M153.222,102.844h-15.603
	c-5.61,0-10.158-4.548-10.158-10.158V81.505"/>
<path fill="none" stroke="#FFFFFF" stroke-width="4" stroke-linecap="round" stroke-miterlimit="10" d="M190.264,102.844h15.603
	c5.61,0,10.158-4.548,10.158-10.158V81.505"/>
</svg>
