<?xml version="1.0" encoding="utf-8"?>
<!-- Generator: Adobe Illustrator 16.0.0, SVG Export Plug-In . SVG Version: 6.00 Build 0)  -->
<!DOCTYPE svg PUBLIC "-//W3C//DTD SVG 1.1//EN" "http://www.w3.org/Graphics/SVG/1.1/DTD/svg11.dtd">
<svg version="1.1" id="图层_1" xmlns="http://www.w3.org/2000/svg" xmlns:xlink="http://www.w3.org/1999/xlink" x="0px" y="0px"
	 width="245.015px" height="222.316px" viewBox="0 0 245.015 222.316" enable-background="new 0 0 245.015 222.316"
	 xml:space="preserve">
<path fill="#FFFFFF" d="M45.314,146.105l1.179,3.418c-1.037,0.467-1.898,0.797-2.581,0.99c-1.39,0.41-2.916,0.615-4.58,0.615
	c-3.623,0-6.466-1.043-8.528-3.127c-2.211-2.232-3.315-5.299-3.315-9.195c0-4.385,1.339-7.758,4.016-10.117
	c1.959-1.709,4.495-2.563,7.605-2.563c2.335,0,4.711,0.541,7.126,1.625l-1.401,3.297c-1.982-1.002-3.823-1.504-5.52-1.504
	c-2.382,0-4.204,0.85-5.469,2.547c-1.288,1.754-1.93,3.959-1.93,6.613c0,3.121,0.847,5.498,2.545,7.127
	c1.299,1.252,2.98,1.879,5.042,1.879c1.288,0,2.506-0.209,3.657-0.633C43.708,146.884,44.425,146.56,45.314,146.105"/>
<path fill="#FFFFFF" d="M57.533,132.501c2.791,0,4.967,0.928,6.527,2.785c1.403,1.674,2.103,3.852,2.103,6.527
	c0,2.93-0.826,5.242-2.478,6.939c-1.539,1.584-3.63,2.375-6.272,2.375c-2.861,0-5.071-0.928-6.631-2.785
	c-1.401-1.676-2.103-3.857-2.103-6.545c0-2.928,0.827-5.236,2.479-6.922C52.684,133.292,54.809,132.501,57.533,132.501
	 M57.361,135.611c-1.629,0-2.843,0.781-3.64,2.342c-0.536,1.037-0.803,2.324-0.803,3.861c0,1.688,0.319,3.076,0.957,4.17
	c0.809,1.355,1.994,2.035,3.554,2.035c1.676,0,2.907-0.781,3.692-2.342c0.536-1.037,0.803-2.324,0.803-3.863
	c0-1.697-0.319-3.086-0.957-4.17C60.158,136.289,58.958,135.611,57.361,135.611"/>
<path fill="#FFFFFF" d="M70.641,150.736v-11.588c0-1.777-0.034-3.457-0.103-5.041l-0.05-1.213h3.844l0.137,2.631
	c0.604-0.672,1.191-1.219,1.761-1.641c1.219-0.922,2.602-1.383,4.152-1.383c2.461,0,4.073,1.088,4.836,3.264
	c0.684-0.797,1.327-1.43,1.932-1.896c1.196-0.912,2.569-1.367,4.119-1.367c2.221,0,3.753,0.836,4.597,2.512
	c0.501,0.99,0.752,2.654,0.752,4.99v10.732h-4.085v-10.527c0-1.436-0.102-2.443-0.307-3.025c-0.377-1.025-1.146-1.537-2.308-1.537
	c-1.504,0-2.923,1.008-4.255,3.023v12.066h-4.084v-10.939c0-1.273-0.137-2.209-0.411-2.801c-0.399-0.9-1.099-1.35-2.102-1.35
	c-1.515,0-2.962,1.008-4.34,3.023v12.066H70.641z"/>
<path fill="#FFFFFF" d="M102.274,150.736v-11.588c0-1.777-0.034-3.457-0.103-5.041l-0.05-1.213h3.844l0.137,2.631
	c0.604-0.672,1.191-1.219,1.761-1.641c1.219-0.922,2.602-1.383,4.152-1.383c2.461,0,4.073,1.088,4.836,3.264
	c0.684-0.797,1.327-1.43,1.932-1.896c1.196-0.912,2.569-1.367,4.119-1.367c2.221,0,3.753,0.836,4.598,2.512
	c0.5,0.99,0.752,2.654,0.752,4.99v10.732h-4.086v-10.527c0-1.436-0.102-2.443-0.307-3.025c-0.377-1.025-1.146-1.537-2.309-1.537
	c-1.503,0-2.922,1.008-4.254,3.023v12.066h-4.084v-10.939c0-1.273-0.137-2.209-0.411-2.801c-0.399-0.9-1.099-1.35-2.102-1.35
	c-1.515,0-2.962,1.008-4.34,3.023v12.066H102.274z"/>
<path fill="#FFFFFF" d="M135.958,124.572c0.786,0,1.424,0.279,1.914,0.836c0.399,0.469,0.599,1.037,0.599,1.709
	c0,0.662-0.199,1.227-0.599,1.693c-0.49,0.568-1.14,0.854-1.948,0.854c-0.811,0-1.459-0.285-1.947-0.854
	c-0.4-0.457-0.6-1.02-0.6-1.693c0-0.684,0.199-1.252,0.6-1.709C134.477,124.851,135.138,124.572,135.958,124.572 M133.855,132.894
	h4.086v17.842h-4.086V132.894z"/>
<path fill="#FFFFFF" d="M144.641,136.003h-2.871v-3.109h2.871v-3.879l4.084-0.787v4.666h4.066v3.109h-4.066v8.289
	c0,1.209,0.119,2.045,0.359,2.512c0.353,0.695,1.031,1.043,2.033,1.043c0.489,0,1.133-0.148,1.932-0.443l0.359,3.127
	c-1.254,0.398-2.468,0.598-3.641,0.598c-2.018,0-3.436-0.615-4.256-1.846c-0.581-0.877-0.871-2.465-0.871-4.768V136.003z"/>
<path fill="#FFFFFF" d="M29.592,178.003h-2.871v-3.109h2.871v-3.879l4.084-0.787v4.666h4.067v3.109h-4.067v8.289
	c0,1.207,0.119,2.045,0.359,2.512c0.353,0.695,1.031,1.043,2.034,1.043c0.489,0,1.133-0.148,1.931-0.443l0.359,3.127
	c-1.254,0.398-2.467,0.598-3.64,0.598c-2.018,0-3.436-0.615-4.256-1.846c-0.581-0.877-0.871-2.465-0.871-4.768V178.003z"/>
<path fill="#FFFFFF" d="M49.211,174.501c2.791,0,4.967,0.928,6.527,2.785c1.403,1.674,2.103,3.852,2.103,6.527
	c0,2.93-0.826,5.242-2.478,6.939c-1.539,1.584-3.63,2.375-6.272,2.375c-2.861,0-5.071-0.928-6.631-2.785
	c-1.401-1.676-2.103-3.857-2.103-6.547c0-2.928,0.827-5.234,2.479-6.92C44.362,175.292,46.487,174.501,49.211,174.501
	 M49.039,177.611c-1.629,0-2.843,0.781-3.64,2.342c-0.536,1.037-0.803,2.324-0.803,3.861c0,1.688,0.319,3.076,0.957,4.17
	c0.809,1.355,1.994,2.035,3.554,2.035c1.676,0,2.907-0.781,3.692-2.342c0.536-1.037,0.803-2.324,0.803-3.863
	c0-1.697-0.319-3.086-0.957-4.17C51.836,178.289,50.635,177.611,49.039,177.611"/>
<path fill="#FFFFFF" d="M89.987,179.644v11.963c-2.826,1.016-5.515,1.521-8.066,1.521c-3.659,0-6.512-1.002-8.563-3.008
	c-2.302-2.232-3.452-5.303-3.452-9.211c0-4.273,1.305-7.588,3.913-9.947c2.086-1.891,4.848-2.836,8.289-2.836
	c2.632,0,5.235,0.559,7.811,1.674l-1.385,3.385c-2.199-1.094-4.318-1.641-6.358-1.641c-2.666,0-4.671,0.934-6.015,2.803
	c-1.22,1.686-1.828,3.834-1.828,6.443c0,3.064,0.871,5.4,2.614,7.006c1.378,1.275,3.116,1.914,5.212,1.914
	c1.254,0,2.478-0.223,3.675-0.666v-5.982H81.39v-3.418H89.987z"/>
<path fill="#FFFFFF" d="M95.883,192.736v-24.217h5.828c2.005,0,3.589,0.137,4.751,0.41c1.686,0.41,2.98,1.311,3.88,2.701
	c0.752,1.162,1.127,2.553,1.127,4.17c0,2.607-0.951,4.563-2.853,5.861c-1.391,0.934-3.573,1.4-6.545,1.4h-1.95v9.674H95.883z
	 M100.053,179.748h1.367c1.892,0,3.231-0.193,4.017-0.582c1.138-0.557,1.709-1.646,1.709-3.264c0-1.527-0.519-2.625-1.556-3.299
	c-0.774-0.512-2.096-0.768-3.965-0.768h-1.572V179.748z"/>
<g>
	<defs>
		<rect id="SVGID_1_" x="142.111" y="27.388" width="75.775" height="80.429"/>
	</defs>
	<clipPath id="SVGID_2_">
		<use xlink:href="#SVGID_1_"  overflow="visible"/>
	</clipPath>
	<path clip-path="url(#SVGID_2_)" fill="#FFFFFF" d="M168.801,55.104c-1.581,0-2.86,1.279-2.86,2.86v2.789
		c0,1.582,1.279,2.861,2.86,2.861s2.859-1.279,2.859-2.861v-2.789C171.66,56.383,170.382,55.104,168.801,55.104 M191.148,55.104
		c-1.581,0-2.859,1.279-2.859,2.86v2.789c0,1.582,1.278,2.861,2.859,2.861c1.582,0,2.861-1.279,2.861-2.861v-2.789
		C194.01,56.383,192.73,55.104,191.148,55.104 M187.039,70.885c-1.309-0.866-3.082-0.493-3.957,0.807
		c-0.01,0.02-1.25,1.813-3.133,1.813c-1.832,0-2.971-1.662-3.052-1.772c-0.836-1.319-2.587-1.723-3.927-0.896
		c-1.34,0.836-1.753,2.599-0.928,3.947c1.029,1.652,3.849,4.452,7.896,4.452c4.029,0,6.889-2.779,7.936-4.422
		C188.731,73.484,188.35,71.752,187.039,70.885"/>
	<path clip-path="url(#SVGID_2_)" fill="#FFFFFF" d="M180.008,34.734c0.088,0.029,0.186,0.058,0.272,0.087l30.156,8.405
		c0.563,7.853,0,15.713-1.679,23.42c-0.845,3.553-2.059,7.047-3.602,10.356c-1.533,3.3-3.396,6.464-5.561,9.405
		c-2.563,3.231-5.571,6.065-8.949,8.434c-3.29,2.301-6.881,4.125-10.678,5.416c-3.793-1.3-7.385-3.115-10.676-5.416
		c-3.396-2.377-6.414-5.231-8.986-8.482c-2.215-2.873-4.115-6.008-5.639-9.298c-1.535-3.3-2.699-6.785-3.455-10.347
		c0-0.01,0-0.02-0.011-0.02c-1.679-7.726-2.252-15.616-1.688-23.487l30.214-8.396C179.824,34.792,179.912,34.764,180.008,34.734
		 M180.008,29.503c-0.61,0-1.223,0.105-1.806,0.306l-31.733,8.811c-1.193,0.411-1.604,1.195-2.016,2.427
		c-0.869,8.992-0.324,18.06,1.605,26.89c1.691,7.879,5.121,15.279,10.043,21.661c5.789,7.338,13.607,12.813,22.474,15.737
		c0.449,0.201,0.927,0.306,1.405,0.306s0.955-0.104,1.404-0.306c8.877-2.924,16.692-8.399,22.474-15.737
		c4.769-6.469,8.179-13.836,10.043-21.661c1.93-8.82,2.476-17.897,1.606-26.89h-0.029c-0.029-1.175-0.86-2.179-2.016-2.427
		L181.824,29.8C181.232,29.599,180.62,29.503,180.008,29.503"/>
</g>
</svg>
