<?xml version="1.0" encoding="utf-8"?>
<!-- Generator: Adobe Illustrator 16.0.0, SVG Export Plug-In . SVG Version: 6.00 Build 0)  -->
<!DOCTYPE svg PUBLIC "-//W3C//DTD SVG 1.1//EN" "http://www.w3.org/Graphics/SVG/1.1/DTD/svg11.dtd">
<svg version="1.1" id="图层_1" xmlns="http://www.w3.org/2000/svg" xmlns:xlink="http://www.w3.org/1999/xlink" x="0px" y="0px"
	 width="245.015px" height="222.316px" viewBox="0 0 245.015 222.316" enable-background="new 0 0 245.015 222.316"
	 xml:space="preserve">
<polygon fill="#FFFFFF" points="28.307,194.742 28.307,170.525 42.475,170.525 42.475,173.943 32.545,173.943 32.545,180.744 
	41.979,180.744 41.979,184.162 32.545,184.162 32.545,191.324 42.987,191.324 42.987,194.742 "/>
<path fill="#FFFFFF" d="M50.328,194.742l-6.75-17.843h4.238l3.691,9.878c0.513,1.379,0.957,2.678,1.333,3.897
	c0.364-1.22,0.804-2.53,1.315-3.931l3.59-9.845h3.896l-6.682,17.843H50.328z"/>
<path fill="#FFFFFF" d="M66.13,187.119c0.318,3.305,2.034,4.957,5.143,4.957c1.768,0,3.539-0.576,5.316-1.727l1.452,3.008
	c-2.062,1.186-4.347,1.777-6.853,1.777c-3.145,0-5.526-0.877-7.144-2.633c-1.47-1.582-2.205-3.793-2.205-6.629
	c0-2.985,0.832-5.338,2.496-7.059c1.469-1.539,3.486-2.309,6.049-2.309c3.771,0,6.222,1.459,7.35,4.375
	c0.558,1.449,0.848,3.527,0.87,6.238H66.13z M74.418,184.231c-0.033-1.06-0.238-1.965-0.615-2.717
	c-0.672-1.322-1.811-1.983-3.418-1.983c-1.572,0-2.734,0.65-3.487,1.949c-0.442,0.773-0.688,1.691-0.733,2.751H74.418z"/>
<path fill="#FFFFFF" d="M81.265,194.742v-11.588c0-1.776-0.034-3.479-0.104-5.109l-0.05-1.146h3.845l0.137,2.632
	c0.693-0.729,1.315-1.281,1.861-1.658c1.312-0.91,2.798-1.366,4.462-1.366c2.347,0,3.965,0.838,4.854,2.512
	c0.523,0.97,0.786,2.632,0.786,4.991v10.732h-4.085v-10.527c0-1.424-0.113-2.432-0.342-3.025c-0.41-1.025-1.264-1.537-2.563-1.537
	c-1.664,0-3.237,1.008-4.717,3.024v12.065H81.265z"/>
<path fill="#FFFFFF" d="M101.92,180.009h-2.871V176.9h2.871v-3.88l4.084-0.786v4.666h4.067v3.109h-4.067v8.289
	c0,1.209,0.119,2.045,0.359,2.513c0.353,0.694,1.03,1.042,2.033,1.042c0.489,0,1.134-0.148,1.932-0.444l0.358,3.127
	c-1.254,0.399-2.467,0.599-3.64,0.599c-2.018,0-3.436-0.615-4.256-1.846c-0.581-0.877-0.871-2.466-0.871-4.768V180.009z"/>
<path fill="#FFFFFF" d="M119.371,194.742v-24.217h5.828c2.005,0,3.589,0.137,4.751,0.41c1.686,0.41,2.979,1.311,3.88,2.7
	c0.752,1.161,1.127,2.553,1.127,4.17c0,2.61-0.951,4.563-2.853,5.862c-1.392,0.935-3.573,1.4-6.546,1.4h-1.949v9.674H119.371z
	 M123.541,181.753h1.367c1.892,0,3.23-0.193,4.017-0.582c1.139-0.558,1.709-1.646,1.709-3.264c0-1.527-0.519-2.625-1.556-3.299
	c-0.774-0.512-2.096-0.77-3.965-0.77h-1.572V181.753z"/>
<path fill="#FFFFFF" d="M136.797,194.742v-25.584h4.084v10.117c1.8-1.846,3.828-2.769,6.084-2.769c2.347,0,3.965,0.838,4.853,2.512
	c0.524,0.979,0.787,2.644,0.787,4.991v10.732h-4.085v-10.527c0-1.424-0.113-2.432-0.342-3.025c-0.41-1.025-1.264-1.537-2.563-1.537
	c-1.664,0-3.236,1.008-4.717,3.024v12.065H136.797z"/>
<path fill="#FFFFFF" d="M164.031,176.507c2.791,0,4.967,0.928,6.527,2.784c1.402,1.675,2.103,3.851,2.103,6.529
	c0,2.928-0.826,5.241-2.478,6.938c-1.539,1.584-3.63,2.375-6.272,2.375c-2.86,0-5.07-0.929-6.631-2.785
	c-1.401-1.676-2.103-3.857-2.103-6.545c0-2.929,0.826-5.235,2.479-6.922C159.183,177.298,161.308,176.507,164.031,176.507
	 M163.859,179.617c-1.629,0-2.843,0.781-3.64,2.341c-0.536,1.037-0.804,2.325-0.804,3.863c0,1.687,0.319,3.076,0.957,4.17
	c0.81,1.354,1.994,2.033,3.555,2.033c1.676,0,2.906-0.78,3.691-2.341c0.536-1.037,0.804-2.324,0.804-3.862
	c0-1.698-0.319-3.088-0.957-4.17C166.656,180.294,165.455,179.617,163.859,179.617"/>
<path fill="#FFFFFF" d="M176.329,180.009h-2.871V176.9h2.871v-3.88l4.084-0.786v4.666h4.067v3.109h-4.067v8.289
	c0,1.209,0.119,2.045,0.359,2.513c0.353,0.694,1.03,1.042,2.033,1.042c0.489,0,1.134-0.148,1.932-0.444l0.358,3.127
	c-1.254,0.399-2.467,0.599-3.64,0.599c-2.018,0-3.436-0.615-4.256-1.846c-0.581-0.877-0.871-2.466-0.871-4.768V180.009z"/>
<path fill="#FFFFFF" d="M194.198,176.507c2.791,0,4.967,0.928,6.527,2.784c1.402,1.675,2.103,3.851,2.103,6.529
	c0,2.928-0.826,5.241-2.478,6.938c-1.539,1.584-3.63,2.375-6.272,2.375c-2.86,0-5.071-0.929-6.631-2.785
	c-1.401-1.676-2.103-3.857-2.103-6.545c0-2.929,0.826-5.235,2.479-6.922C189.35,177.298,191.475,176.507,194.198,176.507
	 M194.026,179.617c-1.629,0-2.843,0.781-3.64,2.341c-0.536,1.037-0.804,2.325-0.804,3.863c0,1.687,0.319,3.076,0.957,4.17
	c0.81,1.354,1.994,2.033,3.555,2.033c1.676,0,2.906-0.78,3.691-2.341c0.536-1.037,0.803-2.324,0.803-3.862
	c0-1.698-0.318-3.088-0.957-4.17C196.823,180.294,195.622,179.617,194.026,179.617"/>
<path fill="#FFFFFF" d="M204.423,77.859c-1.182-2.797-2.88-5.313-5.036-7.469c-2.157-2.157-4.673-3.856-7.47-5.037
	c-0.805-0.341-1.628-0.634-2.463-0.882c3.397-2.198,5.654-6.023,5.654-10.366c0-6.806-5.536-12.342-12.342-12.342
	c-1.877,0-3.652,0.434-5.245,1.187c-2.003,0.945-3.717,2.403-4.954,4.217c-1.351,1.979-2.143,4.367-2.143,6.938
	c0,2.562,0.801,4.933,2.143,6.907c0.933,1.372,2.118,2.558,3.512,3.459c-0.835,0.248-1.658,0.541-2.463,0.882
	c-2.14,0.903-4.11,2.114-5.885,3.596c-0.547,0.456-1.077,0.933-1.585,1.441c-2.157,2.156-3.855,4.672-5.036,7.469
	c-1.229,2.897-1.846,5.977-1.846,9.151c0,0.81,0.658,1.469,1.47,1.469c0.811,0,1.469-0.659,1.469-1.469
	c0-5.495,2.14-10.661,6.023-14.546c3.885-3.884,9.051-6.024,14.546-6.024s10.66,2.14,14.545,6.024
	c3.885,3.885,6.024,9.051,6.024,14.546c0,0.81,0.658,1.469,1.469,1.469c0.812,0,1.47-0.659,1.47-1.469
	C206.269,83.836,205.646,80.756,204.423,77.859 M182.761,63.502c-1.946,0-3.756-0.595-5.259-1.612
	c-2.498-1.693-4.145-4.554-4.145-7.791c0-3.245,1.654-6.112,4.164-7.803c1.498-1.01,3.301-1.6,5.239-1.6
	c5.184,0,9.403,4.22,9.403,9.403C192.164,59.282,187.944,63.502,182.761,63.502"/>
<path fill="none" stroke="#FFFFFF" stroke-width="4" stroke-miterlimit="10" d="M204.423,77.859
	c-1.182-2.797-2.88-5.313-5.036-7.469c-2.157-2.157-4.673-3.856-7.47-5.037c-0.805-0.341-1.628-0.634-2.463-0.882
	c3.397-2.198,5.654-6.023,5.654-10.366c0-6.806-5.536-12.342-12.342-12.342c-1.877,0-3.652,0.434-5.245,1.187
	c-2.003,0.945-3.717,2.403-4.954,4.217c-1.351,1.979-2.143,4.367-2.143,6.938c0,2.562,0.801,4.933,2.143,6.907
	c0.933,1.372,2.118,2.558,3.512,3.459c-0.835,0.248-1.658,0.541-2.463,0.882c-2.14,0.903-4.11,2.114-5.885,3.596
	c-0.547,0.456-1.077,0.933-1.585,1.441c-2.157,2.156-3.855,4.672-5.036,7.469c-1.229,2.897-1.846,5.977-1.846,9.151
	c0,0.81,0.658,1.469,1.47,1.469c0.811,0,1.469-0.659,1.469-1.469c0-5.495,2.14-10.661,6.023-14.546
	c3.885-3.884,9.051-6.024,14.546-6.024s10.66,2.14,14.545,6.024c3.885,3.885,6.024,9.051,6.024,14.546
	c0,0.81,0.658,1.469,1.469,1.469c0.812,0,1.47-0.659,1.47-1.469C206.269,83.836,205.646,80.756,204.423,77.859z M182.761,63.502
	c-1.946,0-3.756-0.595-5.259-1.612c-2.498-1.693-4.145-4.554-4.145-7.791c0-3.245,1.654-6.112,4.164-7.803
	c1.498-1.01,3.301-1.6,5.239-1.6c5.184,0,9.403,4.22,9.403,9.403C192.164,59.282,187.944,63.502,182.761,63.502z"/>
<path fill="#FFFFFF" d="M176.679,77.859c-1.182-2.797-2.88-5.313-5.037-7.469c-2.156-2.157-4.672-3.856-7.469-5.037
	c-0.806-0.341-1.629-0.634-2.463-0.882c3.396-2.198,5.653-6.023,5.653-10.366c0-6.806-5.536-12.342-12.341-12.342
	c-1.878,0-3.652,0.434-5.246,1.187c-2.002,0.945-3.716,2.403-4.954,4.217c-1.35,1.979-2.142,4.367-2.142,6.938
	c0,2.562,0.801,4.933,2.142,6.907c0.933,1.372,2.119,2.558,3.512,3.459c-0.835,0.248-1.657,0.541-2.462,0.882
	c-2.14,0.903-4.11,2.114-5.886,3.596c-0.546,0.456-1.077,0.933-1.584,1.441c-2.157,2.156-3.855,4.672-5.037,7.469
	c-1.228,2.897-1.845,5.977-1.845,9.151c0,0.81,0.658,1.469,1.469,1.469c0.812,0,1.47-0.659,1.47-1.469
	c0-5.495,2.139-10.661,6.023-14.546c3.885-3.884,9.051-6.024,14.546-6.024c5.494,0,10.66,2.14,14.545,6.024
	c3.885,3.885,6.023,9.051,6.023,14.546c0,0.81,0.658,1.469,1.47,1.469c0.811,0,1.47-0.659,1.47-1.469
	C178.524,83.836,177.901,80.756,176.679,77.859 M155.017,63.502c-1.946,0-3.757-0.595-5.259-1.612
	c-2.499-1.693-4.145-4.554-4.145-7.791c0-3.245,1.654-6.112,4.163-7.803c1.499-1.01,3.303-1.6,5.24-1.6
	c5.184,0,9.402,4.22,9.402,9.403C164.419,59.282,160.2,63.502,155.017,63.502"/>
<path fill="none" stroke="#FFFFFF" stroke-width="4" stroke-miterlimit="10" d="M176.679,77.859
	c-1.182-2.797-2.88-5.313-5.037-7.469c-2.156-2.157-4.672-3.856-7.469-5.037c-0.806-0.341-1.629-0.634-2.463-0.882
	c3.396-2.198,5.653-6.023,5.653-10.366c0-6.806-5.536-12.342-12.341-12.342c-1.878,0-3.652,0.434-5.246,1.187
	c-2.002,0.945-3.716,2.403-4.954,4.217c-1.35,1.979-2.142,4.367-2.142,6.938c0,2.562,0.801,4.933,2.142,6.907
	c0.933,1.372,2.119,2.558,3.512,3.459c-0.835,0.248-1.657,0.541-2.462,0.882c-2.14,0.903-4.11,2.114-5.886,3.596
	c-0.546,0.456-1.077,0.933-1.584,1.441c-2.157,2.156-3.855,4.672-5.037,7.469c-1.228,2.897-1.845,5.977-1.845,9.151
	c0,0.81,0.658,1.469,1.469,1.469c0.812,0,1.47-0.659,1.47-1.469c0-5.495,2.139-10.661,6.023-14.546
	c3.885-3.884,9.051-6.024,14.546-6.024c5.494,0,10.66,2.14,14.545,6.024c3.885,3.885,6.023,9.051,6.023,14.546
	c0,0.81,0.658,1.469,1.47,1.469c0.811,0,1.47-0.659,1.47-1.469C178.524,83.836,177.901,80.756,176.679,77.859z M155.017,63.502
	c-1.946,0-3.757-0.595-5.259-1.612c-2.499-1.693-4.145-4.554-4.145-7.791c0-3.245,1.654-6.112,4.163-7.803
	c1.499-1.01,3.303-1.6,5.24-1.6c5.184,0,9.402,4.22,9.402,9.403C164.419,59.282,160.2,63.502,155.017,63.502z"/>
<path fill="none" stroke="#FFFFFF" stroke-width="4" stroke-linecap="round" stroke-miterlimit="10" d="M152.759,29.328h-15.604
	c-5.609,0-10.157,4.548-10.157,10.158v11.181"/>
<path fill="none" stroke="#FFFFFF" stroke-width="4" stroke-linecap="round" stroke-miterlimit="10" d="M189.801,29.328h15.603
	c5.61,0,10.158,4.548,10.158,10.158v11.181"/>
<path fill="none" stroke="#FFFFFF" stroke-width="4" stroke-linecap="round" stroke-miterlimit="10" d="M152.759,103.14h-15.604
	c-5.609,0-10.157-4.548-10.157-10.158V81.801"/>
<path fill="none" stroke="#FFFFFF" stroke-width="4" stroke-linecap="round" stroke-miterlimit="10" d="M189.801,103.14h15.603
	c5.61,0,10.158-4.548,10.158-10.158V81.801"/>
</svg>
