<?xml version="1.0" encoding="utf-8"?>
<!-- Generator: Adobe Illustrator 16.0.0, SVG Export Plug-In . SVG Version: 6.00 Build 0)  -->
<!DOCTYPE svg PUBLIC "-//W3C//DTD SVG 1.1//EN" "http://www.w3.org/Graphics/SVG/1.1/DTD/svg11.dtd">
<svg version="1.1" id="图层_1" xmlns="http://www.w3.org/2000/svg" xmlns:xlink="http://www.w3.org/1999/xlink" x="0px" y="0px"
	 width="245.015px" height="222.316px" viewBox="0 0 245.015 222.316" enable-background="new 0 0 245.015 222.316"
	 xml:space="preserve">
<path fill="#FFFFFF" d="M32.597,152.048l-5.674-24.215h4.255l2.923,13.227c0.421,1.914,0.791,3.76,1.11,5.537
	c0.398-1.811,0.826-3.605,1.281-5.383l3.452-13.381h4.461l3.315,12.953c0.547,2.119,0.985,3.977,1.314,5.572
	c0.298-1.641,0.679-3.486,1.146-5.537l2.974-12.988h4.033l-5.811,24.215h-4.512l-3.35-12.988c-0.513-1.971-0.991-3.959-1.436-5.963
	c-0.421,1.834-0.917,3.805-1.486,5.912l-3.47,13.039H32.597z"/>
<path fill="#FFFFFF" d="M63.188,125.884c0.786,0,1.424,0.279,1.914,0.838c0.398,0.467,0.599,1.037,0.599,1.709
	c0,0.66-0.2,1.225-0.599,1.691c-0.49,0.57-1.14,0.855-1.948,0.855c-0.81,0-1.459-0.285-1.948-0.855
	c-0.399-0.455-0.599-1.02-0.599-1.691c0-0.684,0.199-1.254,0.599-1.709C61.705,126.164,62.367,125.884,63.188,125.884
	 M61.085,134.207h4.085v17.842h-4.085V134.207z"/>
<path fill="#FFFFFF" d="M69.579,151.041l1.094-3.127c1.709,0.98,3.275,1.469,4.7,1.469c0.957,0,1.692-0.209,2.204-0.631
	c0.502-0.41,0.752-0.963,0.752-1.658c0-0.66-0.233-1.162-0.7-1.504c-0.365-0.262-1.322-0.666-2.871-1.213
	c-1.801-0.639-3.042-1.266-3.726-1.881c-0.9-0.809-1.35-1.908-1.35-3.299c0-1.719,0.643-3.07,1.931-4.049
	c1.162-0.889,2.718-1.334,4.665-1.334c1.892,0,3.821,0.428,5.794,1.281l-1.06,3.145c-1.538-0.922-3.065-1.383-4.58-1.383
	c-0.798,0-1.447,0.176-1.948,0.529c-0.513,0.354-0.769,0.854-0.769,1.504c0,0.66,0.324,1.174,0.974,1.537
	c0.364,0.205,1.299,0.588,2.803,1.146c1.834,0.684,3.104,1.4,3.812,2.152c0.717,0.754,1.076,1.744,1.076,2.975
	c0,1.674-0.604,3.041-1.812,4.102c-1.242,1.092-2.951,1.641-5.127,1.641C73.379,152.443,71.425,151.976,69.579,151.041"/>
<path fill="#FFFFFF" d="M86.841,152.048v-25.582h4.084v10.117c1.8-1.846,3.828-2.77,6.084-2.77c2.347,0,3.965,0.838,4.853,2.512
	c0.524,0.98,0.787,2.645,0.787,4.99v10.732h-4.085v-10.527c0-1.424-0.113-2.432-0.342-3.023c-0.41-1.025-1.264-1.539-2.563-1.539
	c-1.664,0-3.236,1.008-4.717,3.025v12.064H86.841z"/>
<path fill="#FFFFFF" d="M111.262,144.427c0.318,3.305,2.034,4.955,5.143,4.955c1.768,0,3.539-0.574,5.316-1.725l1.452,3.008
	c-2.062,1.186-4.347,1.777-6.853,1.777c-3.145,0-5.526-0.877-7.144-2.633c-1.47-1.584-2.205-3.793-2.205-6.631
	c0-2.984,0.832-5.338,2.496-7.059c1.469-1.537,3.486-2.307,6.049-2.307c3.771,0,6.222,1.459,7.35,4.375
	c0.558,1.447,0.848,3.527,0.87,6.238H111.262z M119.55,141.539c-0.033-1.059-0.238-1.965-0.615-2.717
	c-0.672-1.322-1.811-1.982-3.418-1.982c-1.572,0-2.734,0.648-3.487,1.947c-0.442,0.775-0.688,1.693-0.733,2.752H119.55z"/>
<path fill="#FFFFFF" d="M126.796,151.041l1.094-3.127c1.709,0.98,3.275,1.469,4.7,1.469c0.957,0,1.692-0.209,2.204-0.631
	c0.502-0.41,0.752-0.963,0.752-1.658c0-0.66-0.233-1.162-0.7-1.504c-0.365-0.262-1.322-0.666-2.871-1.213
	c-1.801-0.639-3.042-1.266-3.726-1.881c-0.9-0.809-1.35-1.908-1.35-3.299c0-1.719,0.643-3.07,1.931-4.049
	c1.162-0.889,2.718-1.334,4.665-1.334c1.892,0,3.821,0.428,5.794,1.281l-1.06,3.145c-1.538-0.922-3.065-1.383-4.58-1.383
	c-0.798,0-1.447,0.176-1.948,0.529c-0.513,0.354-0.769,0.854-0.769,1.504c0,0.66,0.324,1.174,0.974,1.537
	c0.364,0.205,1.299,0.588,2.803,1.146c1.834,0.684,3.104,1.4,3.812,2.152c0.717,0.754,1.076,1.744,1.076,2.975
	c0,1.674-0.604,3.041-1.812,4.102c-1.242,1.092-2.951,1.641-5.127,1.641C130.596,152.443,128.642,151.976,126.796,151.041"/>
<path fill="#FFFFFF" d="M29.726,179.318h-2.871v-3.111h2.871v-3.879l4.084-0.787v4.666h4.067v3.111H33.81v8.287
	c0,1.209,0.119,2.047,0.359,2.514c0.353,0.695,1.03,1.041,2.033,1.041c0.489,0,1.134-0.146,1.932-0.443l0.358,3.127
	c-1.254,0.398-2.467,0.598-3.64,0.598c-2.018,0-3.436-0.615-4.256-1.846c-0.581-0.877-0.871-2.465-0.871-4.768V179.318z"/>
<path fill="#FFFFFF" d="M49.345,175.814c2.791,0,4.967,0.93,6.527,2.785c1.403,1.676,2.103,3.852,2.103,6.529
	c0,2.928-0.826,5.24-2.478,6.938c-1.539,1.584-3.63,2.375-6.272,2.375c-2.86,0-5.07-0.928-6.631-2.785
	c-1.4-1.674-2.103-3.855-2.103-6.545c0-2.928,0.827-5.234,2.479-6.922C44.496,176.607,46.621,175.814,49.345,175.814
	 M49.173,178.923c-1.629,0-2.843,0.781-3.64,2.342c-0.536,1.037-0.804,2.324-0.804,3.863c0,1.686,0.319,3.076,0.957,4.17
	c0.81,1.355,1.994,2.033,3.555,2.033c1.676,0,2.906-0.779,3.691-2.342c0.536-1.035,0.804-2.324,0.804-3.861
	c0-1.697-0.319-3.088-0.957-4.17C51.97,179.603,50.769,178.923,49.173,178.923"/>
<path fill="#FFFFFF" d="M90.121,180.958v11.963c-2.826,1.014-5.515,1.52-8.066,1.52c-3.658,0-6.512-1.002-8.563-3.008
	c-2.302-2.232-3.452-5.303-3.452-9.211c0-4.271,1.305-7.588,3.913-9.945c2.086-1.891,4.848-2.838,8.289-2.838
	c2.632,0,5.234,0.559,7.811,1.676l-1.385,3.383c-2.199-1.094-4.318-1.641-6.357-1.641c-2.666,0-4.672,0.936-6.016,2.803
	c-1.22,1.688-1.828,3.834-1.828,6.445c0,3.063,0.871,5.398,2.614,7.004c1.378,1.277,3.116,1.914,5.212,1.914
	c1.254,0,2.479-0.221,3.675-0.666v-5.98h-4.443v-3.418H90.121z"/>
<path fill="#FFFFFF" d="M96.017,194.048v-24.217h5.828c2.005,0,3.589,0.137,4.751,0.41c1.686,0.41,2.979,1.311,3.88,2.701
	c0.752,1.162,1.127,2.553,1.127,4.17c0,2.609-0.951,4.563-2.853,5.861c-1.392,0.936-3.573,1.4-6.546,1.4h-1.949v9.674H96.017z
	 M100.187,181.06h1.367c1.892,0,3.23-0.193,4.017-0.58c1.139-0.559,1.709-1.648,1.709-3.266c0-1.525-0.519-2.625-1.556-3.299
	c-0.774-0.512-2.096-0.768-3.965-0.768h-1.572V181.06z"/>
<path fill="#FFFFFF" d="M183.286,49.45V36.445c0-4.785-3.879-8.664-8.664-8.664h-57.759c-4.785,0-8.664,3.879-8.664,8.664v34.655
	c0,4.784,3.879,8.664,8.664,8.664h27.436l13.363,10.396c0.748,0.696,1.8,1.304,2.729,1.171c0.901-0.129,1.784-0.701,2.142-2.336
	l1.982-9.231h7.356c2.07-1.729,4.368-3.14,6.862-4.193c0.938-0.396,1.897-0.739,2.871-1.027c-1.624-1.051-3.007-2.434-4.095-4.034
	v0.591c0,1.595-1.293,2.888-2.888,2.888h-11.551c-0.909,0-1.766,0.428-2.311,1.155l-2.047,9.25l-11.632-9.25
	c-0.546-0.728-1.401-1.155-2.311-1.155h-27.908c-1.596,0-2.889-1.293-2.889-2.888V36.445c0-1.596,1.293-2.889,2.889-2.889h57.759
	c1.595,0,2.888,1.293,2.888,2.889v17.922C178.953,52.252,180.952,50.553,183.286,49.45"/>
<path fill="#FFFFFF" d="M214.653,90.153c-1.377-3.261-3.357-6.194-5.872-8.709c-2.516-2.515-5.447-4.495-8.71-5.873
	c-0.938-0.396-1.898-0.739-2.871-1.027c3.961-2.563,6.591-7.024,6.591-12.088c0-7.935-6.454-14.39-14.389-14.39
	c-2.188,0-4.257,0.506-6.116,1.384c-2.334,1.102-4.333,2.802-5.776,4.917c-1.574,2.307-2.497,5.092-2.497,8.089
	c0,2.987,0.934,5.752,2.497,8.054c1.088,1.601,2.471,2.983,4.095,4.034c-0.974,0.288-1.933,0.631-2.871,1.027
	c-2.494,1.054-4.792,2.465-6.862,4.194c-0.637,0.53-1.256,1.087-1.848,1.679c-2.515,2.515-4.495,5.448-5.872,8.709
	c-1.432,3.379-2.152,6.969-2.152,10.669c0,0.946,0.768,1.714,1.714,1.714c0.945,0,1.713-0.768,1.713-1.714
	c0-6.407,2.494-12.43,7.023-16.959s10.553-7.023,16.96-7.023s12.43,2.494,16.96,7.023c4.529,4.529,7.023,10.552,7.023,16.959
	c0,0.946,0.768,1.714,1.713,1.714s1.714-0.768,1.714-1.714C216.805,97.122,216.078,93.532,214.653,90.153 M189.396,73.413
	c-2.271,0-4.38-0.693-6.131-1.88c-2.913-1.973-4.833-5.309-4.833-9.084c0-3.784,1.929-7.126,4.854-9.098
	c1.747-1.178,3.85-1.866,6.109-1.866c6.044,0,10.964,4.92,10.964,10.964S195.439,73.413,189.396,73.413"/>
<path fill="none" stroke="#FFFFFF" stroke-width="2.483" stroke-miterlimit="10" d="M214.653,90.153
	c-1.377-3.261-3.357-6.194-5.872-8.709c-2.516-2.515-5.447-4.495-8.71-5.873c-0.938-0.396-1.898-0.739-2.871-1.027
	c3.961-2.563,6.591-7.024,6.591-12.088c0-7.935-6.454-14.39-14.389-14.39c-2.188,0-4.257,0.506-6.116,1.384
	c-2.334,1.102-4.333,2.802-5.776,4.917c-1.574,2.307-2.497,5.092-2.497,8.089c0,2.987,0.934,5.752,2.497,8.054
	c1.088,1.601,2.471,2.983,4.095,4.034c-0.974,0.288-1.933,0.631-2.871,1.027c-2.494,1.054-4.792,2.465-6.862,4.194
	c-0.637,0.53-1.256,1.087-1.848,1.679c-2.515,2.515-4.495,5.448-5.872,8.709c-1.432,3.379-2.152,6.969-2.152,10.669
	c0,0.946,0.768,1.714,1.714,1.714c0.945,0,1.713-0.768,1.713-1.714c0-6.407,2.494-12.43,7.023-16.959s10.553-7.023,16.96-7.023
	s12.43,2.494,16.96,7.023c4.529,4.529,7.023,10.552,7.023,16.959c0,0.946,0.768,1.714,1.713,1.714s1.714-0.768,1.714-1.714
	C216.805,97.122,216.078,93.532,214.653,90.153z M189.396,73.413c-2.271,0-4.38-0.693-6.131-1.88
	c-2.913-1.973-4.833-5.309-4.833-9.084c0-3.784,1.929-7.126,4.854-9.098c1.747-1.178,3.85-1.866,6.109-1.866
	c6.044,0,10.964,4.92,10.964,10.964S195.439,73.413,189.396,73.413z"/>
</svg>
