<?xml version="1.0" encoding="utf-8"?>
<!-- Generator: Adobe Illustrator 16.0.0, SVG Export Plug-In . SVG Version: 6.00 Build 0)  -->
<!DOCTYPE svg PUBLIC "-//W3C//DTD SVG 1.1//EN" "http://www.w3.org/Graphics/SVG/1.1/DTD/svg11.dtd">
<svg version="1.1" id="图层_1" xmlns="http://www.w3.org/2000/svg" xmlns:xlink="http://www.w3.org/1999/xlink" x="0px" y="0px"
	 width="20px" height="20px" viewBox="0 0 20 20" enable-background="new 0 0 20 20" xml:space="preserve">
<g>
	
		<linearGradient id="SVGID_1_" gradientUnits="userSpaceOnUse" x1="-511.7266" y1="1372.292" x2="-511.0696" y2="1372.292" gradientTransform="matrix(24.6108 0 0 -24.6108 12595.9063 33783.2031)">
		<stop  offset="0" style="stop-color:#44B5B8"/>
		<stop  offset="0.0745" style="stop-color:#3CB0B3"/>
		<stop  offset="0.313" style="stop-color:#23A4A7"/>
		<stop  offset="0.5" style="stop-color:#15A0A3"/>
		<stop  offset="0.6003" style="stop-color:#159FA6"/>
		<stop  offset="0.7363" style="stop-color:#159EB1"/>
		<stop  offset="0.8921" style="stop-color:#179CC0"/>
		<stop  offset="1" style="stop-color:#189ACC"/>
	</linearGradient>
	<path fill="url(#SVGID_1_)" d="M10.008,0.649v0.329C6.118,0.979,2.999,3.936,2.992,7.546v0.022L2.988,7.593
		c0,0-0.015,0.096-0.015,0.315c0.005,1.199,0.474,5.664,7.241,11.099l-0.206,0.254l-0.199-0.26
		c0.023-0.012,7.258-5.597,7.218-11.455c-0.007-3.61-3.125-6.566-7.019-6.567V0.649V0.32c4.225,0.008,7.673,3.22,7.675,7.226
		c-0.038,6.372-7.465,11.944-7.475,11.977l-0.205,0.157l-0.2-0.16c-6.9-5.526-7.492-10.229-7.487-11.611
		c0-0.254,0.019-0.395,0.021-0.409l0.326,0.047H2.334C2.337,3.54,5.786,0.328,10.008,0.32V0.649z"/>
	
		<linearGradient id="SVGID_2_" gradientUnits="userSpaceOnUse" x1="-496.2671" y1="1341.7324" x2="-495.6101" y2="1341.7324" gradientTransform="matrix(12.926 0 0 -12.926 6420.5 17351.2109)">
		<stop  offset="0" style="stop-color:#44B5B8"/>
		<stop  offset="0.0745" style="stop-color:#3CB0B3"/>
		<stop  offset="0.313" style="stop-color:#23A4A7"/>
		<stop  offset="0.5" style="stop-color:#15A0A3"/>
		<stop  offset="0.6003" style="stop-color:#159FA6"/>
		<stop  offset="0.7363" style="stop-color:#159EB1"/>
		<stop  offset="0.8921" style="stop-color:#179CC0"/>
		<stop  offset="1" style="stop-color:#189ACC"/>
	</linearGradient>
	<path fill="url(#SVGID_2_)" d="M13.517,7.971h0.33C13.843,9.991,12.109,11.596,10,11.6c-2.107-0.004-3.84-1.608-3.844-3.629
		C6.159,5.95,7.893,4.346,10,4.343c2.11,0.003,3.843,1.607,3.847,3.628H13.517h-0.328C13.186,6.347,11.777,5.001,10,5
		C8.224,5.001,6.816,6.346,6.813,7.971C6.816,9.596,8.224,10.942,10,10.943c1.778-0.001,3.186-1.348,3.189-2.973H13.517z"/>
</g>
</svg>
