<?xml version="1.0" encoding="utf-8"?>
<!-- Generator: Adobe Illustrator 16.0.0, SVG Export Plug-In . SVG Version: 6.00 Build 0)  -->
<!DOCTYPE svg PUBLIC "-//W3C//DTD SVG 1.1//EN" "http://www.w3.org/Graphics/SVG/1.1/DTD/svg11.dtd">
<svg version="1.1" id="图层_1" xmlns="http://www.w3.org/2000/svg" xmlns:xlink="http://www.w3.org/1999/xlink" x="0px" y="0px"
	 width="894.047px" height="261.31px" viewBox="0 0 894.047 261.31" enable-background="new 0 0 894.047 261.31"
	 xml:space="preserve">
<polygon fill="#FFFFFF" points="45.126,122.256 45.126,71.117 54.075,71.117 54.075,115.039 76.126,115.039 76.126,122.256 "/>
<path fill="#FFFFFF" d="M98.104,83.786c5.895,0,10.491,1.961,13.787,5.882c2.959,3.513,4.438,8.097,4.438,13.75
	c0,6.184-1.744,11.067-5.232,14.651c-3.225,3.345-7.639,5.018-13.245,5.018c-6.039,0-10.707-1.961-14.004-5.883
	c-2.959-3.512-4.437-8.107-4.437-13.786c0-6.184,1.744-11.067,5.232-14.652C87.891,85.445,92.378,83.786,98.104,83.786
	 M97.743,90.354c-3.439,0-6.002,1.648-7.686,4.944c-1.132,2.189-1.697,4.908-1.697,8.156c0,3.561,0.674,6.484,2.022,8.77
	c1.707,2.863,4.197,4.295,7.47,4.295c3.561,0,6.172-1.648,7.832-4.945c1.129-2.189,1.696-4.908,1.696-8.156
	c0-3.585-0.674-6.508-2.022-8.771C103.649,91.786,101.112,90.354,97.743,90.354"/>
<path fill="#FFFFFF" d="M149.966,84.579h8.298l-0.107,2.563c-0.168,4.33-0.266,8.421-0.289,12.27v18.55
	c0,4.451-0.266,7.759-0.793,9.924c-0.963,4.09-3.369,7.074-7.219,8.951c-2.982,1.443-6.545,2.165-10.681,2.165
	c-5.293,0-10.178-1.119-14.653-3.356l2.742-6.459c3.61,2.165,7.35,3.249,11.225,3.249c4.643,0,7.781-1.589,9.418-4.765
	c0.891-1.757,1.336-4.788,1.336-9.095v-2.706c-3.176,3.681-6.906,5.521-11.188,5.521c-4.546,0-8.24-1.731-11.08-5.196
	c-2.695-3.272-4.041-7.771-4.041-13.498c0-5.63,1.395-10.226,4.186-13.786c2.719-3.441,6.375-5.161,10.971-5.161
	c4.931,0,8.806,2.021,11.621,6.063L149.966,84.579z M149.243,97.319c-0.723-1.636-1.611-2.971-2.67-4.006
	c-1.949-1.949-4.103-2.923-6.461-2.923c-2.791,0-4.908,1.312-6.351,3.934c-1.252,2.262-1.877,5.089-1.877,8.48
	c0,3.321,0.662,6.063,1.984,8.229c1.492,2.478,3.646,3.717,6.461,3.717c2.31,0,4.475-1.011,6.496-3.032
	c0.938-0.938,1.744-2.068,2.418-3.392V97.319z"/>
<path fill="#FFFFFF" d="M174.542,67.004c1.66,0,3.008,0.59,4.041,1.768c0.842,0.987,1.264,2.19,1.264,3.609
	c0,1.396-0.422,2.587-1.264,3.573c-1.033,1.204-2.406,1.805-4.113,1.805c-1.709,0-3.08-0.601-4.116-1.805
	c-0.841-0.962-1.261-2.153-1.261-3.573c0-1.443,0.42-2.646,1.261-3.609C171.413,67.594,172.81,67.004,174.542,67.004
	 M170.103,84.579h8.625v37.677h-8.625V84.579z"/>
<path fill="#FFFFFF" d="M188.038,120.127l2.311-6.604c1.466,0.842,2.609,1.432,3.427,1.768c2.117,0.891,4.295,1.336,6.533,1.336
	c1.997,0,3.536-0.445,4.62-1.336c1.058-0.842,1.588-1.997,1.588-3.464c0-1.42-0.495-2.491-1.481-3.212
	c-0.769-0.53-2.791-1.384-6.062-2.563c-2.696-0.962-4.573-1.744-5.631-2.345c-3.391-1.949-5.088-4.8-5.088-8.554
	c0-3.632,1.359-6.484,4.078-8.553c2.455-1.876,5.738-2.815,9.853-2.815c3.92,0,7.998,0.89,12.233,2.671l-2.236,6.64
	c-3.274-1.925-6.497-2.887-9.672-2.887c-1.686,0-3.057,0.374-4.116,1.119c-1.082,0.746-1.623,1.804-1.623,3.175
	c0,1.396,0.686,2.479,2.057,3.249c0.795,0.433,2.768,1.239,5.918,2.417c3.85,1.444,6.533,2.948,8.049,4.512
	c1.515,1.588,2.273,3.694,2.273,6.316c0,3.513-1.275,6.387-3.826,8.625c-2.621,2.31-6.23,3.464-10.826,3.464
	C196.061,123.086,191.936,122.1,188.038,120.127"/>
<path fill="#FFFFFF" d="M226.728,91.147h-6.064V84.58h6.064v-8.193l8.625-1.66v9.853h8.59v6.568h-8.59v17.503
	c0,2.551,0.252,4.319,0.758,5.305c0.746,1.468,2.178,2.202,4.295,2.202c1.058,0,2.418-0.313,4.078-0.938l0.758,6.604
	c-2.647,0.842-5.209,1.264-7.688,1.264c-4.258,0-7.254-1.299-8.986-3.897c-1.227-1.853-1.84-5.209-1.84-10.07V91.147z"/>
<path fill="#FFFFFF" d="M256.646,67.004c1.66,0,3.007,0.59,4.041,1.768c0.841,0.987,1.263,2.19,1.263,3.609
	c0,1.396-0.422,2.587-1.263,3.573c-1.034,1.204-2.407,1.805-4.114,1.805c-1.709,0-3.08-0.601-4.115-1.805
	c-0.842-0.962-1.262-2.153-1.262-3.573c0-1.443,0.42-2.646,1.262-3.609C253.517,67.594,254.913,67.004,256.646,67.004
	 M252.206,84.579h8.625v37.677h-8.625V84.579z"/>
<path fill="#FFFFFF" d="M298.255,113.523l2.779,6.315c-3.465,2.166-7.543,3.248-12.234,3.248c-5.918,0-10.525-1.78-13.822-5.341
	c-3.225-3.488-4.836-8.216-4.836-14.183c0-6.351,1.709-11.344,5.125-14.977c3.054-3.2,7.302-4.8,12.74-4.8
	c4.234,0,8.312,0.939,12.234,2.815l-2.599,6.46c-2.936-1.805-5.834-2.706-8.698-2.706c-3.369,0-5.859,1.203-7.47,3.608
	c-1.588,2.358-2.381,5.51-2.381,9.456c0,4.114,0.926,7.326,2.777,9.636c1.854,2.262,4.44,3.393,7.76,3.393
	C292.589,116.446,295.464,115.472,298.255,113.523"/>
<rect x="327.235" y="71.118" fill="#FFFFFF" width="8.949" height="51.139"/>
<path fill="#FFFFFF" d="M348.671,122.256V97.787c-0.023-4.595-0.096-8.191-0.215-10.79l-0.109-2.418h8.121l0.287,5.557
	c1.469-1.539,2.779-2.706,3.936-3.5c2.765-1.925,5.906-2.887,9.417-2.887c4.958,0,8.374,1.768,10.25,5.305
	c1.106,2.045,1.661,5.557,1.661,10.538v22.664h-8.625v-22.231c0-3.007-0.243-5.137-0.723-6.388c-0.865-2.165-2.67-3.248-5.412-3.248
	c-3.514,0-6.834,2.129-9.961,6.388v25.479H348.671z"/>
<path fill="#FFFFFF" d="M395.948,122.256V91.147h-6.027V84.58h6.027v-2.49c0-4.523,0.686-7.892,2.057-10.105
	c1.925-3.08,5.209-4.62,9.853-4.62c2.141,0,4.426,0.337,6.858,1.011l-0.686,6.893c-1.541-0.674-2.996-1.011-4.367-1.011
	c-2.287,0-3.789,1.083-4.512,3.248c-0.385,1.179-0.578,2.972-0.578,5.377v1.697h8.627v6.568h-8.627v31.109H395.948z"/>
<path fill="#FFFFFF" d="M436.26,83.786c5.895,0,10.489,1.961,13.785,5.882c2.959,3.513,4.439,8.097,4.439,13.75
	c0,6.184-1.743,11.067-5.231,14.651c-3.225,3.345-7.641,5.018-13.247,5.018c-6.039,0-10.705-1.961-14.002-5.883
	c-2.959-3.512-4.439-8.107-4.439-13.786c0-6.184,1.744-11.067,5.232-14.652C426.045,85.445,430.534,83.786,436.26,83.786
	 M435.899,90.354c-3.441,0-6.004,1.648-7.687,4.944c-1.131,2.189-1.696,4.908-1.696,8.156c0,3.561,0.672,6.484,2.02,8.77
	c1.709,2.863,4.199,4.295,7.47,4.295c3.561,0,6.172-1.648,7.832-4.945c1.131-2.189,1.696-4.908,1.696-8.156
	c0-3.585-0.674-6.508-2.02-8.771C441.805,91.786,439.266,90.354,435.899,90.354"/>
<path fill="#FFFFFF" d="M68.044,177.638v13.459c-1.26,0.482-2.678,0.875-4.258,1.176c-1.58,0.301-3.047,0.452-4.4,0.452
	c-3.83,0-6.944-1.192-9.34-3.576c-2.68-2.651-4.018-6.214-4.018-10.687c0-4.674,1.346-8.403,4.037-11.188
	c2.452-2.544,5.598-3.817,9.442-3.817c2.664,0,5.443,0.67,8.336,2.01l-0.963,2.631c-2.506-1.285-4.996-1.929-7.473-1.929
	c-3.215,0-5.685,1.212-7.414,3.636c-1.646,2.33-2.47,5.203-2.47,8.619c0,3.896,1.125,6.922,3.375,9.078
	c1.753,1.674,4.025,2.512,6.81,2.512c1.647,0,3.328-0.301,5.041-0.904v-8.758h-5.603v-2.713H68.044z"/>
<path fill="#FFFFFF" d="M75.175,192.322v-28.464h5.504c3.428,0,5.912,0.502,7.453,1.507c2.195,1.419,3.295,3.683,3.295,6.789
	c0,2.036-0.537,3.729-1.607,5.082c-1.059,1.313-2.592,2.19-4.6,2.632c-1.313,0.294-2.953,0.442-4.922,0.442H78.47v12.012H75.175z
	 M78.47,177.599h1.346c2.744,0,4.674-0.281,5.785-0.845c1.553-0.79,2.33-2.323,2.33-4.6c0-1.205-0.281-2.276-0.844-3.214
	c-0.67-1.111-1.701-1.801-3.094-2.069c-1.003-0.201-2.222-0.301-3.656-0.301H78.47V177.599z"/>
<path fill="#FFFFFF" d="M106.392,192.322v-28.464h4.44c2.197,0,3.882,0.08,5.062,0.241c4.285,0.589,6.428,2.96,6.428,7.11
	c0,2.276-0.676,3.978-2.03,5.103c-0.843,0.696-2.087,1.199-3.736,1.506c4.365,0.496,6.549,2.806,6.549,6.931
	c0,3.134-1.211,5.311-3.635,6.528c-1.031,0.509-2.258,0.831-3.678,0.964c-0.562,0.055-1.814,0.081-3.755,0.081H106.392z
	 M109.687,176.613h1.486c2.705,0,4.553-0.28,5.545-0.843c1.407-0.804,2.108-2.189,2.108-4.159c0-2.088-0.657-3.495-1.967-4.218
	c-1.031-0.576-2.928-0.864-5.686-0.864h-1.486V176.613z M109.687,189.65h1.486c1.969,0,3.448-0.073,4.44-0.221
	c2.664-0.402,3.998-2.082,3.998-5.042c0-2.236-0.912-3.736-2.733-4.499c-1.125-0.483-3.027-0.724-5.705-0.724h-1.486V189.65z"/>
<path fill="#FFFFFF" d="M145.382,171.472v14.062c0.014,3.481,0.066,5.745,0.16,6.789h-3.094l-0.119-3.334
	c-0.738,0.79-1.467,1.446-2.191,1.968c-1.647,1.18-3.387,1.769-5.223,1.769c-2.584,0-4.357-0.964-5.322-2.894
	c-0.43-0.869-0.69-2.074-0.783-3.615c-0.055-0.897-0.08-1.795-0.08-2.691v-12.053h3.132v12.112c0,2.104,0.147,3.569,0.442,4.399
	c0.51,1.486,1.668,2.23,3.476,2.23c2.209,0,4.366-1.3,6.467-3.897v-14.845H145.382z"/>
<path fill="#FFFFFF" d="M150.985,191.298l0.945-2.471c1.914,0.924,3.602,1.386,5.061,1.386c1.058,0,1.976-0.288,2.752-0.864
	c0.83-0.615,1.246-1.499,1.246-2.65c0-0.924-0.275-1.627-0.824-2.109c-0.469-0.415-1.586-0.958-3.354-1.627
	c-1.406-0.549-2.398-1.011-2.972-1.387c-1.85-1.165-2.774-2.725-2.774-4.68c0-1.834,0.717-3.308,2.15-4.42
	c1.219-0.937,2.786-1.405,4.702-1.405c1.955,0,3.935,0.516,5.945,1.546l-0.945,2.471c-1.5-1.004-3.073-1.506-4.721-1.506
	c-1.07,0-1.947,0.229-2.631,0.683c-0.803,0.522-1.205,1.313-1.205,2.37c0,0.964,0.395,1.728,1.186,2.29
	c0.576,0.402,1.599,0.897,3.072,1.486c1.635,0.657,2.754,1.198,3.355,1.628c1.539,1.058,2.311,2.537,2.311,4.439
	c0,2.008-0.758,3.582-2.27,4.72c-1.34,1.018-3.027,1.526-5.062,1.526C154.983,192.724,152.995,192.249,150.985,191.298"/>
<path fill="#FFFFFF" d="M171.454,161.85c0.764,0,1.354,0.288,1.77,0.864c0.281,0.388,0.422,0.843,0.422,1.365
	c0,0.51-0.141,0.957-0.422,1.346c-0.416,0.576-1.02,0.864-1.809,0.864c-0.777,0-1.373-0.288-1.787-0.864
	c-0.281-0.389-0.422-0.836-0.422-1.346c0-0.522,0.141-0.978,0.422-1.365C170.042,162.138,170.651,161.85,171.454,161.85
	 M169.868,171.471h3.133v20.851h-3.133V171.471z"/>
<path fill="#FFFFFF" d="M180.153,192.322v-14.062c-0.014-3.401-0.066-5.664-0.16-6.789h3.094l0.119,3.334
	c0.791-0.83,1.533-1.499,2.23-2.008c1.58-1.152,3.362-1.728,5.344-1.728c2.637,0,4.445,0.963,5.424,2.892
	c0.428,0.857,0.689,2.063,0.783,3.616c0.053,0.938,0.08,1.835,0.08,2.691v12.053h-3.135V180.21c0-2.09-0.146-3.556-0.441-4.399
	c-0.522-1.487-1.721-2.23-3.596-2.23c-2.263,0-4.467,1.3-6.609,3.897v14.845H180.153z"/>
<path fill="#FFFFFF" d="M205.785,182.741c0.228,2.329,0.763,4.064,1.607,5.202c1.152,1.513,2.854,2.27,5.104,2.27
	c1.914,0,3.816-0.655,5.703-1.968l1.207,2.431c-2.17,1.366-4.494,2.049-6.971,2.049c-3.295,0-5.832-1.078-7.613-3.235
	c-1.555-1.888-2.33-4.419-2.33-7.593c0-3.843,1.037-6.729,3.113-8.657c1.553-1.446,3.541-2.17,5.965-2.17
	c3.711,0,6.201,1.521,7.472,4.561c0.711,1.714,1.092,4.085,1.147,7.111H205.785z M216.853,180.229
	c-0.039-1.54-0.307-2.825-0.803-3.857c-0.896-1.86-2.424-2.791-4.58-2.791c-2.062,0-3.609,0.918-4.64,2.752
	c-0.59,1.058-0.911,2.356-0.963,3.896H216.853z"/>
<path fill="#FFFFFF" d="M224.126,191.298l0.943-2.471c1.916,0.924,3.602,1.386,5.063,1.386c1.056,0,1.974-0.288,2.752-0.864
	c0.83-0.615,1.246-1.499,1.246-2.65c0-0.924-0.275-1.627-0.824-2.109c-0.469-0.415-1.588-0.958-3.356-1.627
	c-1.406-0.549-2.396-1.011-2.972-1.387c-1.848-1.165-2.772-2.725-2.772-4.68c0-1.834,0.717-3.308,2.149-4.42
	c1.218-0.937,2.785-1.405,4.701-1.405c1.955,0,3.937,0.516,5.945,1.546l-0.943,2.471c-1.5-1.004-3.075-1.506-4.721-1.506
	c-1.072,0-1.949,0.229-2.631,0.683c-0.805,0.522-1.205,1.313-1.205,2.37c0,0.964,0.395,1.728,1.184,2.29
	c0.576,0.402,1.601,0.897,3.074,1.486c1.633,0.657,2.752,1.198,3.355,1.628c1.539,1.058,2.309,2.537,2.309,4.439
	c0,2.008-0.756,3.582-2.27,4.72c-1.339,1.018-3.027,1.526-5.062,1.526C228.122,192.724,226.134,192.249,224.126,191.298"/>
<path fill="#FFFFFF" d="M240.817,191.298l0.945-2.471c1.914,0.924,3.602,1.386,5.061,1.386c1.058,0,1.976-0.288,2.752-0.864
	c0.83-0.615,1.246-1.499,1.246-2.65c0-0.924-0.275-1.627-0.824-2.109c-0.469-0.415-1.586-0.958-3.354-1.627
	c-1.406-0.549-2.398-1.011-2.972-1.387c-1.85-1.165-2.774-2.725-2.774-4.68c0-1.834,0.717-3.308,2.15-4.42
	c1.219-0.937,2.786-1.405,4.702-1.405c1.955,0,3.935,0.516,5.945,1.546l-0.945,2.471c-1.5-1.004-3.073-1.506-4.721-1.506
	c-1.07,0-1.947,0.229-2.631,0.683c-0.803,0.522-1.205,1.313-1.205,2.37c0,0.964,0.395,1.728,1.186,2.29
	c0.576,0.402,1.599,0.897,3.072,1.486c1.635,0.657,2.754,1.198,3.355,1.628c1.539,1.058,2.311,2.537,2.311,4.439
	c0,2.008-0.758,3.582-2.27,4.72c-1.34,1.018-3.027,1.526-5.062,1.526C244.815,192.724,242.827,192.249,240.817,191.298"/>
<path fill="#FFFFFF" d="M288.747,188.506l0.824,2.631c-2.719,1.059-5.269,1.587-7.654,1.587c-3.91,0-7.057-1.259-9.441-3.775
	c-2.557-2.705-3.836-6.254-3.836-10.647c0-3.04,0.601-5.731,1.808-8.075c1.338-2.584,3.194-4.438,5.563-5.563
	c1.715-0.804,3.629-1.205,5.746-1.205c2.476,0,5.027,0.589,7.652,1.767l-1.064,2.633c-2.358-1.125-4.534-1.688-6.528-1.688
	c-3.134,0-5.531,1.186-7.191,3.555c-1.662,2.385-2.492,5.25-2.492,8.598c0,2.304,0.429,4.398,1.287,6.287
	c0.924,2.05,2.303,3.535,4.137,4.459c1.259,0.631,2.718,0.944,4.378,0.944C284.173,190.012,286.444,189.51,288.747,188.506"/>
<path fill="#FFFFFF" d="M302.286,171.069c2.959,0,5.35,1.146,7.172,3.436c1.539,1.929,2.311,4.392,2.311,7.392
	c0,3.229-0.893,5.832-2.672,7.814c-1.809,2.009-4.119,3.014-6.932,3.014c-3.039,0-5.471-1.146-7.291-3.437
	c-1.541-1.94-2.31-4.411-2.31-7.411c0-3.24,0.89-5.845,2.671-7.814C297.03,172.067,299.38,171.069,302.286,171.069 M302.085,173.581
	c-1.285,0-2.438,0.395-3.455,1.185c-1.848,1.446-2.772,3.824-2.772,7.131c0,2.29,0.483,4.179,1.446,5.665
	c1.152,1.768,2.773,2.651,4.861,2.651c2.264,0,3.965-1.024,5.104-3.073c0.802-1.419,1.205-3.174,1.205-5.263
	c0-2.29-0.483-4.171-1.448-5.646C305.876,174.465,304.228,173.581,302.085,173.581"/>
<path fill="#FFFFFF" d="M317.372,192.322v-14.062c-0.014-3.401-0.066-5.664-0.16-6.789h3.094l0.119,3.334
	c0.791-0.83,1.533-1.499,2.23-2.008c1.58-1.152,3.362-1.728,5.344-1.728c2.637,0,4.445,0.963,5.424,2.892
	c0.428,0.857,0.689,2.063,0.783,3.616c0.053,0.938,0.08,1.835,0.08,2.691v12.053h-3.135V180.21c0-2.09-0.146-3.556-0.441-4.399
	c-0.522-1.487-1.721-2.23-3.596-2.23c-2.263,0-4.467,1.3-6.609,3.897v14.845H317.372z"/>
<path fill="#FFFFFF" d="M342.401,192.322v-18.34h-3.375v-2.511h3.375v-1.988c0-2.451,0.342-4.232,1.023-5.344
	c0.938-1.526,2.526-2.29,4.762-2.29c0.91,0,1.889,0.134,2.934,0.401l-0.281,2.713c-0.739-0.402-1.536-0.604-2.391-0.604
	c-1.326,0-2.184,0.629-2.572,1.888c-0.227,0.737-0.342,1.902-0.342,3.495v1.729h4.922v2.511h-4.922v18.34H342.401z"/>
<path fill="#FFFFFF" d="M356.121,182.741c0.228,2.329,0.763,4.064,1.607,5.202c1.152,1.513,2.854,2.27,5.104,2.27
	c1.914,0,3.816-0.655,5.703-1.968l1.207,2.431c-2.17,1.366-4.494,2.049-6.971,2.049c-3.295,0-5.832-1.078-7.613-3.235
	c-1.555-1.888-2.33-4.419-2.33-7.593c0-3.843,1.037-6.729,3.113-8.657c1.553-1.446,3.541-2.17,5.965-2.17
	c3.711,0,6.201,1.521,7.472,4.561c0.711,1.714,1.092,4.085,1.147,7.111H356.121z M367.188,180.229
	c-0.039-1.54-0.307-2.825-0.803-3.857c-0.896-1.86-2.424-2.791-4.58-2.791c-2.062,0-3.609,0.918-4.64,2.752
	c-0.59,1.058-0.911,2.356-0.963,3.896H367.188z"/>
<path fill="#FFFFFF" d="M376.069,192.322v-11.892c0-2.732-0.041-5.397-0.121-7.995l-0.02-0.964h2.912l0.122,3.837
	c0.695-1.286,1.445-2.277,2.248-2.974c0.964-0.844,2.17-1.265,3.617-1.265c0.428,0,0.91,0.046,1.445,0.14l-0.281,2.813
	c-0.375-0.08-0.736-0.12-1.084-0.12c-1.555,0-2.92,0.771-4.098,2.31c-0.656,0.884-1.193,1.855-1.607,2.912v13.198H376.069z"/>
<path fill="#FFFFFF" d="M391.617,182.741c0.228,2.329,0.763,4.064,1.607,5.202c1.152,1.513,2.854,2.27,5.104,2.27
	c1.914,0,3.816-0.655,5.703-1.968l1.207,2.431c-2.17,1.366-4.494,2.049-6.971,2.049c-3.295,0-5.832-1.078-7.613-3.235
	c-1.555-1.888-2.33-4.419-2.33-7.593c0-3.843,1.037-6.729,3.113-8.657c1.553-1.446,3.541-2.17,5.965-2.17
	c3.711,0,6.201,1.521,7.472,4.561c0.711,1.714,1.092,4.085,1.147,7.111H391.617z M402.685,180.229
	c-0.039-1.54-0.307-2.825-0.803-3.857c-0.896-1.86-2.424-2.791-4.58-2.791c-2.062,0-3.609,0.918-4.64,2.752
	c-0.59,1.058-0.911,2.356-0.963,3.896H402.685z"/>
<path fill="#FFFFFF" d="M411.524,192.322v-14.062c-0.014-3.401-0.066-5.664-0.16-6.789h3.094l0.119,3.334
	c0.791-0.83,1.533-1.499,2.23-2.008c1.58-1.152,3.362-1.728,5.344-1.728c2.637,0,4.445,0.963,5.424,2.892
	c0.427,0.857,0.689,2.063,0.783,3.616c0.053,0.938,0.08,1.835,0.08,2.691v12.053h-3.135V180.21c0-2.09-0.146-3.556-0.441-4.399
	c-0.522-1.487-1.721-2.23-3.596-2.23c-2.263,0-4.467,1.3-6.609,3.897v14.845H411.524z"/>
<path fill="#FFFFFF" d="M448.706,188.365l1.205,2.431c-1.887,1.285-3.996,1.929-6.326,1.929c-3,0-5.352-0.917-7.051-2.752
	c-1.781-1.929-2.672-4.554-2.672-7.875c0-3.655,0.944-6.468,2.832-8.437c1.647-1.728,3.85-2.591,6.61-2.591
	c2.154,0,4.229,0.555,6.226,1.667l-1.185,2.47c-1.688-1.084-3.375-1.627-5.063-1.627c-2.035,0-3.568,0.737-4.599,2.21
	c-1.018,1.46-1.528,3.43-1.528,5.906c0,2.665,0.604,4.788,1.809,6.367c1.111,1.433,2.664,2.15,4.66,2.15
	C445.392,190.214,447.087,189.598,448.706,188.365"/>
<path fill="#FFFFFF" d="M456.119,182.741c0.228,2.329,0.763,4.064,1.606,5.202c1.152,1.513,2.854,2.27,5.104,2.27
	c1.914,0,3.815-0.655,5.703-1.968l1.207,2.431c-2.17,1.366-4.494,2.049-6.972,2.049c-3.295,0-5.832-1.078-7.612-3.235
	c-1.556-1.888-2.33-4.419-2.33-7.593c0-3.843,1.037-6.729,3.112-8.657c1.554-1.446,3.541-2.17,5.966-2.17
	c3.711,0,6.2,1.521,7.472,4.561c0.711,1.714,1.092,4.085,1.146,7.111H456.119z M467.186,180.229
	c-0.039-1.54-0.307-2.825-0.803-3.857c-0.896-1.86-2.424-2.791-4.58-2.791c-2.062,0-3.608,0.918-4.64,2.752
	c-0.59,1.058-0.911,2.356-0.963,3.896H467.186z"/>
<path fill="#FFFFFF" d="M505.073,188.506l0.824,2.631c-2.719,1.059-5.269,1.587-7.654,1.587c-3.909,0-7.057-1.259-9.44-3.775
	c-2.557-2.705-3.836-6.254-3.836-10.647c0-3.04,0.601-5.731,1.808-8.075c1.338-2.584,3.194-4.438,5.563-5.563
	c1.715-0.804,3.629-1.205,5.746-1.205c2.476,0,5.026,0.589,7.651,1.767l-1.063,2.633c-2.358-1.125-4.534-1.688-6.528-1.688
	c-3.134,0-5.531,1.186-7.191,3.555c-1.661,2.385-2.491,5.25-2.491,8.598c0,2.304,0.429,4.398,1.287,6.287
	c0.924,2.05,2.303,3.535,4.137,4.459c1.259,0.631,2.718,0.944,4.378,0.944C500.5,190.012,502.77,189.51,505.073,188.506"/>
<path fill="#FFFFFF" d="M510.456,192.322v-30.071h3.136v12.454c2.289-2.424,4.787-3.635,7.491-3.635
	c2.625,0,4.435,0.963,5.425,2.892c0.428,0.857,0.688,2.063,0.782,3.616c0.054,0.938,0.08,1.835,0.08,2.691v12.053h-3.133V180.21
	c0-2.09-0.147-3.556-0.44-4.399c-0.511-1.487-1.709-2.23-3.597-2.23c-2.276,0-4.479,1.3-6.608,3.897v14.845H510.456z"/>
<path fill="#FFFFFF" d="M535.948,161.85c0.765,0,1.353,0.288,1.769,0.864c0.28,0.388,0.422,0.843,0.422,1.365
	c0,0.51-0.142,0.957-0.422,1.346c-0.416,0.576-1.019,0.864-1.81,0.864c-0.774,0-1.373-0.288-1.787-0.864
	c-0.28-0.389-0.422-0.836-0.422-1.346c0-0.522,0.142-0.978,0.422-1.365C534.534,162.138,535.145,161.85,535.948,161.85
	 M534.36,171.471h3.135v20.851h-3.135V171.471z"/>
<path fill="#FFFFFF" d="M544.645,192.322v-14.062c-0.012-3.401-0.065-5.664-0.159-6.789h3.094l0.121,3.334
	c0.789-0.83,1.532-1.499,2.228-2.008c1.58-1.152,3.362-1.728,5.344-1.728c2.64,0,4.445,0.963,5.425,2.892
	c0.428,0.857,0.688,2.063,0.782,3.616c0.054,0.938,0.08,1.835,0.08,2.691v12.053h-3.133V180.21c0-2.09-0.147-3.556-0.44-4.399
	c-0.524-1.487-1.724-2.23-3.597-2.23c-2.264,0-4.467,1.3-6.608,3.897v14.845H544.645z"/>
<path fill="#FFFFFF" d="M579.598,189.892c-0.709,0.764-1.392,1.346-2.049,1.747c-1.205,0.724-2.597,1.085-4.177,1.085
	c-2.185,0-3.851-0.615-5.002-1.848c-1.019-1.085-1.528-2.518-1.528-4.299c0-2.758,1.159-4.713,3.478-5.865
	c1.352-0.684,3.358-1.025,6.024-1.025c0.549,0,1.553,0.028,3.014,0.081v-0.563c0-1.513-0.194-2.664-0.584-3.455
	c-0.694-1.446-2.073-2.169-4.137-2.169c-1.687,0-3.481,0.602-5.384,1.807l-1.366-2.249c2.185-1.379,4.547-2.069,7.092-2.069
	c3.16,0,5.322,0.944,6.488,2.832c0.549,0.898,0.87,2.184,0.963,3.857c0.041,0.589,0.062,1.439,0.062,2.551v6.811
	c-0.015,2.009,0.041,3.742,0.159,5.203h-2.911L579.598,189.892z M579.358,182.157c-0.735-0.053-1.521-0.079-2.352-0.079
	c-2.222,0-3.843,0.295-4.861,0.884c-1.338,0.763-2.008,1.941-2.008,3.535c0,1.125,0.334,2.021,1.004,2.691
	c0.697,0.684,1.627,1.024,2.793,1.024c2.183,0,3.99-1.063,5.424-3.194V182.157z"/>
<path fill="#FFFFFF" d="M599.004,192.322v-2.873c4.353-3.91,7.525-6.989,9.521-9.239c1.793-2.035,3.066-3.776,3.816-5.223
	c0.709-1.407,1.064-2.739,1.064-3.998c0-1.433-0.529-2.584-1.588-3.455c-1.164-0.964-2.684-1.445-4.559-1.445
	c-2.143,0-4.346,0.703-6.609,2.108l-0.824-2.812c2.625-1.286,5.237-1.93,7.834-1.93c2.545,0,4.635,0.563,6.268,1.688
	c1.875,1.273,2.813,3.154,2.813,5.645c0,1.875-0.543,3.736-1.627,5.584c-1.271,2.21-3.755,5.163-7.453,8.859
	c-1.42,1.42-2.986,2.88-4.699,4.379h14.022v2.712H599.004z"/>
<path fill="#FFFFFF" d="M632.067,163.456c6.428,0,9.644,4.875,9.644,14.625c0,4.365-0.615,7.72-1.849,10.063
	c-1.621,3.053-4.265,4.58-7.935,4.58c-3.991,0-6.771-1.795-8.336-5.384c-0.978-2.25-1.467-5.344-1.467-9.28
	c0-4.353,0.616-7.694,1.849-10.024C625.593,164.982,628.292,163.456,632.067,163.456 M631.827,166.169
	c-1.364,0-2.563,0.449-3.596,1.346c-1.847,1.607-2.771,5.135-2.771,10.586c0,3.991,0.461,6.89,1.385,8.698
	c1.086,2.142,2.779,3.214,5.082,3.214c2.492,0,4.265-1.266,5.324-3.797c0.75-1.769,1.125-4.486,1.125-8.155
	c0-3.991-0.464-6.884-1.388-8.678C635.905,167.239,634.184,166.169,631.827,166.169"/>
<polygon fill="#FFFFFF" points="655.329,192.322 655.329,167.434 649.524,171.13 648.138,168.619 655.651,163.858 658.503,163.858 
	658.503,192.322 "/>
<path fill="#FFFFFF" d="M671.881,192.685l0.16-2.673c0.67,0.054,1.232,0.081,1.688,0.081c3.845,0,6.716-1.413,8.617-4.238
	c1.272-1.875,2.09-4.313,2.451-7.313c-1.742,2.197-4.025,3.295-6.849,3.295c-1.769,0-3.369-0.469-4.802-1.407
	c-2.385-1.565-3.575-4.077-3.575-7.532c0-2.825,0.877-5.108,2.631-6.85c1.754-1.728,4.004-2.591,6.75-2.591
	c2.356,0,4.304,0.608,5.845,1.827c2.383,1.888,3.575,5.197,3.575,9.924c0,4.057-0.784,7.586-2.351,10.586
	c-1.459,2.759-3.446,4.68-5.965,5.766c-1.821,0.776-3.951,1.164-6.389,1.164C673.416,192.724,672.818,192.711,671.881,192.685
	 M678.811,166.088c-1.741,0-3.159,0.583-4.258,1.748s-1.647,2.772-1.647,4.821c0,1.981,0.51,3.555,1.526,4.72
	c1.084,1.219,2.531,1.828,4.338,1.828c1.836,0,3.314-0.603,4.439-1.808c1.112-1.166,1.668-2.766,1.668-4.802
	c0-2.021-0.548-3.608-1.646-4.76C682.119,166.671,680.645,166.088,678.811,166.088"/>
</svg>
