<?xml version="1.0" encoding="utf-8"?>
<!-- Generator: Adobe Illustrator 16.0.0, SVG Export Plug-In . SVG Version: 6.00 Build 0)  -->
<!DOCTYPE svg PUBLIC "-//W3C//DTD SVG 1.1//EN" "http://www.w3.org/Graphics/SVG/1.1/DTD/svg11.dtd">
<svg version="1.1" id="图层_1" xmlns="http://www.w3.org/2000/svg" xmlns:xlink="http://www.w3.org/1999/xlink" x="0px" y="0px"
	 width="200px" height="85px" viewBox="0 0 200 85" enable-background="new 0 0 200 85" xml:space="preserve">
<g>
	<rect y="0.166" fill="#FFFFFF" width="200" height="84.668"/>
	<g>
		<defs>
			<rect id="SVGID_1_" y="0.167" width="200" height="84.667"/>
		</defs>
		<clipPath id="SVGID_2_">
			<use xlink:href="#SVGID_1_"  overflow="visible"/>
		</clipPath>
		<path clip-path="url(#SVGID_2_)" d="M107.592,54.037c-0.153,0-0.271,0.051-0.352,0.156c-0.152,0.195-0.163,0.424-0.037,0.684
			c0.284,0.574,1.206,1.141,1.861,1.141c0.23,0,0.401-0.068,0.508-0.205c0.07-0.088,0.009-0.25-0.035-0.34
			C109.247,54.871,108.213,54.037,107.592,54.037 M166.455,54.088c-0.213,0-0.381,0.059-0.454,0.152
			c-0.141,0.188-0.062,0.443,0.028,0.625c0.339,0.68,1.325,1.396,1.92,1.396c0.173,0,0.304-0.059,0.39-0.178
			c0.172-0.244-0.021-1.031-0.572-1.467C167.342,54.283,166.863,54.088,166.455,54.088 M77.813,61.426l0.032-0.145
			c0.206-0.973,0.71-1.729,1.418-2.125c0.107-0.063,0.23-0.092,0.356-0.092c0.255,0,0.477,0.127,0.551,0.316
			c0.05,0.127,0.075,0.389-0.303,0.74c-0.432,0.396-1.059,0.803-1.923,1.238L77.813,61.426z M175.909,62.256l-0.008-0.076
			c-0.103-0.941,0.571-1.521,1.237-1.748c0.107-0.037,0.218-0.057,0.331-0.057c0.292,0,0.54,0.129,0.642,0.338
			c0.097,0.189,0.054,0.42-0.119,0.646c-0.418,0.551-1.438,0.789-2.01,0.883L175.909,62.256z M67.891,63.334
			c-0.155,0-0.24-0.07-0.284-0.127c-0.085-0.115-0.098-0.293-0.035-0.502c0.196-0.656,1.626-2.775,2.296-2.775
			c0.182,0,0.354,0.102,0.472,0.277c0.169,0.252,0.194,0.602,0.063,0.912C69.986,62.123,68.772,63.334,67.891,63.334 M139.65,64.277
			c-0.403,0-0.752-0.158-0.983-0.438c-0.245-0.299-0.339-0.711-0.256-1.133c0.145-0.734,1.012-1.629,1.818-1.629
			c0.344,0,0.643,0.129,0.868,0.371c0.301,0.322,0.413,0.779,0.392,1.068C141.422,63.453,140.563,64.277,139.65,64.277
			 M107.01,58.887c-0.391,0-0.63,0.275-0.804,0.924c-0.471,1.789-0.398,3.365,0.201,4.328c0.31,0.496,0.738,0.801,1.272,0.908
			c0.303,0.059,0.551,0.012,0.633-0.115c0.05-0.08,0.029-0.164,0.003-0.223c-0.453-0.992-0.582-2.744,0.041-4.168
			c0.315-0.719,0.162-1.109-0.568-1.436C107.464,58.959,107.21,58.887,107.01,58.887 M101.45,62.33l0.009,0.152
			c0.074,1.729,1.252,2.596,1.813,2.746c0.325,0.088,0.602,0.043,0.682-0.102c0.041-0.072,0.03-0.168-0.03-0.271
			c-0.777-1.32-0.303-3.795-0.244-4.072c0.172-0.84-0.268-1.107-0.731-1.395l-0.023-0.012c-0.215-0.133-0.439-0.205-0.63-0.205
			c-0.144,0-0.329,0.041-0.41,0.229c-0.645,1.5-2.722,3.713-3.73,3.713c-0.299,0-0.521-0.109-0.655-0.324
			c-0.341-0.537-0.047-1.615,0.342-2.445c0.254-0.539,0.116-0.879-0.484-1.213c-0.295-0.162-0.574-0.25-0.809-0.25
			c-0.302,0-0.515,0.137-0.634,0.402c-0.183,0.4-0.545,1.416-0.752,2.68c-0.094,0.572,0.099,1.174,0.544,1.699
			c0.527,0.617,1.323,1.035,1.983,1.035c0.864,0,2.057-0.738,3.65-2.262L101.45,62.33z M56.335,58.191
			c-0.436,0-0.642,0.295-0.836,0.773c-0.397,0.975-0.909,3.023-1.121,4.475c-0.132,0.91,0.118,1.236,0.771,1.66
			c0.748,0.484,1.505,0.506,1.923,0.043c0.182-0.201,0.369-0.412,0.56-0.627c0.852-0.961,1.816-2.049,2.65-2.65
			c0.2-0.146,0.429-0.055,0.522,0.197c0.993,2.666,2.621,3.064,3.503,3.064c0.123,0,0.249-0.008,0.373-0.023
			c0.322-0.039,0.508-0.266,0.497-0.455c-0.007-0.119-0.099-0.191-0.248-0.191l-0.042,0.002c-1.323,0-1.594-1.316-1.97-3.139
			l-0.04-0.186c-0.127-0.617-0.568-1.08-1.276-1.342c-0.194-0.074-0.372-0.109-0.536-0.109c-0.365,0-0.612,0.178-0.854,0.35
			c-0.679,0.486-1.626,1.463-2.389,2.246c-0.703,0.729-1.049,1.078-1.182,1.111l-0.103,0.023l0.018-0.105
			c0.113-0.732,0.522-2.422,1.133-3.822c0.081-0.189,0.09-0.365,0.023-0.531c-0.096-0.238-0.348-0.449-0.728-0.607
			C56.734,58.242,56.515,58.191,56.335,58.191 M145.532,59.893c-0.154,0-0.358,0.027-0.454,0.16
			c-0.069,0.092-0.077,0.225-0.026,0.395c0.259,0.848-0.072,2.414-0.269,3.348c-0.029,0.145-0.056,0.27-0.077,0.375
			c-0.146,0.764,0.203,0.967,0.688,1.252c0.226,0.135,0.461,0.207,0.666,0.207c0.2,0,0.465-0.074,0.578-0.426
			c0.546-1.732,2.096-4.666,6.316-4.855c0.115-0.004,0.199-0.08,0.22-0.197c0.03-0.164-0.066-0.383-0.346-0.506
			c-0.275-0.119-0.634-0.18-1.067-0.18c-1.351,0-3.117,0.588-4.397,1.463l-0.079,0.055l-0.028-0.09
			c-0.04-0.135-0.687-0.787-1.313-0.945C145.801,59.912,145.66,59.893,145.532,59.893 M52.313,52.246
			c-0.483,0-0.719,0.324-0.776,0.627c-0.092,0.484-0.263,1.229-0.458,2.088c-0.515,2.232-1.219,5.291-1.395,7.479
			c-0.224,2.771,0.394,3.365,1.093,3.592c0.166,0.055,0.308,0.039,0.394-0.047c0.076-0.078,0.114-0.211,0.112-0.398
			c-0.021-2.373,1.568-8.838,2.391-11.492c0.31-1,0.04-1.346-0.564-1.635C52.811,52.318,52.543,52.246,52.313,52.246
			 M163.319,62.938l-0.011,0.223c-0.054,1.336,0.308,2.264,1.109,2.834c0.196,0.141,0.439,0.229,0.638,0.229
			c0.118,0,0.207-0.033,0.252-0.09c0.043-0.057,0.049-0.139,0.019-0.244c-0.313-1.145-0.191-2.645,0.333-4.109
			c0.27-0.752,0.385-1.197-0.387-1.629c-0.59-0.328-1.015-0.34-1.251-0.012c-0.023,0.031-0.048,0.066-0.07,0.104l-0.05,0.07
			c-1.357,1.986-3.439,4.303-4.846,4.303c-0.223,0-0.41-0.08-0.557-0.244c-0.302-0.324-0.415-0.949-0.34-1.855
			c0.189-2.311,1.195-5.658,2.238-7.457c0.263-0.449,0.335-0.727,0.239-0.898c-0.09-0.156-0.346-0.24-0.767-0.248h-0.049
			c-0.985,0-1.351,0.512-1.581,1.018c-0.878,1.934-1.933,4.881-1.985,7.949c-0.014,0.813,0.264,1.51,0.82,2.078
			c0.742,0.754,1.734,1.031,2.219,1.031c1.479,0,3.07-1.803,3.889-2.873L163.319,62.938z M131.24,62.26l-0.017,0.104
			c-0.307,1.875-0.459,3.75-0.407,5.018c0.062,1.445,0.345,2.303,0.868,2.621c0.135,0.082,0.32,0.137,0.482,0.137
			c0.103,0,0.243-0.021,0.331-0.121c0.069-0.078,0.097-0.195,0.081-0.35c-0.194-1.781,0.062-4.75,0.668-7.748l0.01-0.049l0.05-0.006
			c1.018-0.164,2.091-0.299,3.104-0.385l0.167-0.018l-0.107,0.131c-0.207,0.256-0.309,0.631-0.309,1.146
			c0,1.154,1.506,2.828,3.867,2.828c1.393,0,3.077-1.215,3.077-2.725c0-1.932-1.617-3.227-3.123-3.227
			c-0.616,0-1.255,0.281-1.752,0.777l-0.021,0.02h-0.03c-0.374-0.004-0.747-0.008-1.118-0.008c-1.238,0-2.384,0.031-3.408,0.092
			l-0.094,0.006l0.021-0.09c0.518-2.133,1.137-3.896,1.788-5.102c0.263-0.482,0.438-0.701,0.794-0.74
			c0.027-0.002,0.054-0.004,0.078-0.004c0.344,0,0.626,0.248,0.837,0.736c0.041,0.094,0.131,0.193,0.257,0.193
			c0.122,0,0.256-0.092,0.388-0.264c0.166-0.223,0.218-0.574,0.136-0.941c-0.116-0.51-0.466-0.947-0.959-1.201
			c-0.457-0.236-0.871-0.357-1.231-0.357c-0.521,0-0.956,0.248-1.323,0.756c-1.475,2.031-2.335,5.01-2.796,7.152l-0.01,0.049
			l-0.052,0.006c-1.601,0.201-2.886,0.514-3.819,0.93c-0.25,0.111-0.385,0.24-0.396,0.379c-0.017,0.186,0.173,0.418,0.549,0.67
			c0.586,0.395,1.055,0.451,1.523,0.191c0.335-0.184,0.954-0.387,1.793-0.582L131.24,62.26z M168.77,62.826l-0.013,0.084
			c-0.351,2.188-0.5,4.258-0.401,5.535c0.13,1.711,0.672,2.203,1.066,2.428c0.322,0.184,0.645,0.238,0.756,0.111
			c0.056-0.061,0.075-0.168,0.056-0.316c-0.239-2.068-0.054-5.016,0.51-8.086l0.009-0.047l0.047-0.01
			c0.937-0.193,1.943-0.449,2.833-0.721l0.104-0.031l-0.014,0.107c-0.088,0.688,0.22,1.49,0.844,2.195
			c1.168,1.326,3.17,2.086,5.492,2.086c1.354,0,2.532-0.529,2.937-0.906c0.171-0.164,0.228-0.344,0.19-0.432
			c-0.029-0.076-0.14-0.096-0.303-0.051c-0.851,0.24-1.695,0.363-2.51,0.363c-1.846,0-3.313-0.633-4.025-1.73l-0.063-0.096
			l0.113-0.012c1.417-0.164,3.142-0.979,3.417-1.613c0.24-0.557,0.054-1.035-0.146-1.342c-0.435-0.66-1.337-1.141-2.146-1.141
			c-1.017,0-2.264,0.529-3.035,1.287l-0.013,0.014l-0.02,0.006c-1.129,0.281-2.278,0.504-3.326,0.643l-0.102,0.012l0.021-0.098
			c0.455-2.045,1.029-3.887,1.659-5.324c0.2-0.459,0.4-0.75,0.774-0.77c0.347-0.025,0.618,0.203,0.774,0.635
			c0.052,0.143,0.151,0.234,0.256,0.234c0.12,0,0.241-0.113,0.344-0.322c0.211-0.424,0.043-1.328-0.711-1.834
			c-0.462-0.313-0.897-0.469-1.295-0.469c-0.495,0-0.922,0.252-1.229,0.734c-1.026,1.604-1.938,4.197-2.568,7.307l-0.011,0.057
			h-0.091c-0.436,0-0.817-0.025-1.136-0.08c-0.313-0.051-0.522-0.004-0.598,0.137c-0.101,0.188,0.013,0.549,0.311,0.99
			c0.282,0.424,0.671,0.477,1.156,0.467L168.77,62.826z M67.125,74.779c-0.27,0-0.497-0.119-0.657-0.35
			c-0.247-0.352-0.542-1.273,0.258-3.486c0.521-1.439,1.479-2.736,2.935-3.973l0.119-0.102l-0.004,0.158
			C69.649,71.592,68.56,74.779,67.125,74.779 M119.03,63.648l-0.047,0.105c-0.391,0.82-0.765,1.721-1.156,2.674
			c-1.102,2.67-2.351,5.695-4.67,8.732c-0.106,0.139-0.138,0.266-0.091,0.359c0.041,0.092,0.161,0.146,0.313,0.146
			c0.162,0,0.349-0.061,0.523-0.174c1.551-0.988,3.758-4.299,6.054-9.086c1.732-3.607,2.854-4.805,3.756-5.766
			c0.108-0.119,0.216-0.23,0.317-0.344c0.142-0.154,0.192-0.303,0.159-0.439c-0.058-0.221-0.347-0.434-0.815-0.596
			c-0.649-0.225-1.142-0.139-1.498,0.262l-0.043,0.047c-1.173,1.334-2.719,2.922-3.403,2.922c-0.178,0-0.322-0.063-0.432-0.18
			c-0.33-0.359-0.267-1.156-0.22-1.736c0.009-0.102,0.016-0.193,0.02-0.271c0.027-0.5-0.25-0.756-0.954-0.883
			c-0.535-0.098-2.313-0.209-3.672-0.275l-0.082-0.006l0.015-0.08c0.387-2.039,1.019-4.027,1.571-4.949
			c0.208-0.348,0.362-0.629,0.282-0.826c-0.066-0.162-0.303-0.289-0.745-0.4c-0.18-0.047-0.345-0.068-0.494-0.068
			c-0.716,0-0.934,0.535-1.079,0.891c-0.661,1.635-1.176,3.512-1.451,5.299l-0.01,0.061l-0.063-0.002
			c-0.36-0.01-0.663-0.016-0.872-0.01c-0.246,0.002-0.394,0.049-0.455,0.145c-0.056,0.088-0.043,0.229,0.04,0.42
			c0.126,0.297,0.442,0.822,1.113,1.012l0.054,0.018l-0.002,0.059c-0.029,0.4-0.045,0.801-0.047,1.186
			c-0.017,1.969,0.576,3.131,1.71,3.359c0.045,0.01,0.096,0.012,0.148,0.012c0.149,0,0.347-0.039,0.413-0.15
			c0.038-0.066,0.025-0.158-0.039-0.27c-0.565-0.998-0.479-2.877-0.31-4.275l0.007-0.053l0.054-0.008
			c0.744-0.109,1.681-0.238,2.327-0.25h0.02c0.149,0,0.254,0.035,0.32,0.107c0.085,0.088,0.092,0.223,0.083,0.352
			c-0.019,0.299-0.023,1.324,0.687,2.082c0.556,0.59,1.414,0.879,2.551,0.852L119.03,63.648z M69.705,63.582l0.011,0.18
			c0.034,0.559,0.056,1.104,0.065,1.619v0.039l-0.031,0.021c-2.422,1.623-3.929,3.375-4.604,5.355
			c-0.522,1.535-0.435,3.008,0.233,3.941c0.456,0.637,1.137,0.975,1.974,0.975c1.438,0,2.571-1.094,3.369-3.25
			c0.828-2.234,1.093-5.07,1.168-7.057l0.002-0.035l0.032-0.021c1.054-0.648,2.298-1.291,3.694-1.91l0.053-0.025l0.034,0.049
			c0.634,0.932,2.073,1.875,3.602,1.875c1.885,0,3.72-1.455,4.424-2.08l0.093-0.082l0.022,0.121c0.11,0.568,0.438,1.014,0.995,1.359
			c0.915,0.568,1.635,0.578,2.189,0.021c0.409-0.414,0.733-0.795,1.02-1.129c0.484-0.568,0.902-1.057,1.567-1.518
			c0.283-0.199,0.568-0.119,0.755,0.199c1.131,1.934,2.428,3.01,3.754,3.109c0.396,0.027,0.719-0.086,0.77-0.266
			c0.034-0.121-0.066-0.264-0.274-0.395c-0.846-0.527-1.575-1.588-2.23-3.246c-0.225-0.563-0.521-0.92-1.529-1.314
			c-0.192-0.074-0.366-0.109-0.528-0.109c-0.339,0-0.577,0.162-0.811,0.318l-0.062,0.043c-0.696,0.465-1.535,1.336-2.146,1.971
			c-0.279,0.289-0.519,0.537-0.674,0.676c-0.265,0.232-0.466,0.277-0.585,0.152c-0.089-0.094-0.102-0.26-0.099-0.385
			c0.035-0.945,0.3-1.902,0.86-3.105c0.099-0.213,0.111-0.404,0.039-0.572c-0.099-0.232-0.354-0.428-0.741-0.561
			c-0.245-0.088-0.45-0.129-0.629-0.129c-0.464,0-0.679,0.297-0.86,0.744c-0.326,0.805-0.504,1.445-0.672,2.441l-0.005,0.023
			l-0.017,0.016c-1.68,1.643-3.167,2.477-4.417,2.477c-0.978,0-1.616-0.566-1.746-1.555l-0.009-0.053l0.05-0.021
			c1.381-0.623,2.75-1.311,3.401-2.102c0.474-0.582,0.384-1.102,0.224-1.438c-0.296-0.627-1.095-1.117-1.815-1.117
			c-0.914,0-4.269,1.688-4.274,4.639v0.047l-0.043,0.02c-0.807,0.352-2.019,0.893-3.216,1.521l-0.119,0.064l0.017-0.135
			c0.201-1.689,0.681-3.051,0.905-3.535c0.151-0.324,0.191-0.543,0.13-0.713c-0.066-0.174-0.241-0.313-0.61-0.479
			c-0.464-0.211-0.935-0.162-1.274,0.125l-0.062,0.055l-0.043-0.072c-0.004-0.006-0.425-0.664-1.282-0.664
			c-1.768,0-4.366,3.043-4.559,4.24c-0.049,0.313,0.052,0.621,0.302,0.912c0.474,0.553,1.444,0.965,2.193,0.922
			c0.747-0.047,1.511-0.58,1.905-1.061L69.705,63.582z"/>
		<path clip-path="url(#SVGID_2_)" fill-rule="evenodd" clip-rule="evenodd" fill="#009AA2" d="M21.465,42.187V38.06
			c2.35,0.741,4.428,1.11,6.235,1.11c2.496,0,3.745-0.659,3.745-1.978c0-0.493-0.184-0.905-0.546-1.24
			c-0.374-0.354-1.328-0.847-2.859-1.476c-2.749-1.131-4.544-2.096-5.378-2.894c-1.08-1.052-1.62-2.379-1.62-3.984
			c0-2.065,0.787-3.64,2.36-4.722c1.559-1.074,3.583-1.609,6.084-1.609c1.378,0,3.371,0.254,5.979,0.762v3.969
			c-1.939-0.774-3.74-1.161-5.404-1.161c-2.344,0-3.515,0.642-3.515,1.934c0,0.481,0.234,0.875,0.708,1.18
			c0.394,0.246,1.477,0.769,3.246,1.565c2.55,1.133,4.249,2.117,5.094,2.953c1.004,0.994,1.507,2.279,1.507,3.854
			c0,2.265-0.986,3.991-2.953,5.182c-1.595,0.964-3.662,1.445-6.202,1.445C25.801,42.947,23.64,42.694,21.465,42.187"/>
		<polygon clip-path="url(#SVGID_2_)" fill-rule="evenodd" clip-rule="evenodd" fill="#009AA2" points="40.396,21.629 
			40.396,21.629 46.232,21.629 46.232,42.524 40.396,42.524 		"/>
		<polygon clip-path="url(#SVGID_2_)" fill-rule="evenodd" clip-rule="evenodd" fill="#009AA2" points="51.586,42.524 
			51.586,21.629 66.556,21.629 66.556,25.408 57.211,25.408 57.211,30.126 65.346,30.126 65.346,33.575 57.211,33.575 
			57.211,38.532 66.797,38.532 66.797,42.524 		"/>
		<polygon clip-path="url(#SVGID_2_)" fill-rule="evenodd" clip-rule="evenodd" fill="#009AA2" points="70.606,42.524 
			70.606,21.629 78.174,21.629 83.432,34.981 88.822,21.629 96.009,21.629 96.009,42.524 90.477,42.524 90.477,27.729 
			84.348,42.736 80.73,42.736 74.719,27.729 74.719,42.524 		"/>
		<polygon clip-path="url(#SVGID_2_)" fill-rule="evenodd" clip-rule="evenodd" fill="#009AA2" points="101.363,42.524 
			101.363,21.629 116.333,21.629 116.333,25.408 106.988,25.408 106.988,30.126 115.123,30.126 115.123,33.575 106.988,33.575 
			106.988,38.532 116.574,38.532 116.574,42.524 		"/>
		<polygon clip-path="url(#SVGID_2_)" fill-rule="evenodd" clip-rule="evenodd" fill="#009AA2" points="120.416,42.524 
			120.416,21.629 127.181,21.629 134.357,35.617 134.357,21.629 138.47,21.629 138.47,42.524 131.896,42.524 124.527,28.349 
			124.527,42.524 		"/>
		<path clip-path="url(#SVGID_2_)" fill-rule="evenodd" clip-rule="evenodd" fill="#009AA2" d="M142.612,42.187V38.06
			c2.328,0.741,4.407,1.11,6.235,1.11c2.497,0,3.746-0.659,3.746-1.978c0-0.493-0.178-0.905-0.53-1.24
			c-0.375-0.354-1.334-0.847-2.874-1.476c-2.742-1.123-4.537-2.085-5.38-2.894c-1.08-1.044-1.619-2.375-1.619-4
			c0-2.055,0.785-3.625,2.362-4.707c1.554-1.074,3.583-1.609,6.083-1.609c1.406,0,3.229,0.224,5.464,0.673l0.515,0.089v3.969
			c-1.94-0.774-3.748-1.161-5.421-1.161c-2.335,0-3.498,0.642-3.498,1.934c0,0.481,0.235,0.875,0.704,1.18
			c0.376,0.237,1.464,0.758,3.264,1.565c2.53,1.133,4.225,2.117,5.079,2.953c1.005,0.994,1.506,2.279,1.506,3.854
			c0,2.265-0.979,3.991-2.938,5.182c-1.603,0.964-3.677,1.445-6.214,1.445C146.949,42.947,144.787,42.694,142.612,42.187"/>
	</g>
</g>
</svg>
