<?xml version="1.0" encoding="utf-8"?>
<!-- Generator: Adobe Illustrator 16.0.0, SVG Export Plug-In . SVG Version: 6.00 Build 0)  -->
<!DOCTYPE svg PUBLIC "-//W3C//DTD SVG 1.1//EN" "http://www.w3.org/Graphics/SVG/1.1/DTD/svg11.dtd">
<svg version="1.1" id="图层_1" xmlns="http://www.w3.org/2000/svg" xmlns:xlink="http://www.w3.org/1999/xlink" x="0px" y="0px"
	 width="901.888px" height="922.454px" viewBox="0 0 901.888 922.454" enable-background="new 0 0 901.888 922.454"
	 xml:space="preserve">
<g>
	<path fill="#040000" d="M279.889,303.534l4.458-7.952l-0.74-13.177l2.407,1.35l0.385,7.931c0.054,0.959,0.07,1.874,0.051,2.747
		c1.036-0.641,1.845-1.121,2.428-1.438l6.883-3.775l2.244,1.257l-11.612,6.252l-4.458,7.953L279.889,303.534z"/>
	<path fill="#040000" d="M297.974,311.689c-1.746,0.56-3.361,0.425-4.85-0.409c-1.354-0.759-2.174-1.722-2.461-2.888
		c-0.254-1.025-0.071-2.093,0.548-3.196c1.598-2.852,4.349-3.183,8.255-0.993c0.316,0.177,0.943,0.55,1.88,1.12l0.195-0.349
		c0.526-0.939,0.808-1.728,0.848-2.359c0.07-1.141-0.535-2.07-1.813-2.787c-1.048-0.586-2.37-0.836-3.97-0.75l-0.07-1.859
		c1.83-0.108,3.539,0.28,5.125,1.17c1.961,1.101,2.975,2.438,3.041,4.016c0.028,0.748-0.22,1.656-0.743,2.728
		c-0.186,0.39-0.47,0.927-0.857,1.617l-2.368,4.226c-0.744,1.329-1.315,2.425-1.71,3.284l-1.808-1.013L297.974,311.689z
		 M300.514,306.806c-0.455-0.299-0.928-0.586-1.418-0.86c-1.388-0.778-2.5-1.16-3.336-1.149c-1.098,0.008-1.923,0.506-2.476,1.495
		c-0.393,0.699-0.498,1.371-0.314,2.02c0.194,0.666,0.653,1.201,1.376,1.606c1.355,0.76,2.847,0.729,4.479-0.094L300.514,306.806z"
		/>
	<path fill="#040000" d="M303.373,316.697l4.892-8.726c1.104-1.969,1.856-3.392,2.261-4.269l1.92,1.075l-1.078,2.101
		c0.779-0.242,1.474-0.398,2.082-0.473c1.391-0.159,2.695,0.103,3.917,0.786c1.638,0.918,2.423,2.146,2.359,3.683
		c-0.043,0.915-0.599,2.324-1.664,4.227l-4.193,7.479l-1.944-1.091l4.214-7.517c0.726-1.297,1.146-2.261,1.263-2.895
		c0.192-1.105-0.293-1.983-1.457-2.636c-1.396-0.783-3.216-0.737-5.463,0.133l-5.163,9.212L303.373,316.697z"/>
	<path fill="#040000" d="M333.586,316.629l1.895,1.063c-1.235,2.049-2.221,3.729-2.956,5.042l-3.627,6.469
		c-0.82,1.463-1.528,2.524-2.127,3.182c-0.959,1.046-2.181,1.628-3.666,1.746c-1.24,0.09-2.491-0.218-3.756-0.927
		c-1.729-0.968-3.099-2.354-4.109-4.154l1.674-1.026c0.809,1.634,1.896,2.832,3.258,3.596c1.522,0.852,2.921,0.829,4.201-0.07
		c0.719-0.504,1.546-1.591,2.482-3.261l0.601-1.072c-1.967,0.688-3.667,0.631-5.096-0.171c-1.446-0.809-2.319-2.069-2.618-3.776
		c-0.3-1.664,0.094-3.47,1.184-5.413c1.184-2.111,2.646-3.492,4.386-4.145c1.469-0.553,2.921-0.426,4.359,0.379
		c1.703,0.955,2.613,2.448,2.731,4.48L333.586,316.629z M331.305,320.347c0.057-2.163-0.644-3.652-2.098-4.469
		c-1.155-0.646-2.324-0.615-3.51,0.097c-1.044,0.638-1.951,1.638-2.714,3c-0.741,1.321-1.089,2.584-1.042,3.789
		c0.062,1.367,0.668,2.373,1.813,3.017c1.388,0.778,2.957,0.658,4.706-0.36L331.305,320.347z"/>
	<polygon fill="#040000" points="330.846,332.097 339.217,328.238 338.323,319.284 340.628,320.576 341.238,327.324 
		347.471,324.412 349.566,325.586 341.491,329.268 342.413,338.58 340.108,337.288 339.429,330.257 332.94,333.271 	"/>
	<path fill="#040000" d="M345.118,340.097l7.252-12.938l1.944,1.09l-7.252,12.938L345.118,340.097z M356.702,321.739
		c0.474,0.267,0.739,0.649,0.796,1.15c0.039,0.339-0.031,0.67-0.214,0.995c-0.177,0.316-0.42,0.545-0.729,0.688
		c-0.457,0.215-0.933,0.184-1.423-0.093c-0.483-0.269-0.752-0.655-0.81-1.157c-0.039-0.339,0.03-0.666,0.207-0.98
		c0.182-0.325,0.427-0.559,0.736-0.702C355.725,321.428,356.202,321.46,356.702,321.739"/>
	<path fill="#040000" d="M359.201,346.009c-1.746,0.561-3.361,0.426-4.85-0.408c-1.354-0.759-2.174-1.722-2.461-2.888
		c-0.254-1.025-0.071-2.093,0.548-3.197c1.598-2.851,4.35-3.182,8.255-0.992c0.317,0.177,0.943,0.55,1.88,1.12l0.195-0.351
		c0.527-0.938,0.808-1.726,0.848-2.357c0.07-1.141-0.534-2.07-1.813-2.787c-1.047-0.586-2.37-0.836-3.97-0.75l-0.07-1.859
		c1.83-0.108,3.539,0.28,5.125,1.17c1.962,1.101,2.975,2.438,3.041,4.016c0.028,0.748-0.22,1.656-0.743,2.728
		c-0.185,0.39-0.469,0.927-0.856,1.616l-2.368,4.227c-0.744,1.329-1.316,2.424-1.71,3.284l-1.808-1.014L359.201,346.009z
		 M361.741,341.126c-0.455-0.299-0.928-0.586-1.418-0.86c-1.388-0.778-2.5-1.161-3.336-1.149c-1.097,0.007-1.922,0.506-2.475,1.495
		c-0.393,0.699-0.498,1.371-0.315,2.02c0.195,0.666,0.653,1.201,1.377,1.606c1.355,0.76,2.847,0.729,4.478-0.094L361.741,341.126z"
		/>
	<path fill="#040000" d="M364.602,351.018l4.892-8.726c1.104-1.969,1.856-3.392,2.261-4.269l1.919,1.075l-1.077,2.1
		c0.778-0.241,1.473-0.398,2.081-0.472c1.391-0.159,2.696,0.103,3.917,0.786c1.638,0.918,2.424,2.146,2.36,3.683
		c-0.044,0.915-0.6,2.324-1.665,4.226l-4.193,7.48l-1.944-1.091l4.213-7.517c0.727-1.297,1.148-2.261,1.264-2.896
		c0.193-1.104-0.293-1.982-1.456-2.635c-1.396-0.783-3.216-0.737-5.464,0.133l-5.163,9.212L364.602,351.018z"/>
	<path fill="#040000" d="M385.891,362.951l9.901-17.662l3.764,2.109c1.87,1.048,3.102,2.094,3.697,3.137
		c0.922,1.589,0.9,3.246-0.068,4.976c-0.82,1.461-1.966,2.327-3.437,2.594c-0.826,0.149-1.766,0.071-2.817-0.235
		c0.646,0.68,0.995,1.351,1.051,2.015c0.043,0.504-0.015,1.406-0.174,2.704l-0.835,6.576l-2.169-1.217l0.612-5.473
		c0.205-1.85,0.183-3.097-0.068-3.74c-0.265-0.674-1.073-1.388-2.42-2.142l-0.597-0.335l-4.396,7.839L385.891,362.951z
		 M393.273,354.574l0.947,0.531c1.388,0.778,2.532,1.2,3.433,1.27c1.402,0.108,2.484-0.515,3.243-1.868
		c0.718-1.281,0.734-2.434,0.055-3.459c-0.452-0.691-1.392-1.436-2.813-2.232l-1.246-0.698L393.273,354.574z"/>
	<path fill="#040000" d="M412.013,360.246c1.838,1.028,2.922,2.57,3.256,4.626c0.28,1.741-0.1,3.538-1.139,5.39
		c-1.127,2.011-2.588,3.323-4.382,3.932c-1.813,0.622-3.596,0.442-5.349-0.539c-1.887-1.059-2.993-2.617-3.323-4.682
		c-0.285-1.731,0.096-3.533,1.144-5.402c1.123-2.002,2.582-3.31,4.377-3.921C408.404,359.037,410.209,359.234,412.013,360.246
		 M411.015,361.733c-1.372-0.769-2.767-0.715-4.185,0.161c-0.993,0.603-1.85,1.546-2.572,2.833
		c-0.801,1.431-1.159,2.771-1.072,4.021c0.095,1.505,0.79,2.621,2.087,3.348c1.396,0.783,2.808,0.738,4.235-0.133
		c0.992-0.602,1.851-1.55,2.577-2.846c0.803-1.431,1.159-2.77,1.075-4.019C413.05,363.596,412.336,362.475,411.015,361.733"/>
	<path fill="#040000" d="M421.677,381.028c-1.746,0.561-3.363,0.426-4.851-0.408c-1.354-0.759-2.174-1.722-2.46-2.888
		c-0.255-1.026-0.071-2.093,0.548-3.197c1.599-2.851,4.349-3.182,8.254-0.992c0.317,0.177,0.944,0.55,1.882,1.119l0.194-0.35
		c0.526-0.938,0.808-1.726,0.849-2.357c0.069-1.141-0.535-2.07-1.814-2.787c-1.047-0.586-2.371-0.836-3.971-0.751l-0.07-1.858
		c1.831-0.108,3.54,0.28,5.126,1.17c1.961,1.101,2.975,2.438,3.041,4.015c0.028,0.749-0.22,1.657-0.743,2.729
		c-0.186,0.389-0.47,0.927-0.857,1.616l-2.367,4.227c-0.745,1.329-1.317,2.424-1.711,3.283l-1.808-1.013L421.677,381.028z
		 M424.218,376.145c-0.455-0.298-0.929-0.585-1.42-0.859c-1.388-0.778-2.498-1.161-3.336-1.15c-1.097,0.008-1.922,0.507-2.475,1.496
		c-0.393,0.699-0.498,1.37-0.314,2.02c0.194,0.666,0.652,1.201,1.377,1.606c1.354,0.759,2.846,0.729,4.478-0.095L424.218,376.145z"
		/>
	<path fill="#040000" d="M445.464,371.821l1.943,1.091l-7.818,13.947c-0.675,1.205-1.44,2.639-2.295,4.3l-0.246,0.467l-1.832-1.026
		l1.041-2.005c-0.818,0.351-1.48,0.568-1.987,0.654c-1.054,0.185-2.097-0.011-3.126-0.589c-1.571-0.88-2.471-2.236-2.701-4.068
		c-0.227-1.798,0.218-3.689,1.331-5.676c1.165-2.078,2.625-3.438,4.383-4.079c1.567-0.574,3.044-0.472,4.433,0.305
		c1.537,0.862,2.426,2.257,2.668,4.184L445.464,371.821z M440.167,381.269c0.076-2.086-0.611-3.536-2.065-4.352
		c-1.097-0.615-2.194-0.625-3.293-0.028c-1.156,0.619-2.164,1.697-3.026,3.235c-0.797,1.421-1.199,2.756-1.214,4.005
		c-0.015,1.434,0.571,2.482,1.759,3.148c0.905,0.508,1.913,0.592,3.021,0.252c0.498-0.148,1.078-0.406,1.744-0.776L440.167,381.269z
		"/>
	<path fill="#040000" d="M469.738,627.264l-18.54-8.14l1.82-4.146c0.633-1.44,1.241-2.6,1.823-3.478
		c1.281-1.901,3.001-2.983,5.153-3.246c1.956-0.232,4.084,0.154,6.389,1.165c3.723,1.637,5.885,3.896,6.48,6.778
		c0.273,1.369,0.126,2.938-0.442,4.707c-0.223,0.671-0.553,1.504-0.988,2.499L469.738,627.264z M468.914,624.342l0.821-1.87
		c0.965-2.198,1.288-4.013,0.969-5.442c-0.248-1.119-0.883-2.172-1.903-3.163c-0.839-0.813-1.931-1.517-3.273-2.106
		c-2.032-0.894-3.908-1.231-5.624-1.019c-1.594,0.196-2.85,0.997-3.77,2.403c-0.405,0.612-0.919,1.631-1.544,3.052l-0.684,1.557
		L468.914,624.342z"/>
	<path fill="#040000" d="M465.895,598.374c0.846-1.927,2.274-3.157,4.287-3.688c1.705-0.447,3.53-0.245,5.477,0.607
		c2.11,0.928,3.556,2.254,4.338,3.981c0.795,1.744,0.789,3.536-0.018,5.376c-0.869,1.979-2.315,3.233-4.337,3.761
		c-1.695,0.453-3.525,0.248-5.487-0.614c-2.104-0.924-3.545-2.248-4.327-3.974C465.041,602.083,465.063,600.268,465.895,598.374
		 M467.472,599.224c-0.632,1.438-0.441,2.822,0.566,4.149c0.695,0.929,1.718,1.691,3.071,2.285c1.5,0.658,2.868,0.884,4.102,0.677
		c1.49-0.24,2.533-1.041,3.131-2.401c0.644-1.466,0.461-2.866-0.543-4.202c-0.694-0.931-1.723-1.693-3.083-2.29
		c-1.502-0.658-2.869-0.886-4.103-0.679C469.127,597.018,468.081,597.836,467.472,599.224"/>
	<path fill="#040000" d="M484.063,594.631l-9.158-4.021c-2.068-0.908-3.557-1.519-4.469-1.836l0.886-2.015l2.191,0.868
		c-0.313-0.752-0.538-1.428-0.67-2.026c-0.295-1.368-0.161-2.692,0.403-3.975c0.754-1.719,1.898-2.619,3.434-2.706
		c0.914-0.046,2.372,0.37,4.369,1.247l7.852,3.446l-0.897,2.041l-7.889-3.464c-1.362-0.596-2.363-0.922-3.004-0.975
		c-1.118-0.086-1.945,0.482-2.482,1.703c-0.643,1.467-0.423,3.274,0.663,5.426l9.668,4.244L484.063,594.631z"/>
	<path fill="#040000" d="M481.063,564.568l0.873-1.988c2.158,1.031,3.927,1.848,5.306,2.454l6.791,2.979
		c1.534,0.674,2.659,1.277,3.373,1.81c1.136,0.852,1.831,2.011,2.094,3.478c0.21,1.228,0.024,2.503-0.558,3.829
		c-0.797,1.815-2.043,3.313-3.736,4.493l-1.186-1.567c1.547-0.964,2.634-2.161,3.264-3.592c0.699-1.596,0.541-2.988-0.478-4.174
		c-0.572-0.666-1.732-1.384-3.487-2.154l-1.125-0.494c0.875,1.894,0.984,3.591,0.325,5.091c-0.666,1.517-1.835,2.508-3.506,2.971
		c-1.627,0.462-3.462,0.244-5.502-0.652c-2.215-0.972-3.73-2.294-4.549-3.964c-0.693-1.407-0.708-2.865-0.046-4.374
		c0.785-1.788,2.182-2.84,4.192-3.153L481.063,564.568z M484.984,566.477c-2.158,0.155-3.573,0.996-4.243,2.522
		c-0.532,1.212-0.388,2.374,0.436,3.485c0.737,0.978,1.819,1.78,3.249,2.41c1.388,0.607,2.679,0.831,3.873,0.67
		c1.356-0.196,2.297-0.896,2.826-2.101c0.639-1.457,0.368-3.006-0.815-4.649L484.984,566.477z"/>
	<path fill="#040000" d="M478.128,554.229c0.217-0.497,0.574-0.8,1.066-0.904c0.334-0.072,0.671-0.034,1.012,0.116
		c0.332,0.145,0.583,0.364,0.755,0.659c0.257,0.435,0.271,0.909,0.045,1.425c-0.221,0.506-0.579,0.811-1.073,0.917
		c-0.334,0.071-0.665,0.036-0.997-0.11c-0.341-0.149-0.597-0.371-0.768-0.666C477.911,555.231,477.897,554.751,478.128,554.229
		 M483.94,558.013l0.896-2.04l13.843,6.076c2.119,0.932,3.398,1.68,3.836,2.246c0.872,1.143,0.958,2.512,0.257,4.108
		c-0.214,0.489-0.504,0.979-0.866,1.476l-1.604-0.97c0.297-0.368,0.521-0.722,0.67-1.062c0.322-0.732,0.313-1.366-0.023-1.899
		c-0.262-0.427-0.822-0.83-1.687-1.208L483.94,558.013z"/>
	<path fill="#040000" d="M481.067,547.529c0.219-0.498,0.575-0.799,1.068-0.904c0.334-0.072,0.67-0.034,1.011,0.116
		c0.332,0.145,0.583,0.364,0.755,0.658c0.257,0.437,0.271,0.91,0.045,1.426c-0.221,0.506-0.578,0.811-1.073,0.917
		c-0.333,0.071-0.665,0.035-0.997-0.11c-0.34-0.149-0.596-0.371-0.768-0.666C480.852,548.531,480.838,548.052,481.067,547.529
		 M500.463,557.276l-13.581-5.963l0.896-2.041l13.582,5.962L500.463,557.276z"/>
	<path fill="#040000" d="M494.538,533.873l9.158,4.021c2.112,0.926,3.603,1.539,4.469,1.835l-0.885,2.016l-2.206-0.875
		c0.964,2.214,1.067,4.184,0.31,5.91c-0.736,1.674-1.87,2.55-3.401,2.627c-0.915,0.046-2.367-0.368-4.356-1.241l-7.85-3.445
		l0.897-2.041l7.889,3.463c1.361,0.597,2.358,0.92,2.991,0.97c1.113,0.094,1.929-0.448,2.445-1.626
		c0.637-1.448,0.407-3.223-0.688-5.328l-9.668-4.244L494.538,533.873z"/>
	<path fill="#040000" d="M513.146,528.386l-18.541-8.138l1.734-3.952c0.861-1.963,1.782-3.291,2.764-3.983
		c1.489-1.072,3.143-1.211,4.958-0.414c1.535,0.674,2.507,1.729,2.915,3.168c0.228,0.808,0.241,1.75,0.039,2.826
		c0.612-0.709,1.247-1.121,1.902-1.239c0.497-0.095,1.401-0.124,2.708-0.091l6.625,0.191l-0.999,2.277l-5.506-0.075
		c-1.86-0.027-3.1,0.116-3.716,0.428c-0.645,0.33-1.277,1.202-1.898,2.615l-0.274,0.629l8.229,3.613L513.146,528.386z
		 M504.091,521.853l0.438-0.995c0.639-1.455,0.949-2.637,0.929-3.539c-0.026-1.406-0.753-2.422-2.175-3.045
		c-1.342-0.591-2.492-0.496-3.446,0.279c-0.643,0.521-1.294,1.524-1.948,3.017l-0.574,1.307L504.091,521.853z"/>
	<path fill="#040000" d="M507.917,502.651c0.846-1.927,2.274-3.157,4.287-3.688c1.705-0.447,3.53-0.244,5.477,0.608
		c2.109,0.927,3.556,2.254,4.338,3.981c0.795,1.742,0.789,3.535-0.018,5.376c-0.87,1.979-2.315,3.232-4.336,3.76
		c-1.696,0.453-3.526,0.248-5.488-0.614c-2.104-0.923-3.545-2.248-4.327-3.974C507.063,506.36,507.086,504.545,507.917,502.651
		 M509.494,503.5c-0.632,1.438-0.441,2.823,0.566,4.149c0.695,0.93,1.718,1.692,3.071,2.285c1.5,0.659,2.867,0.884,4.102,0.677
		c1.49-0.24,2.533-1.041,3.131-2.4c0.644-1.467,0.461-2.867-0.543-4.203c-0.694-0.93-1.723-1.693-3.084-2.29
		c-1.5-0.658-2.868-0.885-4.102-0.678C511.149,501.293,510.104,502.113,509.494,503.5"/>
	<path fill="#040000" d="M527.661,491.018c0.729,1.682,0.751,3.304,0.066,4.865c-0.624,1.423-1.504,2.332-2.636,2.729
		c-0.998,0.353-2.076,0.275-3.235-0.235c-2.992-1.313-3.588-4.019-1.788-8.119c0.145-0.331,0.456-0.99,0.931-1.979l-0.366-0.16
		c-0.984-0.432-1.796-0.637-2.431-0.615c-1.141,0.041-2.006,0.732-2.596,2.075c-0.483,1.101-0.604,2.441-0.362,4.024l-1.842,0.253
		c-0.287-1.813-0.066-3.55,0.666-5.217c0.903-2.06,2.137-3.197,3.7-3.416c0.741-0.102,1.672,0.057,2.787,0.474
		c0.404,0.147,0.969,0.379,1.692,0.697l4.435,1.946c1.396,0.612,2.541,1.073,3.436,1.384l-0.833,1.896L527.661,491.018z
		 M522.556,488.962c-0.253,0.482-0.492,0.98-0.72,1.495c-0.639,1.456-0.912,2.602-0.819,3.433c0.114,1.091,0.691,1.863,1.729,2.318
		c0.733,0.322,1.413,0.361,2.039,0.115c0.645-0.257,1.133-0.765,1.466-1.524c0.625-1.422,0.449-2.903-0.528-4.445L522.556,488.962z"
		/>
	<path fill="#040000" d="M516.188,468.236l0.896-2.042l14.641,6.428c1.267,0.556,2.768,1.179,4.502,1.867l0.49,0.2l-0.843,1.923
		l-2.097-0.841c0.428,0.779,0.709,1.419,0.845,1.915c0.286,1.03,0.19,2.087-0.284,3.169c-0.723,1.647-1.986,2.675-3.787,3.082
		c-1.767,0.398-3.693,0.141-5.778-0.774c-2.181-0.958-3.676-2.278-4.484-3.967c-0.725-1.503-0.767-2.983-0.126-4.44
		c0.708-1.613,2.008-2.634,3.902-3.062L516.188,468.236z M526.108,472.59c-2.086,0.127-3.463,0.952-4.133,2.479
		c-0.505,1.152-0.406,2.246,0.293,3.281c0.729,1.09,1.899,1.987,3.514,2.696c1.49,0.654,2.858,0.929,4.104,0.818
		c1.426-0.123,2.413-0.807,2.961-2.054c0.417-0.951,0.404-1.961-0.042-3.032c-0.194-0.48-0.509-1.034-0.939-1.661L526.108,472.59z"
		/>
	<g>
		<defs>
			<rect id="SVGID_1_" x="7.544" y="7.035" width="886.8" height="908.384"/>
		</defs>
		<clipPath id="SVGID_2_">
			<use xlink:href="#SVGID_1_"  overflow="visible"/>
		</clipPath>
		<polyline clip-path="url(#SVGID_2_)" fill="none" stroke="#B5B4B5" stroke-width="16.338" stroke-miterlimit="10" points="
			805.487,-71.529 560.688,303.281 394.722,699.914 344.932,735.183 384.156,986.575 		"/>
		<polyline clip-path="url(#SVGID_2_)" fill="none" stroke="#B5B4B5" stroke-width="16.338" stroke-miterlimit="10" points="
			676.864,1104.457 456.96,851.662 143.698,749.704 -26.417,621.081 -57.903,589.344 		"/>
		<polyline clip-path="url(#SVGID_2_)" fill="none" stroke="#B5B4B5" stroke-width="16.338" stroke-miterlimit="10" points="
			258.78,142.468 560.688,303.28 1059.029,589.343 		"/>
		
			<line clip-path="url(#SVGID_2_)" fill="none" stroke="#B5B4B5" stroke-width="16.338" stroke-miterlimit="10" x1="427.833" y1="68.106" x2="1059.029" y2="426.225"/>
		
			<line clip-path="url(#SVGID_2_)" fill="none" stroke="#B5B4B5" stroke-width="16.338" stroke-miterlimit="10" x1="575.21" y1="-126.958" x2="344.933" y2="188.356"/>
		
			<line clip-path="url(#SVGID_2_)" fill="none" stroke="#B5B4B5" stroke-width="16.338" stroke-miterlimit="10" x1="439.528" y1="-112.584" x2="-236.621" y2="841.534"/>
		
			<line clip-path="url(#SVGID_2_)" fill="none" stroke="#B5B4B5" stroke-width="8.169" stroke-miterlimit="10" x1="521.101" y1="394.563" x2="208.675" y2="222.42"/>
		
			<line clip-path="url(#SVGID_2_)" fill="none" stroke="#B5B4B5" stroke-width="8.169" stroke-miterlimit="10" x1="437.022" y1="238.833" x2="517.258" y2="121.31"/>
	</g>
	
		<rect x="7.544" y="7.035" fill="none" stroke="#898989" stroke-width="12.253" stroke-miterlimit="10" width="886.8" height="908.384"/>
	<path fill="#004364" d="M529.109,143.07c0,4.723-3.827,8.551-8.551,8.551c-4.722,0-8.551-3.828-8.551-8.551
		c0-4.722,3.829-8.55,8.551-8.55C525.282,134.52,529.109,138.348,529.109,143.07"/>
	<circle fill="none" stroke="#26589F" stroke-width="1.236" stroke-miterlimit="10" cx="520.56" cy="143.07" r="10.788"/>
	<path fill="#004364" d="M500.4,415.417c0,4.723-3.827,8.551-8.551,8.551c-4.722,0-8.551-3.828-8.551-8.551s3.829-8.552,8.551-8.552
		C496.573,406.865,500.4,410.694,500.4,415.417"/>
	<circle fill="none" stroke="#004364" stroke-width="1.236" stroke-miterlimit="10" cx="491.851" cy="415.417" r="10.788"/>
	<path fill="#26589F" d="M271.23,776.629c0,4.724-3.828,8.552-8.551,8.552c-4.721,0-8.55-3.828-8.55-8.552
		c0-4.723,3.829-8.551,8.55-8.551C267.402,768.078,271.23,771.906,271.23,776.629"/>
	<circle fill="none" stroke="#004364" stroke-width="1.236" stroke-miterlimit="10" cx="262.68" cy="776.629" r="10.789"/>
	<path fill="#004364" d="M677.19,89.736H569.605h-13.614c-7.105,0-12.917-5.812-12.917-12.917V42.154
		c0-7.105,5.812-12.917,12.917-12.917H677.19c7.104,0,12.917,5.812,12.917,12.917v34.665
		C690.107,83.924,684.295,89.736,677.19,89.736"/>
	<path fill="#FFFFFF" d="M572.216,74.573l0.398-2.812c2.572,0.918,4.84,1.372,6.805,1.362c1.77-0.009,3.168-0.487,4.197-1.435
		c0.979-0.895,1.464-2.083,1.457-3.563c-0.006-1.363-0.424-2.428-1.253-3.197c-0.685-0.638-2.168-1.457-4.453-2.454
		c-2.677-1.178-4.47-2.152-5.378-2.921c-1.419-1.185-2.136-2.806-2.146-4.863c-0.009-1.833,0.487-3.388,1.49-4.663
		c0.73-0.933,1.801-1.666,3.212-2.196c1.23-0.465,2.553-0.7,3.967-0.707c1.872-0.01,4.068,0.399,6.588,1.224l-0.636,2.892
		c-2.048-0.985-4.033-1.474-5.96-1.464c-1.467,0.007-2.702,0.395-3.707,1.157c-1.031,0.779-1.544,1.828-1.538,3.152
		c0.007,1.06,0.352,1.963,1.035,2.706c0.765,0.821,2.215,1.673,4.356,2.553c2.688,1.113,4.562,2.159,5.614,3.135
		c1.473,1.368,2.216,3.16,2.226,5.373c0.013,2.476-0.849,4.426-2.584,5.849c-1.657,1.37-3.854,2.062-6.591,2.075
		C577.181,75.787,574.814,75.385,572.216,74.573"/>
	<path fill="#FFFFFF" d="M614.333,60.849l0.064,13.164c-2.719,1.074-5.539,1.619-8.46,1.633c-3.746,0.018-6.797-1.133-9.154-3.453
		c-2.633-2.593-3.959-6.077-3.979-10.452c-0.023-4.572,1.275-8.227,3.895-10.964c2.387-2.5,5.458-3.759,9.218-3.778
		c2.606-0.012,5.327,0.636,8.162,1.945l-0.93,2.578c-2.456-1.258-4.888-1.882-7.298-1.87c-3.158,0.015-5.575,1.213-7.252,3.591
		c-1.602,2.288-2.394,5.108-2.376,8.46c0.018,3.799,1.139,6.754,3.362,8.866c1.712,1.629,3.93,2.436,6.653,2.423
		c1.612-0.008,3.254-0.31,4.928-0.908l-0.042-8.567l-5.481,0.027l-0.013-2.652L614.333,60.849z"/>
	<polygon fill="#FFFFFF" points="626.468,75.153 626.345,49.965 618.21,50.005 618.197,47.352 637.808,47.257 637.82,49.909 
		629.568,49.949 629.691,75.137 	"/>
	<path fill="#FFFFFF" d="M660.321,71.254l0.818,2.57c-2.653,1.048-5.145,1.577-7.477,1.589c-3.824,0.02-6.909-1.197-9.254-3.649
		c-2.515-2.647-3.781-6.112-3.804-10.395c-0.022-4.925,1.457-8.777,4.445-11.555c2.177-2.015,4.949-3.031,8.314-3.046
		c2.437-0.013,4.935,0.551,7.493,1.692l-1.027,2.578c-2.283-1.089-4.408-1.629-6.373-1.619c-3.078,0.016-5.425,1.192-7.037,3.531
		c-1.613,2.34-2.411,5.141-2.396,8.403c0.012,2.265,0.441,4.32,1.288,6.163c1.615,3.515,4.401,5.263,8.357,5.244
		C655.831,72.75,658.049,72.247,660.321,71.254"/>
	<polygon fill="#004364" points="535.423,129.149 610.998,89.206 569.606,89.736 	"/>
	<path fill="#004364" d="M602.448,726.428H320.704H307.09c-7.105,0-12.917-5.813-12.917-12.918v-34.664
		c0-7.104,5.812-12.918,12.917-12.918h295.358c7.104,0,12.917,5.813,12.917,12.918v34.664
		C615.365,720.615,609.553,726.428,602.448,726.428"/>
	<path fill="#FFFFFF" d="M320.893,707.857l-0.045-9.116l-7.142-11.097l2.759-0.014l4.247,6.71c0.519,0.807,0.985,1.596,1.397,2.366
		c0.587-1.071,1.055-1.887,1.403-2.451l4.126-6.679l2.572-0.014l-7.02,11.166l0.046,9.117L320.893,707.857z"/>
	<path fill="#FFFFFF" d="M333.819,686.117c0.543-0.002,0.963,0.2,1.26,0.609c0.201,0.274,0.303,0.597,0.305,0.97
		c0.001,0.362-0.097,0.681-0.296,0.958c-0.293,0.412-0.721,0.619-1.283,0.621c-0.553,0.003-0.978-0.2-1.274-0.608
		c-0.201-0.274-0.302-0.594-0.303-0.956c-0.002-0.372,0.095-0.694,0.295-0.973C332.815,686.326,333.247,686.12,333.819,686.117
		 M332.796,707.8l-0.071-14.833l2.228-0.011l0.073,14.833L332.796,707.8z"/>
	<polygon fill="#FFFFFF" points="338.126,707.773 343.505,700.289 338.312,692.939 340.954,692.927 344.813,698.497 
		348.799,692.889 351.2,692.878 345.99,700.062 351.388,707.71 348.743,707.722 344.686,701.939 340.526,707.762 	"/>
	<path fill="#FFFFFF" d="M355.511,686.012c0.543-0.003,0.963,0.2,1.26,0.609c0.201,0.274,0.303,0.597,0.305,0.97
		c0.001,0.362-0.097,0.681-0.296,0.958c-0.293,0.412-0.721,0.618-1.283,0.621c-0.553,0.003-0.978-0.2-1.274-0.609
		c-0.201-0.274-0.302-0.593-0.303-0.955c-0.002-0.372,0.095-0.695,0.295-0.973C354.507,686.221,354.938,686.015,355.511,686.012
		 M354.487,707.694l-0.071-14.833l2.228-0.012l0.073,14.833L354.487,707.694z"/>
	<path fill="#FFFFFF" d="M361.804,707.658l-0.049-10.003c-0.011-2.258-0.057-3.866-0.138-4.829l2.201-0.011l0.097,2.358
		c0.559-0.594,1.085-1.073,1.578-1.438c1.13-0.823,2.395-1.24,3.795-1.248c1.876-0.009,3.166,0.672,3.869,2.039
		c0.413,0.818,0.625,2.318,0.635,4.499l0.042,8.573l-2.229,0.011l-0.042-8.615c-0.008-1.486-0.116-2.534-0.328-3.144
		c-0.378-1.055-1.233-1.58-2.566-1.574c-1.6,0.008-3.162,0.944-4.688,2.812l0.053,10.559L361.804,707.658z"/>
	<path fill="#FFFFFF" d="M388.052,692.697l2.172-0.01c-0.064,2.391-0.093,4.34-0.086,5.845l0.036,7.416
		c0.009,1.676-0.084,2.95-0.281,3.816c-0.317,1.384-1.093,2.49-2.327,3.325c-1.035,0.692-2.276,1.041-3.725,1.048
		c-1.981,0.011-3.856-0.52-5.624-1.588l0.95-1.719c1.509,1.022,3.046,1.529,4.607,1.521c1.744-0.008,2.949-0.72,3.619-2.132
		c0.377-0.793,0.562-2.146,0.552-4.061l-0.006-1.229c-1.373,1.569-2.879,2.358-4.517,2.366c-1.658,0.008-3.039-0.657-4.141-1.995
		c-1.083-1.3-1.63-3.063-1.641-5.293c-0.011-2.42,0.578-4.342,1.771-5.767c1.005-1.206,2.33-1.813,3.979-1.821
		c1.952-0.01,3.482,0.84,4.585,2.55L388.052,692.697z M387.901,697.056c-1.02-1.908-2.362-2.859-4.029-2.853
		c-1.324,0.007-2.325,0.613-3.007,1.816c-0.594,1.069-0.889,2.387-0.881,3.948c0.008,1.516,0.328,2.784,0.962,3.811
		c0.729,1.16,1.752,1.734,3.066,1.729c1.591-0.008,2.896-0.887,3.917-2.635L387.901,697.056z"/>
	<path fill="#FFFFFF" d="M402.685,707.46l-0.099-20.248l4.315-0.022c2.144-0.011,3.73,0.291,4.763,0.905
		c1.586,0.926,2.384,2.38,2.394,4.361c0.01,1.677-0.562,2.995-1.709,3.953c-0.645,0.535-1.501,0.932-2.565,1.184
		c0.895,0.272,1.53,0.683,1.905,1.234c0.287,0.418,0.683,1.229,1.184,2.438l2.518,6.132l-2.486,0.014l-2.169-5.064
		c-0.733-1.71-1.366-2.784-1.903-3.218c-0.563-0.455-1.617-0.679-3.161-0.671l-0.686,0.003l0.045,8.988L402.685,707.46z
		 M404.975,696.531l1.086-0.006c1.591-0.008,2.795-0.203,3.613-0.591c1.274-0.595,1.906-1.671,1.9-3.223
		c-0.009-1.467-0.562-2.479-1.66-3.036c-0.735-0.377-1.918-0.563-3.546-0.554l-1.43,0.007L404.975,696.531z"/>
	<path fill="#FFFFFF" d="M426.196,705.614c-1.24,1.351-2.715,2.029-4.42,2.037c-1.552,0.009-2.74-0.425-3.563-1.298
		c-0.729-0.767-1.096-1.785-1.102-3.052c-0.016-3.269,2.215-4.913,6.692-4.935c0.362-0.002,1.091,0.015,2.186,0.048l-0.002-0.401
		c-0.005-1.076-0.147-1.899-0.426-2.469c-0.5-1.027-1.485-1.537-2.952-1.53c-1.199,0.006-2.474,0.441-3.822,1.305l-0.979-1.581
		c1.538-0.998,3.216-1.502,5.036-1.511c2.248-0.011,3.791,0.654,4.625,1.991c0.394,0.638,0.627,1.551,0.7,2.742
		c0.029,0.428,0.048,1.038,0.052,1.829l0.022,4.844c0.008,1.523,0.051,2.757,0.133,3.7l-2.071,0.01L426.196,705.614z
		 M425.999,700.114c-0.543-0.034-1.096-0.053-1.658-0.05c-1.59,0.008-2.746,0.225-3.469,0.647c-0.951,0.547-1.422,1.388-1.416,2.521
		c0.004,0.8,0.244,1.438,0.724,1.91c0.497,0.485,1.159,0.724,1.989,0.72c1.553-0.007,2.836-0.771,3.848-2.291L425.999,700.114z"/>
	<path fill="#FFFFFF" d="M434.389,685.627c0.543-0.003,0.963,0.2,1.26,0.608c0.201,0.274,0.304,0.598,0.306,0.97
		c0,0.363-0.098,0.681-0.297,0.958c-0.293,0.413-0.721,0.619-1.283,0.622c-0.553,0.003-0.978-0.2-1.274-0.609
		c-0.201-0.274-0.302-0.593-0.303-0.955c-0.003-0.372,0.095-0.695,0.295-0.974C433.385,685.836,433.816,685.63,434.389,685.627
		 M433.366,707.309l-0.072-14.832l2.228-0.012l0.073,14.833L433.366,707.309z"/>
	
		<rect x="431.048" y="695.459" transform="matrix(0.0049 1 -1 0.0049 1136.1509 251.4314)" fill="#FFFFFF" width="21.392" height="2.228"/>
	<path fill="#FFFFFF" d="M450.341,707.227l-4.145-14.813l2.287-0.012l2.488,9.276c0.389,1.446,0.699,2.659,0.932,3.641
		c0.291-1.164,0.623-2.414,0.998-3.749l2.541-9.201l2.9-0.016l2.701,8.963c0.417,1.406,0.794,2.724,1.135,3.951
		c0.279-1.152,0.602-2.423,0.967-3.806l2.428-9.143l2.014-0.011l-4.085,14.854l-2.801,0.013l-2.904-9.46
		c-0.396-1.294-0.74-2.464-1.031-3.51c-0.289,1.164-0.616,2.399-0.982,3.706l-2.612,9.3L450.341,707.227z"/>
	<path fill="#FFFFFF" d="M478.882,705.357c-1.241,1.351-2.715,2.028-4.42,2.037c-1.552,0.009-2.74-0.425-3.563-1.298
		c-0.729-0.768-1.096-1.785-1.102-3.052c-0.016-3.268,2.214-4.913,6.692-4.934c0.361-0.002,1.091,0.014,2.186,0.047l-0.002-0.401
		c-0.005-1.076-0.146-1.9-0.426-2.469c-0.5-1.028-1.485-1.537-2.952-1.531c-1.2,0.006-2.474,0.442-3.822,1.306l-0.979-1.582
		c1.538-0.996,3.216-1.502,5.036-1.511c2.248-0.01,3.791,0.654,4.625,1.992c0.394,0.637,0.627,1.551,0.7,2.742
		c0.029,0.428,0.048,1.038,0.052,1.829l0.022,4.844c0.008,1.523,0.052,2.756,0.133,3.7l-2.071,0.01L478.882,705.357z
		 M478.685,699.857c-0.543-0.035-1.096-0.053-1.657-0.05c-1.592,0.008-2.747,0.225-3.47,0.646c-0.95,0.548-1.422,1.388-1.417,2.521
		c0.004,0.8,0.244,1.438,0.725,1.911c0.497,0.484,1.16,0.725,1.988,0.72c1.554-0.008,2.837-0.771,3.849-2.291L478.685,699.857z"/>
	<path fill="#FFFFFF" d="M489.696,707.234l-5.919-15.005l2.388-0.012l3.429,8.858c0.367,0.961,0.778,2.088,1.231,3.381
		c0.423-1.27,0.832-2.434,1.226-3.493l3.245-8.79l2.086-0.01l-5.953,16.12c-0.619,1.67-1.285,2.959-1.995,3.866
		c-0.776,0.984-1.913,1.481-3.408,1.488c-0.677,0.004-1.405-0.093-2.188-0.29l0.377-1.815c0.601,0.216,1.155,0.323,1.66,0.32
		c1.18-0.006,2.102-0.652,2.761-1.941C489.052,709.109,489.405,708.216,489.696,707.234"/>
	<path fill="#FFFFFF" d="M506.91,706.336l0.29-2.046c1.87,0.668,3.521,0.998,4.949,0.991c1.286-0.007,2.304-0.354,3.054-1.044
		c0.71-0.651,1.063-1.514,1.06-2.591c-0.005-0.991-0.31-1.766-0.913-2.326c-0.497-0.463-1.576-1.058-3.238-1.784
		c-1.946-0.856-3.251-1.564-3.911-2.124c-1.032-0.861-1.554-2.041-1.561-3.536c-0.006-1.334,0.354-2.465,1.084-3.393
		c0.53-0.678,1.309-1.21,2.336-1.596c0.893-0.339,1.855-0.512,2.883-0.517c1.363-0.007,2.96,0.291,4.792,0.893l-0.462,2.103
		c-1.488-0.717-2.933-1.072-4.334-1.064c-1.066,0.006-1.966,0.286-2.697,0.843c-0.749,0.564-1.122,1.329-1.116,2.291
		c0.003,0.771,0.255,1.427,0.752,1.968c0.555,0.598,1.61,1.217,3.168,1.857c1.957,0.809,3.317,1.568,4.083,2.28
		c1.071,0.994,1.611,2.299,1.619,3.907c0.01,1.801-0.617,3.218-1.88,4.253c-1.205,0.997-2.804,1.5-4.795,1.51
		C510.52,707.22,508.801,706.927,506.91,706.336"/>
	<path fill="#FFFFFF" d="M523.626,693.822l-2.399,0.013l-0.009-1.787l2.399-0.013l-0.015-3.242l2.226-0.483l0.02,3.715l3.501-0.017
		l0.008,1.787l-3.501,0.017l0.04,8.103c0.005,1.229,0.115,2.065,0.327,2.513c0.307,0.619,0.87,0.925,1.688,0.921
		c0.495-0.003,1.068-0.153,1.713-0.452l0.209,1.771c-0.854,0.309-1.659,0.467-2.413,0.469c-1.485,0.008-2.517-0.445-3.093-1.356
		c-0.432-0.675-0.651-1.811-0.66-3.412L523.626,693.822z"/>
	<path fill="#FFFFFF" d="M540.799,705.055c-1.241,1.352-2.715,2.029-4.42,2.038c-1.552,0.008-2.74-0.426-3.563-1.299
		c-0.729-0.767-1.096-1.784-1.102-3.051c-0.016-3.268,2.214-4.913,6.692-4.935c0.361-0.002,1.091,0.015,2.186,0.047l-0.002-0.401
		c-0.005-1.076-0.146-1.899-0.426-2.469c-0.5-1.027-1.485-1.536-2.952-1.53c-1.2,0.006-2.474,0.441-3.822,1.305l-0.979-1.58
		c1.538-0.998,3.216-1.503,5.036-1.512c2.248-0.01,3.791,0.654,4.625,1.992c0.394,0.637,0.627,1.551,0.699,2.741
		c0.03,0.428,0.049,1.038,0.053,1.829l0.022,4.844c0.009,1.524,0.052,2.757,0.134,3.701l-2.072,0.009L540.799,705.055z
		 M540.602,699.555c-0.543-0.034-1.096-0.052-1.657-0.049c-1.592,0.009-2.747,0.224-3.47,0.646c-0.95,0.548-1.422,1.388-1.417,2.521
		c0.004,0.801,0.244,1.438,0.725,1.911c0.497,0.484,1.16,0.725,1.988,0.72c1.554-0.008,2.836-0.771,3.849-2.291L540.602,699.555z"/>
	<path fill="#FFFFFF" d="M548.704,693.7l-2.399,0.013l-0.009-1.787l2.399-0.012l-0.015-3.243l2.226-0.483l0.02,3.715l3.501-0.017
		l0.008,1.787l-3.501,0.017l0.04,8.103c0.005,1.229,0.115,2.065,0.327,2.513c0.307,0.618,0.87,0.925,1.688,0.921
		c0.495-0.003,1.068-0.154,1.713-0.452l0.209,1.771c-0.854,0.308-1.66,0.466-2.413,0.469c-1.485,0.007-2.517-0.445-3.093-1.357
		c-0.432-0.674-0.652-1.81-0.66-3.41L548.704,693.7z"/>
	<path fill="#FFFFFF" d="M559.051,685.019c0.543-0.003,0.963,0.2,1.26,0.608c0.201,0.274,0.304,0.598,0.306,0.97
		c0.001,0.363-0.098,0.681-0.297,0.958c-0.293,0.413-0.721,0.619-1.282,0.622c-0.554,0.003-0.979-0.2-1.275-0.609
		c-0.201-0.274-0.302-0.593-0.303-0.955c-0.002-0.372,0.095-0.695,0.295-0.974C558.047,685.228,558.479,685.021,559.051,685.019
		 M558.027,706.7l-0.071-14.833l2.228-0.011l0.073,14.833L558.027,706.7z"/>
	<path fill="#FFFFFF" d="M571.07,691.505c2.104-0.012,3.809,0.796,5.113,2.418c1.103,1.377,1.658,3.127,1.669,5.251
		c0.012,2.306-0.612,4.166-1.873,5.583c-1.271,1.434-2.909,2.156-4.92,2.167c-2.162,0.011-3.895-0.801-5.198-2.434
		c-1.104-1.366-1.658-3.122-1.668-5.265c-0.013-2.295,0.611-4.152,1.872-5.568C567.334,692.232,569.002,691.515,571.07,691.505
		 M570.936,693.291c-1.571,0.008-2.759,0.742-3.562,2.203c-0.566,1.014-0.846,2.259-0.838,3.734c0.007,1.639,0.356,2.98,1.048,4.025
		c0.825,1.263,1.981,1.892,3.467,1.884c1.601-0.008,2.808-0.743,3.619-2.204c0.568-1.013,0.846-2.262,0.839-3.748
		c-0.008-1.639-0.356-2.98-1.048-4.025C573.625,693.906,572.451,693.283,570.936,693.291"/>
	<path fill="#FFFFFF" d="M581.876,706.584l-0.049-10.003c-0.011-2.258-0.057-3.866-0.138-4.828l2.201-0.012l0.097,2.358
		c0.559-0.593,1.085-1.073,1.578-1.438c1.13-0.823,2.395-1.24,3.795-1.248c1.877-0.009,3.167,0.673,3.87,2.039
		c0.413,0.818,0.625,2.318,0.635,4.499l0.042,8.573l-2.229,0.011l-0.042-8.615c-0.009-1.486-0.117-2.533-0.329-3.144
		c-0.377-1.054-1.233-1.58-2.567-1.573c-1.6,0.009-3.162,0.943-4.687,2.811l0.052,10.559L581.876,706.584z"/>
	<polygon fill="#004364" points="286.521,765.84 362.097,725.898 320.705,726.429 	"/>
	<path fill="#040000" d="M100.201,772.23l0.004,1.961c-2.069,0.144-3.915-0.034-5.534-0.537c-2.656-0.826-4.528-2.347-5.615-4.56
		c-1.164-2.387-1.283-5.067-0.358-8.043c1.063-3.42,2.936-5.765,5.614-7.039c1.952-0.919,4.097-1.015,6.435-0.289
		c1.692,0.527,3.302,1.466,4.826,2.818l-1.278,1.562c-1.347-1.257-2.699-2.097-4.064-2.52c-2.138-0.665-4.023-0.363-5.654,0.906
		c-1.632,1.268-2.8,3.035-3.504,5.301c-0.489,1.574-0.642,3.091-0.458,4.555c0.349,2.792,1.897,4.616,4.645,5.471
		C96.759,772.283,98.406,772.42,100.201,772.23"/>
	<path fill="#040000" d="M103.053,775.959l6.351-20.427l2.128,0.662l-2.63,8.459c2.078-1.169,4.032-1.468,5.861-0.899
		c1.783,0.555,2.808,1.591,3.073,3.108c0.148,0.905-0.102,2.399-0.75,4.482l-2.545,8.186l-2.129-0.662l2.558-8.227
		c0.441-1.419,0.652-2.451,0.634-3.095c-0.03-1.117-0.688-1.875-1.972-2.275c-1.537-0.477-3.309-0.055-5.315,1.265l-3.136,10.084
		L103.053,775.959z"/>
	<path fill="#040000" d="M127.308,781.689c-1.59,0.913-3.199,1.114-4.827,0.608c-1.483-0.461-2.485-1.23-3.007-2.311
		c-0.464-0.953-0.506-2.033-0.13-3.244c0.97-3.119,3.593-4.015,7.869-2.685c0.345,0.106,1.035,0.342,2.069,0.702l0.119-0.383
		c0.319-1.026,0.433-1.854,0.338-2.481c-0.168-1.13-0.952-1.912-2.353-2.349c-1.146-0.355-2.493-0.325-4.038,0.093l-0.457-1.805
		c1.767-0.488,3.521-0.462,5.258,0.078c2.147,0.667,3.417,1.766,3.81,3.294c0.183,0.727,0.13,1.667-0.159,2.824
		c-0.101,0.418-0.27,1.004-0.503,1.759l-1.438,4.626c-0.453,1.455-0.783,2.646-0.989,3.569l-1.979-0.616L127.308,781.689z
		 M128.778,776.385c-0.508-0.197-1.028-0.38-1.565-0.547c-1.521-0.472-2.688-0.615-3.502-0.43c-1.072,0.236-1.775,0.895-2.112,1.978
		c-0.237,0.765-0.2,1.443,0.114,2.04c0.329,0.61,0.888,1.04,1.68,1.286c1.483,0.461,2.936,0.119,4.359-1.024L128.778,776.385z"/>
	<path fill="#040000" d="M133.633,785.466l2.969-9.553c0.672-2.155,1.11-3.703,1.325-4.645l2.101,0.652l-0.618,2.277
		c0.711-0.397,1.358-0.695,1.938-0.894c1.326-0.445,2.657-0.461,3.995-0.045c1.792,0.558,2.816,1.594,3.073,3.11
		c0.148,0.903-0.102,2.397-0.75,4.481l-2.545,8.186l-2.129-0.661l2.558-8.228c0.441-1.419,0.652-2.452,0.634-3.096
		c-0.041-1.119-0.697-1.877-1.972-2.274c-1.528-0.475-3.301-0.053-5.315,1.265l-3.136,10.084L133.633,785.466z"/>
	<path fill="#040000" d="M163.171,779.116l2.072,0.644c-0.781,2.261-1.396,4.111-1.843,5.548l-2.202,7.082
		c-0.497,1.601-0.97,2.785-1.419,3.556c-0.719,1.221-1.794,2.045-3.221,2.469c-1.196,0.347-2.485,0.305-3.867-0.125
		c-1.894-0.588-3.521-1.657-4.884-3.209l1.424-1.354c1.131,1.431,2.442,2.377,3.934,2.841c1.666,0.518,3.029,0.203,4.095-0.942
		c0.599-0.642,1.182-1.876,1.75-3.705l0.364-1.173c-1.782,1.082-3.455,1.378-5.019,0.892c-1.584-0.492-2.699-1.541-3.348-3.148
		c-0.64-1.566-0.629-3.413,0.033-5.542c0.718-2.312,1.86-3.965,3.428-4.965c1.32-0.847,2.769-1.025,4.344-0.535
		c1.862,0.58,3.063,1.851,3.602,3.813L163.171,779.116z M161.712,783.227c-0.396-2.128-1.389-3.439-2.979-3.935
		c-1.266-0.392-2.404-0.118-3.415,0.825c-0.89,0.839-1.566,2.006-2.03,3.498c-0.45,1.446-0.528,2.755-0.232,3.924
		c0.347,1.324,1.147,2.181,2.402,2.572c1.52,0.472,3.029,0.028,4.528-1.33L161.712,783.227z"/>
	<path fill="#040000" d="M164.755,794.378l1.164-1.479c1.106,1.032,2.158,1.704,3.159,2.014c0.709,0.222,1.388,0.218,2.038-0.01
		c0.695-0.242,1.163-0.759,1.41-1.55c0.188-0.61,0.149-1.143-0.119-1.594c-0.23-0.382-0.874-0.99-1.931-1.828
		c-1.168-0.933-1.948-1.738-2.345-2.42c-0.51-0.897-0.602-1.867-0.275-2.913c0.387-1.246,1.184-2.097,2.392-2.548
		c1.026-0.381,2.19-0.367,3.49,0.037c1.319,0.409,2.556,1.184,3.709,2.319l-1.163,1.479c-0.814-1.013-1.775-1.69-2.884-2.034
		c-0.72-0.225-1.364-0.253-1.934-0.092c-0.654,0.185-1.096,0.638-1.318,1.355c-0.204,0.655-0.097,1.256,0.321,1.806
		c0.307,0.395,0.896,0.952,1.77,1.673c1.354,1.1,2.19,2.018,2.51,2.756c0.335,0.753,0.355,1.605,0.058,2.561
		c-0.425,1.364-1.271,2.274-2.54,2.728c-1.124,0.408-2.377,0.397-3.76-0.031C167.169,796.19,165.919,795.448,164.755,794.378"/>
	<path fill="#040000" d="M177.365,799.062l6.351-20.428l2.129,0.662l-2.63,8.46c2.078-1.169,4.032-1.469,5.861-0.9
		c1.782,0.555,2.808,1.592,3.072,3.109c0.149,0.904-0.101,2.398-0.749,4.482l-2.545,8.186l-2.129-0.662l2.558-8.227
		c0.441-1.42,0.652-2.452,0.634-3.096c-0.031-1.117-0.688-1.875-1.972-2.274c-1.537-0.478-3.31-0.056-5.315,1.265l-3.136,10.084
		L177.365,799.062z"/>
	<path fill="#040000" d="M196.801,797.966c-0.338,1.63-0.34,2.923-0.007,3.873c0.461,1.271,1.457,2.146,2.986,2.619
		c1.301,0.405,2.73,0.362,4.292-0.132l0.305,1.906c-1.762,0.469-3.485,0.442-5.169-0.08c-2.236-0.696-3.733-1.965-4.488-3.805
		c-0.656-1.611-0.648-3.494,0.021-5.65c0.813-2.62,2.13-4.366,3.947-5.238c1.36-0.654,2.863-0.725,4.512-0.214
		c2.519,0.784,3.889,2.342,4.111,4.676c0.117,1.322-0.125,3.02-0.728,5.086L196.801,797.966z M204.849,798.598
		c0.301-1.063,0.393-1.998,0.273-2.804c-0.216-1.455-1.058-2.409-2.521-2.864c-1.399-0.436-2.645-0.14-3.732,0.891
		c-0.624,0.593-1.119,1.413-1.483,2.457L204.849,798.598z"/>
	<path fill="#040000" d="M208.3,808.678l2.97-9.552c0.671-2.155,1.11-3.705,1.323-4.646l2.103,0.652l-0.618,2.277
		c0.711-0.396,1.357-0.694,1.938-0.893c1.325-0.445,2.657-0.461,3.994-0.045c1.793,0.557,2.816,1.594,3.073,3.108
		c0.148,0.905-0.101,2.399-0.749,4.482l-2.545,8.186l-2.129-0.662l2.558-8.227c0.441-1.419,0.651-2.451,0.633-3.095
		c-0.041-1.121-0.696-1.88-1.972-2.275c-1.528-0.475-3.301-0.053-5.315,1.265l-3.136,10.084L208.3,808.678z"/>
	<path fill="#040000" d="M237.837,802.328l2.074,0.644c-0.782,2.263-1.396,4.112-1.844,5.548l-2.201,7.082
		c-0.498,1.602-0.97,2.786-1.419,3.555c-0.719,1.222-1.794,2.047-3.222,2.471c-1.196,0.345-2.485,0.304-3.867-0.125
		c-1.893-0.588-3.521-1.659-4.883-3.209l1.423-1.354c1.132,1.43,2.442,2.376,3.935,2.84c1.665,0.517,3.029,0.203,4.094-0.942
		c0.6-0.642,1.183-1.877,1.751-3.706l0.364-1.173c-1.782,1.083-3.456,1.379-5.02,0.893c-1.583-0.491-2.699-1.542-3.347-3.149
		c-0.641-1.567-0.63-3.413,0.032-5.541c0.719-2.312,1.861-3.966,3.428-4.965c1.321-0.848,2.769-1.026,4.344-0.535
		c1.863,0.578,3.064,1.849,3.602,3.812L237.837,802.328z M236.38,806.439c-0.396-2.13-1.39-3.439-2.98-3.936
		c-1.266-0.393-2.403-0.118-3.414,0.825c-0.891,0.84-1.568,2.006-2.031,3.499c-0.45,1.445-0.527,2.754-0.231,3.923
		c0.345,1.325,1.146,2.182,2.401,2.573c1.521,0.471,3.029,0.027,4.529-1.331L236.38,806.439z"/>
	<polygon fill="#040000" points="247.339,820.814 253.35,801.479 263.557,804.652 262.984,806.494 255.015,804.017 252.911,810.785 
		260.485,813.139 259.911,814.982 252.339,812.627 250.15,819.668 258.527,822.273 257.955,824.115 	"/>
	<polygon fill="#040000" points="260.139,824.793 267.523,819.278 264.786,810.705 267.312,811.49 269.31,817.963 274.802,813.819 
		277.095,814.531 269.961,819.813 272.802,828.73 270.277,827.944 268.15,821.209 262.431,825.506 	"/>
	<path fill="#040000" d="M273.896,835.654l4.492-14.449c0.491-1.574,0.975-3.234,1.458-4.979l0.21-0.773l1.993,0.619l-0.588,2.183
		c1.707-1.255,3.405-1.619,5.098-1.095c1.646,0.513,2.784,1.635,3.413,3.365c0.597,1.644,0.566,3.52-0.089,5.629
		c-0.73,2.349-1.908,4.052-3.535,5.112c-1.395,0.893-2.888,1.092-4.48,0.597c-1.138-0.353-1.996-0.974-2.576-1.862
		c-0.265-0.401-0.531-0.943-0.798-1.625l-2.469,7.94L273.896,835.654z M279.154,826.245c0.208,0.743,0.423,1.34,0.644,1.786
		c0.505,1.035,1.258,1.708,2.26,2.02c1.301,0.404,2.465,0.108,3.493-0.89c0.897-0.866,1.59-2.078,2.074-3.635
		c0.522-1.682,0.611-3.156,0.266-4.421c-0.323-1.208-1.084-1.999-2.285-2.372c-1.483-0.461-3.004,0.021-4.563,1.44L279.154,826.245z
		"/>
	<path fill="#040000" d="M291.469,834.532l2.511-8.077c0.555-1.782,1.091-3.603,1.606-5.455l0.189-0.66l1.979,0.615l-0.728,2.632
		c0.733-0.73,1.454-1.248,2.159-1.559c0.832-0.37,1.736-0.402,2.71-0.1c0.291,0.09,0.613,0.225,0.967,0.405l-0.79,1.863
		c-0.244-0.145-0.484-0.255-0.722-0.328c-1.045-0.324-2.134-0.084-3.262,0.723c-0.629,0.452-1.198,0.998-1.706,1.638l-2.787,8.965
		L291.469,834.532z"/>
	<path fill="#040000" d="M304.449,831.431c-0.338,1.631-0.34,2.922-0.007,3.873c0.461,1.272,1.458,2.146,2.987,2.619
		c1.3,0.405,2.729,0.362,4.291-0.132l0.305,1.906c-1.762,0.469-3.485,0.442-5.168-0.08c-2.237-0.696-3.734-1.965-4.488-3.806
		c-0.657-1.61-0.65-3.493,0.021-5.649c0.813-2.62,2.13-4.366,3.947-5.237c1.36-0.653,2.864-0.726,4.512-0.215
		c2.519,0.784,3.889,2.342,4.112,4.676c0.116,1.323-0.126,3.021-0.729,5.086L304.449,831.431z M312.498,832.062
		c0.3-1.062,0.393-1.997,0.272-2.803c-0.216-1.454-1.058-2.408-2.521-2.862c-1.399-0.437-2.645-0.141-3.731,0.889
		c-0.625,0.593-1.12,1.414-1.484,2.457L312.498,832.062z"/>
	<path fill="#040000" d="M315.1,841.116l1.163-1.479c1.107,1.032,2.159,1.704,3.16,2.014c0.71,0.222,1.389,0.219,2.037-0.01
		c0.696-0.242,1.164-0.759,1.411-1.55c0.188-0.61,0.149-1.143-0.119-1.594c-0.229-0.382-0.874-0.99-1.93-1.828
		c-1.167-0.933-1.949-1.738-2.346-2.42c-0.51-0.897-0.602-1.867-0.275-2.913c0.387-1.246,1.185-2.096,2.393-2.548
		c1.025-0.381,2.189-0.367,3.489,0.037c1.32,0.409,2.556,1.184,3.709,2.319l-1.163,1.479c-0.813-1.013-1.775-1.69-2.884-2.034
		c-0.719-0.225-1.363-0.253-1.934-0.092c-0.654,0.185-1.096,0.638-1.317,1.355c-0.205,0.655-0.098,1.256,0.32,1.806
		c0.307,0.395,0.896,0.952,1.771,1.673c1.354,1.1,2.189,2.018,2.51,2.756c0.335,0.753,0.354,1.605,0.057,2.561
		c-0.425,1.364-1.271,2.274-2.538,2.728c-1.124,0.408-2.379,0.397-3.762-0.031C317.514,842.929,316.264,842.187,315.1,841.116"/>
	<path fill="#040000" d="M326.861,844.772l1.163-1.479c1.107,1.032,2.16,1.704,3.16,2.015c0.71,0.222,1.389,0.217,2.039-0.011
		c0.694-0.242,1.163-0.759,1.409-1.55c0.189-0.61,0.15-1.142-0.118-1.594c-0.23-0.382-0.874-0.99-1.93-1.827
		c-1.168-0.933-1.949-1.738-2.347-2.42c-0.51-0.897-0.602-1.868-0.275-2.914c0.387-1.246,1.185-2.096,2.393-2.548
		c1.026-0.38,2.189-0.367,3.49,0.036c1.32,0.41,2.556,1.185,3.708,2.32l-1.163,1.479c-0.813-1.012-1.774-1.689-2.884-2.033
		c-0.719-0.225-1.363-0.254-1.933-0.092c-0.655,0.185-1.097,0.637-1.318,1.354c-0.205,0.655-0.098,1.257,0.32,1.806
		c0.307,0.395,0.896,0.952,1.771,1.674c1.354,1.099,2.189,2.017,2.51,2.755c0.335,0.753,0.354,1.605,0.057,2.561
		c-0.425,1.365-1.271,2.274-2.538,2.729c-1.124,0.409-2.379,0.396-3.762-0.032C329.276,846.585,328.025,845.843,326.861,844.772"/>
	<path fill="#040000" d="M341.71,850.151l0.515-15.373l2.183,0.68l-0.424,9.594c-0.066,1.496-0.134,2.747-0.209,3.752
		c0.628-1.022,1.32-2.113,2.081-3.274l5.196-8.007l2.771,0.861l-0.126,9.36c-0.028,1.467-0.065,2.838-0.111,4.109
		c0.615-1.016,1.307-2.128,2.07-3.337l5.072-7.985l1.923,0.599l-8.374,12.929l-2.673-0.831l0.083-9.896
		c0.011-1.354,0.034-2.573,0.072-3.659c-0.626,1.024-1.311,2.103-2.053,3.239l-5.296,8.08L341.71,850.151z"/>
	<path fill="#040000" d="M369.485,856.977c-1.59,0.912-3.199,1.115-4.828,0.608c-1.482-0.461-2.484-1.23-3.006-2.311
		c-0.464-0.953-0.506-2.034-0.13-3.244c0.97-3.119,3.593-4.015,7.869-2.686c0.345,0.107,1.034,0.343,2.069,0.704l0.119-0.384
		c0.319-1.026,0.433-1.854,0.338-2.482c-0.168-1.13-0.952-1.911-2.353-2.348c-1.146-0.356-2.493-0.325-4.038,0.092l-0.457-1.805
		c1.767-0.487,3.521-0.461,5.258,0.079c2.147,0.667,3.417,1.766,3.81,3.294c0.183,0.726,0.13,1.666-0.159,2.824
		c-0.101,0.417-0.27,1.004-0.503,1.759l-1.438,4.626c-0.453,1.455-0.783,2.646-0.989,3.568l-1.979-0.615L369.485,856.977z
		 M370.956,851.672c-0.508-0.197-1.03-0.38-1.566-0.547c-1.52-0.473-2.688-0.615-3.501-0.431c-1.072,0.237-1.775,0.896-2.112,1.978
		c-0.237,0.766-0.2,1.444,0.114,2.041c0.328,0.61,0.888,1.039,1.68,1.285c1.483,0.461,2.936,0.119,4.359-1.023L370.956,851.672z"/>
	<path fill="#040000" d="M379.229,862.025l-1.119-16.091l2.279,0.709l0.602,9.48c0.059,1.024,0.109,2.223,0.153,3.593
		c0.785-1.083,1.526-2.069,2.222-2.96l5.742-7.402l1.992,0.619l-10.535,13.574c-1.094,1.406-2.116,2.435-3.067,3.086
		c-1.038,0.705-2.271,0.836-3.699,0.394c-0.646-0.201-1.312-0.515-1.999-0.938l0.908-1.618c0.509,0.388,1.003,0.657,1.485,0.808
		c1.127,0.35,2.201,0.01,3.221-1.021C378.051,863.619,378.656,862.875,379.229,862.025"/>
	<path fill="#040000" d="M396.537,867.196l6.011-19.335l4.12,1.281c2.047,0.637,3.47,1.401,4.269,2.3
		c1.233,1.36,1.557,2.987,0.968,4.879c-0.497,1.601-1.438,2.686-2.823,3.252c-0.776,0.319-1.711,0.437-2.802,0.356
		c0.771,0.528,1.254,1.112,1.444,1.752c0.148,0.483,0.279,1.379,0.396,2.681l0.549,6.606l-2.374-0.738l-0.541-5.481
		c-0.183-1.853-0.465-3.066-0.843-3.644c-0.402-0.604-1.338-1.135-2.813-1.592l-0.655-0.204l-2.668,8.583L396.537,867.196z
		 M402.015,857.467l1.037,0.322c1.521,0.473,2.728,0.648,3.622,0.528c1.395-0.186,2.322-1.02,2.783-2.501
		c0.436-1.403,0.214-2.534-0.665-3.396c-0.588-0.582-1.66-1.114-3.215-1.599l-1.365-0.423L402.015,857.467z"/>
	<path fill="#040000" d="M421.524,859.118c2.012,0.625,3.393,1.906,4.146,3.848c0.637,1.643,0.639,3.479,0.009,5.508
		c-0.684,2.202-1.841,3.787-3.469,4.758c-1.645,0.986-3.424,1.181-5.344,0.584c-2.065-0.642-3.475-1.938-4.225-3.887
		c-0.638-1.636-0.64-3.476-0.004-5.522c0.682-2.193,1.837-3.773,3.465-4.744C417.743,858.685,419.55,858.504,421.524,859.118
		 M420.858,860.781c-1.502-0.468-2.854-0.125-4.062,1.026c-0.845,0.795-1.487,1.897-1.924,3.308
		c-0.488,1.563-0.56,2.948-0.216,4.152c0.406,1.453,1.32,2.401,2.74,2.842c1.526,0.476,2.898,0.139,4.112-1.011
		c0.847-0.794,1.491-1.9,1.931-3.319c0.486-1.564,0.559-2.949,0.215-4.153C423.237,862.178,422.304,861.229,420.858,860.781"/>
	<path fill="#040000" d="M435.298,877.436c-1.591,0.912-3.199,1.114-4.828,0.608c-1.482-0.461-2.484-1.23-3.008-2.311
		c-0.462-0.953-0.505-2.033-0.129-3.244c0.97-3.119,3.593-4.015,7.869-2.685c0.346,0.106,1.035,0.342,2.07,0.702l0.119-0.383
		c0.318-1.026,0.433-1.854,0.338-2.481c-0.168-1.13-0.951-1.912-2.354-2.349c-1.145-0.355-2.492-0.325-4.038,0.093l-0.457-1.805
		c1.769-0.488,3.521-0.462,5.259,0.078c2.146,0.667,3.416,1.766,3.809,3.294c0.183,0.727,0.131,1.667-0.159,2.824
		c-0.101,0.418-0.269,1.004-0.502,1.759l-1.438,4.626c-0.453,1.455-0.783,2.646-0.99,3.569l-1.978-0.616L435.298,877.436z
		 M436.769,872.131c-0.508-0.197-1.029-0.38-1.566-0.547c-1.52-0.472-2.688-0.615-3.502-0.43c-1.072,0.236-1.775,0.895-2.112,1.978
		c-0.237,0.765-0.2,1.443,0.114,2.04c0.328,0.61,0.889,1.039,1.681,1.286c1.483,0.461,2.937,0.118,4.359-1.024L436.769,872.131z"/>
	<path fill="#040000" d="M456.651,863.483l2.128,0.66l-4.746,15.271c-0.41,1.317-0.862,2.881-1.353,4.683l-0.143,0.508l-2.005-0.623
		l0.601-2.177c-0.727,0.511-1.332,0.864-1.808,1.054c-0.994,0.401-2.054,0.424-3.183,0.073c-1.719-0.534-2.881-1.672-3.484-3.419
		c-0.596-1.71-0.555-3.652,0.121-5.828c0.707-2.272,1.852-3.906,3.438-4.899c1.413-0.889,2.88-1.097,4.398-0.623
		c1.683,0.522,2.842,1.7,3.479,3.535L456.651,863.483z M453.436,873.825c-0.358-2.057-1.334-3.331-2.926-3.826
		c-1.2-0.373-2.276-0.153-3.227,0.656c-1.001,0.849-1.765,2.111-2.287,3.794c-0.484,1.557-0.601,2.945-0.354,4.17
		c0.283,1.404,1.072,2.309,2.375,2.714c0.99,0.307,1.993,0.18,3.006-0.383c0.457-0.246,0.972-0.62,1.548-1.12L453.436,873.825z"/>
	<path fill="#004364" d="M866.505,367.453H543.952h-13.615c-7.104,0-12.917-5.812-12.917-12.917v-34.665
		c0-7.104,5.813-12.916,12.917-12.916h336.168c7.104,0,12.916,5.812,12.916,12.916v34.665
		C879.421,361.642,873.608,367.453,866.505,367.453"/>
	<polygon fill="#FFFFFF" points="543.221,348.904 543.122,328.656 545.466,328.645 545.555,346.965 554.328,346.922 554.338,348.85 
			"/>
	<path fill="#FFFFFF" d="M558.207,342.015c0.17,1.657,0.556,2.89,1.161,3.696c0.823,1.073,2.035,1.605,3.637,1.597
		c1.361-0.007,2.711-0.479,4.05-1.421l0.867,1.726c-1.54,0.979-3.19,1.474-4.952,1.481c-2.342,0.012-4.152-0.746-5.425-2.273
		c-1.113-1.338-1.674-3.137-1.686-5.395c-0.014-2.744,0.716-4.804,2.186-6.183c1.1-1.034,2.511-1.557,4.235-1.565
		c2.639-0.012,4.415,1.061,5.33,3.218c0.512,1.228,0.791,2.917,0.841,5.068L558.207,342.015z M566.069,340.189
		c-0.033-1.104-0.229-2.022-0.585-2.755c-0.644-1.319-1.733-1.977-3.267-1.97c-1.466,0.007-2.564,0.665-3.291,1.974
		c-0.416,0.755-0.64,1.686-0.671,2.789L566.069,340.189z"/>
	<path fill="#FFFFFF" d="M579.801,348.726l-0.099-20.247l3.259-0.017l5.805,15.29c0.299,0.789,0.633,1.731,1,2.825
		c0.28-0.907,0.6-1.852,0.958-2.834l5.513-15.347l3.129-0.015l0.099,20.248l-2.344,0.011l-0.083-16.859
		c-0.703,2.289-1.266,4.016-1.688,5.18l-4.315,11.71l-2.715,0.013l-4.516-11.537c-0.491-1.256-1.109-3.021-1.855-5.293l0.083,16.861
		L579.801,348.726z"/>
	<path fill="#FFFFFF" d="M605.848,341.782c0.17,1.657,0.556,2.89,1.161,3.696c0.823,1.073,2.035,1.605,3.637,1.597
		c1.361-0.007,2.712-0.479,4.051-1.421l0.867,1.726c-1.54,0.979-3.19,1.474-4.953,1.481c-2.342,0.012-4.152-0.746-5.425-2.273
		c-1.113-1.34-1.674-3.137-1.686-5.395c-0.014-2.744,0.716-4.804,2.186-6.183c1.1-1.034,2.511-1.557,4.235-1.565
		c2.64-0.012,4.416,1.061,5.331,3.218c0.512,1.228,0.791,2.917,0.841,5.068L605.848,341.782z M613.711,339.957
		c-0.033-1.104-0.229-2.022-0.585-2.755c-0.644-1.32-1.733-1.977-3.268-1.97c-1.466,0.007-2.564,0.665-3.291,1.974
		c-0.416,0.755-0.64,1.686-0.671,2.789L613.711,339.957z"/>
	<path fill="#FFFFFF" d="M620.069,348.529l-0.042-8.459c-0.009-1.866-0.046-3.764-0.112-5.687l-0.019-0.687l2.072-0.011l0.099,2.729
		c0.481-0.916,1.013-1.629,1.592-2.137c0.682-0.604,1.532-0.907,2.553-0.912c0.304-0.002,0.651,0.029,1.044,0.096l-0.191,2.015
		c-0.276-0.064-0.539-0.098-0.786-0.096c-1.096,0.004-2.061,0.562-2.894,1.671c-0.462,0.622-0.84,1.314-1.131,2.077l0.045,9.388
		L620.069,348.529z"/>
	<path fill="#FFFFFF" d="M631.338,326.797c0.543-0.003,0.963,0.2,1.26,0.609c0.202,0.274,0.303,0.597,0.306,0.969
		c0.002,0.363-0.097,0.682-0.296,0.959c-0.293,0.412-0.721,0.618-1.282,0.621c-0.554,0.003-0.979-0.2-1.275-0.608
		c-0.201-0.274-0.302-0.594-0.304-0.956c-0.002-0.372,0.096-0.694,0.295-0.973C630.334,327.006,630.766,326.8,631.338,326.797
		 M630.315,348.479l-0.071-14.832l2.228-0.011l0.073,14.832L630.315,348.479z"/>
	<path fill="#FFFFFF" d="M646.615,327.008l2.23-0.011l0.077,15.989c0.008,1.381,0.049,3.006,0.123,4.874l0.019,0.528l-2.101,0.01
		l-0.084-2.257c-0.539,0.707-1.008,1.224-1.406,1.55c-0.826,0.68-1.829,1.022-3.012,1.029c-1.8,0.009-3.252-0.729-4.354-2.208
		c-1.083-1.452-1.63-3.317-1.641-5.594c-0.013-2.382,0.589-4.286,1.802-5.711c1.079-1.271,2.414-1.912,4.004-1.92
		c1.763-0.009,3.224,0.766,4.385,2.322L646.615,327.008z M646.668,337.839c-0.962-1.854-2.275-2.774-3.942-2.768
		c-1.258,0.007-2.217,0.54-2.879,1.601c-0.7,1.108-1.045,2.545-1.037,4.308c0.008,1.629,0.314,2.989,0.921,4.082
		c0.692,1.254,1.718,1.878,3.081,1.871c1.038-0.005,1.956-0.43,2.752-1.271c0.359-0.374,0.739-0.885,1.135-1.535L646.668,337.839z"
		/>
	<path fill="#FFFFFF" d="M655.073,326.681c0.543-0.002,0.963,0.201,1.26,0.609c0.202,0.274,0.303,0.598,0.305,0.97
		c0.003,0.363-0.096,0.681-0.295,0.958c-0.293,0.413-0.721,0.619-1.282,0.622c-0.554,0.002-0.979-0.201-1.275-0.609
		c-0.201-0.274-0.302-0.594-0.304-0.956c-0.002-0.372,0.096-0.694,0.295-0.973C654.069,326.89,654.501,326.684,655.073,326.681
		 M654.051,348.363l-0.071-14.832l2.228-0.012l0.073,14.833L654.051,348.363z"/>
	<path fill="#FFFFFF" d="M662.563,341.505c0.17,1.657,0.556,2.89,1.161,3.696c0.823,1.073,2.035,1.604,3.637,1.597
		c1.361-0.007,2.712-0.479,4.051-1.42l0.867,1.726c-1.54,0.978-3.19,1.474-4.953,1.48c-2.342,0.012-4.152-0.746-5.425-2.273
		c-1.113-1.339-1.673-3.136-1.685-5.394c-0.014-2.744,0.715-4.805,2.185-6.183c1.1-1.035,2.511-1.558,4.235-1.565
		c2.64-0.012,4.416,1.061,5.331,3.218c0.512,1.227,0.791,2.916,0.841,5.068L662.563,341.505z M670.426,339.681
		c-0.033-1.104-0.229-2.022-0.585-2.755c-0.644-1.32-1.733-1.978-3.268-1.971c-1.466,0.007-2.564,0.666-3.291,1.974
		c-0.416,0.757-0.64,1.687-0.671,2.79L670.426,339.681z"/>
	<path fill="#FFFFFF" d="M676.756,348.252l-0.049-10.003c-0.012-2.257-0.058-3.865-0.138-4.829l2.201-0.011l0.096,2.359
		c0.559-0.594,1.086-1.074,1.579-1.438c1.13-0.825,2.395-1.241,3.795-1.248c1.877-0.01,3.167,0.671,3.869,2.039
		c0.413,0.817,0.626,2.317,0.636,4.498l0.042,8.573l-2.229,0.011l-0.042-8.616c-0.009-1.485-0.117-2.532-0.329-3.143
		c-0.377-1.054-1.233-1.58-2.567-1.573c-1.6,0.009-3.162,0.944-4.687,2.811l0.052,10.559L676.756,348.252z"/>
	<path fill="#FFFFFF" d="M705.563,348.111l-0.045-9.116l-7.142-11.097l2.759-0.014l4.247,6.71c0.519,0.808,0.985,1.596,1.398,2.366
		c0.586-1.071,1.054-1.887,1.402-2.451l4.126-6.679l2.572-0.013l-7.019,11.165l0.045,9.117L705.563,348.111z"/>
	<path fill="#FFFFFF" d="M718.489,326.372c0.543-0.003,0.963,0.2,1.26,0.608c0.202,0.274,0.303,0.598,0.305,0.97
		c0.002,0.363-0.096,0.681-0.295,0.958c-0.293,0.413-0.721,0.619-1.282,0.622c-0.554,0.002-0.979-0.2-1.275-0.609
		c-0.201-0.274-0.302-0.593-0.304-0.955c-0.002-0.372,0.096-0.695,0.295-0.974C717.485,326.581,717.917,326.374,718.489,326.372
		 M717.467,348.054l-0.071-14.833l2.228-0.011l0.073,14.833L717.467,348.054z"/>
	<polygon fill="#FFFFFF" points="722.797,348.027 728.175,340.543 722.982,333.193 725.625,333.181 729.482,338.751 
		733.471,333.143 735.871,333.132 730.66,340.315 736.059,347.964 733.414,347.976 729.356,342.193 725.197,348.016 	"/>
	<path fill="#FFFFFF" d="M740.181,326.266c0.543-0.003,0.963,0.2,1.26,0.609c0.202,0.274,0.303,0.597,0.305,0.97
		c0.002,0.362-0.096,0.681-0.295,0.958c-0.293,0.412-0.721,0.618-1.282,0.621c-0.554,0.003-0.979-0.2-1.275-0.608
		c-0.201-0.274-0.302-0.594-0.304-0.956c-0.002-0.372,0.096-0.694,0.295-0.973C739.177,326.475,739.608,326.269,740.181,326.266
		 M739.158,347.948l-0.071-14.833l2.228-0.011l0.073,14.832L739.158,347.948z"/>
	<path fill="#FFFFFF" d="M746.476,347.912l-0.05-10.003c-0.012-2.258-0.058-3.866-0.138-4.829l2.201-0.011l0.096,2.358
		c0.559-0.593,1.086-1.073,1.579-1.438c1.13-0.824,2.396-1.24,3.795-1.248c1.877-0.009,3.167,0.672,3.869,2.039
		c0.412,0.818,0.625,2.318,0.635,4.499l0.042,8.573l-2.228,0.011l-0.042-8.616c-0.008-1.485-0.117-2.533-0.329-3.143
		c-0.377-1.054-1.233-1.58-2.567-1.573c-1.6,0.009-3.162,0.943-4.687,2.811l0.052,10.559L746.476,347.912z"/>
	<path fill="#FFFFFF" d="M772.723,332.952l2.172-0.011c-0.063,2.391-0.094,4.34-0.086,5.845l0.036,7.416
		c0.008,1.676-0.085,2.95-0.281,3.817c-0.316,1.383-1.094,2.49-2.328,3.325c-1.034,0.692-2.274,1.041-3.724,1.048
		c-1.981,0.011-3.856-0.521-5.624-1.588l0.95-1.72c1.509,1.023,3.046,1.53,4.607,1.522c1.744-0.009,2.949-0.721,3.619-2.134
		c0.377-0.793,0.562-2.146,0.552-4.061l-0.006-1.229c-1.373,1.569-2.88,2.358-4.518,2.366c-1.658,0.008-3.038-0.657-4.141-1.995
		c-1.082-1.3-1.629-3.063-1.64-5.293c-0.012-2.42,0.578-4.342,1.772-5.767c1.004-1.206,2.33-1.813,3.978-1.821
		c1.952-0.01,3.481,0.841,4.585,2.55L772.723,332.952z M772.571,337.31c-1.019-1.907-2.36-2.859-4.027-2.852
		c-1.325,0.006-2.326,0.612-3.008,1.816c-0.595,1.068-0.889,2.386-0.881,3.947c0.008,1.516,0.328,2.784,0.962,3.811
		c0.729,1.16,1.751,1.734,3.065,1.729c1.591-0.008,2.898-0.887,3.917-2.635L772.571,337.31z"/>
	<polygon fill="#FFFFFF" points="787.355,347.713 787.257,327.465 789.601,327.453 789.644,336.369 799.389,336.321 
		799.346,327.406 801.689,327.396 801.789,347.644 799.445,347.653 799.398,338.251 789.654,338.299 789.7,347.701 	"/>
	<path fill="#FFFFFF" d="M812.689,332.457c2.104-0.012,3.809,0.796,5.112,2.418c1.104,1.377,1.659,3.127,1.67,5.251
		c0.012,2.306-0.613,4.166-1.874,5.583c-1.27,1.434-2.908,2.156-4.919,2.167c-2.163,0.011-3.895-0.801-5.198-2.434
		c-1.104-1.366-1.659-3.122-1.671-5.265c-0.011-2.295,0.614-4.152,1.874-5.568C808.953,333.185,810.621,332.467,812.689,332.457
		 M812.555,334.243c-1.571,0.009-2.759,0.742-3.562,2.203c-0.566,1.014-0.846,2.259-0.838,3.734
		c0.007,1.639,0.355,2.979,1.048,4.024c0.825,1.264,1.98,1.893,3.467,1.885c1.601-0.008,2.808-0.743,3.618-2.204
		c0.568-1.013,0.847-2.263,0.84-3.748c-0.009-1.64-0.357-2.981-1.049-4.025C815.244,334.858,814.07,334.235,812.555,334.243"/>
	<path fill="#FFFFFF" d="M824.231,334.486l-2.399,0.013l-0.009-1.787l2.399-0.013l-0.016-3.242l2.227-0.483l0.02,3.715l3.501-0.016
		l0.008,1.787l-3.501,0.016l0.04,8.103c0.005,1.229,0.114,2.065,0.327,2.513c0.307,0.619,0.87,0.925,1.688,0.921
		c0.495-0.003,1.067-0.153,1.713-0.452l0.209,1.771c-0.855,0.309-1.659,0.467-2.413,0.469c-1.485,0.008-2.517-0.445-3.094-1.356
		c-0.431-0.675-0.65-1.811-0.659-3.412L824.231,334.486z"/>
	<path fill="#FFFFFF" d="M834.751,340.665c0.17,1.657,0.556,2.89,1.161,3.696c0.823,1.073,2.035,1.605,3.637,1.597
		c1.362-0.007,2.712-0.479,4.051-1.42l0.867,1.725c-1.54,0.979-3.19,1.474-4.953,1.481c-2.342,0.012-4.152-0.746-5.425-2.273
		c-1.113-1.338-1.674-3.137-1.686-5.395c-0.014-2.744,0.715-4.804,2.186-6.182c1.1-1.035,2.511-1.558,4.235-1.566
		c2.64-0.012,4.416,1.061,5.331,3.219c0.512,1.227,0.791,2.916,0.841,5.067L834.751,340.665z M842.614,338.84
		c-0.033-1.104-0.229-2.022-0.585-2.755c-0.644-1.319-1.733-1.977-3.268-1.97c-1.466,0.007-2.564,0.666-3.291,1.974
		c-0.416,0.755-0.64,1.686-0.671,2.789L842.614,338.84z"/>
	
		<rect x="839.31" y="335.598" transform="matrix(0.0048 1 -1 0.0048 1182.6006 -514.9143)" fill="#FFFFFF" width="21.392" height="2.228"/>
	<polygon fill="#004364" points="509.771,406.865 585.345,366.924 543.953,367.453 	"/>
	<polygon fill="#040000" points="398.689,265.141 381.946,253.755 383.264,251.818 390.638,256.831 396.118,248.772 
		388.745,243.758 390.062,241.821 406.805,253.206 405.487,255.144 397.713,249.857 392.232,257.916 400.007,263.204 	"/>
	<path fill="#040000" d="M404.045,230.888l8.271,5.624c1.907,1.296,3.259,2.171,4.058,2.621l-1.236,1.819l-2.01-1.262
		c0.543,2.351,0.287,4.307-0.773,5.867c-1.03,1.513-2.306,2.166-3.825,1.962c-0.907-0.122-2.258-0.793-4.054-2.015l-7.091-4.82
		l1.253-1.844l7.125,4.845c1.229,0.836,2.15,1.335,2.765,1.499c1.079,0.295,1.979-0.088,2.703-1.151
		c0.888-1.308,0.987-3.096,0.294-5.365l-8.732-5.937L404.045,230.888z"/>
	<path fill="#040000" d="M401.889,221.886c0.306-0.448,0.711-0.679,1.215-0.693c0.342-0.011,0.666,0.088,0.973,0.297
		c0.3,0.204,0.507,0.466,0.623,0.788c0.173,0.474,0.101,0.944-0.215,1.409c-0.312,0.456-0.719,0.692-1.225,0.705
		c-0.34,0.011-0.66-0.086-0.96-0.289c-0.307-0.209-0.518-0.476-0.635-0.796C401.493,222.834,401.568,222.359,401.889,221.886
		 M419.179,235.009l-12.265-8.34l1.253-1.843l12.266,8.34L419.179,235.009z"/>
	<polygon fill="#040000" points="422.177,230.602 419.054,221.929 410.056,222.049 411.542,219.864 418.316,219.838 
		415.953,213.376 417.304,211.391 420.274,219.752 429.632,219.636 428.146,221.823 421.083,221.892 423.526,228.617 	"/>
	<path fill="#040000" d="M414.085,203.95c0.307-0.449,0.711-0.68,1.215-0.694c0.343-0.01,0.666,0.089,0.973,0.298
		c0.3,0.204,0.508,0.466,0.623,0.787c0.173,0.474,0.102,0.944-0.215,1.409c-0.311,0.457-0.717,0.692-1.223,0.706
		c-0.342,0.01-0.66-0.087-0.961-0.29c-0.307-0.209-0.519-0.475-0.635-0.795C413.69,204.896,413.765,204.423,414.085,203.95
		 M431.376,217.073l-12.266-8.34l1.254-1.844l12.266,8.34L431.376,217.073z"/>
	<path fill="#040000" d="M435.489,211.023l-8.271-5.625c-1.867-1.269-3.22-2.143-4.058-2.621l1.236-1.819l1.998,1.253
		c-0.173-0.795-0.268-1.501-0.29-2.115c-0.039-1.397,0.333-2.676,1.12-3.834c1.057-1.551,2.348-2.228,3.872-2.033
		c0.909,0.123,2.265,0.796,4.069,2.023l7.089,4.821l-1.255,1.844l-7.125-4.845c-1.229-0.836-2.153-1.338-2.775-1.508
		c-1.084-0.287-2.001,0.12-2.751,1.223c-0.899,1.323-1.011,3.141-0.339,5.455l8.732,5.937L435.489,211.023z"/>
	<path fill="#040000" d="M438.024,180.917l1.223-1.797c1.933,1.408,3.522,2.535,4.767,3.38l6.133,4.171
		c1.387,0.942,2.383,1.74,2.987,2.393c0.961,1.046,1.434,2.312,1.423,3.802c-0.017,1.245-0.433,2.466-1.246,3.664
		c-1.114,1.638-2.61,2.883-4.493,3.735l-0.88-1.756c1.699-0.666,2.985-1.646,3.865-2.937c0.979-1.442,1.077-2.838,0.292-4.19
		c-0.44-0.761-1.452-1.679-3.035-2.755l-1.016-0.691c0.514,2.021,0.312,3.709-0.61,5.064c-0.931,1.37-2.261,2.131-3.988,2.28
		c-1.684,0.158-3.446-0.39-5.291-1.644c-2.001-1.36-3.251-2.937-3.75-4.728c-0.425-1.509-0.175-2.946,0.753-4.309
		c1.098-1.614,2.663-2.393,4.698-2.334L438.024,180.917z M441.534,183.509c-2.152-0.241-3.697,0.326-4.635,1.705
		c-0.745,1.095-0.813,2.264-0.206,3.506c0.545,1.096,1.464,2.083,2.755,2.962c1.252,0.851,2.481,1.306,3.686,1.365
		c1.369,0.056,2.422-0.46,3.162-1.548c0.894-1.315,0.908-2.889,0.047-4.719L441.534,183.509z"/>
	<path fill="#040000" d="M458.477,177.216l-16.743-11.386l1.52-2.233l15.037,0.807c0.964,0.057,2.208,0.16,3.73,0.309l0.871,0.091
		c-0.729-0.451-1.567-0.998-2.514-1.641l-11.508-7.826l1.253-1.843l16.743,11.386l-1.535,2.257l-15.184-0.821
		c-1.412-0.074-2.885-0.205-4.414-0.393c0.848,0.531,1.91,1.23,3.186,2.097l10.813,7.352L458.477,177.216z"/>
	<path fill="#040000" d="M460.531,147.284c1.183-1.741,2.813-2.69,4.89-2.844c1.757-0.129,3.517,0.404,5.272,1.598
		c1.907,1.297,3.087,2.864,3.541,4.705c0.462,1.859,0.13,3.621-1,5.282c-1.216,1.789-2.867,2.758-4.951,2.907
		c-1.75,0.134-3.511-0.401-5.283-1.606c-1.897-1.291-3.075-2.857-3.528-4.696C459.017,150.774,459.368,148.993,460.531,147.284
		 M461.928,148.407c-0.884,1.3-0.949,2.694-0.2,4.184c0.513,1.04,1.381,1.975,2.601,2.805c1.356,0.922,2.661,1.394,3.912,1.416
		c1.509,0.034,2.68-0.562,3.516-1.792c0.9-1.323,0.979-2.733,0.234-4.23c-0.514-1.04-1.386-1.979-2.616-2.815
		c-1.353-0.921-2.657-1.392-3.91-1.415C463.958,146.539,462.78,147.154,461.928,148.407"/>
	<path fill="#040000" d="M479.095,146.896l-6.993-4.757c-1.544-1.05-3.13-2.092-4.753-3.128l-0.574-0.373l1.165-1.713l2.305,1.463
		c-0.483-0.916-0.771-1.756-0.861-2.52c-0.109-0.905,0.12-1.78,0.693-2.622c0.171-0.252,0.395-0.52,0.67-0.806l1.554,1.298
		c-0.211,0.191-0.386,0.389-0.523,0.595c-0.617,0.906-0.704,2.015-0.262,3.33c0.25,0.734,0.605,1.437,1.07,2.11l7.764,5.279
		L479.095,146.896z"/>
	<path fill="#040000" d="M474.519,130.425l-1.35,1.985l-1.477-1.004l1.349-1.985l-2.682-1.824l0.862-2.109l3.072,2.09l1.969-2.895
		l1.479,1.004l-1.969,2.895l6.698,4.556c1.018,0.691,1.77,1.075,2.257,1.154c0.685,0.097,1.256-0.194,1.717-0.872
		c0.277-0.409,0.477-0.965,0.598-1.667l1.578,0.831c-0.231,0.88-0.557,1.632-0.98,2.254c-0.835,1.23-1.793,1.822-2.87,1.781
		c-0.801-0.026-1.86-0.489-3.186-1.389L474.519,130.425z"/>
	<path fill="#040000" d="M490.513,130.105l-17.688-12.028l1.253-1.844l7.327,4.981c-0.513-2.329-0.232-4.287,0.845-5.87
		c1.05-1.544,2.341-2.22,3.871-2.033c0.909,0.123,2.265,0.797,4.069,2.023l7.089,4.822l-1.253,1.843l-7.125-4.845
		c-1.229-0.836-2.155-1.338-2.776-1.508c-1.079-0.295-1.996,0.112-2.751,1.223c-0.905,1.332-1.018,3.15-0.339,5.455l8.732,5.937
		L490.513,130.105z"/>
	<path fill="#040000" d="M504.235,109.922l-16.742-11.386l2.427-3.568c1.205-1.772,2.353-2.91,3.442-3.412
		c1.661-0.783,3.312-0.617,4.95,0.497c1.388,0.942,2.15,2.158,2.288,3.647c0.078,0.836-0.082,1.764-0.476,2.786
		c0.731-0.585,1.43-0.875,2.095-0.872c0.508-0.001,1.402,0.133,2.68,0.405l6.48,1.398l-1.399,2.057l-5.398-1.08
		c-1.826-0.365-3.07-0.451-3.731-0.256c-0.695,0.207-1.476,0.948-2.344,2.225l-0.385,0.567l7.432,5.055L504.235,109.922z
		 M496.526,101.846l0.61-0.898c0.896-1.316,1.415-2.419,1.562-3.311c0.229-1.388-0.299-2.518-1.584-3.392
		c-1.213-0.824-2.358-0.942-3.439-0.352c-0.729,0.392-1.55,1.262-2.466,2.609l-0.804,1.182L496.526,101.846z"/>
	<path fill="#040000" d="M503.791,83.665c1.184-1.74,2.813-2.689,4.89-2.843c1.757-0.13,3.517,0.403,5.272,1.597
		c1.907,1.297,3.087,2.865,3.541,4.705c0.463,1.859,0.13,3.621-1,5.283c-1.216,1.788-2.867,2.757-4.951,2.906
		c-1.749,0.135-3.511-0.4-5.283-1.605c-1.897-1.291-3.075-2.858-3.528-4.697C502.275,87.155,502.628,85.375,503.791,83.665
		 M505.188,84.788c-0.884,1.3-0.949,2.695-0.2,4.184c0.513,1.04,1.382,1.975,2.602,2.805c1.355,0.922,2.66,1.395,3.911,1.416
		c1.509,0.034,2.68-0.562,3.516-1.791c0.9-1.323,0.979-2.734,0.234-4.231c-0.515-1.04-1.385-1.979-2.615-2.815
		c-1.353-0.921-2.658-1.391-3.911-1.414C507.218,82.919,506.04,83.536,505.188,84.788"/>
	<path fill="#040000" d="M525.329,75.828c0.409,1.788,0.134,3.387-0.825,4.797c-0.873,1.284-1.903,2.018-3.089,2.202
		c-1.044,0.165-2.09-0.108-3.138-0.82c-2.702-1.838-2.795-4.608-0.278-8.311c0.204-0.299,0.63-0.89,1.278-1.774l-0.331-0.226
		c-0.891-0.605-1.65-0.954-2.278-1.047c-1.129-0.169-2.105,0.353-2.931,1.566c-0.675,0.992-1.038,2.289-1.09,3.89l-1.858-0.088
		c0.048-1.833,0.584-3.503,1.607-5.008c1.265-1.859,2.685-2.753,4.263-2.683c0.747,0.035,1.631,0.362,2.654,0.976
		c0.369,0.217,0.882,0.548,1.535,0.993l4.006,2.724c1.261,0.856,2.303,1.519,3.125,1.986l-1.165,1.714L525.329,75.828z
		 M520.683,72.878c-0.337,0.427-0.662,0.873-0.979,1.338c-0.895,1.315-1.373,2.39-1.433,3.224c-0.087,1.093,0.339,1.959,1.275,2.596
		c0.661,0.45,1.323,0.613,1.986,0.486c0.679-0.136,1.253-0.547,1.718-1.233c0.873-1.283,0.971-2.771,0.291-4.467L520.683,72.878z"/>
	<path fill="#040000" d="M518.206,51.338l1.253-1.844l13.223,8.992c1.142,0.776,2.503,1.663,4.085,2.657l0.445,0.285l-1.183,1.737
		l-1.905-1.21c0.277,0.845,0.437,1.525,0.479,2.036c0.094,1.067-0.192,2.087-0.856,3.065c-1.013,1.488-2.44,2.269-4.285,2.339
		c-1.811,0.071-3.656-0.534-5.539-1.815c-1.971-1.338-3.198-2.912-3.688-4.718c-0.437-1.611-0.209-3.074,0.687-4.39
		c0.991-1.457,2.457-2.223,4.396-2.297L518.206,51.338z M527.163,57.429c-2.072-0.258-3.577,0.304-4.516,1.682
		c-0.707,1.04-0.81,2.133-0.31,3.279c0.516,1.204,1.504,2.302,2.961,3.293c1.347,0.916,2.642,1.434,3.885,1.554
		c1.425,0.139,2.522-0.354,3.288-1.481c0.584-0.857,0.754-1.854,0.511-2.987c-0.103-0.509-0.311-1.11-0.621-1.805L527.163,57.429z"
		/>
</g>
</svg>
