<?xml version="1.0" encoding="utf-8"?>
<!-- Generator: Adobe Illustrator 16.0.0, SVG Export Plug-In . SVG Version: 6.00 Build 0)  -->
<!DOCTYPE svg PUBLIC "-//W3C//DTD SVG 1.1//EN" "http://www.w3.org/Graphics/SVG/1.1/DTD/svg11.dtd">
<svg version="1.1" id="图层_1" xmlns="http://www.w3.org/2000/svg" xmlns:xlink="http://www.w3.org/1999/xlink" x="0px" y="0px"
	 width="50px" height="50px" viewBox="0 0 50 50" enable-background="new 0 0 50 50" xml:space="preserve">
<g>
	<g opacity="0.14">
		<g>
			<defs>
				<rect id="SVGID_1_" x="0.5" y="0.5" width="49" height="49"/>
			</defs>
			<clipPath id="SVGID_2_">
				<use xlink:href="#SVGID_1_"  overflow="visible"/>
			</clipPath>
			<g clip-path="url(#SVGID_2_)">
				<defs>
					<path id="SVGID_3_" d="M49.5,25.001C49.5,38.531,38.53,49.5,25,49.5c-13.53,0-24.5-10.969-24.5-24.499
						C0.5,11.47,11.469,0.5,25,0.5C38.53,0.5,49.5,11.47,49.5,25.001"/>
				</defs>
				<clipPath id="SVGID_4_">
					<use xlink:href="#SVGID_3_"  overflow="visible"/>
				</clipPath>
				
					<linearGradient id="SVGID_5_" gradientUnits="userSpaceOnUse" x1="-517.5117" y1="993.7334" x2="-516.9966" y2="993.7334" gradientTransform="matrix(95.0636 0 0 -95.0636 49197.0625 94492.8125)">
					<stop  offset="0" style="stop-color:#43C0C4"/>
					<stop  offset="0.0935" style="stop-color:#30B9BD"/>
					<stop  offset="0.2502" style="stop-color:#16B0B4"/>
					<stop  offset="0.3906" style="stop-color:#06ABAE"/>
					<stop  offset="0.5" style="stop-color:#00A9AC"/>
					<stop  offset="0.6324" style="stop-color:#00A8B2"/>
					<stop  offset="0.8112" style="stop-color:#00A7C3"/>
					<stop  offset="1" style="stop-color:#00A5DD"/>
				</linearGradient>
				<rect x="0.5" y="0.5" clip-path="url(#SVGID_4_)" fill="url(#SVGID_5_)" width="49" height="49"/>
			</g>
		</g>
	</g>
	<path fill="none" stroke="#FFFFFF" stroke-width="0.7556" stroke-miterlimit="10" d="M37.68,14.455h-4.826
		c-0.247-0.205-0.841-0.941-1.137-1.31c-1.104-1.37-2.146-2.665-3.237-2.665H21.27c-0.999,0-1.937,0.998-3.364,2.642
		c-0.307,0.354-1,1.154-1.236,1.333h-4.35c-1.544,0-2.801,1.258-2.801,2.807v19.45c0,1.55,1.257,2.811,2.801,2.811H37.68
		c1.545,0,2.801-1.261,2.801-2.811v-19.45C40.48,15.713,39.225,14.455,37.68,14.455z M39.615,36.711
		c0,1.072-0.868,1.945-1.936,1.945H12.32c-1.067,0-1.936-0.873-1.936-1.945v-19.45c0-1.07,0.868-1.941,1.936-1.941h4.456
		c0.049,0,0.097-0.008,0.144-0.025c0.307-0.107,0.754-0.582,1.64-1.605c1.152-1.328,2.083-2.344,2.71-2.344h7.209
		c0.676,0,1.722,1.298,2.563,2.343c0.834,1.035,1.231,1.486,1.529,1.602c0.05,0.019,0.104,0.029,0.156,0.029h4.951
		c1.067,0,1.936,0.872,1.936,1.941V36.711z"/>
	<path fill="#FFFFFF" d="M24.999,18.33c-4.227,0-7.667,3.45-7.667,7.69c0,4.237,3.439,7.687,7.667,7.687
		c2.129,0,4.106-0.854,5.57-2.404c0.246-0.26,0.233-0.671-0.027-0.918c-0.26-0.245-0.672-0.234-0.919,0.027
		c-1.214,1.287-2.855,1.996-4.624,1.996c-3.511,0-6.368-2.866-6.368-6.388c0-3.524,2.857-6.391,6.368-6.391
		c3.513,0,6.37,2.867,6.37,6.391c0,0.358,0.291,0.648,0.65,0.648c0.358,0,0.649-0.29,0.649-0.648
		C32.668,21.779,29.229,18.33,24.999,18.33"/>
</g>
</svg>
