<?xml version="1.0" encoding="utf-8"?>
<!-- Generator: Adobe Illustrator 16.0.0, SVG Export Plug-In . SVG Version: 6.00 Build 0)  -->
<!DOCTYPE svg PUBLIC "-//W3C//DTD SVG 1.1//EN" "http://www.w3.org/Graphics/SVG/1.1/DTD/svg11.dtd">
<svg version="1.1" id="图层_1" xmlns="http://www.w3.org/2000/svg" xmlns:xlink="http://www.w3.org/1999/xlink" x="0px" y="0px"
	 width="790.973px" height="250.905px" viewBox="0 0 790.973 250.905" enable-background="new 0 0 790.973 250.905"
	 xml:space="preserve">
<rect fill="none" width="790.973" height="250.905"/>
<path fill="#FFFFFF" d="M87.078,90.83v4.953l-3.999,0.18v14.621c-4.934,1.771-9.629,2.656-14.085,2.656
	c-6.366,0-11.35-1.761-14.949-5.282c-4.019-3.899-6.029-9.26-6.029-16.084c0-7.44,2.279-13.219,6.834-17.337
	c3.641-3.302,8.514-4.953,14.622-4.953c4.417,0,8.952,0.846,13.607,2.536v10.594H77.2l-0.447-5.998
	c-2.348-0.777-4.715-1.164-7.102-1.164c-4.774,0-8.345,1.632-10.713,4.893c-2.129,2.945-3.193,6.695-3.193,11.25
	c0,5.352,1.522,9.43,4.565,12.235c2.408,2.228,5.452,3.341,9.132,3.341c2.168,0,4.297-0.387,6.386-1.163V95.962l-4.894-0.18V90.83
	H87.078z"/>
<path fill="#FFFFFF" d="M107.01,80.744c4.874,0,8.674,1.621,11.399,4.864c2.447,2.905,3.67,6.695,3.67,11.37
	c0,5.112-1.442,9.15-4.326,12.114c-2.666,2.766-6.316,4.148-10.952,4.148c-4.993,0-8.853-1.621-11.578-4.864
	c-2.447-2.904-3.67-6.704-3.67-11.398c0-5.114,1.442-9.152,4.327-12.115C98.566,82.115,102.275,80.744,107.01,80.744
	 M106.712,86.174c-2.846,0-4.964,1.363-6.356,4.088c-0.936,1.81-1.403,4.058-1.403,6.744c0,2.944,0.557,5.361,1.671,7.251
	c1.412,2.368,3.472,3.552,6.177,3.552c2.944,0,5.103-1.364,6.475-4.089c0.935-1.81,1.403-4.058,1.403-6.743
	c0-2.965-0.557-5.382-1.671-7.252C111.595,87.358,109.497,86.174,106.712,86.174"/>
<path fill="#FFFFFF" d="M168.72,99.483h-15.248l-2.746,7.64l4.536,0.209v5.221h-15.906v-5.221l4.059-0.18l13.637-36.883h8.236
	l13.936,36.883l4.057,0.18v5.221h-16.322v-5.221l4.536-0.18L168.72,99.483z M166.75,93.903l-3.282-9.28
	c-0.856-2.467-1.642-4.894-2.358-7.282c-0.596,2.01-1.392,4.437-2.387,7.282l-3.252,9.28H166.75z"/>
<polygon fill="#FFFFFF" points="188.385,107.123 188.385,73.313 184.416,73.104 184.416,67.882 195.517,67.583 195.517,107.123 
	199.486,107.332 199.486,112.554 184.416,112.554 184.416,107.332 "/>
<polygon fill="#FFFFFF" points="207.393,107.123 207.393,73.313 203.424,73.104 203.424,67.882 214.525,67.583 214.525,107.123 
	218.494,107.332 218.494,112.554 203.424,112.554 203.424,107.332 "/>
<polygon fill="#FFFFFF" points="241.829,107.123 241.829,75.701 237.472,75.492 237.472,70.269 253.615,70.269 253.615,75.492 
	249.229,75.701 249.229,107.123 253.615,107.332 253.615,112.554 237.472,112.554 237.472,107.332 "/>
<path fill="#FFFFFF" d="M261.254,107.152V86.831l-3.969-0.179V81.4l10.652-0.299v4.924c1.154-1.213,2.238-2.178,3.253-2.894
	c2.327-1.591,4.903-2.387,7.729-2.387c4.276,0,7.19,1.621,8.743,4.863c0.776,1.632,1.164,4.278,1.164,7.939v13.606l3.969,0.18v5.221
	h-15.069v-5.221l3.968-0.18V93.546c0-2.269-0.278-3.929-0.836-4.984c-0.814-1.552-2.236-2.328-4.266-2.328
	c-2.846,0-5.58,1.751-8.206,5.252v15.666l3.969,0.18v5.221h-15.069v-5.221L261.254,107.152z"/>
<path fill="#FFFFFF" d="M69.237,167.061v12.923c-1.209,0.464-2.572,0.839-4.089,1.129c-1.517,0.289-2.926,0.434-4.224,0.434
	c-3.677,0-6.667-1.145-8.969-3.434c-2.572-2.546-3.858-5.966-3.858-10.261c0-4.486,1.293-8.068,3.877-10.743
	c2.354-2.444,5.375-3.665,9.066-3.665c2.558,0,5.226,0.643,8.005,1.93l-0.926,2.526c-2.405-1.235-4.797-1.852-7.176-1.852
	c-3.086,0-5.458,1.163-7.117,3.491c-1.581,2.237-2.372,4.996-2.372,8.274c0,3.741,1.08,6.647,3.24,8.718
	c1.685,1.607,3.864,2.411,6.539,2.411c1.581,0,3.194-0.29,4.841-0.868v-8.41h-5.381v-2.604H69.237z"/>
<path fill="#FFFFFF" d="M76.083,181.161v-27.33h5.285c3.291,0,5.677,0.481,7.155,1.446c2.11,1.362,3.163,3.536,3.163,6.519
	c0,1.955-0.513,3.582-1.543,4.88c-1.015,1.261-2.487,2.103-4.417,2.528c-1.259,0.281-2.834,0.424-4.724,0.424h-1.756v11.533H76.083z
	 M79.247,167.023h1.293c2.636,0,4.487-0.271,5.555-0.812c1.491-0.758,2.237-2.229,2.237-4.416c0-1.157-0.271-2.186-0.811-3.086
	c-0.642-1.067-1.632-1.729-2.969-1.986c-0.965-0.193-2.135-0.289-3.511-0.289h-1.794V167.023z"/>
<path fill="#FFFFFF" d="M106.056,181.161v-27.332h4.263c2.108,0,3.728,0.078,4.86,0.232c4.115,0.566,6.172,2.842,6.172,6.828
	c0,2.186-0.65,3.819-1.947,4.899c-0.811,0.669-2.006,1.151-3.588,1.446c4.191,0.476,6.288,2.694,6.288,6.654
	c0,3.01-1.164,5.1-3.491,6.268c-0.991,0.49-2.167,0.799-3.531,0.927c-0.54,0.052-1.742,0.077-3.606,0.077H106.056z M109.219,166.077
	h1.428c2.596,0,4.371-0.27,5.323-0.81c1.351-0.772,2.025-2.102,2.025-3.991c0-2.007-0.63-3.357-1.89-4.052
	c-0.99-0.553-2.81-0.829-5.458-0.829h-1.428V166.077z M109.219,178.595h1.428c1.889,0,3.31-0.069,4.262-0.212
	c2.559-0.386,3.838-1.999,3.838-4.842c0-2.146-0.875-3.588-2.623-4.32c-1.08-0.463-2.906-0.693-5.477-0.693h-1.428V178.595z"/>
<path fill="#FFFFFF" d="M143.494,161.14v13.501c0.013,3.344,0.064,5.518,0.154,6.52h-2.97l-0.116-3.202
	c-0.707,0.759-1.408,1.389-2.102,1.891c-1.582,1.132-3.253,1.697-5.015,1.697c-2.482,0-4.185-0.927-5.111-2.777
	c-0.412-0.836-0.662-1.993-0.752-3.472c-0.052-0.861-0.077-1.723-0.077-2.585V161.14h3.009v11.63c0,2.02,0.14,3.428,0.423,4.225
	c0.489,1.427,1.602,2.141,3.337,2.141c2.122,0,4.192-1.247,6.211-3.741V161.14H143.494z"/>
<path fill="#FFFFFF" d="M148.875,180.177l0.906-2.373c1.839,0.888,3.459,1.331,4.862,1.331c1.015,0,1.896-0.275,2.641-0.829
	c0.798-0.592,1.196-1.44,1.196-2.546c0-0.888-0.263-1.563-0.791-2.025c-0.45-0.398-1.523-0.918-3.22-1.563
	c-1.351-0.527-2.302-0.971-2.855-1.331c-1.774-1.118-2.662-2.616-2.662-4.494c0-1.761,0.688-3.176,2.064-4.243
	c1.17-0.899,2.674-1.35,4.513-1.35c1.877,0,3.781,0.495,5.709,1.486l-0.906,2.371c-1.44-0.965-2.951-1.446-4.532-1.446
	c-1.029,0-1.871,0.219-2.528,0.655c-0.771,0.502-1.157,1.261-1.157,2.276c0,0.927,0.379,1.658,1.138,2.198
	c0.553,0.386,1.537,0.861,2.951,1.428c1.569,0.63,2.643,1.15,3.222,1.563c1.478,1.016,2.218,2.437,2.218,4.263
	c0,1.929-0.727,3.44-2.18,4.532c-1.286,0.978-2.906,1.466-4.86,1.466C152.712,181.546,150.804,181.09,148.875,180.177"/>
<path fill="#FFFFFF" d="M168.529,151.901c0.732,0,1.298,0.277,1.697,0.83c0.269,0.373,0.405,0.809,0.405,1.311
	c0,0.49-0.136,0.92-0.405,1.293c-0.399,0.553-0.978,0.828-1.736,0.828c-0.746,0-1.318-0.275-1.716-0.828
	c-0.271-0.373-0.405-0.803-0.405-1.293c0-0.502,0.134-0.938,0.405-1.311C167.172,152.178,167.757,151.901,168.529,151.901
	 M167.005,161.14h3.009v20.021h-3.009V161.14z"/>
<path fill="#FFFFFF" d="M176.88,181.161V167.66c-0.014-3.267-0.064-5.438-0.154-6.521h2.969l0.117,3.203
	c0.757-0.798,1.471-1.44,2.14-1.93c1.518-1.105,3.228-1.658,5.131-1.658c2.533,0,4.269,0.926,5.207,2.777
	c0.412,0.823,0.662,1.98,0.753,3.472c0.051,0.9,0.077,1.761,0.077,2.585v11.572h-3.009V169.53c0-2.006-0.141-3.414-0.424-4.223
	c-0.501-1.429-1.653-2.142-3.453-2.142c-2.173,0-4.289,1.247-6.345,3.741v14.254H176.88z"/>
<path fill="#FFFFFF" d="M201.491,171.96c0.219,2.237,0.733,3.901,1.543,4.995c1.106,1.453,2.739,2.18,4.899,2.18
	c1.839,0,3.665-0.63,5.478-1.89l1.157,2.333c-2.083,1.312-4.314,1.968-6.692,1.968c-3.163,0-5.601-1.035-7.311-3.104
	c-1.491-1.813-2.237-4.244-2.237-7.291c0-3.69,0.996-6.461,2.989-8.313c1.492-1.39,3.402-2.083,5.729-2.083
	c3.561,0,5.954,1.459,7.176,4.378c0.68,1.646,1.047,3.922,1.098,6.828H201.491z M212.119,169.549
	c-0.039-1.479-0.296-2.713-0.771-3.703c-0.863-1.787-2.329-2.681-4.398-2.681c-1.98,0-3.466,0.881-4.456,2.642
	c-0.565,1.016-0.874,2.264-0.926,3.742H212.119z"/>
<path fill="#FFFFFF" d="M219.1,180.177l0.906-2.373c1.839,0.888,3.459,1.331,4.862,1.331c1.015,0,1.896-0.275,2.641-0.829
	c0.798-0.592,1.196-1.44,1.196-2.546c0-0.888-0.263-1.563-0.791-2.025c-0.45-0.398-1.523-0.918-3.22-1.563
	c-1.351-0.527-2.302-0.971-2.855-1.331c-1.774-1.118-2.662-2.616-2.662-4.494c0-1.761,0.688-3.176,2.064-4.243
	c1.17-0.899,2.674-1.35,4.513-1.35c1.877,0,3.781,0.495,5.709,1.486l-0.906,2.371c-1.44-0.965-2.951-1.446-4.532-1.446
	c-1.029,0-1.871,0.219-2.528,0.655c-0.771,0.502-1.157,1.261-1.157,2.276c0,0.927,0.379,1.658,1.138,2.198
	c0.553,0.386,1.537,0.861,2.951,1.428c1.569,0.63,2.643,1.15,3.222,1.563c1.479,1.016,2.218,2.437,2.218,4.263
	c0,1.929-0.727,3.44-2.18,4.532c-1.286,0.978-2.906,1.466-4.86,1.466C222.938,181.546,221.029,181.09,219.1,180.177"/>
<path fill="#FFFFFF" d="M235.128,180.177l0.906-2.373c1.839,0.888,3.459,1.331,4.862,1.331c1.015,0,1.896-0.275,2.641-0.829
	c0.798-0.592,1.196-1.44,1.196-2.546c0-0.888-0.263-1.563-0.791-2.025c-0.45-0.398-1.523-0.918-3.22-1.563
	c-1.351-0.527-2.302-0.971-2.855-1.331c-1.774-1.118-2.662-2.616-2.662-4.494c0-1.761,0.688-3.176,2.064-4.243
	c1.17-0.899,2.674-1.35,4.513-1.35c1.877,0,3.781,0.495,5.709,1.486l-0.906,2.371c-1.44-0.965-2.951-1.446-4.532-1.446
	c-1.029,0-1.871,0.219-2.528,0.655c-0.771,0.502-1.157,1.261-1.157,2.276c0,0.927,0.379,1.658,1.138,2.198
	c0.553,0.386,1.537,0.861,2.951,1.428c1.569,0.63,2.643,1.15,3.222,1.563c1.478,1.016,2.218,2.437,2.218,4.263
	c0,1.929-0.727,3.44-2.18,4.532c-1.286,0.978-2.906,1.466-4.86,1.466C238.966,181.546,237.057,181.09,235.128,180.177"/>
<path fill="#FFFFFF" d="M281.149,177.496l0.791,2.527c-2.611,1.016-5.061,1.523-7.349,1.523c-3.756,0-6.777-1.208-9.065-3.626
	c-2.456-2.598-3.685-6.005-3.685-10.223c0-2.919,0.579-5.503,1.736-7.754c1.285-2.481,3.066-4.262,5.343-5.344
	c1.646-0.771,3.484-1.156,5.517-1.156c2.378,0,4.828,0.566,7.348,1.697l-1.021,2.527c-2.264-1.08-4.353-1.619-6.269-1.619
	c-3.009,0-5.311,1.137-6.906,3.413c-1.594,2.288-2.391,5.04-2.391,8.255c0,2.213,0.411,4.224,1.234,6.037
	c0.888,1.967,2.212,3.395,3.974,4.281c1.208,0.605,2.609,0.907,4.204,0.907C276.757,178.943,278.937,178.46,281.149,177.496"/>
<path fill="#FFFFFF" d="M294.148,160.754c2.842,0,5.138,1.1,6.886,3.299c1.479,1.851,2.219,4.217,2.219,7.096
	c0,3.101-0.855,5.602-2.566,7.504c-1.735,1.929-3.953,2.894-6.653,2.894c-2.919,0-5.253-1.1-7.002-3.298
	c-1.479-1.863-2.218-4.236-2.218-7.117c0-3.111,0.855-5.613,2.565-7.503C289.102,161.712,291.358,160.754,294.148,160.754
	 M293.956,163.166c-1.234,0-2.341,0.379-3.317,1.138c-1.774,1.389-2.661,3.672-2.661,6.846c0,2.201,0.462,4.014,1.388,5.44
	c1.105,1.697,2.662,2.546,4.668,2.546c2.173,0,3.806-0.983,4.899-2.951c0.771-1.362,1.157-3.047,1.157-5.053
	c0-2.199-0.463-4.006-1.389-5.42C297.594,164.014,296.012,163.166,293.956,163.166"/>
<path fill="#FFFFFF" d="M308.634,181.161V167.66c-0.014-3.267-0.064-5.438-0.154-6.521h2.969l0.117,3.203
	c0.757-0.798,1.472-1.44,2.141-1.93c1.518-1.105,3.228-1.658,5.131-1.658c2.533,0,4.269,0.926,5.207,2.777
	c0.412,0.823,0.662,1.98,0.753,3.472c0.051,0.9,0.077,1.761,0.077,2.585v11.572h-3.01V169.53c0-2.006-0.141-3.414-0.424-4.223
	c-0.501-1.429-1.652-2.142-3.453-2.142c-2.173,0-4.289,1.247-6.345,3.741v14.254H308.634z"/>
<path fill="#FFFFFF" d="M332.667,181.161v-17.609h-3.24v-2.412h3.24v-1.908c0-2.354,0.327-4.063,0.983-5.131
	c0.899-1.465,2.424-2.199,4.571-2.199c0.874,0,1.813,0.129,2.815,0.386l-0.27,2.604c-0.706-0.385-1.473-0.58-2.295-0.58
	c-1.273,0-2.097,0.605-2.469,1.814c-0.22,0.707-0.328,1.825-0.328,3.355v1.658h4.726v2.412h-4.726v17.609H332.667z"/>
<path fill="#FFFFFF" d="M345.839,171.96c0.219,2.237,0.732,3.901,1.543,4.995c1.105,1.453,2.739,2.18,4.898,2.18
	c1.84,0,3.665-0.63,5.479-1.89l1.157,2.333c-2.083,1.312-4.314,1.968-6.692,1.968c-3.163,0-5.601-1.035-7.311-3.104
	c-1.491-1.813-2.237-4.244-2.237-7.291c0-3.69,0.996-6.461,2.989-8.313c1.491-1.39,3.401-2.083,5.729-2.083
	c3.562,0,5.954,1.459,7.176,4.378c0.681,1.646,1.048,3.922,1.099,6.828H345.839z M356.467,169.549
	c-0.039-1.479-0.296-2.713-0.771-3.703c-0.862-1.787-2.328-2.681-4.397-2.681c-1.98,0-3.466,0.881-4.456,2.642
	c-0.565,1.016-0.874,2.264-0.926,3.742H356.467z"/>
<path fill="#FFFFFF" d="M364.992,181.161v-11.418c0-2.623-0.038-5.184-0.115-7.677l-0.02-0.927h2.797l0.115,3.685
	c0.669-1.233,1.389-2.185,2.159-2.854c0.927-0.81,2.085-1.215,3.473-1.215c0.412,0,0.875,0.045,1.389,0.135l-0.27,2.701
	c-0.36-0.078-0.707-0.117-1.042-0.117c-1.491,0-2.803,0.74-3.935,2.219c-0.63,0.849-1.145,1.781-1.543,2.797v12.672H364.992z"/>
<path fill="#FFFFFF" d="M379.92,171.96c0.219,2.237,0.732,3.901,1.543,4.995c1.105,1.453,2.739,2.18,4.898,2.18
	c1.84,0,3.665-0.63,5.479-1.89l1.157,2.333c-2.083,1.312-4.314,1.968-6.692,1.968c-3.163,0-5.601-1.035-7.311-3.104
	c-1.491-1.813-2.237-4.244-2.237-7.291c0-3.69,0.996-6.461,2.989-8.313c1.492-1.39,3.401-2.083,5.729-2.083
	c3.562,0,5.954,1.459,7.176,4.378c0.681,1.646,1.048,3.922,1.099,6.828H379.92z M390.548,169.549
	c-0.039-1.479-0.296-2.713-0.771-3.703c-0.862-1.787-2.328-2.681-4.397-2.681c-1.98,0-3.466,0.881-4.456,2.642
	c-0.565,1.016-0.874,2.264-0.926,3.742H390.548z"/>
<path fill="#FFFFFF" d="M399.035,181.161V167.66c-0.014-3.267-0.064-5.438-0.154-6.521h2.97l0.116,3.203
	c0.757-0.798,1.472-1.44,2.141-1.93c1.518-1.105,3.228-1.658,5.131-1.658c2.533,0,4.269,0.926,5.207,2.777
	c0.412,0.823,0.662,1.98,0.753,3.472c0.051,0.9,0.077,1.761,0.077,2.585v11.572h-3.009V169.53c0-2.006-0.142-3.414-0.425-4.223
	c-0.501-1.429-1.652-2.142-3.453-2.142c-2.173,0-4.288,1.247-6.345,3.741v14.254H399.035z"/>
<path fill="#FFFFFF" d="M434.736,177.361l1.157,2.334c-1.813,1.234-3.839,1.853-6.076,1.853c-2.88,0-5.137-0.881-6.77-2.644
	c-1.71-1.853-2.565-4.371-2.565-7.562c0-3.51,0.906-6.211,2.72-8.1c1.581-1.658,3.696-2.488,6.346-2.488
	c2.07,0,4.063,0.533,5.979,1.601l-1.139,2.372c-1.62-1.041-3.24-1.561-4.86-1.561c-1.954,0-3.427,0.707-4.417,2.12
	c-0.978,1.402-1.466,3.292-1.466,5.671c0,2.559,0.579,4.597,1.736,6.114c1.066,1.376,2.559,2.063,4.475,2.063
	C431.553,179.135,433.179,178.545,434.736,177.361"/>
<path fill="#FFFFFF" d="M441.853,171.96c0.219,2.237,0.733,3.901,1.543,4.995c1.106,1.453,2.739,2.18,4.899,2.18
	c1.839,0,3.664-0.63,5.478-1.89l1.157,2.333c-2.083,1.312-4.314,1.968-6.692,1.968c-3.163,0-5.601-1.035-7.311-3.104
	c-1.491-1.813-2.237-4.244-2.237-7.291c0-3.69,0.996-6.461,2.989-8.313c1.491-1.39,3.401-2.083,5.729-2.083
	c3.562,0,5.954,1.459,7.176,4.378c0.681,1.646,1.048,3.922,1.099,6.828H441.853z M452.481,169.549
	c-0.039-1.479-0.296-2.713-0.771-3.703c-0.862-1.787-2.328-2.681-4.397-2.681c-1.98,0-3.466,0.881-4.456,2.642
	c-0.565,1.016-0.874,2.264-0.926,3.742H452.481z"/>
<path fill="#FFFFFF" d="M488.857,177.496l0.791,2.527c-2.611,1.016-5.062,1.523-7.349,1.523c-3.756,0-6.777-1.208-9.065-3.626
	c-2.456-2.598-3.685-6.005-3.685-10.223c0-2.919,0.578-5.503,1.736-7.754c1.285-2.481,3.066-4.262,5.342-5.344
	c1.646-0.771,3.485-1.156,5.518-1.156c2.378,0,4.828,0.566,7.348,1.697l-1.021,2.527c-2.264-1.08-4.353-1.619-6.269-1.619
	c-3.009,0-5.311,1.137-6.905,3.413c-1.595,2.288-2.392,5.04-2.392,8.255c0,2.213,0.411,4.224,1.234,6.037
	c0.888,1.967,2.212,3.395,3.974,4.281c1.208,0.605,2.609,0.907,4.204,0.907C484.465,178.943,486.645,178.46,488.857,177.496"/>
<path fill="#FFFFFF" d="M494.026,181.161v-28.874h3.009v11.959c2.198-2.327,4.596-3.491,7.194-3.491c2.52,0,4.256,0.926,5.207,2.777
	c0.412,0.823,0.662,1.98,0.753,3.472c0.051,0.9,0.077,1.761,0.077,2.585v11.572h-3.01V169.53c0-2.006-0.141-3.414-0.424-4.223
	c-0.49-1.429-1.64-2.142-3.453-2.142c-2.186,0-4.301,1.247-6.345,3.741v14.254H494.026z"/>
<path fill="#FFFFFF" d="M518.501,151.901c0.732,0,1.299,0.277,1.697,0.83c0.27,0.373,0.405,0.809,0.405,1.311
	c0,0.49-0.136,0.92-0.405,1.293c-0.398,0.553-0.978,0.828-1.736,0.828c-0.745,0-1.317-0.275-1.716-0.828
	c-0.271-0.373-0.405-0.803-0.405-1.293c0-0.502,0.135-0.938,0.405-1.311C517.145,152.178,517.73,151.901,518.501,151.901
	 M516.978,161.14h3.009v20.021h-3.009V161.14z"/>
<path fill="#FFFFFF" d="M526.853,181.161V167.66c-0.014-3.267-0.064-5.438-0.154-6.521h2.97l0.116,3.203
	c0.757-0.798,1.472-1.44,2.141-1.93c1.518-1.105,3.228-1.658,5.131-1.658c2.533,0,4.269,0.926,5.207,2.777
	c0.412,0.823,0.662,1.98,0.753,3.472c0.051,0.9,0.077,1.761,0.077,2.585v11.572h-3.009V169.53c0-2.006-0.142-3.414-0.425-4.223
	c-0.501-1.429-1.652-2.142-3.453-2.142c-2.173,0-4.288,1.247-6.345,3.741v14.254H526.853z"/>
<path fill="#FFFFFF" d="M560.413,178.827c-0.682,0.733-1.337,1.292-1.967,1.678c-1.157,0.695-2.495,1.043-4.012,1.043
	c-2.097,0-3.697-0.592-4.803-1.775c-0.978-1.042-1.466-2.417-1.466-4.128c0-2.647,1.112-4.525,3.337-5.632
	c1.298-0.655,3.228-0.983,5.786-0.983c0.527,0,1.491,0.025,2.893,0.077v-0.54c0-1.453-0.187-2.56-0.559-3.317
	c-0.669-1.389-1.993-2.082-3.974-2.082c-1.62,0-3.344,0.577-5.169,1.734l-1.312-2.16c2.096-1.324,4.365-1.986,6.809-1.986
	c3.034,0,5.111,0.906,6.229,2.72c0.527,0.862,0.836,2.096,0.926,3.702c0.039,0.566,0.059,1.383,0.059,2.451v6.539
	c-0.014,1.928,0.038,3.592,0.154,4.994h-2.797L560.413,178.827z M560.181,171.401c-0.707-0.051-1.459-0.077-2.256-0.077
	c-2.135,0-3.691,0.283-4.668,0.849c-1.286,0.733-1.929,1.865-1.929,3.395c0,1.08,0.321,1.941,0.964,2.585
	c0.669,0.655,1.563,0.983,2.682,0.983c2.096,0,3.831-1.022,5.207-3.066V171.401z"/>
<path fill="#FFFFFF" d="M579.044,181.161v-2.758c4.179-3.755,7.227-6.713,9.143-8.873c1.723-1.954,2.944-3.626,3.665-5.016
	c0.682-1.349,1.022-2.627,1.022-3.836c0-1.377-0.509-2.482-1.524-3.318c-1.117-0.926-2.578-1.389-4.378-1.389
	c-2.058,0-4.173,0.675-6.346,2.024l-0.791-2.7c2.521-1.234,5.027-1.852,7.522-1.852c2.442,0,4.448,0.54,6.018,1.62
	c1.8,1.222,2.7,3.028,2.7,5.42c0,1.801-0.521,3.588-1.563,5.362c-1.222,2.123-3.606,4.957-7.155,8.506
	c-1.363,1.363-2.867,2.765-4.514,4.205h13.463v2.604H579.044z"/>
<path fill="#FFFFFF" d="M610.792,153.444c6.173,0,9.259,4.681,9.259,14.043c0,4.19-0.591,7.412-1.774,9.662
	c-1.556,2.932-4.096,4.397-7.618,4.397c-3.832,0-6.5-1.724-8.005-5.169c-0.938-2.16-1.407-5.131-1.407-8.911
	c0-4.179,0.591-7.387,1.774-9.625C604.576,154.91,607.167,153.444,610.792,153.444 M610.561,156.048
	c-1.313,0-2.462,0.431-3.452,1.292c-1.774,1.543-2.662,4.932-2.662,10.165c0,3.831,0.443,6.615,1.331,8.353
	c1.042,2.056,2.668,3.086,4.88,3.086c2.392,0,4.096-1.217,5.111-3.646c0.72-1.697,1.08-4.309,1.08-7.831
	c0-3.832-0.443-6.608-1.331-8.332C614.477,157.077,612.824,156.048,610.561,156.048"/>
<polygon fill="#FFFFFF" points="633.128,181.161 633.128,157.264 627.554,160.811 626.223,158.401 633.437,153.83 636.175,153.83 
	636.175,181.161 "/>
<path fill="#FFFFFF" d="M649.021,181.508l0.154-2.564c0.644,0.049,1.184,0.076,1.62,0.076c3.69,0,6.449-1.357,8.274-4.07
	c1.222-1.799,2.007-4.14,2.354-7.021c-1.672,2.108-3.864,3.163-6.577,3.163c-1.697,0-3.234-0.45-4.609-1.35
	c-2.29-1.504-3.434-3.916-3.434-7.233c0-2.713,0.842-4.905,2.526-6.577c1.685-1.658,3.845-2.488,6.481-2.488
	c2.262,0,4.134,0.586,5.612,1.756c2.289,1.813,3.434,4.989,3.434,9.527c0,3.896-0.753,7.285-2.257,10.165
	c-1.402,2.649-3.312,4.494-5.729,5.535c-1.749,0.746-3.793,1.119-6.134,1.119C650.494,181.546,649.921,181.534,649.021,181.508
	 M655.675,155.971c-1.671,0-3.034,0.559-4.089,1.678c-1.056,1.118-1.581,2.662-1.581,4.629c0,1.903,0.488,3.414,1.466,4.533
	c1.041,1.17,2.43,1.756,4.166,1.756c1.762,0,3.183-0.58,4.263-1.738c1.067-1.117,1.601-2.654,1.601-4.608
	c0-1.94-0.527-3.465-1.581-4.571C658.851,156.53,657.437,155.971,655.675,155.971"/>
</svg>
