<?xml version="1.0" encoding="utf-8"?>
<!-- Generator: Adobe Illustrator 16.0.0, SVG Export Plug-In . SVG Version: 6.00 Build 0)  -->
<!DOCTYPE svg PUBLIC "-//W3C//DTD SVG 1.1//EN" "http://www.w3.org/Graphics/SVG/1.1/DTD/svg11.dtd">
<svg version="1.1" id="图层_1" xmlns="http://www.w3.org/2000/svg" xmlns:xlink="http://www.w3.org/1999/xlink" x="0px" y="0px"
	 width="902.8px" height="241.125px" viewBox="0 0 902.8 241.125" enable-background="new 0 0 902.8 241.125" xml:space="preserve">
<path fill="#FFFFFF" d="M47.585,90.508v-22.13l-3.065-0.126v-3.674h10.246c2.463,0,4.409,0.168,5.837,0.504
	c2.071,0.49,3.66,1.596,4.765,3.317c0.924,1.428,1.387,3.136,1.387,5.123c0,3.205-1.169,5.599-3.507,7.181
	c-1.176,0.798-2.674,1.315-4.493,1.554c-0.994,0.126-2.177,0.188-3.549,0.188h-2.414v8.063l3.695,0.126v3.695H44.521v-3.695
	L47.585,90.508z M52.708,78.372h1.68c2.338,0,3.989-0.237,4.955-0.714c1.399-0.685,2.099-2.022,2.099-4.01
	c0-1.876-0.636-3.226-1.91-4.052c-0.952-0.63-2.583-0.945-4.892-0.945h-1.932V78.372z"/>
<polygon fill="#FFFFFF" points="72.129,90.508 72.129,66.72 69.337,66.572 69.337,62.899 77.148,62.689 77.148,90.508 79.94,90.655 
	79.94,94.329 69.337,94.329 69.337,90.655 "/>
<path fill="#FFFFFF" d="M88.633,84.965c0.168,1.806,0.63,3.171,1.386,4.095c1.12,1.33,2.772,1.994,4.955,1.994
	c2.156,0,4.325-0.706,6.509-2.12l1.785,3.695c-2.534,1.456-5.341,2.184-8.42,2.184c-3.863,0-6.789-1.085-8.776-3.255
	c-1.806-1.946-2.708-4.654-2.708-8.125c0-3.667,1.021-6.558,3.064-8.672c1.807-1.875,4.284-2.814,7.434-2.814
	c4.633,0,7.643,1.792,9.027,5.375c0.687,1.779,1.043,4.325,1.072,7.643H88.633z M98.817,81.417
	c-0.043-1.302-0.295-2.415-0.756-3.339c-0.826-1.609-2.226-2.414-4.199-2.414c-1.932,0-3.359,0.798-4.283,2.394
	c-0.547,0.937-0.848,2.057-0.904,3.359H98.817z"/>
<path fill="#FFFFFF" d="M121.577,94.33l-0.19-2.498c-0.755,0.797-1.476,1.406-2.162,1.826c-1.302,0.769-2.835,1.155-4.598,1.155
	c-2.268,0-4.011-0.602-5.228-1.806c-1.232-1.189-1.848-2.799-1.848-4.829c0-2.743,1.113-4.759,3.338-6.047
	c1.4-0.811,3.598-1.217,6.593-1.217c0.868,0,2.079,0.042,3.632,0.126v-0.672c0-1.386-0.279-2.436-0.84-3.15
	c-0.811-1.036-2.127-1.553-3.947-1.553c-1.875,0-3.87,0.608-5.984,1.826L109,73.878c2.548-1.287,5.186-1.931,7.915-1.931
	c3.555,0,6.09,0.889,7.601,2.667c0.797,0.952,1.294,2.225,1.491,3.821c0.084,0.686,0.126,1.715,0.126,3.086v9.008l2.792,0.126v3.674
	H121.577z M121.114,84.188c-0.84-0.07-1.596-0.105-2.268-0.105c-2.029,0-3.492,0.28-4.387,0.839c-1.134,0.714-1.7,1.764-1.7,3.15
	c0,0.938,0.286,1.715,0.86,2.331c0.616,0.658,1.463,0.986,2.54,0.986c1.918,0,3.57-1.021,4.955-3.065V84.188z"/>
<path fill="#FFFFFF" d="M132.18,93.279v-6.193h3.926l0.273,3.233c1.287,0.518,2.638,0.776,4.052,0.776
	c1.302,0,2.338-0.244,3.107-0.734c0.743-0.476,1.113-1.169,1.113-2.079c0-0.615-0.202-1.119-0.609-1.512
	c-0.364-0.349-1.063-0.664-2.099-0.944c-3.598-0.952-5.9-1.693-6.908-2.226c-1.904-1.008-2.855-2.646-2.855-4.913
	c0-2.212,0.805-3.912,2.414-5.102c1.456-1.092,3.492-1.638,6.109-1.638c2.535,0,5.18,0.406,7.938,1.218v6.257h-3.863l-0.252-3.254
	c-1.219-0.42-2.457-0.63-3.717-0.63c-1.134,0-2.016,0.21-2.646,0.63c-0.713,0.475-1.071,1.154-1.071,2.036
	c0,0.952,0.455,1.637,1.365,2.057c0.476,0.225,1.834,0.645,4.074,1.26c2.17,0.603,3.569,1.065,4.199,1.386
	c1.918,0.98,2.876,2.618,2.876,4.913c0,2.226-0.79,3.955-2.372,5.187c-1.554,1.204-3.864,1.805-6.929,1.805
	C137.253,94.813,134.545,94.301,132.18,93.279"/>
<path fill="#FFFFFF" d="M158.928,84.965c0.168,1.806,0.63,3.171,1.386,4.095c1.12,1.33,2.772,1.994,4.955,1.994
	c2.156,0,4.325-0.706,6.509-2.12l1.785,3.695c-2.534,1.456-5.341,2.184-8.42,2.184c-3.863,0-6.789-1.085-8.776-3.255
	c-1.806-1.946-2.708-4.654-2.708-8.125c0-3.667,1.021-6.558,3.064-8.672c1.807-1.875,4.284-2.814,7.434-2.814
	c4.633,0,7.643,1.792,9.027,5.375c0.687,1.779,1.043,4.325,1.072,7.643H158.928z M169.112,81.417
	c-0.043-1.302-0.295-2.415-0.756-3.339c-0.826-1.609-2.226-2.414-4.199-2.414c-1.932,0-3.359,0.798-4.283,2.394
	c-0.547,0.937-0.848,2.057-0.904,3.359H169.112z"/>
<path fill="#FFFFFF" d="M205.54,91.117c-2.239,2.464-4.801,3.695-7.685,3.695c-2.981,0-5.003-1.147-6.067-3.443
	c-0.532-1.134-0.799-3.017-0.799-5.648V76.23l-2.792-0.126v-3.695l7.811-0.21v13.585c0,1.624,0.188,2.8,0.567,3.527
	c0.56,1.092,1.526,1.638,2.897,1.638c1.988,0,3.878-1.197,5.67-3.591V76.23l-2.793-0.126v-3.695l7.81-0.21v18.33l2.793,0.126v3.674
	h-7.412V91.117z"/>
<path fill="#FFFFFF" d="M218.346,99.768V76.23l-2.792-0.126V72.41l7.58-0.21v3.255c0.728-0.91,1.407-1.596,2.037-2.058
	c1.33-0.966,2.862-1.449,4.597-1.449c2.815,0,5.012,1.12,6.594,3.359c1.483,2.114,2.225,4.795,2.225,8.042
	c0,3.583-0.868,6.446-2.604,8.587c-1.539,1.918-3.618,2.877-6.235,2.877s-4.745-1.092-6.383-3.275v8.23l3.255,0.126v3.674h-11.066
	v-3.674L218.346,99.768z M223.365,87.19c1.554,2.506,3.282,3.759,5.187,3.759c1.595,0,2.812-0.77,3.652-2.31
	c0.784-1.456,1.176-3.24,1.176-5.354c0-2.184-0.427-3.975-1.281-5.375c-0.853-1.4-2.079-2.1-3.674-2.1
	c-1.904,0-3.59,1.197-5.06,3.591V87.19z"/>
<polygon fill="#FFFFFF" points="244.823,90.508 244.823,66.72 242.031,66.572 242.031,62.899 249.842,62.689 249.842,90.508 
	252.634,90.655 252.634,94.329 242.031,94.329 242.031,90.655 "/>
<path fill="#FFFFFF" d="M266.932,71.948c3.43,0,6.103,1.141,8.021,3.423c1.721,2.044,2.583,4.71,2.583,7.999
	c0,3.597-1.015,6.439-3.045,8.524c-1.875,1.946-4.444,2.919-7.706,2.919c-3.513,0-6.228-1.141-8.146-3.423
	c-1.722-2.043-2.582-4.717-2.582-8.02c0-3.597,1.015-6.439,3.044-8.525C260.991,72.914,263.601,71.948,266.932,71.948
	 M266.723,75.769c-2.002,0-3.493,0.959-4.473,2.877c-0.658,1.273-0.986,2.855-0.986,4.745c0,2.071,0.392,3.773,1.176,5.102
	c0.993,1.666,2.442,2.499,4.345,2.499c2.072,0,3.59-0.959,4.557-2.877c0.657-1.274,0.986-2.856,0.986-4.745
	c0-2.085-0.391-3.787-1.175-5.102C270.159,76.602,268.682,75.769,266.723,75.769"/>
<path fill="#FFFFFF" d="M295.215,94.33l-0.19-2.498c-0.755,0.797-1.476,1.406-2.162,1.826c-1.302,0.769-2.835,1.155-4.598,1.155
	c-2.268,0-4.011-0.602-5.228-1.806c-1.232-1.189-1.848-2.799-1.848-4.829c0-2.743,1.113-4.759,3.338-6.047
	c1.4-0.811,3.598-1.217,6.593-1.217c0.868,0,2.079,0.042,3.632,0.126v-0.672c0-1.386-0.279-2.436-0.84-3.15
	c-0.811-1.036-2.127-1.553-3.947-1.553c-1.875,0-3.87,0.608-5.984,1.826l-1.343-3.612c2.548-1.287,5.186-1.931,7.915-1.931
	c3.555,0,6.09,0.889,7.601,2.667c0.797,0.952,1.294,2.225,1.491,3.821c0.084,0.686,0.126,1.715,0.126,3.086v9.008l2.792,0.126v3.674
	H295.215z M294.752,84.188c-0.84-0.07-1.596-0.105-2.268-0.105c-2.029,0-3.492,0.28-4.387,0.839c-1.134,0.714-1.7,1.764-1.7,3.15
	c0,0.938,0.286,1.715,0.86,2.331c0.616,0.658,1.463,0.986,2.54,0.986c1.918,0,3.57-1.021,4.955-3.065V84.188z"/>
<path fill="#FFFFFF" d="M321.418,94.33l-0.126-3.128c-0.713,0.966-1.407,1.7-2.079,2.204c-1.259,0.937-2.778,1.407-4.555,1.407
	c-2.842,0-5.053-1.134-6.635-3.401c-1.47-2.1-2.204-4.787-2.204-8.063c0-3.555,0.867-6.404,2.603-8.546
	c1.553-1.903,3.632-2.855,6.236-2.855c2.575,0,4.71,1.078,6.403,3.233v-8.461l-2.939-0.126v-3.695l7.958-0.21v27.841l2.792,0.126
	v3.674H321.418z M321.061,79.443c-1.385-2.422-3.086-3.633-5.102-3.633c-1.582,0-2.799,0.7-3.653,2.1
	c-0.853,1.4-1.28,3.191-1.28,5.375c0,2.114,0.391,3.898,1.176,5.354c0.839,1.54,2.056,2.31,3.652,2.31
	c1.946,0,3.682-1.26,5.207-3.779V79.443z"/>
<path fill="#FFFFFF" d="M350.057,93.993l-7.266-17.783l-2.14-0.105v-3.695h10.266v3.695l-2.855,0.105l2.919,7.306
	c0.545,1.428,1.154,3.143,1.826,5.144c0.154-0.462,0.301-0.902,0.441-1.322c0.336-1.064,0.812-2.415,1.428-4.053l2.688-7.075
	l-2.835-0.105v-3.695h9.762v3.695l-2.14,0.105l-7.35,18.603c-1.315,3.345-2.512,5.661-3.59,6.95
	c-1.301,1.553-3.163,2.331-5.585,2.331c-1.385,0-2.862-0.252-4.43-0.756l0.861-3.927c1.036,0.42,1.945,0.63,2.729,0.63
	c1.134,0,2.03-0.364,2.688-1.092C348.356,97.996,349.217,96.345,350.057,93.993"/>
<path fill="#FFFFFF" d="M377.204,71.948c3.43,0,6.103,1.141,8.021,3.423c1.721,2.044,2.583,4.71,2.583,7.999
	c0,3.597-1.015,6.439-3.045,8.524c-1.875,1.946-4.444,2.919-7.706,2.919c-3.513,0-6.228-1.141-8.146-3.423
	c-1.722-2.043-2.582-4.717-2.582-8.02c0-3.597,1.015-6.439,3.044-8.525C371.263,72.914,373.873,71.948,377.204,71.948
	 M376.995,75.769c-2.002,0-3.493,0.959-4.473,2.877c-0.658,1.273-0.986,2.855-0.986,4.745c0,2.071,0.392,3.773,1.176,5.102
	c0.993,1.666,2.442,2.499,4.345,2.499c2.072,0,3.59-0.959,4.557-2.877c0.657-1.274,0.986-2.856,0.986-4.745
	c0-2.085-0.391-3.787-1.175-5.102C380.431,76.602,378.954,75.769,376.995,75.769"/>
<path fill="#FFFFFF" d="M408.405,91.117c-2.239,2.464-4.801,3.695-7.685,3.695c-2.981,0-5.003-1.147-6.067-3.443
	c-0.532-1.134-0.799-3.017-0.799-5.648V76.23l-2.792-0.126v-3.695l7.811-0.21v13.585c0,1.624,0.188,2.8,0.567,3.527
	c0.56,1.092,1.526,1.638,2.897,1.638c1.988,0,3.878-1.197,5.67-3.591V76.23l-2.793-0.126v-3.695l7.81-0.21v18.33l2.793,0.126v3.674
	h-7.412V91.117z"/>
<path fill="#FFFFFF" d="M421.211,90.529V76.23l-2.792-0.126v-3.695l7.517-0.21v4.115c1.259-2.841,3.163-4.262,5.711-4.262
	c0.629,0,1.281,0.098,1.953,0.294l-0.232,4.41c-0.658-0.155-1.239-0.232-1.743-0.232c-1.609,0-2.953,0.672-4.031,2.016
	c-0.573,0.7-1.035,1.659-1.385,2.877v9.112l3.212,0.126v3.674h-11.002v-3.674L421.211,90.529z"/>
<path fill="#FFFFFF" d="M449.136,99.768V76.23l-2.792-0.126V72.41l7.58-0.21v3.255c0.728-0.91,1.407-1.596,2.037-2.058
	c1.33-0.966,2.861-1.449,4.597-1.449c2.814,0,5.012,1.12,6.594,3.359c1.483,2.114,2.226,4.795,2.226,8.042
	c0,3.583-0.868,6.446-2.604,8.587c-1.539,1.918-3.618,2.877-6.234,2.877c-2.617,0-4.745-1.092-6.383-3.275v8.23l3.254,0.126v3.674
	h-11.065v-3.674L449.136,99.768z M454.155,87.19c1.554,2.506,3.281,3.759,5.187,3.759c1.595,0,2.812-0.77,3.651-2.31
	c0.784-1.456,1.177-3.24,1.177-5.354c0-2.184-0.428-3.975-1.281-5.375s-2.079-2.1-3.674-2.1c-1.904,0-3.59,1.197-5.06,3.591V87.19z"
	/>
<path fill="#FFFFFF" d="M478.74,84.965c0.168,1.806,0.63,3.171,1.386,4.095c1.12,1.33,2.772,1.994,4.955,1.994
	c2.156,0,4.325-0.706,6.509-2.12l1.785,3.695c-2.534,1.456-5.341,2.184-8.42,2.184c-3.863,0-6.789-1.085-8.776-3.255
	c-1.806-1.946-2.707-4.654-2.707-8.125c0-3.667,1.021-6.558,3.063-8.672c1.807-1.875,4.284-2.814,7.434-2.814
	c4.634,0,7.644,1.792,9.027,5.375c0.688,1.779,1.043,4.325,1.072,7.643H478.74z M488.924,81.417
	c-0.043-1.302-0.295-2.415-0.756-3.339c-0.826-1.609-2.226-2.414-4.199-2.414c-1.932,0-3.358,0.798-4.282,2.394
	c-0.547,0.937-0.849,2.057-0.904,3.359H488.924z"/>
<path fill="#FFFFFF" d="M500.219,90.529V76.23l-2.792-0.126v-3.695l7.518-0.21v4.115c1.259-2.841,3.163-4.262,5.711-4.262
	c0.629,0,1.281,0.098,1.953,0.294l-0.232,4.41c-0.658-0.155-1.239-0.232-1.743-0.232c-1.608,0-2.953,0.672-4.03,2.016
	c-0.573,0.7-1.035,1.659-1.386,2.877v9.112l3.212,0.126v3.674h-11.002v-3.674L500.219,90.529z"/>
<path fill="#FFFFFF" d="M515.736,93.279v-6.193h3.927l0.272,3.233c1.287,0.518,2.638,0.776,4.052,0.776
	c1.303,0,2.338-0.244,3.107-0.734c0.743-0.476,1.113-1.169,1.113-2.079c0-0.615-0.202-1.119-0.609-1.512
	c-0.364-0.349-1.063-0.664-2.099-0.944c-3.599-0.952-5.9-1.693-6.908-2.226c-1.904-1.008-2.855-2.646-2.855-4.913
	c0-2.212,0.806-3.912,2.414-5.102c1.456-1.092,3.492-1.638,6.109-1.638c2.535,0,5.18,0.406,7.938,1.218v6.257h-3.862l-0.252-3.254
	c-1.22-0.42-2.457-0.63-3.718-0.63c-1.134,0-2.016,0.21-2.646,0.63c-0.713,0.475-1.071,1.154-1.071,2.036
	c0,0.952,0.455,1.637,1.365,2.057c0.476,0.225,1.834,0.645,4.074,1.26c2.17,0.603,3.568,1.065,4.199,1.386
	c1.918,0.98,2.876,2.618,2.876,4.913c0,2.226-0.79,3.955-2.372,5.187c-1.555,1.204-3.864,1.805-6.93,1.805
	C520.81,94.813,518.102,94.301,515.736,93.279"/>
<path fill="#FFFFFF" d="M548.09,71.948c3.431,0,6.104,1.141,8.021,3.423c1.721,2.044,2.583,4.71,2.583,7.999
	c0,3.597-1.016,6.439-3.045,8.524c-1.875,1.946-4.444,2.919-7.706,2.919c-3.514,0-6.229-1.141-8.146-3.423
	c-1.722-2.043-2.582-4.717-2.582-8.02c0-3.597,1.016-6.439,3.044-8.525C542.149,72.914,544.759,71.948,548.09,71.948
	 M547.881,75.769c-2.002,0-3.493,0.959-4.473,2.877c-0.658,1.273-0.986,2.855-0.986,4.745c0,2.071,0.393,3.773,1.177,5.102
	c0.992,1.666,2.441,2.499,4.345,2.499c2.071,0,3.59-0.959,4.557-2.877c0.657-1.274,0.986-2.856,0.986-4.745
	c0-2.085-0.392-3.787-1.175-5.102C551.317,76.602,549.84,75.769,547.881,75.769"/>
<path fill="#FFFFFF" d="M564.908,90.529V76.23l-2.792-0.126v-3.695l7.495-0.21v3.465c0.813-0.854,1.575-1.533,2.289-2.037
	c1.638-1.119,3.45-1.68,5.438-1.68c3.009,0,5.06,1.142,6.151,3.423c0.546,1.147,0.818,3.01,0.818,5.585v9.574l2.793,0.126v3.674
	h-10.604v-3.674l2.793-0.126v-9.574c0-1.596-0.195-2.765-0.588-3.507c-0.573-1.092-1.573-1.638-3.002-1.638
	c-2.002,0-3.927,1.233-5.773,3.696v11.023l2.792,0.126v3.674h-10.604v-3.674L564.908,90.529z"/>
<path fill="#FFFFFF" d="M603.963,94.33l-0.189-2.498c-0.755,0.797-1.477,1.406-2.162,1.826c-1.302,0.769-2.835,1.155-4.598,1.155
	c-2.269,0-4.012-0.602-5.229-1.806c-1.231-1.189-1.848-2.799-1.848-4.829c0-2.743,1.112-4.759,3.338-6.047
	c1.399-0.811,3.598-1.217,6.593-1.217c0.868,0,2.079,0.042,3.632,0.126v-0.672c0-1.386-0.278-2.436-0.84-3.15
	c-0.811-1.036-2.127-1.553-3.947-1.553c-1.875,0-3.87,0.608-5.983,1.826l-1.343-3.612c2.548-1.287,5.186-1.931,7.915-1.931
	c3.555,0,6.09,0.889,7.601,2.667c0.797,0.952,1.294,2.225,1.491,3.821c0.084,0.686,0.126,1.715,0.126,3.086v9.008l2.792,0.126v3.674
	H603.963z M603.5,84.188c-0.84-0.07-1.596-0.105-2.268-0.105c-2.029,0-3.492,0.28-4.387,0.839c-1.135,0.714-1.7,1.764-1.7,3.15
	c0,0.938,0.286,1.715,0.859,2.331c0.616,0.658,1.463,0.986,2.54,0.986c1.918,0,3.57-1.021,4.955-3.065V84.188z"/>
<polygon fill="#FFFFFF" points="616.705,90.508 616.705,66.72 613.913,66.572 613.913,62.899 621.725,62.689 621.725,90.508 
	624.517,90.655 624.517,94.329 613.913,94.329 613.913,90.655 "/>
<path fill="#FFFFFF" d="M640.83,99.768V76.23l-2.792-0.126V72.41l7.58-0.21v3.255c0.728-0.91,1.407-1.596,2.037-2.058
	c1.33-0.966,2.861-1.449,4.597-1.449c2.815,0,5.012,1.12,6.594,3.359c1.483,2.114,2.226,4.795,2.226,8.042
	c0,3.583-0.868,6.446-2.604,8.587c-1.539,1.918-3.618,2.877-6.234,2.877c-2.617,0-4.745-1.092-6.384-3.275v8.23l3.255,0.126v3.674
	h-11.065v-3.674L640.83,99.768z M645.849,87.19c1.555,2.506,3.282,3.759,5.188,3.759c1.595,0,2.812-0.77,3.652-2.31
	c0.783-1.456,1.176-3.24,1.176-5.354c0-2.184-0.428-3.975-1.281-5.375s-2.079-2.1-3.674-2.1c-1.904,0-3.59,1.197-5.061,3.591V87.19z
	"/>
<path fill="#FFFFFF" d="M667.307,90.529v-23.81l-2.792-0.126v-3.695l7.812-0.21v12.618c0.7-0.686,1.356-1.245,1.973-1.679
	c1.652-1.119,3.465-1.68,5.438-1.68c3.009,0,5.06,1.142,6.151,3.423c0.546,1.147,0.818,3.01,0.818,5.585v9.574l2.793,0.126v3.674
	h-10.603v-3.674l2.793-0.126v-9.574c0-1.596-0.196-2.765-0.589-3.507c-0.573-1.092-1.573-1.638-3.002-1.638
	c-2.029,0-3.955,1.233-5.773,3.696v11.023l2.792,0.126v3.674h-10.604v-3.674L667.307,90.529z"/>
<path fill="#FFFFFF" d="M703.631,71.948c3.431,0,6.104,1.141,8.021,3.423c1.721,2.044,2.583,4.71,2.583,7.999
	c0,3.597-1.016,6.439-3.045,8.524c-1.875,1.946-4.444,2.919-7.706,2.919c-3.514,0-6.229-1.141-8.146-3.423
	c-1.722-2.043-2.582-4.717-2.582-8.02c0-3.597,1.016-6.439,3.044-8.525C697.69,72.914,700.3,71.948,703.631,71.948 M703.422,75.769
	c-2.002,0-3.493,0.959-4.473,2.877c-0.658,1.273-0.986,2.855-0.986,4.745c0,2.071,0.393,3.773,1.177,5.102
	c0.992,1.666,2.441,2.499,4.345,2.499c2.071,0,3.59-0.959,4.557-2.877c0.657-1.274,0.986-2.856,0.986-4.745
	c0-2.085-0.392-3.787-1.175-5.102C706.858,76.602,705.381,75.769,703.422,75.769"/>
<path fill="#FFFFFF" d="M720.554,76.23h-3.526V72.41h3.526v-4.766l5.019-0.966v5.732h4.997v3.821h-4.997v10.184
	c0,1.483,0.146,2.512,0.44,3.086c0.435,0.854,1.268,1.281,2.498,1.281c0.616,0,1.406-0.182,2.373-0.546l0.441,3.842
	c-1.541,0.49-3.031,0.735-4.473,0.735c-2.479,0-4.221-0.756-5.229-2.268c-0.714-1.078-1.07-3.03-1.07-5.858V76.23z"/>
<path fill="#FFFFFF" d="M744.572,71.948c3.431,0,6.104,1.141,8.021,3.423c1.721,2.044,2.583,4.71,2.583,7.999
	c0,3.597-1.016,6.439-3.045,8.524c-1.875,1.946-4.444,2.919-7.706,2.919c-3.514,0-6.229-1.141-8.146-3.423
	c-1.722-2.043-2.582-4.717-2.582-8.02c0-3.597,1.016-6.439,3.044-8.525C738.632,72.914,741.241,71.948,744.572,71.948
	 M744.363,75.769c-2.002,0-3.493,0.959-4.473,2.877c-0.658,1.273-0.986,2.855-0.986,4.745c0,2.071,0.393,3.773,1.177,5.102
	c0.992,1.666,2.441,2.499,4.345,2.499c2.071,0,3.59-0.959,4.557-2.877c0.657-1.274,0.986-2.856,0.986-4.745
	c0-2.085-0.392-3.787-1.175-5.102C747.8,76.602,746.322,75.769,744.363,75.769"/>
<path fill="#FFFFFF" d="M48.971,134.23h-3.527v-3.821h3.527v-4.766l5.018-0.966v5.731h4.997v3.821h-4.997v10.185
	c0,1.482,0.146,2.512,0.441,3.086c0.434,0.854,1.267,1.28,2.498,1.28c0.616,0,1.406-0.182,2.373-0.546l0.441,3.842
	c-1.541,0.49-3.031,0.735-4.472,0.735c-2.479,0-4.221-0.756-5.229-2.269c-0.714-1.077-1.07-3.029-1.07-5.857V134.23z"/>
<path fill="#FFFFFF" d="M72.991,129.948c3.43,0,6.103,1.141,8.021,3.422c1.721,2.045,2.583,4.711,2.583,8
	c0,3.597-1.015,6.438-3.045,8.523c-1.875,1.946-4.444,2.919-7.706,2.919c-3.513,0-6.228-1.141-8.146-3.423
	c-1.722-2.043-2.582-4.717-2.582-8.02c0-3.598,1.015-6.439,3.044-8.525C67.05,130.913,69.66,129.948,72.991,129.948 M72.782,133.769
	c-2.002,0-3.493,0.959-4.473,2.877c-0.658,1.273-0.986,2.855-0.986,4.745c0,2.071,0.392,3.772,1.176,5.103
	c0.993,1.666,2.442,2.498,4.345,2.498c2.072,0,3.59-0.959,4.557-2.877c0.657-1.273,0.986-2.855,0.986-4.744
	c0-2.086-0.391-3.787-1.175-5.103C76.218,134.602,74.741,133.769,72.782,133.769"/>
<path fill="#FFFFFF" d="M105.704,130.2v22.256c0,2.07-0.098,3.61-0.294,4.619c-0.659,3.33-2.876,4.996-6.656,4.996
	c-1.022,0-2.226-0.16-3.611-0.482l0.42-3.926c0.909,0.265,1.63,0.398,2.162,0.398c1.189,0,2.016-0.512,2.478-1.533
	c0.322-0.686,0.483-1.792,0.483-3.318V134.23l-3.213-0.126v-3.695L105.704,130.2z M103.268,120.185c0.966,0,1.75,0.343,2.352,1.028
	c0.49,0.575,0.734,1.274,0.734,2.1c0,0.826-0.244,1.519-0.734,2.079c-0.602,0.7-1.4,1.05-2.394,1.05c-0.994,0-1.792-0.35-2.394-1.05
	c-0.49-0.574-0.734-1.268-0.734-2.079c0-0.84,0.244-1.539,0.734-2.1C101.449,120.527,102.26,120.185,103.268,120.185"/>
<path fill="#FFFFFF" d="M122.458,129.948c3.43,0,6.103,1.141,8.021,3.422c1.721,2.045,2.583,4.711,2.583,8
	c0,3.597-1.015,6.438-3.045,8.523c-1.875,1.946-4.444,2.919-7.706,2.919c-3.513,0-6.228-1.141-8.146-3.423
	c-1.722-2.043-2.582-4.717-2.582-8.02c0-3.598,1.015-6.439,3.044-8.525C116.517,130.913,119.126,129.948,122.458,129.948
	 M122.249,133.769c-2.002,0-3.493,0.959-4.473,2.877c-0.658,1.273-0.986,2.855-0.986,4.745c0,2.071,0.392,3.772,1.176,5.103
	c0.993,1.666,2.442,2.498,4.345,2.498c2.072,0,3.59-0.959,4.557-2.877c0.657-1.273,0.986-2.855,0.986-4.744
	c0-2.086-0.391-3.787-1.175-5.103C125.685,134.602,124.208,133.769,122.249,133.769"/>
<path fill="#FFFFFF" d="M139.275,148.53v-14.3l-2.791-0.126v-3.695l7.81-0.209v18.33l2.792,0.125v3.674h-10.602v-3.674
	L139.275,148.53z M141.838,120.185c0.965,0,1.749,0.343,2.352,1.028c0.489,0.575,0.734,1.274,0.734,2.1
	c0,0.826-0.245,1.519-0.734,2.079c-0.603,0.7-1.401,1.05-2.395,1.05c-0.993,0-1.791-0.35-2.393-1.05
	c-0.49-0.574-0.735-1.268-0.735-2.079c0-0.84,0.245-1.539,0.735-2.1C140.018,120.527,140.83,120.185,141.838,120.185"/>
<path fill="#FFFFFF" d="M152.651,148.529V134.23l-2.792-0.126v-3.695l7.495-0.21v3.465c0.813-0.854,1.575-1.532,2.289-2.036
	c1.638-1.119,3.45-1.681,5.438-1.681c3.009,0,5.06,1.142,6.152,3.423c0.546,1.147,0.818,3.01,0.818,5.585v9.574l2.793,0.126v3.674
	h-10.603v-3.674l2.793-0.126v-9.574c0-1.596-0.196-2.765-0.588-3.507c-0.574-1.092-1.574-1.638-3.002-1.638
	c-2.002,0-3.927,1.233-5.774,3.696v11.022l2.792,0.126v3.674h-10.603v-3.674L152.651,148.529z"/>
<path fill="#FFFFFF" d="M190.988,148.53v-14.3l-2.791-0.126v-3.695l7.81-0.209v18.33l2.792,0.125v3.674h-10.602v-3.674
	L190.988,148.53z M193.551,120.185c0.965,0,1.749,0.343,2.352,1.028c0.489,0.575,0.734,1.274,0.734,2.1
	c0,0.826-0.245,1.519-0.734,2.079c-0.603,0.7-1.401,1.05-2.396,1.05c-0.993,0-1.791-0.35-2.393-1.05
	c-0.49-0.574-0.735-1.268-0.735-2.079c0-0.84,0.245-1.539,0.735-2.1C191.731,120.527,192.543,120.185,193.551,120.185"/>
<path fill="#FFFFFF" d="M204.364,148.529V134.23l-2.792-0.126v-3.695l7.495-0.21v3.465c0.813-0.854,1.575-1.532,2.289-2.036
	c1.638-1.119,3.45-1.681,5.438-1.681c3.009,0,5.06,1.142,6.152,3.423c0.546,1.147,0.818,3.01,0.818,5.585v9.574l2.793,0.126v3.674
	h-10.603v-3.674l2.793-0.126v-9.574c0-1.596-0.196-2.765-0.588-3.507c-0.574-1.092-1.574-1.638-3.002-1.638
	c-2.002,0-3.927,1.233-5.774,3.696v11.022l2.792,0.126v3.674h-10.603v-3.674L204.364,148.529z"/>
<path fill="#FFFFFF" d="M260.864,134.23v15.601c0,2.59-0.155,4.514-0.462,5.773c-0.56,2.38-1.96,4.115-4.2,5.207
	c-1.735,0.84-3.807,1.26-6.214,1.26c-3.08,0-5.921-0.65-8.525-1.952l1.596-3.759c2.099,1.26,4.276,1.891,6.529,1.891
	c2.702,0,4.529-0.925,5.481-2.772c0.517-1.021,0.777-2.785,0.777-5.291v-1.574c-1.848,2.142-4.018,3.212-6.51,3.212
	c-2.644,0-4.794-1.008-6.445-3.023c-1.567-1.903-2.352-4.514-2.352-7.832c0-3.274,0.812-5.948,2.436-8.02
	c1.582-2.002,3.709-3.003,6.383-3.003c2.869,0,5.123,1.169,6.76,3.507l0.084-3.255l7.475,0.21v3.695L260.864,134.23z
	 M255.846,137.821c-0.42-0.952-0.938-1.729-1.555-2.331c-1.133-1.119-2.379-1.68-3.736-1.68c-1.639,0-2.877,0.764-3.717,2.289
	c-0.727,1.315-1.092,2.952-1.092,4.913c0,1.932,0.385,3.527,1.155,4.787c0.868,1.441,2.121,2.162,3.758,2.162
	c1.358,0,2.618-0.588,3.78-1.764c0.546-0.546,1.014-1.203,1.407-1.974V137.821z"/>
<path fill="#FFFFFF" d="M269.766,148.529V134.23l-2.792-0.126v-3.695l7.517-0.21v4.115c1.259-2.841,3.163-4.263,5.711-4.263
	c0.629,0,1.281,0.099,1.953,0.295l-0.232,4.41c-0.658-0.155-1.239-0.232-1.743-0.232c-1.609,0-2.953,0.672-4.031,2.016
	c-0.573,0.7-1.035,1.659-1.385,2.877v9.112l3.212,0.126v3.674h-11.002v-3.674L269.766,148.529z"/>
<path fill="#FFFFFF" d="M295.507,129.948c3.43,0,6.103,1.141,8.021,3.422c1.721,2.045,2.583,4.711,2.583,8
	c0,3.597-1.015,6.438-3.045,8.523c-1.875,1.946-4.444,2.919-7.706,2.919c-3.513,0-6.228-1.141-8.146-3.423
	c-1.722-2.043-2.582-4.717-2.582-8.02c0-3.598,1.015-6.439,3.044-8.525C289.566,130.913,292.176,129.948,295.507,129.948
	 M295.298,133.769c-2.002,0-3.493,0.959-4.473,2.877c-0.658,1.273-0.986,2.855-0.986,4.745c0,2.071,0.392,3.772,1.176,5.103
	c0.993,1.666,2.442,2.498,4.345,2.498c2.072,0,3.59-0.959,4.557-2.877c0.657-1.273,0.986-2.855,0.986-4.744
	c0-2.086-0.391-3.787-1.175-5.103C298.734,134.602,297.257,133.769,295.298,133.769"/>
<path fill="#FFFFFF" d="M326.708,149.117c-2.239,2.464-4.801,3.695-7.685,3.695c-2.981,0-5.003-1.147-6.067-3.443
	c-0.532-1.134-0.799-3.017-0.799-5.647v-9.491l-2.792-0.126v-3.695l7.811-0.21v13.585c0,1.624,0.188,2.8,0.567,3.527
	c0.56,1.092,1.526,1.638,2.897,1.638c1.988,0,3.878-1.197,5.67-3.591V134.23l-2.793-0.126v-3.695l7.81-0.21v18.33l2.793,0.126v3.674
	h-7.412V149.117z"/>
<path fill="#FFFFFF" d="M339.515,157.768V134.23l-2.792-0.126v-3.695l7.58-0.21v3.255c0.728-0.91,1.407-1.596,2.037-2.058
	c1.33-0.966,2.862-1.449,4.597-1.449c2.815,0,5.012,1.12,6.594,3.359c1.483,2.114,2.225,4.795,2.225,8.042
	c0,3.583-0.868,6.445-2.604,8.587c-1.539,1.918-3.618,2.877-6.235,2.877c-2.617,0-4.745-1.092-6.383-3.274v8.229l3.255,0.126v3.674
	h-11.066v-3.674L339.515,157.768z M344.534,145.19c1.554,2.506,3.282,3.759,5.187,3.759c1.595,0,2.812-0.77,3.652-2.31
	c0.784-1.456,1.176-3.24,1.176-5.354c0-2.185-0.427-3.976-1.281-5.375c-0.853-1.4-2.079-2.101-3.674-2.101
	c-1.904,0-3.59,1.196-5.06,3.591V145.19z"/>
<path fill="#FFFFFF" d="M376.741,157.768V134.23l-2.792-0.126v-3.695l7.58-0.21v3.255c0.728-0.91,1.407-1.596,2.037-2.058
	c1.33-0.966,2.862-1.449,4.597-1.449c2.815,0,5.012,1.12,6.594,3.359c1.483,2.114,2.225,4.795,2.225,8.042
	c0,3.583-0.868,6.445-2.604,8.587c-1.539,1.918-3.618,2.877-6.235,2.877s-4.745-1.092-6.383-3.274v8.229l3.255,0.126v3.674h-11.066
	v-3.674L376.741,157.768z M381.76,145.19c1.554,2.506,3.282,3.759,5.187,3.759c1.595,0,2.812-0.77,3.652-2.31
	c0.784-1.456,1.176-3.24,1.176-5.354c0-2.185-0.427-3.976-1.281-5.375c-0.853-1.4-2.079-2.101-3.674-2.101
	c-1.904,0-3.59,1.196-5.06,3.591V145.19z"/>
<path fill="#FFFFFF" d="M403.218,148.529v-23.81l-2.792-0.127v-3.694l7.811-0.21v12.618c0.7-0.686,1.357-1.245,1.973-1.679
	c1.652-1.119,3.465-1.681,5.438-1.681c3.009,0,5.06,1.142,6.152,3.423c0.546,1.147,0.818,3.01,0.818,5.585v9.574l2.793,0.126v3.674
	h-10.603v-3.674l2.793-0.126v-9.574c0-1.596-0.196-2.765-0.588-3.507c-0.574-1.092-1.574-1.638-3.002-1.638
	c-2.03,0-3.955,1.233-5.774,3.696v11.022l2.792,0.126v3.674h-10.603v-3.674L403.218,148.529z"/>
<path fill="#FFFFFF" d="M439.542,129.948c3.43,0,6.103,1.141,8.021,3.422c1.721,2.045,2.583,4.711,2.583,8
	c0,3.597-1.015,6.438-3.045,8.523c-1.875,1.946-4.444,2.919-7.706,2.919c-3.513,0-6.228-1.141-8.146-3.423
	c-1.722-2.043-2.582-4.717-2.582-8.02c0-3.598,1.015-6.439,3.044-8.525C433.601,130.913,436.21,129.948,439.542,129.948
	 M439.333,133.769c-2.002,0-3.493,0.959-4.473,2.877c-0.658,1.273-0.986,2.855-0.986,4.745c0,2.071,0.392,3.772,1.176,5.103
	c0.993,1.666,2.442,2.498,4.345,2.498c2.072,0,3.59-0.959,4.557-2.877c0.657-1.273,0.986-2.855,0.986-4.744
	c0-2.086-0.391-3.787-1.175-5.103C442.769,134.602,441.292,133.769,439.333,133.769"/>
<path fill="#FFFFFF" d="M456.465,134.23h-3.526v-3.821h3.526v-4.766l5.019-0.966v5.731h4.997v3.821h-4.997v10.185
	c0,1.482,0.146,2.512,0.44,3.086c0.435,0.854,1.268,1.28,2.498,1.28c0.616,0,1.406-0.182,2.373-0.546l0.441,3.842
	c-1.541,0.49-3.031,0.735-4.473,0.735c-2.479,0-4.221-0.756-5.229-2.269c-0.714-1.077-1.07-3.029-1.07-5.857V134.23z"/>
<path fill="#FFFFFF" d="M480.483,129.948c3.431,0,6.104,1.141,8.021,3.422c1.721,2.045,2.583,4.711,2.583,8
	c0,3.597-1.016,6.438-3.045,8.523c-1.875,1.946-4.444,2.919-7.706,2.919c-3.514,0-6.229-1.141-8.146-3.423
	c-1.722-2.043-2.582-4.717-2.582-8.02c0-3.598,1.016-6.439,3.044-8.525C474.543,130.913,477.152,129.948,480.483,129.948
	 M480.274,133.769c-2.002,0-3.493,0.959-4.473,2.877c-0.658,1.273-0.986,2.855-0.986,4.745c0,2.071,0.393,3.772,1.176,5.103
	c0.993,1.666,2.442,2.498,4.346,2.498c2.071,0,3.59-0.959,4.557-2.877c0.657-1.273,0.986-2.855,0.986-4.744
	c0-2.086-0.392-3.787-1.175-5.103C483.711,134.602,482.233,133.769,480.274,133.769"/>
</svg>
