<?xml version="1.0" encoding="utf-8"?>
<!-- Generator: Adobe Illustrator 16.0.0, SVG Export Plug-In . SVG Version: 6.00 Build 0)  -->
<!DOCTYPE svg PUBLIC "-//W3C//DTD SVG 1.1//EN" "http://www.w3.org/Graphics/SVG/1.1/DTD/svg11.dtd">
<svg version="1.1" id="图层_1" xmlns="http://www.w3.org/2000/svg" xmlns:xlink="http://www.w3.org/1999/xlink" x="0px" y="0px"
	 width="50px" height="50px" viewBox="0 0 50 50" enable-background="new 0 0 50 50" xml:space="preserve">
<g>
	<g opacity="0.14">
		<g>
			<defs>
				<rect id="SVGID_1_" x="0.766" y="0.767" width="48.468" height="48.467"/>
			</defs>
			<clipPath id="SVGID_2_">
				<use xlink:href="#SVGID_1_"  overflow="visible"/>
			</clipPath>
			<g clip-path="url(#SVGID_2_)">
				<defs>
					<path id="SVGID_3_" d="M49.234,25c0,13.384-10.851,24.233-24.235,24.233C11.616,49.233,0.766,38.384,0.766,25
						S11.616,0.766,25,0.766C38.384,0.766,49.234,11.616,49.234,25"/>
				</defs>
				<clipPath id="SVGID_4_">
					<use xlink:href="#SVGID_3_"  overflow="visible"/>
				</clipPath>
				
					<linearGradient id="SVGID_5_" gradientUnits="userSpaceOnUse" x1="-517.5107" y1="993.7305" x2="-517.0005" y2="993.7305" gradientTransform="matrix(95.0636 0 0 -95.0636 49197.1875 94492.5625)">
					<stop  offset="0" style="stop-color:#44B5B8"/>
					<stop  offset="0.0745" style="stop-color:#3CB0B3"/>
					<stop  offset="0.313" style="stop-color:#23A4A7"/>
					<stop  offset="0.5" style="stop-color:#15A0A3"/>
					<stop  offset="0.6003" style="stop-color:#159FA6"/>
					<stop  offset="0.7363" style="stop-color:#159EB1"/>
					<stop  offset="0.8921" style="stop-color:#179CC0"/>
					<stop  offset="1" style="stop-color:#189ACC"/>
				</linearGradient>
				<rect x="0.766" y="0.766" clip-path="url(#SVGID_4_)" fill="url(#SVGID_5_)" width="48.468" height="48.468"/>
			</g>
		</g>
	</g>
	<path fill="#FFFFFF" d="M25.121,32.083c-0.724,0-1.311-0.587-1.311-1.312v-17.48c0-0.469,0.25-0.901,0.655-1.136
		c0.406-0.234,0.905-0.234,1.311,0c0.405,0.234,0.655,0.667,0.655,1.136v17.48C26.432,31.496,25.845,32.083,25.121,32.083
		 M37.357,40.308H12.884c-0.812,0-1.59-0.322-2.163-0.896c-0.574-0.574-0.896-1.353-0.896-2.163v-3.496
		c0-0.725,0.587-1.312,1.311-1.312c0.724,0,1.312,0.587,1.312,1.312v3.496c0,0.241,0.195,0.437,0.437,0.437h24.473
		c0.242,0,0.438-0.195,0.438-0.437v-3.496c0-0.725,0.587-1.312,1.311-1.312c0.725,0,1.311,0.587,1.311,1.312v3.496
		C40.416,38.938,39.047,40.308,37.357,40.308"/>
	<path fill="#FFFFFF" d="M16.381,21.088c-0.349,0.002-0.683-0.137-0.926-0.385c-0.249-0.245-0.388-0.578-0.388-0.927
		s0.139-0.682,0.388-0.927l8.74-8.74c0.516-0.481,1.321-0.467,1.821,0.032c0.498,0.499,0.514,1.304,0.031,1.821l-8.74,8.74
		C17.063,20.951,16.729,21.09,16.381,21.088"/>
	<path fill="#FFFFFF" d="M33.861,21.088c-0.348,0.002-0.683-0.137-0.926-0.385l-8.741-8.74c-0.351-0.327-0.496-0.819-0.376-1.284
		c0.118-0.465,0.481-0.827,0.945-0.946c0.465-0.118,0.957,0.026,1.284,0.377l8.74,8.74c0.247,0.245,0.387,0.578,0.387,0.927
		s-0.14,0.682-0.387,0.927C34.544,20.951,34.211,21.09,33.861,21.088"/>
</g>
</svg>
