<?xml version="1.0" encoding="utf-8"?>
<!-- Generator: Adobe Illustrator 22.0.0, SVG Export Plug-In . SVG Version: 6.00 Build 0)  -->
<svg version="1.1" id="图层_1" xmlns="http://www.w3.org/2000/svg" xmlns:xlink="http://www.w3.org/1999/xlink" x="0px" y="0px"
	 viewBox="0 0 837.2 275.3" style="enable-background:new 0 0 837.2 275.3;" xml:space="preserve">
<style type="text/css">
	.st0{fill:url(#SVGID_1_);}
	.st1{fill:#FFFFFF;}
</style>
<linearGradient id="SVGID_1_" gradientUnits="userSpaceOnUse" x1="-453.608" y1="433.1988" x2="-448.8443" y2="433.1988" gradientTransform="matrix(175.748 0 0 -175.748 79720.6953 76271.4688)">
	<stop  offset="0" style="stop-color:#43BBBF"/>
	<stop  offset="9.350502e-02" style="stop-color:#30B4B8"/>
	<stop  offset="0.2502" style="stop-color:#16ABAF"/>
	<stop  offset="0.3906" style="stop-color:#06A6A9"/>
	<stop  offset="0.5" style="stop-color:#00A4A7"/>
	<stop  offset="0.6324" style="stop-color:#00A3AD"/>
	<stop  offset="0.8112" style="stop-color:#00A2BE"/>
	<stop  offset="1" style="stop-color:#00A0D8"/>
</linearGradient>
<rect class="st0" width="837.2" height="275.3"/>
<g>
	<path class="st1" d="M46,61.2c-1.7,1.3-4.5,3.2-8.3,5.7l-3.8-5.3c6.1-3,11.2-6.4,15.4-10.4c3.4-3.3,6.5-7.1,9.3-11.6l6.2,2.5
		c-0.4,0.6-0.7,1-0.8,1.2c-0.1,0.1-0.2,0.2-0.3,0.4c2.9,4.4,6.4,7.9,10.6,10.6c3.3,2.2,7.6,3.9,12.8,5.2l-2.6,6.4
		c-4.6-1.6-8.3-3.2-11-4.9v4.9H46V61.2z M37.1,70.9h46.4v5.4H58.7l2.3,1.4c-1.2,1.1-3.2,2.9-6,5.5c-0.2,0.2-1.4,1.2-3.7,3.2
		c-0.5,0.4-1.2,1-2.3,2l1.3-0.1l1.3-0.1l6.8-0.5l8.2-0.5l1.3-0.1l2-0.2c-0.4-0.4-0.8-0.7-1-1c-0.8-0.8-2.1-2.1-4-3.9l4.6-3.5
		c4.4,4.1,8.7,8.4,12.9,13l0.8,0.9l-5.4,3.8c-1.1-1.6-2.4-3.1-3.9-4.6c-1.4,0.1-3.3,0.2-5.6,0.4l-10.2,0.7
		c-5.9,0.4-10.2,0.8-13.1,1.2c-1,0.2-2.3,0.4-3.8,0.8l-1.9-6.8c1.2-0.4,2.3-0.9,3.2-1.5c3.7-2.6,7.3-6,10.8-10.3H37.1V70.9z
		 M72.5,60.4c-4.8-3.3-9-7.5-12.6-12.5c-0.3,0.3-0.6,0.6-0.8,0.9c-0.8,1-2.5,2.9-5.1,5.5c-2.2,2.2-4.5,4.2-6.9,6.1H72.5z"/>
	<path class="st1" d="M94.5,57.5h13.4v24.4c1-0.9,3.2-3.4,6.8-7.6l3.2,5.8c-0.5,0.5-0.9,0.9-1.4,1.4c-5.6,5.5-9.6,9.9-12.1,12.9
		l-4-5.7c0.6-0.7,1-1.3,1.1-1.5c0.6-1.1,0.9-2.3,0.9-3.7V63h-8V57.5z M99.5,43.6l4.7-3.2c2.9,3.5,5.4,6.8,7.5,10.1l-5.4,3.6
		c-0.3-0.6-0.6-1.2-0.9-2C104,49.3,102.1,46.5,99.5,43.6z M130.4,84.5c-0.4,0.3-0.7,0.7-1,1c-3,2.9-8.1,6.4-15.1,10.4l-4-5.3
		c4.2-2,7.4-3.7,9.7-5.2c2-1.3,4.2-3.1,6.6-5.3c-1.8-2.5-3.2-4.6-4.2-6.4c-2.2-4.1-4-9-5.5-14.7c-0.6-2.3-1.3-5.4-2.1-9.5l-0.2-1.1
		l5.5-1.1c1.1,5.8,2.3,10.9,3.8,15.4c1.6,4.8,3.8,9.2,6.5,12.9c0.6-0.8,0.9-1.3,1-1.5c1.6-2.3,3.1-5.4,4.4-9.3
		c2-5.8,3.5-11.9,4.4-18.2l6.1,0.8c-1.1,5.7-2.3,10.7-3.6,14.9c-2.3,7.3-5.1,13.3-8.5,18c2.2,2.1,4.7,4,7.6,5.7
		c2.2,1.3,4.3,2.3,6.3,3.1c0.9,0.4,1.7,0.7,2.4,1l-3.8,6l-0.9-0.4C139.4,92.4,134.3,88.7,130.4,84.5z M124.2,42l5.6-2
		c0.2,0.5,0.5,1.4,1,2.5c1.5,3.7,2.7,7.4,3.5,11.1l-5.9,1.9C127.6,50.9,126.2,46.4,124.2,42z"/>
	<path class="st1" d="M166.6,93.9V46h36.2v47.7H197v-5h-24.6v5.2H166.6z M172.4,64.4H197V51.2h-24.6V64.4z M197,83.4V69.9h-24.6
		v13.5H197z"/>
	<path class="st1" d="M235.5,70.9v24.7H230V72.4c-0.2,0.5-0.5,1.1-0.9,1.7c-1.5,3-3.5,6.3-6.1,9.9l-4.3-3.5c0.4-0.5,0.8-1.1,1.3-1.8
		c3.5-4.6,6.2-10,8.3-16.2h-7.7v-5h9.3v-8c-2.3,0.5-5,0.9-8.1,1.3l-1.2-5.2c0.8-0.1,2.4-0.3,4.8-0.7c4.2-0.6,7.3-1.2,9.3-1.7
		c1.8-0.4,3.9-1,6.4-1.8l2.3,4.9c-0.6,0.2-1.1,0.3-1.5,0.4c-1.4,0.4-3.5,0.9-6.5,1.5v9.3h7.9v5h-7.9v5.2l2.7-1.9
		c1.2,1.4,2.1,2.7,2.9,3.9c0.4,0.6,1.2,2,2.3,4l-4.5,3C237.7,74.2,236.6,72.3,235.5,70.9z M255.7,88.4v-6h-10.1v-5h10.1v-6.1H244
		v-5.1h28.8v5.1h-11.6v6.1h10.1v5h-10.1v6h13.5v5.2H242v-5.2H255.7z M245.8,61.5V43.2h25.4v18.2H245.8z M251.2,56.6h14.5v-8.5h-14.5
		V56.6z"/>
</g>
<g>
	<path class="st1" d="M58.2,207.9h-3v-2.4H38v2.4h-3.1v-19.2h7.3v-4.5h-9.2v-2.7h27.4v2.7h-9.5v4.5h7.3V207.9z M38,202.9h17.2v-11.7
		h-4.3v5.1c0,0.3,0.1,0.5,0.2,0.6c0.1,0.1,0.3,0.1,0.5,0.1h3.1v2.9h-3.5c-2.2,0-3.3-1-3.3-3.1v-5.6h-2.9c0,1.8-0.3,3.4-0.9,4.8
		c-0.5,1.3-1.3,2.4-2.2,3.5c-0.2,0.2-0.6,0.6-1.3,1.3l-2.3-2.2c0.3-0.2,0.5-0.4,0.6-0.5c1.5-1.3,2.4-2.5,2.8-3.8
		c0.2-0.7,0.3-1.7,0.4-3.1H38V202.9z M45.2,188.7h2.8v-4.5h-2.8V188.7z"/>
	<path class="st1" d="M62.6,190.1l1.8-2.5c0.3,0.2,0.5,0.3,0.8,0.6c2,1.4,3.2,2.2,3.7,2.5c0.2,0.1,0.4,0.4,0.8,0.7l-2,2.6
		C66.1,192.5,64.4,191.2,62.6,190.1z M63,206.5c1-1.6,1.7-3,2.2-4.1c0.6-1.4,1.4-3.4,2.3-6.2l0.2-0.8l2.9,1.9l-0.3,0.8
		c-1.4,3.7-2.9,7.1-4.5,10L63,206.5z M64.5,182.4l1.9-2.2c0.3,0.1,0.6,0.3,1,0.6c1.3,0.7,2.7,1.8,4.1,3.2l-2.2,2.4
		C68.1,185,66.5,183.7,64.5,182.4z M82.5,197.4c0,0.3-0.1,0.5-0.1,0.7c0,0.1-0.1,0.4-0.2,1.1h8.9v2.3h-7.3c0.7,1,1.8,1.8,3.1,2.5
		c0.9,0.5,2.5,1,4.7,1.6l-1.4,2.8c-2.6-0.7-4.7-1.7-6.3-2.9c-1-0.8-2-1.8-2.8-3.1c-1.2,2.5-4.4,4.5-9.5,6l-1.3-2.7l0.7-0.2
		c2.3-0.5,4.2-1.3,5.6-2.2c0.6-0.4,1.3-1,2-1.9h-7.6v-2.3h8.3c0-0.2,0.1-0.8,0.3-1.8c-1.8,0-3.3,0.1-4.3,0.2
		c-0.6,0.1-1.3,0.2-2.3,0.5l-0.6-2.9c0.7-0.1,1.4-0.3,2.2-0.5c0.8-0.2,1.9-0.7,3.3-1.5l0.7-0.4c-2.2,0.1-3.9,0.3-5.3,0.6l-0.7-2.6
		c1.1-0.2,2-0.5,2.5-0.9c1.1-0.7,2.3-1.6,3.5-2.9l2.4,1.6c-0.4,0.3-0.8,0.5-1.1,0.7c-0.9,0.6-1.7,1.1-2.3,1.5h4.2
		c1.4-0.9,2.6-1.7,3.5-2.5l2.3,2.1c-0.3,0.2-0.7,0.4-1.3,0.8c-2.3,1.4-4.8,2.8-7.5,4.1l6.9-0.2c-0.2-0.2-0.4-0.4-0.5-0.5
		c-0.3-0.2-0.5-0.4-0.7-0.6l2.1-1.5c1.6,1.4,3.1,3,4.4,4.7l-2.4,1.6c-0.3-0.5-0.6-1-1-1.5L82.5,197.4z M75.7,184.1
		c0.8,1.1,1.5,2.2,2.1,3.4l-2.7,1.4c-0.4-0.8-0.6-1.4-0.8-1.8c-0.3-0.5-0.7-1.1-1.3-1.9l2-1.2c-0.7,0.1-1.5,0.2-2.4,0.3l-0.8-2.9
		l0.7,0c3.1-0.1,6.6-0.5,10.3-1.1c1.8-0.3,3.6-0.8,5.4-1.3l1.8,2.6c-2.9,0.8-7.5,1.6-13.9,2.4L75.7,184.1z M79.3,184.3l2.7-1
		c0.6,1.2,1.1,2.4,1.5,3.6l-2.8,0.8c-0.2-0.7-0.3-1.3-0.5-1.7C80.1,185.7,79.8,185.1,79.3,184.3z M84.6,187.2
		c0.9-1.3,1.7-2.7,2.5-4.2l2.6,1.3c-0.6,1.2-1.5,2.6-2.6,4.2L84.6,187.2z"/>
	<path class="st1" d="M103.2,197.3l1.1-1.6h-5v-9.4h17.6v9.4h-9.3l-1,1.6h15.8v2.6h-7.1c-1,1.4-1.8,2.5-2.6,3.2l8,2.3l-1.6,2.7
		c-0.2-0.1-0.5-0.2-0.8-0.3c-0.9-0.4-2.6-1-5.1-1.8c-1.2-0.4-2.1-0.7-2.8-0.9c-0.3,0.1-0.6,0.3-1.1,0.5c-2.4,1.2-6.3,2-11.7,2.6
		c-0.2,0-0.5,0-0.7,0.1l-0.8-2.9c0.6,0,1.2-0.1,1.9-0.1c1.9-0.1,4.1-0.4,6.7-0.8c0.7-0.1,1.4-0.3,2-0.5c-0.6-0.1-1.5-0.3-2.8-0.7
		c-0.1,0-1.5-0.3-4.2-0.9l1.9-2.5h-7.7v-2.6H103.2z M95.1,188v-5.8h11.3c-0.2-0.7-0.5-1.5-0.9-2.4l3.1-0.8l1.2,3.2H121v5.8h-3v-3.4
		H98.1v3.4H95.1z M102,189.9h12v-1.4h-12V189.9z M102,193.4h12v-1.5h-12V193.4z M104.1,200.9l5.6,1.2c0.2-0.2,0.4-0.4,0.6-0.5
		c0.3-0.3,0.8-0.8,1.6-1.7h-6.9L104.1,200.9z"/>
	<path class="st1" d="M131,190c-0.9,0.7-2.4,1.7-4.4,3l-2-2.8c3.2-1.6,5.9-3.4,8.1-5.5c1.8-1.7,3.4-3.8,4.9-6.1l3.3,1.3
		c-0.2,0.3-0.4,0.5-0.4,0.6c0,0.1-0.1,0.1-0.1,0.2c1.5,2.3,3.4,4.2,5.6,5.6c1.7,1.2,4,2.1,6.8,2.7l-1.4,3.4
		c-2.5-0.9-4.4-1.7-5.8-2.6v2.6H131V190z M126.3,195.1h24.5v2.9h-13.1l1.2,0.8c-0.6,0.6-1.7,1.5-3.2,2.9c-0.1,0.1-0.7,0.6-2,1.7
		c-0.2,0.2-0.6,0.5-1.2,1l0.7,0l0.7,0l3.6-0.2l4.3-0.3l0.7-0.1l1.1-0.1c-0.2-0.2-0.4-0.4-0.5-0.5c-0.4-0.4-1.1-1.1-2.1-2l2.4-1.8
		c2.3,2.2,4.6,4.5,6.8,6.9l0.4,0.5l-2.9,2c-0.6-0.8-1.3-1.6-2-2.5c-0.7,0-1.7,0.1-3,0.2l-5.4,0.3c-3.1,0.2-5.4,0.4-6.9,0.6
		c-0.5,0.1-1.2,0.2-2,0.4l-1-3.6c0.6-0.2,1.2-0.5,1.7-0.8c1.9-1.4,3.8-3.2,5.7-5.4h-8.7V195.1z M145,189.6c-2.6-1.7-4.8-4-6.7-6.6
		c-0.2,0.2-0.3,0.3-0.4,0.5c-0.4,0.5-1.3,1.5-2.7,2.9c-1.2,1.2-2.4,2.2-3.7,3.2H145z"/>
	<path class="st1" d="M154.4,206.4c1.1-1.5,1.9-2.9,2.4-4.2c0.6-1.7,1-4.5,1-8.2v-13.3h24.8v2.9h-21.8v9.5c0,4.3-0.4,7.7-1.1,10.1
		c-0.5,1.6-1,3-1.6,4c-0.2,0.4-0.4,0.7-0.5,0.9L154.4,206.4z M162.3,187.6h20.8v2.9h-7.8v14.7c0,1.4-1,2.2-2.9,2.6
		c-0.7,0.1-1.8,0.3-3.4,0.4l-1.4-3.5h3.9c0.5,0,0.7-0.2,0.7-0.6v-13.6h-9.9V187.6z"/>
	<path class="st1" d="M192.5,204.5v-17.3l-3.9,2.6l-1.6-3l5.9-3.8h3.2v21.4H192.5z"/>
	<path class="st1" d="M208.7,199.5l0.8,0.8v2.6c0,1.2-1.1,2.9-3.2,5.1l-1.1-0.8c0.8-1.2,1.4-2.1,1.8-2.7l0.6-0.8h-1.7l-0.9-0.8v-2.5
		l0.9-0.9H208.7z"/>
	<path class="st1" d="M241.6,203.8l0.8-3.1c1.7,0.8,3.5,1.2,5.1,1.2c1.5,0,2.6-0.4,3.3-1.2c0.6-0.7,0.9-1.5,0.9-2.5
		c0-2.4-1.8-3.5-5.4-3.5c-0.5,0-1.1,0-1.8,0.1v-2.9c0.5,0,1,0.1,1.5,0.1c1.8,0,3.2-0.3,4.1-0.8c1-0.6,1.5-1.5,1.5-2.5
		c0-0.9-0.3-1.6-1-2.1c-0.6-0.5-1.5-0.8-2.7-0.8c-1.4,0-3,0.4-4.9,1.2l-0.7-3c2-0.8,4-1.2,6.1-1.2c2.2,0,3.8,0.5,5.1,1.4
		c1.3,1,1.9,2.4,1.9,4.2c0,2.8-1.5,4.5-4.4,5.1c3.1,0.5,4.6,2.1,4.6,5c0,2.1-0.7,3.7-2.2,4.9c-1.3,1.1-3.2,1.6-5.6,1.6
		C245.6,204.9,243.6,204.5,241.6,203.8z"/>
	<path class="st1" d="M258.5,206.2c1.2-1.8,2-3.3,2.4-4.6c0.9-2.6,1.4-6.3,1.4-11.1v-10h22.8v7.7h-19.9v2.8c0,4.5-0.5,8.4-1.5,11.5
		c-0.5,1.5-1.3,3.3-2.6,5.4L258.5,206.2z M265.2,185.7h17v-2.6h-17V185.7z M265.5,195.9h21v2.6h-10.2c-0.9,1.2-2.3,2.7-4.1,4.7
		c-0.2,0.2-0.3,0.4-0.5,0.5l1-0.1c2.3-0.1,4.5-0.3,6.4-0.4c0.3,0,0.6-0.1,1-0.1c-0.2-0.2-0.4-0.4-0.5-0.6c-0.6-0.7-1.3-1.3-1.9-1.8
		l2.3-1.8c0.2,0.2,0.5,0.5,0.9,0.8c1.1,1.1,2.2,2.2,3.3,3.4c0.2,0.2,0.9,1.1,2.3,2.8l-2.7,1.8c-0.5-0.7-1-1.4-1.5-2.1
		c-0.5,0-1.2,0.1-1.9,0.1c-0.7,0.1-1.8,0.1-3,0.2c-5,0.3-8.3,0.6-10,1l-1.1-3.1c0.2-0.1,0.4-0.1,0.5-0.2c1.8-0.5,3.8-2.3,5.9-5.3
		h-7.1V195.9z M267.7,190.5h16.5v2.6h-16.5V190.5z"/>
	<path class="st1" d="M31.6,238.6l7.6-11L32,217.2h4.4l5.3,7.6l5.4-7.6h4.3l-7.5,10.5l7.6,10.9h-4.5l-5.4-7.9l-5.5,7.9H31.6z"/>
	<path class="st1" d="M56.2,215.4c0.7,0,1.3,0.2,1.7,0.7c0.4,0.4,0.5,0.9,0.5,1.5c0,0.6-0.2,1.1-0.5,1.5c-0.4,0.5-1,0.8-1.7,0.8
		c-0.7,0-1.3-0.3-1.7-0.8c-0.4-0.4-0.5-0.9-0.5-1.5c0-0.6,0.2-1.1,0.5-1.5C54.9,215.7,55.4,215.4,56.2,215.4z M54.3,238.6v-15.8h3.6
		v15.8H54.3z"/>
	<path class="st1" d="M60.6,238.6l6.1-8l-5.8-7.8h4.2l3.6,5.3l3.9-5.3h4l-5.9,7.6l6,8.2h-4.2l-3.9-5.6l-4.1,5.6H60.6z"/>
	<path class="st1" d="M81.3,215.4c0.7,0,1.3,0.2,1.7,0.7c0.4,0.4,0.5,0.9,0.5,1.5c0,0.6-0.2,1.1-0.5,1.5c-0.4,0.5-1,0.8-1.7,0.8
		c-0.7,0-1.3-0.3-1.7-0.8c-0.4-0.4-0.5-0.9-0.5-1.5c0-0.6,0.2-1.1,0.5-1.5C79.9,215.7,80.5,215.4,81.3,215.4z M79.4,238.6v-15.8H83
		v15.8H79.4z"/>
	<path class="st1" d="M100.8,238.6v-17.3l-3.9,2.6l-1.6-3l5.9-3.8h3.2v21.4H100.8z"/>
	<path class="st1" d="M120.3,238.6v-21.4h5.7c1.7,0,3,0.1,3.9,0.3c1.4,0.3,2.4,1,3.1,1.9c0.7,0.9,1,2.1,1,3.4c0,2.6-1.2,4.2-3.7,4.8
		c2.8,0.6,4.2,2.3,4.2,5c0,2.2-0.8,3.8-2.5,4.9c-0.7,0.5-1.6,0.8-2.7,0.9c-0.6,0.1-1.5,0.1-2.7,0.1H120.3z M124,226.4h1.7
		c1.6,0,2.8-0.2,3.4-0.6c0.8-0.5,1.2-1.4,1.2-2.6c0-1.2-0.4-2.1-1.2-2.6c-0.5-0.3-1.1-0.5-1.9-0.6c-0.3,0-0.9-0.1-1.6-0.1H124V226.4
		z M124,235.8h1.8c1.1,0,1.9,0,2.4-0.1c1.7-0.3,2.5-1.3,2.5-3.2c0-1.3-0.5-2.3-1.6-2.8c-0.7-0.4-1.8-0.6-3.3-0.6H124V235.8z"/>
	<path class="st1" d="M147,236.8c-0.5,0.6-1.1,1-1.6,1.3c-0.9,0.6-2,0.8-3.3,0.8c-1.6,0-2.9-0.4-3.8-1.3c-0.9-0.9-1.3-2-1.3-3.5
		c0-2,0.8-3.4,2.4-4.4c1-0.6,2.6-0.9,4.8-0.9c0.6,0,1.5,0,2.6,0.1v-0.3c0-2.4-1.2-3.6-3.5-3.6c-1.3,0-2.7,0.4-4.3,1.3l-1-2.6
		c1.8-0.9,3.7-1.4,5.7-1.4c2.6,0,4.4,0.7,5.5,2.1c0.6,0.7,0.9,1.7,1.1,2.9c0.1,0.5,0.1,1.3,0.1,2.4v4.7c0,2.1,0.1,3.4,0.2,4h-3.4
		L147,236.8z M146.8,231.3c-0.6,0-1.1-0.1-1.6-0.1c-1.5,0-2.5,0.2-3.2,0.6c-0.8,0.5-1.2,1.3-1.2,2.3c0,0.7,0.2,1.2,0.6,1.7
		c0.4,0.5,1.1,0.7,1.8,0.7c1.4,0,2.6-0.7,3.6-2.2V231.3z"/>
	<path class="st1" d="M155.2,238.6V216h3.6v22.7H155.2z"/>
	<path class="st1" d="M163.7,238.6V216h3.6v22.7H163.7z"/>
	<path class="st1" d="M172.1,238.6v-9.9c0-2,0-4-0.1-5.9h3.4l0.1,3c0.9-2.1,2.3-3.2,4.2-3.2c0.4,0,0.9,0.1,1.4,0.2l-0.2,3.2
		c-0.5-0.1-0.9-0.2-1.2-0.2c-1.2,0-2.1,0.5-2.9,1.5c-0.4,0.6-0.8,1.3-1,2.1v9.2H172.1z"/>
	<path class="st1" d="M190.2,222.5c2.5,0,4.4,0.8,5.8,2.5c1.2,1.5,1.9,3.4,1.9,5.8c0,2.6-0.7,4.6-2.2,6.1c-1.4,1.4-3.2,2.1-5.6,2.1
		c-2.5,0-4.5-0.8-5.9-2.5c-1.2-1.5-1.9-3.4-1.9-5.8c0-2.6,0.7-4.6,2.2-6.1C185.9,223.2,187.8,222.5,190.2,222.5z M190,225.2
		c-1.4,0-2.5,0.7-3.2,2.1c-0.5,0.9-0.7,2.1-0.7,3.4c0,1.5,0.3,2.7,0.8,3.7c0.7,1.2,1.8,1.8,3.1,1.8c1.5,0,2.6-0.7,3.3-2.1
		c0.5-0.9,0.7-2.1,0.7-3.4c0-1.5-0.3-2.7-0.8-3.7C192.5,225.8,191.4,225.2,190,225.2z"/>
	<path class="st1" d="M208.1,222.5c2.5,0,4.4,0.8,5.8,2.5c1.2,1.5,1.9,3.4,1.9,5.8c0,2.6-0.7,4.6-2.2,6.1c-1.4,1.4-3.2,2.1-5.6,2.1
		c-2.5,0-4.5-0.8-5.9-2.5c-1.2-1.5-1.9-3.4-1.9-5.8c0-2.6,0.7-4.6,2.2-6.1C203.8,223.2,205.7,222.5,208.1,222.5z M208,225.2
		c-1.4,0-2.5,0.7-3.2,2.1c-0.5,0.9-0.7,2.1-0.7,3.4c0,1.5,0.3,2.7,0.8,3.7c0.7,1.2,1.8,1.8,3.1,1.8c1.5,0,2.6-0.7,3.3-2.1
		c0.5-0.9,0.7-2.1,0.7-3.4c0-1.5-0.3-2.7-0.8-3.7C210.5,225.8,209.4,225.2,208,225.2z"/>
	<path class="st1" d="M219.4,238.6v-10.3c0-1.9,0-3.4-0.1-4.5l0-1.1h3.4l0.1,2.3c0.5-0.6,1.1-1.1,1.6-1.5c1.1-0.8,2.3-1.2,3.7-1.2
		c2.2,0,3.6,1,4.3,2.9c0.6-0.7,1.2-1.3,1.7-1.7c1.1-0.8,2.3-1.2,3.6-1.2c2,0,3.3,0.7,4.1,2.2c0.4,0.9,0.7,2.4,0.7,4.4v9.5h-3.6v-9.3
		c0-1.3-0.1-2.2-0.3-2.7c-0.3-0.9-1-1.4-2-1.4c-1.3,0-2.6,0.9-3.8,2.7v10.7h-3.6v-9.7c0-1.1-0.1-2-0.4-2.5c-0.4-0.8-1-1.2-1.9-1.2
		c-1.3,0-2.6,0.9-3.8,2.7v10.7H219.4z"/>
	<path class="st1" d="M247.7,234.3h4.2l-3.1,8.1h-3.5L247.7,234.3z"/>
	<path class="st1" d="M262.1,237.8l0.8-3.1c1.7,0.8,3.4,1.2,5.1,1.2c1.5,0,2.6-0.4,3.3-1.2c0.6-0.7,0.9-1.5,0.9-2.5
		c0-1.3-0.6-2.2-1.7-2.8c-0.8-0.5-2.1-0.7-3.8-0.7c-0.4,0-1,0-1.8,0.1V226c0.5,0.1,1,0.1,1.4,0.1c1.9,0,3.3-0.3,4.1-0.8
		c1-0.6,1.5-1.5,1.5-2.5c0-0.9-0.3-1.6-1-2.1c-0.6-0.5-1.5-0.8-2.7-0.8c-1.4,0-3,0.4-4.9,1.2l-0.7-3c2-0.8,4-1.2,6.1-1.2
		c2.2,0,3.8,0.5,5.1,1.4c1.3,1,1.9,2.4,1.9,4.1c0,1.8-0.6,3.2-1.9,4.1c-0.6,0.5-1.4,0.8-2.5,1c1.4,0.2,2.5,0.7,3.2,1.3
		c0.9,0.9,1.4,2.1,1.4,3.7c0,2.1-0.7,3.7-2.2,4.9c-1.3,1.1-3.2,1.6-5.6,1.6C266.1,239,264,238.6,262.1,237.8z"/>
	<path class="st1" d="M280.8,238.6v-21.4h12.6v3h-8.9v6h8.4v3h-8.4v9.4H280.8z"/>
</g>
<g>
	<path class="st1" d="M37.8,146v-29.8h7.6l6.6,18.9c0.4,1,0.9,2.7,1.6,5.2c0.7-2.3,1.2-4.1,1.6-5.2l6.6-18.9h7.5V146h-5.1v-24.4
		c-0.6,2.1-1.3,4.3-2,6.5L56,146h-5l-6.2-17.5c-0.7-2-1.5-4.3-2.2-6.9V146H37.8z"/>
	<path class="st1" d="M80.2,136.6c0.4,4.1,2.5,6.1,6.3,6.1c2.2,0,4.4-0.7,6.5-2.1l1.8,3.7c-2.5,1.5-5.4,2.2-8.4,2.2
		c-3.9,0-6.8-1.1-8.8-3.2c-1.8-1.9-2.7-4.7-2.7-8.2c0-3.7,1-6.6,3.1-8.7c1.8-1.9,4.3-2.8,7.4-2.8c4.6,0,7.7,1.8,9,5.4
		c0.7,1.8,1,4.3,1.1,7.7H80.2z M90.4,133c0-1.3-0.3-2.4-0.8-3.3c-0.8-1.6-2.2-2.4-4.2-2.4c-1.9,0-3.4,0.8-4.3,2.4
		c-0.5,1-0.8,2.1-0.9,3.4H90.4z"/>
	<path class="st1" d="M104.6,136.6c0.4,4.1,2.5,6.1,6.3,6.1c2.2,0,4.4-0.7,6.5-2.1l1.8,3.7c-2.5,1.5-5.4,2.2-8.4,2.2
		c-3.9,0-6.8-1.1-8.8-3.2c-1.8-1.9-2.7-4.7-2.7-8.2c0-3.7,1-6.6,3.1-8.7c1.8-1.9,4.3-2.8,7.4-2.8c4.6,0,7.7,1.8,9,5.4
		c0.7,1.8,1,4.3,1.1,7.7H104.6z M114.8,133c0-1.3-0.3-2.4-0.8-3.3c-0.8-1.6-2.2-2.4-4.2-2.4c-1.9,0-3.4,0.8-4.3,2.4
		c-0.5,1-0.8,2.1-0.9,3.4H114.8z"/>
	<path class="st1" d="M126.5,127.8H123V124h3.5v-4.8l5-1v5.7h5v3.8h-5V138c0,1.5,0.1,2.5,0.4,3.1c0.4,0.9,1.3,1.3,2.5,1.3
		c0.6,0,1.4-0.2,2.4-0.5l0.4,3.8c-1.5,0.5-3,0.7-4.5,0.7c-2.5,0-4.2-0.8-5.2-2.3c-0.7-1.1-1.1-3-1.1-5.9V127.8z"/>
	<path class="st1" d="M143.9,113.8c1,0,1.8,0.3,2.4,1c0.5,0.6,0.7,1.3,0.7,2.1c0,0.8-0.2,1.5-0.7,2.1c-0.6,0.7-1.4,1.1-2.4,1.1
		s-1.8-0.4-2.4-1.1c-0.5-0.6-0.7-1.3-0.7-2.1c0-0.8,0.2-1.5,0.7-2.1C142.1,114.1,142.9,113.8,143.9,113.8z M141.4,146v-22h5v22
		H141.4z"/>
	<path class="st1" d="M153.5,146v-14.3c0-2.2,0-4.3-0.1-6.3l-0.1-1.4h4.7l0.2,3.2c0.9-0.9,1.6-1.6,2.3-2c1.6-1.1,3.4-1.7,5.5-1.7
		c2.9,0,4.9,1,6,3.1c0.6,1.2,1,3.2,1,6.1V146h-5v-13c0-1.8-0.1-3-0.4-3.7c-0.5-1.3-1.6-1.9-3.2-1.9c-2,0-4,1.2-5.8,3.7V146H153.5z"
		/>
	<path class="st1" d="M194,124l4.8,0l-0.1,1.5c-0.1,3-0.2,5.4-0.2,7.2v10.8c0,2.6-0.2,4.5-0.5,5.8c-0.6,2.4-2,4.1-4.2,5.2
		c-1.7,0.8-3.8,1.3-6.2,1.3c-3.1,0-5.9-0.7-8.5-2l1.6-3.7c2.1,1.3,4.3,1.9,6.6,1.9c2.7,0,4.5-0.9,5.5-2.8c0.5-1,0.8-2.8,0.8-5.3
		v-1.6c-1.9,2.1-4,3.2-6.5,3.2c-2.7,0-4.8-1-6.5-3c-1.6-1.9-2.4-4.5-2.4-7.9c0-3.3,0.8-6,2.4-8c1.6-2,3.7-3,6.4-3
		c2.9,0,5.1,1.2,6.8,3.5L194,124z M193.6,131.4c-0.4-1-0.9-1.7-1.6-2.3c-1.1-1.1-2.4-1.7-3.8-1.7c-1.6,0-2.9,0.8-3.7,2.3
		c-0.7,1.3-1.1,3-1.1,4.9c0,1.9,0.4,3.5,1.2,4.8c0.9,1.4,2.1,2.2,3.8,2.2c1.4,0,2.6-0.6,3.8-1.8c0.5-0.5,1-1.2,1.4-2V131.4z"/>
	<path class="st1" d="M232.9,137.4h-11.2l-3,8.5h-5.2l11-29.8h5.8l11.3,29.8H236L232.9,137.4z M231.5,133.4l-2.5-7.1
		c-0.6-1.7-1.1-3.4-1.7-5.1c-0.4,1.5-1,3.2-1.7,5.1l-2.5,7.1H231.5z"/>
	<path class="st1" d="M259.6,124l4.8,0l-0.1,1.5c-0.1,3-0.2,5.4-0.2,7.2v10.8c0,2.6-0.2,4.5-0.5,5.8c-0.6,2.4-2,4.1-4.2,5.2
		c-1.7,0.8-3.8,1.3-6.2,1.3c-3.1,0-5.9-0.7-8.5-2l1.6-3.7c2.1,1.3,4.3,1.9,6.6,1.9c2.7,0,4.5-0.9,5.5-2.8c0.5-1,0.8-2.8,0.8-5.3
		v-1.6c-1.9,2.1-4,3.2-6.5,3.2c-2.7,0-4.8-1-6.5-3c-1.6-1.9-2.4-4.5-2.4-7.9c0-3.3,0.8-6,2.4-8c1.6-2,3.7-3,6.4-3
		c2.9,0,5.1,1.2,6.8,3.5L259.6,124z M259.2,131.4c-0.4-1-0.9-1.7-1.6-2.3c-1.1-1.1-2.4-1.7-3.8-1.7c-1.6,0-2.9,0.8-3.7,2.3
		c-0.7,1.3-1.1,3-1.1,4.9c0,1.9,0.4,3.5,1.2,4.8c0.9,1.4,2.1,2.2,3.8,2.2c1.4,0,2.6-0.6,3.8-1.8c0.5-0.5,1-1.2,1.4-2V131.4z"/>
	<path class="st1" d="M275,136.6c0.4,4.1,2.5,6.1,6.3,6.1c2.2,0,4.4-0.7,6.5-2.1l1.8,3.7c-2.5,1.5-5.4,2.2-8.4,2.2
		c-3.9,0-6.8-1.1-8.8-3.2c-1.8-1.9-2.7-4.7-2.7-8.2c0-3.7,1-6.6,3.1-8.7c1.8-1.9,4.3-2.8,7.4-2.8c4.6,0,7.7,1.8,9,5.4
		c0.7,1.8,1,4.3,1.1,7.7H275z M285.2,133c0-1.3-0.3-2.4-0.8-3.3c-0.8-1.6-2.2-2.4-4.2-2.4c-1.9,0-3.4,0.8-4.3,2.4
		c-0.5,1-0.8,2.1-0.9,3.4H285.2z"/>
	<path class="st1" d="M295.8,146v-14.3c0-2.2,0-4.3-0.1-6.3l-0.1-1.4h4.7l0.2,3.2c0.9-0.9,1.6-1.6,2.3-2c1.6-1.1,3.4-1.7,5.5-1.7
		c2.9,0,4.9,1,6,3.1c0.6,1.2,1,3.2,1,6.1V146h-5v-13c0-1.8-0.1-3-0.4-3.7c-0.5-1.3-1.6-1.9-3.2-1.9c-2,0-4,1.2-5.8,3.7V146H295.8z"
		/>
	<path class="st1" d="M335.8,114.5h5v23.7c0,3.2,0.1,5.8,0.2,7.7h-4.8l-0.2-3.1c-0.7,1-1.4,1.7-2.1,2.2c-1.3,0.9-2.8,1.4-4.6,1.4
		c-2.8,0-5.1-1.1-6.6-3.4c-1.5-2.1-2.2-4.8-2.2-8.1c0-3.6,0.9-6.4,2.6-8.6c1.6-1.9,3.6-2.9,6.2-2.9c2.6,0,4.7,1.1,6.4,3.3V114.5z
		 M335.8,131c-1.4-2.4-3.1-3.6-5.1-3.6c-1.6,0-2.8,0.7-3.7,2.1c-0.9,1.4-1.3,3.2-1.3,5.4c0,2.1,0.4,3.9,1.2,5.4
		c0.8,1.6,2.1,2.3,3.7,2.3c1.9,0,3.7-1.3,5.2-3.8V131z"/>
	<path class="st1" d="M359.8,143.5c-0.8,0.8-1.5,1.4-2.2,1.8c-1.3,0.8-2.8,1.2-4.6,1.2c-2.3,0-4-0.6-5.2-1.8
		c-1.2-1.2-1.9-2.8-1.9-4.8c0-2.7,1.1-4.8,3.3-6.1c1.4-0.8,3.6-1.2,6.6-1.2c0.9,0,2.1,0,3.6,0.1v-0.4c0-3.3-1.6-5-4.9-5
		c-1.8,0-3.8,0.6-5.9,1.8l-1.3-3.6c2.5-1.3,5.2-1.9,7.9-1.9c3.5,0,6.1,1,7.6,2.9c0.8,1,1.3,2.3,1.5,4c0.1,0.8,0.1,1.9,0.1,3.4v6.6
		c0,2.3,0.1,4.2,0.2,5.6H360L359.8,143.5z M359.6,135.8c-0.8-0.1-1.6-0.1-2.3-0.1c-4.1,0-6.1,1.3-6.1,4c0,0.9,0.3,1.7,0.9,2.3
		c0.6,0.7,1.5,1,2.5,1c1.9,0,3.6-1,5-3.1V135.8z"/>
</g>
</svg>
