<?xml version="1.0" encoding="utf-8"?>
<!-- Generator: Adobe Illustrator 22.0.0, SVG Export Plug-In . SVG Version: 6.00 Build 0)  -->
<svg version="1.1" id="图层_1" xmlns="http://www.w3.org/2000/svg" xmlns:xlink="http://www.w3.org/1999/xlink" x="0px" y="0px"
	 viewBox="0 0 245 222.3" style="enable-background:new 0 0 245 222.3;" xml:space="preserve">
<style type="text/css">
	.st0{fill:#FFFFFF;stroke:#FFFFFF;stroke-width:4;stroke-miterlimit:10;}
	.st1{fill:none;stroke:#FFFFFF;stroke-width:4;stroke-miterlimit:10;}
	.st2{fill:none;stroke:#FFFFFF;stroke-width:4;stroke-linecap:round;stroke-miterlimit:10;}
	.st3{fill:#FFFFFF;}
</style>
<g>
	<g>
		<path class="st0" d="M204.8,73.4c-1.2-2.8-2.9-5.3-5-7.5c-2.2-2.2-4.7-3.9-7.5-5c-0.8-0.3-1.6-0.6-2.5-0.9c3.4-2.2,5.7-6,5.7-10.4
			c0-6.8-5.5-12.3-12.3-12.3c-1.9,0-3.7,0.4-5.2,1.2c-2,0.9-3.7,2.4-5,4.2c-1.4,2-2.1,4.4-2.1,6.9c0,2.6,0.8,4.9,2.1,6.9
			c0.9,1.4,2.1,2.6,3.5,3.5c-0.8,0.2-1.7,0.5-2.5,0.9c-2.1,0.9-4.1,2.1-5.9,3.6c-0.5,0.5-1.1,0.9-1.6,1.4c-2.2,2.2-3.9,4.7-5,7.5
			c-1.2,2.9-1.8,6-1.8,9.2c0,0.8,0.7,1.5,1.5,1.5c0.8,0,1.5-0.7,1.5-1.5c0-5.5,2.1-10.7,6-14.5c3.9-3.9,9.1-6,14.5-6
			c5.5,0,10.7,2.1,14.5,6c3.9,3.9,6,9.1,6,14.5c0,0.8,0.7,1.5,1.5,1.5c0.8,0,1.5-0.7,1.5-1.5C206.6,79.4,206,76.3,204.8,73.4z
			 M183.1,59.1c-1.9,0-3.8-0.6-5.3-1.6c-2.5-1.7-4.1-4.6-4.1-7.8c0-3.2,1.7-6.1,4.2-7.8c1.5-1,3.3-1.6,5.2-1.6
			c5.2,0,9.4,4.2,9.4,9.4C192.5,54.8,188.3,59.1,183.1,59.1z"/>
		<path class="st0" d="M177,73.4c-1.2-2.8-2.9-5.3-5-7.5c-2.2-2.2-4.7-3.9-7.5-5c-0.8-0.3-1.6-0.6-2.5-0.9c3.4-2.2,5.7-6,5.7-10.4
			c0-6.8-5.5-12.3-12.3-12.3c-1.9,0-3.7,0.4-5.2,1.2c-2,0.9-3.7,2.4-5,4.2c-1.4,2-2.1,4.4-2.1,6.9c0,2.6,0.8,4.9,2.1,6.9
			c0.9,1.4,2.1,2.6,3.5,3.5c-0.8,0.2-1.7,0.5-2.5,0.9c-2.1,0.9-4.1,2.1-5.9,3.6c-0.5,0.5-1.1,0.9-1.6,1.4c-2.2,2.2-3.9,4.7-5,7.5
			c-1.2,2.9-1.8,6-1.8,9.2c0,0.8,0.7,1.5,1.5,1.5c0.8,0,1.5-0.7,1.5-1.5c0-5.5,2.1-10.7,6-14.5c3.9-3.9,9.1-6,14.5-6
			c5.5,0,10.7,2.1,14.5,6c3.9,3.9,6,9.1,6,14.5c0,0.8,0.7,1.5,1.5,1.5c0.8,0,1.5-0.7,1.5-1.5C178.9,79.4,178.3,76.3,177,73.4z
			 M155.4,59.1c-1.9,0-3.8-0.6-5.3-1.6c-2.5-1.7-4.1-4.6-4.1-7.8c0-3.2,1.7-6.1,4.2-7.8c1.5-1,3.3-1.6,5.2-1.6
			c5.2,0,9.4,4.2,9.4,9.4C164.8,54.8,160.6,59.1,155.4,59.1z"/>
		<g>
			<path class="st1" d="M147.4,24.1"/>
			<g>
				<path class="st2" d="M153.1,24.9h-15.6c-5.6,0-10.2,4.5-10.2,10.2v11.2"/>
			</g>
			<g>
				<path class="st2" d="M190.2,24.9h15.6c5.6,0,10.2,4.5,10.2,10.2v11.2"/>
			</g>
			<g>
				<path class="st2" d="M153.1,98.7h-15.6c-5.6,0-10.2-4.5-10.2-10.2V77.4"/>
			</g>
			<g>
				<path class="st2" d="M190.2,98.7h15.6c5.6,0,10.2-4.5,10.2-10.2V77.4"/>
			</g>
		</g>
	</g>
	<g>
		<path class="st3" d="M29.1,167.6c0.8-1.2,1.5-2.4,2-3.6c0.5-1.2,0.9-2.5,1.1-4.1l3.5,1.2l-3.2,7.8L29.1,167.6z M41.6,138.6v20.2
			H31.1v-20.2H41.6z M34.1,147h4.5v-5.5h-4.5V147z M34.1,156h4.5v-6.2h-4.5V156z M41.6,160.5l2.2,7.3l-3.6,0.8c0-0.3,0-0.4,0-0.6
			c0-0.2,0-0.3-0.1-0.5c-0.1-1.2-0.6-3.2-1.7-6.2L41.6,160.5z M47.4,141.1h-4.3v-2.7H59l-0.6,6.8c-0.1,1.4-0.7,2.4-1.6,3
			c-0.5,0.3-1.5,0.6-3.1,0.9c-0.4,0.1-0.8,0.1-1.1,0.2l-1.5-3.4l0.6,0h1.4c0.8,0,1.3-0.1,1.6-0.2c0.3-0.2,0.5-0.5,0.5-0.9l0.3-3.5
			h-4.7c-0.6,2.3-1.4,4.1-2.4,5.4c-0.7,1-1.7,2-2.9,2.9h12.7v9.7h-14v-8.9l-0.4,0.2l-2-2.6c1.3-0.6,2.3-1.2,2.9-1.8
			C46.2,144.7,47,143.1,47.4,141.1z M45.8,161l3.1-1l3.2,7.1l-3.5,1.1c-0.1-0.3-0.1-0.5-0.2-0.8C47.7,165,46.8,162.8,45.8,161z
			 M47.4,156.3h7.8v-4.1h-7.8V156.3z M53.2,161.1l3.1-1.5l4.6,7.2l-3.5,1.7c-0.4-1.1-0.8-2.3-1.5-3.4
			C55.4,164.3,54.5,163,53.2,161.1z"/>
		<path class="st3" d="M62.8,167.1c1.7-2,2.9-3.9,3.6-5.5c1.2-2.6,1.8-5.5,1.8-8.8v-16.3h3.5v8.8h8.9v-9.3h3.5v9.3h8.5v3.2H71.6v5
			h17v15.3H85v-12.1H71.3c-0.4,2.9-1.3,5.6-2.7,8.1c-0.8,1.4-1.7,2.9-2.8,4.4L62.8,167.1z"/>
		<path class="st3" d="M120.6,149.8c-0.1-0.1-0.3-0.2-0.5-0.4c-2-1.8-3.7-4.1-5.1-6.7c-0.7-1.4-1.5-3.3-2.2-5.7l3.2-0.7
			c0.4,1.4,0.8,2.6,1.2,3.5c0.6,1.3,1.5,2.7,2.6,4.2c1.2,1.7,2.7,3,4.3,4c0.8,0.5,2,1,3.4,1.6l-1.9,3.4c-1.8-0.8-3.4-1.7-4.8-2.9
			l-1,12.4c-0.1,1.6-0.4,2.8-0.7,3.4c-0.6,1.1-2,1.8-4.2,2.2c-0.7,0.1-1.5,0.2-2.4,0.4l-1.4-4.2h0.7c0.5,0,0.8,0,1.1,0
			c1.3,0,2.1-0.1,2.5-0.3c0.3-0.2,0.6-0.4,0.7-0.9c0.1-0.3,0.2-0.9,0.3-1.8l0.6-8.3h-6.8c-0.5,3.2-1,5.6-1.7,7.1
			c-0.8,1.8-2.2,3.4-4.1,4.9c-1.2,0.9-2.9,1.9-5,3c-0.2,0.1-0.7,0.3-1.4,0.7l-1.9-3.5c3.6-1.2,6.2-2.7,7.8-4.4
			c1.3-1.4,2.1-3.3,2.5-5.7c0-0.3,0.1-1,0.3-2.1h-5.4v-2.3c-1,1-2.3,2-4,3.2l-2.4-3.1c2.9-1.5,5.5-3.8,7.6-7c1.5-2.2,2.7-4.5,3.6-7
			l3.2,1.5c-2.1,4.8-4.5,8.6-7.2,11.5H120.6z"/>
		<path class="st3" d="M142.8,159.1v-1.9l4.6-1.3h-15.8V153h24v3c-0.8,0.3-2.3,0.7-4.6,1.4c-0.8,0.3-2.1,0.6-3.8,1.2
			c-0.3,0.1-0.7,0.2-1.1,0.3v0.2h13.8v2.9h-13.8v3.1c0,1.1-0.2,1.9-0.6,2.3c-0.6,0.6-1.7,1.1-3.2,1.3c-0.4,0.1-1,0.1-1.8,0.2
			l-0.8,0.1l-1.3-3.9h3.5c0.3,0,0.5,0,0.7-0.1c0.1-0.1,0.2-0.3,0.2-0.8V162H129v-2.9H142.8z M159.7,142.5h-30.5v-3H143
			c-0.2-1.1-0.5-2.1-1-3l3.5-0.5c0.4,1.2,0.8,2.4,1,3.6h13.1V142.5z M133.7,151.4V144h21.7v7.4H133.7z M136.9,148.7h15.2v-2.1h-15.2
			V148.7z"/>
	</g>
	<g>
		<path class="st3" d="M29.5,198v-18H39v1.7h-7.4v6.3h7v1.7h-7v6.6h7.8v1.7H29.5z"/>
		<path class="st3" d="M46.1,198l-4.7-13.2h2.1l3.2,8.9c0.3,0.8,0.6,1.6,0.9,2.5c0.2-0.7,0.5-1.6,0.8-2.4l3.2-9h1.8L48.6,198H46.1z"
			/>
		<path class="st3" d="M56.8,191.9c0.1,1.5,0.5,2.6,1,3.3c0.7,1,1.8,1.4,3.2,1.4c1.2,0,2.4-0.4,3.6-1.2l0.8,1.5
			c-1.4,0.9-2.8,1.3-4.4,1.3c-2.1,0-3.7-0.7-4.8-2c-1-1.2-1.5-2.8-1.5-4.8c0-2.4,0.7-4.3,2-5.5c1-0.9,2.2-1.4,3.8-1.4
			c2.3,0,3.9,1,4.7,2.9c0.4,1.1,0.7,2.6,0.7,4.5H56.8z M63.8,190.3c0-1-0.2-1.8-0.5-2.4c-0.6-1.2-1.5-1.8-2.9-1.8
			c-1.3,0-2.3,0.6-2.9,1.7c-0.4,0.7-0.6,1.5-0.6,2.5H63.8z"/>
		<path class="st3" d="M69.3,198v-8.9c0-2.1,0-3.6-0.1-4.3h2l0.1,2.1c0.5-0.5,1-0.9,1.4-1.3c1-0.7,2.1-1.1,3.4-1.1
			c1.7,0,2.8,0.6,3.4,1.8c0.3,0.5,0.4,1.3,0.5,2.3c0,0.6,0.1,1.2,0.1,1.7v7.6h-2v-7.7c0-1.3-0.1-2.2-0.3-2.8
			c-0.3-0.9-1.1-1.4-2.3-1.4c-1.4,0-2.8,0.8-4.2,2.5v9.4H69.3z"/>
		<path class="st3" d="M85.2,186.4H83v-1.6h2.1v-2.9l2-0.4v3.3h3.1v1.6h-3.1v7.2c0,1.1,0.1,1.8,0.3,2.2c0.3,0.6,0.8,0.8,1.5,0.8
			c0.4,0,0.9-0.1,1.5-0.4l0.2,1.6c-0.8,0.3-1.5,0.4-2.1,0.4c-1.3,0-2.2-0.4-2.7-1.2c-0.4-0.6-0.6-1.6-0.6-3V186.4z"/>
		<path class="st3" d="M100,198v-18h3.5c2.2,0,3.7,0.3,4.7,1c1.4,0.9,2.1,2.3,2.1,4.3c0,1.3-0.3,2.4-1,3.2c-0.7,0.8-1.6,1.4-2.9,1.7
			c-0.8,0.2-1.9,0.3-3.1,0.3H102v7.6H100z M102,188.7h0.9c1.7,0,3-0.2,3.7-0.5c1-0.5,1.5-1.5,1.5-2.9c0-0.8-0.2-1.4-0.5-2
			c-0.4-0.7-1.1-1.1-2-1.3c-0.6-0.1-1.4-0.2-2.3-0.2H102V188.7z"/>
		<path class="st3" d="M113.1,198v-19h2v7.9c1.4-1.5,3-2.3,4.7-2.3c1.7,0,2.8,0.6,3.4,1.8c0.3,0.5,0.4,1.3,0.5,2.3
			c0,0.6,0.1,1.2,0.1,1.7v7.6h-2v-7.7c0-1.3-0.1-2.2-0.3-2.8c-0.3-0.9-1.1-1.4-2.3-1.4c-1.4,0-2.8,0.8-4.2,2.5v9.4H113.1z"/>
		<path class="st3" d="M133.4,184.5c1.9,0,3.4,0.7,4.5,2.2c1,1.2,1.5,2.8,1.5,4.7c0,2-0.6,3.7-1.7,4.9c-1.1,1.3-2.6,1.9-4.4,1.9
			c-1.9,0-3.5-0.7-4.6-2.2c-1-1.2-1.5-2.8-1.5-4.7c0-2,0.6-3.7,1.7-4.9C130.1,185.2,131.5,184.5,133.4,184.5z M133.3,186.1
			c-0.8,0-1.5,0.2-2.2,0.7c-1.2,0.9-1.8,2.4-1.8,4.5c0,1.4,0.3,2.6,0.9,3.6c0.7,1.1,1.8,1.7,3.1,1.7c1.4,0,2.5-0.6,3.2-1.9
			c0.5-0.9,0.8-2,0.8-3.3c0-1.4-0.3-2.6-0.9-3.6C135.6,186.7,134.6,186.1,133.3,186.1z"/>
		<path class="st3" d="M143.2,186.4H141v-1.6h2.1v-2.9l2-0.4v3.3h3.1v1.6h-3.1v7.2c0,1.1,0.1,1.8,0.3,2.2c0.3,0.6,0.8,0.8,1.5,0.8
			c0.4,0,0.9-0.1,1.5-0.4l0.2,1.6c-0.8,0.3-1.5,0.4-2.1,0.4c-1.3,0-2.2-0.4-2.7-1.2c-0.4-0.6-0.6-1.6-0.6-3V186.4z"/>
		<path class="st3" d="M156.2,184.5c1.9,0,3.4,0.7,4.5,2.2c1,1.2,1.5,2.8,1.5,4.7c0,2-0.6,3.7-1.7,4.9c-1.1,1.3-2.6,1.9-4.4,1.9
			c-1.9,0-3.5-0.7-4.6-2.2c-1-1.2-1.5-2.8-1.5-4.7c0-2,0.6-3.7,1.7-4.9C152.8,185.2,154.3,184.5,156.2,184.5z M156,186.1
			c-0.8,0-1.5,0.2-2.2,0.7c-1.2,0.9-1.8,2.4-1.8,4.5c0,1.4,0.3,2.6,0.9,3.6c0.7,1.1,1.8,1.7,3.1,1.7c1.4,0,2.5-0.6,3.2-1.9
			c0.5-0.9,0.8-2,0.8-3.3c0-1.4-0.3-2.6-0.9-3.6C158.4,186.7,157.4,186.1,156,186.1z"/>
	</g>
</g>
</svg>
