<?xml version="1.0" encoding="utf-8"?>
<!-- Generator: Adobe Illustrator 22.0.0, SVG Export Plug-In . SVG Version: 6.00 Build 0)  -->
<svg version="1.1" id="图层_1" xmlns="http://www.w3.org/2000/svg" xmlns:xlink="http://www.w3.org/1999/xlink" x="0px" y="0px"
	 viewBox="0 0 245 222.3" style="enable-background:new 0 0 245 222.3;" xml:space="preserve">
<style type="text/css">
	.st0{fill:#FFFFFF;}
</style>
<g>
	<g>
		<path class="st0" d="M169.3,42.6h-12.6V21.9h12.6V42.6z M161.7,37.4h2.5V27.1h-2.5V37.4z M161.7,37.4"/>
		<g>
			<path class="st0" d="M197,42.6h-12.6V21.9H197V42.6z M189.5,37.4h2.5V27.1h-2.5V37.4z M189.5,37.4"/>
			<path class="st0" d="M217.2,94.3h-80.7V29.7h15.1v5.2h-10.1v54.3h70.6V34.8h-10.1v-5.2h15.1V94.3z M217.2,94.3"/>
		</g>
		<rect x="174.3" y="29.7" class="st0" width="5" height="5.2"/>
		<rect x="156.7" y="63.3" class="st0" width="40.4" height="5.2"/>
		<rect x="156.7" y="73.6" class="st0" width="40.4" height="5.2"/>
		<rect x="139" y="47.8" class="st0" width="75.7" height="5.2"/>
	</g>
	<g>
		<path class="st0" d="M35,144.3c-1,0.8-2.7,1.9-4.9,3.4l-2.3-3.1c3.6-1.8,6.7-3.8,9.2-6.2c2.1-1.9,3.9-4.3,5.5-6.9l3.7,1.5
			c-0.2,0.4-0.4,0.6-0.5,0.7c0,0.1-0.1,0.1-0.2,0.2c1.7,2.6,3.8,4.7,6.3,6.3c2,1.3,4.5,2.3,7.6,3.1l-1.6,3.8c-2.8-1-5-1.9-6.6-2.9
			v2.9H35V144.3z M29.7,150.1h27.7v3.2H42.6l1.4,0.9c-0.7,0.6-1.9,1.7-3.6,3.3c-0.1,0.1-0.8,0.7-2.2,1.9c-0.3,0.2-0.7,0.6-1.4,1.2
			l0.8-0.1l0.8,0l4.1-0.3l4.9-0.3l0.8-0.1l1.2-0.1c-0.3-0.3-0.5-0.4-0.6-0.6c-0.5-0.5-1.3-1.3-2.4-2.3l2.7-2.1
			c2.6,2.4,5.2,5,7.7,7.8l0.5,0.5l-3.2,2.3c-0.7-0.9-1.5-1.9-2.3-2.8c-0.8,0.1-2,0.1-3.3,0.2l-6.1,0.4c-3.5,0.2-6.1,0.5-7.8,0.7
			c-0.6,0.1-1.3,0.3-2.2,0.5l-1.1-4c0.7-0.2,1.4-0.5,1.9-0.9c2.2-1.5,4.3-3.6,6.5-6.2h-9.8V150.1z M50.8,143.8
			c-2.9-2-5.4-4.5-7.5-7.5c-0.2,0.2-0.3,0.4-0.5,0.6c-0.5,0.6-1.5,1.7-3,3.3c-1.3,1.3-2.7,2.5-4.1,3.6H50.8z"/>
		<path class="st0" d="M61.9,142.1h8v14.6c0.6-0.5,1.9-2.1,4.1-4.5l1.9,3.5c-0.3,0.3-0.5,0.6-0.8,0.8c-3.3,3.3-5.7,5.9-7.2,7.7
			l-2.4-3.4c0.4-0.4,0.6-0.7,0.7-0.9c0.3-0.6,0.5-1.4,0.5-2.2v-12.3h-4.7V142.1z M64.9,133.8l2.8-1.9c1.7,2.1,3.2,4.1,4.5,6
			l-3.2,2.2c-0.2-0.3-0.3-0.7-0.6-1.2C67.6,137.2,66.4,135.5,64.9,133.8z M83.3,158.2c-0.2,0.2-0.4,0.4-0.6,0.6
			c-1.8,1.7-4.8,3.8-9,6.2l-2.4-3.2c2.5-1.2,4.4-2.2,5.8-3.1c1.2-0.8,2.5-1.8,3.9-3.2c-1.1-1.5-1.9-2.7-2.5-3.8
			c-1.3-2.4-2.4-5.4-3.3-8.8c-0.4-1.4-0.8-3.2-1.2-5.6l-0.1-0.7l3.3-0.7c0.6,3.5,1.4,6.5,2.3,9.2c0.9,2.9,2.2,5.5,3.9,7.7
			c0.3-0.5,0.5-0.8,0.6-0.9c1-1.4,1.8-3.2,2.6-5.5c1.2-3.5,2.1-7.1,2.6-10.9l3.7,0.5c-0.6,3.4-1.4,6.4-2.1,8.9
			c-1.3,4.4-3,8-5.1,10.7c1.3,1.3,2.8,2.4,4.5,3.4c1.3,0.8,2.6,1.4,3.8,1.9c0.5,0.2,1,0.4,1.4,0.6L93,165l-0.5-0.3
			C88.7,162.9,85.6,160.7,83.3,158.2z M79.6,132.9l3.3-1.2c0.1,0.3,0.3,0.8,0.6,1.5c0.9,2.2,1.6,4.4,2.1,6.6l-3.5,1.1
			C81.6,138.1,80.8,135.5,79.6,132.9z"/>
		<path class="st0" d="M102.8,163.8v-28.6h21.6v28.5h-3.5v-3h-14.7v3.1H102.8z M106.2,146.2h14.7v-7.9h-14.7V146.2z M120.9,157.5
			v-8.1h-14.7v8.1H120.9z"/>
		<path class="st0" d="M141.8,150.1v14.7h-3.3V151c-0.1,0.3-0.3,0.6-0.5,1c-0.9,1.8-2.1,3.7-3.6,5.9l-2.6-2.1
			c0.2-0.3,0.5-0.7,0.8-1.1c2.1-2.8,3.7-6,5-9.7h-4.6v-3h5.6v-4.8c-1.4,0.3-3,0.6-4.8,0.8l-0.7-3.1c0.5-0.1,1.5-0.2,2.9-0.4
			c2.5-0.4,4.4-0.7,5.6-1c1.1-0.3,2.3-0.6,3.8-1.1l1.4,2.9c-0.4,0.1-0.7,0.2-0.9,0.2c-0.8,0.2-2.1,0.5-3.9,0.9v5.6h4.7v3h-4.7v3.1
			l1.6-1.1c0.7,0.9,1.3,1.6,1.7,2.3c0.3,0.4,0.7,1.2,1.4,2.4l-2.7,1.8C143.1,152.1,142.5,150.9,141.8,150.1z M153.9,160.5V157h-6.1
			v-3h6.1v-3.7h-7v-3h17.2v3h-6.9v3.7h6v3h-6v3.6h8.1v3.1h-19.5v-3.1H153.9z M148,144.5v-10.9h15.2v10.9H148z M151.2,141.6h8.7v-5.1
			h-8.7V141.6z"/>
	</g>
	<g>
		<path class="st0" d="M28.4,194.5v-18h9.5v1.7h-7.4v6.3h7v1.7h-7v6.6h7.8v1.7H28.4z"/>
		<path class="st0" d="M45,194.5l-4.7-13.2h2.1l3.2,8.9c0.3,0.8,0.6,1.6,0.9,2.5c0.2-0.7,0.5-1.6,0.8-2.4l3.2-9h1.8l-4.7,13.2H45z"
			/>
		<path class="st0" d="M55.7,188.5c0.1,1.5,0.5,2.6,1,3.3c0.7,1,1.8,1.4,3.2,1.4c1.2,0,2.4-0.4,3.6-1.2l0.8,1.5
			c-1.4,0.9-2.8,1.3-4.4,1.3c-2.1,0-3.7-0.7-4.8-2c-1-1.2-1.5-2.8-1.5-4.8c0-2.4,0.7-4.3,2-5.5c1-0.9,2.2-1.4,3.8-1.4
			c2.3,0,3.9,1,4.7,2.9c0.4,1.1,0.7,2.6,0.7,4.5H55.7z M62.7,186.9c0-1-0.2-1.8-0.5-2.4c-0.6-1.2-1.5-1.8-2.9-1.8
			c-1.3,0-2.3,0.6-2.9,1.7c-0.4,0.7-0.6,1.5-0.6,2.5H62.7z"/>
		<path class="st0" d="M68.2,194.5v-8.9c0-2.1,0-3.6-0.1-4.3h2l0.1,2.1c0.5-0.5,1-0.9,1.4-1.3c1-0.7,2.1-1.1,3.4-1.1
			c1.7,0,2.8,0.6,3.4,1.8c0.3,0.5,0.4,1.3,0.5,2.3c0,0.6,0.1,1.2,0.1,1.7v7.6h-2v-7.7c0-1.3-0.1-2.2-0.3-2.8
			c-0.3-0.9-1.1-1.4-2.3-1.4c-1.4,0-2.8,0.8-4.2,2.5v9.4H68.2z"/>
		<path class="st0" d="M84.1,183h-2.1v-1.6h2.1v-2.9l2-0.4v3.3h3.1v1.6H86v7.2c0,1.1,0.1,1.8,0.3,2.2c0.3,0.6,0.8,0.8,1.5,0.8
			c0.4,0,0.9-0.1,1.5-0.4l0.2,1.6c-0.8,0.3-1.5,0.4-2.1,0.4c-1.3,0-2.2-0.4-2.7-1.2c-0.4-0.6-0.6-1.6-0.6-3V183z"/>
		<path class="st0" d="M107.9,188.2h-6.7l-2.2,6.3h-2.1l6.4-18h2.6l6.4,18h-2.2L107.9,188.2z M107.3,186.5l-1.6-4.7
			c-0.4-1.2-0.8-2.4-1.1-3.5c-0.3,1-0.7,2.2-1.1,3.5l-1.6,4.7H107.3z"/>
		<path class="st0" d="M123,181.4h1.9c-0.1,2-0.1,3.8-0.1,5.2v6.6c0,1.5-0.1,2.6-0.3,3.4c-0.3,1.2-1,2.2-2.1,2.9
			c-0.9,0.6-2,0.9-3.3,0.9c-1.8,0-3.4-0.5-5-1.4l0.9-1.5c1.3,0.9,2.7,1.4,4.1,1.4c1.5,0,2.6-0.6,3.2-1.9c0.3-0.7,0.5-1.9,0.5-3.6
			v-1.1c-1.2,1.4-2.6,2.1-4,2.1c-1.5,0-2.7-0.6-3.7-1.8c-1-1.2-1.4-2.7-1.4-4.7c0-2.1,0.5-3.9,1.6-5.1c0.9-1.1,2.1-1.6,3.6-1.6
			c1.7,0,3.1,0.8,4.1,2.3L123,181.4z M122.9,185.2c-0.4-0.7-0.8-1.2-1.2-1.6c-0.7-0.6-1.5-1-2.4-1c-1.2,0-2.1,0.5-2.7,1.6
			c-0.5,0.9-0.8,2.1-0.8,3.5c0,1.3,0.3,2.5,0.8,3.4c0.6,1,1.5,1.5,2.7,1.5c1.4,0,2.6-0.8,3.5-2.3V185.2z"/>
		<path class="st0" d="M130.4,188.5c0.1,1.5,0.5,2.6,1,3.3c0.7,1,1.8,1.4,3.2,1.4c1.2,0,2.4-0.4,3.6-1.2l0.8,1.5
			c-1.4,0.9-2.8,1.3-4.4,1.3c-2.1,0-3.7-0.7-4.8-2c-1-1.2-1.5-2.8-1.5-4.8c0-2.4,0.7-4.3,2-5.5c1-0.9,2.2-1.4,3.8-1.4
			c2.3,0,3.9,1,4.7,2.9c0.4,1.1,0.7,2.6,0.7,4.5H130.4z M137.4,186.9c0-1-0.2-1.8-0.5-2.4c-0.6-1.2-1.5-1.8-2.9-1.8
			c-1.3,0-2.3,0.6-2.9,1.7c-0.4,0.7-0.6,1.5-0.6,2.5H137.4z"/>
		<path class="st0" d="M143,194.5v-8.9c0-2.1,0-3.6-0.1-4.3h2l0.1,2.1c0.5-0.5,1-0.9,1.4-1.3c1-0.7,2.1-1.1,3.4-1.1
			c1.7,0,2.8,0.6,3.4,1.8c0.3,0.5,0.4,1.3,0.5,2.3c0,0.6,0.1,1.2,0.1,1.7v7.6h-2v-7.7c0-1.3-0.1-2.2-0.3-2.8
			c-0.3-0.9-1.1-1.4-2.3-1.4c-1.4,0-2.8,0.8-4.2,2.5v9.4H143z"/>
		<path class="st0" d="M166.2,175.5h2v14.2c0,1.3,0,2.8,0.1,4.3l0,0.5h-1.9l-0.1-2c-0.5,0.6-0.9,1.1-1.3,1.4
			c-0.7,0.6-1.6,0.9-2.7,0.9c-1.6,0-2.9-0.7-3.9-2c-1-1.3-1.4-2.9-1.4-5c0-2.1,0.5-3.8,1.6-5.1c1-1.1,2.2-1.7,3.6-1.7
			c1.6,0,2.9,0.7,3.9,2.1V175.5z M166.2,185.2c-0.8-1.6-2-2.5-3.5-2.5c-1.1,0-2,0.5-2.6,1.4c-0.6,1-0.9,2.3-0.9,3.8
			c0,1.4,0.3,2.7,0.8,3.6c0.6,1.1,1.5,1.7,2.7,1.7c0.9,0,1.7-0.4,2.5-1.1c0.3-0.3,0.7-0.8,1-1.4V185.2z"/>
		<path class="st0" d="M179.6,193c-0.4,0.5-0.9,0.9-1.3,1.1c-0.8,0.5-1.6,0.7-2.6,0.7c-1.4,0-2.4-0.4-3.2-1.2c-0.6-0.7-1-1.6-1-2.7
			c0-1.7,0.7-3,2.2-3.7c0.9-0.4,2.1-0.6,3.8-0.6c0.3,0,1,0,1.9,0.1v-0.4c0-1-0.1-1.7-0.4-2.2c-0.4-0.9-1.3-1.4-2.6-1.4
			c-1.1,0-2.2,0.4-3.4,1.1l-0.9-1.4c1.4-0.9,2.9-1.3,4.5-1.3c2,0,3.4,0.6,4.1,1.8c0.3,0.6,0.5,1.4,0.6,2.4c0,0.4,0,0.9,0,1.6v4.3
			c0,1.3,0,2.4,0.1,3.3h-1.8L179.6,193z M179.5,188.1c-0.5,0-1-0.1-1.5-0.1c-1.4,0-2.4,0.2-3.1,0.6c-0.8,0.5-1.3,1.2-1.3,2.2
			c0,0.7,0.2,1.3,0.6,1.7c0.4,0.4,1,0.6,1.8,0.6c1.4,0,2.5-0.7,3.4-2V188.1z"/>
	</g>
</g>
</svg>
