<?xml version="1.0" encoding="utf-8"?>
<!-- Generator: Adobe Illustrator 22.0.0, SVG Export Plug-In . SVG Version: 6.00 Build 0)  -->
<svg version="1.1" id="图层_1" xmlns="http://www.w3.org/2000/svg" xmlns:xlink="http://www.w3.org/1999/xlink" x="0px" y="0px"
	 viewBox="0 0 245 222.3" style="enable-background:new 0 0 245 222.3;" xml:space="preserve">
<style type="text/css">
	.st0{fill:#FFFFFF;}
</style>
<g>
	<g>
		<g>
			<path class="st0" d="M197.4,24.6h-41.8c-5.9,0-10.5,4.7-10.5,10.3v67.5c0,5.6,4.7,10.3,10.5,10.3h52.6c5.6,0,10.5-4.7,10.5-10.3
				v-57L197.4,24.6z M212.6,100.4c0,3.9-3.2,7.1-7.1,7.1H158c-3.9,0-7.1-3.2-7.1-7.1V36.8c0-3.9,3.2-7.1,7.1-7.1h37.2v13
				c0,2.2,2,4.2,4.2,4.2h13L212.6,100.4z M180.6,72.8l-0.2-0.2c-1.5-1.2-3.7-1-4.9,0.2c-1.5,1.5-1.5,3.9,0,5.4l7.3,7.3
				c0.2,0.2,0.2,0.5,0.5,0.7h0.2c1.5,1.2,3.9,1.2,5.4,0c0.2-0.2,0.5-0.5,0.5-0.7l14.9-15.2c1.5-1.5,1.5-3.9,0-5.4
				c0-0.2-0.2-0.2-0.5-0.2c-1.5-1.2-3.7-1-4.9,0.2l-13,13.2L180.6,72.8z M167.6,66.6c0-2.2,2-3.7,4.2-3.7h9.8c2.2,0,4.2,1.7,4.2,3.7
				v1.2h6.4v-5.4c0-2.9-2.7-5.4-5.9-5.4h-19.1c-3.2,0-5.9,2.4-5.9,5.4v17.4c0,2.9,2.7,5.4,5.9,5.4h5.9v-5.9h-1.2
				c-2.2,0-4.2-1.7-4.2-3.7V66.6z M167.6,66.6"/>
		</g>
	</g>
	<g>
		<path class="st0" d="M26.3,140h7.1v13.5l1.8-2.3l1.8,2.6c-0.4,0.5-1.4,1.6-2.9,3.2l-1.9,2.2c-0.4,0.5-0.8,0.9-1.1,1.2l-2-2.6
			c0.3-0.4,0.5-0.6,0.5-0.7c0.3-0.5,0.5-1.1,0.5-1.8v-12.2h-4V140z M28.9,131.7l2.7-1.8c0.8,1,1.5,1.9,1.9,2.6
			c0.4,0.7,1,1.7,1.6,3.1l-3,1.6c-0.1-0.3-0.3-0.7-0.5-1.1C31.1,134.9,30.2,133.4,28.9,131.7z M34.8,160.7c1.1-2.3,1.9-4.5,2.4-6.5
			c0.3-1.2,0.5-3.1,0.6-5.7c0.1-2.1,0.2-3.4,0.2-4.1v-13.2h19.3V158c0,1.9-0.9,3.1-2.8,3.5c-0.7,0.2-1.7,0.3-3.1,0.4l-0.9-3.5h2.6
			c0.7,0,1.1-0.4,1.1-1.1v-23.2H41.1v10.6c0,3.9-0.3,7.5-0.9,10.8c-0.3,1.7-1.1,3.9-2.3,6.8L34.8,160.7z M53.8,143v2.8H41.5V143H46
			v-2.6h-4v-2.7h4v-3h3.1v3h4.4v2.7h-4.4v2.6H53.8z M42.9,156.1v-8.5h9.5v8.5H42.9z M46,153.3h3.3v-3H46V153.3z"/>
		<path class="st0" d="M78.8,136.2v7.9h-3.3v-7.3c-1.4,1.6-3.2,3.1-5.5,4.6c-1.8,1.2-4.1,2.4-7,3.8l-1.9-3.1c2.9-1,5.3-2.2,7.2-3.4
			c1.8-1.2,3.1-2.2,3.8-3.1h-9.2v-2.9h12.5v-3.3h3.3v3.3h12.9v2.9h-9.3c2.4,2.8,6.1,4.7,11.1,5.9l-1.8,3.3c-2-0.7-3.3-1.2-4-1.5
			c-2.6-1.2-5-2.8-7-4.9C80,137.9,79.3,137.1,78.8,136.2z M62.1,160.9V158h29.8v2.9H62.1z M66.6,144.3h20.8v12.6H66.6V144.3z
			 M70,149.1h14v-2H70V149.1z M70,154.1h14V152H70V154.1z"/>
		<path class="st0" d="M98.3,162.1v-25h3.2v25H98.3z M100.4,131.6l2.8-1.7l3.4,5.4l-3,1.7c-0.1-0.3-0.3-0.6-0.5-1
			c-0.5-1-1.2-2.2-2.1-3.7C100.9,132.4,100.7,132.1,100.4,131.6z M105.8,153.4v-12.6h12.5v12.6H105.8z M108.9,150.5h6.3v-6.7h-6.3
			V150.5z M125.9,132.2v26.3c0,0.9-0.5,1.7-1.6,2.2c-1,0.5-2.5,1-4.5,1.3l-1.5-4.2h3.2c0.7,0,1.1-0.4,1.1-1.1v-21.3H109v-3.2H125.9z
			"/>
		<path class="st0" d="M139.1,136.3c-0.1-0.1-0.2-0.2-0.3-0.4l-0.4-0.5c-0.9-1.2-1.9-2.4-3.1-3.7l2.6-2c1,0.9,2.3,2.5,4.1,4.7
			l-2.3,1.9h4.8c0.1-0.3,0.1-0.6,0.2-0.7c0.3-1.5,0.6-3.5,0.8-6l3.5,0.4c-0.2,0.8-0.3,1.9-0.5,3.3c-0.1,0.6-0.2,1.3-0.3,2
			c-0.1,0.3-0.1,0.6-0.2,1h5.5l-1.8-1.3c1.5-1.5,2.7-3.2,3.6-5.1l2.9,1.8c-0.7,1.3-1.8,2.8-3.2,4.5h5.9v2.9H147
			c-0.1,0.3-0.2,0.6-0.3,0.9c-0.2,0.7-0.5,1.3-0.9,2h16.7v3.1h-8.1c2.1,2.2,4.9,3.9,8.3,5l0.7,0.2l-1.8,3.2
			c-0.4-0.2-0.8-0.4-1.2-0.6c-2-0.9-3.8-2-5.4-3.2l-0.3,3.6c-0.1,1.4-0.8,2.3-2,2.8c-0.6,0.2-1.8,0.5-3.7,0.7
			c-0.1,0-0.5,0.1-1.2,0.2l-0.9-3.6c0.5,0,0.9,0,1.1,0c1.5,0,2.5-0.1,3-0.2c0.5-0.1,0.7-0.5,0.7-1.2v-1.2h-9.3v6.9
			c0,0.5,0.3,0.8,0.9,0.8h11.1c0.7,0,1.2-0.2,1.5-0.5c0.3-0.4,0.6-1.2,0.9-2.6l3.4,1.7c-0.4,1.1-0.8,1.9-1.2,2.5
			c-0.6,0.9-1.2,1.5-1.8,1.8c-0.5,0.2-1.2,0.4-1.9,0.4h-12.5c-2.4,0-3.6-1.1-3.6-3.4v-8c-0.4,0.2-0.6,0.4-0.8,0.5
			c-1.6,1.1-3.3,2.2-5.1,3.1l-1.8-3c3.9-1.7,6.8-3.6,8.8-5.6h-8.1v-3.1h10.3c0.5-0.8,1-1.7,1.4-2.9h-9.8v-2.9H139.1z M141.5,147.9
			h11.3c-0.2-0.2-0.3-0.4-0.5-0.5c-0.1-0.1-0.5-0.5-1.2-1.2c-0.2-0.2-0.5-0.5-0.9-1h-6.2C143.9,145.3,143,146.2,141.5,147.9z"/>
	</g>
	<g>
		<path class="st0" d="M27,191.9v-18h9.5v1.7h-7.4v6.3h7v1.7h-7v6.6h7.8v1.7H27z"/>
		<path class="st0" d="M43.6,191.9l-4.7-13.2h2.1l3.2,8.9c0.3,0.8,0.6,1.6,0.9,2.5c0.2-0.7,0.5-1.6,0.8-2.4l3.2-9h1.8l-4.7,13.2
			H43.6z"/>
		<path class="st0" d="M54.2,185.8c0.1,1.5,0.5,2.6,1,3.3c0.7,1,1.8,1.4,3.2,1.4c1.2,0,2.4-0.4,3.6-1.2l0.8,1.5
			c-1.4,0.9-2.8,1.3-4.4,1.3c-2.1,0-3.7-0.7-4.8-2c-1-1.2-1.5-2.8-1.5-4.8c0-2.4,0.7-4.3,2-5.5c1-0.9,2.2-1.4,3.8-1.4
			c2.3,0,3.9,1,4.7,2.9c0.4,1.1,0.7,2.6,0.7,4.5H54.2z M61.2,184.2c0-1-0.2-1.8-0.5-2.4c-0.6-1.2-1.5-1.8-2.9-1.8
			c-1.3,0-2.3,0.6-2.9,1.7c-0.4,0.7-0.6,1.5-0.6,2.5H61.2z"/>
		<path class="st0" d="M66.8,191.9V183c0-2.1,0-3.6-0.1-4.3h2l0.1,2.1c0.5-0.5,1-0.9,1.4-1.3c1-0.7,2.1-1.1,3.4-1.1
			c1.7,0,2.8,0.6,3.4,1.8c0.3,0.5,0.4,1.3,0.5,2.3c0,0.6,0.1,1.2,0.1,1.7v7.6h-2v-7.7c0-1.3-0.1-2.2-0.3-2.8
			c-0.3-0.9-1.1-1.4-2.3-1.4c-1.4,0-2.8,0.8-4.2,2.5v9.4H66.8z"/>
		<path class="st0" d="M82.6,180.3h-2.1v-1.6h2.1v-2.9l2-0.4v3.3h3.1v1.6h-3.1v7.2c0,1.1,0.1,1.8,0.3,2.2c0.3,0.6,0.8,0.8,1.5,0.8
			c0.4,0,0.9-0.1,1.5-0.4l0.2,1.6c-0.8,0.3-1.5,0.4-2.1,0.4c-1.3,0-2.2-0.4-2.7-1.2c-0.4-0.6-0.6-1.6-0.6-3V180.3z"/>
		<path class="st0" d="M96.7,191.3l0.3-1.8c1.6,0.6,3.1,0.9,4.4,0.9c1.2,0,2.1-0.3,2.7-0.9c0.6-0.6,1-1.3,1-2.3
			c0-0.9-0.3-1.6-0.8-2.1c-0.4-0.4-1.4-1-2.9-1.6c-1.3-0.6-2.2-1-2.6-1.3c-0.9-0.5-1.5-1.2-1.8-1.9c-0.3-0.5-0.4-1.2-0.4-1.9
			c0-1.5,0.5-2.7,1.5-3.6c1-0.9,2.4-1.3,4.1-1.3c1.2,0,2.6,0.3,4.2,0.8l-0.4,1.9c-1.3-0.6-2.6-1-3.8-1c-0.9,0-1.7,0.2-2.4,0.7
			c-0.7,0.5-1,1.2-1,2c0,0.7,0.2,1.3,0.7,1.8c0.3,0.4,0.7,0.7,1.2,0.9c0.5,0.2,1,0.5,1.6,0.8c1.3,0.5,2.2,1,2.7,1.3
			c1.6,1,2.3,2.4,2.3,4.2c0,1.6-0.6,2.9-1.7,3.8c-1.1,0.9-2.5,1.3-4.3,1.3C99.9,192.1,98.4,191.9,96.7,191.3z"/>
		<path class="st0" d="M121.3,178.7v8.9c0,2.2,0,3.6,0.1,4.3h-2l-0.1-2.1c-0.5,0.5-0.9,0.9-1.4,1.2c-1,0.7-2.1,1.1-3.3,1.1
			c-1.6,0-2.8-0.6-3.4-1.8c-0.3-0.5-0.4-1.3-0.5-2.3c0-0.6-0.1-1.1-0.1-1.7v-7.6h2v7.7c0,1.3,0.1,2.3,0.3,2.8
			c0.3,0.9,1.1,1.4,2.2,1.4c1.4,0,2.8-0.8,4.1-2.5v-9.4H121.3z"/>
		<path class="st0" d="M128.7,191.9l-4.7-13.2h2.1l3.2,8.9c0.3,0.8,0.6,1.6,0.9,2.5c0.2-0.7,0.5-1.6,0.8-2.4l3.2-9h1.8l-4.7,13.2
			H128.7z"/>
		<path class="st0" d="M139.4,185.8c0.1,1.5,0.5,2.6,1,3.3c0.7,1,1.8,1.4,3.2,1.4c1.2,0,2.4-0.4,3.6-1.2l0.8,1.5
			c-1.4,0.9-2.8,1.3-4.4,1.3c-2.1,0-3.7-0.7-4.8-2c-1-1.2-1.5-2.8-1.5-4.8c0-2.4,0.7-4.3,2-5.5c1-0.9,2.2-1.4,3.8-1.4
			c2.3,0,3.9,1,4.7,2.9c0.4,1.1,0.7,2.6,0.7,4.5H139.4z M146.4,184.2c0-1-0.2-1.8-0.5-2.4c-0.6-1.2-1.5-1.8-2.9-1.8
			c-1.3,0-2.3,0.6-2.9,1.7c-0.4,0.7-0.6,1.5-0.6,2.5H146.4z"/>
		<path class="st0" d="M154.9,192.1l-5.2-13.4h2.1l3,7.9c0.4,0.9,0.7,1.9,1.1,3c0.3-1,0.7-2.1,1.1-3.1l2.9-7.8h1.9l-5.4,14.3
			c-0.6,1.5-1.2,2.6-1.8,3.4c-0.7,0.9-1.7,1.3-3,1.3c-0.6,0-1.3-0.1-1.9-0.3l0.3-1.6c0.5,0.2,1,0.3,1.5,0.3c0.7,0,1.3-0.2,1.7-0.7
			C153.9,194.9,154.4,193.7,154.9,192.1z"/>
	</g>
</g>
</svg>
