<?xml version="1.0" encoding="utf-8"?>
<!-- Generator: Adobe Illustrator 22.0.0, SVG Export Plug-In . SVG Version: 6.00 Build 0)  -->
<svg version="1.1" id="图层_1" xmlns="http://www.w3.org/2000/svg" xmlns:xlink="http://www.w3.org/1999/xlink" x="0px" y="0px"
	 viewBox="0 0 245 222.3" style="enable-background:new 0 0 245 222.3;" xml:space="preserve">
<style type="text/css">
	.st0{fill:#FFFFFF;}
</style>
<g>
	<g>
		<g>
			<path class="st0" d="M202.5,110.5h-47.1c-8.9,0.2-16.3-6.8-16.6-15.7V40.1c0.3-8.9,7.7-15.9,16.6-15.7h47.1
				c8.9-0.2,16.3,6.8,16.6,15.7v54.6c-0.1,4.3-2,8.4-5.2,11.4c-3.2,3-7.4,4.5-11.7,4.4L202.5,110.5z M155.5,30.4
				c-2.7-0.2-5.4,0.8-7.5,2.6c-2,1.8-3.3,4.4-3.4,7.1v54.6c0.3,5.7,5.1,10,10.8,9.8h47.2c2.7,0.2,5.4-0.8,7.5-2.6
				c2-1.8,3.3-4.4,3.4-7.1V40.1c-0.3-5.7-5.1-10-10.8-9.8H155.5z M155.5,30.4"/>
		</g>
		<path class="st0" d="M152.6,64.4h5.7v5.7h-5.7V64.4z M167.2,64.4h36.4v5.7h-36.5L167.2,64.4z M152.6,50.7h51v5.7h-51V50.7z
			 M167.1,78.2h36.5v5.7h-36.5V78.2z M152.5,78.2h5.7v5.7h-5.7V78.2z M152.5,78.2"/>
	</g>
	<g>
		<path class="st0" d="M25.8,145.2l2-2.7c0.5,0.4,1.6,1.1,3.3,2.1c0.6,0.4,1.6,1.2,2.9,2.4l-2.3,3.1
			C30.1,148.2,28.1,146.6,25.8,145.2z M26.8,163.9c2.3-3.2,4.1-7.3,5.5-12.5l3.2,1.9l-0.3,1c-1.7,4.6-3.4,8.5-5.1,11.5L26.8,163.9z
			 M28.1,136.2l2.1-2.5c2.3,1.3,4.4,2.8,6.2,4.4l-2.6,2.7c-0.2-0.2-0.3-0.3-0.4-0.4C32.2,139.1,30.4,137.7,28.1,136.2z M36.4,161.6
			V150h20v11.6h2.7v2.9H33.8v-2.9H36.4z M55,134.7v13.4H38v-13.4H55z M39.5,161.6h2.6v-8.7h-2.6V161.6z M41.4,140.1h10.2v-2.5H41.4
			V140.1z M41.4,145.2h10.2v-2.4H41.4V145.2z M45,161.6h2.6v-8.7H45V161.6z M50.4,161.6h2.8v-8.7h-2.8V161.6z"/>
		<path class="st0" d="M70.2,164.7v1.3h-3.1v-7.5l-0.8,0.2c-1.8,0.4-3.2,0.7-4,0.9l-1.5-2.8c3-0.4,5.2-0.8,6.7-1.2
			c1.1-0.3,2.4-0.9,4-1.6H63v-2.1H76v-0.9c-1.3,0.1-3.2,0.2-5.7,0.2c-0.2,0-1,0.1-2.4,0.2l-1.4-2.7l1.1,0.1l1.7,0.1
			c2,0.1,3.3,0.1,4,0.1c3.5,0,6.9-0.2,10.3-0.5c0.8-0.1,1.7-0.2,3-0.5l1.9,2.5c-3.6,0.4-6.7,0.6-9.3,0.6v0.9h13.4v2.1H83
			c0.3,0.1,0.6,0.3,0.9,0.5c2.1,1,5,1.8,8.6,2.4c0.8,0.1,1.4,0.2,1.8,0.3l-1.4,2.7c-1.9-0.4-3.6-0.8-5.1-1.3v7.5h-3.1v-1.3H70.2z
			 M61.9,149.3c0.7-0.8,1.2-1.3,1.4-1.7c0.3-0.5,0.5-1.1,0.7-1.9c0.2-0.8,0.3-1.6,0.3-2.2v-2.8h13.2v6H66.5c-0.4,1.6-1.2,3-2.3,4.3
			L61.9,149.3z M69.8,134.8v-1.9h2.6v1.9h6.2v2.1h-6.2v1H77v2.1H64.4v-2.1h5.3v-1h-6.6v-2.1H69.8z M66.8,144.5h2.7v-1.7h-2.7V144.5z
			 M70.2,159.6h14.7v-1.1H70.2V159.6z M70.2,162.6h14.7v-1H70.2V162.6z M72.3,144.5h2.4v-1.7h-2.4V144.5z M72.3,156.3H76v-2.3
			c-0.3,0.2-0.8,0.5-1.4,0.9C74,155.4,73.2,155.9,72.3,156.3z M79.3,140.8l-1.7-1.5c0.3-0.2,0.5-0.3,0.6-0.4c0.5-0.3,0.8-0.5,1-0.8
			c0.4-0.5,0.6-1.3,0.6-2.6v-1.4h9.4v2.5c0,0.5,0.1,0.8,0.2,1c0.1,0.2,0.6,0.3,1.4,0.3h2.7l-0.8,2.5h-3.2c-1.2,0-1.9-0.2-2.3-0.5
			c-0.4-0.4-0.7-1-0.7-1.8v-1.6h-3.8c0,1-0.2,1.8-0.6,2.5c-0.3,0.5-0.9,1.2-1.8,1.8H92c-1.3,1.9-2.4,3.3-3.6,4.4
			c-0.1,0-0.1,0.1-0.2,0.2c0.1,0,0.2,0.1,0.4,0.1l2,0.9c0.6,0.3,1.4,0.6,2.2,1l-1.4,2.4c-1.1-0.6-2.4-1.3-4-2
			c-0.7-0.3-1.1-0.5-1.3-0.6c-0.1,0-0.2-0.1-0.3-0.2c-0.1,0-0.2,0.1-0.3,0.1c-1,0.5-3.5,1.1-7.4,1.6l-0.6-2.6c0.4,0,0.8,0,1.3,0
			c1.4,0,2.7-0.2,3.9-0.5c-0.1,0-0.1,0-0.2-0.1c-0.4-0.2-1.4-0.5-3-1.1l0.8-1.6H79v-2.1H79.3z M79,156.3h3.3c-0.9-0.5-2-1.2-3.3-2.2
			V156.3z M82.3,142.8c1.1,0.4,2.2,0.9,3.3,1.4c0.1-0.1,0.2-0.1,0.2-0.2c0.2-0.1,0.6-0.5,1.1-1.2H82.3z"/>
		<path class="st0" d="M104.2,148.6c0.1,0,0.1-0.1,0.2-0.1c1.3-0.7,2.4-1.3,3.1-1.8l0.7,3.4c-0.9,0.6-2.2,1.3-3.8,2
			c-0.1,0-0.2,0.1-0.3,0.1v10.4c0,1-0.5,1.7-1.4,2.2c-0.9,0.4-2.5,0.8-4.7,1.1l-1.3-3.9h3.2c0.3,0,0.5-0.1,0.6-0.2
			c0.1-0.1,0.2-0.3,0.2-0.7v-7.3l-0.1,0.1c-0.5,0.3-0.8,0.4-0.9,0.4c-1.2,0.5-2,0.9-2.5,1.1l-1.5-3.4c0.3-0.1,0.9-0.3,1.8-0.6
			l2.9-1.1c0.1,0,0.3-0.1,0.4-0.2v-7.6h-4.3v-3.3h4.3V133h3.3v6.2h3.9v3.3h-3.9V148.6z M116.5,152h-8v-3h20.1v3h-8.7v3.1h7.4v2.9
			h-7.4v3.6c2,0.3,4.2,0.4,6.7,0.4c0.8,0,1.8,0,2.9-0.1l-1.1,3.4h-0.7h-1.3c-3,0-5.7-0.2-8-0.6c-2.1-0.4-3.9-1.2-5.4-2.6
			c-0.4-0.4-0.9-1-1.5-1.9c-0.1,0.2-0.2,0.5-0.3,0.6c-0.5,1.1-1.5,2.6-3,4.5l-0.4,0.6l-3-2.2c2.9-2.4,4.8-6.1,5.8-10.9l3.6,1
			c-0.1,0.4-0.2,0.7-0.3,0.9c-0.2,0.6-0.4,1-0.4,1.2c-0.1,0.2-0.1,0.4-0.2,0.6c0.5,1.1,1,1.9,1.4,2.4c0.6,0.8,1.3,1.3,2.1,1.8V152z
			 M110.6,134.7h15.6v12.9h-15.6V134.7z M114,139.7h8.7v-2.2H114V139.7z M114,144.7h8.7v-2.3H114V144.7z"/>
		<path class="st0" d="M146.2,147.2h-14v-3.3h30.6v3.3h-13.2v14.4c0,1.1-0.3,1.9-0.9,2.4c-0.7,0.6-2.8,1-6.3,1.1l-0.7-3.6h3.5
			c0.4,0,0.7-0.1,0.8-0.2c0.1-0.1,0.2-0.4,0.2-0.7V147.2z M132.4,160c1.8-1.9,3.3-3.5,4.3-4.9c1-1.3,2-3,3-5.1l3,1.8
			c-1.6,2.7-2.8,4.7-3.7,6c-0.9,1.2-2.2,2.7-3.8,4.5L132.4,160z M136.4,138.9v-3.3h22.9v3.3H136.4z M153.6,152l2.8-1.8
			c2.8,3.5,5,6.8,6.5,9.8l-2.9,1.7c-1.2-2.2-2.2-3.9-2.9-5C156.3,155.5,155.1,153.9,153.6,152z"/>
	</g>
	<g>
		<path class="st0" d="M27.4,192.1v-18h2.1v16.3h7.8v1.7H27.4z"/>
		<path class="st0" d="M44.8,178.6c1.9,0,3.4,0.7,4.5,2.2c1,1.2,1.5,2.8,1.5,4.7c0,2-0.6,3.7-1.7,4.9c-1.1,1.3-2.6,1.9-4.4,1.9
			c-1.9,0-3.5-0.7-4.6-2.2c-1-1.2-1.5-2.8-1.5-4.7c0-2,0.6-3.7,1.7-4.9C41.5,179.3,43,178.6,44.8,178.6z M44.7,180.2
			c-0.8,0-1.5,0.3-2.2,0.7c-1.2,0.9-1.8,2.4-1.8,4.5c0,1.4,0.3,2.6,0.9,3.6c0.7,1.1,1.8,1.7,3.1,1.7c1.4,0,2.5-0.6,3.2-1.9
			c0.5-0.9,0.8-2,0.8-3.3c0-1.4-0.3-2.6-0.9-3.6C47.1,180.8,46,180.2,44.7,180.2z"/>
		<path class="st0" d="M62.6,178.9h1.9c-0.1,2-0.1,3.8-0.1,5.2v6.6c0,1.5-0.1,2.6-0.3,3.4c-0.3,1.2-1,2.2-2.1,2.9
			c-0.9,0.6-2,0.9-3.3,0.9c-1.8,0-3.4-0.5-5-1.4l0.9-1.5c1.3,0.9,2.7,1.4,4.1,1.4c1.5,0,2.6-0.6,3.2-1.9c0.3-0.7,0.5-1.9,0.5-3.6
			v-1.1c-1.2,1.4-2.6,2.1-4,2.1c-1.5,0-2.7-0.6-3.7-1.8c-1-1.2-1.4-2.7-1.4-4.7c0-2.1,0.5-3.9,1.6-5.1c0.9-1.1,2.1-1.6,3.6-1.6
			c1.7,0,3.1,0.8,4.1,2.3L62.6,178.9z M62.5,182.8c-0.4-0.7-0.8-1.2-1.2-1.6c-0.7-0.6-1.5-1-2.4-1c-1.2,0-2.1,0.5-2.7,1.6
			c-0.5,0.9-0.8,2.1-0.8,3.5c0,1.3,0.3,2.5,0.8,3.4c0.6,1,1.5,1.5,2.7,1.5c1.4,0,2.6-0.8,3.5-2.3V182.8z"/>
		<path class="st0" d="M70,172.8c0.5,0,0.9,0.2,1.1,0.5c0.2,0.2,0.3,0.5,0.3,0.9c0,0.3-0.1,0.6-0.3,0.9c-0.3,0.4-0.6,0.5-1.1,0.5
			c-0.5,0-0.9-0.2-1.1-0.5c-0.2-0.2-0.3-0.5-0.3-0.9c0-0.3,0.1-0.6,0.3-0.9C69.1,173,69.5,172.8,70,172.8z M69,192.1v-13.2h2v13.2
			H69z"/>
		<path class="st0" d="M74.5,191.4l0.6-1.6c1.2,0.6,2.3,0.9,3.2,0.9c0.7,0,1.2-0.2,1.7-0.5c0.5-0.4,0.8-0.9,0.8-1.7
			c0-0.6-0.2-1-0.5-1.3c-0.3-0.3-1-0.6-2.1-1c-0.9-0.3-1.5-0.6-1.9-0.9c-1.2-0.7-1.8-1.7-1.8-3c0-1.2,0.5-2.1,1.4-2.8
			c0.8-0.6,1.8-0.9,3-0.9c1.2,0,2.5,0.3,3.8,1l-0.6,1.6c-0.9-0.6-1.9-1-3-1c-0.7,0-1.2,0.1-1.7,0.4c-0.5,0.3-0.8,0.8-0.8,1.5
			c0,0.6,0.3,1.1,0.7,1.4c0.4,0.3,1,0.6,1.9,0.9c1,0.4,1.7,0.8,2.1,1c1,0.7,1.5,1.6,1.5,2.8c0,1.3-0.5,2.3-1.4,3
			c-0.8,0.6-1.9,1-3.2,1C77,192.3,75.8,192,74.5,191.4z"/>
		<path class="st0" d="M87.2,180.5h-2.1v-1.6h2.1V176l2-0.4v3.3h3.1v1.6h-3.1v7.2c0,1.1,0.1,1.8,0.3,2.2c0.3,0.6,0.8,0.8,1.5,0.8
			c0.4,0,0.9-0.1,1.5-0.4l0.2,1.6c-0.8,0.3-1.5,0.4-2.1,0.4c-1.3,0-2.2-0.4-2.7-1.2c-0.4-0.6-0.6-1.6-0.6-3V180.5z"/>
		<path class="st0" d="M96.4,172.8c0.5,0,0.9,0.2,1.1,0.5c0.2,0.2,0.3,0.5,0.3,0.9c0,0.3-0.1,0.6-0.3,0.9c-0.3,0.4-0.6,0.5-1.1,0.5
			c-0.5,0-0.9-0.2-1.1-0.5c-0.2-0.2-0.3-0.5-0.3-0.9c0-0.3,0.1-0.6,0.3-0.9C95.5,173,95.9,172.8,96.4,172.8z M95.4,192.1v-13.2h2
			v13.2H95.4z"/>
		<path class="st0" d="M110.3,189.6l0.8,1.5c-1.2,0.8-2.5,1.2-4,1.2c-1.9,0-3.4-0.6-4.5-1.7c-1.1-1.2-1.7-2.9-1.7-5
			c0-2.3,0.6-4.1,1.8-5.3c1-1.1,2.4-1.6,4.2-1.6c1.4,0,2.7,0.4,3.9,1.1l-0.7,1.6c-1.1-0.7-2.1-1-3.2-1c-1.3,0-2.3,0.5-2.9,1.4
			c-0.6,0.9-1,2.2-1,3.7c0,1.7,0.4,3,1.1,4c0.7,0.9,1.7,1.4,2.9,1.4C108.2,190.7,109.3,190.3,110.3,189.6z"/>
		<path class="st0" d="M120.5,192.1v-18h2.1v18H120.5z"/>
		<path class="st0" d="M127.2,192.1v-8.9c0-2.1,0-3.6-0.1-4.3h2l0.1,2.1c0.5-0.5,1-0.9,1.4-1.3c1-0.7,2.1-1.1,3.4-1.1
			c1.7,0,2.8,0.6,3.4,1.8c0.3,0.5,0.4,1.3,0.5,2.3c0,0.6,0.1,1.2,0.1,1.7v7.6h-2v-7.7c0-1.3-0.1-2.2-0.3-2.8
			c-0.3-0.9-1.1-1.4-2.3-1.4c-1.4,0-2.8,0.8-4.2,2.5v9.4H127.2z"/>
		<path class="st0" d="M143,192.1v-11.6h-2.1v-1.6h2.1v-1.3c0-1.5,0.2-2.7,0.6-3.4c0.6-1,1.6-1.4,3-1.4c0.6,0,1.2,0.1,1.9,0.3
			l-0.2,1.7c-0.5-0.3-1-0.4-1.5-0.4c-0.8,0-1.4,0.4-1.6,1.2c-0.1,0.5-0.2,1.2-0.2,2.2v1.1h3.1v1.6H145v11.6H143z"/>
		<path class="st0" d="M155.6,178.6c1.9,0,3.4,0.7,4.5,2.2c1,1.2,1.5,2.8,1.5,4.7c0,2-0.6,3.7-1.7,4.9c-1.1,1.3-2.6,1.9-4.4,1.9
			c-1.9,0-3.5-0.7-4.6-2.2c-1-1.2-1.5-2.8-1.5-4.7c0-2,0.6-3.7,1.7-4.9C152.3,179.3,153.8,178.6,155.6,178.6z M155.5,180.2
			c-0.8,0-1.5,0.3-2.2,0.7c-1.2,0.9-1.8,2.4-1.8,4.5c0,1.4,0.3,2.6,0.9,3.6c0.7,1.1,1.8,1.7,3.1,1.7c1.4,0,2.5-0.6,3.2-1.9
			c0.5-0.9,0.8-2,0.8-3.3c0-1.4-0.3-2.6-0.9-3.6C157.9,180.8,156.9,180.2,155.5,180.2z"/>
		<path class="st0" d="M166.7,189.2c0.4,0,0.8,0.1,1.1,0.4c0.3,0.3,0.5,0.7,0.5,1.1c0,0.4-0.2,0.8-0.5,1.1c-0.3,0.3-0.6,0.4-1.1,0.4
			s-0.8-0.1-1.1-0.4c-0.3-0.3-0.5-0.7-0.5-1.1c0-0.4,0.2-0.8,0.5-1.1C165.9,189.4,166.2,189.2,166.7,189.2z"/>
	</g>
</g>
</svg>
