<?xml version="1.0" encoding="utf-8"?>
<!-- Generator: Adobe Illustrator 22.0.0, SVG Export Plug-In . SVG Version: 6.00 Build 0)  -->
<svg version="1.1" id="图层_1" xmlns="http://www.w3.org/2000/svg" xmlns:xlink="http://www.w3.org/1999/xlink" x="0px" y="0px"
	 viewBox="0 0 245 222.3" style="enable-background:new 0 0 245 222.3;" xml:space="preserve">
<style type="text/css">
	.st0{fill:#FFFFFF;}
	.st1{fill:none;stroke:#FFFFFF;stroke-width:5;stroke-miterlimit:10;}
</style>
<g>
	<g>
		<polygon class="st0" points="145.3,53.9 177.4,53.9 177.4,59.7 145.3,59.7 		"/>
		<rect x="145.3" y="40.2" class="st0" width="32.1" height="5.7"/>
		<rect x="145.3" y="67.7" class="st0" width="32.1" height="5.7"/>
		<path class="st1" d="M188.1,102.8h-44.7V26.5H177c6.1,0,11.1,5,11.1,11.1V102.8z"/>
		<polygon class="st0" points="188.9,71 210.1,71 210.1,75.2 188.9,75.2 		"/>
		<polygon class="st0" points="188.9,79.5 210.1,79.5 210.1,83.7 188.9,83.7 		"/>
		<polygon class="st0" points="188.9,62.1 210.1,62.1 210.1,66.3 188.9,66.3 		"/>
		<path class="st1" d="M220.7,102.9h-32V51H213c4.3,0,7.7,3.5,7.7,7.7V102.9z"/>
	</g>
	<g>
		<path class="st0" d="M24.3,145.5l1.9-2.9c0.2,0.1,0.4,0.2,0.5,0.3c2.2,1.2,4,2.5,5.6,3.9l-2,3.1c-1.8-1.5-3.1-2.5-3.9-3
			c-0.3-0.2-0.8-0.5-1.5-0.9C24.7,145.8,24.5,145.6,24.3,145.5z M24.9,164.6c2.1-3.4,3.8-7.5,5.1-12.4l3.3,1.9L33,155
			c-1.5,4.2-3.1,8-4.8,11.2L24.9,164.6z M26.2,136.6l2.1-2.6l0.7,0.4c1.9,1,3.5,2.2,4.9,3.4l-2.3,2.7
			C29.7,138.9,27.9,137.6,26.2,136.6z M34.1,135.6h22.6v3h-7.1v4.2h6.2v23.7h-3.4v-1.8H38.2v1.8h-3.3v-23.7h6.4v-4.2h-7.2V135.6z
			 M38.2,156.1h14.2v-2.4h-2.5c-1.3,0-2.1-0.2-2.5-0.5c-0.5-0.4-0.8-1.3-0.8-2.5v-5h-2.4c-0.3,2.4-0.7,4.2-1.3,5.6
			c-0.4,1-1.3,2.2-2.5,3.7l-2.2-1.3V156.1z M38.2,152.4c0.9-0.8,1.5-1.7,2-2.6c0.4-0.9,0.8-2.2,1.1-4.1h-3.1V152.4z M38.2,161.8
			h14.2v-2.8H38.2V161.8z M44.3,142.8h2.3v-4.2h-2.3V142.8z M52.4,150.9v-5.2h-2.8v4.3c0,0.4,0,0.7,0.1,0.8c0.1,0.1,0.4,0.2,0.8,0.2
			H52.4z"/>
		<path class="st0" d="M77.8,138.4h13.1v3.1H66.4v9.3c0,4-0.5,7.4-1.6,10.5c-0.6,1.7-1.5,3.5-2.7,5.2l-3-2c0.2-0.3,0.5-0.9,1.1-1.7
			c2-3.1,2.9-7,2.9-11.9v-12.4h12.6c-0.2-0.7-0.4-1.3-0.7-1.8c-0.3-0.5-0.6-1.1-1-1.6l2.9-1.3c1,1.3,1.7,2.7,2.2,4.2L77.8,138.4z
			 M71.1,164.4v2.5h-3.2v-14.2h7.8v-10.6h3.4v3.5h10.5v3H79.1v4.1h9.2v14.2h-3.3v-2.5H71.1z M71.1,161.5h13.8v-5.7H71.1V161.5z"/>
		<path class="st0" d="M102.6,141.7v25.2h-3.4v-18.5c-0.7,1.2-1.7,2.7-3,4.4l-2.6-2.4c1.8-2.3,3.4-4.8,4.5-7.5
			c1.3-2.8,2.3-5.9,3.2-9.2l3.8,0.9C104.3,137,103.5,139.3,102.6,141.7z M113.7,139.1c-0.3-1.4-0.8-2.9-1.5-4.4l3.5-1
			c0.7,1.5,1.2,3.2,1.6,5l-1.1,0.3h10.4v3.1h-22.4v-3.1H113.7z M106.3,144.2h18.1v2.9h-18.1V144.2z M106.3,148.9h18.1v3h-18.1V148.9
			z M106.3,166.5v-12.5h18.1v12.5h-3.5v-2.1h-11.2v2.1H106.3z M109.7,161.5h11.2V157h-11.2V161.5z"/>
		<path class="st0" d="M129.1,164.1c0.9-1.4,1.5-2.7,1.9-3.9c0.4-0.9,0.8-2.3,1.2-4l3.4,1.1c-0.1,0.4-0.3,1-0.6,2
			c-0.6,2.1-1.5,4.2-2.8,6.4L129.1,164.1z M145.7,154.7h-11.4v-17.4h6c0.4-1.2,0.8-2.4,1.1-3.6l3.6,0.9c-0.4,1-0.7,1.9-1,2.8h12.9
			v17.4h-10.8c0.9,1.3,1.5,2.3,1.8,3.1c0.2,0.4,0.4,1,0.7,1.9l-3.3,1.7c-0.5-1.6-1.3-3.3-2.5-5L145.7,154.7z M140.3,155.9v5.8
			c0,0.6,0.3,0.9,1,0.9h8.5c0.6,0,1-0.1,1.2-0.4c0.5-0.5,0.8-1.7,1-3.5l3.6,1.8c-0.3,1-0.6,1.8-0.9,2.6c-0.5,1.1-1.1,1.9-1.9,2.3
			c-0.6,0.3-1.4,0.5-2.3,0.5h-9.9c-2.4,0-3.7-1.2-3.7-3.5v-6.4H140.3z M137.7,142.2h15.6v-2.1h-15.6V142.2z M137.7,147h15.6v-2.1
			h-15.6V147z M137.7,151.8h15.6v-2.2h-15.6V151.8z M154.6,157.9l2.7-2c1.6,1.8,3.2,4.2,4.9,7.1l-2.9,1.9l-0.5-0.8
			C157.6,161.9,156.2,159.8,154.6,157.9z"/>
	</g>
	<g>
		<path class="st0" d="M25.4,195.6v-18h2.1v7.9h8.7v-7.9h2.1v18h-2.1v-8.4h-8.7v8.4H25.4z"/>
		<path class="st0" d="M47.9,182.1c1.9,0,3.4,0.7,4.5,2.2c1,1.2,1.5,2.8,1.5,4.7c0,2-0.6,3.7-1.7,4.9c-1.1,1.3-2.6,1.9-4.4,1.9
			c-1.9,0-3.5-0.7-4.6-2.2c-1-1.2-1.5-2.8-1.5-4.7c0-2,0.6-3.7,1.7-4.9C44.6,182.8,46.1,182.1,47.9,182.1z M47.8,183.7
			c-0.8,0-1.5,0.2-2.2,0.7c-1.2,0.9-1.8,2.4-1.8,4.5c0,1.4,0.3,2.6,0.9,3.6c0.7,1.1,1.8,1.7,3.1,1.7c1.4,0,2.5-0.6,3.2-1.9
			c0.5-0.9,0.8-2,0.8-3.3c0-1.4-0.3-2.6-0.9-3.6C50.2,184.3,49.2,183.7,47.8,183.7z"/>
		<path class="st0" d="M57.7,184h-2.1v-1.6h2.1v-2.9l2-0.4v3.3h3.1v1.6h-3.1v7.2c0,1.1,0.1,1.8,0.3,2.2c0.3,0.5,0.8,0.8,1.5,0.8
			c0.4,0,0.9-0.1,1.5-0.4l0.2,1.6c-0.8,0.3-1.5,0.4-2.1,0.4c-1.3,0-2.2-0.4-2.7-1.2c-0.4-0.6-0.6-1.6-0.6-3V184z"/>
		<path class="st0" d="M66.7,189.5c0.1,1.5,0.5,2.6,1,3.3c0.7,1,1.8,1.4,3.2,1.4c1.2,0,2.4-0.4,3.6-1.2l0.8,1.5
			c-1.4,0.9-2.8,1.3-4.4,1.3c-2.1,0-3.7-0.7-4.8-2c-1-1.2-1.5-2.8-1.5-4.8c0-2.4,0.7-4.3,2-5.5c1-0.9,2.2-1.4,3.8-1.4
			c2.3,0,3.9,1,4.7,2.9c0.4,1.1,0.7,2.6,0.7,4.5H66.7z M73.7,187.9c0-1-0.2-1.8-0.5-2.4c-0.6-1.2-1.5-1.8-2.9-1.8
			c-1.3,0-2.3,0.6-2.9,1.7c-0.4,0.7-0.6,1.5-0.6,2.5H73.7z"/>
		<path class="st0" d="M79.3,195.6v-19h2v19H79.3z"/>
		<path class="st0" d="M92.3,195.6v-18h2.1v18H92.3z"/>
		<path class="st0" d="M99,195.6v-8.9c0-2.2,0-3.6-0.1-4.3h2l0.1,2.1c0.5-0.5,1-0.9,1.4-1.3c1-0.7,2.1-1.1,3.4-1.1
			c1.7,0,2.8,0.6,3.4,1.8c0.3,0.5,0.4,1.3,0.5,2.3c0,0.6,0.1,1.2,0.1,1.7v7.6h-2v-7.7c0-1.3-0.1-2.2-0.3-2.8
			c-0.3-0.9-1.1-1.4-2.3-1.4c-1.4,0-2.8,0.8-4.2,2.5v9.4H99z"/>
		<path class="st0" d="M114.8,195.6V184h-2.1v-1.6h2.1v-1.3c0-1.5,0.2-2.7,0.6-3.4c0.6-1,1.6-1.4,3-1.4c0.6,0,1.2,0.1,1.9,0.3
			l-0.2,1.7c-0.5-0.3-1-0.4-1.5-0.4c-0.8,0-1.4,0.4-1.6,1.2c-0.1,0.5-0.2,1.2-0.2,2.2v1.1h3.1v1.6h-3.1v11.6H114.8z"/>
		<path class="st0" d="M127.5,182.1c1.9,0,3.4,0.7,4.5,2.2c1,1.2,1.5,2.8,1.5,4.7c0,2-0.6,3.7-1.7,4.9c-1.1,1.3-2.6,1.9-4.4,1.9
			c-1.9,0-3.5-0.7-4.6-2.2c-1-1.2-1.5-2.8-1.5-4.7c0-2,0.6-3.7,1.7-4.9C124.2,182.8,125.7,182.1,127.5,182.1z M127.4,183.7
			c-0.8,0-1.5,0.2-2.2,0.7c-1.2,0.9-1.8,2.4-1.8,4.5c0,1.4,0.3,2.6,0.9,3.6c0.7,1.1,1.8,1.7,3.1,1.7c1.4,0,2.5-0.6,3.2-1.9
			c0.5-0.9,0.8-2,0.8-3.3c0-1.4-0.3-2.6-0.9-3.6C129.8,184.3,128.7,183.7,127.4,183.7z"/>
		<path class="st0" d="M138.5,192.7c0.4,0,0.8,0.1,1.1,0.4c0.3,0.3,0.5,0.7,0.5,1.1c0,0.4-0.2,0.8-0.5,1.1c-0.3,0.3-0.6,0.4-1.1,0.4
			s-0.8-0.1-1.1-0.4c-0.3-0.3-0.5-0.7-0.5-1.1c0-0.4,0.2-0.8,0.5-1.1C137.7,192.9,138.1,192.7,138.5,192.7z"/>
	</g>
</g>
</svg>
