<?xml version="1.0" encoding="utf-8"?>
<!-- Generator: Adobe Illustrator 22.0.0, SVG Export Plug-In . SVG Version: 6.00 Build 0)  -->
<svg version="1.1" id="图层_1" xmlns="http://www.w3.org/2000/svg" xmlns:xlink="http://www.w3.org/1999/xlink" x="0px" y="0px"
	 viewBox="0 0 26.4 28.8" style="enable-background:new 0 0 26.4 28.8;" xml:space="preserve">
<style type="text/css">
	.st0{fill:#00547B;}
	.st1{fill:#DCDCDC;}
</style>
<g>
	<path class="st0" d="M22.6,6.6c0-0.2,0.1-0.4,0.1-0.6c0-2.2-2-4-4.4-4c-0.9,0-1.7,0.2-2.4,0.6C14.7,1.1,12.9,0,11,0
		c-3.1,0-5.7,2.7-6,6.1C2.1,6.7,0,9.1,0,11.8C0,15.1,2.3,18,6,18c1.4,0,14,0,14.9,0c3.7,0,5.5-2.7,5.5-6C26.4,9.7,24.8,7.6,22.6,6.6
		z"/>
	<path class="st1" d="M20,8c0-0.1,0-0.3,0-0.4c0-1.6-1.4-2.9-3.2-2.9c-0.6,0-1.2,0.2-1.7,0.5c-0.8-1.2-2.1-2-3.5-2
		c-2.3,0-4.1,1.9-4.3,4.4c-2.1,0.5-3.6,2.2-3.6,4.2c0,2.4,1.7,4.5,4.3,4.5c1,0,10.1,0,10.7,0c2.6,0,4-1.9,4-4.3
		C22.7,10.2,21.6,8.7,20,8z"/>
	<path class="st0" d="M5.4,18.5c-0.2,0-0.3,0.2-0.4,0.3L3.2,24c-0.1,0.2,0,0.3,0.2,0.3h0.7c0.2,0,0.4-0.2,0.4-0.3l1.1-5.2
		C5.6,18.6,5.5,18.5,5.4,18.5z"/>
	<path class="st0" d="M8.1,22.9c-0.2,0-0.3,0.2-0.4,0.3L6,28.5c-0.1,0.2,0,0.3,0.2,0.3h0.7c0.2,0,0.4-0.2,0.4-0.3l1.1-5.2
		C8.3,23.1,8.2,22.9,8.1,22.9z"/>
	<path class="st0" d="M13,19.4c-0.2,0-0.3,0.2-0.4,0.3l-1.7,5.2c-0.1,0.2,0,0.3,0.2,0.3h0.7c0.2,0,0.4-0.2,0.4-0.3l1.1-5.2
		C13.3,19.5,13.2,19.4,13,19.4z"/>
	<path class="st0" d="M16.4,22.2c-0.2,0-0.3,0.2-0.4,0.3l-1.7,5.2c-0.1,0.2,0,0.3,0.2,0.3h0.7c0.2,0,0.4-0.2,0.4-0.3l1.1-5.2
		C16.7,22.4,16.5,22.2,16.4,22.2z"/>
	<path class="st0" d="M20.8,19.6c-0.2,0-0.3,0.2-0.4,0.3l-1.7,5.2c-0.1,0.2,0,0.3,0.2,0.3h0.7c0.2,0,0.4-0.2,0.4-0.3l1.1-5.2
		C21,19.7,20.9,19.6,20.8,19.6z"/>
</g>
</svg>
