<?xml version="1.0" encoding="utf-8"?>
<!-- Generator: Adobe Illustrator 22.0.0, SVG Export Plug-In . SVG Version: 6.00 Build 0)  -->
<svg version="1.1" id="图层_1" xmlns="http://www.w3.org/2000/svg" xmlns:xlink="http://www.w3.org/1999/xlink" x="0px" y="0px"
	 viewBox="0 0 813 275.3" style="enable-background:new 0 0 813 275.3;" xml:space="preserve">
<style type="text/css">
	.st0{fill:url(#SVGID_1_);}
	.st1{fill:#FFFFFF;}
</style>
<g>
	
		<linearGradient id="SVGID_1_" gradientUnits="userSpaceOnUse" x1="-14.6612" y1="434.7195" x2="-10.0354" y2="434.7195" gradientTransform="matrix(175.748 0 0 -175.748 2576.6689 76538.7188)">
		<stop  offset="0" style="stop-color:#43BBBF"/>
		<stop  offset="9.350502e-02" style="stop-color:#30B4B8"/>
		<stop  offset="0.2502" style="stop-color:#16ABAF"/>
		<stop  offset="0.3906" style="stop-color:#06A6A9"/>
		<stop  offset="0.5" style="stop-color:#00A4A7"/>
		<stop  offset="0.6324" style="stop-color:#00A3AD"/>
		<stop  offset="0.8112" style="stop-color:#00A2BE"/>
		<stop  offset="1" style="stop-color:#00A0D8"/>
	</linearGradient>
	<rect class="st0" width="813" height="275.3"/>
	<g>
		<path class="st1" d="M40.8,59.5h12.5v9.4H39v-7.6c-0.3,0.3-0.6,0.5-0.7,0.7c-0.3,0.3-0.9,0.7-1.7,1.3L33,59.8
			c2.1-1.5,3.8-2.9,5.1-4.4c1.1-1.3,2.3-2.9,3.4-5l2,0.9v-1.3h-8.7v-4.5h8.7v-4h4.8v4h4.4v-4h4.8v4H65v4.5h-7.6v3.4h-4.8v-3.4h-4.4
			v2.7h-2.1l-0.8,1.2h17.6v2.4l0.6-1.1c1.1-2,1.9-3.3,2.1-4c1-2.8,2-6,2.8-9.7l5.2,1.1c-0.1,0.5-0.2,0.8-0.3,1.1
			c-0.1,0.4-0.4,1.4-0.9,3c0,0,0,0.2-0.1,0.5c-0.1,0.3-0.2,0.7-0.4,1.2h15.5v4.3h-4.6c-1.1,4-2.5,7.3-4.2,9.7c2.1,1.4,5,2.4,8.8,2.9
			l-2.5,5.3c-3.6-0.9-7-2.5-10.1-4.8c-2.8,1.8-6.4,3.3-10.6,4.4l-1.9-3.2c-0.2,1.1-0.7,1.9-1.5,2.3c-1.1,0.6-3,1.1-5.7,1.3l-1.5-5.3
			h2.6c0.5,0,0.8-0.1,0.9-0.2c0.2-0.2,0.3-0.6,0.3-1.2l0.3-6.1H42.3c-0.3,0.3-0.5,0.6-0.8,0.9C41.4,58.8,41.2,59,40.8,59.5z
			 M39,70.9c1.8,0.1,3.5,0.1,5.2,0.1h4.1h4.1h3.4c1.3,0,3.4-0.1,6.5-0.3c5.6-0.3,9.8-0.6,12.7-1c0.8-0.1,2.1-0.3,4-0.7l1.6,4.4
			l-1.1,0.1c-3.7,0.5-8.4,0.9-14,1.2L63.5,75v2.5h17.2v3.9H63.5v2.3h22.9v4.1H63.5v2.9c0,2.4-1.5,3.8-4.6,4.3
			c-1.5,0.3-3.4,0.5-5.7,0.7L52,90.3h5c0.8,0,1.1-0.4,1.1-1.3v-1.2h-24v-4.1h24v-2.3H39.4v-3.9h18.7V75c-0.9,0-2.1,0.1-3.6,0.1
			l-5.8,0.2l-6.6,0.1l-0.9,0l-1.3,0.1L39,70.9z M43.9,65.2h4.6v-2h-4.6V65.2z M62.8,58.5l-0.5,6.7c0.6-0.1,2-0.4,4.3-1
			c1-0.3,2.6-0.9,4.6-2c-0.9-1.2-1.7-2.5-2.6-4c-0.2-0.3-0.4-0.7-0.7-1.2c-0.6,1.1-1.2,2.2-1.9,3.2L62.8,58.5z M69.2,54.9l2.9-1.1
			c0.2,0.5,0.6,1.2,0.9,2c0.5,1.1,1.1,2.1,1.8,3.1c1.1-1.7,1.9-3.8,2.5-6.2h-7C69.9,53.5,69.5,54.2,69.2,54.9z"/>
		<path class="st1" d="M118.6,72.8l-5.1,3.1c-1-2.3-1.8-4-2.4-5.1c-0.3-0.5-0.7-1.2-1.2-2.1c-0.2-0.2-0.4-0.6-0.6-1.1v28.2h-5.7
			V71.9c-0.2,0.5-0.5,1.1-0.7,1.7c-0.9,2.2-2.3,5.3-4.3,9.3l-4.8-4c2-2.7,3.7-5.8,5.2-9.4c1.4-3.4,2.7-7.5,3.8-12.3h-7v-5.4h7.9
			V40.5h5.7v11.4h7.8v5.4h-7.8v6.8l2.7-1.9C114.5,65.7,116.7,69.2,118.6,72.8z M111.3,91.3c2.4-2,4.2-4.3,5.6-7.1
			c1.2-2.4,2-5.8,2.3-10.3c0.2-2.9,0.3-6.5,0.3-10.8v-20H141v44.5c0,1.1,0.4,1.7,1.1,1.7h0.6c0.7,0,1.1-0.6,1.3-1.8
			c0.3-2.1,0.4-5.1,0.4-8.8l6.2,2.1l-0.2,1.6c-0.5,4.1-1,7.1-1.5,8.9c-0.8,2.4-2.4,3.6-4.8,3.6h-4.1c-3.1,0-4.6-1.6-4.6-4.8V48.6
			h-10.2v15.3c0,7.3-0.3,12.7-0.9,16.1c-0.7,4.5-2.4,8.6-5,12.4c-0.5,0.7-1.2,1.7-2.1,2.8L111.3,91.3z"/>
		<path class="st1" d="M156.8,88.9c2.5-2.4,5.2-4.8,8.1-7.2V64.2h-6.6V59h12.2v23.8c2.2,2.5,4.1,4,5.7,4.6c1.4,0.6,3.7,0.9,6.9,1
			c2.8,0.1,5.9,0.1,9.4,0.1c4.2,0,10-0.2,17.3-0.6c0.6,0,1.6-0.1,2.7-0.1l-2,5.9h-1.6l-3.2,0h-4.1l-6.1,0c-10.6,0-17.1-0.3-19.6-1
			c-1.8-0.5-3.2-1.1-4.4-1.8c-0.6-0.4-1.7-1.3-3-2.5c-0.7-0.6-1.2-1-1.6-1c-1.2,0-3.2,2.2-5.9,6.5L156.8,88.9z M160.1,44.7l4.7-2.8
			c0.3,0.4,0.7,1,1.2,1.8c1.3,2,2.8,4.7,4.3,8l0.5,1.1l-5.4,2.5C164.1,51.5,162.3,48,160.1,44.7z M174.4,66h13.9v-2.5h-11.8V43.4
			h29.4v20.1h-12.5V66h15.6v15.6c0,2-0.3,3.4-0.9,4c-0.7,0.8-2.9,1.5-6.6,2l-1.7-5.6h2.4c0.8,0,1.3-0.1,1.5-0.4
			c0.1-0.2,0.1-0.6,0.1-1.3v-9.9h-10.4v5.4l2.9-0.4c-0.4-1.1-0.8-2.1-1.2-3l4.4-1.3c0.3,0.7,0.6,1.5,0.9,2.4c0.9,2.6,1.7,5,2.3,7.2
			l-4.5,1.3c-0.1-0.5-0.2-0.9-0.2-1.1c-0.1-0.4-0.1-0.6-0.1-0.8c0-0.2-0.1-0.4-0.1-0.7c-1.1,0.1-2.7,0.4-4.9,0.7
			c-4,0.6-6.8,1.2-8.4,1.5c-0.3,0.1-0.8,0.2-1.6,0.3l-1.8-5l0.9-0.1l0.5,0l3.1-0.3c1.4-0.1,2.4-0.2,3-0.3v-6h-8.7v15.8h-5.3V66z
			 M181.6,51.2h6.8v-3.3h-6.8V51.2z M181.6,59h6.8v-3.6h-6.8V59z M193.4,51.2h7.4v-3.3h-7.4V51.2z M193.4,59h7.4v-3.6h-7.4V59z"/>
		<path class="st1" d="M240.7,67.5c1.3,0,2.4,0.4,3.2,1.3c0.8,0.9,1.3,1.9,1.3,3.2c0,1.3-0.4,2.3-1.3,3.2c-0.9,0.9-2,1.3-3.3,1.3
			s-2.4-0.4-3.3-1.3c-0.8-0.9-1.3-1.9-1.3-3.2c0-1.3,0.4-2.4,1.3-3.2C238.2,67.9,239.4,67.5,240.7,67.5z"/>
		<path class="st1" d="M269.4,88.1c1.6-2.6,2.9-4.9,3.6-6.8c0.6-1.4,1.2-3.5,2-6.4l5.8,1.7l-0.5,1.6c-1.3,4.4-3.2,8.6-5.5,12.7
			L269.4,88.1z M293.6,49.5v-8.8h5.9v8.8H322v5.2h-22.5v9.7h18v5.2h-41.4v-5.2h17.4v-9.7h-22.6v-5.2H293.6z M289.6,75.7v11.1
			c0,0.9,0.1,1.4,0.4,1.7c0.2,0.2,0.8,0.3,1.8,0.3h9.3c2.5,0,4.1-0.4,4.7-1.1c0.6-0.6,1.1-2.5,1.5-5.6l6.2,2.7
			c-0.8,2.7-1.6,4.7-2.3,5.9c-0.9,1.6-2.3,2.6-4.2,3c-1.1,0.2-2.3,0.4-3.9,0.4h-11.8c-2.9,0-5-0.5-6-1.5c-1-0.9-1.5-2.2-1.5-4V75.7
			H289.6z M292.8,73.5l4.9-2.9c0.3,0.4,0.7,1,1.3,1.6c1.3,1.7,3,4.2,5.1,7.5l-5.3,3.1C297.3,79.5,295.3,76.4,292.8,73.5z
			 M310.7,77.4l4.7-3.1c3.6,4.3,6.4,8.2,8.6,11.7l-5,3.4c-2.1-3.6-4.6-7.3-7.6-11.1L310.7,77.4z"/>
		<path class="st1" d="M361.7,72.4v23.4h-5.6V72.2c-2.8,4-5.7,7.5-8.9,10.5c-2.9,2.7-6.7,5.7-11.4,8.9l-3.7-4.8
			c4.5-2.6,8.1-5.1,10.8-7.5c3.2-2.9,6.2-6.4,8.9-10.6h-17.8v-5.2h22.1v-8.1h-17.9V50h17.9v-9.5h5.6V50h17.6v5.3h-17.6v8.1h21.8v5.2
			h-18.3c3.3,5,6.3,8.6,8.9,10.9c2.3,2.1,5.7,4.3,9.9,6.7l-3.6,4.9c-0.6-0.4-1.3-0.8-2.1-1.3c-4.8-3-9-6.8-12.7-11.3
			C364.2,76.5,362.8,74.5,361.7,72.4z"/>
		<path class="st1" d="M431.8,67.1l-4-3.3c1.4-1.6,2.5-3,3.3-4.2c0.8-1.2,1.7-2.8,2.6-4.8l4.8,2.6c-1.5,3.2-3.3,6.1-5.4,8.6
			c-0.3,0.4-0.6,0.8-0.8,1h13.8v5.4h-17.5c0.3,0.5,0.6,0.8,0.7,1c2.6,3.7,5.7,6.8,9.5,9.3c2,1.3,4.1,2.4,6.2,3.3
			c0.5,0.2,1,0.4,1.5,0.7l-3.2,5.4c-4.5-2.2-8.4-4.7-11.7-7.7c-3-2.7-5.7-6-8-9.9v21.2h-5.9V75c-1.6,2.6-3.8,5.4-6.6,8.2
			c-2.3,2.4-5.2,4.6-8.5,6.8c-0.8,0.5-2.2,1.4-4.1,2.7l-1,0.6l-3.4-4.8c4.3-2.3,8-4.8,11.1-7.4c2.7-2.3,5.3-5.1,8-8.6h-18.1v-5.4
			h22.7v-13h-20.2v-5.4h20.2v-8h5.9v8H444v5.4h-20.2v13H431.8z M402.1,57.7l4.5-3.3c0.4,0.4,0.8,0.8,1,1c2.4,2.3,4.5,5,6.4,8.1
			l-4.9,3.2c-1.3-2.2-2.3-3.8-3.1-4.8C405.3,61,404,59.6,402.1,57.7z"/>
	</g>
	<g>
		<path class="st1" d="M32.7,204.5v-3c2.8-2.6,5-4.7,6.5-6.4c1.5-1.7,2.5-2.9,2.9-3.8c0.4-0.9,0.7-1.7,0.7-2.5c0-0.9-0.3-1.6-1-2.2
			c-0.7-0.6-1.6-0.9-2.7-0.9c-1.5,0-3.2,0.5-5.1,1.6l-0.9-3.1c2.1-1,4.3-1.5,6.5-1.5c2.1,0,3.8,0.5,5,1.4c1.3,1,2,2.5,2,4.5
			c0,1.8-0.6,3.5-1.9,5.3c-1.4,1.9-3.7,4.5-7,7.5h9.1v3H32.7z"/>
		<path class="st1" d="M57.6,182.7c2.9,0,5,1.3,6.3,3.9c0.8,1.7,1.2,4.1,1.2,7.2c0,3.4-0.5,6-1.5,7.7c-1.3,2.2-3.3,3.3-6.1,3.3
			c-3,0-5.1-1.3-6.4-3.9c-0.8-1.7-1.2-4.1-1.2-7.2c0-3.4,0.5-6,1.5-7.7C52.7,183.8,54.7,182.7,57.6,182.7z M57.4,185.8
			c-2.5,0-3.7,2.7-3.7,8c0,5.4,1.3,8.1,3.8,8.1c2.5,0,3.8-2.7,3.8-8.1c0-2.7-0.3-4.7-0.9-5.9C59.7,186.5,58.8,185.8,57.4,185.8z"/>
		<path class="st1" d="M74.2,204.5v-17.3l-3.9,2.6l-1.6-3l5.9-3.8h3.2v21.4H74.2z"/>
		<path class="st1" d="M86.6,204.6l0.3-3.1c1,0.3,1.9,0.4,2.5,0.4c2.1,0,3.7-0.8,4.8-2.5c0.8-1.2,1.3-2.6,1.5-4.3
			c-1.2,1.2-2.7,1.8-4.4,1.8c-2,0-3.6-0.7-4.7-2.1c-1-1.2-1.4-2.7-1.4-4.7c0-2.2,0.6-4,1.8-5.3c1.3-1.4,3.1-2.1,5.4-2.1
			c4.9,0,7.4,3,7.4,9c0,3-0.5,5.6-1.5,7.8c-1.7,3.6-4.6,5.4-8.7,5.4C88.7,204.9,87.8,204.8,86.6,204.6z M92.3,185.7
			c-1,0-1.9,0.4-2.5,1.2c-0.6,0.8-0.9,1.8-0.9,3.1c0,1.2,0.3,2.2,0.8,2.9c0.6,0.8,1.5,1.2,2.6,1.2c1.1,0,2-0.4,2.7-1.3
			c0.6-0.7,0.9-1.7,0.9-2.9c0-1.3-0.3-2.4-1-3.1C94.3,186.1,93.4,185.7,92.3,185.7z"/>
		<path class="st1" d="M135.8,207.9h-3v-2.4h-17.2v2.4h-3.1v-19.2h7.3v-4.5h-9.2v-2.7H138v2.7h-9.5v4.5h7.3V207.9z M115.6,202.9
			h17.2v-11.7h-4.3v5.1c0,0.3,0.1,0.5,0.2,0.6c0.1,0.1,0.3,0.1,0.5,0.1h3.1v2.9h-3.5c-2.2,0-3.3-1-3.3-3.1v-5.6h-2.9
			c0,1.8-0.3,3.4-0.9,4.8c-0.5,1.3-1.3,2.4-2.2,3.5c-0.2,0.2-0.6,0.6-1.3,1.3l-2.3-2.2c0.3-0.2,0.5-0.4,0.6-0.5
			c1.5-1.3,2.4-2.5,2.8-3.8c0.2-0.7,0.3-1.7,0.4-3.1h-4.1V202.9z M122.8,188.7h2.8v-4.5h-2.8V188.7z"/>
		<path class="st1" d="M142.7,207.5v-22.1h2.8v22.1H142.7z M145.2,180.8l2.5-1.5l3,4.8l-2.7,1.5c-0.7-1.5-1.5-2.9-2.3-4.2
			C145.5,181.2,145.3,180.9,145.2,180.8z M166.5,181v23c0,1.4-0.5,2.3-1.4,2.8c-0.8,0.4-2.1,0.7-4,0.9l-1.3-3.7h2.9c0.7,0,1-0.3,1-1
			v-19.2h-11.3V181H166.5z"/>
		<path class="st1" d="M184.4,187.7c0.7-0.5,1.9-1.3,3.5-2.2c0.6-0.3,1.3-0.8,2.2-1.4h-15.7v-2.8H197v2.8c-0.3,0.1-0.6,0.2-0.9,0.4
			c-2.4,1-5.3,2.5-8.6,4.6v3h12.1v3h-12.1v9.9c0,1.6-1,2.5-2.9,2.9c-0.9,0.2-2,0.3-3.2,0.3l-1.3-3.5h3.5c0.3,0,0.5-0.1,0.7-0.2
			c0.1-0.1,0.2-0.3,0.2-0.7V195h-13.2v-3h13.2V187.7z"/>
		<path class="st1" d="M202.3,192.3c0.3-0.2,0.8-0.5,1.6-0.9c2.5-1.4,4.8-3.1,6.7-5.1l0.5-0.5l2.5,2.3l-0.5,0.4
			c-2,1.8-3.8,3.2-5.5,4.3c-0.9,0.6-2.1,1.3-3.5,2.1L202.3,192.3z M203,206.9V204h11.8v-7h-8.8v-2.9h21.2v2.9h-9.2v7h11.8v2.9H203z
			 M229.2,182.4v6.3h-3v-3.4h-19.7v3.4h-3.1v-6.3h11.2c-0.1-0.6-0.4-1.5-0.9-2.7l3.4-0.8c0.1,0.2,0.2,0.6,0.4,1
			c0.3,0.7,0.5,1.5,0.7,2.6H229.2z M218.7,188.2l2-2.4c0.3,0.2,0.9,0.5,1.8,1l1.3,0.8c2.7,1.7,4.7,3.1,6,4.1l-2.2,2.6
			c-2.1-1.8-4.9-3.7-8.4-5.8L218.7,188.2z"/>
		<path class="st1" d="M255.2,191.2c-0.1-0.1-0.3-0.2-0.4-0.3c-1.8-1.6-3.3-3.6-4.5-6c-0.6-1.2-1.3-2.9-1.9-5.1l2.8-0.6
			c0.4,1.2,0.7,2.3,1.1,3.1c0.5,1.1,1.3,2.4,2.3,3.7c1.1,1.5,2.4,2.7,3.8,3.6c0.7,0.5,1.7,0.9,3,1.4l-1.7,3c-1.6-0.7-3-1.5-4.2-2.5
			l-0.9,11c-0.1,1.4-0.3,2.4-0.7,3c-0.5,0.9-1.8,1.6-3.7,2c-0.6,0.1-1.3,0.2-2.1,0.3l-1.2-3.7h0.6c0.4,0,0.8,0,1,0
			c1.1,0,1.9-0.1,2.2-0.2c0.3-0.1,0.5-0.4,0.6-0.8c0.1-0.2,0.2-0.8,0.2-1.6l0.6-7.3h-6c-0.4,2.9-0.9,5-1.5,6.3
			c-0.7,1.6-1.9,3-3.6,4.3c-1.1,0.8-2.5,1.7-4.5,2.6c-0.2,0.1-0.6,0.3-1.2,0.6l-1.7-3.1c3.2-1.1,5.5-2.4,6.9-3.9
			c1.1-1.3,1.9-3,2.2-5.1c0-0.3,0.1-0.9,0.2-1.8h-4.8V192c-0.9,0.9-2.1,1.8-3.5,2.9l-2.1-2.8c2.6-1.3,4.8-3.4,6.7-6.2
			c1.3-1.9,2.4-4,3.2-6.2l2.9,1.3c-1.8,4.2-4,7.6-6.3,10.1H255.2z"/>
		<path class="st1" d="M263.6,204.6l0.5-0.5c1.2-1,2.2-2.1,3.1-3.2c1.5-1.8,2.6-4.3,3.4-7.6c0.5-2.2,0.9-4.9,1.1-8.3l0.1-1h-5.7
			v-2.8h20.7l-3.8,8.4h5.5c-0.9,3.2-1.8,5.6-2.8,7.4c-0.7,1.4-1.6,2.6-2.5,3.6c-0.2,0.3-0.4,0.5-0.6,0.7c0.6,0.4,1.1,0.8,1.6,1.1
			c0.8,0.4,1.8,0.8,2.8,1.1c0.3,0.1,1.2,0.3,2.8,0.7l0.7,0.2c0.3,0.1,0.6,0.2,0.9,0.2l-1.5,3.2c-1.9-0.6-3.6-1.2-5.1-1.9
			c-1.7-0.7-3.1-1.6-4.3-2.6c-2,1.3-3.9,2.4-5.8,3.2c-0.5,0.2-1.7,0.7-3.7,1.4l-1.5-2.9c1.7-0.5,3-0.9,3.9-1.2
			c1.8-0.7,3.5-1.5,5-2.5c-1.4-2-2.4-3.7-3-5c-0.3-0.7-0.9-2.1-1.7-4.2c-0.6,3.4-1.6,6.2-3,8.6c-1.2,2-2.5,3.6-3.9,5
			c-0.1,0.1-0.5,0.4-1.2,1.1L263.6,204.6z M274,190.9l2.2-0.7l0.2,0.7c0.8,2.3,1.3,3.7,1.6,4.3c0.7,1.5,1.4,2.7,2.2,3.7
			c0.2,0.2,0.3,0.4,0.5,0.7c1.6-1.9,3-4.3,4-7.1h-5.8l3.6-8.3h-7.6C274.6,186.5,274.3,188.8,274,190.9z"/>
		<path class="st1" d="M293.7,191.5v-2.7h5.4v-7.6h3v7.6h4.7v-9.9h3.2v3.5h9.8v2.7h-9.8v3.7h12.6v2.7H293.7z M296.7,206.4v-13.2h3.2
			v10.4h16.7v-10.4h3.2v15.1h-3.2v-1.9H296.7z M308.5,194.8c0.3,0.2,0.6,0.4,1,0.7c2.6,1.9,4.8,3.5,6.6,5l-2.3,2.4
			c-1.2-1.2-2.2-2.1-3-2.8c-0.6-0.5-1.8-1.5-3.6-2.8c-0.1,0.1-0.2,0.3-0.3,0.5c-1,1.6-1.9,2.8-2.7,3.7c-0.4,0.5-0.9,1-1.5,1.7
			l-2.7-1.9c1.7-1.6,3-3.1,4-4.6c1.3-2,2.1-3.7,2.5-5.2l3,1.1C309.4,193.2,309,193.9,308.5,194.8z"/>
		<path class="st1" d="M325.1,185.4h14.6l-0.2-6h2.9l0.1,6h9.7v2.7h-9.5c0.2,3.9,0.8,7.3,2,10.3c0.9,2.3,2,4,3.2,5.3
			c0.6,0.6,1.1,1,1.5,1c0.4,0,0.8-0.8,1.1-2.5c0.1-0.3,0.1-0.7,0.2-1l2.8,1.7c-0.4,1.5-0.8,2.6-1.2,3.4c-0.6,1.4-1.4,2.1-2.4,2.1
			c-1,0-2.2-0.6-3.5-1.7c-2.5-2.2-4.4-5.7-5.5-10.5c-0.5-2.3-0.9-5-1.1-7.9h-14.8V185.4z M325.6,203.6c2-0.4,3.9-0.8,5.8-1.2v-7.9
			h-5v-2.7h12.3v2.7h-4.4v7.1c0.5-0.1,1.1-0.3,1.8-0.5c0.2,0,0.5-0.2,1.1-0.4c0.6-0.2,1.4-0.4,2.6-0.8l-0.2,3.3
			c-2.5,0.8-5.4,1.5-8.7,2.3c-1.8,0.5-3.3,0.8-4.3,1.1L325.6,203.6z M344.3,181.5l1.9-1.9c0.2,0.2,0.5,0.4,0.9,0.7
			c1.2,0.9,2.3,1.8,3.4,2.9l-2.3,2.1C347.2,184,345.9,182.7,344.3,181.5z"/>
		<path class="st1" d="M354.7,206.3c0.6-0.6,1-1.1,1.3-1.4c1.1-1.6,1.8-3.6,2.1-5.8c0.2-1.3,0.2-3,0.2-4.9V181h24.8v3h-21.8v9.7
			c0,1.5-0.1,3.4-0.2,5.6c-0.2,3-1.3,6-3.3,9L354.7,206.3z M370.6,204.3v-10.2H363v-2.8h7.6V185h3v6.3h7.7v2.8h-7.7v10.2h9.8v2.8
			H361v-2.8H370.6z M375.4,197.3l2.3-1.9c1.8,2.1,3.3,4,4.4,5.7l-2.7,1.9c-0.6-1.2-1.2-2.2-1.9-3.1
			C377.3,199.5,376.6,198.6,375.4,197.3z"/>
		<path class="st1" d="M396,201.2l-0.2,3c-0.4,0.1-0.9,0.2-1.4,0.3l-1,0.2c-2.2,0.5-4.6,1-7.2,1.6l-0.7-2.9
			C389.6,202.8,393.1,202.1,396,201.2z M394.9,195.5l-0.2,3.1c-0.4,0.1-0.9,0.1-1.4,0.2c-2.5,0.4-4.4,0.7-5.6,1l-0.8,0.2l-0.9-3.2
			c0.6-0.3,1-0.5,1.2-0.8c0.7-0.7,1.7-2,3-3.9c0.2-0.2,0.3-0.5,0.5-0.7c-1.6,0.2-2.8,0.3-3.5,0.5c-0.3,0.1-0.5,0.1-0.7,0.2l-0.8-2.8
			c0.5-0.5,0.9-0.9,1.2-1.2c0.4-0.6,1-1.7,1.7-3.3c0.8-1.6,1.4-3.3,1.9-5.1l2.9,0.9c-1,3-2.3,5.8-3.8,8.4l2.5-0.2
			c0.2-0.4,0.4-0.9,0.7-1.8c0,0,0.2-0.4,0.5-1.2l2.8,1.3l-0.3,0.6c-1.4,3-3,5.9-4.9,8.7C391.7,196.2,393.1,195.9,394.9,195.5z
			 M394.9,195.1c0.2-0.3,0.4-0.6,0.8-1c1.2-1.5,2.3-3.4,3.4-5.6c0.5-1,0.8-2,1.2-2.9l2.7,1.4l-0.3,0.5l-0.4,0.9l-0.2,0.5l-0.9,1.8
			l-0.2,0.4l-0.3,0.5v16.7H398v-12.6c-0.3,0.4-0.4,0.6-0.5,0.7c-0.3,0.3-0.5,0.6-0.6,0.9L394.9,195.1z M396.1,187.5v-4.8h7.7
			c-0.2-0.8-0.6-1.8-1.1-2.8l2.8-0.9c0.5,1,1,2.3,1.5,3.7h7.7v4.8h-2.8v-2.3h-13v2.3H396.1z M413.7,193v15.1H411v-1.8h-5.1v1.8h-2.7
			V193h3.2c0.2-0.8,0.3-1.6,0.5-2.5h-4.1v-2.5h11.5v2.5h-4.7c-0.1,0.5-0.3,1.4-0.5,2.5H413.7z M411,198.5v-3.1h-5.1v3.1H411z
			 M405.9,204h5.1v-3.1h-5.1V204z"/>
		<path class="st1" d="M429,196.1l-2.7,1.6c-0.5-1.2-0.9-2.1-1.3-2.7c-0.1-0.3-0.3-0.6-0.6-1.1c-0.1-0.1-0.2-0.3-0.3-0.6v14.9h-3
			v-12.6c-0.1,0.3-0.2,0.6-0.4,0.9c-0.5,1.2-1.2,2.8-2.3,4.9l-2.6-2.1c1-1.4,2-3.1,2.7-5c0.7-1.8,1.4-4,2-6.5h-3.7v-2.9h4.2v-6h3v6
			h4.1v2.9h-4.1v3.6l1.4-1C426.8,192.4,428,194.2,429,196.1z M425.1,205.9c1.3-1,2.2-2.3,3-3.7c0.6-1.3,1-3.1,1.2-5.4
			c0.1-1.6,0.2-3.5,0.2-5.7v-10.6h11.4V204c0,0.6,0.2,0.9,0.6,0.9h0.3c0.4,0,0.6-0.3,0.7-0.9c0.2-1.1,0.2-2.7,0.2-4.6l3.3,1.1
			l-0.1,0.9c-0.2,2.2-0.5,3.8-0.8,4.7c-0.4,1.3-1.3,1.9-2.6,1.9h-2.2c-1.6,0-2.5-0.8-2.5-2.5v-22.1h-5.4v8.1c0,3.9-0.2,6.7-0.5,8.5
			c-0.4,2.4-1.3,4.6-2.7,6.6c-0.3,0.4-0.6,0.9-1.1,1.5L425.1,205.9z"/>
		<path class="st1" d="M475.4,184.8h-26.7v-2.6h11.5c-0.1-0.5-0.3-1.3-0.7-2.5l3.3-0.7c0.3,1,0.6,2.1,0.8,3.2h11.9V184.8z
			 M453.1,196.3v11.5h-3v-14.1h24.1v10.7c0,1.1-0.2,1.9-0.5,2.3c-0.4,0.5-1,0.9-2,1.2c-1.1,0.3-2.1,0.5-3,0.6l-1.2-3.5h2.8
			c0.4,0,0.6-0.1,0.7-0.4c0.1-0.2,0.1-0.5,0.1-0.8v-7.5H453.1z M453.3,192.4v-6.3h17.1v6.3H453.3z M455.6,204.6v-6.8h12.3v6.8H455.6
			z M456.1,190.1h11.4v-1.7h-11.4V190.1z M458.4,202.2h6.5v-2h-6.5V202.2z"/>
		<path class="st1" d="M488.9,190.5c0,0,0.1,0,0.2,0c0,0,0.1,0,0.2,0c2.2-0.3,4.2-0.9,6.3-1.9c-0.3-0.3-0.7-0.7-1.2-1.2
			c-0.2-0.2-0.3-0.4-0.5-0.5c-0.1-0.1-0.2-0.2-0.4-0.4c-0.5,0.8-1,1.5-1.5,2l-2.2-1.7c1-1.1,1.7-2.1,2.3-3c0.7-1.1,1.5-2.5,2.3-4.2
			l0.3-0.7l2.5,1.3l-0.3,0.5l-0.2,0.3l-0.5,0.8c-0.1,0.1-0.1,0.2-0.2,0.3h9.4c-1.4,2.4-3.1,4.5-5.2,6.4c1.8,0.8,4.1,1.4,7,1.6
			l-1.3,3c-3.4-0.8-6.1-1.8-8.1-3c-1.4,0.8-2.7,1.4-4,1.9c-0.9,0.3-2.3,0.8-4.1,1.3l-0.9-2.2v13.5h-2.6v-1.7l-7.5,0.9v-18.8h2.7
			v15.8l1.2-0.1v-21.2h2.6v20.9l1-0.1v-15.2h2.6V190.5z M489.6,204v-2.4h6.9v-1.7h-5.2v-2.2h5.2V196h-5.8v-2.3h5.8v-2.4h2.9v2.4h5.5
			v2.3h-5.5v1.6h5.2v2.2h-5.2v1.7h6.8v2.4h-6.8v4.4h-2.9V204H489.6z M495.3,184.5c0.7,0.9,1.6,1.8,2.7,2.7c0.2-0.2,0.4-0.3,0.5-0.4
			c0.6-0.5,1.4-1.3,2.2-2.3H495.3z"/>
		<path class="st1" d="M508.6,188.7h6.7v13.2c0.7-0.7,1.8-1.7,3.1-3.1l1.5,2.8c-0.9,0.9-2.1,2.1-3.8,3.6c-0.1,0.1-0.8,0.8-2,2.1
			l-0.5,0.5l-2.1-2.5c0.3-0.4,0.5-0.6,0.6-0.8c0.2-0.4,0.3-1,0.3-1.7v-11.3h-3.9V188.7z M510.4,181.7l1.8-2.2c0.5,0.4,1.4,1,2.6,1.9
			c0.7,0.5,1.6,1.3,2.6,2.4l-2.2,2.3c-0.8-1.1-1.6-1.9-2.3-2.4C512.4,183.1,511.5,182.4,510.4,181.7z M526.2,183.9
			c-0.1,0.2-0.2,0.4-0.3,0.7c-0.4,0.9-1,2-1.8,3.1c-0.8,1.2-1.6,2.1-2.3,2.9c-0.8,0.8-2,1.9-3.5,3.1l-2.1-2.4c1.6-1,2.8-2,3.6-2.8
			c1.8-1.9,3.2-4.2,4.4-7.1c0.3-0.8,0.6-1.8,0.9-2.8l3.1,0.8c-0.2,0.5-0.3,0.7-0.3,0.8c0,0.1-0.1,0.2-0.1,0.3c0,0.1,0.1,0.2,0.1,0.2
			c0.1,0.1,0.3,0.6,0.7,1.4c1,2,2,3.5,2.9,4.5c1.5,1.6,3.7,3,6.5,4.1l-1.8,2.8c-2.8-1.4-4.8-2.8-6.2-4.2
			C528.4,187.8,527.2,185.9,526.2,183.9z M524.4,191v5.6c0.4-0.2,0.7-0.4,1.2-0.7c2.6-1.5,4.6-2.7,6.1-3.8l2.3,2.3
			c-1.2,0.7-2.8,1.7-5,2.9c-1.9,1-3.3,1.8-4.5,2.3v3.7c0,0.5,0.1,0.9,0.3,1c0.2,0.1,0.4,0.2,0.8,0.2h5.6c0.8,0,1.4-0.3,1.7-1
			c0.2-0.4,0.4-1.3,0.6-2.7l3.2,1.5c-0.2,0.8-0.4,1.5-0.6,2c-0.4,1.1-0.9,1.9-1.5,2.4c-0.6,0.5-1.5,0.8-2.6,0.8h-6.1
			c-1.6,0-2.7-0.3-3.3-0.8c-0.6-0.5-0.9-1.3-0.9-2.3V191H524.4z"/>
		<path class="st1" d="M546.4,199.3l1.3-0.5c1.5-0.6,2.5-1,3.1-1.2l0.1,3.2c-0.8,0.3-2.1,0.7-3.9,1.4c-0.3,0.1-1.3,0.4-2.8,1
			c-1.3,0.5-2.6,0.9-3.6,1.3l-1.1-3.1c0.4-0.1,0.6-0.1,0.8-0.2c1-0.2,2.1-0.6,3.4-1v-10.6H540v-2.8h3.6v-7.3h2.8v7.3h3.8v2.8h-3.8
			V199.3z M550.4,203.9c0.5-0.3,0.9-0.5,1.1-0.7c0.8-0.6,1.8-2.5,3-5.6c0.5-1.2,1-2.7,1.5-4.4h-5.6v-2.8h17.5v2.8h-10.1l1.4,0.5
			c-0.1,0.3-0.3,0.8-0.6,1.5c-1.4,3.6-2.7,6.3-4,8.4c0.4,0,1-0.1,1.5-0.1c0.6,0,1.7-0.1,3.1-0.2c0.9-0.1,1.7-0.1,2.2-0.2
			c0.7,0,1.3-0.1,1.9-0.2c-0.9-1.9-1.8-3.6-2.8-5.1l2.8-1.4c0.4,0.8,0.8,1.4,1.1,2c1.3,2.3,2.7,5,4,8l-3.1,1.3
			c-0.3-0.8-0.6-1.5-0.9-2.1c-0.7,0.1-1.5,0.1-2.4,0.2c-5.5,0.4-9.2,0.7-11.1,1L550.4,203.9z M552.4,181.4h13.3v2.8h-13.3V181.4z"/>
		<path class="st1" d="M32.7,238.6v-3c2.8-2.6,5-4.7,6.5-6.4c1.5-1.7,2.5-2.9,2.9-3.8c0.4-0.9,0.7-1.7,0.7-2.5c0-0.9-0.3-1.7-1-2.2
			c-0.7-0.6-1.6-0.9-2.7-0.9c-1.5,0-3.2,0.5-5.1,1.6l-0.9-3.1c2.1-1,4.3-1.5,6.5-1.5c2.1,0,3.8,0.5,5,1.4c1.3,1,2,2.5,2,4.5
			c0,1.8-0.6,3.5-1.9,5.3c-1.4,1.9-3.7,4.5-7,7.5h9.1v3H32.7z"/>
		<path class="st1" d="M57.6,216.8c2.9,0,5,1.3,6.3,3.9c0.8,1.7,1.2,4.1,1.2,7.2c0,3.4-0.5,6-1.5,7.7c-1.3,2.2-3.3,3.3-6.1,3.3
			c-3,0-5.1-1.3-6.4-3.9c-0.8-1.7-1.2-4.1-1.2-7.2c0-3.4,0.5-6,1.5-7.7C52.7,217.9,54.7,216.8,57.6,216.8z M57.4,219.8
			c-1.4,0-2.4,0.8-3,2.5c-0.5,1.2-0.7,3.1-0.7,5.6c0,2.7,0.3,4.7,0.9,5.9c0.6,1.4,1.6,2.1,2.9,2.1c1.4,0,2.4-0.8,3-2.5
			c0.5-1.2,0.7-3.1,0.7-5.6c0-2.7-0.3-4.7-0.9-5.9C59.7,220.5,58.8,219.8,57.4,219.8z"/>
		<path class="st1" d="M74.2,238.6v-17.3l-3.9,2.6l-1.6-3l5.9-3.8h3.2v21.4H74.2z"/>
		<path class="st1" d="M86.6,238.7l0.3-3.1c1,0.3,1.9,0.4,2.5,0.4c2.1,0,3.7-0.8,4.8-2.5c0.8-1.2,1.3-2.6,1.5-4.3
			c-1.2,1.2-2.7,1.8-4.4,1.8c-2,0-3.6-0.7-4.7-2.1c-1-1.2-1.4-2.7-1.4-4.7c0-2.2,0.6-4,1.8-5.3c1.3-1.4,3.1-2.1,5.4-2.1
			c2.6,0,4.5,0.8,5.7,2.5c1.1,1.5,1.7,3.7,1.7,6.4c0,3-0.5,5.6-1.5,7.8c-1.7,3.6-4.6,5.4-8.7,5.4C88.7,239,87.8,238.9,86.6,238.7z
			 M92.3,219.7c-1,0-1.9,0.4-2.5,1.2c-0.6,0.8-0.9,1.8-0.9,3.1c0,1.2,0.3,2.2,0.8,2.9c0.6,0.8,1.5,1.2,2.6,1.2c1.1,0,2-0.4,2.7-1.3
			c0.6-0.7,0.9-1.7,0.9-2.9c0-1.3-0.3-2.4-1-3.1C94.3,220.1,93.4,219.7,92.3,219.7z"/>
		<path class="st1" d="M110.3,237.8l0.5-3.3c2.3,0.9,4.2,1.3,5.8,1.3c1.2,0,2.2-0.3,2.8-0.9c0.6-0.6,0.9-1.3,0.9-2.2
			c0-0.8-0.3-1.4-0.8-1.9c-0.5-0.4-1.6-1-3.3-1.7c-1.6-0.7-2.6-1.2-3.1-1.5c-1.1-0.6-1.9-1.4-2.3-2.2c-0.4-0.7-0.5-1.5-0.5-2.4
			c0-2.1,0.7-3.7,2.2-4.8c1.2-1,2.9-1.5,5-1.5c1.8,0,3.7,0.4,6,1.1l-0.7,3.2c-2-0.8-3.7-1.2-5.1-1.2c-1,0-1.8,0.2-2.5,0.7
			c-0.6,0.5-1,1.2-1,2c0,0.7,0.3,1.3,0.8,1.8c0.5,0.4,1.5,1,3.1,1.6c1.6,0.7,2.7,1.2,3.3,1.5c1.2,0.7,2,1.5,2.4,2.4
			c0.4,0.8,0.5,1.7,0.5,2.7c0,2.1-0.7,3.8-2.2,4.9c-1.3,1-3.1,1.5-5.4,1.5C114.6,239,112.4,238.6,110.3,237.8z"/>
		<path class="st1" d="M129.8,215.4c0.7,0,1.3,0.2,1.7,0.7c0.4,0.4,0.5,0.9,0.5,1.5c0,0.6-0.2,1.1-0.5,1.5c-0.4,0.5-1,0.8-1.7,0.8
			c-0.7,0-1.3-0.3-1.7-0.8c-0.4-0.4-0.5-0.9-0.5-1.5c0-0.6,0.2-1.1,0.5-1.5C128.5,215.7,129.1,215.4,129.8,215.4z M127.9,238.6
			v-15.8h3.6v15.8H127.9z"/>
		<path class="st1" d="M139,231.9c0.1,1.3,0.5,2.3,1,3c0.8,1,2,1.4,3.6,1.4c1.6,0,3.1-0.5,4.7-1.5l1.3,2.7c-1.8,1-3.9,1.6-6.1,1.6
			c-2.8,0-4.9-0.8-6.3-2.3c-1.3-1.4-2-3.4-2-5.9c0-2.6,0.7-4.7,2.2-6.3c1.3-1.4,3.1-2,5.4-2c3.3,0,5.5,1.3,6.5,3.9
			c0.5,1.3,0.8,3.1,0.8,5.5H139z M146.3,229.3c0-0.9-0.2-1.7-0.5-2.4c-0.6-1.2-1.6-1.7-3-1.7c-1.4,0-2.4,0.6-3.1,1.7
			c-0.4,0.7-0.6,1.5-0.7,2.4H146.3z"/>
		<path class="st1" d="M153.6,238.6v-10.3c0-1.9,0-3.4-0.1-4.5l0-1.1h3.4l0.1,2.3c0.5-0.6,1.1-1.1,1.6-1.5c1.1-0.8,2.3-1.2,3.7-1.2
			c2.2,0,3.6,1,4.3,2.9c0.6-0.7,1.2-1.3,1.7-1.7c1.1-0.8,2.3-1.2,3.6-1.2c2,0,3.3,0.7,4.1,2.2c0.4,0.9,0.7,2.4,0.7,4.4v9.5H173v-9.3
			c0-1.3-0.1-2.2-0.3-2.7c-0.3-0.9-1-1.4-2-1.4c-1.3,0-2.6,0.9-3.8,2.7v10.7h-3.6v-9.7c0-1.1-0.1-2-0.4-2.5c-0.4-0.8-1-1.2-1.9-1.2
			c-1.3,0-2.6,0.9-3.8,2.7v10.7H153.6z"/>
		<path class="st1" d="M183.9,231.9c0.1,1.3,0.5,2.3,1,3c0.8,1,2,1.4,3.6,1.4c1.6,0,3.1-0.5,4.7-1.5l1.3,2.7c-1.8,1-3.9,1.6-6.1,1.6
			c-2.8,0-4.9-0.8-6.3-2.3c-1.3-1.4-2-3.4-2-5.9c0-2.6,0.7-4.7,2.2-6.3c1.3-1.4,3.1-2,5.4-2c3.3,0,5.5,1.3,6.5,3.9
			c0.5,1.3,0.8,3.1,0.8,5.5H183.9z M191.3,229.3c0-0.9-0.2-1.7-0.5-2.4c-0.6-1.2-1.6-1.7-3-1.7c-1.4,0-2.4,0.6-3.1,1.7
			c-0.4,0.7-0.6,1.5-0.7,2.4H191.3z"/>
		<path class="st1" d="M198.6,238.6v-10.3c0-1.9,0-3.4-0.1-4.5l0-1h3.4l0.1,2.3c0.6-0.6,1.2-1.1,1.6-1.5c1.2-0.8,2.5-1.2,4-1.2
			c2.1,0,3.5,0.7,4.3,2.2c0.5,0.9,0.7,2.3,0.7,4.4v9.5h-3.6v-9.3c0-1.3-0.1-2.2-0.3-2.7c-0.4-0.9-1.1-1.4-2.3-1.4
			c-1.5,0-2.9,0.9-4.2,2.7v10.7H198.6z"/>
		<path class="st1" d="M216.1,237.7l1-2.8c0.6,0.4,1.1,0.6,1.4,0.7c0.9,0.4,1.8,0.6,2.7,0.6c0.8,0,1.5-0.2,1.9-0.6
			c0.4-0.4,0.7-0.8,0.7-1.5c0-0.6-0.2-1-0.6-1.3c-0.3-0.2-1.2-0.6-2.5-1.1c-1.1-0.4-1.9-0.7-2.4-1c-1.4-0.8-2.1-2-2.1-3.6
			c0-1.5,0.6-2.7,1.7-3.6c1-0.8,2.4-1.2,4.1-1.2c1.6,0,3.4,0.4,5.1,1.1l-0.9,2.8c-1.4-0.8-2.7-1.2-4.1-1.2c-0.7,0-1.3,0.2-1.7,0.5
			c-0.5,0.3-0.7,0.8-0.7,1.3c0,0.6,0.3,1,0.9,1.4c0.3,0.2,1.2,0.5,2.5,1c1.6,0.6,2.7,1.2,3.4,1.9c0.6,0.7,1,1.5,1,2.6
			c0,1.5-0.5,2.7-1.6,3.6c-1.1,1-2.6,1.5-4.5,1.5C219.4,239,217.7,238.5,216.1,237.7z"/>
		<path class="st1" d="M250.2,232.5h-8.1l-2.2,6.1h-3.8l7.9-21.4h4.2l8.1,21.4h-4L250.2,232.5z M249.2,229.5l-1.8-5.1
			c-0.4-1.2-0.8-2.4-1.2-3.7c-0.3,1-0.7,2.2-1.2,3.7l-1.8,5.1H249.2z"/>
		<path class="st1" d="M258.1,237.8l0.5-3.3c2.3,0.9,4.2,1.3,5.8,1.3c1.2,0,2.2-0.3,2.8-0.9c0.6-0.6,0.9-1.3,0.9-2.2
			c0-0.8-0.3-1.4-0.8-1.9c-0.5-0.4-1.6-1-3.3-1.7c-1.6-0.7-2.6-1.2-3.1-1.5c-1.1-0.6-1.9-1.4-2.3-2.2c-0.4-0.7-0.5-1.5-0.5-2.4
			c0-2.1,0.7-3.7,2.2-4.8c1.2-1,2.9-1.5,5-1.5c1.8,0,3.7,0.4,6,1.1l-0.7,3.2c-2-0.8-3.7-1.2-5.1-1.2c-1,0-1.8,0.2-2.5,0.7
			c-0.6,0.5-1,1.2-1,2c0,0.7,0.3,1.3,0.8,1.8c0.5,0.4,1.5,1,3.1,1.6c1.6,0.7,2.7,1.2,3.3,1.5c1.2,0.7,2,1.5,2.4,2.4
			c0.4,0.8,0.5,1.7,0.5,2.7c0,2.1-0.7,3.8-2.2,4.9c-1.3,1-3.1,1.5-5.4,1.5C262.3,239,260.2,238.6,258.1,237.8z"/>
		<path class="st1" d="M275.7,217.2h3.8v12.7c0,2.2,0.3,3.8,0.9,4.6c0.7,1,2,1.5,3.7,1.5c1.9,0,3.2-0.6,4-1.8
			c0.5-0.8,0.7-2.2,0.7-4.1v-12.9h3.6v11.9c0,2.4-0.1,4-0.3,4.8c-0.7,3.4-3.4,5.1-8.1,5.1c-3.6,0-6-1-7.3-3.1
			c-0.6-0.9-0.9-2.2-1-3.8c0-0.8-0.1-1.7-0.1-2.9V217.2z"/>
		<path class="st1" d="M313.1,236.8c-0.5,0.6-1.1,1-1.6,1.3c-0.9,0.6-2,0.8-3.3,0.8c-1.6,0-2.9-0.4-3.8-1.3c-0.9-0.9-1.3-2-1.3-3.5
			c0-2,0.8-3.4,2.4-4.4c1-0.6,2.6-0.9,4.8-0.9c0.6,0,1.5,0,2.6,0.1v-0.3c0-2.4-1.2-3.6-3.5-3.6c-1.3,0-2.7,0.4-4.3,1.3l-1-2.6
			c1.8-0.9,3.7-1.4,5.7-1.4c2.6,0,4.4,0.7,5.5,2.1c0.6,0.7,0.9,1.7,1.1,2.9c0.1,0.5,0.1,1.3,0.1,2.4v4.7c0,2.1,0.1,3.4,0.2,4h-3.4
			L313.1,236.8z M312.9,231.3c-0.6-0.1-1.1-0.1-1.6-0.1c-1.5,0-2.5,0.2-3.2,0.6c-0.8,0.5-1.2,1.3-1.2,2.3c0,0.7,0.2,1.2,0.6,1.7
			c0.4,0.5,1.1,0.7,1.8,0.7c1.4,0,2.6-0.7,3.6-2.2V231.3z"/>
		<path class="st1" d="M321.3,238.6v-10.3c0-1.9,0-3.4-0.1-4.5l0-1h3.4l0.1,2.3c0.6-0.6,1.2-1.1,1.6-1.5c1.2-0.8,2.5-1.2,4-1.2
			c2.1,0,3.5,0.7,4.3,2.2c0.5,0.9,0.7,2.3,0.7,4.4v9.5h-3.6v-9.3c0-1.3-0.1-2.2-0.3-2.7c-0.4-0.9-1.1-1.4-2.3-1.4
			c-1.5,0-2.9,0.9-4.2,2.7v10.7H321.3z"/>
		<path class="st1" d="M349.8,215.9h3.6V233c0,2.3,0,4.2,0.1,5.6h-3.5l-0.1-2.3c-0.5,0.7-1,1.2-1.5,1.6c-0.9,0.7-2,1-3.3,1
			c-2,0-3.6-0.8-4.8-2.5c-1.1-1.5-1.6-3.5-1.6-5.8c0-2.6,0.6-4.6,1.9-6.2c1.1-1.4,2.6-2.1,4.5-2.1c1.9,0,3.4,0.8,4.6,2.3V215.9z
			 M349.8,227.9c-1-1.7-2.2-2.6-3.7-2.6c-1.2,0-2,0.5-2.6,1.5c-0.6,1-0.9,2.3-0.9,3.9c0,1.5,0.3,2.8,0.8,3.9
			c0.6,1.1,1.5,1.7,2.6,1.7c1.4,0,2.7-0.9,3.8-2.7V227.9z"/>
		<path class="st1" d="M382.4,227v10.6c-2.5,0.9-4.9,1.3-7.1,1.3c-3.2,0-5.8-0.9-7.6-2.7c-2-2-3.1-4.7-3.1-8.2
			c0-3.8,1.2-6.7,3.5-8.8c1.8-1.7,4.3-2.5,7.3-2.5c2.4,0,4.7,0.5,6.9,1.5l-1.2,3c-1.9-1-3.8-1.5-5.6-1.5c-2.4,0-4.2,0.8-5.3,2.5
			c-1.1,1.5-1.6,3.4-1.6,5.7c0,2.7,0.8,4.8,2.3,6.2c1.2,1.1,2.8,1.7,4.6,1.7c1.1,0,2.2-0.2,3.3-0.6V230h-3.9v-3H382.4z"/>
		<path class="st1" d="M389.8,231.9c0.1,1.3,0.5,2.3,1,3c0.8,1,2,1.4,3.6,1.4c1.6,0,3.1-0.5,4.7-1.5l1.3,2.7c-1.8,1-3.8,1.6-6.1,1.6
			c-2.8,0-4.9-0.8-6.3-2.3c-1.3-1.4-2-3.4-2-5.9c0-2.6,0.7-4.7,2.2-6.3c1.3-1.4,3.1-2,5.4-2c3.3,0,5.5,1.3,6.5,3.9
			c0.5,1.3,0.8,3.1,0.8,5.5H389.8z M397.2,229.3c0-0.9-0.2-1.7-0.5-2.4c-0.6-1.2-1.6-1.7-3-1.7c-1.4,0-2.4,0.6-3.1,1.7
			c-0.4,0.7-0.6,1.5-0.7,2.4H397.2z"/>
		<path class="st1" d="M413.1,236.8c-0.5,0.6-1.1,1-1.6,1.3c-0.9,0.6-2,0.8-3.3,0.8c-1.6,0-2.9-0.4-3.8-1.3c-0.9-0.9-1.3-2-1.3-3.5
			c0-2,0.8-3.4,2.4-4.4c1-0.6,2.6-0.9,4.8-0.9c0.6,0,1.5,0,2.6,0.1v-0.3c0-2.4-1.2-3.6-3.5-3.6c-1.3,0-2.7,0.4-4.3,1.3l-1-2.6
			c1.8-0.9,3.7-1.4,5.7-1.4c2.6,0,4.4,0.7,5.5,2.1c0.6,0.7,0.9,1.7,1.1,2.9c0.1,0.5,0.1,1.3,0.1,2.4v4.7c0,2.1,0.1,3.4,0.2,4h-3.4
			L413.1,236.8z M412.9,231.3c-0.6-0.1-1.1-0.1-1.6-0.1c-1.5,0-2.5,0.2-3.2,0.6c-0.8,0.5-1.2,1.3-1.2,2.3c0,0.7,0.2,1.2,0.6,1.7
			c0.4,0.5,1.1,0.7,1.8,0.7c1.4,0,2.6-0.7,3.6-2.2V231.3z"/>
		<path class="st1" d="M421.4,238.6v-9.9c0-2,0-4-0.1-5.9h3.4l0.1,3c0.9-2.1,2.3-3.2,4.2-3.2c0.4,0,0.9,0.1,1.4,0.2l-0.2,3.2
			c-0.5-0.1-0.9-0.2-1.2-0.2c-1.2,0-2.1,0.5-2.9,1.5c-0.4,0.6-0.8,1.3-1,2.1v9.2H421.4z"/>
		<path class="st1" d="M430.2,231.3v-2.9h7.8v2.9H430.2z"/>
		<path class="st1" d="M442,225.6h-2.5v-2.8h2.5v-3.4l3.6-0.7v4.1h3.6v2.8h-3.6v7.3c0,1.1,0.1,1.8,0.3,2.2c0.3,0.6,0.9,0.9,1.8,0.9
			c0.4,0,1-0.1,1.7-0.4l0.3,2.8c-1.1,0.4-2.2,0.5-3.2,0.5c-1.8,0-3-0.5-3.8-1.6c-0.5-0.8-0.8-2.2-0.8-4.2V225.6z"/>
		<path class="st1" d="M456.5,238.4l-6.4-15.6h3.9l3.2,8c0.5,1.2,0.9,2.4,1.3,3.6c0.4-1.3,0.9-2.6,1.3-3.8l3-7.8h3.5l-6.4,16.2
			c-1,2.4-1.8,4.1-2.6,5c-0.9,1.1-2.3,1.7-4.1,1.7c-1,0-2-0.2-3.2-0.5l0.6-2.8c0.8,0.3,1.4,0.5,2,0.5c0.8,0,1.5-0.3,2-0.8
			C455.2,241.2,455.9,240.1,456.5,238.4z"/>
		<path class="st1" d="M468.7,245.3v-16.1c0-2.6,0-4.7-0.1-6.3h3.5l0.1,2.2c0.5-0.6,1-1.1,1.5-1.5c1-0.7,2.1-1,3.3-1
			c2,0,3.6,0.8,4.7,2.4c1.1,1.5,1.6,3.5,1.6,5.8c0,2.6-0.6,4.6-1.9,6.2c-1.1,1.4-2.6,2.1-4.5,2.1c-1.9,0-3.4-0.8-4.6-2.4v8.7H468.7z
			 M472.3,233.4c1.1,1.8,2.4,2.7,3.8,2.7c1.2,0,2-0.6,2.6-1.7c0.6-1,0.8-2.3,0.8-3.8c0-1.6-0.3-2.9-0.9-3.9c-0.6-1-1.5-1.5-2.6-1.5
			c-1.4,0-2.6,0.9-3.7,2.6V233.4z"/>
		<path class="st1" d="M489.6,231.9c0.1,1.3,0.5,2.3,1,3c0.8,1,2,1.4,3.6,1.4c1.6,0,3.1-0.5,4.7-1.5l1.3,2.7c-1.8,1-3.8,1.6-6.1,1.6
			c-2.8,0-4.9-0.8-6.3-2.3c-1.3-1.4-2-3.4-2-5.9c0-2.6,0.7-4.7,2.2-6.3c1.3-1.4,3.1-2,5.4-2c3.3,0,5.5,1.3,6.5,3.9
			c0.5,1.3,0.8,3.1,0.8,5.5H489.6z M496.9,229.3c0-0.9-0.2-1.7-0.5-2.4c-0.6-1.2-1.6-1.7-3-1.7c-1.4,0-2.4,0.6-3.1,1.7
			c-0.4,0.7-0.6,1.5-0.7,2.4H496.9z"/>
		<path class="st1" d="M526.4,234.5l1,3c-0.9,0.4-1.7,0.7-2.3,0.9c-1.2,0.4-2.6,0.5-4.1,0.5c-3.2,0-5.7-0.9-7.6-2.8
			c-2-2-2.9-4.7-2.9-8.1c0-3.9,1.2-6.9,3.6-9c1.7-1.5,4-2.3,6.7-2.3c2.1,0,4.2,0.5,6.3,1.5l-1.2,2.9c-1.8-0.9-3.4-1.3-4.9-1.3
			c-2.1,0-3.7,0.8-4.8,2.3c-1.1,1.6-1.7,3.5-1.7,5.9c0,2.8,0.8,4.9,2.3,6.3c1.2,1.1,2.6,1.7,4.5,1.7c1.1,0,2.2-0.2,3.2-0.6
			C525,235.2,525.6,234.9,526.4,234.5z"/>
		<path class="st1" d="M536.9,222.5c2.5,0,4.4,0.8,5.8,2.5c1.2,1.5,1.9,3.4,1.9,5.8c0,2.6-0.7,4.6-2.2,6.1c-1.4,1.4-3.2,2.1-5.6,2.1
			c-2.5,0-4.5-0.8-5.9-2.5c-1.2-1.5-1.9-3.4-1.9-5.8c0-2.6,0.7-4.6,2.2-6.1C532.6,223.2,534.5,222.5,536.9,222.5z M536.8,225.2
			c-1.4,0-2.5,0.7-3.2,2.1c-0.5,0.9-0.7,2.1-0.7,3.4c0,1.5,0.3,2.7,0.8,3.7c0.7,1.2,1.8,1.8,3.1,1.8c1.5,0,2.6-0.7,3.3-2.1
			c0.5-0.9,0.7-2.1,0.7-3.4c0-1.5-0.3-2.7-0.8-3.7C539.2,225.8,538.2,225.2,536.8,225.2z"/>
		<path class="st1" d="M548.2,238.6v-10.3c0-1.9,0-3.4-0.1-4.5l0-1.1h3.4l0.1,2.3c0.5-0.6,1.1-1.1,1.6-1.5c1.1-0.8,2.3-1.2,3.7-1.2
			c2.2,0,3.6,1,4.3,2.9c0.6-0.7,1.2-1.3,1.7-1.7c1.1-0.8,2.3-1.2,3.6-1.2c2,0,3.3,0.7,4.1,2.2c0.4,0.9,0.7,2.4,0.7,4.4v9.5h-3.6
			v-9.3c0-1.3-0.1-2.2-0.3-2.7c-0.3-0.9-1-1.4-2-1.4c-1.3,0-2.6,0.9-3.8,2.7v10.7h-3.6v-9.7c0-1.1-0.1-2-0.4-2.5
			c-0.4-0.8-1-1.2-1.9-1.2c-1.3,0-2.6,0.9-3.8,2.7v10.7H548.2z"/>
		<path class="st1" d="M575.6,245.3v-16.1c0-2.6,0-4.7-0.1-6.3h3.5l0.1,2.2c0.5-0.6,1-1.1,1.5-1.5c1-0.7,2.1-1,3.3-1
			c2,0,3.6,0.8,4.7,2.4c1.1,1.5,1.6,3.5,1.6,5.8c0,2.6-0.6,4.6-1.9,6.2c-1.1,1.4-2.6,2.1-4.5,2.1c-1.9,0-3.4-0.8-4.6-2.4v8.7H575.6z
			 M579.2,233.4c1.1,1.8,2.4,2.7,3.8,2.7c1.2,0,2-0.6,2.6-1.7c0.6-1,0.8-2.3,0.8-3.8c0-1.6-0.3-2.9-0.9-3.9c-0.6-1-1.5-1.5-2.6-1.5
			c-1.4,0-2.6,0.9-3.7,2.6V233.4z"/>
		<path class="st1" d="M593.8,238.6v-9.9c0-2,0-4-0.1-5.9h3.4l0.1,3c0.9-2.1,2.3-3.2,4.2-3.2c0.4,0,0.9,0.1,1.4,0.2l-0.2,3.2
			c-0.5-0.1-0.9-0.2-1.2-0.2c-1.2,0-2.1,0.5-2.9,1.5c-0.4,0.6-0.8,1.3-1,2.1v9.2H593.8z"/>
		<path class="st1" d="M607.9,231.9c0.1,1.3,0.5,2.3,1,3c0.8,1,2,1.4,3.6,1.4c1.6,0,3.1-0.5,4.7-1.5l1.3,2.7c-1.8,1-3.8,1.6-6.1,1.6
			c-2.8,0-4.9-0.8-6.3-2.3c-1.3-1.4-2-3.4-2-5.9c0-2.6,0.7-4.7,2.2-6.3c1.3-1.4,3.1-2,5.4-2c3.3,0,5.5,1.3,6.5,3.9
			c0.5,1.3,0.8,3.1,0.8,5.5H607.9z M615.2,229.3c0-0.9-0.2-1.7-0.5-2.4c-0.6-1.2-1.6-1.7-3-1.7c-1.4,0-2.4,0.6-3.1,1.7
			c-0.4,0.7-0.6,1.5-0.7,2.4H615.2z"/>
		<path class="st1" d="M621.3,237.7l1-2.8c0.6,0.4,1.1,0.6,1.4,0.7c0.9,0.4,1.8,0.6,2.7,0.6c0.8,0,1.5-0.2,1.9-0.6
			c0.4-0.4,0.7-0.8,0.7-1.5c0-0.6-0.2-1-0.6-1.3c-0.3-0.2-1.2-0.6-2.5-1.1c-1.1-0.4-1.9-0.7-2.4-1c-1.4-0.8-2.1-2-2.1-3.6
			c0-1.5,0.6-2.7,1.7-3.6c1-0.8,2.4-1.2,4.1-1.2c1.6,0,3.4,0.4,5.1,1.1l-0.9,2.8c-1.4-0.8-2.7-1.2-4.1-1.2c-0.7,0-1.3,0.2-1.7,0.5
			c-0.5,0.3-0.7,0.8-0.7,1.3c0,0.6,0.3,1,0.9,1.4c0.3,0.2,1.2,0.5,2.5,1c1.6,0.6,2.7,1.2,3.4,1.9c0.6,0.7,1,1.5,1,2.6
			c0,1.5-0.5,2.7-1.6,3.6c-1.1,1-2.6,1.5-4.5,1.5C624.7,239,623,238.5,621.3,237.7z"/>
		<path class="st1" d="M634.8,237.7l1-2.8c0.6,0.4,1.1,0.6,1.4,0.7c0.9,0.4,1.8,0.6,2.7,0.6c0.8,0,1.5-0.2,1.9-0.6
			c0.4-0.4,0.7-0.8,0.7-1.5c0-0.6-0.2-1-0.6-1.3c-0.3-0.2-1.2-0.6-2.5-1.1c-1.1-0.4-1.9-0.7-2.4-1c-1.4-0.8-2.1-2-2.1-3.6
			c0-1.5,0.6-2.7,1.7-3.6c1-0.8,2.4-1.2,4.1-1.2c1.6,0,3.4,0.4,5.1,1.1l-0.9,2.8c-1.4-0.8-2.7-1.2-4.1-1.2c-0.7,0-1.3,0.2-1.7,0.5
			c-0.5,0.3-0.7,0.8-0.7,1.3c0,0.6,0.3,1,0.9,1.4c0.3,0.2,1.2,0.5,2.5,1c1.6,0.6,2.7,1.2,3.4,1.9c0.6,0.7,1,1.5,1,2.6
			c0,1.5-0.5,2.7-1.6,3.6c-1.1,1-2.6,1.5-4.5,1.5C638.2,239,636.4,238.5,634.8,237.7z"/>
		<path class="st1" d="M656.4,222.5c2.5,0,4.4,0.8,5.8,2.5c1.2,1.5,1.9,3.4,1.9,5.8c0,2.6-0.7,4.6-2.2,6.1c-1.4,1.4-3.2,2.1-5.6,2.1
			c-2.5,0-4.5-0.8-5.9-2.5c-1.2-1.5-1.9-3.4-1.9-5.8c0-2.6,0.7-4.6,2.2-6.1C652.2,223.2,654,222.5,656.4,222.5z M656.3,225.2
			c-1.4,0-2.5,0.7-3.2,2.1c-0.5,0.9-0.7,2.1-0.7,3.4c0,1.5,0.3,2.7,0.8,3.7c0.7,1.2,1.8,1.8,3.1,1.8c1.5,0,2.6-0.7,3.3-2.1
			c0.5-0.9,0.7-2.1,0.7-3.4c0-1.5-0.3-2.7-0.8-3.7C658.8,225.8,657.7,225.2,656.3,225.2z"/>
		<path class="st1" d="M667.8,238.6v-9.9c0-2,0-4-0.1-5.9h3.4l0.1,3c0.9-2.1,2.3-3.2,4.2-3.2c0.4,0,0.9,0.1,1.4,0.2l-0.2,3.2
			c-0.5-0.1-0.9-0.2-1.2-0.2c-1.2,0-2.1,0.5-2.9,1.5c-0.4,0.6-0.8,1.3-1,2.1v9.2H667.8z"/>
		<path class="st1" d="M685.8,237.8l0.5-3.3c2.3,0.9,4.2,1.3,5.8,1.3c1.2,0,2.2-0.3,2.8-0.9c0.6-0.6,0.9-1.3,0.9-2.2
			c0-0.8-0.3-1.4-0.8-1.9c-0.5-0.4-1.6-1-3.3-1.7c-1.6-0.7-2.6-1.2-3.1-1.5c-1.1-0.6-1.9-1.4-2.3-2.2c-0.4-0.7-0.5-1.5-0.5-2.4
			c0-2.1,0.7-3.7,2.2-4.8c1.2-1,2.9-1.5,5-1.5c1.8,0,3.7,0.4,6,1.1l-0.7,3.2c-2-0.8-3.7-1.2-5.1-1.2c-1,0-1.8,0.2-2.5,0.7
			c-0.6,0.5-1,1.2-1,2c0,0.7,0.3,1.3,0.8,1.8c0.5,0.4,1.5,1,3.1,1.6c1.6,0.7,2.7,1.2,3.3,1.5c1.2,0.7,2,1.5,2.4,2.4
			c0.4,0.8,0.5,1.7,0.5,2.7c0,2.1-0.7,3.8-2.2,4.9c-1.3,1-3.1,1.5-5.4,1.5C690.1,239,687.9,238.6,685.8,237.8z"/>
		<path class="st1" d="M717.2,222.8V233c0,2.1,0.1,4,0.1,5.6h-3.4l-0.1-2.3c-0.6,0.6-1.1,1.1-1.6,1.5c-1.1,0.8-2.4,1.2-3.9,1.2
			c-2,0-3.5-0.7-4.2-2.2c-0.5-0.9-0.7-2.3-0.7-4.4v-9.5h3.6v9.3c0,1.3,0.1,2.2,0.3,2.7c0.4,0.9,1.1,1.4,2.2,1.4
			c1.4,0,2.8-0.9,4.1-2.7v-10.7H717.2z"/>
		<path class="st1" d="M722,238.6v-10.3c0-1.9,0-3.4-0.1-4.5l0-1.1h3.4l0.1,2.3c0.5-0.6,1.1-1.1,1.6-1.5c1.1-0.8,2.3-1.2,3.7-1.2
			c2.2,0,3.6,1,4.3,2.9c0.6-0.7,1.2-1.3,1.7-1.7c1.1-0.8,2.3-1.2,3.6-1.2c2,0,3.3,0.7,4.1,2.2c0.4,0.9,0.7,2.4,0.7,4.4v9.5h-3.6
			v-9.3c0-1.3-0.1-2.2-0.3-2.7c-0.3-0.9-1-1.4-2-1.4c-1.3,0-2.6,0.9-3.8,2.7v10.7h-3.6v-9.7c0-1.1-0.1-2-0.4-2.5
			c-0.4-0.8-1-1.2-1.9-1.2c-1.3,0-2.6,0.9-3.8,2.7v10.7H722z"/>
		<path class="st1" d="M749.7,238.6v-10.3c0-1.9,0-3.4-0.1-4.5l0-1.1h3.4l0.1,2.3c0.5-0.6,1.1-1.1,1.6-1.5c1.1-0.8,2.3-1.2,3.7-1.2
			c2.2,0,3.6,1,4.3,2.9c0.6-0.7,1.2-1.3,1.7-1.7c1.1-0.8,2.3-1.2,3.6-1.2c2,0,3.3,0.7,4.1,2.2c0.4,0.9,0.7,2.4,0.7,4.4v9.5h-3.6
			v-9.3c0-1.3-0.1-2.2-0.3-2.7c-0.3-0.9-1-1.4-2-1.4c-1.3,0-2.6,0.9-3.8,2.7v10.7h-3.6v-9.7c0-1.1-0.1-2-0.4-2.5
			c-0.4-0.8-1-1.2-1.9-1.2c-1.3,0-2.6,0.9-3.8,2.7v10.7H749.7z"/>
		<path class="st1" d="M779.2,215.4c0.7,0,1.3,0.2,1.7,0.7c0.4,0.4,0.5,0.9,0.5,1.5c0,0.6-0.2,1.1-0.5,1.5c-0.4,0.5-1,0.8-1.7,0.8
			s-1.3-0.3-1.7-0.8c-0.4-0.4-0.5-0.9-0.5-1.5c0-0.6,0.2-1.1,0.5-1.5C777.9,215.7,778.5,215.4,779.2,215.4z M777.4,238.6v-15.8h3.6
			v15.8H777.4z"/>
		<path class="st1" d="M786.6,225.6h-2.5v-2.8h2.5v-3.4l3.6-0.7v4.1h3.6v2.8h-3.6v7.3c0,1.1,0.1,1.8,0.3,2.2
			c0.3,0.6,0.9,0.9,1.8,0.9c0.4,0,1-0.1,1.7-0.4l0.3,2.8c-1.1,0.4-2.2,0.5-3.2,0.5c-1.8,0-3-0.5-3.8-1.6c-0.5-0.8-0.8-2.2-0.8-4.2
			V225.6z"/>
	</g>
	<g>
		<path class="st1" d="M36.3,144.9l0.7-4.5c3.2,1.2,5.9,1.9,8,1.9c1.7,0,3-0.4,3.9-1.3c0.8-0.8,1.2-1.8,1.2-3c0-1.1-0.4-2-1.1-2.6
			c-0.7-0.6-2.2-1.4-4.6-2.4c-2.9-1.2-4.8-2.2-5.8-3c-1.6-1.3-2.5-3.1-2.5-5.4c0-2.9,1-5.1,3-6.7c1.7-1.4,4-2.1,6.9-2.1
			c2.4,0,5.2,0.5,8.4,1.5l-1,4.4c-2.8-1.1-5.1-1.7-7.1-1.7c-1.4,0-2.6,0.3-3.4,1c-0.9,0.7-1.3,1.6-1.3,2.8c0,1,0.4,1.8,1.1,2.4
			c0.7,0.6,2.1,1.4,4.2,2.3c3.1,1.3,5.1,2.3,6.2,3.3c1.7,1.4,2.5,3.3,2.5,5.9c0,3-1,5.2-3.1,6.8c-1.8,1.4-4.3,2.1-7.4,2.1
			C42.3,146.4,39.3,145.9,36.3,144.9z"/>
		<path class="st1" d="M65,136.6c0.4,4.1,2.5,6.1,6.3,6.1c2.2,0,4.4-0.7,6.5-2.1l1.8,3.7c-2.5,1.5-5.4,2.2-8.4,2.2
			c-3.9,0-6.8-1.1-8.8-3.2c-1.8-1.9-2.7-4.7-2.7-8.2c0-3.7,1-6.6,3.1-8.7c1.8-1.9,4.3-2.8,7.4-2.8c4.6,0,7.7,1.8,9,5.4
			c0.7,1.8,1,4.3,1.1,7.7H65z M75.2,133c0-1.3-0.3-2.4-0.8-3.3c-0.8-1.6-2.2-2.4-4.2-2.4c-1.9,0-3.4,0.8-4.3,2.4
			c-0.5,1-0.8,2.1-0.9,3.4H75.2z"/>
		<path class="st1" d="M88.3,113.8c1,0,1.8,0.3,2.4,1c0.5,0.6,0.7,1.3,0.7,2.1c0,0.8-0.2,1.5-0.7,2.1c-0.6,0.7-1.4,1.1-2.4,1.1
			s-1.8-0.4-2.4-1.1c-0.5-0.6-0.7-1.3-0.7-2.1c0-0.8,0.2-1.5,0.7-2.1C86.5,114.1,87.3,113.8,88.3,113.8z M85.7,146v-22h5v22H85.7z"
			/>
		<path class="st1" d="M95.5,146v-3.4l10.8-14.7H96.1V124h16.4v3.6l-10.7,14.6h11v3.8H95.5z"/>
		<path class="st1" d="M121.4,136.6c0.4,4.1,2.5,6.1,6.3,6.1c2.2,0,4.4-0.7,6.5-2.1l1.8,3.7c-2.5,1.5-5.4,2.2-8.4,2.2
			c-3.9,0-6.8-1.1-8.8-3.2c-1.8-1.9-2.7-4.7-2.7-8.2c0-3.7,1-6.6,3.1-8.7c1.8-1.9,4.3-2.8,7.4-2.8c4.6,0,7.7,1.8,9,5.4
			c0.7,1.8,1,4.3,1.1,7.7H121.4z M131.6,133c0-1.3-0.3-2.4-0.8-3.3c-0.8-1.6-2.2-2.4-4.2-2.4c-1.9,0-3.4,0.8-4.3,2.4
			c-0.5,1-0.8,2.1-0.9,3.4H131.6z"/>
		<path class="st1" d="M165.5,115.7c4.4,0,7.8,1.5,10.2,4.5c2.3,2.9,3.5,6.5,3.5,10.9c0,4.8-1.4,8.6-4.1,11.6
			c-2.4,2.5-5.6,3.8-9.7,3.8c-4.5,0-7.9-1.5-10.3-4.5c-2.3-2.9-3.5-6.5-3.5-10.9c0-4.8,1.4-8.7,4.1-11.6
			C158,116.9,161.3,115.7,165.5,115.7z M165.3,119.9c-2.7,0-4.7,1.1-6.2,3.3c-1.4,2-2,4.6-2,7.8c0,3.6,0.8,6.4,2.4,8.4
			c1.5,1.9,3.5,2.8,6,2.8c2.7,0,4.8-1.1,6.4-3.3c1.4-2,2-4.6,2-7.9c0-3.6-0.8-6.4-2.4-8.4C169.8,120.8,167.8,119.9,165.3,119.9z"/>
		<path class="st1" d="M184.8,155.2v-22.4c0-3.5-0.1-6.5-0.2-8.8h4.8l0.2,3c1.9-2.3,4.1-3.5,6.7-3.5c2.8,0,5,1.1,6.6,3.4
			c1.5,2.1,2.3,4.8,2.3,8.1c0,3.6-0.9,6.5-2.6,8.6c-1.6,1.9-3.6,2.9-6.2,2.9c-2.6,0-4.8-1.1-6.4-3.3v12.1H184.8z M189.8,138.8
			c1.6,2.5,3.3,3.8,5.2,3.8c1.6,0,2.8-0.8,3.7-2.3c0.8-1.5,1.2-3.2,1.2-5.4c0-2.2-0.4-4-1.3-5.4c-0.9-1.4-2.1-2.1-3.7-2.1
			c-1.9,0-3.6,1.2-5.1,3.6V138.8z"/>
		<path class="st1" d="M210.5,155.2v-22.4c0-3.5-0.1-6.5-0.2-8.8h4.8l0.2,3c1.9-2.3,4.1-3.5,6.7-3.5c2.8,0,5,1.1,6.6,3.4
			c1.5,2.1,2.3,4.8,2.3,8.1c0,3.6-0.9,6.5-2.6,8.6c-1.6,1.9-3.6,2.9-6.2,2.9c-2.6,0-4.8-1.1-6.4-3.3v12.1H210.5z M215.5,138.8
			c1.6,2.5,3.3,3.8,5.2,3.8c1.6,0,2.8-0.8,3.7-2.3c0.8-1.5,1.2-3.2,1.2-5.4c0-2.2-0.4-4-1.3-5.4c-0.9-1.4-2.1-2.1-3.7-2.1
			c-1.9,0-3.6,1.2-5.1,3.6V138.8z"/>
		<path class="st1" d="M245.5,123.5c3.4,0,6.1,1.1,8,3.4c1.7,2.1,2.6,4.7,2.6,8c0,3.6-1,6.5-3.1,8.5c-1.9,2-4.5,2.9-7.7,2.9
			c-3.5,0-6.2-1.1-8.2-3.4c-1.7-2.1-2.6-4.7-2.6-8.1c0-3.6,1-6.4,3.1-8.5C239.5,124.5,242.2,123.5,245.5,123.5z M245.3,127.3
			c-2,0-3.5,1-4.5,2.9c-0.7,1.3-1,2.9-1,4.8c0,2.1,0.4,3.8,1.2,5.1c1,1.7,2.5,2.5,4.4,2.5c2.1,0,3.6-1,4.5-2.9c0.7-1.3,1-2.9,1-4.8
			c0-2.1-0.4-3.8-1.2-5.1C248.7,128.2,247.3,127.3,245.3,127.3z"/>
		<path class="st1" d="M261.7,146v-13.7c0-2.8-0.1-5.5-0.2-8.3h4.7l0.2,4.1c1.3-3,3.2-4.5,5.8-4.5c0.6,0,1.2,0.1,1.9,0.3l-0.3,4.5
			c-0.6-0.1-1.2-0.2-1.7-0.2c-1.6,0-2.9,0.7-4,2.1c-0.6,0.8-1.1,1.8-1.4,2.9V146H261.7z"/>
		<path class="st1" d="M279.2,127.8h-3.5V124h3.5v-4.8l5-1v5.7h5v3.8h-5V138c0,1.5,0.1,2.5,0.4,3.1c0.4,0.9,1.3,1.3,2.5,1.3
			c0.6,0,1.4-0.2,2.4-0.5l0.4,3.8c-1.5,0.5-3,0.7-4.5,0.7c-2.5,0-4.2-0.8-5.2-2.3c-0.7-1.1-1.1-3-1.1-5.9V127.8z"/>
		<path class="st1" d="M313.2,124v14.2c0,2.6,0.1,5.2,0.2,7.7h-4.7l-0.2-3.2c-0.8,0.8-1.6,1.5-2.3,2c-1.6,1.1-3.4,1.7-5.4,1.7
			c-2.8,0-4.8-1-5.9-3.1c-0.6-1.2-0.9-3.3-0.9-6.1V124h5v13c0,1.8,0.1,3,0.4,3.7c0.5,1.3,1.5,1.9,3,1.9c2,0,3.9-1.2,5.7-3.7V124
			H313.2z"/>
		<path class="st1" d="M320.3,146v-14.3c0-2.2,0-4.3-0.1-6.3l-0.1-1.4h4.7l0.2,3.2c0.9-0.9,1.6-1.6,2.3-2c1.6-1.1,3.4-1.7,5.5-1.7
			c2.9,0,4.9,1,6,3.1c0.6,1.2,1,3.2,1,6.1V146h-5v-13c0-1.8-0.1-3-0.4-3.7c-0.5-1.3-1.6-1.9-3.2-1.9c-2,0-4,1.2-5.8,3.7V146H320.3z"
			/>
		<path class="st1" d="M349.3,113.8c1,0,1.8,0.3,2.4,1c0.5,0.6,0.7,1.3,0.7,2.1c0,0.8-0.2,1.5-0.7,2.1c-0.6,0.7-1.4,1.1-2.4,1.1
			c-1,0-1.8-0.4-2.4-1.1c-0.5-0.6-0.7-1.3-0.7-2.1c0-0.8,0.2-1.5,0.7-2.1C347.5,114.1,348.3,113.8,349.3,113.8z M346.7,146v-22h5v22
			H346.7z"/>
		<path class="st1" d="M360,127.8h-3.5V124h3.5v-4.8l5-1v5.7h5v3.8h-5V138c0,1.5,0.1,2.5,0.4,3.1c0.4,0.9,1.3,1.3,2.5,1.3
			c0.6,0,1.4-0.2,2.4-0.5l0.4,3.8c-1.5,0.5-3,0.7-4.5,0.7c-2.5,0-4.2-0.8-5.2-2.3c-0.7-1.1-1.1-3-1.1-5.9V127.8z"/>
		<path class="st1" d="M380.5,145.6l-8.8-21.6h5.4l4.4,11.1c0.6,1.6,1.3,3.3,1.9,5c0.6-2,1.3-3.7,1.9-5.3l4.1-10.9h4.9l-8.9,22.4
			c-1.3,3.3-2.5,5.7-3.6,6.9c-1.3,1.6-3.2,2.3-5.7,2.3c-1.3,0-2.8-0.3-4.4-0.8l0.9-3.9c1.1,0.4,2,0.6,2.7,0.6c1.5,0,2.8-0.8,3.7-2.5
			C379.5,148.2,380,147,380.5,145.6z"/>
		<path class="st1" d="M411.5,130.4c1,0,1.7,0.3,2.4,1c0.6,0.6,0.9,1.4,0.9,2.4c0,0.9-0.3,1.7-0.9,2.4c-0.6,0.7-1.4,1-2.4,1
			c-1,0-1.8-0.3-2.4-1c-0.6-0.6-0.9-1.4-0.9-2.3c0-1,0.3-1.8,0.9-2.4C409.7,130.7,410.5,130.4,411.5,130.4z"/>
		<path class="st1" d="M432.1,146v-29.8h5.2v25.6h12.9v4.2H432.1z"/>
		<path class="st1" d="M457.3,136.6c0.4,4.1,2.5,6.1,6.3,6.1c2.2,0,4.4-0.7,6.5-2.1l1.8,3.7c-2.5,1.5-5.3,2.2-8.4,2.2
			c-3.9,0-6.8-1.1-8.8-3.2c-1.8-1.9-2.7-4.7-2.7-8.2c0-3.7,1-6.6,3.1-8.7c1.8-1.9,4.3-2.8,7.4-2.8c4.6,0,7.7,1.8,9,5.4
			c0.7,1.8,1,4.3,1.1,7.7H457.3z M467.5,133c0-1.3-0.3-2.4-0.8-3.3c-0.8-1.6-2.2-2.4-4.2-2.4c-1.9,0-3.4,0.8-4.3,2.4
			c-0.5,1-0.8,2.1-0.9,3.4H467.5z"/>
		<path class="st1" d="M490.1,143.5c-0.8,0.8-1.5,1.4-2.2,1.8c-1.3,0.8-2.8,1.2-4.6,1.2c-2.3,0-4-0.6-5.2-1.8
			c-1.2-1.2-1.9-2.8-1.9-4.8c0-2.7,1.1-4.8,3.3-6.1c1.4-0.8,3.6-1.2,6.6-1.2c0.9,0,2.1,0,3.6,0.1v-0.4c0-3.3-1.6-5-4.9-5
			c-1.8,0-3.8,0.6-5.9,1.8l-1.3-3.6c2.5-1.3,5.2-1.9,7.9-1.9c3.5,0,6.1,1,7.6,2.9c0.8,1,1.3,2.3,1.5,4c0.1,0.8,0.1,1.9,0.1,3.4v6.6
			c0,2.3,0.1,4.2,0.2,5.6h-4.8L490.1,143.5z M489.8,135.8c-0.8-0.1-1.6-0.1-2.3-0.1c-4.1,0-6.1,1.3-6.1,4c0,0.9,0.3,1.7,0.9,2.3
			c0.6,0.7,1.5,1,2.5,1c1.9,0,3.6-1,5-3.1V135.8z"/>
		<path class="st1" d="M515.6,114.5h5v23.7c0,3.2,0.1,5.8,0.2,7.7H516l-0.2-3.1c-0.7,1-1.4,1.7-2.1,2.2c-1.3,0.9-2.8,1.4-4.6,1.4
			c-2.8,0-5.1-1.1-6.6-3.4c-1.5-2.1-2.2-4.8-2.2-8.1c0-3.6,0.9-6.4,2.6-8.6c1.6-1.9,3.6-2.9,6.2-2.9c2.6,0,4.7,1.1,6.4,3.3V114.5z
			 M515.6,131c-1.4-2.4-3.1-3.6-5.1-3.6c-1.6,0-2.8,0.7-3.7,2.1c-0.9,1.4-1.3,3.2-1.3,5.4c0,2.1,0.4,3.9,1.2,5.4
			c0.8,1.6,2.1,2.3,3.7,2.3c1.9,0,3.7-1.3,5.2-3.8V131z"/>
		<path class="st1" d="M538.6,146v-29.8h17.5v4.2h-12.3v8.4h11.7v4.2h-11.7v13H538.6z"/>
		<path class="st1" d="M580.8,124v14.2c0,2.6,0.1,5.2,0.2,7.7h-4.7l-0.2-3.2c-0.8,0.8-1.6,1.5-2.3,2c-1.6,1.1-3.4,1.7-5.4,1.7
			c-2.8,0-4.8-1-5.9-3.1c-0.6-1.2-0.9-3.3-0.9-6.1V124h5v13c0,1.8,0.1,3,0.4,3.7c0.5,1.3,1.5,1.9,3,1.9c2,0,3.9-1.2,5.7-3.7V124
			H580.8z"/>
		<path class="st1" d="M589.1,127.8h-3.5V124h3.5v-4.8l5-1v5.7h5v3.8h-5V138c0,1.5,0.1,2.5,0.4,3.1c0.4,0.9,1.3,1.3,2.5,1.3
			c0.6,0,1.4-0.2,2.4-0.5l0.4,3.8c-1.5,0.5-3,0.7-4.5,0.7c-2.5,0-4.2-0.8-5.2-2.3c-0.7-1.1-1.1-3-1.1-5.9V127.8z"/>
		<path class="st1" d="M623.1,124v14.2c0,2.6,0.1,5.2,0.2,7.7h-4.7l-0.2-3.2c-0.8,0.8-1.6,1.5-2.3,2c-1.6,1.1-3.4,1.7-5.4,1.7
			c-2.8,0-4.8-1-5.9-3.1c-0.6-1.2-0.9-3.3-0.9-6.1V124h5v13c0,1.8,0.1,3,0.4,3.7c0.5,1.3,1.5,1.9,3,1.9c2,0,3.9-1.2,5.7-3.7V124
			H623.1z"/>
		<path class="st1" d="M630.2,146v-13.7c0-2.8-0.1-5.5-0.2-8.3h4.7l0.2,4.1c1.3-3,3.2-4.5,5.8-4.5c0.6,0,1.2,0.1,1.9,0.3l-0.3,4.5
			c-0.6-0.1-1.2-0.2-1.7-0.2c-1.6,0-2.9,0.7-4,2.1c-0.6,0.8-1.1,1.8-1.4,2.9V146H630.2z"/>
		<path class="st1" d="M650.3,136.6c0.4,4.1,2.5,6.1,6.3,6.1c2.2,0,4.4-0.7,6.5-2.1l1.8,3.7c-2.5,1.5-5.3,2.2-8.4,2.2
			c-3.9,0-6.8-1.1-8.8-3.2c-1.8-1.9-2.7-4.7-2.7-8.2c0-3.7,1-6.6,3.1-8.7c1.8-1.9,4.3-2.8,7.4-2.8c4.6,0,7.7,1.8,9,5.4
			c0.7,1.8,1,4.3,1.1,7.7H650.3z M660.5,133c0-1.3-0.3-2.4-0.8-3.3c-0.8-1.6-2.2-2.4-4.2-2.4c-1.9,0-3.4,0.8-4.3,2.4
			c-0.5,1-0.8,2.1-0.9,3.4H660.5z"/>
	</g>
</g>
</svg>
