<?xml version="1.0" encoding="utf-8"?>
<!-- Generator: Adobe Illustrator 22.0.0, SVG Export Plug-In . SVG Version: 6.00 Build 0)  -->
<svg version="1.1" id="图层_1" xmlns="http://www.w3.org/2000/svg" xmlns:xlink="http://www.w3.org/1999/xlink" x="0px" y="0px"
	 viewBox="0 0 837.2 275.3" style="enable-background:new 0 0 837.2 275.3;" xml:space="preserve">
<style type="text/css">
	.st0{fill:url(#SVGID_1_);}
	.st1{fill:#FFFFFF;}
</style>
<linearGradient id="SVGID_1_" gradientUnits="userSpaceOnUse" x1="-233.5161" y1="64.6926" x2="-228.7526" y2="64.6926" gradientTransform="matrix(175.748 0 0 175.748 41039.9805 -11231.9688)">
	<stop  offset="0" style="stop-color:#43BBBF"/>
	<stop  offset="9.350502e-02" style="stop-color:#30B4B8"/>
	<stop  offset="0.2502" style="stop-color:#16ABAF"/>
	<stop  offset="0.3906" style="stop-color:#06A6A9"/>
	<stop  offset="0.5" style="stop-color:#00A4A7"/>
	<stop  offset="0.6324" style="stop-color:#00A3AD"/>
	<stop  offset="0.8112" style="stop-color:#00A2BE"/>
	<stop  offset="1" style="stop-color:#00A0D8"/>
</linearGradient>
<rect y="0" class="st0" width="837.2" height="275.3"/>
<g>
	<path class="st1" d="M32.3,61l3.4-4.6c0.9,0.6,2.7,1.8,5.5,3.5c1,0.7,2.7,2,4.9,4l-3.8,5.2C39.4,66,36,63.3,32.3,61z M33.9,92.3
		c3.9-5.3,6.9-12.3,9.2-21l5.4,3.1L47.9,76c-2.8,7.8-5.6,14.2-8.5,19.3L33.9,92.3z M36.1,45.9l3.5-4.2c3.9,2.1,7.4,4.6,10.3,7.4
		l-4.3,4.5c-0.3-0.3-0.5-0.6-0.7-0.7C42.9,50.7,40,48.4,36.1,45.9z M50,88.6V69.1h33.5v19.5H88v4.9H45.7v-4.9H50z M81.1,43.4v22.4
		H52.7V43.4H81.1z M55.3,88.6h4.3V74h-4.3V88.6z M58.3,52.5h17.1v-4.2H58.3V52.5z M58.3,61h17.1v-4H58.3V61z M64.4,88.6h4.4V74h-4.4
		V88.6z M73.5,88.6h4.6V74h-4.6V88.6z"/>
	<path class="st1" d="M110.1,93.7v2.2H105V83.3l-1.3,0.3c-3.1,0.7-5.3,1.3-6.6,1.5l-2.5-4.8c5-0.6,8.8-1.3,11.2-2.1
		c1.9-0.6,4.1-1.5,6.6-2.7H98V72h21.9v-1.4c-2.2,0.1-5.4,0.3-9.6,0.4c-0.4,0-1.7,0.1-4.1,0.3l-2.3-4.5l1.8,0.1l2.8,0.1
		c3.4,0.1,5.6,0.2,6.6,0.2c5.8,0,11.6-0.3,17.3-0.9c1.3-0.1,2.9-0.4,5-0.8l3.1,4.2c-6.1,0.6-11.3,1-15.7,1V72h22.4v3.6h-15.6
		c0.5,0.2,1,0.5,1.6,0.8c3.6,1.7,8.4,3.1,14.3,4c1.4,0.2,2.4,0.4,3,0.5l-2.3,4.6c-3.2-0.7-6.1-1.4-8.5-2.1v12.6h-5.1v-2.2H110.1z
		 M96.2,67.9c1.2-1.3,2-2.2,2.3-2.9c0.4-0.8,0.8-1.8,1.1-3.2c0.3-1.4,0.5-2.6,0.5-3.8v-4.7h22.1v10.1h-18.3
		c-0.7,2.7-1.9,5.1-3.8,7.1L96.2,67.9z M109.4,43.5v-3.1h4.4v3.1h10.3v3.5h-10.3v1.7h7.8v3.5h-21.1v-3.5h8.9v-1.7h-11v-3.5H109.4z
		 M104.5,59.9h4.6V57h-4.6V59.9z M110.1,85.1h24.6v-1.8h-24.6V85.1z M110.1,90.2h24.6v-1.7h-24.6V90.2z M113.7,59.9h4V57h-4V59.9z
		 M113.7,79.7h6.2v-3.8c-0.5,0.3-1.3,0.8-2.3,1.5C116.5,78.2,115.2,78.9,113.7,79.7z M125.4,53.6l-2.9-2.5c0.5-0.3,0.8-0.5,1.1-0.6
		c0.8-0.4,1.3-0.8,1.7-1.3c0.7-0.8,1-2.2,1-4.3v-2.3H142v4.2c0,0.9,0.1,1.4,0.3,1.6c0.2,0.3,1,0.4,2.3,0.4h4.5l-1.3,4.1h-5.4
		c-2,0-3.3-0.3-3.9-0.8c-0.7-0.6-1.1-1.7-1.1-3v-2.7H131c0,1.7-0.4,3.1-1,4.2c-0.5,0.9-1.5,1.9-3.1,3h19.8c-2.1,3.1-4.1,5.6-6,7.3
		c-0.1,0.1-0.2,0.2-0.3,0.3c0.2,0.1,0.4,0.1,0.6,0.2l3.4,1.5c1,0.5,2.3,1,3.7,1.6l-2.4,4c-1.8-1.1-4-2.2-6.7-3.4
		c-1.1-0.5-1.9-0.8-2.2-1c-0.1-0.1-0.3-0.1-0.5-0.3c-0.2,0.1-0.3,0.2-0.5,0.2c-1.8,0.9-5.9,1.8-12.3,2.7l-1-4.4c0.6,0,1.4,0,2.2,0
		c2.4,0,4.6-0.3,6.5-0.8c-0.1,0-0.2-0.1-0.3-0.1c-0.7-0.3-2.4-0.9-5.1-1.8l1.3-2.6h-2.3v-3.4H125.4z M124.9,79.7h5.5
		c-1.5-0.8-3.4-2.1-5.5-3.8V79.7z M130.4,57c1.8,0.7,3.6,1.4,5.6,2.3c0.2-0.1,0.3-0.2,0.4-0.3c0.3-0.2,1-0.8,1.9-1.9H130.4z"/>
	<path class="st1" d="M170.6,66.7c0.1-0.1,0.2-0.1,0.3-0.2c2.2-1.2,3.9-2.2,5.2-3l1.1,5.7c-1.5,1-3.6,2.1-6.3,3.4
		c-0.1,0.1-0.3,0.1-0.4,0.2v17.5c0,1.7-0.8,2.9-2.4,3.7c-1.5,0.7-4.2,1.3-7.8,1.8l-2.2-6.6h5.4c0.6,0,0.9-0.1,1.1-0.3
		c0.2-0.2,0.3-0.6,0.3-1.1V75.4l-0.2,0.1c-0.9,0.4-1.4,0.7-1.5,0.7c-2,0.9-3.4,1.5-4.2,1.9l-2.5-5.8c0.6-0.2,1.6-0.5,3-1.1l4.8-1.9
		c0.2-0.1,0.4-0.2,0.7-0.3V56.5h-7.1V51h7.1V40.6h5.6V51h6.6v5.5h-6.6V66.7z M191.3,72.4h-13.5v-5.1h33.7v5.1H197v5.2h12.4v4.9H197
		v6.1c3.3,0.5,7,0.7,11.2,0.7c1.4,0,3-0.1,4.8-0.2l-1.9,5.7h-1.2h-2.2c-5.1,0-9.6-0.3-13.4-1c-3.5-0.6-6.5-2-9-4.4
		c-0.6-0.6-1.5-1.7-2.5-3.2c-0.2,0.4-0.4,0.8-0.5,1.1c-0.9,1.8-2.5,4.4-5,7.6l-0.7,1l-5-3.6c4.9-4.1,8.1-10.2,9.7-18.3l6,1.6
		c-0.2,0.6-0.4,1.1-0.5,1.5c-0.4,1.1-0.6,1.7-0.7,2c-0.1,0.3-0.2,0.6-0.4,1c0.9,1.8,1.7,3.1,2.3,4c1,1.3,2.1,2.3,3.5,3V72.4z
		 M181.4,43.4h26.1V65h-26.1V43.4z M187.1,51.8h14.6v-3.7h-14.6V51.8z M187.1,60.3h14.6v-3.8h-14.6V60.3z"/>
	<path class="st1" d="M244.6,64.3h-23.4v-5.5h51.3v5.5h-22.1v24.1c0,1.8-0.5,3.2-1.5,4.1c-1.2,1-4.7,1.7-10.5,1.9l-1.2-6h5.8
		c0.7,0,1.1-0.1,1.3-0.4c0.2-0.2,0.3-0.6,0.3-1.2V64.3z M221.5,85.9c3.1-3.1,5.5-5.8,7.2-8.2c1.6-2.3,3.3-5.1,5-8.5l5.1,3
		c-2.7,4.6-4.8,7.9-6.3,10c-1.5,2.1-3.7,4.6-6.4,7.5L221.5,85.9z M228.2,50.4v-5.5h38.3v5.5H228.2z M256.9,72.5l4.6-3.1
		c4.7,5.9,8.3,11.4,10.9,16.5l-4.8,2.9c-2.1-3.8-3.7-6.5-4.8-8.3C261.4,78.3,259.4,75.6,256.9,72.5z"/>
</g>
<g>
	<path class="st1" d="M32.7,204.5v-3c2.8-2.6,5-4.7,6.5-6.4c1.5-1.7,2.5-2.9,2.9-3.8c0.4-0.9,0.7-1.7,0.7-2.5c0-0.9-0.3-1.6-1-2.2
		c-0.7-0.6-1.6-0.9-2.7-0.9c-1.5,0-3.2,0.5-5.1,1.6l-0.9-3.1c2.1-1,4.3-1.5,6.5-1.5c2.1,0,3.8,0.5,5,1.4c1.3,1,2,2.5,2,4.5
		c0,1.8-0.6,3.5-1.9,5.3c-1.4,1.9-3.7,4.5-7,7.5h9.1v3H32.7z"/>
	<path class="st1" d="M57.6,182.7c2.9,0,5,1.3,6.3,3.9c0.8,1.7,1.2,4.1,1.2,7.2c0,3.4-0.5,6-1.5,7.7c-1.3,2.2-3.3,3.3-6.1,3.3
		c-3,0-5.1-1.3-6.4-3.9c-0.8-1.7-1.2-4.1-1.2-7.2c0-3.4,0.5-6,1.5-7.7C52.7,183.8,54.7,182.7,57.6,182.7z M57.4,185.8
		c-2.5,0-3.7,2.7-3.7,8c0,5.4,1.3,8.1,3.8,8.1c2.5,0,3.8-2.7,3.8-8.1c0-2.7-0.3-4.7-0.9-5.9C59.7,186.5,58.8,185.8,57.4,185.8z"/>
	<path class="st1" d="M74.2,204.5v-17.3l-3.9,2.6l-1.6-3l5.9-3.8h3.2v21.4H74.2z"/>
	<path class="st1" d="M86.6,204.6l0.3-3.1c1,0.3,1.9,0.4,2.5,0.4c2.1,0,3.7-0.8,4.8-2.5c0.8-1.2,1.3-2.6,1.5-4.3
		c-1.2,1.2-2.7,1.8-4.4,1.8c-2,0-3.6-0.7-4.7-2.1c-1-1.2-1.4-2.7-1.4-4.7c0-2.2,0.6-4,1.8-5.3c1.3-1.4,3.1-2.1,5.4-2.1
		c4.9,0,7.4,3,7.4,9c0,3-0.5,5.6-1.5,7.8c-1.7,3.6-4.6,5.4-8.7,5.4C88.7,204.9,87.8,204.8,86.6,204.6z M92.3,185.7
		c-1,0-1.9,0.4-2.5,1.2c-0.6,0.8-0.9,1.8-0.9,3.1c0,1.2,0.3,2.2,0.8,2.9c0.6,0.8,1.5,1.2,2.6,1.2c1.1,0,2-0.4,2.7-1.3
		c0.6-0.7,0.9-1.7,0.9-2.9c0-1.3-0.3-2.4-1-3.1C94.3,186.1,93.4,185.7,92.3,185.7z"/>
	<path class="st1" d="M135.8,207.9h-3v-2.4h-17.2v2.4h-3.1v-19.2h7.3v-4.5h-9.2v-2.7H138v2.7h-9.5v4.5h7.3V207.9z M115.6,202.9h17.2
		v-11.7h-4.3v5.1c0,0.3,0.1,0.5,0.2,0.6c0.1,0.1,0.3,0.1,0.5,0.1h3.1v2.9h-3.5c-2.2,0-3.3-1-3.3-3.1v-5.6h-2.9
		c0,1.8-0.3,3.4-0.9,4.8c-0.5,1.3-1.3,2.4-2.2,3.5c-0.2,0.2-0.6,0.6-1.3,1.3l-2.3-2.2c0.3-0.2,0.5-0.4,0.6-0.5
		c1.5-1.3,2.4-2.5,2.8-3.8c0.2-0.7,0.3-1.7,0.4-3.1h-4.1V202.9z M122.8,188.7h2.8v-4.5h-2.8V188.7z"/>
	<path class="st1" d="M142.7,207.5v-22.1h2.8v22.1H142.7z M145.2,180.8l2.5-1.5l3,4.8l-2.7,1.5c-0.7-1.5-1.5-2.9-2.3-4.2
		C145.5,181.2,145.3,180.9,145.2,180.8z M166.5,181v23c0,1.4-0.5,2.3-1.4,2.8c-0.8,0.4-2.1,0.7-4,0.9l-1.3-3.7h2.9c0.7,0,1-0.3,1-1
		v-19.2h-11.3V181H166.5z"/>
	<path class="st1" d="M184.4,187.7c0.7-0.5,1.9-1.3,3.5-2.2c0.6-0.3,1.3-0.8,2.2-1.4h-15.7v-2.8H197v2.8c-0.3,0.1-0.5,0.2-0.9,0.4
		c-2.4,1-5.3,2.5-8.6,4.6v3h12.1v3h-12.1v9.9c0,1.6-1,2.5-2.9,2.9c-0.9,0.2-2,0.3-3.2,0.3l-1.3-3.5h3.5c0.3,0,0.5-0.1,0.7-0.2
		c0.1-0.1,0.2-0.3,0.2-0.7V195h-13.2v-3h13.2V187.7z"/>
	<path class="st1" d="M202.3,192.3c0.3-0.2,0.8-0.5,1.6-0.9c2.5-1.4,4.8-3.1,6.7-5.1l0.5-0.5l2.5,2.3l-0.5,0.4
		c-2,1.8-3.8,3.2-5.5,4.3c-0.9,0.6-2.1,1.3-3.5,2.1L202.3,192.3z M203,206.9V204h11.8v-7h-8.8v-2.9h21.2v2.9h-9.2v7h11.8v2.9H203z
		 M229.2,182.4v6.3h-3v-3.4h-19.7v3.4h-3.1v-6.3h11.2c-0.1-0.6-0.4-1.5-0.9-2.7l3.4-0.8c0.1,0.2,0.2,0.6,0.4,1
		c0.3,0.7,0.5,1.5,0.7,2.6H229.2z M218.7,188.2l2-2.4c0.3,0.2,0.9,0.5,1.8,1l1.3,0.8c2.7,1.7,4.7,3.1,6,4.1l-2.2,2.6
		c-2.1-1.8-4.9-3.7-8.4-5.8L218.7,188.2z"/>
	<path class="st1" d="M255.2,191.2c-0.1-0.1-0.3-0.2-0.4-0.3c-1.8-1.6-3.3-3.6-4.5-6c-0.6-1.2-1.3-2.9-1.9-5.1l2.8-0.6
		c0.4,1.2,0.7,2.3,1.1,3.1c0.5,1.1,1.3,2.4,2.3,3.7c1.1,1.5,2.4,2.7,3.8,3.6c0.7,0.5,1.7,0.9,3,1.4l-1.7,3c-1.6-0.7-3-1.5-4.2-2.5
		l-0.9,11c-0.1,1.4-0.3,2.4-0.7,3c-0.5,0.9-1.8,1.6-3.7,2c-0.6,0.1-1.3,0.2-2.1,0.3l-1.2-3.7h0.6c0.4,0,0.8,0,1,0
		c1.1,0,1.9-0.1,2.2-0.2c0.3-0.1,0.5-0.4,0.6-0.8c0.1-0.2,0.2-0.8,0.2-1.6l0.6-7.3h-6c-0.4,2.9-0.9,5-1.5,6.3
		c-0.7,1.6-1.9,3-3.6,4.3c-1.1,0.8-2.5,1.7-4.5,2.6c-0.2,0.1-0.6,0.3-1.2,0.6l-1.7-3.1c3.2-1.1,5.5-2.4,6.9-3.9
		c1.1-1.3,1.9-3,2.2-5.1c0-0.3,0.1-0.9,0.2-1.8h-4.8V192c-0.9,0.9-2.1,1.8-3.5,2.9l-2.1-2.8c2.6-1.3,4.8-3.4,6.7-6.2
		c1.3-1.9,2.4-4,3.2-6.2l2.9,1.3c-1.8,4.2-4,7.6-6.3,10.1H255.2z"/>
	<path class="st1" d="M263.6,204.6l0.5-0.5c1.2-1,2.2-2.1,3.1-3.2c1.5-1.8,2.6-4.3,3.4-7.6c0.5-2.2,0.9-4.9,1.1-8.3l0.1-1h-5.7v-2.8
		h20.7l-3.8,8.4h5.5c-0.9,3.2-1.8,5.6-2.8,7.4c-0.7,1.4-1.6,2.6-2.5,3.6c-0.2,0.3-0.4,0.5-0.6,0.7c0.6,0.4,1.1,0.8,1.6,1.1
		c0.8,0.4,1.8,0.8,2.8,1.1c0.3,0.1,1.2,0.3,2.8,0.7l0.7,0.2c0.3,0.1,0.6,0.2,0.9,0.2l-1.5,3.2c-1.9-0.6-3.6-1.2-5.1-1.9
		c-1.7-0.7-3.1-1.6-4.3-2.6c-2,1.3-3.9,2.4-5.8,3.2c-0.5,0.2-1.7,0.7-3.7,1.4l-1.5-2.9c1.7-0.5,3-0.9,3.9-1.2c1.8-0.7,3.5-1.5,5-2.5
		c-1.4-2-2.4-3.7-3-5c-0.3-0.7-0.9-2.1-1.7-4.2c-0.6,3.4-1.6,6.2-3,8.6c-1.2,2-2.5,3.6-3.9,5c-0.1,0.1-0.5,0.4-1.2,1.1L263.6,204.6z
		 M274,190.9l2.2-0.7l0.2,0.7c0.8,2.3,1.3,3.7,1.6,4.3c0.7,1.5,1.4,2.7,2.2,3.7c0.2,0.2,0.3,0.4,0.5,0.7c1.6-1.9,3-4.3,4-7.1h-5.8
		l3.6-8.3h-7.6C274.6,186.5,274.3,188.8,274,190.9z"/>
	<path class="st1" d="M293.7,191.5v-2.7h5.4v-7.6h3v7.6h4.7v-9.9h3.2v3.5h9.8v2.7h-9.8v3.7h12.6v2.7H293.7z M296.7,206.4v-13.2h3.2
		v10.4h16.7v-10.4h3.2v15.1h-3.2v-1.9H296.7z M308.5,194.8c0.3,0.2,0.6,0.4,1,0.7c2.6,1.9,4.8,3.5,6.6,5l-2.3,2.4
		c-1.2-1.2-2.2-2.1-3-2.8c-0.6-0.5-1.8-1.5-3.6-2.8c-0.1,0.1-0.2,0.3-0.3,0.5c-1,1.6-1.9,2.8-2.7,3.7c-0.4,0.5-0.9,1-1.5,1.7
		l-2.7-1.9c1.7-1.6,3-3.1,4-4.6c1.3-2,2.1-3.7,2.5-5.2l3,1.1C309.4,193.2,309,193.9,308.5,194.8z"/>
	<path class="st1" d="M325.1,185.4h14.6l-0.2-6h2.9l0.1,6h9.7v2.7h-9.5c0.2,3.9,0.8,7.3,2,10.3c0.9,2.3,2,4,3.2,5.3
		c0.6,0.6,1.1,1,1.5,1c0.4,0,0.8-0.8,1.1-2.5c0.1-0.3,0.1-0.7,0.2-1l2.8,1.7c-0.4,1.5-0.8,2.6-1.2,3.4c-0.6,1.4-1.4,2.1-2.4,2.1
		c-1,0-2.2-0.6-3.5-1.7c-2.5-2.2-4.4-5.7-5.5-10.5c-0.5-2.3-0.9-5-1.1-7.9h-14.8V185.4z M325.6,203.6c2-0.4,3.9-0.8,5.8-1.2v-7.9h-5
		v-2.7h12.3v2.7h-4.4v7.1c0.5-0.1,1.1-0.3,1.8-0.5c0.2,0,0.5-0.2,1.1-0.4c0.6-0.2,1.4-0.4,2.6-0.8l-0.2,3.3
		c-2.5,0.8-5.4,1.5-8.7,2.3c-1.8,0.5-3.3,0.8-4.3,1.1L325.6,203.6z M344.3,181.5l1.9-1.9c0.2,0.2,0.5,0.4,0.9,0.7
		c1.2,0.9,2.3,1.8,3.4,2.9l-2.3,2.1C347.2,184,345.9,182.7,344.3,181.5z"/>
	<path class="st1" d="M354.7,206.3c0.6-0.6,1-1.1,1.3-1.4c1.1-1.6,1.8-3.6,2.1-5.8c0.2-1.3,0.2-3,0.2-4.9V181h24.8v3h-21.8v9.7
		c0,1.5-0.1,3.4-0.2,5.6c-0.2,3-1.3,6-3.3,9L354.7,206.3z M370.6,204.3v-10.2H363v-2.8h7.6V185h3v6.3h7.7v2.8h-7.7v10.2h9.8v2.8H361
		v-2.8H370.6z M375.4,197.3l2.3-1.9c1.8,2.1,3.3,4,4.4,5.7l-2.7,1.9c-0.6-1.2-1.2-2.2-1.9-3.1C377.3,199.5,376.6,198.6,375.4,197.3z
		"/>
	<path class="st1" d="M396,201.2l-0.2,3c-0.4,0.1-0.9,0.2-1.4,0.3l-1,0.2c-2.2,0.5-4.6,1-7.2,1.6l-0.7-2.9
		C389.6,202.8,393.1,202.1,396,201.2z M394.9,195.5l-0.2,3.1c-0.4,0.1-0.9,0.1-1.4,0.2c-2.5,0.4-4.4,0.7-5.6,1l-0.8,0.2l-0.9-3.2
		c0.6-0.3,1-0.5,1.2-0.8c0.7-0.7,1.7-2,3-3.9c0.2-0.2,0.3-0.5,0.5-0.7c-1.6,0.2-2.8,0.3-3.5,0.5c-0.3,0.1-0.5,0.1-0.7,0.2l-0.8-2.8
		c0.5-0.5,0.9-0.9,1.2-1.2c0.4-0.6,1-1.7,1.7-3.3c0.8-1.6,1.4-3.3,1.9-5.1l2.9,0.9c-1,3-2.3,5.8-3.8,8.4l2.5-0.2
		c0.2-0.4,0.4-0.9,0.7-1.8c0,0,0.2-0.4,0.5-1.2l2.8,1.3l-0.3,0.6c-1.4,3-3,5.9-4.9,8.7C391.7,196.2,393.1,195.9,394.9,195.5z
		 M394.9,195.1c0.2-0.3,0.4-0.6,0.8-1c1.2-1.5,2.3-3.4,3.4-5.6c0.5-1,0.8-2,1.2-2.9l2.7,1.4l-0.3,0.5l-0.4,0.9l-0.2,0.5l-0.9,1.8
		l-0.2,0.4l-0.3,0.5v16.7H398v-12.6c-0.3,0.4-0.4,0.6-0.5,0.7c-0.3,0.3-0.5,0.6-0.6,0.9L394.9,195.1z M396.1,187.5v-4.8h7.7
		c-0.2-0.8-0.6-1.8-1.1-2.8l2.8-0.9c0.5,1,1,2.3,1.5,3.7h7.7v4.8h-2.8v-2.3h-13v2.3H396.1z M413.7,193v15.1H411v-1.8h-5.1v1.8h-2.7
		V193h3.2c0.2-0.8,0.3-1.6,0.5-2.5h-4.1v-2.5h11.5v2.5h-4.7c-0.1,0.5-0.3,1.4-0.5,2.5H413.7z M411,198.5v-3.1h-5.1v3.1H411z
		 M405.9,204h5.1v-3.1h-5.1V204z"/>
	<path class="st1" d="M429,196.1l-2.7,1.6c-0.5-1.2-0.9-2.1-1.3-2.7c-0.1-0.3-0.3-0.6-0.6-1.1c-0.1-0.1-0.2-0.3-0.3-0.6v14.9h-3
		v-12.6c-0.1,0.3-0.2,0.6-0.4,0.9c-0.5,1.2-1.2,2.8-2.3,4.9l-2.6-2.1c1-1.4,2-3.1,2.7-5c0.7-1.8,1.4-4,2-6.5h-3.7v-2.9h4.2v-6h3v6
		h4.1v2.9h-4.1v3.6l1.4-1C426.8,192.4,428,194.2,429,196.1z M425.1,205.9c1.3-1,2.2-2.3,3-3.7c0.6-1.3,1-3.1,1.2-5.4
		c0.1-1.6,0.2-3.5,0.2-5.7v-10.6h11.4V204c0,0.6,0.2,0.9,0.6,0.9h0.3c0.4,0,0.6-0.3,0.7-0.9c0.2-1.1,0.2-2.7,0.2-4.6l3.3,1.1
		l-0.1,0.9c-0.2,2.2-0.5,3.8-0.8,4.7c-0.4,1.3-1.3,1.9-2.6,1.9h-2.2c-1.6,0-2.5-0.8-2.5-2.5v-22.1h-5.4v8.1c0,3.9-0.2,6.7-0.5,8.5
		c-0.4,2.4-1.3,4.6-2.7,6.6c-0.3,0.4-0.6,0.9-1.1,1.5L425.1,205.9z"/>
	<path class="st1" d="M475.4,184.8h-26.7v-2.6h11.5c-0.1-0.5-0.3-1.3-0.7-2.5l3.3-0.7c0.3,1,0.6,2.1,0.8,3.2h11.9V184.8z
		 M453.1,196.3v11.5h-3v-14.1h24.1v10.7c0,1.1-0.2,1.9-0.5,2.3c-0.4,0.5-1,0.9-2,1.2c-1.1,0.3-2.1,0.5-3,0.6l-1.2-3.5h2.8
		c0.4,0,0.6-0.1,0.7-0.4c0.1-0.2,0.1-0.5,0.1-0.8v-7.5H453.1z M453.3,192.4v-6.3h17.1v6.3H453.3z M455.6,204.6v-6.8h12.3v6.8H455.6z
		 M456.1,190.1h11.4v-1.7h-11.4V190.1z M458.4,202.2h6.5v-2h-6.5V202.2z"/>
	<path class="st1" d="M488.9,190.5c0,0,0.1,0,0.2,0c0,0,0.1,0,0.2,0c2.2-0.3,4.2-0.9,6.3-1.9c-0.3-0.3-0.7-0.7-1.2-1.2
		c-0.2-0.2-0.3-0.4-0.5-0.5c-0.1-0.1-0.2-0.2-0.4-0.4c-0.5,0.8-1,1.5-1.5,2l-2.2-1.7c1-1.1,1.7-2.1,2.3-3c0.7-1.1,1.5-2.5,2.3-4.2
		l0.3-0.7l2.5,1.3l-0.3,0.5l-0.2,0.3l-0.5,0.8c-0.1,0.1-0.1,0.2-0.2,0.3h9.4c-1.4,2.4-3.1,4.5-5.2,6.4c1.8,0.8,4.1,1.4,7,1.6l-1.3,3
		c-3.4-0.8-6.1-1.8-8.1-3c-1.4,0.8-2.7,1.4-4,1.9c-0.9,0.3-2.3,0.8-4.1,1.3l-0.9-2.2v13.5h-2.6v-1.7l-7.5,0.9v-18.8h2.7v15.8
		l1.2-0.1v-21.2h2.6v20.9l1-0.1v-15.2h2.6V190.5z M489.6,204v-2.4h6.9v-1.7h-5.2v-2.2h5.2V196h-5.8v-2.3h5.8v-2.4h2.9v2.4h5.5v2.3
		h-5.5v1.6h5.2v2.2h-5.2v1.7h6.8v2.4h-6.8v4.4h-2.9V204H489.6z M495.3,184.5c0.7,0.9,1.6,1.8,2.7,2.7c0.2-0.2,0.4-0.3,0.5-0.4
		c0.6-0.5,1.4-1.3,2.2-2.3H495.3z"/>
	<path class="st1" d="M508.6,188.7h6.7v13.2c0.7-0.7,1.8-1.7,3.1-3.1l1.5,2.8c-0.9,0.9-2.1,2.1-3.8,3.6c-0.1,0.1-0.8,0.8-2,2.1
		l-0.5,0.5l-2.1-2.5c0.3-0.4,0.5-0.6,0.6-0.8c0.2-0.4,0.3-1,0.3-1.7v-11.3h-3.9V188.7z M510.4,181.7l1.8-2.2c0.5,0.4,1.4,1,2.6,1.9
		c0.7,0.5,1.6,1.3,2.6,2.4l-2.2,2.3c-0.8-1.1-1.6-1.9-2.3-2.4C512.4,183.1,511.5,182.4,510.4,181.7z M526.2,183.9
		c-0.1,0.2-0.2,0.4-0.3,0.7c-0.4,0.9-1,2-1.8,3.1c-0.8,1.2-1.6,2.1-2.3,2.9c-0.8,0.8-2,1.9-3.5,3.1l-2.1-2.4c1.6-1,2.8-2,3.6-2.8
		c1.8-1.9,3.2-4.2,4.4-7.1c0.3-0.8,0.6-1.8,0.9-2.8l3.1,0.8c-0.2,0.5-0.3,0.7-0.3,0.8c0,0.1-0.1,0.2-0.1,0.3c0,0.1,0.1,0.2,0.1,0.2
		c0.1,0.1,0.3,0.6,0.7,1.4c1,2,2,3.5,2.9,4.5c1.5,1.6,3.7,3,6.5,4.1l-1.8,2.8c-2.8-1.4-4.8-2.8-6.2-4.2
		C528.4,187.8,527.2,185.9,526.2,183.9z M524.4,191v5.6c0.4-0.2,0.7-0.4,1.2-0.7c2.6-1.5,4.6-2.7,6.1-3.8l2.3,2.3
		c-1.2,0.7-2.8,1.7-5,2.9c-1.9,1-3.3,1.8-4.5,2.3v3.7c0,0.5,0.1,0.9,0.3,1c0.2,0.1,0.4,0.2,0.8,0.2h5.6c0.8,0,1.4-0.3,1.7-1
		c0.2-0.4,0.4-1.3,0.6-2.7l3.2,1.5c-0.2,0.8-0.4,1.5-0.6,2c-0.4,1.1-0.9,1.9-1.5,2.4c-0.6,0.5-1.5,0.8-2.6,0.8h-6.1
		c-1.6,0-2.7-0.3-3.3-0.8c-0.6-0.5-0.9-1.3-0.9-2.3V191H524.4z"/>
	<path class="st1" d="M546.4,199.3l1.3-0.5c1.5-0.6,2.5-1,3.1-1.2l0.1,3.2c-0.8,0.3-2.1,0.7-3.9,1.4c-0.3,0.1-1.3,0.4-2.8,1
		c-1.3,0.5-2.6,0.9-3.6,1.3l-1.1-3.1c0.4-0.1,0.6-0.1,0.8-0.2c1-0.2,2.1-0.6,3.4-1v-10.6H540v-2.8h3.6v-7.3h2.8v7.3h3.8v2.8h-3.8
		V199.3z M550.4,203.9c0.5-0.3,0.9-0.5,1.1-0.7c0.8-0.6,1.8-2.5,3-5.6c0.5-1.2,1-2.7,1.5-4.4h-5.6v-2.8h17.5v2.8h-10.1l1.4,0.5
		c-0.1,0.3-0.3,0.8-0.6,1.5c-1.4,3.6-2.7,6.3-4,8.4c0.4,0,1-0.1,1.5-0.1c0.6,0,1.7-0.1,3.1-0.2c0.9-0.1,1.7-0.1,2.2-0.2
		c0.7,0,1.3-0.1,1.9-0.2c-0.9-1.9-1.8-3.6-2.8-5.1l2.8-1.4c0.4,0.8,0.8,1.4,1.1,2c1.3,2.3,2.7,5,4,8l-3.1,1.3
		c-0.3-0.8-0.6-1.5-0.9-2.1c-0.7,0.1-1.5,0.1-2.4,0.2c-5.5,0.4-9.2,0.7-11.1,1L550.4,203.9z M552.4,181.4h13.3v2.8h-13.3V181.4z"/>
	<path class="st1" d="M32.7,238.6v-3c2.8-2.6,5-4.7,6.5-6.4c1.5-1.7,2.5-2.9,2.9-3.8c0.4-0.9,0.7-1.7,0.7-2.5c0-0.9-0.3-1.7-1-2.2
		c-0.7-0.6-1.6-0.9-2.7-0.9c-1.5,0-3.2,0.5-5.1,1.6l-0.9-3.1c2.1-1,4.3-1.5,6.5-1.5c2.1,0,3.8,0.5,5,1.4c1.3,1,2,2.5,2,4.5
		c0,1.8-0.6,3.5-1.9,5.3c-1.4,1.9-3.7,4.5-7,7.5h9.1v3H32.7z"/>
	<path class="st1" d="M57.6,216.8c2.9,0,5,1.3,6.3,3.9c0.8,1.7,1.2,4.1,1.2,7.2c0,3.4-0.5,6-1.5,7.7c-1.3,2.2-3.3,3.3-6.1,3.3
		c-3,0-5.1-1.3-6.4-3.9c-0.8-1.7-1.2-4.1-1.2-7.2c0-3.4,0.5-6,1.5-7.7C52.7,217.9,54.7,216.8,57.6,216.8z M57.4,219.8
		c-1.4,0-2.4,0.8-3,2.5c-0.5,1.2-0.7,3.1-0.7,5.6c0,2.7,0.3,4.7,0.9,5.9c0.6,1.4,1.6,2.1,2.9,2.1c1.4,0,2.4-0.8,3-2.5
		c0.5-1.2,0.7-3.1,0.7-5.6c0-2.7-0.3-4.7-0.9-5.9C59.7,220.5,58.8,219.8,57.4,219.8z"/>
	<path class="st1" d="M74.2,238.6v-17.3l-3.9,2.6l-1.6-3l5.9-3.8h3.2v21.4H74.2z"/>
	<path class="st1" d="M86.6,238.7l0.3-3.1c1,0.3,1.9,0.4,2.5,0.4c2.1,0,3.7-0.8,4.8-2.5c0.8-1.2,1.3-2.6,1.5-4.3
		c-1.2,1.2-2.7,1.8-4.4,1.8c-2,0-3.6-0.7-4.7-2.1c-1-1.2-1.4-2.7-1.4-4.7c0-2.2,0.6-4,1.8-5.3c1.3-1.4,3.1-2.1,5.4-2.1
		c2.6,0,4.5,0.8,5.7,2.5c1.1,1.5,1.7,3.7,1.7,6.4c0,3-0.5,5.6-1.5,7.8c-1.7,3.6-4.6,5.4-8.7,5.4C88.7,239,87.8,238.9,86.6,238.7z
		 M92.3,219.7c-1,0-1.9,0.4-2.5,1.2c-0.6,0.8-0.9,1.8-0.9,3.1c0,1.2,0.3,2.2,0.8,2.9c0.6,0.8,1.5,1.2,2.6,1.2c1.1,0,2-0.4,2.7-1.3
		c0.6-0.7,0.9-1.7,0.9-2.9c0-1.3-0.3-2.4-1-3.1C94.3,220.1,93.4,219.7,92.3,219.7z"/>
	<path class="st1" d="M110.3,237.8l0.5-3.3c2.3,0.9,4.2,1.3,5.8,1.3c1.2,0,2.2-0.3,2.8-0.9c0.6-0.6,0.9-1.3,0.9-2.2
		c0-0.8-0.3-1.4-0.8-1.9c-0.5-0.4-1.6-1-3.3-1.7c-1.6-0.7-2.6-1.2-3.1-1.5c-1.1-0.6-1.9-1.4-2.3-2.2c-0.4-0.7-0.5-1.5-0.5-2.4
		c0-2.1,0.7-3.7,2.2-4.8c1.2-1,2.9-1.5,5-1.5c1.8,0,3.7,0.4,6,1.1l-0.7,3.2c-2-0.8-3.7-1.2-5.1-1.2c-1,0-1.8,0.2-2.5,0.7
		c-0.6,0.5-1,1.2-1,2c0,0.7,0.3,1.3,0.8,1.8c0.5,0.4,1.5,1,3.1,1.6c1.6,0.7,2.7,1.2,3.3,1.5c1.2,0.7,2,1.5,2.4,2.4
		c0.4,0.8,0.5,1.7,0.5,2.7c0,2.1-0.7,3.8-2.2,4.9c-1.3,1-3.1,1.5-5.4,1.5C114.6,239,112.4,238.6,110.3,237.8z"/>
	<path class="st1" d="M129.8,215.4c0.7,0,1.3,0.2,1.7,0.7c0.4,0.4,0.5,0.9,0.5,1.5c0,0.6-0.2,1.1-0.5,1.5c-0.4,0.5-1,0.8-1.7,0.8
		s-1.3-0.3-1.7-0.8c-0.4-0.4-0.5-0.9-0.5-1.5c0-0.6,0.2-1.1,0.5-1.5C128.5,215.7,129.1,215.4,129.8,215.4z M128,238.6v-15.8h3.6
		v15.8H128z"/>
	<path class="st1" d="M139,231.9c0.1,1.3,0.5,2.3,1,3c0.8,1,2,1.4,3.6,1.4c1.6,0,3.1-0.5,4.7-1.5l1.3,2.7c-1.8,1-3.9,1.6-6.1,1.6
		c-2.8,0-4.9-0.8-6.3-2.3c-1.3-1.4-2-3.4-2-5.9c0-2.6,0.7-4.7,2.2-6.3c1.3-1.4,3.1-2,5.4-2c3.3,0,5.5,1.3,6.5,3.9
		c0.5,1.3,0.8,3.1,0.8,5.5H139z M146.3,229.3c0-0.9-0.2-1.7-0.5-2.4c-0.6-1.2-1.6-1.7-3-1.7c-1.4,0-2.4,0.6-3.1,1.7
		c-0.4,0.7-0.6,1.5-0.7,2.4H146.3z"/>
	<path class="st1" d="M153.6,238.6v-10.3c0-1.9,0-3.4-0.1-4.5l0-1.1h3.4l0.1,2.3c0.5-0.6,1.1-1.1,1.6-1.5c1.1-0.8,2.3-1.2,3.7-1.2
		c2.2,0,3.6,1,4.3,2.9c0.6-0.7,1.2-1.3,1.7-1.7c1.1-0.8,2.3-1.2,3.6-1.2c2,0,3.3,0.7,4.1,2.2c0.4,0.9,0.7,2.4,0.7,4.4v9.5H173v-9.3
		c0-1.3-0.1-2.2-0.3-2.7c-0.3-0.9-1-1.4-2-1.4c-1.3,0-2.6,0.9-3.8,2.7v10.7h-3.6v-9.7c0-1.1-0.1-2-0.4-2.5c-0.4-0.8-1-1.2-1.9-1.2
		c-1.3,0-2.6,0.9-3.8,2.7v10.7H153.6z"/>
	<path class="st1" d="M183.9,231.9c0.1,1.3,0.5,2.3,1,3c0.8,1,2,1.4,3.6,1.4c1.6,0,3.1-0.5,4.7-1.5l1.3,2.7c-1.8,1-3.8,1.6-6.1,1.6
		c-2.8,0-4.9-0.8-6.3-2.3c-1.3-1.4-2-3.4-2-5.9c0-2.6,0.7-4.7,2.2-6.3c1.3-1.4,3.1-2,5.4-2c3.3,0,5.5,1.3,6.5,3.9
		c0.5,1.3,0.8,3.1,0.8,5.5H183.9z M191.3,229.3c0-0.9-0.2-1.7-0.5-2.4c-0.6-1.2-1.6-1.7-3-1.7c-1.4,0-2.4,0.6-3.1,1.7
		c-0.4,0.7-0.6,1.5-0.7,2.4H191.3z"/>
	<path class="st1" d="M198.6,238.6v-10.3c0-1.9,0-3.4-0.1-4.5l0-1h3.4l0.1,2.3c0.6-0.6,1.2-1.1,1.7-1.5c1.2-0.8,2.5-1.2,4-1.2
		c2.1,0,3.5,0.7,4.3,2.2c0.5,0.9,0.7,2.3,0.7,4.4v9.5h-3.6v-9.3c0-1.3-0.1-2.2-0.3-2.7c-0.4-0.9-1.1-1.4-2.3-1.4
		c-1.5,0-2.9,0.9-4.2,2.7v10.7H198.6z"/>
	<path class="st1" d="M216.1,237.7l1-2.8c0.6,0.4,1.1,0.6,1.4,0.7c0.9,0.4,1.8,0.6,2.7,0.6c0.8,0,1.5-0.2,1.9-0.6
		c0.4-0.4,0.7-0.8,0.7-1.5c0-0.6-0.2-1-0.6-1.3c-0.3-0.2-1.2-0.6-2.5-1.1c-1.1-0.4-1.9-0.7-2.4-1c-1.4-0.8-2.1-2-2.1-3.6
		c0-1.5,0.6-2.7,1.7-3.6c1-0.8,2.4-1.2,4.1-1.2c1.6,0,3.4,0.4,5.1,1.1l-0.9,2.8c-1.4-0.8-2.7-1.2-4.1-1.2c-0.7,0-1.3,0.2-1.7,0.5
		c-0.5,0.3-0.7,0.8-0.7,1.3c0,0.6,0.3,1,0.9,1.4c0.3,0.2,1.2,0.5,2.5,1c1.6,0.6,2.7,1.2,3.4,1.9c0.6,0.7,1,1.5,1,2.6
		c0,1.5-0.5,2.7-1.6,3.6c-1.1,1-2.6,1.5-4.5,1.5C219.4,239,217.7,238.5,216.1,237.7z"/>
	<path class="st1" d="M250.2,232.5h-8.1l-2.2,6.1h-3.8l7.9-21.4h4.2l8.1,21.4h-4L250.2,232.5z M249.2,229.5l-1.8-5.1
		c-0.4-1.2-0.8-2.4-1.2-3.7c-0.3,1-0.7,2.2-1.2,3.7l-1.8,5.1H249.2z"/>
	<path class="st1" d="M258.1,237.8l0.5-3.3c2.3,0.9,4.2,1.3,5.8,1.3c1.2,0,2.2-0.3,2.8-0.9c0.6-0.6,0.9-1.3,0.9-2.2
		c0-0.8-0.3-1.4-0.8-1.9c-0.5-0.4-1.6-1-3.3-1.7c-1.6-0.7-2.6-1.2-3.1-1.5c-1.1-0.6-1.9-1.4-2.3-2.2c-0.4-0.7-0.5-1.5-0.5-2.4
		c0-2.1,0.7-3.7,2.2-4.8c1.2-1,2.9-1.5,5-1.5c1.8,0,3.7,0.4,6,1.1l-0.7,3.2c-2-0.8-3.7-1.2-5.1-1.2c-1,0-1.8,0.2-2.5,0.7
		c-0.6,0.5-1,1.2-1,2c0,0.7,0.3,1.3,0.8,1.8c0.5,0.4,1.5,1,3.1,1.6c1.6,0.7,2.7,1.2,3.3,1.5c1.2,0.7,2,1.5,2.4,2.4
		c0.4,0.8,0.5,1.7,0.5,2.7c0,2.1-0.7,3.8-2.2,4.9c-1.3,1-3.1,1.5-5.4,1.5C262.3,239,260.2,238.6,258.1,237.8z"/>
	<path class="st1" d="M275.7,217.2h3.8v12.7c0,2.2,0.3,3.8,0.9,4.6c0.7,1,2,1.5,3.7,1.5c1.9,0,3.2-0.6,4-1.8
		c0.5-0.8,0.7-2.2,0.7-4.1v-12.9h3.6v11.9c0,2.4-0.1,4-0.3,4.8c-0.7,3.4-3.4,5.1-8.1,5.1c-3.6,0-6-1-7.3-3.1c-0.6-0.9-0.9-2.2-1-3.8
		c0-0.8-0.1-1.7-0.1-2.9V217.2z"/>
	<path class="st1" d="M313.1,236.8c-0.5,0.6-1.1,1-1.6,1.3c-0.9,0.6-2,0.8-3.3,0.8c-1.6,0-2.9-0.4-3.8-1.3c-0.9-0.9-1.3-2-1.3-3.5
		c0-2,0.8-3.4,2.4-4.4c1-0.6,2.6-0.9,4.8-0.9c0.6,0,1.5,0,2.6,0.1v-0.3c0-2.4-1.2-3.6-3.5-3.6c-1.3,0-2.7,0.4-4.3,1.3l-1-2.6
		c1.8-0.9,3.7-1.4,5.7-1.4c2.6,0,4.4,0.7,5.5,2.1c0.6,0.7,0.9,1.7,1.1,2.9c0.1,0.5,0.1,1.3,0.1,2.4v4.7c0,2.1,0.1,3.4,0.2,4h-3.4
		L313.1,236.8z M312.9,231.3c-0.6-0.1-1.1-0.1-1.6-0.1c-1.5,0-2.5,0.2-3.2,0.6c-0.8,0.5-1.2,1.3-1.2,2.3c0,0.7,0.2,1.2,0.6,1.7
		c0.4,0.5,1.1,0.7,1.8,0.7c1.4,0,2.6-0.7,3.6-2.2V231.3z"/>
	<path class="st1" d="M321.3,238.6v-10.3c0-1.9,0-3.4-0.1-4.5l0-1h3.4l0.1,2.3c0.6-0.6,1.2-1.1,1.6-1.5c1.2-0.8,2.5-1.2,4-1.2
		c2.1,0,3.5,0.7,4.3,2.2c0.5,0.9,0.7,2.3,0.7,4.4v9.5h-3.6v-9.3c0-1.3-0.1-2.2-0.3-2.7c-0.4-0.9-1.1-1.4-2.3-1.4
		c-1.5,0-2.9,0.9-4.2,2.7v10.7H321.3z"/>
	<path class="st1" d="M349.8,215.9h3.6V233c0,2.3,0,4.2,0.1,5.6h-3.5l-0.1-2.3c-0.5,0.7-1,1.2-1.5,1.6c-0.9,0.7-2,1-3.3,1
		c-2,0-3.6-0.8-4.8-2.5c-1.1-1.5-1.6-3.5-1.6-5.8c0-2.6,0.6-4.6,1.9-6.2c1.1-1.4,2.6-2.1,4.5-2.1c1.9,0,3.4,0.8,4.6,2.3V215.9z
		 M349.8,227.9c-1-1.7-2.2-2.6-3.7-2.6c-1.2,0-2,0.5-2.6,1.5c-0.6,1-0.9,2.3-0.9,3.9c0,1.5,0.3,2.8,0.8,3.9c0.6,1.1,1.5,1.7,2.6,1.7
		c1.4,0,2.7-0.9,3.8-2.7V227.9z"/>
	<path class="st1" d="M382.4,227v10.6c-2.5,0.9-4.9,1.3-7.1,1.3c-3.2,0-5.8-0.9-7.6-2.7c-2-2-3.1-4.7-3.1-8.2c0-3.8,1.2-6.7,3.5-8.8
		c1.8-1.7,4.3-2.5,7.3-2.5c2.4,0,4.7,0.5,6.9,1.5l-1.2,3c-1.9-1-3.8-1.5-5.6-1.5c-2.4,0-4.2,0.8-5.3,2.5c-1.1,1.5-1.6,3.4-1.6,5.7
		c0,2.7,0.8,4.8,2.3,6.2c1.2,1.1,2.8,1.7,4.6,1.7c1.1,0,2.2-0.2,3.3-0.6V230h-3.9v-3H382.4z"/>
	<path class="st1" d="M389.8,231.9c0.1,1.3,0.5,2.3,1,3c0.8,1,2,1.4,3.6,1.4c1.6,0,3.1-0.5,4.7-1.5l1.3,2.7c-1.8,1-3.8,1.6-6.1,1.6
		c-2.8,0-4.9-0.8-6.3-2.3c-1.3-1.4-2-3.4-2-5.9c0-2.6,0.7-4.7,2.2-6.3c1.3-1.4,3.1-2,5.4-2c3.3,0,5.5,1.3,6.5,3.9
		c0.5,1.3,0.8,3.1,0.8,5.5H389.8z M397.2,229.3c0-0.9-0.2-1.7-0.5-2.4c-0.6-1.2-1.6-1.7-3-1.7c-1.4,0-2.4,0.6-3.1,1.7
		c-0.4,0.7-0.6,1.5-0.7,2.4H397.2z"/>
	<path class="st1" d="M413.1,236.8c-0.5,0.6-1.1,1-1.6,1.3c-0.9,0.6-2,0.8-3.3,0.8c-1.6,0-2.9-0.4-3.8-1.3c-0.9-0.9-1.3-2-1.3-3.5
		c0-2,0.8-3.4,2.4-4.4c1-0.6,2.6-0.9,4.8-0.9c0.6,0,1.5,0,2.6,0.1v-0.3c0-2.4-1.2-3.6-3.5-3.6c-1.3,0-2.7,0.4-4.3,1.3l-1-2.6
		c1.8-0.9,3.7-1.4,5.7-1.4c2.6,0,4.4,0.7,5.5,2.1c0.6,0.7,0.9,1.7,1.1,2.9c0.1,0.5,0.1,1.3,0.1,2.4v4.7c0,2.1,0.1,3.4,0.2,4h-3.4
		L413.1,236.8z M412.9,231.3c-0.6-0.1-1.1-0.1-1.6-0.1c-1.5,0-2.5,0.2-3.2,0.6c-0.8,0.5-1.2,1.3-1.2,2.3c0,0.7,0.2,1.2,0.6,1.7
		c0.4,0.5,1.1,0.7,1.8,0.7c1.4,0,2.6-0.7,3.6-2.2V231.3z"/>
	<path class="st1" d="M421.4,238.6v-9.9c0-2,0-4-0.1-5.9h3.4l0.1,3c0.9-2.1,2.3-3.2,4.2-3.2c0.4,0,0.9,0.1,1.4,0.2l-0.2,3.2
		c-0.5-0.1-0.9-0.2-1.2-0.2c-1.2,0-2.1,0.5-2.9,1.5c-0.4,0.6-0.8,1.3-1,2.1v9.2H421.4z"/>
	<path class="st1" d="M430.2,231.3v-2.9h7.8v2.9H430.2z"/>
	<path class="st1" d="M442,225.6h-2.5v-2.8h2.5v-3.4l3.6-0.7v4.1h3.6v2.8h-3.6v7.3c0,1.1,0.1,1.8,0.3,2.2c0.3,0.6,0.9,0.9,1.8,0.9
		c0.4,0,1-0.1,1.7-0.4l0.3,2.8c-1.1,0.4-2.2,0.5-3.2,0.5c-1.8,0-3-0.5-3.8-1.6c-0.5-0.8-0.8-2.2-0.8-4.2V225.6z"/>
	<path class="st1" d="M456.5,238.4l-6.4-15.6h3.9l3.2,8c0.5,1.2,0.9,2.4,1.3,3.6c0.4-1.3,0.9-2.6,1.3-3.8l3-7.8h3.5l-6.4,16.2
		c-1,2.4-1.8,4.1-2.6,5c-0.9,1.1-2.3,1.7-4.1,1.7c-1,0-2-0.2-3.2-0.5l0.6-2.8c0.8,0.3,1.4,0.5,2,0.5c0.8,0,1.5-0.3,2-0.8
		C455.2,241.2,455.9,240.1,456.5,238.4z"/>
	<path class="st1" d="M468.7,245.3v-16.1c0-2.6,0-4.7-0.1-6.3h3.5l0.1,2.2c0.5-0.6,1-1.1,1.5-1.5c1-0.7,2.1-1,3.3-1
		c2,0,3.6,0.8,4.7,2.4c1.1,1.5,1.6,3.5,1.6,5.8c0,2.6-0.6,4.6-1.9,6.2c-1.1,1.4-2.6,2.1-4.5,2.1c-1.9,0-3.4-0.8-4.6-2.4v8.7H468.7z
		 M472.3,233.4c1.1,1.8,2.4,2.7,3.8,2.7c1.2,0,2-0.6,2.6-1.7c0.6-1,0.8-2.3,0.8-3.8c0-1.6-0.3-2.9-0.9-3.9c-0.6-1-1.5-1.5-2.6-1.5
		c-1.4,0-2.6,0.9-3.7,2.6V233.4z"/>
	<path class="st1" d="M489.6,231.9c0.1,1.3,0.5,2.3,1,3c0.8,1,2,1.4,3.6,1.4c1.6,0,3.1-0.5,4.7-1.5l1.3,2.7c-1.8,1-3.8,1.6-6.1,1.6
		c-2.8,0-4.9-0.8-6.3-2.3c-1.3-1.4-2-3.4-2-5.9c0-2.6,0.7-4.7,2.2-6.3c1.3-1.4,3.1-2,5.4-2c3.3,0,5.5,1.3,6.5,3.9
		c0.5,1.3,0.8,3.1,0.8,5.5H489.6z M496.9,229.3c0-0.9-0.2-1.7-0.5-2.4c-0.6-1.2-1.6-1.7-3-1.7c-1.4,0-2.4,0.6-3.1,1.7
		c-0.4,0.7-0.6,1.5-0.7,2.4H496.9z"/>
	<path class="st1" d="M526.4,234.5l1,3c-0.9,0.4-1.7,0.7-2.3,0.9c-1.2,0.4-2.6,0.5-4.1,0.5c-3.2,0-5.7-0.9-7.6-2.8
		c-2-2-2.9-4.7-2.9-8.1c0-3.9,1.2-6.9,3.6-9c1.7-1.5,4-2.3,6.7-2.3c2.1,0,4.2,0.5,6.3,1.5l-1.2,2.9c-1.8-0.9-3.4-1.3-4.9-1.3
		c-2.1,0-3.7,0.8-4.8,2.3c-1.1,1.6-1.7,3.5-1.7,5.9c0,2.8,0.8,4.9,2.3,6.3c1.2,1.1,2.6,1.7,4.5,1.7c1.1,0,2.2-0.2,3.2-0.6
		C525,235.2,525.6,234.9,526.4,234.5z"/>
	<path class="st1" d="M536.9,222.5c2.5,0,4.4,0.8,5.8,2.5c1.2,1.5,1.9,3.4,1.9,5.8c0,2.6-0.7,4.6-2.2,6.1c-1.4,1.4-3.2,2.1-5.6,2.1
		c-2.5,0-4.5-0.8-5.9-2.5c-1.2-1.5-1.9-3.4-1.9-5.8c0-2.6,0.7-4.6,2.2-6.1C532.6,223.2,534.5,222.5,536.9,222.5z M536.8,225.2
		c-1.4,0-2.5,0.7-3.2,2.1c-0.5,0.9-0.7,2.1-0.7,3.4c0,1.5,0.3,2.7,0.8,3.7c0.7,1.2,1.8,1.8,3.1,1.8c1.5,0,2.6-0.7,3.3-2.1
		c0.5-0.9,0.7-2.1,0.7-3.4c0-1.5-0.3-2.7-0.8-3.7C539.2,225.8,538.2,225.2,536.8,225.2z"/>
	<path class="st1" d="M548.2,238.6v-10.3c0-1.9,0-3.4-0.1-4.5l0-1.1h3.4l0.1,2.3c0.5-0.6,1.1-1.1,1.6-1.5c1.1-0.8,2.3-1.2,3.7-1.2
		c2.2,0,3.6,1,4.3,2.9c0.6-0.7,1.2-1.3,1.7-1.7c1.1-0.8,2.3-1.2,3.6-1.2c2,0,3.3,0.7,4.1,2.2c0.4,0.9,0.7,2.4,0.7,4.4v9.5h-3.6v-9.3
		c0-1.3-0.1-2.2-0.3-2.7c-0.3-0.9-1-1.4-2-1.4c-1.3,0-2.6,0.9-3.8,2.7v10.7h-3.6v-9.7c0-1.1-0.1-2-0.4-2.5c-0.4-0.8-1-1.2-1.9-1.2
		c-1.3,0-2.6,0.9-3.8,2.7v10.7H548.2z"/>
	<path class="st1" d="M575.6,245.3v-16.1c0-2.6,0-4.7-0.1-6.3h3.5l0.1,2.2c0.5-0.6,1-1.1,1.5-1.5c1-0.7,2.1-1,3.3-1
		c2,0,3.6,0.8,4.7,2.4c1.1,1.5,1.6,3.5,1.6,5.8c0,2.6-0.6,4.6-1.9,6.2c-1.1,1.4-2.6,2.1-4.5,2.1c-1.9,0-3.4-0.8-4.6-2.4v8.7H575.6z
		 M579.2,233.4c1.1,1.8,2.4,2.7,3.8,2.7c1.2,0,2-0.6,2.6-1.7c0.6-1,0.8-2.3,0.8-3.8c0-1.6-0.3-2.9-0.9-3.9c-0.6-1-1.5-1.5-2.6-1.5
		c-1.4,0-2.6,0.9-3.7,2.6V233.4z"/>
	<path class="st1" d="M593.8,238.6v-9.9c0-2,0-4-0.1-5.9h3.4l0.1,3c0.9-2.1,2.3-3.2,4.2-3.2c0.4,0,0.9,0.1,1.4,0.2l-0.2,3.2
		c-0.5-0.1-0.9-0.2-1.2-0.2c-1.2,0-2.1,0.5-2.9,1.5c-0.4,0.6-0.8,1.3-1,2.1v9.2H593.8z"/>
	<path class="st1" d="M607.9,231.9c0.1,1.3,0.5,2.3,1,3c0.8,1,2,1.4,3.6,1.4c1.6,0,3.1-0.5,4.7-1.5l1.3,2.7c-1.8,1-3.8,1.6-6.1,1.6
		c-2.8,0-4.9-0.8-6.3-2.3c-1.3-1.4-2-3.4-2-5.9c0-2.6,0.7-4.7,2.2-6.3c1.3-1.4,3.1-2,5.4-2c3.3,0,5.5,1.3,6.5,3.9
		c0.5,1.3,0.8,3.1,0.8,5.5H607.9z M615.2,229.3c0-0.9-0.2-1.7-0.5-2.4c-0.6-1.2-1.6-1.7-3-1.7c-1.4,0-2.4,0.6-3.1,1.7
		c-0.4,0.7-0.6,1.5-0.7,2.4H615.2z"/>
	<path class="st1" d="M621.3,237.7l1-2.8c0.6,0.4,1.1,0.6,1.4,0.7c0.9,0.4,1.8,0.6,2.7,0.6c0.8,0,1.5-0.2,1.9-0.6
		c0.4-0.4,0.7-0.8,0.7-1.5c0-0.6-0.2-1-0.6-1.3c-0.3-0.2-1.2-0.6-2.5-1.1c-1.1-0.4-1.9-0.7-2.4-1c-1.4-0.8-2.1-2-2.1-3.6
		c0-1.5,0.6-2.7,1.7-3.6c1-0.8,2.4-1.2,4.1-1.2c1.6,0,3.4,0.4,5.1,1.1l-0.9,2.8c-1.4-0.8-2.7-1.2-4.1-1.2c-0.7,0-1.3,0.2-1.7,0.5
		c-0.5,0.3-0.7,0.8-0.7,1.3c0,0.6,0.3,1,0.9,1.4c0.3,0.2,1.2,0.5,2.5,1c1.6,0.6,2.7,1.2,3.4,1.9c0.6,0.7,1,1.5,1,2.6
		c0,1.5-0.5,2.7-1.6,3.6c-1.1,1-2.6,1.5-4.5,1.5C624.7,239,623,238.5,621.3,237.7z"/>
	<path class="st1" d="M634.8,237.7l1-2.8c0.6,0.4,1.1,0.6,1.4,0.7c0.9,0.4,1.8,0.6,2.7,0.6c0.8,0,1.5-0.2,1.9-0.6
		c0.4-0.4,0.7-0.8,0.7-1.5c0-0.6-0.2-1-0.6-1.3c-0.3-0.2-1.2-0.6-2.5-1.1c-1.1-0.4-1.9-0.7-2.4-1c-1.4-0.8-2.1-2-2.1-3.6
		c0-1.5,0.6-2.7,1.7-3.6c1-0.8,2.4-1.2,4.1-1.2c1.6,0,3.4,0.4,5.1,1.1l-0.9,2.8c-1.4-0.8-2.7-1.2-4.1-1.2c-0.7,0-1.3,0.2-1.7,0.5
		c-0.5,0.3-0.7,0.8-0.7,1.3c0,0.6,0.3,1,0.9,1.4c0.3,0.2,1.2,0.5,2.5,1c1.6,0.6,2.7,1.2,3.4,1.9c0.6,0.7,1,1.5,1,2.6
		c0,1.5-0.5,2.7-1.6,3.6c-1.1,1-2.6,1.5-4.5,1.5C638.2,239,636.4,238.5,634.8,237.7z"/>
	<path class="st1" d="M656.5,222.5c2.5,0,4.4,0.8,5.8,2.5c1.2,1.5,1.9,3.4,1.9,5.8c0,2.6-0.7,4.6-2.2,6.1c-1.4,1.4-3.2,2.1-5.6,2.1
		c-2.5,0-4.5-0.8-5.9-2.5c-1.2-1.5-1.9-3.4-1.9-5.8c0-2.6,0.7-4.6,2.2-6.1C652.2,223.2,654,222.5,656.5,222.5z M656.3,225.2
		c-1.4,0-2.5,0.7-3.2,2.1c-0.5,0.9-0.7,2.1-0.7,3.4c0,1.5,0.3,2.7,0.8,3.7c0.7,1.2,1.8,1.8,3.1,1.8c1.5,0,2.6-0.7,3.3-2.1
		c0.5-0.9,0.7-2.1,0.7-3.4c0-1.5-0.3-2.7-0.8-3.7C658.8,225.8,657.7,225.2,656.3,225.2z"/>
	<path class="st1" d="M667.8,238.6v-9.9c0-2,0-4-0.1-5.9h3.4l0.1,3c0.9-2.1,2.3-3.2,4.2-3.2c0.4,0,0.9,0.1,1.4,0.2l-0.2,3.2
		c-0.5-0.1-0.9-0.2-1.2-0.2c-1.2,0-2.1,0.5-2.9,1.5c-0.4,0.6-0.8,1.3-1,2.1v9.2H667.8z"/>
	<path class="st1" d="M685.8,237.8l0.5-3.3c2.3,0.9,4.2,1.3,5.8,1.3c1.2,0,2.2-0.3,2.8-0.9c0.6-0.6,0.9-1.3,0.9-2.2
		c0-0.8-0.3-1.4-0.8-1.9c-0.5-0.4-1.6-1-3.3-1.7c-1.6-0.7-2.6-1.2-3.1-1.5c-1.1-0.6-1.9-1.4-2.3-2.2c-0.4-0.7-0.5-1.5-0.5-2.4
		c0-2.1,0.7-3.7,2.2-4.8c1.2-1,2.9-1.5,5-1.5c1.8,0,3.7,0.4,6,1.1l-0.7,3.2c-2-0.8-3.7-1.2-5.1-1.2c-1,0-1.8,0.2-2.5,0.7
		c-0.6,0.5-1,1.2-1,2c0,0.7,0.3,1.3,0.8,1.8c0.5,0.4,1.5,1,3.1,1.6c1.6,0.7,2.7,1.2,3.3,1.5c1.2,0.7,2,1.5,2.4,2.4
		c0.4,0.8,0.5,1.7,0.5,2.7c0,2.1-0.7,3.8-2.2,4.9c-1.3,1-3.1,1.5-5.4,1.5C690.1,239,687.9,238.6,685.8,237.8z"/>
	<path class="st1" d="M717.2,222.8V233c0,2.1,0.1,4,0.1,5.6h-3.4l-0.1-2.3c-0.6,0.6-1.1,1.1-1.6,1.5c-1.1,0.8-2.4,1.2-3.9,1.2
		c-2,0-3.5-0.7-4.2-2.2c-0.5-0.9-0.7-2.3-0.7-4.4v-9.5h3.6v9.3c0,1.3,0.1,2.2,0.3,2.7c0.4,0.9,1.1,1.4,2.2,1.4
		c1.4,0,2.8-0.9,4.1-2.7v-10.7H717.2z"/>
	<path class="st1" d="M722,238.6v-10.3c0-1.9,0-3.4-0.1-4.5l0-1.1h3.4l0.1,2.3c0.5-0.6,1.1-1.1,1.6-1.5c1.1-0.8,2.3-1.2,3.7-1.2
		c2.2,0,3.6,1,4.3,2.9c0.6-0.7,1.2-1.3,1.7-1.7c1.1-0.8,2.3-1.2,3.6-1.2c2,0,3.3,0.7,4.1,2.2c0.4,0.9,0.7,2.4,0.7,4.4v9.5h-3.6v-9.3
		c0-1.3-0.1-2.2-0.3-2.7c-0.3-0.9-1-1.4-2-1.4c-1.3,0-2.6,0.9-3.8,2.7v10.7h-3.6v-9.7c0-1.1-0.1-2-0.4-2.5c-0.4-0.8-1-1.2-1.9-1.2
		c-1.3,0-2.6,0.9-3.8,2.7v10.7H722z"/>
	<path class="st1" d="M749.7,238.6v-10.3c0-1.9,0-3.4-0.1-4.5l0-1.1h3.4l0.1,2.3c0.5-0.6,1.1-1.1,1.6-1.5c1.1-0.8,2.3-1.2,3.7-1.2
		c2.2,0,3.6,1,4.3,2.9c0.6-0.7,1.2-1.3,1.7-1.7c1.1-0.8,2.3-1.2,3.6-1.2c2,0,3.3,0.7,4.1,2.2c0.4,0.9,0.7,2.4,0.7,4.4v9.5h-3.6v-9.3
		c0-1.3-0.1-2.2-0.3-2.7c-0.3-0.9-1-1.4-2-1.4c-1.3,0-2.6,0.9-3.8,2.7v10.7h-3.6v-9.7c0-1.1-0.1-2-0.4-2.5c-0.4-0.8-1-1.2-1.9-1.2
		c-1.3,0-2.6,0.9-3.8,2.7v10.7H749.7z"/>
	<path class="st1" d="M779.2,215.4c0.7,0,1.3,0.2,1.7,0.7c0.4,0.4,0.5,0.9,0.5,1.5c0,0.6-0.2,1.1-0.5,1.5c-0.4,0.5-1,0.8-1.7,0.8
		s-1.3-0.3-1.7-0.8c-0.4-0.4-0.5-0.9-0.5-1.5c0-0.6,0.2-1.1,0.5-1.5C777.9,215.7,778.5,215.4,779.2,215.4z M777.4,238.6v-15.8h3.6
		v15.8H777.4z"/>
	<path class="st1" d="M786.6,225.6h-2.5v-2.8h2.5v-3.4l3.6-0.7v4.1h3.6v2.8h-3.6v7.3c0,1.1,0.1,1.8,0.3,2.2c0.3,0.6,0.9,0.9,1.8,0.9
		c0.4,0,1-0.1,1.7-0.4l0.3,2.8c-1.1,0.4-2.2,0.5-3.2,0.5c-1.8,0-3-0.5-3.8-1.6c-0.5-0.8-0.8-2.2-0.8-4.2V225.6z"/>
</g>
<g>
	<path class="st1" d="M37.7,146v-29.8H43v25.6h12.9v4.2H37.7z"/>
	<path class="st1" d="M68.6,123.5c3.4,0,6.1,1.1,8,3.4c1.7,2.1,2.6,4.7,2.6,8c0,3.6-1,6.5-3,8.5c-1.9,2-4.5,2.9-7.7,2.9
		c-3.5,0-6.2-1.1-8.2-3.4c-1.7-2.1-2.6-4.7-2.6-8.1c0-3.6,1-6.4,3.1-8.5C62.7,124.5,65.3,123.5,68.6,123.5z M68.4,127.3
		c-2,0-3.5,1-4.5,2.9c-0.7,1.3-1,2.9-1,4.8c0,2.1,0.4,3.8,1.2,5.1c1,1.7,2.5,2.5,4.4,2.5c2.1,0,3.6-1,4.5-2.9c0.7-1.3,1-2.9,1-4.8
		c0-2.1-0.4-3.8-1.2-5.1C71.9,128.2,70.4,127.3,68.4,127.3z"/>
	<path class="st1" d="M98.9,124l4.8,0l-0.1,1.5c-0.1,3-0.2,5.4-0.2,7.2v10.8c0,2.6-0.2,4.5-0.5,5.8c-0.6,2.4-2,4.1-4.2,5.2
		c-1.7,0.8-3.8,1.3-6.2,1.3c-3.1,0-5.9-0.7-8.5-2l1.6-3.7c2.1,1.3,4.3,1.9,6.6,1.9c2.7,0,4.5-0.9,5.5-2.8c0.5-1,0.8-2.8,0.8-5.3
		v-1.6c-1.9,2.1-4,3.2-6.5,3.2c-2.7,0-4.8-1-6.5-3c-1.6-1.9-2.4-4.5-2.4-7.9c0-3.3,0.8-6,2.4-8c1.6-2,3.7-3,6.4-3
		c2.9,0,5.1,1.2,6.8,3.5L98.9,124z M98.4,131.4c-0.4-1-0.9-1.7-1.6-2.3c-1.1-1.1-2.4-1.7-3.8-1.7c-1.6,0-2.9,0.8-3.7,2.3
		c-0.7,1.3-1.1,3-1.1,4.9c0,1.9,0.4,3.5,1.2,4.8c0.9,1.4,2.1,2.2,3.8,2.2c1.4,0,2.6-0.6,3.8-1.8c0.5-0.5,1-1.2,1.4-2V131.4z"/>
	<path class="st1" d="M113.2,113.8c1,0,1.8,0.3,2.4,1c0.5,0.6,0.7,1.3,0.7,2.1c0,0.8-0.2,1.5-0.7,2.1c-0.6,0.7-1.4,1.1-2.4,1.1
		c-1,0-1.8-0.4-2.4-1.1c-0.5-0.6-0.7-1.3-0.7-2.1c0-0.8,0.2-1.5,0.7-2.1C111.4,114.1,112.2,113.8,113.2,113.8z M110.6,146v-22h5v22
		H110.6z"/>
	<path class="st1" d="M121,144.7l1.3-3.8c2.1,1.2,4,1.8,5.8,1.8c1.2,0,2.1-0.3,2.7-0.8c0.6-0.5,0.9-1.2,0.9-2c0-0.8-0.3-1.4-0.9-1.9
		c-0.4-0.3-1.6-0.8-3.5-1.5c-2.2-0.8-3.7-1.6-4.6-2.3c-1.1-1-1.7-2.3-1.7-4.1c0-2.1,0.8-3.8,2.4-5c1.4-1.1,3.3-1.6,5.7-1.6
		c2.3,0,4.7,0.5,7.1,1.6l-1.3,3.9c-1.9-1.1-3.8-1.7-5.6-1.7c-1,0-1.8,0.2-2.4,0.7c-0.6,0.4-0.9,1.1-0.9,1.9c0,0.8,0.4,1.4,1.2,1.9
		c0.4,0.3,1.6,0.7,3.5,1.4c2.3,0.8,3.8,1.7,4.7,2.7c0.9,0.9,1.3,2.1,1.3,3.7c0,2.1-0.7,3.7-2.2,5c-1.5,1.3-3.6,2-6.3,2
		C125.7,146.4,123.3,145.9,121,144.7z"/>
	<path class="st1" d="M143.5,127.8h-3.5V124h3.5v-4.8l5-1v5.7h5v3.8h-5V138c0,1.5,0.1,2.5,0.4,3.1c0.4,0.9,1.3,1.3,2.5,1.3
		c0.6,0,1.4-0.2,2.4-0.5l0.4,3.8c-1.5,0.5-3,0.7-4.5,0.7c-2.5,0-4.2-0.8-5.2-2.3c-0.7-1.1-1.1-3-1.1-5.9V127.8z"/>
	<path class="st1" d="M160.9,113.8c1,0,1.8,0.3,2.4,1c0.5,0.6,0.7,1.3,0.7,2.1c0,0.8-0.2,1.5-0.7,2.1c-0.6,0.7-1.4,1.1-2.4,1.1
		c-1,0-1.8-0.4-2.4-1.1c-0.5-0.6-0.7-1.3-0.7-2.1c0-0.8,0.2-1.5,0.7-2.1C159.1,114.1,159.9,113.8,160.9,113.8z M158.3,146v-22h5v22
		H158.3z"/>
	<path class="st1" d="M185.2,140.8l1.6,3.7c-2,1.3-4.4,1.9-7.1,1.9c-3.4,0-6.1-1-8.1-3.1c-1.9-2-2.8-4.8-2.8-8.3c0-3.7,1-6.6,3-8.7
		c1.8-1.9,4.2-2.8,7.4-2.8c2.5,0,4.9,0.6,7.2,1.7l-1.5,3.7c-1.7-1.1-3.4-1.6-5.1-1.6c-1.9,0-3.4,0.7-4.3,2.1
		c-0.9,1.4-1.4,3.2-1.4,5.5c0,2.4,0.5,4.3,1.6,5.6c1.1,1.3,2.6,2,4.5,2C181.9,142.6,183.5,142,185.2,140.8z"/>
	<path class="st1" d="M202,146v-29.8h5.2V146H202z"/>
	<path class="st1" d="M214.5,146v-14.3c0-2.2,0-4.3-0.1-6.3l-0.1-1.4h4.7l0.2,3.2c0.9-0.9,1.6-1.6,2.3-2c1.6-1.1,3.4-1.7,5.5-1.7
		c2.9,0,4.9,1,6,3.1c0.6,1.2,1,3.2,1,6.1V146h-5v-13c0-1.8-0.1-3-0.4-3.7c-0.5-1.3-1.6-1.9-3.2-1.9c-2,0-4,1.2-5.8,3.7V146H214.5z"
		/>
	<path class="st1" d="M242.1,146v-18.1h-3.5V124h3.5v-1.5c0-2.6,0.4-4.6,1.2-5.9c1.1-1.8,3-2.7,5.7-2.7c1.3,0,2.6,0.2,4,0.6l-0.4,4
		c-0.9-0.4-1.8-0.6-2.6-0.6c-1.3,0-2.2,0.6-2.6,1.9c-0.2,0.7-0.3,1.8-0.3,3.2v1h5v3.8h-5V146H242.1z"/>
	<path class="st1" d="M266.1,123.5c3.4,0,6.1,1.1,8,3.4c1.7,2.1,2.6,4.7,2.6,8c0,3.6-1,6.5-3.1,8.5c-1.9,2-4.5,2.9-7.7,2.9
		c-3.5,0-6.2-1.1-8.2-3.4c-1.7-2.1-2.6-4.7-2.6-8.1c0-3.6,1-6.4,3-8.5C260.2,124.5,262.8,123.5,266.1,123.5z M265.9,127.3
		c-2,0-3.5,1-4.5,2.9c-0.7,1.3-1,2.9-1,4.8c0,2.1,0.4,3.8,1.2,5.1c1,1.7,2.5,2.5,4.4,2.5c2.1,0,3.6-1,4.5-2.9c0.7-1.3,1-2.9,1-4.8
		c0-2.1-0.4-3.8-1.2-5.1C269.4,128.2,267.9,127.3,265.9,127.3z"/>
	<path class="st1" d="M282.3,146v-13.7c0-2.8-0.1-5.5-0.2-8.3h4.7l0.2,4.1c1.3-3,3.2-4.5,5.8-4.5c0.6,0,1.2,0.1,1.9,0.3l-0.3,4.5
		c-0.6-0.1-1.2-0.2-1.7-0.2c-1.6,0-2.9,0.7-4,2.1c-0.6,0.8-1.1,1.8-1.4,2.9V146H282.3z"/>
	<path class="st1" d="M298.7,146v-14.3c0-2.2,0-4.3-0.1-6.2l-0.1-1.5h4.7l0.2,3.2c0.7-0.8,1.5-1.5,2.2-2c1.5-1.1,3.2-1.7,5.1-1.7
		c3,0,5,1.3,6,4c0.8-1,1.6-1.8,2.4-2.3c1.5-1.1,3.2-1.7,5.1-1.7c2.7,0,4.6,1,5.7,3.1c0.6,1.2,0.9,3.3,0.9,6.1V146h-5v-13
		c0-1.8-0.1-3-0.4-3.7c-0.5-1.3-1.4-1.9-2.8-1.9c-1.9,0-3.6,1.2-5.2,3.7V146h-5v-13.5c0-1.6-0.2-2.7-0.5-3.4
		c-0.5-1.1-1.4-1.7-2.6-1.7c-1.9,0-3.6,1.2-5.3,3.7V146H298.7z"/>
	<path class="st1" d="M349.6,143.5c-0.8,0.8-1.5,1.4-2.2,1.8c-1.3,0.8-2.8,1.2-4.6,1.2c-2.3,0-4-0.6-5.2-1.8
		c-1.2-1.2-1.9-2.8-1.9-4.8c0-2.7,1.1-4.8,3.3-6.1c1.4-0.8,3.6-1.2,6.6-1.2c0.9,0,2.1,0,3.6,0.1v-0.4c0-3.3-1.6-5-4.9-5
		c-1.8,0-3.8,0.6-5.9,1.8l-1.3-3.6c2.5-1.3,5.2-1.9,7.9-1.9c3.5,0,6.1,1,7.6,2.9c0.8,1,1.3,2.3,1.5,4c0.1,0.8,0.1,1.9,0.1,3.4v6.6
		c0,2.3,0.1,4.2,0.2,5.6h-4.8L349.6,143.5z M349.3,135.8c-0.8-0.1-1.6-0.1-2.3-0.1c-4.1,0-6.1,1.3-6.1,4c0,0.9,0.3,1.7,0.9,2.3
		c0.6,0.7,1.5,1,2.5,1c1.9,0,3.6-1,5-3.1V135.8z"/>
	<path class="st1" d="M362.7,127.8h-3.5V124h3.5v-4.8l5-1v5.7h5v3.8h-5V138c0,1.5,0.1,2.5,0.4,3.1c0.4,0.9,1.3,1.3,2.5,1.3
		c0.6,0,1.4-0.2,2.4-0.5l0.4,3.8c-1.5,0.5-3,0.7-4.5,0.7c-2.5,0-4.2-0.8-5.2-2.3c-0.7-1.1-1.1-3-1.1-5.9V127.8z"/>
	<path class="st1" d="M380.1,113.8c1,0,1.8,0.3,2.4,1c0.5,0.6,0.7,1.3,0.7,2.1c0,0.8-0.2,1.5-0.7,2.1c-0.6,0.7-1.4,1.1-2.4,1.1
		c-1,0-1.8-0.4-2.4-1.1c-0.5-0.6-0.7-1.3-0.7-2.1c0-0.8,0.2-1.5,0.7-2.1C378.3,114.1,379.1,113.8,380.1,113.8z M377.5,146v-22h5v22
		H377.5z"/>
	<path class="st1" d="M398.9,123.5c3.4,0,6.1,1.1,8,3.4c1.7,2.1,2.6,4.7,2.6,8c0,3.6-1,6.5-3.1,8.5c-1.9,2-4.5,2.9-7.7,2.9
		c-3.5,0-6.2-1.1-8.2-3.4c-1.7-2.1-2.6-4.7-2.6-8.1c0-3.6,1-6.4,3-8.5C392.9,124.5,395.5,123.5,398.9,123.5z M398.7,127.3
		c-2,0-3.5,1-4.5,2.9c-0.7,1.3-1,2.9-1,4.8c0,2.1,0.4,3.8,1.2,5.1c1,1.7,2.5,2.5,4.4,2.5c2.1,0,3.6-1,4.5-2.9c0.7-1.3,1-2.9,1-4.8
		c0-2.1-0.4-3.8-1.2-5.1C402.1,128.2,400.6,127.3,398.7,127.3z"/>
	<path class="st1" d="M415,146v-14.3c0-2.2,0-4.3-0.1-6.3l-0.1-1.4h4.7l0.2,3.2c0.9-0.9,1.6-1.6,2.3-2c1.6-1.1,3.4-1.7,5.5-1.7
		c2.9,0,4.9,1,6,3.1c0.6,1.2,1,3.2,1,6.1V146h-5v-13c0-1.8-0.1-3-0.4-3.7c-0.5-1.3-1.6-1.9-3.2-1.9c-2,0-4,1.2-5.8,3.7V146H415z"/>
</g>
</svg>
