<svg xmlns="http://www.w3.org/2000/svg" viewBox="0 0 77.64 77.64"><defs><style>.cls-1{fill:#d8c71a;}.cls-2{fill:#fff;}</style></defs><title>资源 30</title><g id="图层_2" data-name="图层 2"><g id="图层_1-2" data-name="图层 1"><rect class="cls-1" width="77.64" height="77.64"/><path class="cls-2" d="M48.42,27.38H37.51l-1.1,7.34a16.59,16.59,0,0,1,2.33-.17,12,12,0,0,1,6.16,1.54A8.14,8.14,0,0,1,49,43.44c0,5.59-4.45,9.77-10.65,9.77a14,14,0,0,1-7.13-1.76l1-3a12.82,12.82,0,0,0,6.11,1.58c3.66,0,6.78-2.37,6.78-6.2s-2.51-6.34-8.23-6.34a29.91,29.91,0,0,0-4,.31l1.85-13.73H48.42Z"/></g></g></svg>