<?xml version="1.0" encoding="utf-8"?>
<!-- Generator: Adobe Illustrator 23.0.1, SVG Export Plug-In . SVG Version: 6.00 Build 0)  -->
<svg version="1.1" id="图层_1" xmlns="http://www.w3.org/2000/svg" xmlns:xlink="http://www.w3.org/1999/xlink" x="0px" y="0px"
	 viewBox="0 0 156.78 36.41" style="enable-background:new 0 0 156.78 36.41;" xml:space="preserve">
<style type="text/css">
	.st0{fill:#221714;}
</style>
<g>
	<path class="st0" d="M1,0.53C2.72,0.25,4.98,0,7.85,0c3.53,0,6.11,0.82,7.75,2.3c1.52,1.31,2.42,3.32,2.42,5.78
		c0,2.5-0.74,4.47-2.13,5.9c-1.89,2.01-4.96,3.03-8.45,3.03c-1.07,0-2.05-0.04-2.87-0.25v11.07H1V0.53z M4.57,13.86
		c0.78,0.2,1.76,0.29,2.95,0.29c4.3,0,6.93-2.09,6.93-5.9c0-3.65-2.58-5.41-6.52-5.41c-1.56,0-2.75,0.12-3.36,0.29V13.86z"/>
	<path class="st0" d="M25.15,14.19c0-2.34-0.04-4.35-0.16-6.19h3.16l0.12,3.9h0.16c0.9-2.67,3.08-4.35,5.49-4.35
		c0.41,0,0.7,0.04,1.02,0.12v3.4c-0.37-0.08-0.74-0.12-1.23-0.12c-2.54,0-4.35,1.93-4.84,4.63c-0.08,0.49-0.16,1.07-0.16,1.68v10.58
		h-3.57V14.19z"/>
	<path class="st0" d="M58.97,17.75c0,7.34-5.08,10.54-9.88,10.54c-5.37,0-9.51-3.94-9.51-10.21c0-6.64,4.35-10.54,9.84-10.54
		C55.12,7.54,58.97,11.69,58.97,17.75z M43.23,17.96c0,4.35,2.5,7.63,6.03,7.63c3.44,0,6.03-3.24,6.03-7.71
		c0-3.36-1.68-7.63-5.95-7.63C45.07,10.25,43.23,14.19,43.23,17.96z"/>
	<path class="st0" d="M83.08,8c-0.08,1.44-0.16,3.03-0.16,5.45v11.52c0,4.55-0.9,7.34-2.83,9.06c-1.93,1.8-4.71,2.38-7.22,2.38
		c-2.38,0-5-0.57-6.6-1.64l0.9-2.75c1.31,0.82,3.36,1.56,5.82,1.56c3.69,0,6.4-1.93,6.4-6.93v-2.21h-0.08
		c-1.11,1.84-3.24,3.32-6.31,3.32c-4.92,0-8.45-4.18-8.45-9.68c0-6.72,4.39-10.54,8.94-10.54c3.44,0,5.33,1.8,6.19,3.44h0.08
		L79.92,8H83.08z M79.35,15.83c0-0.61-0.04-1.15-0.21-1.64c-0.66-2.09-2.42-3.81-5.04-3.81c-3.44,0-5.9,2.91-5.9,7.5
		c0,3.9,1.97,7.13,5.86,7.13c2.21,0,4.22-1.39,5-3.69c0.21-0.62,0.29-1.31,0.29-1.93V15.83z"/>
	<path class="st0" d="M91.36,14.19c0-2.34-0.04-4.35-0.16-6.19h3.16l0.12,3.9h0.16c0.9-2.67,3.08-4.35,5.49-4.35
		c0.41,0,0.7,0.04,1.02,0.12v3.4c-0.37-0.08-0.74-0.12-1.23-0.12c-2.54,0-4.35,1.93-4.84,4.63c-0.08,0.49-0.16,1.07-0.16,1.68v10.58
		h-3.57V14.19z"/>
	<path class="st0" d="M118.22,27.84l-0.29-2.5h-0.12c-1.11,1.56-3.24,2.95-6.07,2.95c-4.02,0-6.07-2.83-6.07-5.7
		c0-4.8,4.26-7.42,11.93-7.38V14.8c0-1.64-0.45-4.59-4.51-4.59c-1.84,0-3.77,0.57-5.17,1.48l-0.82-2.38
		c1.64-1.07,4.02-1.76,6.52-1.76c6.07,0,7.54,4.14,7.54,8.12v7.42c0,1.72,0.08,3.4,0.33,4.76H118.22z M117.68,17.71
		c-3.94-0.08-8.41,0.61-8.41,4.47c0,2.34,1.56,3.44,3.4,3.44c2.58,0,4.22-1.64,4.8-3.32c0.12-0.37,0.21-0.78,0.21-1.15V17.71z"/>
	<path class="st0" d="M129.45,13.37c0-2.05-0.04-3.73-0.16-5.37h3.16l0.16,3.2h0.12c1.11-1.89,2.95-3.65,6.23-3.65
		c2.71,0,4.76,1.64,5.62,3.98h0.08c0.62-1.11,1.39-1.97,2.21-2.58c1.19-0.9,2.5-1.39,4.39-1.39c2.62,0,6.52,1.72,6.52,8.61v11.69
		h-3.53V16.61c0-3.81-1.39-6.11-4.31-6.11c-2.05,0-3.65,1.52-4.26,3.28c-0.16,0.49-0.29,1.15-0.29,1.8v12.26h-3.53V15.95
		c0-3.16-1.39-5.45-4.14-5.45c-2.25,0-3.9,1.8-4.47,3.61c-0.21,0.53-0.29,1.15-0.29,1.76v11.97h-3.53V13.37z"/>
</g>
</svg>
