<svg xmlns="http://www.w3.org/2000/svg" xmlns:xlink="http://www.w3.org/1999/xlink" viewBox="0 0 839.7 684.8"><defs><style>.cls-1,.cls-11,.cls-18,.cls-19,.cls-20,.cls-21,.cls-3,.cls-5,.cls-7,.cls-9{fill:none;}.cls-2{fill:#b6c5cf;}.cls-11,.cls-3,.cls-9{stroke:#b6c5cf;}.cls-11,.cls-18,.cls-19,.cls-20,.cls-21,.cls-3,.cls-5,.cls-7,.cls-9{stroke-miterlimit:10;}.cls-4{fill:#c7c7c7;}.cls-5{stroke:#c7c7c7;}.cls-6{fill:#fff;}.cls-7{stroke:#221714;stroke-width:0.75px;}.cls-8{fill:#788082;}.cls-11,.cls-9{stroke-width:0.5px;}.cls-9{stroke-dasharray:4 1;}.cls-10{clip-path:url(#clip-path);}.cls-12{clip-path:url(#clip-path-2);}.cls-13{fill:#231815;}.cls-14{fill:#9494a4;}.cls-15{fill:#7c7980;}.cls-16{fill:#d4d4d7;}.cls-17{fill:#8400df;}.cls-18,.cls-19,.cls-20,.cls-21{stroke:#8400df;}.cls-19{stroke-dasharray:7.91 7.91;}.cls-20{stroke-dasharray:7.65 7.65;}.cls-21{stroke-dasharray:7.63 7.63;}.cls-22{clip-path:url(#clip-path-3);}.cls-23{fill:#1af529;}</style><clipPath id="clip-path"><rect class="cls-1" x="410.26" y="111.41" width="10.75" height="23.38" transform="translate(831.27 246.21) rotate(180)"/></clipPath><clipPath id="clip-path-2"><rect class="cls-1" x="446.14" y="113.26" width="10.75" height="23.38"/></clipPath><clipPath id="clip-path-3"><rect class="cls-1" x="123.87" y="142.72" width="28.49" height="29.64"/></clipPath></defs><title>资源 1</title><g id="图层_2" data-name="图层 2"><g id="图层_1-2" data-name="图层 1"><rect class="cls-2" x="0.76" y="214.8" width="838.93" height="470"/><polyline class="cls-3" points="123.82 102.83 138.58 93.47 124.72 93.47"/><line class="cls-3" x1="124.72" y1="90.23" x2="138.58" y2="90.23"/><line class="cls-3" x1="124.72" y1="87.17" x2="138.58" y2="87.17"/><line class="cls-3" x1="124.72" y1="84.11" x2="138.58" y2="84.11"/><line class="cls-3" x1="124.72" y1="99.59" x2="128.86" y2="99.59"/><line class="cls-3" x1="123.82" y1="96.53" x2="133.72" y2="96.53"/><line class="cls-3" x1="123.82" y1="93.47" x2="124.18" y2="93.47"/><line class="cls-3" x1="123.82" y1="90.23" x2="124.18" y2="90.23"/><line class="cls-3" x1="123.82" y1="87.17" x2="124.18" y2="87.17"/><line class="cls-3" x1="123.82" y1="99.59" x2="124.18" y2="99.59"/><polyline class="cls-3" points="124.72 102.29 124.72 84.11 123.82 84.11"/><line class="cls-3" x1="124.18" y1="102.47" x2="124.18" y2="84.11"/><path class="cls-2" d="M138.9,67.79H107v124.6H0V34.1S5.09,1,42.76,0H138.9Z"/><rect x="47.78" y="118.48" width="10.54" height="11.31"/><rect x="47.78" y="47.28" width="10.54" height="11.31"/><rect class="cls-4" x="107.13" y="123.78" width="62.05" height="67.88"/><rect class="cls-5" x="671.28" y="124.14" width="73.09" height="67.88"/><rect class="cls-2" x="204.76" y="88.1" width="67.84" height="139.22" transform="translate(396.39 -80.98) rotate(90)"/><rect class="cls-6" x="293.51" y="176.9" width="21.05" height="5.08" transform="translate(124.6 483.48) rotate(-90)"/><rect class="cls-6" x="293.51" y="155.46" width="21.05" height="5.08" transform="translate(146.04 462.05) rotate(-90)"/><rect class="cls-6" x="293.51" y="134.03" width="21.05" height="5.08" transform="translate(167.47 440.61) rotate(-90)"/><rect class="cls-6" x="163.09" y="176.69" width="21.05" height="5.08" transform="translate(-5.62 352.85) rotate(-90)"/><rect class="cls-6" x="163.09" y="155.67" width="21.05" height="5.08" transform="translate(15.4 331.83) rotate(-90)"/><rect class="cls-6" x="163.09" y="134.23" width="21.05" height="5.08" transform="translate(36.84 310.39) rotate(-90)"/><path class="cls-7" d="M263.86,200.56s8-.64,8-9.24c0,0-1.11,8.12,7.47,9.24"/><line class="cls-7" x1="279.36" y1="200.56" x2="279.36" y2="191.32"/><line class="cls-7" x1="263.86" y1="200.56" x2="263.86" y2="191.32"/><path class="cls-7" d="M334.05,205.37s-8,.63-8,9.24c0,0,1.11-8.13-7.48-9.24"/><line class="cls-7" x1="318.54" y1="205.37" x2="318.54" y2="214.61"/><line class="cls-7" x1="334.05" y1="205.37" x2="334.05" y2="214.61"/><path class="cls-7" d="M201.37,200.56s8-.64,8-9.24c0,0-1.11,8.12,7.48,9.24"/><line class="cls-7" x1="216.88" y1="200.56" x2="216.88" y2="191.32"/><line class="cls-7" x1="201.37" y1="200.56" x2="201.37" y2="191.32"/><path class="cls-3" d="M148.49,83.09s-.64-8-9.25-8c0,0,8.13,1.11,9.25-7.47"/><line class="cls-3" x1="148.49" y1="67.59" x2="139.24" y2="67.59"/><line class="cls-3" x1="148.49" y1="83.09" x2="139.24" y2="83.09"/><path class="cls-3" d="M116.43,83.09s-.64-8-9.24-8c0,0,8.13,1.11,9.24-7.47"/><line class="cls-3" x1="116.43" y1="67.59" x2="107.19" y2="67.59"/><line class="cls-3" x1="116.43" y1="83.09" x2="107.19" y2="83.09"/><rect class="cls-8" x="306.4" y="125.68" width="67.91" height="64.07" transform="translate(498.07 -182.64) rotate(90)"/><rect class="cls-3" x="372.39" y="123.76" width="122.98" height="68.15"/><rect class="cls-3" x="495.9" y="123.76" width="174.42" height="68.15"/><line class="cls-3" x1="475.17" y1="87.89" x2="392.55" y2="87.89"/><line class="cls-3" x1="475.2" y1="95.27" x2="475.2" y2="87.53"/><line class="cls-3" x1="392.76" y1="95.27" x2="392.76" y2="87.53"/><line class="cls-3" x1="475.17" y1="91.67" x2="392.55" y2="91.67"/><line class="cls-3" x1="475.17" y1="95.27" x2="392.55" y2="95.27"/><line class="cls-3" x1="494.61" y1="124.97" x2="494.61" y2="115.07"/><line class="cls-3" x1="494.61" y1="87.89" x2="475.17" y2="87.89"/><line class="cls-3" x1="373.11" y1="124.97" x2="373.11" y2="115.07"/><line class="cls-3" x1="373.11" y1="87.89" x2="392.55" y2="87.89"/><polyline class="cls-3" points="378.15 112.55 378.15 115.07 365.73 115.07 365.73 112.55 378.15 112.55"/><line class="cls-3" x1="373.11" y1="99.59" x2="373.11" y2="87.89"/><polyline class="cls-3" points="489.75 112.55 489.75 115.07 502.17 115.07 502.17 112.55 489.75 112.55"/><line class="cls-3" x1="392.55" y1="87.89" x2="399.21" y2="87.89"/><line class="cls-3" x1="392.55" y1="91.67" x2="399.21" y2="91.67"/><line class="cls-3" x1="392.55" y1="87.89" x2="399.21" y2="87.89"/><line class="cls-3" x1="392.55" y1="95.27" x2="399.21" y2="95.27"/><line class="cls-3" x1="392.55" y1="91.67" x2="399.21" y2="91.67"/><line class="cls-3" x1="486.33" y1="87.53" x2="487.05" y2="87.53"/><line class="cls-3" x1="368.79" y1="98.33" x2="368.79" y2="91.31"/><line class="cls-3" x1="370.05" y1="99.59" x2="370.05" y2="91.31"/><line class="cls-3" x1="373.11" y1="99.59" x2="373.11" y2="90.05"/><line class="cls-3" x1="365.73" y1="98.33" x2="365.73" y2="90.05"/><line class="cls-3" x1="370.05" y1="91.31" x2="368.79" y2="91.31"/><line class="cls-3" x1="368.79" y1="110.03" x2="325.23" y2="110.03"/><line class="cls-3" x1="370.05" y1="108.77" x2="325.23" y2="108.77"/><line class="cls-3" x1="370.05" y1="99.59" x2="325.23" y2="99.59"/><line class="cls-3" x1="368.79" y1="98.33" x2="325.23" y2="98.33"/><line class="cls-3" x1="333.15" y1="108.77" x2="333.15" y2="99.59"/><line class="cls-3" x1="335.67" y1="108.77" x2="335.67" y2="99.59"/><line class="cls-3" x1="338.37" y1="108.77" x2="338.37" y2="99.59"/><line class="cls-3" x1="340.89" y1="108.77" x2="340.89" y2="99.59"/><line class="cls-3" x1="343.41" y1="108.77" x2="343.41" y2="99.59"/><line class="cls-3" x1="346.11" y1="108.77" x2="346.11" y2="99.59"/><line class="cls-3" x1="348.63" y1="108.77" x2="348.63" y2="99.59"/><line class="cls-3" x1="351.15" y1="108.77" x2="351.15" y2="99.59"/><line class="cls-3" x1="353.85" y1="108.77" x2="353.85" y2="99.59"/><line class="cls-3" x1="356.37" y1="108.77" x2="356.37" y2="99.59"/><line class="cls-3" x1="365.73" y1="112.55" x2="365.73" y2="110.03"/><line class="cls-3" x1="368.97" y1="108.77" x2="368.97" y2="99.59"/><line class="cls-3" x1="361.59" y1="108.77" x2="361.59" y2="99.59"/><line class="cls-3" x1="364.11" y1="108.77" x2="364.11" y2="99.59"/><line class="cls-3" x1="366.81" y1="108.77" x2="366.81" y2="99.59"/><line class="cls-3" x1="359.07" y1="108.77" x2="359.07" y2="99.59"/><line class="cls-3" x1="368.79" y1="112.55" x2="368.79" y2="110.03"/><line class="cls-3" x1="370.05" y1="112.55" x2="370.05" y2="108.77"/><line class="cls-3" x1="370.05" y1="99.59" x2="373.11" y2="99.59"/><line class="cls-3" x1="327.93" y1="108.77" x2="327.93" y2="99.59"/><line class="cls-3" x1="330.63" y1="108.77" x2="330.63" y2="99.59"/><line class="cls-3" x1="325.23" y1="98.33" x2="325.23" y2="99.59"/><line class="cls-3" x1="325.23" y1="110.03" x2="325.23" y2="108.77"/><line class="cls-3" x1="392.55" y1="95.27" x2="399.21" y2="95.27"/><line class="cls-3" x1="338.37" y1="104.27" x2="359.07" y2="104.27"/><polygon class="cls-3" points="359.07 104.27 353.85 104.63 353.85 103.73 359.07 104.27"/><polygon class="cls-3" points="359.07 104.27 353.85 104.63 353.85 103.73 359.07 104.27"/><line class="cls-3" x1="325.23" y1="98.33" x2="318.93" y2="98.33"/><line class="cls-3" x1="325.23" y1="99.59" x2="318.93" y2="99.59"/><line class="cls-3" x1="325.23" y1="108.77" x2="318.93" y2="108.77"/><line class="cls-3" x1="325.23" y1="110.03" x2="318.93" y2="110.03"/><line class="cls-3" x1="325.23" y1="108.77" x2="318.93" y2="108.77"/><line class="cls-3" x1="325.23" y1="110.03" x2="318.93" y2="110.03"/><line class="cls-3" x1="494.61" y1="124.97" x2="494.61" y2="115.07"/><line class="cls-3" x1="494.61" y1="99.59" x2="494.61" y2="87.89"/><line class="cls-3" x1="499.11" y1="98.33" x2="499.11" y2="91.31"/><line class="cls-3" x1="497.85" y1="99.59" x2="497.85" y2="91.31"/><line class="cls-3" x1="497.85" y1="91.31" x2="499.11" y2="91.31"/><line class="cls-3" x1="499.11" y1="110.03" x2="542.49" y2="110.03"/><line class="cls-3" x1="497.85" y1="108.77" x2="542.49" y2="108.77"/><line class="cls-3" x1="497.85" y1="99.59" x2="542.49" y2="99.59"/><line class="cls-3" x1="499.11" y1="98.33" x2="542.49" y2="98.33"/><line class="cls-3" x1="534.57" y1="108.77" x2="534.57" y2="99.59"/><line class="cls-3" x1="532.05" y1="108.77" x2="532.05" y2="99.59"/><line class="cls-3" x1="529.53" y1="108.77" x2="529.53" y2="99.59"/><line class="cls-3" x1="526.83" y1="108.77" x2="526.83" y2="99.59"/><line class="cls-3" x1="524.31" y1="108.77" x2="524.31" y2="99.59"/><line class="cls-3" x1="521.79" y1="108.77" x2="521.79" y2="99.59"/><line class="cls-3" x1="519.09" y1="108.77" x2="519.09" y2="99.59"/><line class="cls-3" x1="516.57" y1="108.77" x2="516.57" y2="99.59"/><line class="cls-3" x1="514.05" y1="108.77" x2="514.05" y2="99.59"/><line class="cls-3" x1="511.35" y1="108.77" x2="511.35" y2="99.59"/><line class="cls-3" x1="502.17" y1="112.55" x2="502.17" y2="110.03"/><line class="cls-3" x1="498.75" y1="108.77" x2="498.75" y2="99.59"/><line class="cls-3" x1="506.31" y1="108.77" x2="506.31" y2="99.59"/><line class="cls-3" x1="503.61" y1="108.77" x2="503.61" y2="99.59"/><line class="cls-3" x1="501.09" y1="108.77" x2="501.09" y2="99.59"/><line class="cls-3" x1="508.83" y1="108.77" x2="508.83" y2="99.59"/><line class="cls-3" x1="499.11" y1="112.55" x2="499.11" y2="110.03"/><line class="cls-3" x1="497.85" y1="112.55" x2="497.85" y2="108.77"/><line class="cls-3" x1="497.85" y1="99.59" x2="494.61" y2="99.59"/><line class="cls-3" x1="539.79" y1="108.77" x2="539.79" y2="99.59"/><line class="cls-3" x1="537.27" y1="108.77" x2="537.27" y2="99.59"/><line class="cls-3" x1="542.49" y1="98.33" x2="542.49" y2="99.59"/><line class="cls-3" x1="542.49" y1="110.03" x2="542.49" y2="108.77"/><line class="cls-3" x1="529.53" y1="104.27" x2="508.83" y2="104.27"/><polygon class="cls-3" points="508.83 104.27 514.05 103.73 514.05 104.63 508.83 104.27"/><polygon class="cls-3" points="508.83 104.27 514.05 103.73 514.05 104.63 508.83 104.27"/><line class="cls-3" x1="542.49" y1="98.33" x2="548.97" y2="98.33"/><line class="cls-3" x1="542.49" y1="99.59" x2="548.97" y2="99.59"/><polyline class="cls-3" points="547.35 101.57 547.35 99.59 547.35 98.33 547.35 96.17"/><line class="cls-3" x1="542.49" y1="108.77" x2="548.97" y2="108.77"/><line class="cls-3" x1="542.49" y1="99.59" x2="548.97" y2="99.59"/><line class="cls-3" x1="547.35" y1="110.75" x2="547.35" y2="99.59"/><line class="cls-3" x1="542.49" y1="108.77" x2="548.97" y2="108.77"/><polyline class="cls-3" points="547.35 106.79 547.35 108.77 547.35 110.03 547.35 112.19"/><line class="cls-3" x1="542.13" y1="112.55" x2="548.97" y2="112.55"/><line class="cls-3" x1="547.35" y1="110.03" x2="547.35" y2="108.05"/><polyline class="cls-3" points="547.35 110.03 547.35 112.55 547.35 110.03"/><line class="cls-3" x1="0.76" y1="214.8" x2="837.69" y2="214.8"/><circle class="cls-9" cx="425.79" cy="124.35" r="7.53"/><circle class="cls-9" cx="441.38" cy="124.35" r="7.53"/><g class="cls-10"><circle class="cls-9" cx="410.72" cy="124.18" r="7.53"/></g><line class="cls-11" x1="410.07" y1="116.42" x2="410.07" y2="131.95"/><g class="cls-12"><circle class="cls-9" cx="456.43" cy="123.88" r="7.53"/></g><line class="cls-11" x1="457.09" y1="131.64" x2="457.09" y2="116.11"/><line class="cls-11" x1="425.96" y1="116.74" x2="425.96" y2="132.27"/><line class="cls-11" x1="441.45" y1="116.74" x2="441.45" y2="132.27"/><path class="cls-3" d="M252,215l.54,26.46H252Zm.54,0H252l.54,26.46Z"/><rect class="cls-13" x="491.1" y="306.26" width="7.66" height="6.59" transform="translate(989.86 619.12) rotate(180)"/><rect class="cls-13" x="491.1" y="401.01" width="7.66" height="6.59" transform="translate(989.86 808.62) rotate(180)"/><rect class="cls-13" x="491.1" y="495.79" width="7.66" height="6.59" transform="translate(989.86 998.17) rotate(180)"/><rect class="cls-13" x="491.1" y="591.02" width="7.66" height="6.59" transform="translate(989.86 1188.64) rotate(180)"/><rect class="cls-13" x="741.65" y="306.26" width="7.66" height="6.59" transform="translate(1490.96 619.12) rotate(180)"/><rect class="cls-13" x="741.65" y="401.01" width="7.66" height="6.59" transform="translate(1490.96 808.62) rotate(180)"/><rect class="cls-13" x="741.65" y="495.79" width="7.66" height="6.59" transform="translate(1490.96 998.17) rotate(180)"/><rect class="cls-13" x="741.65" y="591.02" width="7.66" height="6.59" transform="translate(1490.96 1188.64) rotate(180)"/><rect class="cls-13" x="238.53" y="249.91" width="7.66" height="6.59" transform="translate(484.72 506.41) rotate(180)"/><rect class="cls-13" x="238.53" y="306.26" width="7.66" height="6.59" transform="translate(484.72 619.12) rotate(180)"/><rect class="cls-13" x="238.53" y="401.01" width="7.66" height="6.59" transform="translate(484.72 808.62) rotate(180)"/><rect class="cls-13" x="238.53" y="495.79" width="7.66" height="6.59" transform="translate(484.72 998.17) rotate(180)"/><rect class="cls-13" x="238.53" y="591.02" width="7.66" height="6.59" transform="translate(484.72 1188.64) rotate(180)"/><path class="cls-14" d="M466.85,582.83s-22.43-37.11-95-37.11c-77.05,0-98.08,37.77-98.08,37.77.24,24.71.24,26.16.24,26.16h193Z"/><path class="cls-15" d="M466.85,588.76s-22.21-39.1-94.8-39.1c-77.06,0-98.31,38.89-98.31,38.89.24,24.7.24,25.3.24,25.3h193Z"/><path class="cls-16" d="M446.47,592.93s-44-62.61-149.88-25.35c0,0,41.48-28.6,110.34-14.47,0,0,38.38,5.28,60,35.52Z"/><path class="cls-13" d="M466.85,600.44s-43.31,13.89-96.55,13.89-96.56-14.22-96.56-14.22V587S330,600.11,371,600.11s95.89-12.89,95.89-12.89Z"/><path d="M34,83.5h1.48V93.72H40.4V95H34Z"/><path d="M48.63,92.71c0,.85,0,1.6.07,2.25H47.37l-.08-1.35h0a3.07,3.07,0,0,1-2.72,1.53c-1.29,0-2.84-.71-2.84-3.6V86.73h1.5v4.56c0,1.56.48,2.61,1.84,2.61a2.15,2.15,0,0,0,2-1.36,2.28,2.28,0,0,0,.13-.76v-5h1.5Z"/><path d="M51.11,89c0-.85,0-1.55-.06-2.23h1.32l.09,1.36h0a3,3,0,0,1,2.72-1.55c1.14,0,2.91.68,2.91,3.5V95h-1.5V90.21c0-1.32-.49-2.43-1.9-2.43A2.19,2.19,0,0,0,52.61,90V95h-1.5Z"/><path d="M66.41,94.65a5.41,5.41,0,0,1-2.36.48,3.92,3.92,0,0,1-4.1-4.2,4.19,4.19,0,0,1,4.42-4.37,5.09,5.09,0,0,1,2.08.42l-.34,1.16a3.54,3.54,0,0,0-1.74-.39,3.1,3.1,0,0,0-.05,6.19,4.24,4.24,0,0,0,1.84-.41Z"/><path d="M68.16,82.89h1.5V88h0a2.84,2.84,0,0,1,1.07-1,3.06,3.06,0,0,1,1.53-.43c1.11,0,2.88.68,2.88,3.52V95h-1.5V90.23c0-1.32-.49-2.45-1.9-2.45a2.15,2.15,0,0,0-2,1.5,1.87,1.87,0,0,0-.1.71v5h-1.5Z"/><path d="M208.5,153.33H205v-1.26h8.48v1.26H210v10.2h-1.5Z"/><path d="M214.35,159.68a2.64,2.64,0,0,0,2.82,2.86,5.56,5.56,0,0,0,2.28-.42l.25,1.07a6.73,6.73,0,0,1-2.73.51,3.82,3.82,0,0,1-4.05-4.15c0-2.48,1.46-4.44,3.86-4.44,2.69,0,3.4,2.36,3.4,3.88a5.05,5.05,0,0,1-.05.69Zm4.38-1.07a2.13,2.13,0,0,0-2.07-2.43,2.48,2.48,0,0,0-2.29,2.43Z"/><path d="M226.59,163.53l-.12-1h-.05a3.05,3.05,0,0,1-2.52,1.22,2.34,2.34,0,0,1-2.51-2.36c0-2,1.76-3.08,4.94-3.06v-.17a1.69,1.69,0,0,0-1.87-1.9,4.15,4.15,0,0,0-2.14.61l-.34-1a5.13,5.13,0,0,1,2.7-.73c2.52,0,3.13,1.72,3.13,3.37v3.07a11.81,11.81,0,0,0,.14,2Zm-.22-4.2c-1.63,0-3.49.25-3.49,1.85a1.33,1.33,0,0,0,1.41,1.43,2,2,0,0,0,2-1.38,1.56,1.56,0,0,0,.09-.47Z"/><path d="M233.76,163.53c0-.56.07-1.4.07-2.13v-9.94h1.48v5.16h0a3.09,3.09,0,0,1,2.81-1.51c2,0,3.48,1.7,3.47,4.2,0,2.94-1.86,4.4-3.69,4.4a3,3,0,0,1-2.76-1.54h0l-.07,1.36Zm1.55-3.3a2.35,2.35,0,0,0,.07.54,2.3,2.3,0,0,0,2.24,1.75c1.57,0,2.5-1.27,2.5-3.16,0-1.65-.85-3.06-2.45-3.06a2.39,2.39,0,0,0-2.28,1.84,3.23,3.23,0,0,0-.08.61Z"/><path d="M243.5,157.87c0-1,0-1.81-.06-2.57h1.3l.06,1.61h.06a2.48,2.48,0,0,1,2.28-1.8,1.88,1.88,0,0,1,.43,0v1.41a2.59,2.59,0,0,0-.51,0,2.1,2.1,0,0,0-2,1.92,4.88,4.88,0,0,0-.07.7v4.39H243.5Z"/><path d="M249.73,159.68a2.63,2.63,0,0,0,2.82,2.86,5.51,5.51,0,0,0,2.27-.42l.26,1.07a6.83,6.83,0,0,1-2.74.51,3.82,3.82,0,0,1-4-4.15c0-2.48,1.46-4.44,3.86-4.44,2.68,0,3.4,2.36,3.4,3.88,0,.3,0,.54-.05.69Zm4.38-1.07a2.13,2.13,0,0,0-2.07-2.43,2.48,2.48,0,0,0-2.3,2.43Z"/><path d="M262,163.53l-.12-1h-.06a3,3,0,0,1-2.51,1.22,2.34,2.34,0,0,1-2.52-2.36c0-2,1.77-3.08,4.95-3.06v-.17a1.69,1.69,0,0,0-1.87-1.9,4.12,4.12,0,0,0-2.14.61l-.34-1a5.11,5.11,0,0,1,2.7-.73c2.52,0,3.13,1.72,3.13,3.37v3.07a11.88,11.88,0,0,0,.13,2Zm-.23-4.2c-1.63,0-3.48.25-3.48,1.85a1.32,1.32,0,0,0,1.41,1.43,2,2,0,0,0,2-1.38,1.55,1.55,0,0,0,.08-.47Z"/><path d="M267.08,159.07h0c.2-.29.49-.64.73-.93l2.41-2.84h1.8l-3.18,3.38,3.63,4.85h-1.82l-2.84-3.95-.77.85v3.1H265.6V151.46h1.48Z"/><rect class="cls-17" x="63.22" y="246.52" width="140.85" height="42.17"/><path class="cls-6" d="M85.33,269.74a10.58,10.58,0,0,1-3.51.63,5.38,5.38,0,0,1-5.89-5.78c0-3.41,2.37-5.91,6.21-5.91a7,7,0,0,1,2.85.53l-.35,1.2a6,6,0,0,0-2.54-.49,4.28,4.28,0,0,0-4.6,4.61c0,2.9,1.75,4.62,4.42,4.62a4.79,4.79,0,0,0,2-.31v-3.41H81.56v-1.19h3.77Z"/><path class="cls-6" d="M92.24,270.25l-.12-1h-.05a3.09,3.09,0,0,1-2.52,1.22A2.35,2.35,0,0,1,87,268.08c0-2,1.77-3.08,5-3.06v-.17a1.7,1.7,0,0,0-1.87-1.91,4.06,4.06,0,0,0-2.14.62l-.34-1a5.13,5.13,0,0,1,2.7-.73c2.52,0,3.13,1.72,3.13,3.37v3.07a10.73,10.73,0,0,0,.14,2ZM92,266.06c-1.63,0-3.48.25-3.48,1.85a1.33,1.33,0,0,0,1.41,1.43,2,2,0,0,0,2-1.38,1.56,1.56,0,0,0,.08-.48Z"/><path class="cls-6" d="M97.61,259.66V262h2.14v1.14H97.61v4.43c0,1,.29,1.6,1.12,1.6a3.44,3.44,0,0,0,.87-.1l.07,1.12a3.67,3.67,0,0,1-1.33.2,2,2,0,0,1-1.61-.63,3,3,0,0,1-.58-2.14v-4.48H94.87V262h1.28v-2Z"/><path class="cls-6" d="M101.43,258.19h1.5v5.13h0a2.82,2.82,0,0,1,1.08-1.06,3.09,3.09,0,0,1,1.52-.42c1.11,0,2.88.68,2.88,3.52v4.89h-1.5v-4.72c0-1.33-.49-2.45-1.9-2.45a2.15,2.15,0,0,0-2,1.5,1.87,1.87,0,0,0-.1.71v5h-1.5Z"/><path class="cls-6" d="M111.7,266.41a2.64,2.64,0,0,0,2.82,2.86,5.38,5.38,0,0,0,2.28-.43l.26,1.07a6.66,6.66,0,0,1-2.74.51,3.82,3.82,0,0,1-4-4.14c0-2.49,1.47-4.44,3.86-4.44,2.69,0,3.4,2.36,3.4,3.88a5.05,5.05,0,0,1,0,.69Zm4.39-1.07a2.13,2.13,0,0,0-2.08-2.43,2.47,2.47,0,0,0-2.29,2.43Z"/><path class="cls-6" d="M119.39,264.59c0-1,0-1.8-.07-2.56h1.31l.05,1.61h.07a2.46,2.46,0,0,1,2.27-1.8,1.88,1.88,0,0,1,.43.05v1.41a2.51,2.51,0,0,0-.51-.05,2.1,2.1,0,0,0-2,1.92,4.6,4.6,0,0,0-.07.7v4.38h-1.47Z"/><path class="cls-6" d="M126.68,259.71a.93.93,0,0,1-1.86,0,.92.92,0,0,1,.94-.93A.89.89,0,0,1,126.68,259.71ZM125,270.25V262h1.5v8.22Z"/><path class="cls-6" d="M129,264.25c0-.85,0-1.54-.07-2.22h1.33l.08,1.36h0a3,3,0,0,1,2.72-1.55c1.13,0,2.9.68,2.9,3.5v4.91H134.5v-4.74c0-1.32-.5-2.43-1.91-2.43a2.12,2.12,0,0,0-2,1.53,2.1,2.1,0,0,0-.11.7v4.94H129Z"/><path class="cls-6" d="M145.51,262c0,.59-.07,1.25-.07,2.26v4.77c0,1.89-.37,3.05-1.17,3.76a4.35,4.35,0,0,1-3,1,5.35,5.35,0,0,1-2.74-.68l.38-1.14a4.62,4.62,0,0,0,2.41.64c1.53,0,2.65-.8,2.65-2.87v-.92h0a2.93,2.93,0,0,1-2.62,1.38c-2,0-3.5-1.73-3.5-4,0-2.79,1.82-4.37,3.7-4.37a2.74,2.74,0,0,1,2.57,1.43h0l.06-1.24ZM144,265.27a2.11,2.11,0,0,0-.09-.68,2.16,2.16,0,0,0-2.09-1.58c-1.43,0-2.45,1.21-2.45,3.11,0,1.62.82,3,2.43,3a2.2,2.2,0,0,0,2.08-1.53,2.72,2.72,0,0,0,.12-.8Z"/><path class="cls-6" d="M151.53,264.71c0-1,0-1.9-.07-2.68h1.34l.07,1.41h0a3.22,3.22,0,0,1,2.92-1.6c2,0,3.49,1.68,3.49,4.18,0,3-1.81,4.42-3.74,4.42a2.92,2.92,0,0,1-2.54-1.29h0v4.47h-1.48Zm1.48,2.2a2.92,2.92,0,0,0,.07.61,2.31,2.31,0,0,0,2.24,1.75c1.58,0,2.5-1.29,2.5-3.18,0-1.65-.87-3.06-2.45-3.06a2.39,2.39,0,0,0-2.26,1.85,2.51,2.51,0,0,0-.1.61Z"/><path class="cls-6" d="M168.65,266.07a4,4,0,0,1-4.1,4.37,3.91,3.91,0,0,1-3.94-4.23,4,4,0,0,1,4.08-4.37A3.9,3.9,0,0,1,168.65,266.07Zm-6.53.09c0,1.8,1,3.16,2.5,3.16s2.5-1.34,2.5-3.2c0-1.39-.7-3.16-2.47-3.16S162.12,264.59,162.12,266.16Z"/><path class="cls-6" d="M172.2,259.71a.93.93,0,0,1-1.85,0,.91.91,0,0,1,.93-.93A.89.89,0,0,1,172.2,259.71Zm-1.66,10.54V262H172v8.22Z"/><path class="cls-6" d="M174.51,264.25c0-.85,0-1.54-.06-2.22h1.32l.09,1.36h0a3,3,0,0,1,2.72-1.55c1.14,0,2.91.68,2.91,3.5v4.91H180v-4.74c0-1.32-.49-2.43-1.9-2.43a2.14,2.14,0,0,0-2,1.53,2.11,2.11,0,0,0-.1.7v4.94h-1.5Z"/><path class="cls-6" d="M185.68,259.66V262h2.14v1.14h-2.14v4.43c0,1,.29,1.6,1.12,1.6a3.38,3.38,0,0,0,.87-.1l.07,1.12a3.67,3.67,0,0,1-1.33.2,2.07,2.07,0,0,1-1.61-.63,3,3,0,0,1-.58-2.14v-4.48H183V262h1.27v-2Z"/><line class="cls-18" x1="57.08" y1="192.72" x2="57.08" y2="196.72"/><polyline class="cls-18" points="57.08 198.87 57.08 202.87 61.08 202.87"/><line class="cls-19" x1="68.99" y1="202.87" x2="318.25" y2="202.87"/><polyline class="cls-18" points="322.21 202.87 326.21 202.87 326.21 206.87"/><line class="cls-20" x1="326.21" y1="214.52" x2="326.21" y2="256.58"/><polyline class="cls-18" points="326.21 260.4 326.21 264.4 322.21 264.4"/><line class="cls-21" x1="314.58" y1="264.4" x2="211.63" y2="264.4"/><line class="cls-18" x1="207.81" y1="264.4" x2="203.81" y2="264.4"/><polygon class="cls-17" points="99.33 202.72 92.89 206.58 92.89 198.85 99.33 202.72"/><polygon class="cls-17" points="162.77 202.72 156.34 206.58 156.34 198.85 162.77 202.72"/><polygon class="cls-17" points="241.21 202.72 234.78 206.58 234.78 198.85 241.21 202.72"/><polygon class="cls-17" points="326.36 243.27 322.5 236.83 330.23 236.83 326.36 243.27"/><polygon class="cls-17" points="296.52 264.46 302.96 260.6 302.96 268.33 296.52 264.46"/><polygon class="cls-17" points="238.47 264 244.9 260.13 244.9 267.86 238.47 264"/><g class="cls-22"><path class="cls-23" d="M127.84,142.72a4,4,0,0,0-4,4v21.66a4,4,0,0,0,4,4h20.55a4,4,0,0,0,4-4V146.68a4,4,0,0,0-4-4Zm0,1.08h20.55a2.82,2.82,0,0,1,2.05.84,2.85,2.85,0,0,1,.84,2v21.66a2.86,2.86,0,0,1-.84,2,2.9,2.9,0,0,1-2.05.84H127.84a2.87,2.87,0,0,1-2.89-2.89V146.68a2.89,2.89,0,0,1,.84-2,2.83,2.83,0,0,1,2-.84Zm10.28,2.47a.55.55,0,0,0-.38.16.52.52,0,0,0-.16.37v21.42a.54.54,0,0,0,.27.46.51.51,0,0,0,.53,0,.52.52,0,0,0,.27-.46V146.8a.55.55,0,0,0-.53-.53Zm-6.49.4a1.37,1.37,0,0,0,0,2.74A1.37,1.37,0,0,0,133,148a1.36,1.36,0,0,0-1.37-1.36Zm13.43,0a1.35,1.35,0,0,0-1.18.69,1.33,1.33,0,0,0,0,1.36,1.35,1.35,0,0,0,1.18.69,1.37,1.37,0,0,0,0-2.74Zm-.15,3.27a4.76,4.76,0,0,0-1.82.39s-2.08,1-1.75,1.09v3.75l-1.73,3.67a.66.66,0,0,0,.31.87.64.64,0,0,0,.87-.31l1.79-3.79h.07v-.17a.53.53,0,0,0,0-.35v-2.44a.19.19,0,0,1,.19-.17.18.18,0,0,1,.19.18v3.24l-.37.79-2.32,4.94h2.74v6.42c0,.17.36.3.82.3s.82-.13.82-.3v-6.42h.57v6.42c0,.17.36.3.82.3s.82-.13.82-.3v-6.42h2.69l-2.32-4.94L147,156v-3.37a.19.19,0,0,1,.38,0v2.46a.69.69,0,0,0,0,.35v.17h.07l1.79,3.79a.65.65,0,1,0,1.18-.56l-1.73-3.67V151.4h0a10.71,10.71,0,0,0-1.71-1.07,5.53,5.53,0,0,0-2-.39Zm-16.2.39v0h0c-.22,0-.43.18-.59.5a2.82,2.82,0,0,0-.24,1.22,3.59,3.59,0,0,0,.08.75v5.78c0,.17.25.3.55.3s.54-.13.54-.3v-5.54a.28.28,0,0,1,.29-.28.27.27,0,0,1,.28.28v5.46h.05v9.51c0,.17.37.3.82.3s.82-.13.82-.3v-9.67a.27.27,0,0,1,.14-.24.29.29,0,0,1,.43.24v9.67c0,.17.36.3.81.3s.82-.13.83-.3v-9.52h.05v-5.61h.09a.28.28,0,0,1,.32-.11.29.29,0,0,1,.2.27v5.54c0,.17.24.3.54.3s.55-.13.55-.3v-5.78a3,3,0,0,0,.09-.75c0-.89-.33-1.63-.76-1.71v0Z"/></g><path d="M309,404.37a12,12,0,0,1-5,.9c-5.32,0-9.33-3.36-9.33-9.55,0-5.91,4-9.91,9.86-9.91a10,10,0,0,1,4.48.84l-.59,2a8.81,8.81,0,0,0-3.8-.79c-4.43,0-7.37,2.83-7.37,7.79,0,4.62,2.66,7.59,7.25,7.59a9.68,9.68,0,0,0,4-.79Z"/><path d="M323.92,398.1c0,5-3.48,7.2-6.75,7.2-3.67,0-6.5-2.69-6.5-7,0-4.54,3-7.2,6.72-7.2S323.92,394,323.92,398.1Zm-10.76.14c0,3,1.71,5.21,4.12,5.21s4.12-2.21,4.12-5.26c0-2.3-1.15-5.21-4.06-5.21S313.16,395.66,313.16,398.24Z"/><path d="M327,395.11c0-1.4,0-2.55-.11-3.67h2.19l.14,2.24h.05a5,5,0,0,1,4.48-2.55c1.88,0,4.79,1.12,4.79,5.77V405H336.1v-7.81c0-2.19-.82-4-3.14-4a3.5,3.5,0,0,0-3.3,2.52,3.62,3.62,0,0,0-.17,1.15V405H327Z"/><path d="M342.82,405V393.31h-1.91v-1.87h1.91v-.65a6.38,6.38,0,0,1,1.57-4.73,4.68,4.68,0,0,1,3.3-1.26,5.86,5.86,0,0,1,2.1.39l-.34,1.91a3.59,3.59,0,0,0-1.56-.31c-2.11,0-2.64,1.85-2.64,3.92v.73h3.28v1.87h-3.28V405Z"/><path d="M351.75,398.66c.05,3.33,2.18,4.71,4.65,4.71a8.79,8.79,0,0,0,3.75-.71l.42,1.77a11,11,0,0,1-4.51.84c-4.17,0-6.66-2.74-6.66-6.83s2.4-7.31,6.35-7.31c4.43,0,5.6,3.89,5.6,6.38a9,9,0,0,1-.08,1.15ZM359,396.9c0-1.57-.64-4-3.41-4-2.49,0-3.59,2.3-3.78,4Z"/><path d="M364.4,395.66c0-1.59,0-3-.11-4.22h2.16l.08,2.66h.11a4.07,4.07,0,0,1,3.76-3,3,3,0,0,1,.7.08v2.33a3.55,3.55,0,0,0-.84-.09,3.47,3.47,0,0,0-3.31,3.17,7.61,7.61,0,0,0-.11,1.15V405H364.4Z"/><path d="M374.65,398.66c.06,3.33,2.19,4.71,4.65,4.71a8.75,8.75,0,0,0,3.75-.71l.42,1.77a11,11,0,0,1-4.51.84c-4.17,0-6.66-2.74-6.66-6.83s2.41-7.31,6.36-7.31c4.42,0,5.6,3.89,5.6,6.38a8.6,8.6,0,0,1-.09,1.15Zm7.23-1.76c0-1.57-.65-4-3.42-4-2.49,0-3.58,2.3-3.78,4Z"/><path d="M387.31,395.11c0-1.4,0-2.55-.11-3.67h2.18l.14,2.24h.06a5,5,0,0,1,4.48-2.55c1.87,0,4.78,1.12,4.78,5.77V405h-2.46v-7.81c0-2.19-.81-4-3.14-4a3.5,3.5,0,0,0-3.3,2.52,3.62,3.62,0,0,0-.17,1.15V405h-2.46Z"/><path d="M412.51,404.49a9.19,9.19,0,0,1-3.89.78c-4.09,0-6.75-2.77-6.75-6.92a6.88,6.88,0,0,1,7.28-7.19,8.16,8.16,0,0,1,3.41.7l-.56,1.9a5.75,5.75,0,0,0-2.85-.64c-3.11,0-4.79,2.29-4.79,5.12,0,3.14,2,5.07,4.7,5.07a7,7,0,0,0,3-.67Z"/><path d="M416.6,398.66c0,3.33,2.18,4.71,4.64,4.71a8.81,8.81,0,0,0,3.76-.71l.42,1.77a11.05,11.05,0,0,1-4.51.84c-4.17,0-6.67-2.74-6.67-6.83s2.41-7.31,6.36-7.31c4.42,0,5.6,3.89,5.6,6.38a11.34,11.34,0,0,1-.08,1.15Zm7.22-1.76c0-1.57-.64-4-3.42-4-2.49,0-3.58,2.3-3.78,4Z"/><path d="M345,438.59l-.19-1.71h-.09a5,5,0,0,1-4.14,2,3.87,3.87,0,0,1-4.15-3.9c0-3.27,2.92-5.06,8.15-5v-.28a2.79,2.79,0,0,0-3.08-3.13,6.75,6.75,0,0,0-3.53,1l-.56-1.63a8.51,8.51,0,0,1,4.46-1.2c4.14,0,5.15,2.83,5.15,5.54v5.07a18.94,18.94,0,0,0,.22,3.25Zm-.36-6.92c-2.69-.05-5.74.42-5.74,3.05a2.18,2.18,0,0,0,2.32,2.36,3.37,3.37,0,0,0,3.28-2.27,2.68,2.68,0,0,0,.14-.79Z"/><path d="M351,429.26c0-1.59,0-3-.11-4.22h2.16l.08,2.66h.11a4.07,4.07,0,0,1,3.76-3,3,3,0,0,1,.7.08v2.33a3.55,3.55,0,0,0-.84-.09,3.47,3.47,0,0,0-3.31,3.17,7.61,7.61,0,0,0-.11,1.15v7.22H351Z"/><path d="M361.28,432.26c.06,3.33,2.19,4.7,4.65,4.7a8.78,8.78,0,0,0,3.75-.7l.42,1.77a11,11,0,0,1-4.51.84c-4.17,0-6.66-2.75-6.66-6.83s2.41-7.31,6.36-7.31c4.42,0,5.6,3.89,5.6,6.38a8.6,8.6,0,0,1-.09,1.15Zm7.23-1.76c0-1.57-.65-4-3.42-4-2.49,0-3.58,2.3-3.78,4Z"/><path d="M381.44,438.59l-.19-1.71h-.09a5,5,0,0,1-4.14,2,3.87,3.87,0,0,1-4.15-3.9c0-3.27,2.92-5.06,8.15-5v-.28a2.79,2.79,0,0,0-3.08-3.13,6.75,6.75,0,0,0-3.53,1l-.56-1.63a8.51,8.51,0,0,1,4.46-1.2c4.14,0,5.15,2.83,5.15,5.54v5.07a18.94,18.94,0,0,0,.22,3.25Zm-.36-6.92c-2.69-.05-5.74.42-5.74,3.05a2.18,2.18,0,0,0,2.32,2.36,3.37,3.37,0,0,0,3.28-2.27,2.68,2.68,0,0,0,.14-.79Z"/></g></g></svg>