<svg xmlns="http://www.w3.org/2000/svg" viewBox="0 0 230.99 36.7"><defs><style>.cls-1{fill:#221714;}</style></defs><title>资源 38</title><g id="图层_2" data-name="图层 2"><g id="图层_1-2" data-name="图层 1"><path class="cls-1" d="M0,0H14.88V3H3.57v9.19H14v3H3.57v12.5H0Z"/><path class="cls-1" d="M33.29,27.63,33,25.13h-.12a7.4,7.4,0,0,1-6.07,3,5.65,5.65,0,0,1-6.06-5.7C20.75,17.59,25,15,32.68,15V14.6c0-1.64-.45-4.6-4.51-4.6A9.9,9.9,0,0,0,23,11.48L22.18,9.1A12.38,12.38,0,0,1,28.7,7.34c6.07,0,7.54,4.14,7.54,8.12v7.42a28.47,28.47,0,0,0,.33,4.75Zm-.53-10.12c-3.94-.08-8.41.61-8.41,4.47a3.2,3.2,0,0,0,3.41,3.44,4.93,4.93,0,0,0,4.79-3.32A3.59,3.59,0,0,0,32.76,21Z"/><path class="cls-1" d="M58.67,26.9A13.32,13.32,0,0,1,53,28c-6,0-9.88-4.05-9.88-10.12S47.27,7.38,53.75,7.38a11.9,11.9,0,0,1,5,1l-.82,2.78a8.38,8.38,0,0,0-4.18-.94c-4.55,0-7,3.36-7,7.5,0,4.6,2.95,7.42,6.89,7.42a10.3,10.3,0,0,0,4.43-1Z"/><path class="cls-1" d="M69.7,2.09v5.7h5.17v2.75H69.7v10.7c0,2.46.7,3.85,2.71,3.85a8.22,8.22,0,0,0,2.09-.24l.16,2.7a8.77,8.77,0,0,1-3.2.49,5,5,0,0,1-3.89-1.51c-1-1.07-1.4-2.83-1.4-5.17V10.54H63.1V7.79h3.07V3Z"/><path class="cls-1" d="M99.34,17.55c0,7.34-5.08,10.54-9.88,10.54-5.37,0-9.51-3.94-9.51-10.21,0-6.65,4.34-10.54,9.84-10.54C95.49,7.34,99.34,11.48,99.34,17.55Zm-15.74.2c0,4.35,2.5,7.63,6,7.63s6-3.24,6-7.71C95.65,14.31,94,10,89.71,10S83.6,14,83.6,17.75Z"/><path class="cls-1" d="M106.35,14c0-2.34,0-4.34-.16-6.19h3.16l.12,3.9h.16a6,6,0,0,1,5.5-4.35,4,4,0,0,1,1,.12v3.41a5,5,0,0,0-1.23-.13c-2.54,0-4.34,1.93-4.84,4.64a10.31,10.31,0,0,0-.16,1.68V27.63h-3.57Z"/><path class="cls-1" d="M123.53,7.79l4.35,11.73c.45,1.31.94,2.87,1.27,4.06h.08c.37-1.19.78-2.71,1.27-4.15l3.94-11.64h3.81l-5.41,14.15c-2.58,6.8-4.35,10.29-6.81,12.42a9.78,9.78,0,0,1-4.43,2.34l-.9-3a9.69,9.69,0,0,0,3.16-1.76,11,11,0,0,0,3-4,2.51,2.51,0,0,0,.29-.86,3,3,0,0,0-.25-.94L119.6,7.79Z"/><path class="cls-1" d="M159.49,2.09v5.7h5.16v2.75h-5.16v10.7c0,2.46.69,3.85,2.7,3.85a8.31,8.31,0,0,0,2.1-.24l.16,2.7a8.77,8.77,0,0,1-3.2.49,5,5,0,0,1-3.89-1.51c-1-1.07-1.4-2.83-1.4-5.17V10.54h-3.07V7.79H156V3Z"/><path class="cls-1" d="M189.13,17.55c0,7.34-5.08,10.54-9.88,10.54-5.37,0-9.51-3.94-9.51-10.21,0-6.65,4.34-10.54,9.84-10.54C185.28,7.34,189.13,11.48,189.13,17.55Zm-15.74.2c0,4.35,2.5,7.63,6,7.63s6-3.24,6-7.71c0-3.36-1.68-7.63-5.94-7.63S173.39,14,173.39,17.75Z"/><path class="cls-1" d="M212.75,22.22c0,2.05,0,3.86.16,5.41h-3.2l-.2-3.23h-.08a7.5,7.5,0,0,1-6.56,3.69c-3.12,0-6.85-1.73-6.85-8.7V7.79h3.61v11c0,3.77,1.14,6.31,4.42,6.31a5.21,5.21,0,0,0,4.76-3.28,5.15,5.15,0,0,0,.33-1.84V7.79h3.61Z"/><path class="cls-1" d="M221.19,14c0-2.34,0-4.34-.16-6.19h3.15l.13,3.9h.16A6,6,0,0,1,230,7.34a4,4,0,0,1,1,.12v3.41a5,5,0,0,0-1.23-.13c-2.54,0-4.34,1.93-4.84,4.64a10.31,10.31,0,0,0-.16,1.68V27.63h-3.57Z"/></g></g></svg>