<?xml version="1.0" encoding="utf-8"?>
<!-- Generator: Adobe Illustrator 23.0.1, SVG Export Plug-In . SVG Version: 6.00 Build 0)  -->
<svg version="1.1" id="图层_1" xmlns="http://www.w3.org/2000/svg" xmlns:xlink="http://www.w3.org/1999/xlink" x="0px" y="0px"
	 viewBox="0 0 163.3 36.24" style="enable-background:new 0 0 163.3 36.24;" xml:space="preserve">
<style type="text/css">
	.st0{fill:#221714;}
</style>
<g>
	<path class="st0" d="M0,0.04h3.57v24.64h11.81v2.99H0V0.04z"/>
	<path class="st0" d="M39.65,17.59c0,7.34-5.08,10.54-9.88,10.54c-5.37,0-9.51-3.94-9.51-10.21c0-6.64,4.35-10.54,9.84-10.54
		C35.79,7.38,39.65,11.52,39.65,17.59z M23.9,17.79c0,4.35,2.5,7.63,6.03,7.63c3.44,0,6.03-3.24,6.03-7.71
		c0-3.36-1.68-7.63-5.95-7.63C25.75,10.09,23.9,14.02,23.9,17.79z"/>
	<path class="st0" d="M63.75,7.83c-0.08,1.44-0.16,3.03-0.16,5.45v11.52c0,4.55-0.9,7.34-2.83,9.06c-1.93,1.8-4.71,2.38-7.22,2.38
		c-2.38,0-5-0.57-6.6-1.64l0.9-2.75c1.31,0.82,3.36,1.56,5.82,1.56c3.69,0,6.4-1.93,6.4-6.93v-2.21h-0.08
		c-1.11,1.84-3.24,3.32-6.31,3.32c-4.92,0-8.45-4.18-8.45-9.68c0-6.72,4.39-10.54,8.94-10.54c3.44,0,5.33,1.8,6.19,3.44h0.08
		l0.16-2.99H63.75z M60.02,15.66c0-0.61-0.04-1.15-0.21-1.64c-0.66-2.09-2.42-3.81-5.04-3.81c-3.44,0-5.9,2.91-5.9,7.5
		c0,3.9,1.97,7.13,5.86,7.13c2.21,0,4.22-1.39,5-3.69c0.21-0.62,0.29-1.31,0.29-1.93V15.66z"/>
	<path class="st0" d="M76.05,2.25c0.04,1.23-0.86,2.21-2.3,2.21c-1.27,0-2.17-0.98-2.17-2.21c0-1.27,0.94-2.25,2.25-2.25
		C75.19,0,76.05,0.98,76.05,2.25z M72.04,27.68V7.83h3.61v19.84H72.04z"/>
	<path class="st0" d="M83.6,23.99c1.07,0.7,2.95,1.44,4.76,1.44c2.62,0,3.85-1.31,3.85-2.95c0-1.72-1.03-2.67-3.69-3.65
		c-3.57-1.27-5.25-3.24-5.25-5.62c0-3.2,2.58-5.82,6.85-5.82c2.01,0,3.77,0.57,4.88,1.23l-0.9,2.62c-0.78-0.49-2.21-1.15-4.06-1.15
		c-2.13,0-3.32,1.23-3.32,2.71c0,1.64,1.19,2.38,3.77,3.36c3.44,1.31,5.21,3.03,5.21,5.99c0,3.49-2.71,5.95-7.42,5.95
		c-2.17,0-4.18-0.53-5.58-1.35L83.6,23.99z"/>
	<path class="st0" d="M107.13,2.13v5.7h5.17v2.75h-5.17v10.7c0,2.46,0.7,3.85,2.71,3.85c0.94,0,1.64-0.12,2.09-0.25l0.16,2.71
		c-0.7,0.29-1.8,0.49-3.2,0.49c-1.68,0-3.03-0.53-3.9-1.52c-1.02-1.07-1.39-2.83-1.39-5.17V10.58h-3.08V7.83h3.08V3.08L107.13,2.13z
		"/>
	<path class="st0" d="M122.83,2.25c0.04,1.23-0.86,2.21-2.3,2.21c-1.27,0-2.17-0.98-2.17-2.21c0-1.27,0.94-2.25,2.25-2.25
		C121.97,0,122.83,0.98,122.83,2.25z M118.82,27.68V7.83h3.61v19.84H118.82z"/>
	<path class="st0" d="M145.02,26.94c-0.94,0.49-3.03,1.15-5.7,1.15c-5.99,0-9.88-4.06-9.88-10.13c0-6.11,4.18-10.54,10.66-10.54
		c2.13,0,4.02,0.53,5,1.03l-0.82,2.79c-0.86-0.49-2.21-0.94-4.18-0.94c-4.55,0-7.01,3.36-7.01,7.5c0,4.59,2.95,7.42,6.89,7.42
		c2.05,0,3.4-0.53,4.43-0.98L145.02,26.94z"/>
	<path class="st0" d="M151.21,23.99c1.07,0.7,2.95,1.44,4.76,1.44c2.62,0,3.85-1.31,3.85-2.95c0-1.72-1.03-2.67-3.69-3.65
		c-3.57-1.27-5.25-3.24-5.25-5.62c0-3.2,2.58-5.82,6.85-5.82c2.01,0,3.77,0.57,4.88,1.23l-0.9,2.62c-0.78-0.49-2.21-1.15-4.06-1.15
		c-2.13,0-3.32,1.23-3.32,2.71c0,1.64,1.19,2.38,3.77,3.36c3.44,1.31,5.21,3.03,5.21,5.99c0,3.49-2.71,5.95-7.42,5.95
		c-2.17,0-4.18-0.53-5.58-1.35L151.21,23.99z"/>
</g>
</svg>
