<svg xmlns="http://www.w3.org/2000/svg" viewBox="0 0 221.09 75.82"><defs><style>.cls-1{fill:#fff;}</style></defs><title>资源 37</title><g id="图层_2" data-name="图层 2"><g id="图层_1-2" data-name="图层 1"><path class="cls-1" d="M108.1,41.83c-2.95-.16-5.92-.28-8.93-.28s-6,.12-8.93.28a10,10,0,0,0-9.53,10V65.54a10.05,10.05,0,0,0,9.53,10c3,.16,5.92.28,8.93.28s6-.12,8.93-.28a10.05,10.05,0,0,0,9.53-10v-.78h-4.31v.78a5.72,5.72,0,0,1-5.4,5.68c-2.88.17-5.8.28-8.75.28s-5.87-.11-8.75-.28A5.72,5.72,0,0,1,85,65.54V51.83a5.72,5.72,0,0,1,5.4-5.68c2.88-.17,5.8-.29,8.75-.29s5.86.12,8.75.29a5.72,5.72,0,0,1,5.4,5.68v4.64H95.52v4.42h22.11V51.83A10,10,0,0,0,108.1,41.83Zm-80.71,0c-2.95-.16-5.93-.28-8.93-.28s-6,.12-8.93.28A10,10,0,0,0,0,51.83V65.54a10.05,10.05,0,0,0,9.53,10c3,.16,5.92.28,8.93.28s6-.12,8.93-.28a10.05,10.05,0,0,0,9.53-10v-.78H32.61v.78a5.72,5.72,0,0,1-5.4,5.68c-2.88.17-5.8.28-8.75.28s-5.87-.11-8.75-.28a5.72,5.72,0,0,1-5.4-5.68V51.83a5.72,5.72,0,0,1,5.4-5.68c2.88-.17,5.8-.29,8.75-.29s5.86.12,8.75.29a5.72,5.72,0,0,1,5.4,5.68v4.64H14.81v4.42H36.92V51.83A10,10,0,0,0,27.39,41.83Zm96.32,10V75.48H128V51.83a5.64,5.64,0,0,1,5.48-5.64h8.78V41.88h-8.93A10,10,0,0,0,123.71,51.83Zm-57.6-9.95c-2.37-.2-4.8-.33-7.23-.33s-4.85.13-7.23.33a10,10,0,0,0-9.13,9.95V75.48h4.32V51.83a5.74,5.74,0,0,1,5.36-5.7c2.2-.15,4.43-.27,6.68-.27s4.49.12,6.69.27a5.75,5.75,0,0,1,5.36,5.7V75.48h4.31V51.83A10,10,0,0,0,66.11,41.88Zm106.65-.05c-2.94-.16-5.92-.28-8.93-.28s-6,.12-8.93.28a10,10,0,0,0-9.53,10V65.54a10.05,10.05,0,0,0,9.53,10c2.95.16,5.93.28,8.93.28s6-.12,8.93-.28a10.05,10.05,0,0,0,9.53-10V56.47h-22.1v4.42H178v4.65a5.72,5.72,0,0,1-5.39,5.68c-2.89.17-5.81.28-8.76.28s-5.86-.11-8.75-.28a5.72,5.72,0,0,1-5.4-5.68V51.83a5.72,5.72,0,0,1,5.4-5.68c2.89-.17,5.81-.29,8.75-.29s5.87.12,8.76.29A5.71,5.71,0,0,1,178,51.83v.77h4.31v-.77A10,10,0,0,0,172.76,41.83Zm48.33.05h-5.4L201.05,61.32a9.88,9.88,0,0,0-2,6v8.18h4.31V67.3a5.62,5.62,0,0,1,1.14-3.39Zm-32.66,0H182.8l15.36,18.3,2.66-3.53Z"/><path class="cls-1" d="M58.28,19.83H71.39V14.28H58.28V6.68H73.34V.58H49.22V34.26H73.73V27.82H58.28Zm-43-6.54C12.39,12,10.64,11.17,10,10.77a2.2,2.2,0,0,1-1.14-1.9q0-3.12,5.66-3.12a23.6,23.6,0,0,1,8.72,1.87V1.23A54.73,54.73,0,0,0,13.61,0q-6,0-9.8,2.59A8.66,8.66,0,0,0,0,10.2a8.57,8.57,0,0,0,2.61,6.42q2,1.93,8.67,4.66a18.13,18.13,0,0,1,4.6,2.38,2.6,2.6,0,0,1,.88,2q0,3.19-6,3.19a34.13,34.13,0,0,1-10-1.79v6.65a45.79,45.79,0,0,0,10.45,1.23,19.14,19.14,0,0,0,10-2.33,9.21,9.21,0,0,0,4.76-8.35,8.35,8.35,0,0,0-2.43-6.21Q21.41,16,15.24,13.29Zm85.3,8.81L92.06.58H79.87V34.26H86.5V10.42L96.18,34.6H102l9.87-24.18V34.26h8.92V.58H109.22ZM31.19,34.26h9.4V.58h-9.4ZM218.66,18.05q-2.06-2-8.18-4.76-4.35-1.95-5.25-2.52a2.2,2.2,0,0,1-1.14-1.9c0-2.08,1.87-3.12,5.64-3.12a23.64,23.64,0,0,1,8.73,1.87V1.23l-.83-.15A46.94,46.94,0,0,0,208.83,0,17,17,0,0,0,199,2.59a8.63,8.63,0,0,0-3.8,7.59,8.57,8.57,0,0,0,2.61,6.44q2,1.95,8.67,4.66a18.53,18.53,0,0,1,4.63,2.38,2.68,2.68,0,0,1,.85,2q0,3.19-6,3.19a33.7,33.7,0,0,1-10-1.79v6.65a45.64,45.64,0,0,0,10.44,1.23,19.3,19.3,0,0,0,10-2.33,9.22,9.22,0,0,0,4.73-8.35A8.35,8.35,0,0,0,218.66,18.05Zm-80.17,1.78H151.6V14.28H138.49V6.68h15.06V.58H129.43V34.26h24.51V27.82H138.49Zm44.11,3.3L171,.58h-10.9V34.26h6.63V11.41l11.87,22.85h10.59V.58H182.6Z"/></g></g></svg>