<?xml version="1.0" encoding="utf-8"?>
<!-- Generator: Adobe Illustrator 23.0.1, SVG Export Plug-In . SVG Version: 6.00 Build 0)  -->
<svg version="1.1" id="图层_1" xmlns="http://www.w3.org/2000/svg" xmlns:xlink="http://www.w3.org/1999/xlink" x="0px" y="0px"
	 viewBox="0 0 967.32 655.66" style="enable-background:new 0 0 967.32 655.66;" xml:space="preserve">
<style type="text/css">
	.st0{fill-rule:evenodd;clip-rule:evenodd;fill:#99D9EA;}
	.st1{fill:none;stroke:#000000;stroke-width:0.5;stroke-linejoin:round;stroke-miterlimit:10;}
	.st2{fill:none;stroke:#000000;stroke-width:0.5;stroke-miterlimit:10;}
	.st3{clip-path:url(#SVGID_2_);fill:none;stroke:#000000;stroke-width:0.5;stroke-miterlimit:10;}
</style>
<polygon class="st0" points="146.21,81.49 146.21,204.78 272.92,204.78 272.92,235.62 339.32,235.62 339.32,81.49 "/>
<rect x="307.52" y="260.91" class="st1" width="31.8" height="50.83"/>
<rect x="272.92" y="236.51" class="st1" width="66.4" height="24.4"/>
<rect x="386.76" y="201.7" class="st1" width="43.2" height="39.81"/>
<polygon class="st2" points="146.21,81.02 146.21,205.65 272.92,205.65 272.92,236.81 339.32,236.81 339.32,81.02 "/>
<rect x="339.85" y="153.55" class="st2" width="29.17" height="8.11"/>
<polygon class="st2" points="364.52,162.04 364.52,202.55 387.23,202.55 387.23,242.3 430.04,242.3 430.04,264 579.66,264 
	579.66,160.6 "/>
<g>
	<defs>
		<rect id="SVGID_1_" width="967.32" height="655.66"/>
	</defs>
	<clipPath id="SVGID_2_">
		<use xlink:href="#SVGID_1_"  style="overflow:visible;"/>
	</clipPath>
	<path class="st3" d="M369.02,150.38c0,0,28.85-52.6,140.94-46.72c0,0,99.57,9.7,106.47,54.89"/>
	<path class="st3" d="M387.66,65.36c0,0-12,27.83,32.94,30.13c31.66-1.28,31.4-9.7,89.62-8.68s60.51,17.87,82.98,10.98
		c22.47-6.89,18.89-25.28,10.72-32.43"/>
	<path class="st3" d="M629.62,65.36c0,0,6.14,17.4,12.6,17.04c6.46-0.36,43.23,19.73,47.31,22.45c4.09,2.72,58.89,11.58,53.45-39.49
		"/>
	<path class="st3" d="M761.36,65.36c0,0-12.64,29.62,48.85,37.84c53.11,7.1,32.68,83.18,0,77.56"/>
	<path class="st3" d="M644,158.55c0,0-4.09-18.64-10.47-24.25c-6.38-5.62-12.26-39.06,41.11-17.36"/>
	<path class="st3" d="M682.3,118.72c0,0,34.96,7.71,70.72-9.03c39.06-18.29,94.98,37.37,55.15,55.24"/>
	<polyline class="st3" points="232.17,311.74 232.17,276.38 247.72,276.38 247.72,261.92 273.38,261.92 273.38,206.68 
		146.21,205.65 146.21,311.74 215.07,311.74 	"/>
	<polygon class="st3" points="77.52,334.64 77.52,476.94 97.36,476.94 97.36,508.6 208.85,508.6 208.85,547.4 272.92,547.4 
		272.92,331.91 	"/>
	<polygon class="st3" points="78,476.94 77,557.96 209.43,557.96 209.43,508.6 97.19,508.6 97.19,476.94 	"/>
	<rect x="272.92" y="333.96" class="st3" width="125.72" height="29.62"/>
	<rect x="146.06" y="311.74" class="st3" width="126.86" height="21.08"/>
	<path class="st3" d="M427.06,427.26v14.16c0,0.91-0.45,1.76-1.2,2.28c-2.43,1.66-7.73,5.45-7.99,7.02
		c-0.32,1.93-0.04,86.62,0,95.86c0,0.54,0.16,1.05,0.45,1.5l13.71,20.87c0.51,0.78,1.38,1.25,2.31,1.25h116.31
		c0.65,0,1.28-0.23,1.78-0.65c3.18-2.69,15.07-13.06,15.73-18.59c0.72-5.96,0.09-85.86,0.01-96.39c-0.01-0.74-0.3-1.43-0.83-1.95
		l-10.32-10.1c-0.55-0.54-0.85-1.28-0.83-2.04l0.33-13.99c0.04-1.56-1.22-2.84-2.78-2.83l-123.93,0.81
		C428.29,424.5,427.06,425.74,427.06,427.26z"/>
	<path class="st3" d="M355.74,570.21V439.66c0,0,7.32-54.64,105.7-60.09h62.98c0,0,87.49-2.38,103.83,63.66v106.21
		c0,0-6.98,21.11-8.51,20.77"/>
	<polygon class="st3" points="579.66,160.6 579.66,264 682.3,264 682.3,158.55 	"/>
	<polygon class="st3" points="682.3,158.55 682.3,264 742.3,264 742.3,333.96 804.94,333.96 804.94,163.06 804.94,158.55 	"/>
	<polygon class="st3" points="648.17,295.6 648.17,317.55 659.23,317.55 659.23,333.28 680.34,333.28 742.3,333.28 742.3,288.34 
		676.94,288.34 676.94,295.6 	"/>
	<rect x="732.77" y="333.96" class="st3" width="72.17" height="29.28"/>
	<rect x="575.15" y="333.96" class="st3" width="157.62" height="29.28"/>
	<rect x="398.64" y="333.96" class="st3" width="176.51" height="29.28"/>
	<path class="st3" d="M842.83,346.21v108.06c0,0,2.56,25.77-47.42,21.84c-14.62-1.15-79.32,32.96-76.6,89.67"/>
	<polyline class="st3" points="273.38,311.74 306.52,311.74 306.52,305.02 306.52,260.91 	"/>
	<path class="st3" d="M148.68,558.3h155.4V383.55h62.9c0,0,18.29-17.08,32.59-19.97"/>
	<path class="st3" d="M553.87,363.27h78.64c0,0,36.26,5.87,46.47,32.22v172.73"/>
	<polygon class="st3" points="398.64,343.77 398.64,357.31 422.33,357.31 422.33,363.09 550.92,363.09 550.92,356.54 575.15,356.54 
		575.15,344.54 	"/>
	<line class="st3" x1="718.73" y1="363.57" x2="718.73" y2="547.4"/>
	<line class="st3" x1="842.83" y1="390.13" x2="773.12" y2="390.13"/>
	<line class="st3" x1="842.83" y1="405.38" x2="773.12" y2="405.38"/>
	<line class="st3" x1="842.83" y1="420.64" x2="773.12" y2="420.64"/>
	<line class="st3" x1="842.83" y1="435.89" x2="773.12" y2="435.89"/>
	<line class="st3" x1="842.83" y1="451.15" x2="773.12" y2="451.15"/>
	<line class="st3" x1="773.12" y1="483.06" x2="773.12" y2="364.6"/>
	<path class="st3" d="M422.97,337.73v6.04h8.85C431.82,343.77,429.1,338.67,422.97,337.73z"/>
	<path class="st3" d="M549.11,337.73v6.04h-8.85C540.26,343.77,542.98,338.67,549.11,337.73z"/>
</g>
<g>
	<path d="M200.66,152.17h-3.06v2.68h-1.88v-22.79h6.83v20.86h-1.88V152.17z M197.6,150.29h3.06v-16.34h-3.06V150.29z M202.57,155.57
		c1.05-1.58,1.84-3.48,2.37-5.69c0.51-2.13,0.8-5.54,0.88-10.22c0.02-1.08,0.05-2.4,0.1-3.97h-2.27v-1.88h2.19v-5.02h1.88v5.02h4.96
		l-0.26,19.29c-0.01,0.99-0.16,1.68-0.44,2.06c-0.36,0.5-0.99,0.84-1.88,1.03c-0.17,0.03-0.82,0.13-1.96,0.29l-0.97-2.52h1.38
		c0.67,0,1.2-0.16,1.59-0.47c0.25-0.21,0.39-0.65,0.4-1.34l0.28-16.46h-3.09l-0.01,1.25l-0.07,3.03c-0.07,3.33-0.16,5.55-0.27,6.65
		c-0.27,2.7-0.74,4.97-1.4,6.81c-0.33,0.92-0.87,2.02-1.6,3.29L202.57,155.57z M219.93,152.73h-3.32v2.69h-1.88v-23.24h7.09v23.24
		h-1.88V152.73z M216.6,150.85h3.32v-16.79h-3.32V150.85z"/>
	<path d="M227.88,150.21v3.3H226v-22.29h7.46v21.48h-1.88v-2.49H227.88z M227.88,148.33h3.69v-15.23h-3.69V148.33z M240.42,135.68
		h-5.21v-1.88h5.21v-5.02h1.88v28.44h-1.88v-7.24h-5.47v-1.88h5.47v-5.5h-4.53v-1.88h4.53V135.68z M247.2,149.98v7.24h-1.88v-28.44
		h1.88v5.02h5.46v1.88h-5.46v5.03h4.88v1.88h-4.88v5.5h5.8v1.88H247.2z"/>
</g>
<g>
	<path d="M262.73,150.3c-0.24-0.28-0.58-0.7-1.04-1.24c-0.98-1.14-1.7-1.92-2.15-2.35l1.31-1.29c0.81,0.63,1.68,1.46,2.6,2.5
		l0.49,0.53c0.47-0.94,0.84-1.85,1.12-2.72c0.3-0.93,0.61-2.38,0.93-4.35h-4.94c-1.12,2.04-2.3,4.08-3.56,6.13l-1.87-1.29
		c0.8-1.11,1.7-2.55,2.69-4.32c1.13-2.02,1.92-3.7,2.38-5.05l2.22,0.82l-0.84,1.82h6.28c-0.49,3.01-1,5.35-1.53,7.03
		c-1.5,4.79-4.92,8.14-10.27,10.06l-0.94-1.96c1.82-0.54,3.46-1.33,4.91-2.37C261.5,151.55,262.23,150.9,262.73,150.3z
		 M274.35,132.24h8.02v1.88h-8.02v2.72h-1.88v-2.72h-6.97v2.72h-1.88v-2.72h-7.9v-1.88h7.9v-3h1.88v3h6.97v-3h1.88V132.24z
		 M270.18,138.73h9.41v8.03c0,1.13-0.5,1.94-1.5,2.43c-0.65,0.31-1.66,0.59-3.04,0.82l-0.72-2.38h2.03c0.9,0,1.35-0.48,1.35-1.43
		v-5.59h-5.65v11.75c0,0.74,0.13,1.24,0.4,1.5c0.31,0.31,0.86,0.47,1.65,0.47h4.53c0.84,0,1.44-0.21,1.78-0.63
		c0.26-0.33,0.53-1.19,0.79-2.56l2.04,0.88c-0.24,1.12-0.55,2.03-0.96,2.74c-0.56,0.97-1.61,1.46-3.16,1.46h-5.3
		c-1.37,0-2.31-0.19-2.81-0.56c-0.57-0.43-0.85-1.09-0.85-1.99V138.73z"/>
</g>
<g>
	<path d="M475.48,311.34c-0.09,0.34-0.2,0.78-0.34,1.32c-0.72,2.78-2,5.15-3.84,7.13c-1.28,1.37-2.74,2.56-4.35,3.57
		c-0.93,0.58-2.25,1.29-3.94,2.13l-1.32-2.18c1.53-0.44,3.14-1.18,4.84-2.21c1.69-1.03,3.12-2.41,4.3-4.15
		c1.06-1.56,1.83-3.47,2.31-5.74c0.22-1.02,0.41-2.4,0.59-4.15h-10.8v-1.88h11c0.09-1.35,0.13-2.63,0.13-3.84
		c0-0.28,0-1.18-0.01-2.68v-1.21l2.25-0.06v1.44v0.47l-0.03,4.05c0,0.26,0.01,0.87,0.03,1.82h11.87v1.88h-11.67
		c0.48,1.98,1.15,3.93,2,5.84c0.96,2.15,1.93,3.79,2.91,4.93c1.37,1.59,2.98,2.92,4.81,4c0.72,0.43,1.68,0.92,2.88,1.46l-1.53,2.15
		c-2.2-1.31-3.89-2.47-5.08-3.46c-2.02-1.68-3.66-3.65-4.93-5.91c-0.44-0.77-0.97-1.95-1.59-3.52
		C475.78,312.1,475.61,311.69,475.48,311.34z"/>
	<path d="M504.5,319.63h-9.19v-1.88h9.19v-2.68h-6.55v-7.06h15.17v7.06h-6.74v2.68h9.25v1.88h-9.25v3.19h11.87v1.88h-25.57v-1.88
		h11.81V319.63z M504.54,303.91v-6.05h1.88v6.05h3.77c1.01-1.51,1.99-3.21,2.94-5.09l1.96,0.9c-0.57,1.12-1.4,2.52-2.49,4.19h5.78
		v5.68h-1.88v-3.8h-21.54v4.02h-1.88v-5.9H504.54z M499.04,303.39c-0.62-1-1.57-2.12-2.87-3.35l1.4-1.28
		c0.75,0.69,1.78,1.75,3.06,3.18L499.04,303.39z M499.84,313.19h11.4v-3.29h-11.4V313.19z"/>
</g>
</svg>
