<?xml version="1.0" encoding="utf-8"?>
<!-- Generator: Adobe Illustrator 23.0.1, SVG Export Plug-In . SVG Version: 6.00 Build 0)  -->
<svg version="1.1" id="图层_1" xmlns="http://www.w3.org/2000/svg" xmlns:xlink="http://www.w3.org/1999/xlink" x="0px" y="0px"
	 viewBox="0 0 698.39 419" style="enable-background:new 0 0 698.39 419;" xml:space="preserve">
<style type="text/css">
	.st0{fill:#FFFFFF;stroke:#000000;stroke-miterlimit:10;}
	.st1{fill:#A4CEEC;}
	.st2{fill:#004364;}
	.st3{fill:none;stroke:#255899;stroke-width:1.2355;stroke-miterlimit:10;}
	.st4{fill:#255899;}
	.st5{fill:none;stroke:#004364;stroke-width:1.2355;stroke-miterlimit:10;}
	.st6{fill:none;stroke:#AEAEAE;stroke-width:16.3376;stroke-miterlimit:10;}
	.st7{fill:none;stroke:#818282;stroke-width:12.2532;stroke-miterlimit:10;}
	.st8{fill:#FFFFFF;}
	.st9{font-family:'SiemensSansGlobal-Regular';}
	.st10{font-size:12.9166px;}
	.st11{fill:#040000;}
	.st12{fill:#45985D;}
</style>
<rect x="-0.26" y="0.2" class="st0" width="699" height="417"/>
<g>
	<polygon class="st1" points="12.56,323.44 44.72,292.74 84.19,231.35 117.81,171.42 195.28,124.65 244.98,108.57 310.75,139.26 
		335.6,155.34 388.22,206.5 410.15,216.73 433.54,213.81 467.16,190.42 487.62,152.42 512.47,99.8 524.16,57.41 540.24,17.94 
		547.55,7.71 603.1,7.71 592.86,44.25 569.48,101.26 551.94,148.03 528.55,186.04 486.16,241.58 448.15,257.66 407.23,264.97 
		376.53,257.66 341.45,228.43 328.29,210.89 304.91,187.5 277.13,168.5 268.36,158.27 221.59,161.19 202.59,169.96 170.43,183.11 
		148.5,196.27 116.34,231.35 85.65,291.28 52.03,327.82 30.1,354.14 14.02,361.44 	"/>
	<path class="st2" d="M329.14,64.72c0,2.08-1.69,3.77-3.77,3.77c-2.08,0-3.77-1.69-3.77-3.77c0-2.08,1.69-3.77,3.77-3.77
		C327.45,60.94,329.14,62.63,329.14,64.72z"/>
	<path class="st3" d="M330.13,64.72c0,2.63-2.13,4.76-4.76,4.76s-4.76-2.13-4.76-4.76c0-2.63,2.13-4.76,4.76-4.76
		S330.13,62.09,330.13,64.72z"/>
	<path class="st3" d="M462.55,174.61c0,2.63-2.13,4.76-4.76,4.76s-4.76-2.13-4.76-4.76c0-2.63,2.13-4.76,4.76-4.76
		S462.55,171.98,462.55,174.61z"/>
	<path class="st4" d="M48.49,123.18c0,2.08-1.69,3.77-3.77,3.77c-2.08,0-3.77-1.69-3.77-3.77c0-2.08,1.69-3.77,3.77-3.77
		C46.8,119.41,48.49,121.1,48.49,123.18z"/>
	<path class="st5" d="M49.48,123.18c0,2.63-2.13,4.76-4.76,4.76c-2.63,0-4.76-2.13-4.76-4.76c0-2.63,2.13-4.76,4.76-4.76
		C47.35,118.42,49.48,120.55,49.48,123.18z"/>
	<polyline class="st6" points="163.12,7.71 135.35,38.4 94.42,108.57 90.03,139.26 94.42,174.34 177.74,226.97 249.36,260.59 
		288.83,283.97 357.53,311.75 440.85,335.13 512.47,371.68 576.79,392.14 626.48,396.53 677.64,411.14 	"/>
	<polyline class="st6" points="256.67,9.17 250.82,29.63 252.28,48.64 244.98,108.57 246.44,202.12 249.36,260.59 249.36,313.21 
		240.59,365.83 234.74,411.14 	"/>
	<polyline class="st6" points="6.72,79.33 130.96,83.72 168.97,60.33 252.28,48.64 323.91,41.33 398.46,26.71 500.78,28.17 
		546.09,44.25 633.79,80.79 693.72,83.72 	"/>
	<polyline class="st6" points="455.46,9.17 451.08,29.63 445.23,63.25 424.77,101.26 414.54,142.19 420.38,202.12 426.23,262.05 
		439.38,302.98 430.61,339.52 416,377.52 405.76,414.07 	"/>
	<polyline class="st6" points="5.25,270.82 78.34,332.21 103.19,342.44 126.58,342.44 198.2,324.9 272.75,339.52 401.38,358.52 
		437.92,362.91 537.32,333.67 619.18,297.13 	"/>
	<rect x="6.72" y="6.13" class="st7" width="685.55" height="404.44"/>
	<g>
		<text transform="matrix(1 -4.880000e-03 4.880000e-03 1 338.1071 102.3968)" class="st8 st9 st10">DoubleTree by Hilton Hangzhou East</text>
	</g>
	<polygon class="st2" points="329.24,65.36 362.59,82.99 344.32,82.76 	"/>
	<polygon class="st2" points="460.83,171.82 494.18,154.19 475.91,154.43 	"/>
	<path class="st2" d="M237.09,108.57H65.18h-8.31c-4.34,0-7.88-2.73-7.88-6.07V86.2c0-3.34,3.55-6.07,7.88-6.07h180.23
		c4.34,0,7.88,2.73,7.88,6.07v16.3C244.98,105.83,241.43,108.57,237.09,108.57z"/>
	<g>
		<text transform="matrix(1 -4.880000e-03 4.880000e-03 1 57.7052 98.6753)" class="st8 st9 st10">Hangzhou East Railway Station </text>
	</g>
	<polygon class="st2" points="45.61,124.22 78.97,106.59 60.7,106.83 	"/>
	<path class="st2" d="M615.33,276.92H443.41h-8.31c-4.34,0-7.88-2.73-7.88-6.07v-16.3c0-3.34,3.55-6.07,7.88-6.07h180.23
		c4.34,0,7.88,2.73,7.88,6.07v16.3C623.21,274.18,619.66,276.92,615.33,276.92z"/>
	<g>
		<text transform="matrix(1 -4.880000e-03 4.880000e-03 1 435.9385 264.8738)" class="st8 st9 st10">Hangzhou International Airport</text>
	</g>
	<g>
		<g>
			<path class="st11" d="M52.43,72.04V63.1h1.73c1.07,0,1.85,0.16,2.34,0.47c0.69,0.44,1.03,1.15,1.03,2.13
				c0,0.64-0.17,1.17-0.5,1.6c-0.33,0.41-0.81,0.69-1.44,0.83c-0.41,0.09-0.93,0.13-1.54,0.13h-0.57v3.77H52.43z M53.47,67.42h0.42
				c0.86,0,1.47-0.09,1.82-0.26c0.49-0.25,0.73-0.73,0.73-1.44c0-0.65-0.21-1.12-0.64-1.41c-0.33-0.23-0.91-0.35-1.75-0.35h-0.59
				V67.42z"/>
			<path class="st11" d="M59.51,69.03c0.07,0.73,0.24,1.28,0.5,1.63c0.36,0.48,0.9,0.71,1.6,0.71c0.6,0,1.2-0.21,1.79-0.62
				l0.38,0.76c-0.68,0.43-1.41,0.64-2.19,0.64c-1.04,0-1.83-0.34-2.39-1.02c-0.49-0.59-0.73-1.39-0.73-2.38
				c0-1.21,0.33-2.12,0.98-2.72c0.49-0.45,1.11-0.68,1.87-0.68c1.16,0,1.95,0.48,2.35,1.43c0.22,0.54,0.34,1.29,0.36,2.24H59.51z
				 M62.98,68.24c-0.01-0.49-0.1-0.89-0.25-1.22c-0.28-0.58-0.76-0.88-1.44-0.88c-0.65,0-1.13,0.29-1.46,0.86
				c-0.19,0.33-0.29,0.74-0.3,1.23H62.98z"/>
			<path class="st11" d="M65.76,72.04v-4.42c0-1-0.02-1.71-0.05-2.13h0.97l0.04,1.04c0.25-0.26,0.48-0.47,0.7-0.63
				c0.5-0.36,1.06-0.54,1.68-0.54c0.83,0,1.4,0.3,1.7,0.91c0.18,0.36,0.27,1.02,0.27,1.99v3.78h-0.98v-3.8
				c0-0.66-0.05-1.12-0.14-1.39c-0.16-0.47-0.54-0.7-1.13-0.7c-0.71,0-1.4,0.41-2.08,1.23v4.66H65.76z"/>
			<path class="st11" d="M77.37,65.49h0.96c-0.03,1.06-0.05,1.92-0.05,2.58v3.27c0,0.74-0.04,1.3-0.13,1.68
				c-0.14,0.61-0.49,1.1-1.03,1.46c-0.46,0.3-1.01,0.45-1.65,0.45c-0.88,0-1.7-0.24-2.48-0.71l0.42-0.76
				c0.66,0.45,1.34,0.68,2.03,0.68c0.77,0,1.3-0.31,1.6-0.93c0.17-0.35,0.25-0.95,0.25-1.79v-0.54c-0.61,0.69-1.28,1.03-2,1.03
				c-0.73,0-1.34-0.3-1.82-0.89c-0.47-0.58-0.71-1.36-0.71-2.34c0-1.07,0.27-1.92,0.79-2.54c0.45-0.53,1.03-0.79,1.76-0.79
				c0.86,0,1.53,0.38,2.02,1.13L77.37,65.49z M77.3,67.42c-0.45-0.84-1.04-1.27-1.77-1.27c-0.58,0-1.03,0.26-1.33,0.79
				c-0.26,0.47-0.4,1.05-0.4,1.74c0,0.67,0.14,1.23,0.42,1.68c0.32,0.51,0.77,0.77,1.35,0.77c0.7,0,1.28-0.38,1.73-1.15V67.42z"/>
			<path class="st11" d="M80.89,72.04v-5.76h-1.06v-0.79h1.06v-0.62c0-0.77,0.11-1.33,0.32-1.68c0.29-0.48,0.79-0.72,1.49-0.72
				c0.29,0,0.59,0.04,0.93,0.13l-0.09,0.85c-0.23-0.13-0.49-0.2-0.77-0.2c-0.4,0-0.67,0.2-0.79,0.59c-0.07,0.23-0.11,0.6-0.11,1.1
				v0.54h1.54v0.79h-1.54v5.76H80.89z"/>
			<path class="st11" d="M90.06,65.49v4.42c0,1.02,0.02,1.73,0.05,2.13h-0.97l-0.04-1.05c-0.72,0.78-1.5,1.17-2.33,1.17
				c-0.81,0-1.36-0.3-1.67-0.91c-0.18-0.36-0.27-1.02-0.27-1.98v-3.78h0.98v3.8c0,0.66,0.05,1.12,0.14,1.38
				c0.16,0.47,0.52,0.7,1.09,0.7c0.7,0,1.38-0.41,2.03-1.22v-4.66H90.06z"/>
			<path class="st11" d="M95.58,72.04V63.1h1.03v3.94h4.3V63.1h1.03v8.94h-1.03v-4.15h-4.3v4.15H95.58z"/>
			<path class="st11" d="M109.41,65.49v4.42c0,1.02,0.02,1.73,0.05,2.13h-0.97l-0.04-1.05c-0.72,0.78-1.5,1.17-2.33,1.17
				c-0.81,0-1.36-0.3-1.67-0.91c-0.18-0.36-0.27-1.02-0.27-1.98v-3.78h0.98v3.8c0,0.66,0.05,1.12,0.14,1.38
				c0.16,0.47,0.52,0.7,1.09,0.7c0.7,0,1.38-0.41,2.03-1.22v-4.66H109.41z"/>
			<path class="st11" d="M112.02,66.28h-1.06v-0.79h1.06v-1.43l0.98-0.21v1.64h1.54v0.79H113v3.58c0,0.54,0.05,0.91,0.14,1.11
				c0.13,0.27,0.38,0.41,0.74,0.41c0.22,0,0.47-0.07,0.76-0.2l0.09,0.78c-0.38,0.13-0.73,0.2-1.07,0.2c-0.66,0-1.11-0.2-1.36-0.61
				c-0.19-0.3-0.28-0.8-0.28-1.51V66.28z"/>
			<path class="st11" d="M118.67,65.36c0.93,0,1.68,0.36,2.25,1.08c0.48,0.61,0.73,1.38,0.73,2.32c0,1.02-0.28,1.84-0.84,2.46
				c-0.56,0.63-1.29,0.95-2.18,0.95c-0.96,0-1.72-0.36-2.29-1.08c-0.48-0.61-0.73-1.38-0.73-2.33c0-1.01,0.28-1.83,0.84-2.45
				C117.02,65.67,117.75,65.36,118.67,65.36z M118.6,66.15c-0.69,0-1.22,0.32-1.58,0.96c-0.25,0.45-0.38,0.99-0.38,1.65
				c0,0.72,0.15,1.32,0.45,1.78c0.36,0.56,0.87,0.84,1.53,0.84c0.71,0,1.24-0.32,1.6-0.96c0.25-0.45,0.38-1,0.38-1.65
				c0-0.72-0.15-1.32-0.45-1.78C119.79,66.43,119.27,66.15,118.6,66.15z"/>
			<path class="st11" d="M123.4,72.04v-4.42c0-1-0.02-1.71-0.05-2.13h0.97l0.04,1.04c0.25-0.26,0.48-0.47,0.7-0.63
				c0.5-0.36,1.06-0.54,1.68-0.54c0.83,0,1.4,0.3,1.7,0.91c0.18,0.36,0.27,1.02,0.27,1.99v3.78h-0.98v-3.8
				c0-0.66-0.05-1.12-0.14-1.39c-0.16-0.47-0.54-0.7-1.13-0.7c-0.71,0-1.4,0.41-2.08,1.23v4.66H123.4z"/>
			<path class="st11" d="M135.02,65.49h0.96c-0.03,1.06-0.05,1.92-0.05,2.58v3.27c0,0.74-0.04,1.3-0.13,1.68
				c-0.14,0.61-0.49,1.1-1.03,1.46c-0.46,0.3-1.01,0.45-1.65,0.45c-0.88,0-1.7-0.24-2.48-0.71l0.42-0.76
				c0.66,0.45,1.34,0.68,2.03,0.68c0.77,0,1.3-0.31,1.6-0.93c0.17-0.35,0.25-0.95,0.25-1.79v-0.54c-0.61,0.69-1.28,1.03-2,1.03
				c-0.73,0-1.34-0.3-1.82-0.89c-0.47-0.58-0.71-1.36-0.71-2.34c0-1.07,0.27-1.92,0.79-2.54c0.45-0.53,1.03-0.79,1.76-0.79
				c0.86,0,1.53,0.38,2.02,1.13L135.02,65.49z M134.94,67.42c-0.45-0.84-1.04-1.27-1.77-1.27c-0.58,0-1.03,0.26-1.33,0.79
				c-0.26,0.47-0.4,1.05-0.4,1.74c0,0.67,0.14,1.23,0.42,1.68c0.32,0.51,0.77,0.77,1.35,0.77c0.7,0,1.28-0.38,1.73-1.15V67.42z"/>
		</g>
	</g>
	<g>
		<g>
			<path class="st11" d="M193.4,264.9l3.05-4.55l-2.89-4.39h1.2l2.32,3.53l2.41-3.53h1.13l-2.95,4.34l3.05,4.6h-1.24l-2.41-3.7
				l-2.5,3.7H193.4z"/>
			<path class="st11" d="M202.66,255.34c0.24,0,0.42,0.09,0.55,0.27c0.09,0.12,0.13,0.26,0.13,0.43c0,0.16-0.04,0.3-0.13,0.42
				c-0.13,0.18-0.32,0.27-0.57,0.27c-0.24,0-0.43-0.09-0.56-0.27c-0.09-0.12-0.13-0.26-0.13-0.42c0-0.16,0.04-0.31,0.13-0.43
				C202.22,255.43,202.41,255.34,202.66,255.34z M202.16,264.9v-6.55h0.98v6.55H202.16z"/>
			<path class="st11" d="M208.86,264.14c-0.55,0.59-1.2,0.89-1.96,0.89c-0.69,0-1.21-0.19-1.57-0.58c-0.32-0.34-0.48-0.79-0.48-1.35
				c0-1.44,0.99-2.16,2.96-2.16c0.16,0,0.48,0.01,0.96,0.03v-0.18c0-0.48-0.06-0.84-0.18-1.09c-0.22-0.45-0.65-0.68-1.3-0.68
				c-0.53,0-1.09,0.19-1.69,0.57l-0.43-0.7c0.68-0.44,1.42-0.66,2.23-0.66c0.99,0,1.67,0.3,2.04,0.89c0.17,0.28,0.27,0.69,0.3,1.21
				c0.01,0.19,0.02,0.46,0.02,0.81v2.14c0,0.67,0.02,1.22,0.05,1.63h-0.91L208.86,264.14z M208.79,261.71
				c-0.24-0.02-0.48-0.03-0.73-0.03c-0.7,0-1.21,0.09-1.53,0.28c-0.42,0.24-0.63,0.61-0.63,1.11c0,0.35,0.1,0.63,0.32,0.85
				c0.22,0.21,0.51,0.32,0.88,0.32c0.69,0,1.25-0.33,1.7-1V261.71z"/>
			<path class="st11" d="M214.58,258.22c0.93,0,1.68,0.36,2.25,1.08c0.48,0.61,0.73,1.38,0.73,2.32c0,1.02-0.28,1.84-0.84,2.46
				c-0.56,0.63-1.29,0.95-2.18,0.95c-0.96,0-1.72-0.36-2.29-1.08c-0.48-0.61-0.73-1.38-0.73-2.33c0-1.01,0.28-1.83,0.84-2.45
				C212.93,258.54,213.67,258.22,214.58,258.22z M214.52,259.01c-0.69,0-1.22,0.32-1.58,0.96c-0.25,0.45-0.38,0.99-0.38,1.65
				c0,0.72,0.15,1.32,0.45,1.78c0.36,0.56,0.87,0.84,1.53,0.84c0.71,0,1.24-0.32,1.6-0.96c0.25-0.45,0.38-1,0.38-1.65
				c0-0.72-0.15-1.32-0.45-1.78C215.7,259.29,215.19,259.01,214.52,259.01z"/>
			<path class="st11" d="M218.83,264.58l0.3-0.78c0.6,0.29,1.13,0.44,1.6,0.44c0.33,0,0.61-0.09,0.86-0.27
				c0.26-0.19,0.39-0.47,0.39-0.84c0-0.28-0.09-0.5-0.26-0.66c-0.15-0.13-0.5-0.3-1.05-0.52c-0.61-0.24-1.05-0.48-1.31-0.71
				c-0.33-0.31-0.5-0.71-0.5-1.19c0-0.58,0.22-1.04,0.67-1.39c0.38-0.29,0.87-0.44,1.48-0.44c0.61,0,1.23,0.16,1.87,0.49l-0.3,0.78
				c-0.48-0.32-0.97-0.48-1.48-0.48c-0.33,0-0.61,0.07-0.83,0.21c-0.25,0.16-0.38,0.41-0.38,0.74c0,0.3,0.12,0.54,0.37,0.72
				c0.18,0.13,0.5,0.28,0.96,0.47c0.71,0.29,1.19,0.56,1.42,0.83c0.24,0.27,0.36,0.63,0.36,1.07c0,0.63-0.24,1.12-0.71,1.48
				c-0.42,0.32-0.95,0.48-1.59,0.48C220.08,265.03,219.46,264.88,218.83,264.58z"/>
			<path class="st11" d="M224.76,264.9v-9.44h0.98v3.91c0.72-0.76,1.51-1.15,2.35-1.15c0.82,0,1.39,0.3,1.7,0.91
				c0.18,0.36,0.27,1.02,0.27,1.99v3.78h-0.98v-3.8c0-0.66-0.05-1.12-0.14-1.39c-0.16-0.47-0.54-0.7-1.13-0.7
				c-0.71,0-1.4,0.41-2.08,1.23v4.66H224.76z"/>
			<path class="st11" d="M235.73,264.14c-0.55,0.59-1.2,0.89-1.96,0.89c-0.69,0-1.21-0.19-1.57-0.58c-0.32-0.34-0.48-0.79-0.48-1.35
				c0-1.44,0.99-2.16,2.96-2.16c0.16,0,0.48,0.01,0.96,0.03v-0.18c0-0.48-0.06-0.84-0.18-1.09c-0.22-0.45-0.65-0.68-1.3-0.68
				c-0.53,0-1.09,0.19-1.69,0.57l-0.43-0.7c0.68-0.44,1.42-0.66,2.23-0.66c0.99,0,1.67,0.3,2.04,0.89c0.17,0.28,0.27,0.69,0.3,1.21
				c0.01,0.19,0.02,0.46,0.02,0.81v2.14c0,0.67,0.02,1.22,0.05,1.63h-0.91L235.73,264.14z M235.65,261.71
				c-0.24-0.02-0.48-0.03-0.73-0.03c-0.7,0-1.21,0.09-1.53,0.28c-0.42,0.24-0.63,0.61-0.63,1.11c0,0.35,0.1,0.63,0.32,0.85
				c0.22,0.21,0.51,0.32,0.88,0.32c0.69,0,1.25-0.33,1.7-1V261.71z"/>
			<path class="st11" d="M238.89,264.9v-4.42c0-1-0.02-1.71-0.05-2.13h0.97l0.04,1.04c0.25-0.26,0.48-0.47,0.7-0.63
				c0.5-0.36,1.06-0.54,1.68-0.54c0.83,0,1.4,0.3,1.7,0.91c0.18,0.36,0.27,1.02,0.27,1.99v3.78h-0.98v-3.8
				c0-0.66-0.05-1.12-0.14-1.39c-0.16-0.47-0.54-0.7-1.13-0.7c-0.71,0-1.4,0.41-2.08,1.23v4.66H238.89z"/>
			<path class="st11" d="M249.66,264.9v-8.94h1.03v3.94h4.3v-3.94h1.03v8.94H255v-4.15h-4.3v4.15H249.66z"/>
			<path class="st11" d="M263.49,258.36v4.42c0,1.02,0.02,1.73,0.05,2.13h-0.97l-0.04-1.05c-0.72,0.78-1.5,1.17-2.33,1.17
				c-0.81,0-1.36-0.3-1.67-0.91c-0.18-0.36-0.27-1.02-0.27-1.98v-3.78h0.98v3.8c0,0.66,0.05,1.12,0.14,1.38
				c0.16,0.47,0.52,0.7,1.09,0.7c0.7,0,1.38-0.41,2.03-1.22v-4.66H263.49z"/>
			<path class="st11" d="M266.1,259.15h-1.06v-0.79h1.06v-1.43l0.98-0.21v1.64h1.54v0.79h-1.54v3.58c0,0.54,0.05,0.91,0.14,1.11
				c0.13,0.27,0.38,0.41,0.74,0.41c0.22,0,0.47-0.07,0.76-0.2l0.09,0.78c-0.38,0.13-0.73,0.2-1.07,0.2c-0.66,0-1.11-0.2-1.36-0.61
				c-0.19-0.3-0.28-0.8-0.28-1.51V259.15z"/>
			<path class="st11" d="M272.74,258.22c0.93,0,1.68,0.36,2.25,1.08c0.48,0.61,0.73,1.38,0.73,2.32c0,1.02-0.28,1.84-0.84,2.46
				c-0.56,0.63-1.29,0.95-2.18,0.95c-0.96,0-1.72-0.36-2.29-1.08c-0.48-0.61-0.73-1.38-0.73-2.33c0-1.01,0.28-1.83,0.84-2.45
				C271.09,258.54,271.83,258.22,272.74,258.22z M272.68,259.01c-0.69,0-1.22,0.32-1.58,0.96c-0.25,0.45-0.38,0.99-0.38,1.65
				c0,0.72,0.15,1.32,0.45,1.78c0.36,0.56,0.87,0.84,1.53,0.84c0.71,0,1.24-0.32,1.6-0.96c0.25-0.45,0.38-1,0.38-1.65
				c0-0.72-0.15-1.32-0.45-1.78C273.87,259.29,273.35,259.01,272.68,259.01z"/>
			<path class="st11" d="M277.48,264.9v-4.42c0-1-0.02-1.71-0.05-2.13h0.97l0.04,1.04c0.25-0.26,0.48-0.47,0.7-0.63
				c0.5-0.36,1.06-0.54,1.68-0.54c0.83,0,1.4,0.3,1.7,0.91c0.18,0.36,0.27,1.02,0.27,1.99v3.78h-0.98v-3.8
				c0-0.66-0.05-1.12-0.14-1.39c-0.16-0.47-0.54-0.7-1.13-0.7c-0.71,0-1.4,0.41-2.08,1.23v4.66H277.48z"/>
			<path class="st11" d="M289.1,258.36h0.96c-0.03,1.06-0.05,1.92-0.05,2.58v3.27c0,0.74-0.04,1.3-0.13,1.68
				c-0.14,0.61-0.49,1.1-1.03,1.46c-0.46,0.3-1.01,0.45-1.65,0.45c-0.88,0-1.7-0.24-2.48-0.71l0.42-0.76
				c0.66,0.45,1.34,0.68,2.03,0.68c0.77,0,1.3-0.31,1.6-0.93c0.17-0.35,0.25-0.95,0.25-1.79v-0.54c-0.61,0.69-1.28,1.03-2,1.03
				c-0.73,0-1.34-0.3-1.82-0.89c-0.47-0.58-0.71-1.36-0.71-2.34c0-1.07,0.27-1.92,0.79-2.54c0.45-0.53,1.03-0.79,1.76-0.79
				c0.86,0,1.53,0.38,2.02,1.13L289.1,258.36z M289.02,260.28c-0.45-0.84-1.04-1.27-1.77-1.27c-0.58,0-1.03,0.26-1.33,0.79
				c-0.26,0.47-0.4,1.05-0.4,1.74c0,0.67,0.14,1.23,0.42,1.68c0.32,0.51,0.77,0.77,1.35,0.77c0.7,0,1.28-0.38,1.73-1.15V260.28z"/>
		</g>
	</g>
	<g>
		<g>
			<path class="st11" d="M443.38,354.58h-3.33l-1.1,3.13h-1.05l3.18-8.94h1.31l3.2,8.94h-1.12L443.38,354.58z M443.07,353.72
				l-0.79-2.35c-0.2-0.6-0.38-1.17-0.55-1.72c-0.15,0.51-0.34,1.08-0.55,1.73l-0.81,2.35H443.07z"/>
			<path class="st11" d="M447.39,348.14c0.24,0,0.42,0.09,0.55,0.27c0.09,0.12,0.13,0.26,0.13,0.43c0,0.16-0.04,0.3-0.13,0.42
				c-0.13,0.18-0.32,0.27-0.57,0.27c-0.24,0-0.43-0.09-0.56-0.27c-0.09-0.12-0.13-0.26-0.13-0.42c0-0.16,0.04-0.31,0.13-0.43
				C446.94,348.23,447.14,348.14,447.39,348.14z M446.89,357.7v-6.55h0.98v6.55H446.89z"/>
			<path class="st11" d="M450.13,357.7v-3.73c0-0.82-0.01-1.66-0.04-2.51l-0.01-0.3H451l0.04,1.21c0.21-0.4,0.45-0.72,0.71-0.94
				c0.3-0.27,0.68-0.4,1.13-0.4c0.13,0,0.29,0.01,0.46,0.04l-0.09,0.89c-0.12-0.03-0.24-0.04-0.35-0.04c-0.48,0-0.91,0.24-1.28,0.73
				c-0.21,0.27-0.38,0.58-0.5,0.91v4.14H450.13z"/>
			<path class="st11" d="M454.65,360.48v-6.68c0-0.73-0.01-1.49-0.04-2.29l-0.01-0.35h0.92l0.04,1c0.55-0.75,1.22-1.13,2-1.13
				c0.76,0,1.39,0.32,1.88,0.97c0.47,0.61,0.7,1.41,0.7,2.38c0,1.08-0.27,1.96-0.82,2.62c-0.47,0.56-1.07,0.84-1.81,0.84
				c-0.53,0-0.97-0.15-1.33-0.45c-0.16-0.13-0.35-0.33-0.55-0.58v3.67H454.65z M455.64,355.82c0.18,0.29,0.35,0.51,0.5,0.67
				c0.35,0.37,0.75,0.55,1.22,0.55c0.6,0,1.05-0.28,1.36-0.83c0.26-0.48,0.4-1.08,0.4-1.8c0-0.78-0.16-1.41-0.47-1.9
				c-0.29-0.47-0.72-0.7-1.27-0.7c-0.69,0-1.26,0.4-1.73,1.21V355.82z"/>
			<path class="st11" d="M464.46,351.03c0.93,0,1.68,0.36,2.25,1.08c0.48,0.61,0.73,1.38,0.73,2.32c0,1.02-0.28,1.84-0.84,2.46
				c-0.56,0.63-1.29,0.95-2.18,0.95c-0.96,0-1.72-0.36-2.29-1.08c-0.48-0.61-0.73-1.38-0.73-2.33c0-1.01,0.28-1.83,0.84-2.45
				C462.81,351.34,463.55,351.03,464.46,351.03z M464.4,351.81c-0.69,0-1.22,0.32-1.58,0.96c-0.25,0.45-0.38,0.99-0.38,1.65
				c0,0.72,0.15,1.32,0.45,1.78c0.36,0.56,0.87,0.84,1.53,0.84c0.71,0,1.24-0.32,1.6-0.96c0.25-0.45,0.38-1,0.38-1.65
				c0-0.72-0.15-1.32-0.45-1.78C465.58,352.09,465.07,351.81,464.4,351.81z"/>
			<path class="st11" d="M469.21,357.7v-3.73c0-0.82-0.01-1.66-0.04-2.51l-0.01-0.3h0.92l0.04,1.21c0.21-0.4,0.45-0.72,0.71-0.94
				c0.3-0.27,0.68-0.4,1.13-0.4c0.13,0,0.29,0.01,0.46,0.04l-0.09,0.89c-0.12-0.03-0.24-0.04-0.35-0.04c-0.48,0-0.91,0.24-1.28,0.73
				c-0.21,0.27-0.38,0.58-0.5,0.91v4.14H469.21z"/>
			<path class="st11" d="M474.08,351.95h-1.06v-0.79h1.06v-1.43l0.98-0.21v1.64h1.54v0.79h-1.54v3.58c0,0.54,0.05,0.91,0.14,1.11
				c0.13,0.27,0.38,0.41,0.74,0.41c0.22,0,0.47-0.07,0.76-0.2l0.09,0.78c-0.38,0.13-0.73,0.2-1.07,0.2c-0.66,0-1.11-0.2-1.36-0.61
				c-0.19-0.3-0.28-0.8-0.28-1.51V351.95z"/>
			<path class="st11" d="M481.44,357.7v-8.94h1.03v3.94h4.3v-3.94h1.03v8.94h-1.03v-4.15h-4.3v4.15H481.44z"/>
			<path class="st11" d="M495.27,351.16v4.42c0,1.02,0.02,1.73,0.05,2.13h-0.97l-0.04-1.05c-0.72,0.78-1.5,1.17-2.33,1.17
				c-0.81,0-1.36-0.3-1.67-0.91c-0.18-0.36-0.27-1.02-0.27-1.98v-3.78h0.98v3.8c0,0.66,0.05,1.12,0.14,1.38
				c0.16,0.47,0.52,0.7,1.09,0.7c0.7,0,1.38-0.41,2.03-1.22v-4.66H495.27z"/>
			<path class="st11" d="M497.87,351.95h-1.06v-0.79h1.06v-1.43l0.98-0.21v1.64h1.54v0.79h-1.54v3.58c0,0.54,0.05,0.91,0.14,1.11
				c0.13,0.27,0.38,0.41,0.74,0.41c0.22,0,0.47-0.07,0.76-0.2l0.09,0.78c-0.38,0.13-0.73,0.2-1.07,0.2c-0.66,0-1.11-0.2-1.36-0.61
				c-0.19-0.3-0.28-0.8-0.28-1.51V351.95z"/>
			<path class="st11" d="M504.52,351.03c0.93,0,1.68,0.36,2.25,1.08c0.48,0.61,0.73,1.38,0.73,2.32c0,1.02-0.28,1.84-0.84,2.46
				c-0.56,0.63-1.29,0.95-2.18,0.95c-0.96,0-1.72-0.36-2.29-1.08c-0.48-0.61-0.73-1.38-0.73-2.33c0-1.01,0.28-1.83,0.84-2.45
				C502.87,351.34,503.61,351.03,504.52,351.03z M504.46,351.81c-0.69,0-1.22,0.32-1.58,0.96c-0.25,0.45-0.38,0.99-0.38,1.65
				c0,0.72,0.15,1.32,0.45,1.78c0.36,0.56,0.87,0.84,1.53,0.84c0.71,0,1.24-0.32,1.6-0.96c0.25-0.45,0.38-1,0.38-1.65
				c0-0.72-0.15-1.32-0.45-1.78C505.64,352.09,505.13,351.81,504.46,351.81z"/>
			<path class="st11" d="M509.26,357.7v-4.42c0-1-0.02-1.71-0.05-2.13h0.97l0.04,1.04c0.25-0.26,0.48-0.47,0.7-0.63
				c0.5-0.36,1.06-0.54,1.68-0.54c0.83,0,1.4,0.3,1.7,0.91c0.18,0.36,0.27,1.02,0.27,1.99v3.78h-0.98v-3.8
				c0-0.66-0.05-1.12-0.14-1.39c-0.16-0.47-0.54-0.7-1.13-0.7c-0.71,0-1.4,0.41-2.08,1.23v4.66H509.26z"/>
			<path class="st11" d="M520.87,351.16h0.96c-0.03,1.06-0.05,1.92-0.05,2.58v3.27c0,0.74-0.04,1.3-0.13,1.68
				c-0.14,0.61-0.49,1.1-1.03,1.46c-0.46,0.3-1.01,0.45-1.65,0.45c-0.88,0-1.7-0.24-2.48-0.71l0.42-0.76
				c0.66,0.45,1.34,0.68,2.03,0.68c0.77,0,1.3-0.31,1.6-0.93c0.17-0.35,0.25-0.95,0.25-1.79v-0.54c-0.61,0.69-1.28,1.03-2,1.03
				c-0.73,0-1.34-0.3-1.82-0.89c-0.47-0.58-0.71-1.36-0.71-2.34c0-1.07,0.27-1.92,0.79-2.54c0.45-0.53,1.03-0.79,1.76-0.79
				c0.86,0,1.53,0.38,2.02,1.13L520.87,351.16z M520.8,353.08c-0.45-0.84-1.04-1.27-1.77-1.27c-0.58,0-1.03,0.26-1.33,0.79
				c-0.26,0.47-0.4,1.05-0.4,1.74c0,0.67,0.14,1.23,0.42,1.68c0.32,0.51,0.77,0.77,1.35,0.77c0.7,0,1.28-0.38,1.73-1.15V353.08z"/>
		</g>
	</g>
	<path class="st12" d="M424.03,143.63h-16.67c-0.49,0-0.88-0.4-0.88-0.88v-8.61c0-0.49,0.4-0.88,0.88-0.88h16.67
		c0.49,0,0.88,0.4,0.88,0.88v8.61C424.91,143.24,424.51,143.63,424.03,143.63z"/>
	<g>
		<path class="st8" d="M412.02,138.23v3.32c-0.69,0.27-1.4,0.4-2.14,0.4c-0.95,0-1.71-0.29-2.3-0.88c-0.66-0.66-0.99-1.54-0.99-2.64
			c0-1.15,0.33-2.07,1-2.76c0.6-0.63,1.38-0.94,2.33-0.94c0.66,0,1.34,0.17,2.06,0.5l-0.24,0.65c-0.62-0.32-1.23-0.48-1.84-0.48
			c-0.8,0-1.41,0.3-1.83,0.9c-0.41,0.58-0.61,1.29-0.61,2.13c0,0.96,0.28,1.71,0.84,2.24c0.43,0.41,0.99,0.62,1.68,0.62
			c0.41,0,0.82-0.07,1.24-0.22v-2.16h-1.38v-0.67H412.02z"/>
		<path class="st8" d="M413.95,141.94l0.04-0.66c0.17,0.01,0.3,0.02,0.41,0.02c1.59,0,2.5-0.95,2.74-2.85
			c-0.43,0.54-0.99,0.81-1.69,0.81c-0.44,0-0.83-0.12-1.18-0.35c-0.59-0.39-0.88-1.01-0.88-1.86c0-0.7,0.22-1.26,0.65-1.69
			c0.43-0.43,0.99-0.64,1.67-0.64c0.85,0,1.47,0.3,1.85,0.91c0.32,0.5,0.48,1.16,0.48,2c0,1-0.19,1.87-0.58,2.61
			c-0.36,0.68-0.85,1.16-1.47,1.42c-0.45,0.19-0.98,0.29-1.59,0.29C414.33,141.95,414.18,141.95,413.95,141.94z M415.66,135.38
			c-0.43,0-0.78,0.14-1.05,0.43c-0.27,0.29-0.41,0.68-0.41,1.19c0,0.49,0.13,0.88,0.38,1.17c0.27,0.3,0.62,0.45,1.07,0.45
			c0.45,0,0.82-0.15,1.09-0.45c0.27-0.29,0.41-0.69,0.41-1.18c0-0.5-0.14-0.9-0.41-1.18C416.48,135.52,416.11,135.38,415.66,135.38z
			"/>
		<path class="st8" d="M419.36,141.85v-0.71c1.07-0.96,1.85-1.72,2.35-2.29c0.45-0.5,0.76-0.93,0.94-1.29
			c0.18-0.34,0.26-0.67,0.26-0.99c0-0.35-0.13-0.64-0.39-0.85c-0.29-0.24-0.66-0.36-1.12-0.36c-0.53,0-1.08,0.17-1.64,0.53
			l-0.2-0.69c0.65-0.32,1.29-0.48,1.93-0.48c0.63,0,1.15,0.14,1.55,0.42c0.46,0.32,0.69,0.78,0.69,1.39c0,0.59-0.25,1.22-0.74,1.9
			c-0.59,0.81-1.48,1.72-2.66,2.76h3.46v0.67H419.36z"/>
	</g>
	<polygon class="st2" points="619.94,292.98 586.58,275.35 604.85,275.58 	"/>
	<path class="st2" d="M622.95,297.13c0,2.08-1.69,3.77-3.77,3.77c-2.08,0-3.77-1.69-3.77-3.77c0-2.08,1.69-3.77,3.77-3.77
		C621.26,293.35,622.95,295.04,622.95,297.13z"/>
	<path class="st5" d="M623.94,297.13c0,2.63-2.13,4.76-4.76,4.76c-2.63,0-4.76-2.13-4.76-4.76c0-2.63,2.13-4.76,4.76-4.76
		C621.81,292.37,623.94,294.5,623.94,297.13z"/>
	<path class="st2" d="M523.96,155.47h-64h-2.7c-1.41,0-2.56-2.13-2.56-4.73v-12.7c0-2.6,1.15-4.73,2.56-4.73h66.7
		c1.41,0,2.56,2.13,2.56,4.73v12.7C526.52,153.34,525.36,155.47,523.96,155.47z"/>
	<g>
		<path class="st8" d="M471.98,149.87l0.14-0.96c0.88,0.32,1.65,0.48,2.32,0.48c0.6,0,1.08-0.16,1.43-0.48
			c0.33-0.3,0.5-0.71,0.5-1.21c0-0.46-0.14-0.83-0.42-1.09c-0.23-0.22-0.74-0.5-1.51-0.84c-0.91-0.41-1.52-0.74-1.83-1
			c-0.48-0.41-0.72-0.96-0.72-1.66c0-0.62,0.17-1.15,0.52-1.59c0.25-0.32,0.62-0.56,1.1-0.74c0.42-0.16,0.87-0.23,1.35-0.23
			c0.64,0,1.39,0.14,2.25,0.43l-0.22,0.98c-0.7-0.34-1.37-0.51-2.03-0.51c-0.5,0-0.92,0.13-1.27,0.39
			c-0.35,0.26-0.53,0.62-0.53,1.07c0,0.36,0.12,0.67,0.35,0.92c0.26,0.28,0.75,0.57,1.48,0.88c0.92,0.38,1.55,0.74,1.91,1.08
			c0.5,0.47,0.75,1.08,0.75,1.84c0,0.84-0.3,1.51-0.89,1.99c-0.57,0.46-1.32,0.7-2.25,0.7
			C473.67,150.29,472.86,150.15,471.98,149.87z"/>
		<path class="st8" d="M479.51,150.16v-9.49h1.1v4.18h4.57v-4.18h1.1v9.49h-1.1v-4.41h-4.57v4.41H479.51z"/>
		<path class="st8" d="M490.87,150.16l-3.31-9.49h1.21l2.22,6.51c0.27,0.79,0.48,1.46,0.64,2.02c0.27-0.89,0.5-1.61,0.7-2.16
			l2.18-6.37h1.1l-3.3,9.49H490.87z"/>
		<path class="st8" d="M503.11,148.88l0.27,0.88c-0.91,0.35-1.76,0.53-2.55,0.53c-1.3,0-2.35-0.42-3.15-1.26
			c-0.85-0.91-1.28-2.09-1.28-3.55c0-1.68,0.51-2.99,1.53-3.93c0.75-0.68,1.69-1.02,2.84-1.02c0.83,0,1.68,0.2,2.55,0.59l-0.36,0.88
			c-0.78-0.38-1.5-0.56-2.17-0.56c-1.05,0-1.85,0.4-2.41,1.19s-0.83,1.75-0.83,2.86c0,0.77,0.14,1.47,0.43,2.1
			c0.54,1.2,1.49,1.8,2.84,1.8C501.58,149.39,502.34,149.22,503.11,148.88z"/>
	</g>
	<path class="st2" d="M594.9,110.45H352.03h-10.25c-5.35,0-9.73-2.59-9.73-5.76V89.21c0-3.17,4.38-5.76,9.73-5.76H594.9
		c5.35,0,9.73,2.59,9.73,5.76v15.47C604.63,107.86,600.25,110.45,594.9,110.45z"/>
	<g>
		<g>
			<path class="st8" d="M342.49,102.08v-8.99h2.01c0.7,0,1.28,0.04,1.74,0.12c1,0.18,1.75,0.69,2.24,1.52
				c0.44,0.75,0.67,1.69,0.67,2.81c0,1.81-0.53,3.09-1.6,3.85c-0.51,0.36-1.17,0.58-1.99,0.66c-0.31,0.03-0.71,0.04-1.19,0.04
				H342.49z M343.53,101.22h0.91c1.07,0,1.86-0.19,2.39-0.58c0.41-0.3,0.73-0.75,0.95-1.34c0.18-0.49,0.27-1.06,0.27-1.71
				c0-0.99-0.2-1.81-0.59-2.47c-0.36-0.61-0.91-0.98-1.65-1.1c-0.32-0.06-0.83-0.08-1.52-0.08h-0.76V101.22z"/>
			<path class="st8" d="M353.55,95.35c0.94,0,1.69,0.36,2.27,1.09c0.49,0.61,0.73,1.39,0.73,2.34c0,1.02-0.28,1.85-0.84,2.48
				c-0.57,0.63-1.3,0.95-2.19,0.95c-0.96,0-1.73-0.36-2.3-1.09c-0.49-0.61-0.73-1.39-0.73-2.34c0-1.02,0.28-1.84,0.84-2.47
				C351.89,95.67,352.63,95.35,353.55,95.35z M353.49,96.15c-0.7,0-1.23,0.32-1.59,0.97c-0.25,0.45-0.38,1-0.38,1.66
				c0,0.73,0.15,1.32,0.46,1.79c0.36,0.56,0.88,0.84,1.54,0.84c0.71,0,1.25-0.32,1.61-0.97c0.25-0.45,0.38-1,0.38-1.66
				c0-0.73-0.15-1.32-0.46-1.79C354.68,96.43,354.16,96.15,353.49,96.15z"/>
			<path class="st8" d="M363.53,95.49v4.44c0,1.02,0.02,1.74,0.05,2.15h-0.98l-0.04-1.05c-0.73,0.79-1.51,1.18-2.35,1.18
				c-0.81,0-1.37-0.3-1.68-0.91c-0.18-0.36-0.27-1.03-0.27-1.99v-3.81h0.99v3.83c0,0.66,0.05,1.12,0.14,1.39
				c0.16,0.47,0.53,0.71,1.1,0.71c0.7,0,1.38-0.41,2.04-1.23v-4.69H363.53z"/>
			<path class="st8" d="M366.68,102.08h-0.93l0.01-0.23c0.03-0.83,0.04-1.55,0.04-2.17v-7.1h0.99v3.82
				c0.51-0.69,1.16-1.04,1.94-1.04c0.77,0,1.4,0.33,1.89,0.98c0.47,0.62,0.7,1.42,0.7,2.4c0,1.09-0.27,1.97-0.82,2.63
				c-0.47,0.56-1.08,0.84-1.82,0.84c-0.52,0-0.97-0.15-1.34-0.45c-0.18-0.14-0.39-0.37-0.63-0.69L366.68,102.08z M366.78,100.18
				c0.18,0.29,0.35,0.51,0.51,0.68c0.36,0.37,0.76,0.56,1.23,0.56c0.6,0,1.06-0.28,1.36-0.84c0.27-0.49,0.4-1.09,0.4-1.82
				c0-0.78-0.16-1.42-0.47-1.91c-0.3-0.47-0.72-0.7-1.28-0.7c-0.74,0-1.32,0.41-1.75,1.24V100.18z"/>
			<path class="st8" d="M373.09,102.08v-9.5h0.99v9.5H373.09z"/>
			<path class="st8" d="M376.88,99.05c0.07,0.74,0.24,1.28,0.51,1.64c0.36,0.48,0.9,0.72,1.61,0.72c0.61,0,1.21-0.21,1.8-0.62
				l0.38,0.77c-0.69,0.43-1.42,0.65-2.2,0.65c-1.04,0-1.84-0.34-2.41-1.02c-0.49-0.6-0.74-1.4-0.74-2.4c0-1.22,0.33-2.13,0.98-2.74
				c0.49-0.46,1.12-0.69,1.88-0.69c1.17,0,1.96,0.48,2.36,1.44c0.22,0.55,0.34,1.3,0.36,2.25H376.88z M380.38,98.26
				c-0.01-0.49-0.1-0.9-0.25-1.23c-0.28-0.59-0.77-0.88-1.45-0.88c-0.65,0-1.14,0.29-1.47,0.87c-0.19,0.33-0.29,0.75-0.3,1.24
				H380.38z"/>
			<path class="st8" d="M384.86,102.08v-8.14h-2.63v-0.86h6.34v0.86h-2.67v8.14H384.86z"/>
			<path class="st8" d="M389.88,102.08v-3.76c0-0.83-0.01-1.67-0.04-2.53l-0.01-0.3h0.92l0.04,1.21c0.22-0.41,0.45-0.72,0.71-0.95
				c0.3-0.27,0.68-0.4,1.14-0.4c0.13,0,0.29,0.02,0.46,0.04l-0.09,0.89c-0.12-0.03-0.24-0.04-0.35-0.04c-0.49,0-0.92,0.25-1.29,0.74
				c-0.21,0.28-0.38,0.58-0.51,0.92v4.17H389.88z"/>
			<path class="st8" d="M394.98,99.05c0.07,0.74,0.24,1.28,0.51,1.64c0.36,0.48,0.9,0.72,1.61,0.72c0.61,0,1.21-0.21,1.8-0.62
				l0.38,0.77c-0.69,0.43-1.42,0.65-2.2,0.65c-1.04,0-1.84-0.34-2.41-1.02c-0.49-0.6-0.74-1.4-0.74-2.4c0-1.22,0.33-2.13,0.98-2.74
				c0.49-0.46,1.12-0.69,1.88-0.69c1.17,0,1.96,0.48,2.36,1.44c0.22,0.55,0.34,1.3,0.36,2.25H394.98z M398.48,98.26
				c-0.01-0.49-0.1-0.9-0.25-1.23c-0.28-0.59-0.77-0.88-1.45-0.88c-0.65,0-1.14,0.29-1.47,0.87c-0.19,0.33-0.29,0.75-0.3,1.24
				H398.48z"/>
			<path class="st8" d="M401.82,99.05c0.07,0.74,0.24,1.28,0.51,1.64c0.36,0.48,0.9,0.72,1.61,0.72c0.61,0,1.21-0.21,1.8-0.62
				l0.38,0.77c-0.69,0.43-1.42,0.65-2.2,0.65c-1.04,0-1.84-0.34-2.41-1.02c-0.49-0.6-0.74-1.4-0.74-2.4c0-1.22,0.33-2.13,0.98-2.74
				c0.49-0.46,1.12-0.69,1.88-0.69c1.17,0,1.96,0.48,2.36,1.44c0.22,0.55,0.34,1.3,0.36,2.25H401.82z M405.32,98.26
				c-0.01-0.49-0.1-0.9-0.25-1.23c-0.28-0.59-0.77-0.88-1.45-0.88c-0.65,0-1.14,0.29-1.47,0.87c-0.19,0.33-0.29,0.75-0.3,1.24
				H405.32z"/>
			<path class="st8" d="M412.24,102.08h-0.93l0.01-0.23c0.03-0.83,0.04-1.55,0.04-2.17v-7.1h0.99v3.82
				c0.51-0.69,1.16-1.04,1.94-1.04c0.77,0,1.4,0.33,1.89,0.98c0.47,0.62,0.7,1.42,0.7,2.4c0,1.09-0.27,1.97-0.82,2.63
				c-0.47,0.56-1.08,0.84-1.82,0.84c-0.52,0-0.97-0.15-1.34-0.45c-0.18-0.14-0.39-0.37-0.63-0.69L412.24,102.08z M412.35,100.18
				c0.18,0.29,0.35,0.51,0.51,0.68c0.36,0.37,0.76,0.56,1.23,0.56c0.6,0,1.06-0.28,1.36-0.84c0.27-0.49,0.4-1.09,0.4-1.82
				c0-0.78-0.16-1.42-0.47-1.91c-0.3-0.47-0.72-0.7-1.28-0.7c-0.74,0-1.32,0.41-1.75,1.24V100.18z"/>
			<path class="st8" d="M420.27,102.17l-2.6-6.68h1.06l1.5,3.94c0.16,0.43,0.34,0.93,0.54,1.5c0.19-0.56,0.38-1.08,0.55-1.55
				l1.46-3.9h0.93l-2.68,7.15c-0.28,0.74-0.58,1.31-0.9,1.71c-0.35,0.44-0.85,0.65-1.52,0.65c-0.3,0-0.62-0.04-0.97-0.13l0.17-0.81
				c0.27,0.1,0.51,0.15,0.74,0.15c0.52,0,0.94-0.29,1.23-0.86C419.98,103,420.14,102.6,420.27,102.17z"/>
			<path class="st8" d="M428.29,102.08v-8.99h1.04v3.96h4.33v-3.96h1.04v8.99h-1.04V97.9h-4.33v4.18H428.29z"/>
			<path class="st8" d="M437.5,92.45c0.24,0,0.43,0.09,0.56,0.27c0.09,0.12,0.13,0.27,0.13,0.43c0,0.16-0.04,0.3-0.13,0.42
				c-0.13,0.18-0.32,0.27-0.57,0.27c-0.25,0-0.43-0.09-0.57-0.27c-0.09-0.12-0.13-0.26-0.13-0.42c0-0.17,0.04-0.31,0.13-0.43
				C437.06,92.54,437.25,92.45,437.5,92.45z M437,102.08v-6.59h0.99v6.59H437z"/>
			<path class="st8" d="M440.25,102.08v-9.5h0.99v9.5H440.25z"/>
			<path class="st8" d="M443.86,96.28h-1.07v-0.79h1.07v-1.44l0.99-0.21v1.65h1.56v0.79h-1.56v3.6c0,0.55,0.05,0.92,0.14,1.12
				c0.14,0.28,0.38,0.41,0.75,0.41c0.22,0,0.47-0.07,0.76-0.2l0.09,0.79c-0.38,0.14-0.74,0.2-1.07,0.2c-0.66,0-1.12-0.2-1.37-0.61
				c-0.19-0.3-0.29-0.81-0.29-1.52V96.28z"/>
			<path class="st8" d="M450.55,95.35c0.94,0,1.69,0.36,2.27,1.09c0.49,0.61,0.73,1.39,0.73,2.34c0,1.02-0.28,1.85-0.84,2.48
				c-0.57,0.63-1.3,0.95-2.19,0.95c-0.96,0-1.73-0.36-2.3-1.09c-0.49-0.61-0.73-1.39-0.73-2.34c0-1.02,0.28-1.84,0.84-2.47
				C448.89,95.67,449.63,95.35,450.55,95.35z M450.48,96.15c-0.7,0-1.23,0.32-1.59,0.97c-0.25,0.45-0.38,1-0.38,1.66
				c0,0.73,0.15,1.32,0.46,1.79c0.36,0.56,0.88,0.84,1.54,0.84c0.71,0,1.25-0.32,1.61-0.97c0.25-0.45,0.38-1,0.38-1.66
				c0-0.73-0.15-1.32-0.46-1.79C451.68,96.43,451.16,96.15,450.48,96.15z"/>
			<path class="st8" d="M455.31,102.08v-4.44c0-1-0.02-1.72-0.05-2.15h0.98l0.04,1.05c0.25-0.26,0.48-0.47,0.7-0.63
				c0.5-0.36,1.07-0.55,1.69-0.55c0.83,0,1.4,0.3,1.71,0.91c0.18,0.36,0.27,1.03,0.27,2v3.81h-0.99v-3.83c0-0.66-0.05-1.12-0.14-1.4
				c-0.17-0.47-0.54-0.7-1.14-0.7c-0.71,0-1.41,0.41-2.09,1.24v4.69H455.31z"/>
			<path class="st8" d="M466.16,102.08v-8.99h1.04v3.96h4.33v-3.96h1.04v8.99h-1.04V97.9h-4.33v4.18H466.16z"/>
			<path class="st8" d="M477.44,95.35c0.94,0,1.69,0.36,2.27,1.09c0.49,0.61,0.73,1.39,0.73,2.34c0,1.02-0.28,1.85-0.84,2.48
				c-0.57,0.63-1.3,0.95-2.19,0.95c-0.96,0-1.73-0.36-2.3-1.09c-0.49-0.61-0.73-1.39-0.73-2.34c0-1.02,0.28-1.84,0.84-2.47
				C475.78,95.67,476.52,95.35,477.44,95.35z M477.38,96.15c-0.7,0-1.23,0.32-1.59,0.97c-0.25,0.45-0.38,1-0.38,1.66
				c0,0.73,0.15,1.32,0.46,1.79c0.36,0.56,0.88,0.84,1.54,0.84c0.71,0,1.25-0.32,1.61-0.97c0.25-0.45,0.38-1,0.38-1.66
				c0-0.73-0.15-1.32-0.46-1.79C478.57,96.43,478.05,96.15,477.38,96.15z"/>
			<path class="st8" d="M482.56,96.28h-1.07v-0.79h1.07v-1.44l0.99-0.21v1.65h1.56v0.79h-1.56v3.6c0,0.55,0.05,0.92,0.14,1.12
				c0.14,0.28,0.38,0.41,0.75,0.41c0.22,0,0.47-0.07,0.76-0.2l0.09,0.79c-0.38,0.14-0.74,0.2-1.07,0.2c-0.66,0-1.12-0.2-1.37-0.61
				c-0.19-0.3-0.29-0.81-0.29-1.52V96.28z"/>
			<path class="st8" d="M487.22,99.05c0.07,0.74,0.24,1.28,0.51,1.64c0.36,0.48,0.9,0.72,1.61,0.72c0.61,0,1.21-0.21,1.8-0.62
				l0.38,0.77c-0.69,0.43-1.42,0.65-2.2,0.65c-1.04,0-1.84-0.34-2.41-1.02c-0.49-0.6-0.74-1.4-0.74-2.4c0-1.22,0.33-2.13,0.98-2.74
				c0.49-0.46,1.12-0.69,1.88-0.69c1.17,0,1.96,0.48,2.36,1.44c0.22,0.55,0.34,1.3,0.36,2.25H487.22z M490.72,98.26
				c-0.01-0.49-0.1-0.9-0.25-1.23c-0.28-0.59-0.77-0.88-1.45-0.88c-0.65,0-1.14,0.29-1.47,0.87c-0.19,0.33-0.29,0.75-0.3,1.24
				H490.72z"/>
			<path class="st8" d="M493.51,102.08v-9.5h0.99v9.5H493.51z"/>
			<path class="st8" d="M500.05,102.08v-8.99h1.04v3.96h4.33v-3.96h1.04v8.99h-1.04V97.9h-4.33v4.18H500.05z"/>
			<path class="st8" d="M512.25,101.31c-0.55,0.6-1.21,0.89-1.97,0.89c-0.69,0-1.22-0.19-1.58-0.58c-0.32-0.34-0.48-0.8-0.48-1.36
				c0-1.45,1-2.18,2.98-2.18c0.16,0,0.48,0.01,0.97,0.03v-0.18c0-0.48-0.06-0.84-0.18-1.1c-0.22-0.46-0.66-0.69-1.31-0.69
				c-0.53,0-1.1,0.19-1.7,0.57l-0.43-0.71c0.69-0.44,1.43-0.66,2.24-0.66c1,0,1.68,0.3,2.05,0.9c0.17,0.28,0.28,0.69,0.3,1.22
				c0.01,0.19,0.02,0.46,0.02,0.81v2.15c0,0.68,0.02,1.23,0.05,1.64h-0.92L512.25,101.31z M512.18,98.87
				c-0.24-0.02-0.49-0.03-0.74-0.03c-0.71,0-1.22,0.09-1.54,0.28c-0.42,0.24-0.63,0.61-0.63,1.12c0,0.36,0.11,0.64,0.32,0.85
				c0.22,0.22,0.51,0.32,0.88,0.32c0.69,0,1.26-0.34,1.71-1.01V98.87z"/>
			<path class="st8" d="M515.43,102.08v-4.44c0-1-0.02-1.72-0.05-2.15h0.98l0.04,1.05c0.25-0.26,0.48-0.47,0.7-0.63
				c0.5-0.36,1.07-0.55,1.69-0.55c0.83,0,1.4,0.3,1.71,0.91c0.18,0.36,0.27,1.03,0.27,2v3.81h-0.99v-3.83c0-0.66-0.05-1.12-0.14-1.4
				c-0.17-0.47-0.54-0.7-1.14-0.7c-0.71,0-1.41,0.41-2.09,1.24v4.69H515.43z"/>
			<path class="st8" d="M527.12,95.49h0.96c-0.03,1.06-0.05,1.93-0.05,2.6v3.29c0,0.75-0.04,1.31-0.13,1.69
				c-0.14,0.61-0.49,1.11-1.04,1.47c-0.46,0.3-1.01,0.46-1.66,0.46c-0.88,0-1.71-0.24-2.49-0.72l0.42-0.76
				c0.67,0.46,1.35,0.69,2.04,0.69c0.77,0,1.31-0.31,1.61-0.94c0.17-0.35,0.25-0.95,0.25-1.8v-0.55c-0.61,0.69-1.28,1.04-2.01,1.04
				c-0.74,0-1.35-0.3-1.83-0.9c-0.48-0.58-0.72-1.36-0.72-2.35c0-1.08,0.27-1.93,0.8-2.56c0.45-0.53,1.04-0.8,1.77-0.8
				c0.87,0,1.54,0.38,2.03,1.14L527.12,95.49z M527.05,97.42c-0.45-0.85-1.04-1.28-1.78-1.28c-0.59,0-1.03,0.27-1.34,0.8
				c-0.27,0.47-0.4,1.06-0.4,1.75c0,0.67,0.14,1.24,0.42,1.7c0.32,0.52,0.78,0.77,1.36,0.77c0.71,0,1.29-0.39,1.75-1.16V97.42z"/>
			<path class="st8" d="M529.62,102.08v-0.74l3.58-5.05h-3.41v-0.79h4.59v0.79l-3.56,5h3.66v0.79H529.62z"/>
			<path class="st8" d="M536.07,102.08v-9.5h0.99v3.94c0.73-0.77,1.52-1.16,2.37-1.16c0.83,0,1.4,0.3,1.71,0.91
				c0.18,0.36,0.27,1.03,0.27,2v3.81h-0.99v-3.83c0-0.66-0.05-1.12-0.14-1.4c-0.16-0.47-0.54-0.7-1.14-0.7
				c-0.72,0-1.41,0.41-2.09,1.24v4.69H536.07z"/>
			<path class="st8" d="M546.2,95.35c0.94,0,1.69,0.36,2.27,1.09c0.49,0.61,0.73,1.39,0.73,2.34c0,1.02-0.28,1.85-0.84,2.48
				c-0.57,0.63-1.3,0.95-2.19,0.95c-0.96,0-1.73-0.36-2.3-1.09c-0.49-0.61-0.73-1.39-0.73-2.34c0-1.02,0.28-1.84,0.84-2.47
				C544.54,95.67,545.29,95.35,546.2,95.35z M546.14,96.15c-0.7,0-1.23,0.32-1.59,0.97c-0.25,0.45-0.38,1-0.38,1.66
				c0,0.73,0.15,1.32,0.46,1.79c0.36,0.56,0.88,0.84,1.54,0.84c0.71,0,1.25-0.32,1.61-0.97c0.25-0.45,0.38-1,0.38-1.66
				c0-0.73-0.15-1.32-0.46-1.79C547.33,96.43,546.81,96.15,546.14,96.15z"/>
			<path class="st8" d="M556.18,95.49v4.44c0,1.02,0.02,1.74,0.05,2.15h-0.98l-0.04-1.05c-0.73,0.79-1.51,1.18-2.35,1.18
				c-0.81,0-1.37-0.3-1.68-0.91c-0.18-0.36-0.27-1.03-0.27-1.99v-3.81h0.99v3.83c0,0.66,0.05,1.12,0.14,1.39
				c0.16,0.47,0.53,0.71,1.1,0.71c0.7,0,1.38-0.41,2.04-1.23v-4.69H556.18z"/>
			<path class="st8" d="M561.74,102.08v-8.99h4.75v0.86h-3.71v3.15h3.52v0.86h-3.52v3.28h3.9v0.86H561.74z"/>
			<path class="st8" d="M572.07,101.31c-0.55,0.6-1.21,0.89-1.97,0.89c-0.69,0-1.22-0.19-1.58-0.58c-0.32-0.34-0.48-0.8-0.48-1.36
				c0-1.45,1-2.18,2.98-2.18c0.16,0,0.48,0.01,0.97,0.03v-0.18c0-0.48-0.06-0.84-0.18-1.1c-0.22-0.46-0.66-0.69-1.31-0.69
				c-0.53,0-1.1,0.19-1.7,0.57l-0.43-0.71c0.69-0.44,1.43-0.66,2.24-0.66c1,0,1.68,0.3,2.05,0.9c0.17,0.28,0.28,0.69,0.3,1.22
				c0.01,0.19,0.02,0.46,0.02,0.81v2.15c0,0.68,0.02,1.23,0.05,1.64h-0.92L572.07,101.31z M571.99,98.87
				c-0.24-0.02-0.49-0.03-0.74-0.03c-0.71,0-1.22,0.09-1.54,0.28c-0.42,0.24-0.63,0.61-0.63,1.12c0,0.36,0.11,0.64,0.32,0.85
				c0.22,0.22,0.51,0.32,0.88,0.32c0.69,0,1.26-0.34,1.71-1.01V98.87z"/>
			<path class="st8" d="M574.75,101.75l0.3-0.78c0.6,0.29,1.14,0.44,1.61,0.44c0.33,0,0.62-0.09,0.86-0.27
				c0.26-0.19,0.39-0.48,0.39-0.84c0-0.28-0.09-0.5-0.26-0.66c-0.15-0.13-0.5-0.3-1.06-0.52c-0.62-0.24-1.06-0.48-1.31-0.72
				c-0.33-0.31-0.5-0.71-0.5-1.2c0-0.58,0.23-1.05,0.68-1.4c0.38-0.3,0.88-0.45,1.48-0.45c0.61,0,1.24,0.17,1.88,0.5l-0.3,0.78
				c-0.48-0.32-0.98-0.48-1.49-0.48c-0.33,0-0.61,0.07-0.83,0.22c-0.25,0.17-0.38,0.42-0.38,0.75c0,0.3,0.12,0.55,0.38,0.72
				c0.18,0.13,0.5,0.29,0.97,0.48c0.72,0.29,1.2,0.57,1.43,0.84c0.24,0.27,0.36,0.63,0.36,1.08c0,0.63-0.24,1.13-0.72,1.49
				c-0.42,0.32-0.96,0.48-1.6,0.48C576.01,102.2,575.39,102.05,574.75,101.75z"/>
			<path class="st8" d="M581.07,96.28h-1.07v-0.79h1.07v-1.44l0.99-0.21v1.65h1.56v0.79h-1.56v3.6c0,0.55,0.05,0.92,0.14,1.12
				c0.14,0.28,0.38,0.41,0.75,0.41c0.22,0,0.47-0.07,0.76-0.2l0.09,0.79c-0.38,0.14-0.74,0.2-1.07,0.2c-0.66,0-1.12-0.2-1.37-0.61
				c-0.19-0.3-0.29-0.81-0.29-1.52V96.28z"/>
		</g>
	</g>
</g>
</svg>
