<?xml version="1.0" encoding="utf-8"?>
<!-- Generator: Adobe Illustrator 23.0.1, SVG Export Plug-In . SVG Version: 6.00 Build 0)  -->
<svg version="1.1" id="图层_1" xmlns="http://www.w3.org/2000/svg" xmlns:xlink="http://www.w3.org/1999/xlink" x="0px" y="0px"
	 viewBox="0 0 279.71 256.94" style="enable-background:new 0 0 279.71 256.94;" xml:space="preserve">
<style type="text/css">
	.st0{fill:#FFFFFF;}
</style>
<g>
	<g>
		<path class="st0" d="M23.15,106.98V75.15h18.62v4.49H28.72v8.94h12.4v4.49h-12.4v9.41h13.72v4.49H23.15z"/>
		<path class="st0" d="M48.91,106.98V75.15h5.57v13.32h13.34V75.15h5.57v31.83h-5.57V92.96H54.48v14.02H48.91z"/>
		<path class="st0" d="M79.75,105.86l0.79-4.85c3.43,1.33,6.29,2,8.58,2c1.83,0,3.22-0.46,4.18-1.39c0.88-0.84,1.33-1.92,1.33-3.23
			c0-1.2-0.4-2.13-1.21-2.81c-0.73-0.61-2.38-1.46-4.94-2.54c-3.07-1.3-5.14-2.37-6.2-3.21c-1.75-1.39-2.63-3.33-2.63-5.82
			c0-3.07,1.07-5.46,3.21-7.17c1.83-1.47,4.29-2.2,7.39-2.2c2.61,0,5.58,0.53,8.94,1.59l-1.1,4.74c-2.95-1.23-5.47-1.84-7.57-1.84
			c-1.53,0-2.74,0.36-3.64,1.08c-0.94,0.75-1.42,1.73-1.42,2.94c0,1.03,0.4,1.9,1.19,2.61c0.76,0.66,2.28,1.46,4.54,2.4
			c3.28,1.35,5.5,2.51,6.65,3.48c1.77,1.45,2.65,3.56,2.65,6.31c0,3.16-1.09,5.58-3.26,7.28c-1.95,1.51-4.59,2.27-7.93,2.27
			C86.13,107.5,82.95,106.95,79.75,105.86z"/>
		<path class="st0" d="M23.03,177.98v-15.23c0-2.34-0.04-4.57-0.13-6.72l-0.07-1.5h5.05l0.18,3.46c0.91-0.96,1.73-1.68,2.45-2.18
			c1.72-1.2,3.68-1.8,5.86-1.8c3.08,0,5.21,1.1,6.38,3.3c0.69,1.27,1.03,3.46,1.03,6.56v14.11h-5.37v-13.84
			c0-1.87-0.15-3.2-0.45-3.98c-0.54-1.35-1.66-2.02-3.37-2.02c-2.19,0-4.25,1.33-6.2,3.98v15.86H23.03z"/>
		<path class="st0" d="M61.11,154.01c3.67,0,6.53,1.22,8.58,3.66c1.84,2.2,2.76,5.06,2.76,8.58c0,3.85-1.09,6.89-3.26,9.12
			c-2.02,2.08-4.77,3.12-8.24,3.12c-3.76,0-6.66-1.22-8.71-3.66c-1.84-2.2-2.76-5.07-2.76-8.6c0-3.85,1.09-6.88,3.26-9.1
			C54.73,155.05,57.53,154.01,61.11,154.01z M60.88,158.1c-2.14,0-3.74,1.03-4.78,3.08c-0.7,1.36-1.06,3.05-1.06,5.08
			c0,2.22,0.42,4.04,1.26,5.48c1.06,1.78,2.62,2.67,4.67,2.67c2.2,0,3.82-1.03,4.85-3.08c0.7-1.36,1.06-3.05,1.06-5.08
			c0-2.23-0.42-4.06-1.26-5.48C64.56,158.99,62.98,158.1,60.88,158.1z"/>
		<path class="st0" d="M79.57,158.62h-3.77v-4.09h3.77v-5.1l5.37-1.03v6.13h5.35v4.09h-5.35v10.89c0,1.59,0.16,2.69,0.47,3.3
			c0.46,0.91,1.36,1.37,2.67,1.37c0.64,0,1.49-0.19,2.54-0.58l0.47,4.11c-1.65,0.52-3.24,0.79-4.78,0.79
			c-2.65,0-4.51-0.81-5.59-2.43c-0.76-1.15-1.15-3.24-1.15-6.27V158.62z"/>
		<path class="st0" d="M98.19,143.59c1.03,0,1.87,0.37,2.52,1.1c0.52,0.61,0.79,1.36,0.79,2.25c0,0.87-0.26,1.61-0.79,2.22
			c-0.64,0.75-1.5,1.12-2.56,1.12s-1.92-0.37-2.56-1.12c-0.52-0.6-0.79-1.34-0.79-2.22c0-0.9,0.26-1.65,0.79-2.25
			C96.24,143.96,97.11,143.59,98.19,143.59z M95.43,177.98v-23.45h5.37v23.45H95.43z"/>
		<path class="st0" d="M124.09,172.52l1.73,3.95c-2.16,1.35-4.69,2.02-7.59,2.02c-3.68,0-6.56-1.11-8.62-3.32
			c-2.01-2.17-3.01-5.11-3.01-8.83c0-3.97,1.06-7.08,3.19-9.32c1.9-2.01,4.54-3.01,7.91-3.01c2.65,0,5.2,0.59,7.64,1.77l-1.62,4
			c-1.83-1.14-3.65-1.71-5.46-1.71c-2.07,0-3.6,0.76-4.6,2.27c-0.99,1.47-1.48,3.43-1.48,5.88c0,2.55,0.58,4.55,1.73,6.02
			c1.14,1.41,2.75,2.11,4.83,2.11C120.56,174.36,122.35,173.75,124.09,172.52z"/>
		<path class="st0" d="M134.37,167.96c0.42,4.34,2.67,6.51,6.76,6.51c2.32,0,4.65-0.76,6.99-2.27l1.91,3.95
			c-2.71,1.56-5.71,2.34-9.01,2.34c-4.13,0-7.26-1.15-9.39-3.46c-1.93-2.08-2.9-4.99-2.9-8.71c0-3.92,1.09-7.02,3.28-9.28
			c1.93-2.02,4.58-3.03,7.95-3.03c4.96,0,8.18,1.92,9.66,5.75c0.73,1.9,1.12,4.63,1.15,8.2H134.37z M145.27,164.17
			c-0.04-1.39-0.31-2.58-0.81-3.57c-0.88-1.74-2.38-2.61-4.49-2.61c-2.07,0-3.59,0.85-4.58,2.56c-0.58,1.02-0.91,2.22-0.97,3.62
			H145.27z"/>
	</g>
</g>
</svg>
