<?xml version="1.0" encoding="utf-8"?>
<!-- Generator: Adobe Illustrator 23.0.1, SVG Export Plug-In . SVG Version: 6.00 Build 0)  -->
<svg version="1.1" id="图层_1" xmlns="http://www.w3.org/2000/svg" xmlns:xlink="http://www.w3.org/1999/xlink" x="0px" y="0px"
	 viewBox="0 0 278.5 254.8" style="enable-background:new 0 0 278.5 254.8;" xml:space="preserve">
<style type="text/css">
	.st0{display:none;}
	.st1{display:inline;}
	.st2{fill:#FFFFFF;}
</style>
<g class="st0">
	<g class="st1">
		<path class="st2" d="M30.9,70.9h22.4v3.2H34.5v13.4h18v2.9h-18v16.6h-3.6V70.9z"/>
		<path class="st2" d="M76.4,91v11.6c0,0.5,0.1,1,0.3,1.4c0.2,0.4,0.7,0.6,1.3,0.6c0.2,0,0.3,0,0.5,0c0.1,0,0.2,0,0.4-0.1
			c0.2-0.1,0.3-0.1,0.5-0.2c0.1-0.1,0.2-0.1,0.3-0.1v2.6c-0.6,0.2-1.1,0.3-1.7,0.4c-0.6,0.1-1,0.1-1.3,0.1c-1.6,0-2.6-0.4-3.1-1.2
			c-0.4-0.5-0.6-1.6-0.6-3.4c-0.4,0.7-0.8,1.3-1.2,1.8c-0.4,0.5-0.8,0.9-1.2,1.3c-1.6,1.3-3.4,1.9-5.6,1.9c-2.2,0-4.2-0.7-5.8-2
			c-1.7-1.4-2.6-3.2-2.6-5.4c0-2.7,1.4-4.7,4.1-6c1-0.5,2.3-0.9,4-1.3s3.7-0.7,6-1l2.2-0.2c0-2.2-0.5-3.8-1.6-5s-2.7-1.8-4.8-1.8
			c-0.8,0-1.6,0.1-2.4,0.3c-0.8,0.2-1.6,0.5-2.4,0.9c-0.4,0.2-0.9,0.5-1.4,0.9c-0.5,0.3-1.1,0.8-1.7,1.3v-3.8
			c2.6-1.8,5.4-2.6,8.4-2.6c3.1,0,5.4,1,7.1,2.9C75.7,86.4,76.4,88.5,76.4,91z M73,95.9v-1.5l-1.6,0.2c-3.8,0.4-6.5,0.9-8.1,1.6
			c-2.1,0.8-3.1,2.2-3.1,4.1c0,0.6,0.1,1.1,0.4,1.6s0.6,1,1,1.4c0.4,0.4,1,0.7,1.6,1s1.3,0.4,2.1,0.4c2.1,0,3.9-0.8,5.5-2.5
			C72.3,100.3,73,98.2,73,95.9z"/>
		<path class="st2" d="M103.3,84.5v4.3c-1.7-1.6-3.5-2.8-5.3-3.5c-0.5-0.2-1.1-0.4-1.6-0.4s-1.1-0.1-1.7-0.1c-2.6,0-4.6,0.9-6.3,2.8
			c-1.6,2-2.4,4.3-2.4,7c0,2.8,0.8,5.1,2.5,7.1c1.7,1.9,3.8,2.8,6.3,2.8c1.6,0,3.1-0.3,4.4-1s2.7-1.7,4-3.1v4.4
			c-1.6,1-3.1,1.7-4.4,2.2s-2.7,0.6-4,0.6c-3.4,0-6.4-1.2-8.8-3.7c-2.4-2.5-3.6-5.6-3.6-9.2c0-3.5,1.2-6.6,3.5-9.1
			c2.4-2.5,5.4-3.8,8.9-3.8c1.8,0,3.5,0.3,5.1,0.9C101,83.1,102.1,83.7,103.3,84.5z"/>
		<path class="st2" d="M110,75.1h3v7.2h6.5v3h-6.5v15.6c0,1.3,0.2,2.2,0.7,2.8s1.3,0.8,2.5,0.8c0.7,0,1.2-0.1,1.7-0.2
			c0.5-0.2,1-0.3,1.6-0.6v3c-0.5,0.2-1.1,0.3-1.8,0.4c-0.7,0.1-1.4,0.2-2.1,0.2c-1.8,0-3.3-0.4-4.3-1.2c-1.1-0.9-1.7-2.2-1.7-4.1
			V85.3h-4.1v-3h4.1L110,75.1z"/>
		<path class="st2" d="M134.4,107.6c-3.2,0-5.9-1.2-8.3-3.4c-2.6-2.4-3.8-5.6-3.8-9.4c0-3.7,1.1-6.7,3.4-9.2
			c2.3-2.5,5.1-3.7,8.5-3.7c3.3,0,6.2,1.2,8.5,3.7c2.3,2.4,3.4,5.5,3.4,9.1c0,3.8-1.2,6.9-3.7,9.4
			C140,106.4,137.4,107.6,134.4,107.6z M134,104.5c2.2,0,4.2-0.9,5.9-2.8c1.7-1.9,2.5-4.2,2.5-7.1c0-3-0.9-5.4-2.7-7.3
			c-1.6-1.7-3.5-2.6-5.7-2.6c-2.2,0-4.1,0.9-5.7,2.7c-1.7,2-2.6,4.4-2.6,7.2c0,2.9,0.8,5.3,2.5,7.2
			C129.9,103.6,131.8,104.5,134,104.5z"/>
		<path class="st2" d="M162.9,82.3v3.3c-0.3-0.1-0.6-0.2-0.8-0.3c-0.2-0.1-0.4-0.1-0.6-0.2c-0.1,0-0.3-0.1-0.5-0.1
			c-0.2,0-0.4,0-0.7,0c-2.2,0-4.1,1.1-5.5,3.3c-1.2,2-1.8,4.2-1.8,6.7v11.9h-3.3V82.3h3l0.2,4.2c0.8-1.3,1.5-2.2,2.2-2.8
			c1.4-1.1,3-1.7,5-1.7c0.5,0,1,0,1.4,0.1C162,82.2,162.4,82.2,162.9,82.3z"/>
		<path class="st2" d="M165.1,82.3h3.7l8.5,20.8l7.2-20.8h3.6l-10.3,27.5c-0.7,2-1.7,3.4-2.9,4.2c-1,0.7-2.3,1.1-3.7,1.1
			c-0.7,0-1.4-0.1-1.8-0.2c-0.5-0.1-1-0.2-1.4-0.4v-3.2c0.4,0.2,0.9,0.4,1.4,0.6s1,0.2,1.4,0.2c1.1,0,1.9-0.3,2.5-0.8
			c0.6-0.6,1.1-1.4,1.6-2.6l0.6-1.9L165.1,82.3z"/>
		<path class="st2" d="M33.4,146.1h3v7.2h6.5v3h-6.5v15.6c0,1.3,0.2,2.2,0.7,2.8c0.5,0.6,1.3,0.8,2.5,0.8c0.7,0,1.2-0.1,1.7-0.2
			c0.5-0.1,1-0.4,1.6-0.6v3c-0.5,0.1-1.1,0.3-1.8,0.4s-1.4,0.2-2.1,0.2c-1.8,0-3.3-0.4-4.3-1.2c-1.1-0.9-1.7-2.2-1.7-4.1v-16.6h-4.1
			v-3h4.1L33.4,146.1z"/>
		<path class="st2" d="M57.7,178.6c-3.2,0-5.9-1.1-8.3-3.4c-2.5-2.4-3.8-5.6-3.8-9.4c0-3.6,1.1-6.7,3.4-9.1c2.3-2.5,5.1-3.7,8.5-3.7
			c3.3,0,6.2,1.2,8.5,3.7c2.3,2.4,3.4,5.5,3.4,9.1c0,3.8-1.2,6.9-3.7,9.4C63.4,177.4,60.7,178.6,57.7,178.6z M57.4,175.5
			c2.2,0,4.2-0.9,5.9-2.8c1.7-1.9,2.5-4.2,2.5-7.1c0-3-0.9-5.4-2.7-7.3c-1.6-1.7-3.5-2.6-5.7-2.6c-2.2,0-4.1,0.9-5.7,2.7
			c-1.7,2-2.6,4.4-2.6,7.2c0,2.9,0.8,5.3,2.5,7.2C53.3,174.6,55.2,175.5,57.4,175.5z"/>
		<path class="st2" d="M72.8,153.3h3.4V169c0,1.8,0.5,3.2,1.5,4.4c1.1,1.4,2.7,2.1,4.7,2.1c2.3,0,4.3-0.9,6-2.8
			c1.7-2,2.6-4.1,2.6-6.5v-12.9h3.3v24.6h-2.9l-0.2-4.2c-0.5,0.7-1,1.3-1.6,1.8c-0.6,0.5-1.2,1-1.8,1.4c-1.7,1-3.6,1.6-5.7,1.6
			c-2.8,0-5.1-0.9-6.8-2.6c-1.7-1.8-2.5-3.9-2.5-6.5L72.8,153.3L72.8,153.3z"/>
		<path class="st2" d="M111.8,153.3v3.3c-0.3-0.1-0.6-0.2-0.8-0.3c-0.2-0.1-0.4-0.1-0.6-0.2s-0.3-0.1-0.5-0.1c-0.2,0-0.4,0-0.7,0
			c-2.2,0-4.1,1.1-5.5,3.3c-1.2,2-1.8,4.2-1.8,6.7v11.9h-3.3v-24.6h3l0.2,4.2c0.8-1.3,1.5-2.2,2.2-2.8c1.4-1.1,3-1.7,5-1.7
			c0.5,0,1,0,1.4,0.1C110.9,153.2,111.3,153.2,111.8,153.3z"/>
	</g>
</g>
<g>
	<g id="图层_1-2">
		<path class="st2" d="M31.6,107.8V76h18.7v4.5H37.2v8.9h12.5v4.5H37.2v13.9H31.6z"/>
		<path class="st2" d="M69.2,105.2c-0.7,0.8-1.5,1.4-2.3,2c-1.5,0.8-3.2,1.2-4.9,1.2c-2.1,0.1-4.1-0.6-5.6-1.9
			c-1.4-1.4-2.1-3.2-2-5.2c-0.1-2.7,1.3-5.2,3.6-6.5c1.5-0.9,3.8-1.3,7.1-1.3c1,0,2.2,0.1,3.9,0.1v-0.4c0-3.6-1.7-5.3-5.2-5.3
			c-2.2,0.1-4.4,0.8-6.3,2l-1.4-3.9c2.6-1.4,5.5-2.1,8.5-2.1c3.8,0,6.5,1,8.1,3.1c0.9,1.3,1.5,2.7,1.6,4.3c0.1,1.2,0.1,2.4,0.1,3.6
			v7c0,2.5,0.1,4.5,0.2,6h-5.1L69.2,105.2z M68.9,97c-0.9-0.1-1.7-0.1-2.4-0.1c-4.3,0-6.5,1.4-6.5,4.2c-0.1,1.9,1.3,3.5,3.2,3.6
			c0.1,0,0.3,0,0.4,0c2.1,0,3.8-1.1,5.3-3.3L68.9,97z"/>
		<path class="st2" d="M97.6,102.4l1.7,3.9c-2.3,1.4-4.9,2.1-7.6,2c-3.7,0-6.6-1.1-8.6-3.3s-3-5.1-3-8.8c0-4,1.1-7.1,3.2-9.3
			c2.1-2.1,5-3.2,7.9-3c2.6,0,5.3,0.6,7.6,1.8l-1.6,4c-1.6-1.1-3.5-1.7-5.4-1.7c-1.8-0.1-3.6,0.7-4.6,2.3c-1.1,1.8-1.6,3.8-1.5,5.9
			c-0.1,2.1,0.5,4.3,1.7,6c1.2,1.4,3,2.2,4.8,2.1C94.2,104.2,96.1,103.5,97.6,102.4z"/>
		<path class="st2" d="M105.3,88.5h-3.8v-4.1h3.8v-5.1l5.4-1v6.1h5.4v4.1h-5.4v10.9c-0.1,1.1,0.1,2.2,0.5,3.3
			c0.5,0.9,1.6,1.5,2.7,1.3c0.9,0,1.7-0.2,2.5-0.6l0.5,4.1c-1.5,0.5-3.2,0.8-4.8,0.8c-2.7,0-4.5-0.8-5.6-2.4
			c-0.8-1.1-1.2-3.2-1.2-6.3V88.5z"/>
		<path class="st2" d="M131.1,83.9c3.3-0.2,6.4,1.2,8.6,3.7c1.9,2.4,2.9,5.5,2.8,8.6c0,3.8-1.1,6.9-3.2,9.1
			c-2.2,2.1-5.2,3.3-8.2,3.1c-3.8,0-6.7-1.2-8.7-3.7c-1.9-2.4-2.9-5.5-2.8-8.6c0-3.8,1.1-6.9,3.2-9.1
			C124.7,84.9,127.5,83.9,131.1,83.9z M130.9,88c-2.1-0.1-3.9,1.1-4.8,3c-0.7,1.6-1.1,3.3-1.1,5.1c-0.1,1.9,0.4,3.8,1.2,5.5
			c1.5,2.6,4.8,3.4,7.4,2c0.9-0.5,1.7-1.4,2.2-2.4c0.7-1.6,1.1-3.3,1.1-5.1c0.1-1.9-0.4-3.8-1.3-5.5C134.6,88.9,132.8,87.9,130.9,88
			z"/>
		<path class="st2" d="M148.3,107.8V93.2c0-3-0.1-5.9-0.2-8.8h5l0.2,4.4c1.4-3.2,3.5-4.8,6.2-4.8c0.7,0,1.3,0.1,2,0.3l-0.3,4.7
			c-0.6-0.1-1.2-0.2-1.8-0.2c-1.7,0-3.3,0.9-4.3,2.3c-0.7,0.9-1.2,2-1.5,3.1v13.7H148.3z"/>
		<path class="st2" d="M171.8,107.5l-9.4-23.1h5.7l4.7,11.9c0.7,1.7,1.3,3.5,2,5.4c0.7-2.1,1.3-4,2-5.6l4.4-11.6h5.2l-9.5,24
			c-0.9,2.6-2.2,5.1-3.8,7.4c-1.5,1.7-3.7,2.6-6,2.5c-1.6,0-3.2-0.3-4.7-0.8l0.9-4.2c0.9,0.4,1.9,0.6,2.9,0.7c1.7,0,3.3-1.1,4-2.7
			C170.9,110,171.4,108.8,171.8,107.5z"/>
		<path class="st2" d="M32.7,159.5h-3.8v-4.1h3.8v-5.1l5.4-1v6.1h5.4v4.1h-5.4v10.9c-0.1,1.1,0.1,2.2,0.5,3.3
			c0.5,0.9,1.6,1.5,2.7,1.3c0.9,0,1.7-0.2,2.5-0.6l0.5,4.1c-1.5,0.5-3.2,0.8-4.8,0.8c-2.6,0-4.5-0.8-5.6-2.4
			c-0.8-1.2-1.1-3.2-1.1-6.3V159.5z"/>
		<path class="st2" d="M58.5,154.9c3.3-0.2,6.4,1.2,8.6,3.7c1.9,2.4,2.9,5.5,2.8,8.6c0,3.9-1.1,6.9-3.3,9.1
			c-2.2,2.1-5.2,3.3-8.2,3.1c-3.8,0-6.7-1.2-8.7-3.7c-1.9-2.4-2.9-5.5-2.8-8.6c0-3.8,1.1-6.9,3.3-9.1
			C52.1,155.9,54.9,154.9,58.5,154.9z M58.3,159c-2.1-0.1-3.9,1.1-4.8,3c-0.8,1.6-1.1,3.3-1.1,5.1c-0.1,1.9,0.4,3.8,1.3,5.5
			c0.9,1.7,2.7,2.7,4.7,2.7c2.1,0.1,4-1.2,4.9-3.1c0.7-1.6,1.1-3.3,1-5.1c0.1-1.9-0.4-3.8-1.3-5.5C62,159.9,60.2,158.9,58.3,159z"/>
		<path class="st2" d="M96,155.4v15.2c0,2.8,0.1,5.6,0.2,8.2h-5l-0.2-3.5c-0.7,0.8-1.6,1.5-2.4,2.2c-1.7,1.2-3.7,1.8-5.8,1.8
			c-3,0-5.1-1.1-6.3-3.3c-0.7-1.3-1-3.5-1-6.6v-14.1h5.4v13.8c-0.1,1.3,0.1,2.7,0.4,4c0.5,1.3,1.8,2.1,3.2,2c2.1,0,4.2-1.3,6.1-4
			v-15.8H96z"/>
		<path class="st2" d="M103.7,178.8v-14.6c0-3-0.1-5.9-0.2-8.8h5l0.2,4.4c1.4-3.2,3.5-4.8,6.3-4.8c0.7,0,1.3,0.1,2,0.3l-0.3,4.7
			c-0.6-0.1-1.2-0.2-1.8-0.2c-1.7,0-3.3,0.9-4.3,2.3c-0.7,0.9-1.2,2-1.5,3.1v13.6L103.7,178.8z"/>
	</g>
</g>
</svg>
