<?xml version="1.0" encoding="utf-8"?>
<!-- Generator: Adobe Illustrator 23.0.1, SVG Export Plug-In . SVG Version: 6.00 Build 0)  -->
<svg version="1.1" id="图层_1" xmlns="http://www.w3.org/2000/svg" xmlns:xlink="http://www.w3.org/1999/xlink" x="0px" y="0px"
	 viewBox="0 0 279.71 256.94" style="enable-background:new 0 0 279.71 256.94;" xml:space="preserve">
<style type="text/css">
	.st0{fill:#FFFFFF;}
</style>
<g>
	<g>
		<path class="st0" d="M17.77,140.47v-31.83h5.57v27.33h13.72v4.49H17.77z"/>
		<path class="st0" d="M50.74,116.5c3.67,0,6.53,1.22,8.58,3.66c1.84,2.2,2.76,5.06,2.76,8.58c0,3.85-1.09,6.89-3.26,9.12
			c-2.02,2.08-4.77,3.12-8.24,3.12c-3.76,0-6.66-1.22-8.71-3.66c-1.84-2.2-2.76-5.07-2.76-8.6c0-3.85,1.09-6.88,3.26-9.1
			C44.37,117.54,47.16,116.5,50.74,116.5z M50.52,120.59c-2.14,0-3.74,1.03-4.78,3.08c-0.7,1.36-1.06,3.05-1.06,5.08
			c0,2.22,0.42,4.04,1.26,5.48c1.06,1.78,2.62,2.67,4.67,2.67c2.2,0,3.82-1.03,4.85-3.08c0.7-1.36,1.06-3.05,1.06-5.08
			c0-2.23-0.42-4.06-1.26-5.48C54.19,121.48,52.61,120.59,50.52,120.59z"/>
		<path class="st0" d="M83.02,116.99l5.17,0.02l-0.07,1.59c-0.12,3.2-0.18,5.75-0.18,7.64v11.54c0,2.75-0.17,4.81-0.49,6.18
			c-0.6,2.53-2.1,4.38-4.49,5.55c-1.86,0.9-4.07,1.35-6.65,1.35c-3.31,0-6.35-0.7-9.12-2.09l1.71-4c2.28,1.35,4.61,2.02,7.01,2.02
			c2.88,0,4.82-0.99,5.84-2.96c0.55-1.09,0.83-2.98,0.83-5.66v-1.68c-1.99,2.29-4.31,3.44-6.96,3.44c-2.83,0-5.13-1.08-6.9-3.23
			c-1.68-2.04-2.52-4.84-2.52-8.4c0-3.5,0.87-6.36,2.61-8.58c1.69-2.14,3.97-3.21,6.83-3.21c3.08,0,5.5,1.26,7.23,3.77L83.02,116.99
			z M82.57,124.95c-0.45-1.02-1-1.85-1.66-2.49c-1.21-1.21-2.55-1.82-4.02-1.82c-1.74,0-3.05,0.82-3.95,2.45
			c-0.78,1.41-1.17,3.17-1.17,5.28c0,2.07,0.41,3.77,1.24,5.12c0.93,1.54,2.27,2.31,4.02,2.31c1.45,0,2.8-0.63,4.04-1.89
			c0.57-0.58,1.07-1.29,1.5-2.11V124.95z"/>
		<path class="st0" d="M98.31,106.08c1.03,0,1.87,0.37,2.52,1.1c0.52,0.61,0.79,1.36,0.79,2.25c0,0.87-0.26,1.61-0.79,2.22
			c-0.64,0.75-1.5,1.12-2.56,1.12s-1.92-0.37-2.56-1.12c-0.52-0.6-0.79-1.34-0.79-2.22c0-0.9,0.26-1.65,0.79-2.25
			C96.37,106.45,97.24,106.08,98.31,106.08z M95.55,140.47v-23.45h5.37v23.45H95.55z"/>
		<path class="st0" d="M106.71,139.14l1.44-4.11c2.25,1.29,4.3,1.93,6.18,1.93c1.26,0,2.22-0.28,2.9-0.83
			c0.66-0.54,0.99-1.27,0.99-2.18c0-0.87-0.31-1.53-0.92-1.98c-0.48-0.34-1.74-0.88-3.77-1.59c-2.37-0.84-4-1.66-4.9-2.47
			c-1.18-1.06-1.77-2.51-1.77-4.33c0-2.26,0.85-4.04,2.54-5.32c1.53-1.17,3.57-1.75,6.13-1.75c2.49,0,5.02,0.56,7.61,1.68
			l-1.39,4.13c-2.02-1.21-4.03-1.82-6.02-1.82c-1.05,0-1.9,0.23-2.56,0.7c-0.67,0.46-1.01,1.12-1.01,1.98
			c0,0.87,0.43,1.54,1.28,2.02c0.48,0.27,1.71,0.77,3.68,1.5c2.41,0.9,4.08,1.84,5.01,2.83c0.94,0.99,1.42,2.29,1.42,3.91
			c0,2.2-0.79,4-2.38,5.39c-1.63,1.44-3.88,2.16-6.74,2.16C111.71,140.98,109.14,140.37,106.71,139.14z"/>
		<path class="st0" d="M130.66,121.1h-3.77v-4.09h3.77v-5.1l5.37-1.03v6.13h5.35v4.09h-5.35V132c0,1.59,0.16,2.69,0.47,3.3
			c0.46,0.91,1.36,1.37,2.67,1.37c0.64,0,1.49-0.19,2.54-0.58l0.47,4.11c-1.65,0.52-3.24,0.79-4.78,0.79
			c-2.65,0-4.51-0.81-5.59-2.43c-0.76-1.15-1.15-3.24-1.15-6.27V121.1z"/>
		<path class="st0" d="M149.28,106.08c1.03,0,1.87,0.37,2.52,1.1c0.52,0.61,0.79,1.36,0.79,2.25c0,0.87-0.26,1.61-0.79,2.22
			c-0.64,0.75-1.5,1.12-2.56,1.12s-1.92-0.37-2.56-1.12c-0.52-0.6-0.79-1.34-0.79-2.22c0-0.9,0.26-1.65,0.79-2.25
			C147.33,106.45,148.2,106.08,149.28,106.08z M146.52,140.47v-23.45h5.37v23.45H146.52z"/>
		<path class="st0" d="M175.18,135.01l1.73,3.95c-2.16,1.35-4.69,2.02-7.59,2.02c-3.68,0-6.56-1.11-8.62-3.32
			c-2.01-2.17-3.01-5.11-3.01-8.83c0-3.97,1.06-7.08,3.19-9.32c1.9-2.01,4.54-3.01,7.91-3.01c2.65,0,5.2,0.59,7.64,1.77l-1.62,4
			c-1.83-1.14-3.65-1.71-5.46-1.71c-2.07,0-3.6,0.76-4.6,2.27c-0.99,1.47-1.48,3.43-1.48,5.88c0,2.55,0.58,4.55,1.73,6.02
			c1.14,1.41,2.75,2.11,4.83,2.11C171.65,136.85,173.44,136.24,175.18,135.01z"/>
		<path class="st0" d="M179.82,139.14l1.44-4.11c2.25,1.29,4.3,1.93,6.18,1.93c1.26,0,2.22-0.28,2.9-0.83
			c0.66-0.54,0.99-1.27,0.99-2.18c0-0.87-0.31-1.53-0.92-1.98c-0.48-0.34-1.74-0.88-3.77-1.59c-2.37-0.84-4-1.66-4.9-2.47
			c-1.18-1.06-1.77-2.51-1.77-4.33c0-2.26,0.85-4.04,2.54-5.32c1.53-1.17,3.57-1.75,6.13-1.75c2.49,0,5.02,0.56,7.61,1.68
			l-1.39,4.13c-2.02-1.21-4.03-1.82-6.02-1.82c-1.05,0-1.9,0.23-2.56,0.7c-0.67,0.46-1.01,1.12-1.01,1.98
			c0,0.87,0.43,1.54,1.28,2.02c0.48,0.27,1.71,0.77,3.68,1.5c2.41,0.9,4.08,1.84,5.01,2.83c0.94,0.99,1.42,2.29,1.42,3.91
			c0,2.2-0.79,4-2.38,5.39c-1.63,1.44-3.88,2.16-6.74,2.16C184.82,140.98,182.25,140.37,179.82,139.14z"/>
	</g>
</g>
</svg>
