<?xml version="1.0" encoding="utf-8"?>
<!-- Generator: Adobe Illustrator 23.0.1, SVG Export Plug-In . SVG Version: 6.00 Build 0)  -->
<svg version="1.1" id="图层_1" xmlns="http://www.w3.org/2000/svg" xmlns:xlink="http://www.w3.org/1999/xlink" x="0px" y="0px"
	 viewBox="0 0 278.5 254.8" style="enable-background:new 0 0 278.5 254.8;" xml:space="preserve">
<style type="text/css">
	.st0{display:none;}
	.st1{display:inline;}
	.st2{fill:#FFFFFF;}
</style>
<g class="st0">
	<g class="st1">
		<path class="st2" d="M27.9,69.2h11.5c3.3,0,6,0.6,8.1,1.7c2.8,1.6,4.3,4.1,4.3,7.6c0,3.4-1.2,6-3.5,7.8c-2.2,1.7-4.9,2.6-8.3,2.6
			h-8.5v16.3h-3.6L27.9,69.2L27.9,69.2z M39.4,72.3h-7.9v13.4h8.1c2.2,0,4-0.6,5.6-1.7c1.8-1.3,2.6-3,2.6-5.2c0-2.4-1-4.2-3.1-5.3
			C43.3,72.7,41.5,72.3,39.4,72.3z"/>
		<path class="st2" d="M55.8,69.2h3.3V85c0.8-1.2,1.7-2.2,2.8-3.1c1.7-1.3,3.6-1.9,5.7-1.9c1.3,0,2.4,0.2,3.5,0.6
			c1,0.4,2,0.9,2.8,1.6c1.8,1.6,2.7,3.8,2.7,6.7v16.3h-3.4V89.4c0-1.8-0.6-3.3-1.7-4.5S69.1,83,67.4,83c-2.4,0-4.3,0.9-5.9,2.8
			c-1.6,1.9-2.4,4.1-2.4,6.6v12.7h-3.3C55.8,105.2,55.8,69.2,55.8,69.2z"/>
		<path class="st2" d="M91.3,105.8c-3.2,0-5.9-1.2-8.3-3.4c-2.6-2.4-3.8-5.6-3.8-9.4c0-3.7,1.1-6.7,3.4-9.2c2.3-2.5,5.1-3.7,8.5-3.7
			c3.3,0,6.2,1.2,8.5,3.7c2.3,2.4,3.4,5.5,3.4,9.1c0,3.8-1.2,6.9-3.7,9.4C97,104.6,94.3,105.8,91.3,105.8z M91,102.8
			c2.2,0,4.2-0.9,5.9-2.8c1.7-1.9,2.5-4.2,2.5-7.1c0-3-0.9-5.4-2.7-7.3c-1.6-1.7-3.5-2.6-5.7-2.6c-2.2,0-4.1,0.9-5.7,2.7
			c-1.7,2-2.6,4.4-2.6,7.2c0,2.9,0.8,5.3,2.5,7.2C86.9,101.9,88.8,102.8,91,102.8z"/>
		<path class="st2" d="M109.6,73.3h3v7.2h6.5v3h-6.5v15.6c0,1.3,0.2,2.2,0.7,2.8s1.3,0.8,2.5,0.8c0.7,0,1.2-0.1,1.7-0.2
			c0.5-0.2,1-0.3,1.6-0.6v3c-0.5,0.2-1.1,0.3-1.8,0.4c-0.7,0.1-1.4,0.2-2.1,0.2c-1.8,0-3.3-0.4-4.3-1.2c-1.1-0.9-1.7-2.2-1.7-4.1
			V83.5h-4.1v-3h4.1L109.6,73.3z"/>
		<path class="st2" d="M133.9,105.8c-3.2,0-5.9-1.2-8.3-3.4c-2.6-2.4-3.8-5.6-3.8-9.4c0-3.7,1.1-6.7,3.4-9.2
			c2.3-2.5,5.1-3.7,8.5-3.7c3.3,0,6.2,1.2,8.5,3.7c2.3,2.4,3.4,5.5,3.4,9.1c0,3.8-1.2,6.9-3.7,9.4
			C139.5,104.6,136.9,105.8,133.9,105.8z M133.6,102.8c2.2,0,4.2-0.9,5.9-2.8c1.7-1.9,2.5-4.2,2.5-7.1c0-3-0.9-5.4-2.7-7.3
			c-1.6-1.7-3.5-2.6-5.7-2.6c-2.2,0-4.1,0.9-5.7,2.7c-1.7,2-2.6,4.4-2.6,7.2c0,2.9,0.8,5.3,2.5,7.2
			C129.5,101.9,131.4,102.8,133.6,102.8z"/>
		<path class="st2" d="M46.3,154.4l0.9-2.8h2.4v22.3c0,3.8-0.9,6.8-2.8,8.7c-1.9,2-4.8,3-8.7,3c-1.6,0-3.1-0.3-4.5-0.9
			s-2.9-1.4-4.5-2.6V178c1,0.9,2,1.7,2.9,2.3c1,0.6,1.9,1.1,2.8,1.4c1.1,0.4,2.2,0.6,3.3,0.6c2.4,0,4.3-0.6,5.7-1.7
			c1.7-1.4,2.5-3.5,2.5-6.5v-3c-1.2,1.9-2.6,3.3-4.3,4.1c-1.2,0.6-2.5,0.8-3.9,0.8c-3,0-5.6-1.2-7.6-3.6c-2-2.5-3-5.4-3-8.6
			s1-6.1,2.9-8.6c2.2-2.9,5-4.3,8.5-4.3c1.7,0,3.3,0.4,4.9,1.2c0.5,0.3,0.9,0.6,1.4,0.9C45.4,153.6,45.9,153.9,46.3,154.4z
			 M46.3,164.3v-6.8c-0.5-0.6-1-1.1-1.6-1.5s-1.1-0.8-1.6-1.1c-0.6-0.3-1.2-0.6-1.9-0.7c-0.6-0.1-1.3-0.2-2-0.2
			c-2.3,0-4.2,0.8-5.7,2.4c-1.7,1.8-2.5,4.3-2.5,7.3c0,2.7,0.7,5,2.1,6.8c1.4,1.8,3.2,2.6,5.4,2.6c2.2,0,4-0.8,5.5-2.5
			C45.6,169,46.3,166.9,46.3,164.3z"/>
		<path class="st2" d="M73.1,160.3v11.6c0,0.5,0.1,1,0.3,1.4c0.2,0.4,0.7,0.6,1.3,0.6c0.2,0,0.3,0,0.5,0c0.1,0,0.2,0,0.4-0.1
			c0.2-0.1,0.3-0.1,0.5-0.2s0.2-0.1,0.3-0.1v2.6c-0.6,0.2-1.1,0.3-1.7,0.4c-0.6,0.1-1,0.1-1.3,0.1c-1.6,0-2.6-0.4-3.1-1.2
			c-0.4-0.5-0.6-1.6-0.6-3.4c-0.4,0.7-0.8,1.3-1.2,1.8c-0.4,0.5-0.8,0.9-1.2,1.3c-1.6,1.3-3.5,1.9-5.6,1.9c-2.2,0-4.2-0.7-5.8-2
			c-1.7-1.4-2.6-3.2-2.6-5.4c0-2.7,1.4-4.7,4.1-6c1-0.5,2.3-0.9,4-1.3c1.7-0.4,3.7-0.7,6-1l2.2-0.2c0-2.1-0.5-3.8-1.6-5
			c-1.1-1.2-2.7-1.8-4.8-1.8c-0.8,0-1.6,0.1-2.4,0.3s-1.6,0.5-2.4,0.9c-0.4,0.2-0.9,0.5-1.4,0.9c-0.5,0.3-1.1,0.8-1.7,1.3v-3.8
			c2.6-1.8,5.4-2.6,8.4-2.6c3.1,0,5.4,1,7.1,2.9C72.4,155.6,73.1,157.8,73.1,160.3z M69.7,165.1v-1.5l-1.6,0.2
			c-3.8,0.4-6.5,0.9-8.1,1.6c-2.1,0.8-3.1,2.2-3.1,4.1c0,0.6,0.1,1.1,0.4,1.6s0.6,1,1,1.4c0.4,0.4,1,0.7,1.6,1s1.3,0.4,2.1,0.4
			c2.1,0,3.9-0.8,5.5-2.5C69,169.5,69.7,167.5,69.7,165.1z"/>
		<path class="st2" d="M79.9,140.1h3.3v36.1h-3.3V140.1z"/>
		<path class="st2" d="M87.6,140.1h3.3v36.1h-3.3V140.1z"/>
		<path class="st2" d="M116.9,162.9H98.2c0,3.5,0.8,6.2,2.5,8.1s3.8,2.8,6.5,2.8c2,0,4-0.6,5.8-1.9c0.5-0.3,1.1-0.8,1.7-1.3
			s1.2-1.1,1.9-1.8v4c-0.7,0.6-1.4,1-2.1,1.4s-1.2,0.8-1.8,1c-1.9,1-3.9,1.5-5.8,1.5c-3.3,0-6.2-1.1-8.5-3.4
			c-2.5-2.4-3.8-5.6-3.8-9.4c0-3.6,1.1-6.7,3.4-9.1c2.3-2.5,5.1-3.7,8.5-3.7c3.3,0,5.9,1.2,7.8,3.6
			C116.1,156.8,116.9,159.6,116.9,162.9z M98.7,160.1h14.4c-0.4-2.1-1.2-3.6-2.4-4.7s-2.7-1.5-4.4-1.5c-1.9,0-3.5,0.6-4.8,1.8
			C100.2,156.8,99.3,158.3,98.7,160.1z"/>
		<path class="st2" d="M133.8,151.6v3.3c-0.3-0.1-0.6-0.2-0.8-0.3c-0.2-0.1-0.4-0.1-0.6-0.2s-0.3-0.1-0.5-0.1c-0.2,0-0.4,0-0.7,0
			c-2.2,0-4.1,1.1-5.5,3.3c-1.2,2-1.8,4.2-1.8,6.7v11.9h-3.3v-24.6h3l0.2,4.2c0.8-1.3,1.5-2.2,2.2-2.8c1.4-1.1,3-1.7,5-1.7
			c0.5,0,1,0,1.4,0.1C132.8,151.4,133.3,151.5,133.8,151.6z"/>
		<path class="st2" d="M136,151.6h3.7l8.5,20.8l7.2-20.8h3.6l-10.3,27.5c-0.7,2-1.7,3.4-2.9,4.2c-1,0.7-2.3,1.1-3.7,1.1
			c-0.7,0-1.4-0.1-1.8-0.2c-0.5-0.1-1-0.2-1.4-0.4v-3.2c0.4,0.2,0.9,0.4,1.4,0.6c0.5,0.1,1,0.2,1.4,0.2c1.1,0,1.9-0.3,2.5-0.8
			c0.6-0.6,1.1-1.4,1.6-2.6l0.6-1.9L136,151.6z"/>
	</g>
</g>
<g>
	<g id="图层_1-2">
		<path class="st2" d="M29.4,104.1V72.3H37c2.1-0.1,4.2,0.1,6.2,0.5c2.1,0.5,3.9,1.7,5.1,3.5c1,1.6,1.5,3.6,1.5,5.5
			c0.2,3-1.2,6-3.8,7.7c-1.8,1.2-4.7,1.8-8.6,1.8h-2.6v12.7H29.4z M34.8,87h1.8c1.8,0.1,3.6-0.1,5.3-0.8c1.5-0.7,2.2-2.2,2.2-4.3
			c0.1-1.7-0.6-3.4-2-4.3c-1-0.7-2.8-1-5.2-1h-2.1V87z"/>
		<path class="st2" d="M54.6,104.1V70.5h5.4v13.3c2-2.3,4.9-3.6,8-3.6c3.1,0,5.2,1.1,6.4,3.3c0.7,1.3,1,3.5,1,6.6v14.1H70V90.3
			c0.1-1.3-0.1-2.7-0.5-4c-0.5-1.3-1.9-2.2-3.4-2c-2.2,0-4.3,1.3-6.2,4v15.8H54.6z"/>
		<path class="st2" d="M92.6,80.2c3.3-0.2,6.4,1.2,8.6,3.7c1.9,2.4,2.9,5.5,2.8,8.6c0,3.9-1.1,6.9-3.2,9.1c-2.2,2.2-5.2,3.3-8.3,3.1
			c-3.7,0-6.7-1.2-8.7-3.7c-1.9-2.4-2.9-5.5-2.8-8.6c0-3.8,1.1-6.9,3.2-9.1C86.3,81.2,89.1,80.2,92.6,80.2z M92.5,84.2
			c-2.1,0-4,1.2-4.8,3.1c-0.7,1.6-1.1,3.3-1.1,5.1c-0.1,1.9,0.4,3.8,1.3,5.5c1.5,2.6,4.8,3.4,7.4,1.9c0.9-0.5,1.6-1.3,2.1-2.3
			c0.7-1.6,1.1-3.3,1-5.1c0.1-1.9-0.4-3.8-1.2-5.5C96.2,85.2,94.4,84.2,92.5,84.2z"/>
		<path class="st2" d="M111.1,84.8h-3.8v-4.1h3.8v-5.1l5.4-1.1v6.1h5.3v4.1h-5.3v10.9c-0.1,1.1,0.1,2.2,0.5,3.3
			c0.5,1,1.6,1.5,2.7,1.4c0.9-0.1,1.7-0.3,2.5-0.6l0.5,4.1c-1.5,0.5-3.2,0.8-4.8,0.8c-2.7,0-4.5-0.8-5.6-2.4
			c-0.8-1.2-1.2-3.2-1.2-6.3L111.1,84.8z"/>
		<path class="st2" d="M136.9,80.2c3.3-0.2,6.4,1.2,8.6,3.7c1.9,2.4,2.9,5.5,2.8,8.6c0,3.9-1.1,6.9-3.2,9.1
			c-2.2,2.1-5.2,3.3-8.2,3.1c-3.8,0-6.7-1.2-8.7-3.7c-1.9-2.4-2.9-5.5-2.8-8.6c0-3.8,1.1-6.9,3.3-9.1
			C130.5,81.2,133.3,80.2,136.9,80.2z M136.7,84.2c-2.1-0.1-4,1.2-4.8,3.1c-0.7,1.6-1.1,3.3-1,5.1c-0.1,1.9,0.4,3.8,1.2,5.5
			c1.5,2.6,4.8,3.4,7.4,1.9c0.9-0.5,1.7-1.4,2.1-2.3c0.7-1.6,1.1-3.3,1-5.1c0.1-1.9-0.4-3.8-1.3-5.5
			C140.5,85.2,138.6,84.2,136.7,84.2z"/>
		<path class="st2" d="M44.3,151.6h5.2l-0.1,1.6c-0.1,3.2-0.2,5.7-0.2,7.6v11.6c0.1,2.1-0.1,4.1-0.5,6.2c-0.5,2.5-2.2,4.5-4.5,5.6
			c-2.1,0.9-4.4,1.3-6.7,1.3c-3.2,0-6.3-0.7-9.1-2.1l1.7-4c2.1,1.3,4.5,2,7,2c2.9,0,4.8-1,5.8-3c0.7-1.8,1-3.7,0.8-5.7v-1.7
			c-1.7,2.1-4.3,3.4-7,3.4c-2.7,0.1-5.2-1.1-6.9-3.2c-1.7-2-2.5-4.8-2.5-8.3c-0.1-3.1,0.8-6.1,2.6-8.6c1.6-2.1,4.2-3.3,6.8-3.2
			c2.9-0.1,5.6,1.3,7.2,3.8L44.3,151.6z M43.8,159.6c-0.4-0.9-1-1.8-1.7-2.5c-1-1.1-2.5-1.8-4-1.8c-1.7,0-3.2,0.9-4,2.4
			c-0.8,1.6-1.2,3.4-1.2,5.3c-0.1,1.8,0.4,3.6,1.2,5.1c0.8,1.5,2.3,2.4,4,2.3c1.5-0.1,3-0.7,4-1.9c0.6-0.6,1.1-1.3,1.5-2.1V159.6z"
			/>
		<path class="st2" d="M69.6,172.5c-0.7,0.8-1.5,1.4-2.3,2c-1.5,0.8-3.2,1.2-4.9,1.1c-2,0.1-4.1-0.6-5.6-1.9c-1.4-1.4-2.1-3.2-2-5.2
			c-0.1-2.7,1.3-5.2,3.6-6.5c1.5-0.9,3.9-1.3,7.1-1.3c0.9,0,2.2,0,3.9,0.1v-0.4c0-3.6-1.7-5.3-5.2-5.3c-2.2,0.1-4.4,0.8-6.3,2
			l-1.4-3.9c2.6-1.4,5.5-2.1,8.5-2.1c3.8,0,6.5,1,8.1,3c0.9,1.3,1.4,2.7,1.5,4.3c0.1,1.2,0.2,2.4,0.1,3.6v7c0,2.5,0.1,4.5,0.2,6
			h-5.1L69.6,172.5z M69.4,164.3c-0.9-0.1-1.7-0.1-2.4-0.1c-4.3,0-6.5,1.4-6.5,4.3c-0.1,1.9,1.4,3.5,3.2,3.6c0.1,0,0.3,0,0.4,0
			c2.1,0,3.8-1.1,5.3-3.3L69.4,164.3z"/>
		<path class="st2" d="M82.4,175.1v-33.6h5.4v33.6L82.4,175.1z"/>
		<path class="st2" d="M95.3,175.1v-33.6h5.4v33.6L95.3,175.1z"/>
		<path class="st2" d="M112.2,165.1c0.4,4.3,2.7,6.5,6.8,6.5c2.5-0.1,4.9-0.8,7-2.3l1.9,4c-2.7,1.6-5.8,2.4-9,2.3
			c-4.1,0-7.3-1.2-9.4-3.5c-2-2.1-2.9-5-2.9-8.7c0-3.9,1.1-7,3.3-9.3c2.1-2.1,5-3.2,8-3c5,0,8.2,1.9,9.7,5.8
			c0.8,2.6,1.2,5.4,1.1,8.2L112.2,165.1z M123.1,161.3c0-1.2-0.3-2.5-0.8-3.6c-0.8-1.7-2.6-2.7-4.5-2.6c-1.9-0.1-3.7,0.9-4.6,2.6
			c-0.6,1.1-1,2.3-1,3.6H123.1z"/>
		<path class="st2" d="M134.5,175.1v-14.6c0-3-0.1-5.9-0.2-8.8h5l0.2,4.4c1.4-3.2,3.5-4.8,6.2-4.8c0.7,0,1.3,0.1,2,0.3l-0.3,4.8
			c-0.6-0.1-1.2-0.2-1.8-0.2c-1.7,0-3.3,0.9-4.3,2.3c-0.7,0.9-1.2,2-1.5,3.1v13.6L134.5,175.1z"/>
		<path class="st2" d="M157.9,174.8l-9.4-23.1h5.7l4.7,11.9c0.7,1.7,1.3,3.5,2,5.4c0.7-2.1,1.3-4,2-5.6l4.4-11.6h5.2l-9.5,24
			c-0.9,2.6-2.2,5.1-3.8,7.4c-1.5,1.7-3.7,2.6-6,2.5c-1.6,0-3.2-0.3-4.7-0.8l0.9-4.2c0.9,0.4,1.9,0.6,2.9,0.6c1.7,0,3.3-1.1,4-2.7
			C156.9,177.3,157.5,176.1,157.9,174.8z"/>
	</g>
</g>
</svg>
