<svg xmlns="http://www.w3.org/2000/svg" viewBox="0 0 278.47 254.8"><defs><style>.cls-1{fill:#8300de;opacity:0;}.cls-2{fill:#fff;}</style></defs><title>会议信息</title><g id="图层_2" data-name="图层 2"><g id="图层_1-2" data-name="图层 1"><rect class="cls-1" width="278.47" height="254.8"/><path class="cls-2" d="M36.29,86.75q-2,1.55-6.49,4.47l-3-4.14A47.5,47.5,0,0,0,38.9,78.93a44.18,44.18,0,0,0,7.25-9.12L51,71.74a9.58,9.58,0,0,1-.66.92c-.06.08-.12.18-.2.3a29.37,29.37,0,0,0,8.29,8.33,31.05,31.05,0,0,0,10,4l-2,5a46.78,46.78,0,0,1-8.63-3.82v3.82H36.29Zm-7,7.61H65.72v4.27H46.29l1.8,1.12c-1,.86-2.52,2.3-4.72,4.34l-2.92,2.49c-.36.3-1,.82-1.8,1.55l1-.07,1,0,5.37-.36,6.4-.41,1-.09,1.57-.13c-.34-.33-.6-.58-.76-.76q-.94-1-3.12-3l3.57-2.74q5.16,4.83,10.08,10.22l.66.72-4.27,3a39.73,39.73,0,0,0-3-3.64l-4.38.29-8,.52q-6.91.48-10.26.94a25.8,25.8,0,0,0-2.94.66l-1.46-5.3a8.71,8.71,0,0,0,2.51-1.2,42.92,42.92,0,0,0,8.49-8.08H29.33Zm27.79-8.24a39.48,39.48,0,0,1-9.91-9.82l-.63.74a58.29,58.29,0,0,1-4,4.29,55.71,55.71,0,0,1-5.43,4.79Z"/><path class="cls-2" d="M71.58,83.87H82.11V103q1.13-1.08,5.35-6L90,101.62l-1.07,1.1a135.6,135.6,0,0,0-9.46,10.15l-3.15-4.45a11.12,11.12,0,0,0,.88-1.19,6,6,0,0,0,.67-2.87V88.18H71.58Zm4-10.91,3.69-2.54a73,73,0,0,1,5.86,7.93l-4.25,2.83-.74-1.58A28.63,28.63,0,0,0,75.53,73Zm24.19,32.09-.8.77q-3.56,3.44-11.86,8.17l-3.13-4.15a74.53,74.53,0,0,0,7.62-4.07,35.28,35.28,0,0,0,5.14-4.15,41.26,41.26,0,0,1-3.28-5A54.6,54.6,0,0,1,89.12,85q-.69-2.67-1.64-7.41l-.15-.88,4.31-.9a94.33,94.33,0,0,0,3,12A35.73,35.73,0,0,0,99.72,98l.81-1.19A31.18,31.18,0,0,0,104,89.55a81.37,81.37,0,0,0,3.46-14.3l4.81.6a106.44,106.44,0,0,1-2.81,11.66,47.4,47.4,0,0,1-6.67,14.11,28.88,28.88,0,0,0,5.93,4.44,39,39,0,0,0,4.94,2.45c.7.29,1.32.55,1.86.79l-3,4.69-.72-.33A41.25,41.25,0,0,1,99.72,105.05Zm-4.8-33.31,4.4-1.57c.16.42.43,1.06.79,1.93a55.06,55.06,0,0,1,2.74,8.74L98.22,82.3A44.58,44.58,0,0,0,94.92,71.74Z"/><path class="cls-2" d="M37.06,151.84V185H32.63V160.64a67,67,0,0,1-4,5.73l-3.46-3.12a47,47,0,0,0,6-9.82,74.67,74.67,0,0,0,4.15-12.08l5,1.24Q38.84,147.26,37.06,151.84Zm14.6-3.32a27,27,0,0,0-2-5.75l4.61-1.28a36.23,36.23,0,0,1,2.11,6.6l-1.46.43H68.62v4.06H39.21v-4.06Zm-9.75,6.6H65.72V159H41.91Zm0,6.2H65.72v4H41.91ZM42,184.5V168.12H65.81V184.5H61.2v-2.74H46.42v2.74Zm4.42-6.63H61.2V172H46.42Z"/><path class="cls-2" d="M71.89,181.31a31.67,31.67,0,0,0,2.57-5.17q.69-1.86,1.61-5.32l4.45,1.5c-.15.48-.4,1.35-.76,2.61a40.2,40.2,0,0,1-3.69,8.4Zm21.81-12.4h-15V146h7.91q.87-2.45,1.44-4.76l4.67,1.15c-.47,1.34-.92,2.55-1.35,3.61h17v22.89H94.2a29,29,0,0,1,2.4,4c.23.51.55,1.33,1,2.45l-4.31,2.18A24.68,24.68,0,0,0,90,171Zm-7.09,1.66v7.57q0,1.17,1.32,1.17H99.05a2.08,2.08,0,0,0,1.62-.54c.6-.72,1-2.25,1.34-4.6l4.74,2.38a25.34,25.34,0,0,1-1.21,3.39,5.76,5.76,0,0,1-2.51,3,6.72,6.72,0,0,1-3.06.6h-13c-3.2,0-4.81-1.52-4.81-4.58v-8.4Zm-3.39-18.06H103.7v-2.69H83.22Zm0,6.29H103.7V156H83.22Zm0,6.36H103.7v-2.88H83.22Zm22.16,8,3.6-2.59a67.79,67.79,0,0,1,6.47,9.37l-3.8,2.47-.61-1.08A55.67,55.67,0,0,0,105.38,173.16Z"/></g></g></svg>