<?xml version="1.0" encoding="utf-8"?>
<!-- Generator: Adobe Illustrator 23.0.1, SVG Export Plug-In . SVG Version: 6.00 Build 0)  -->
<svg version="1.1" id="图层_1" xmlns="http://www.w3.org/2000/svg" xmlns:xlink="http://www.w3.org/1999/xlink" x="0px" y="0px"
	 viewBox="0 0 278.5 254.8" style="enable-background:new 0 0 278.5 254.8;" xml:space="preserve">
<style type="text/css">
	.st0{display:none;}
	.st1{display:inline;}
	.st2{fill:#FFFFFF;}
</style>
<g class="st0">
	<g class="st1">
		<path class="st2" d="M39,107.6h22.5v3.2H42.6v13.4h18v2.9h-18v16.6H39V107.6z"/>
		<path class="st2" d="M87,130.3H68.3c0,3.5,0.8,6.2,2.5,8.1c1.6,1.9,3.8,2.8,6.5,2.8c2,0,4-0.6,5.8-1.9c0.5-0.3,1.1-0.8,1.7-1.3
			s1.2-1.1,1.9-1.8v4c-0.7,0.6-1.4,1-2.1,1.4s-1.2,0.8-1.8,1c-1.9,1-3.9,1.5-5.8,1.5c-3.3,0-6.2-1.2-8.5-3.4
			c-2.5-2.4-3.8-5.6-3.8-9.4c0-3.6,1.1-6.7,3.4-9.1c2.3-2.5,5.1-3.7,8.5-3.7c3.3,0,5.9,1.2,7.8,3.6C86.2,124.2,87,127,87,130.3z
			 M68.8,127.5h14.4c-0.4-2.1-1.2-3.6-2.4-4.7c-1.2-1-2.7-1.5-4.4-1.5c-1.9,0-3.5,0.6-4.8,1.8C70.3,124.2,69.4,125.7,68.8,127.5z"/>
		<path class="st2" d="M112.3,130.3H93.6c0,3.5,0.8,6.2,2.5,8.1c1.6,1.9,3.8,2.8,6.5,2.8c2,0,4-0.6,5.8-1.9c0.5-0.3,1.1-0.8,1.7-1.3
			s1.2-1.1,1.9-1.8v4c-0.7,0.6-1.4,1-2.1,1.4s-1.2,0.8-1.8,1c-1.9,1-3.9,1.5-5.8,1.5c-3.3,0-6.2-1.2-8.5-3.4
			c-2.5-2.4-3.8-5.6-3.8-9.4c0-3.6,1.1-6.7,3.4-9.1c2.3-2.5,5.1-3.7,8.5-3.7c3.3,0,5.9,1.2,7.8,3.6
			C111.4,124.2,112.3,127,112.3,130.3z M94,127.5h14.4c-0.4-2.1-1.2-3.6-2.4-4.7c-1.2-1-2.7-1.5-4.4-1.5c-1.9,0-3.5,0.6-4.8,1.8
			C95.6,124.2,94.7,125.7,94,127.5z"/>
		<path class="st2" d="M133.1,107.6h3.5v36.1h-3.2l-0.3-4c-0.4,0.6-0.9,1.2-1.3,1.6c-0.4,0.5-0.9,0.9-1.3,1.2
			c-1.5,1.2-3.3,1.8-5.3,1.8c-3.2,0-5.8-1.2-7.9-3.7c-2.1-2.4-3.1-5.4-3.1-8.9c0-3.6,1.1-6.7,3.3-9.2c2.2-2.6,5-3.9,8.3-3.9
			c1.4,0,2.7,0.2,3.9,0.7c0.4,0.2,0.9,0.4,1.5,0.7c0.6,0.3,1.2,0.7,1.9,1.1C133.1,121.1,133.1,107.6,133.1,107.6z M133.1,131.7v-7.1
			c-1.4-1.3-2.7-2.1-3.8-2.5s-2.1-0.6-3.1-0.6c-2.5,0-4.6,1.1-6.1,3.2c-1.5,2-2.2,4.3-2.2,6.9c0,2.8,0.8,5.2,2.4,7
			c1.5,1.7,3.3,2.6,5.3,2.6s3.8-0.9,5.2-2.7C132.4,136.8,133.1,134.5,133.1,131.7z"/>
		<path class="st2" d="M140.8,107.6h3.4v15.6c0.4-0.6,0.9-1.2,1.3-1.7s0.8-0.9,1.3-1.2c1.6-1.2,3.4-1.8,5.6-1.8
			c3.2,0,5.8,1.2,7.9,3.6c2.1,2.4,3.2,5.4,3.2,8.9c0,3.6-1.1,6.6-3.2,9.2c-2.3,2.7-5.1,4.1-8.5,4.1c-1.9,0-3.5-0.4-4.9-1.2
			c-0.9-0.5-1.8-1.2-2.6-2.1l-0.9,2.8h-2.5L140.8,107.6L140.8,107.6z M144.1,130.3v7.1c0.4,0.5,0.9,1,1.3,1.4s0.8,0.7,1.2,1
			c1.4,0.9,2.9,1.4,4.6,1.4c2.4,0,4.3-1,5.8-2.9c1.5-2,2.3-4.4,2.3-7.2c0-2.9-0.9-5.3-2.6-7.2c-1.5-1.6-3.2-2.4-5.1-2.4
			c-2.1,0-3.9,0.9-5.4,2.7C144.8,125.8,144.1,127.9,144.1,130.3z"/>
		<path class="st2" d="M185.7,127.7v11.6c0,0.5,0.1,1,0.3,1.4s0.6,0.6,1.3,0.6c0.2,0,0.3,0,0.5,0c0.1,0,0.2,0,0.4-0.1
			s0.4-0.1,0.5-0.2c0.1-0.1,0.2-0.1,0.3-0.1v2.6c-0.6,0.2-1.1,0.3-1.7,0.4c-0.6,0.1-1,0.1-1.3,0.1c-1.6,0-2.6-0.4-3.1-1.2
			c-0.4-0.5-0.6-1.6-0.6-3.4c-0.4,0.7-0.8,1.3-1.2,1.8s-0.8,0.9-1.2,1.3c-1.6,1.3-3.4,1.9-5.6,1.9c-2.2,0-4.2-0.7-5.8-2
			c-1.7-1.4-2.6-3.2-2.6-5.4c0-2.7,1.4-4.7,4.1-6c1-0.5,2.4-0.9,4-1.3c1.7-0.4,3.7-0.7,6-1l2.2-0.2c0-2.2-0.5-3.8-1.6-5
			s-2.7-1.8-4.8-1.8c-0.8,0-1.6,0.1-2.4,0.3c-0.8,0.2-1.6,0.5-2.4,0.9c-0.4,0.2-0.9,0.5-1.4,0.9c-0.5,0.3-1.1,0.8-1.7,1.3v-3.8
			c2.6-1.8,5.4-2.6,8.4-2.6c3.1,0,5.4,1,7.1,2.9C185,123.1,185.7,125.2,185.7,127.7z M182.4,132.5V131l-1.6,0.2
			c-3.8,0.4-6.5,0.9-8.1,1.6c-2.1,0.8-3.1,2.2-3.1,4.1c0,0.6,0.1,1.1,0.4,1.6s0.6,1,1,1.4s1,0.7,1.6,1c0.6,0.2,1.3,0.4,2.1,0.4
			c2.1,0,3.9-0.8,5.5-2.5C181.6,137,182.4,134.9,182.4,132.5z"/>
		<path class="st2" d="M212.7,121.2v4.3c-1.7-1.6-3.5-2.8-5.3-3.5c-0.5-0.2-1.1-0.4-1.6-0.4s-1.1-0.1-1.7-0.1
			c-2.6,0-4.6,0.9-6.3,2.8c-1.6,2-2.4,4.3-2.4,7c0,2.8,0.8,5.1,2.5,7.1c1.7,1.9,3.8,2.8,6.4,2.8c1.6,0,3.1-0.3,4.4-1
			c1.3-0.7,2.6-1.7,4-3.1v4.4c-1.6,1-3.1,1.7-4.4,2.2c-1.3,0.4-2.6,0.6-4,0.6c-3.4,0-6.4-1.2-8.8-3.7c-2.4-2.5-3.6-5.6-3.6-9.2
			c0-3.5,1.2-6.6,3.5-9.1c2.4-2.5,5.4-3.8,8.9-3.8c1.8,0,3.5,0.3,5.1,0.9C210.3,119.7,211.4,120.3,212.7,121.2z"/>
		<path class="st2" d="M216.5,107.6h3.4v22.3l11.3-10.9h4.7l-10.4,9.6l11.8,15h-4.6l-9.8-12.8l-3.2,2.9v9.9h-3.4L216.5,107.6
			L216.5,107.6z"/>
	</g>
</g>
<g>
	<g id="图层_1-2_1_">
		<path class="st2" d="M41.7,104.8V73h18.6v4.5h-13v8.9h12.4v4.5H47.2v9.4h13.7v4.5H41.7z"/>
		<path class="st2" d="M72.9,104.8L64,81.4h5.6l4.8,13c0.7,1.8,1.3,3.5,1.8,5.1c0.5-1.6,1-3.3,1.7-5.2l4.7-13h5.1L79,104.8H72.9z"/>
		<path class="st2" d="M96,94.8c0.4,4.3,2.7,6.5,6.8,6.5c2.5-0.1,4.9-0.8,7-2.3l1.9,4c-2.7,1.6-5.8,2.4-9,2.3
			c-4.1,0-7.3-1.2-9.4-3.5c-1.9-2.1-2.9-5-2.9-8.7c0-3.9,1.1-7,3.3-9.3c2.1-2.1,5-3.2,7.9-3c5,0,8.2,1.9,9.7,5.8
			c0.9,2.6,1.2,5.4,1.2,8.2L96,94.8z M106.8,91c0-1.2-0.3-2.5-0.8-3.6c-0.8-1.7-2.6-2.7-4.5-2.6c-1.9-0.1-3.6,0.9-4.5,2.6
			c-0.6,1.1-1,2.3-1,3.6H106.8z"/>
		<path class="st2" d="M118.2,104.8V89.6c0-2.3,0-4.6-0.1-6.7l0-1.5h5l0.2,3.5c0.7-0.8,1.6-1.5,2.4-2.2c1.7-1.2,3.8-1.8,5.9-1.8
			c3.1,0,5.2,1.1,6.4,3.3c0.7,1.3,1,3.5,1,6.6v14.1h-5.3V91c0.1-1.3-0.1-2.7-0.5-4c-0.5-1.3-1.9-2.2-3.4-2c-2.2,0-4.2,1.3-6.2,4
			v15.8H118.2z"/>
		<path class="st2" d="M147.6,85.5h-3.8v-4.1h3.8v-5.1l5.4-1v6.1h5.3v4.1H153v10.9c-0.1,1.1,0.1,2.2,0.5,3.3
			c0.5,0.9,1.6,1.5,2.6,1.3c0.9,0,1.7-0.2,2.5-0.6l0.5,4.1c-1.5,0.5-3.2,0.8-4.8,0.8c-2.6,0-4.5-0.8-5.6-2.4
			c-0.8-1.2-1.1-3.2-1.1-6.3V85.5z"/>
		<path class="st2" d="M42.8,175.8v-19.4H39v-4.1h3.8v-1.6c0-2.8,0.4-4.9,1.3-6.3c1.2-1.9,3.2-2.9,6.1-2.9c1.5,0,2.9,0.2,4.3,0.6
			l-0.4,4.3c-0.9-0.4-1.8-0.6-2.8-0.7c-1.3-0.1-2.4,0.8-2.8,2c-0.3,1.1-0.4,2.2-0.4,3.4v1.1h5.4v4.1h-5.4v19.4L42.8,175.8z"/>
		<path class="st2" d="M62.4,165.8c0.4,4.3,2.7,6.5,6.8,6.5c2.5-0.1,4.9-0.8,7-2.3l1.9,4c-2.7,1.6-5.8,2.4-9,2.3
			c-4.1,0-7.3-1.2-9.4-3.5c-1.9-2.1-2.9-5-2.9-8.7c0-3.9,1.1-7,3.3-9.3c2.1-2.1,5-3.2,8-3c5,0,8.2,1.9,9.7,5.8
			c0.8,2.6,1.2,5.4,1.1,8.2L62.4,165.8z M73.3,162c0-1.2-0.3-2.5-0.8-3.6c-0.8-1.7-2.6-2.7-4.5-2.6c-1.9-0.1-3.7,0.9-4.6,2.6
			c-0.6,1.1-1,2.3-1,3.6L73.3,162z"/>
		<path class="st2" d="M88.5,165.8c0.4,4.3,2.7,6.5,6.8,6.5c2.5-0.1,4.9-0.8,7-2.3l1.9,4c-2.7,1.6-5.8,2.4-9,2.3
			c-4.1,0-7.3-1.2-9.4-3.5c-1.9-2.1-2.9-5-2.9-8.7c0-3.9,1.1-7,3.3-9.3c2.1-2.1,5-3.2,7.9-3c5,0,8.2,1.9,9.7,5.8
			c0.8,2.6,1.2,5.4,1.2,8.2L88.5,165.8z M99.3,162c0-1.2-0.3-2.5-0.8-3.6c-0.8-1.7-2.6-2.7-4.5-2.6c-1.9-0.1-3.7,0.9-4.6,2.6
			c-0.6,1.1-1,2.3-1,3.6H99.3z"/>
		<path class="st2" d="M125.2,142.2h5.4v25.4c0,3.5,0.1,6.2,0.2,8.3h-5.1l-0.2-3.3c-0.6,0.9-1.4,1.7-2.2,2.4c-1.4,1-3.1,1.5-4.9,1.5
			c-2.8,0.1-5.5-1.3-7.1-3.6c-1.7-2.6-2.5-5.6-2.3-8.6c0-3.8,0.9-6.9,2.8-9.2c1.6-2,4.1-3.2,6.7-3.1c2.7,0,5.3,1.3,6.8,3.5V142.2z
			 M125.2,159.9c-1.5-2.6-3.3-3.9-5.4-3.9c-1.6,0-3.1,0.8-3.9,2.2c-1,1.8-1.5,3.7-1.4,5.8c-0.1,2,0.4,4,1.2,5.7
			c0.7,1.5,2.2,2.5,3.9,2.5c2.1,0,3.9-1.3,5.6-4V159.9z"/>
		<path class="st2" d="M142.9,175.8h-5.1c0.1-2.4,0.2-5.2,0.2-8.3v-25.4h5.4v13.1c1.6-2.2,4.1-3.5,6.8-3.5c2.8-0.1,5.4,1.3,7,3.6
			c1.7,2.5,2.5,5.6,2.4,8.6c0,3.8-0.9,6.9-2.8,9.2c-1.6,2-4.1,3.2-6.7,3.1c-1.8,0-3.5-0.5-4.9-1.5c-0.8-0.7-1.6-1.5-2.2-2.4
			L142.9,175.8z M143.3,168.2c1.6,2.7,3.5,4,5.6,4c1.7,0,3.2-1,3.9-2.5c0.9-1.8,1.3-3.7,1.3-5.7c0.1-2-0.4-4-1.4-5.8
			c-0.8-1.4-2.3-2.3-3.9-2.2c-2.1,0-3.9,1.3-5.4,3.9L143.3,168.2z"/>
		<path class="st2" d="M178.3,173.1c-0.7,0.8-1.5,1.4-2.3,2c-1.5,0.8-3.2,1.3-4.9,1.2c-2.1,0.1-4.1-0.6-5.6-1.9
			c-1.4-1.4-2.1-3.2-2-5.2c-0.2-2.7,1.2-5.2,3.6-6.5c1.5-0.9,3.9-1.3,7.1-1.3c1,0,2.2,0,3.9,0.1v-0.4c0-3.6-1.7-5.3-5.2-5.3
			c-2.3,0.1-4.4,0.8-6.3,2l-1.4-3.9c2.6-1.4,5.5-2.1,8.5-2.1c3.8,0,6.5,1,8.1,3.1c0.9,1.3,1.5,2.7,1.6,4.3c0.1,1.2,0.1,2.4,0.1,3.6
			v7c0,2.5,0.1,4.5,0.2,6h-5.1L178.3,173.1z M178,165c-0.9-0.1-1.7-0.1-2.4-0.1c-4.3,0-6.5,1.4-6.5,4.3c-0.1,1.9,1.3,3.5,3.2,3.6
			c0.1,0,0.3,0,0.4,0c2.1,0,3.8-1.1,5.3-3.3L178,165z"/>
		<path class="st2" d="M206.7,170.4l1.7,4c-2.3,1.4-4.9,2.1-7.6,2c-3.7,0-6.6-1.1-8.6-3.3s-3-5.1-3-8.8c0-4,1.1-7.1,3.2-9.3
			c2.1-2.1,5-3.2,7.9-3c2.7,0,5.3,0.6,7.7,1.8l-1.6,4c-1.6-1.1-3.5-1.7-5.4-1.7c-1.8-0.1-3.6,0.7-4.6,2.3c-1.1,1.8-1.6,3.8-1.5,5.9
			c-0.1,2.1,0.5,4.3,1.7,6c1.2,1.4,3,2.2,4.8,2.1C203.3,172.2,205.2,171.5,206.7,170.4z"/>
		<path class="st2" d="M213.1,175.8v-33.6h5.4v20.1l8.3-9.9h6.2l-9,10.3l9.9,13.2h-6.5l-8.9-12v12H213.1z"/>
	</g>
</g>
</svg>
