<svg xmlns="http://www.w3.org/2000/svg" viewBox="0 0 278.47 254.8"><defs><style>.cls-1{fill:none;}.cls-2{fill:#fff;}</style></defs><title>资源 7</title><g id="图层_2" data-name="图层 2"><g id="图层_1-2" data-name="图层 1"><rect class="cls-1" width="278.47" height="254.8"/><path class="cls-2" d="M29.25,86.8c-1.34,1-3.5,2.53-6.5,4.47l-3-4.13A47.76,47.76,0,0,0,31.85,79a44.21,44.21,0,0,0,7.26-9.12L44,71.8a10.18,10.18,0,0,1-.65.92L43.1,73a29.4,29.4,0,0,0,8.29,8.34,31.28,31.28,0,0,0,10,4l-2,5a47.47,47.47,0,0,1-8.63-3.82v3.82H29.25Zm-7,7.62H58.67v4.26H39.24L41,99.81c-.95.85-2.52,2.3-4.72,4.33l-2.92,2.5c-.36.3-1,.81-1.8,1.55l1-.07,1-.05,5.37-.36,6.4-.4,1-.09,1.58-.13c-.35-.33-.6-.59-.77-.77q-.95-1-3.12-3l3.57-2.74q5.16,4.83,10.09,10.22l.65.72-4.27,3a39.73,39.73,0,0,0-3-3.64l-4.38.29-8,.52c-4.61.31-8,.63-10.26.94a28.34,28.34,0,0,0-2.94.65L24.15,108a8.45,8.45,0,0,0,2.51-1.19,43,43,0,0,0,8.49-8.09H22.28Zm27.79-8.25a39.61,39.61,0,0,1-9.91-9.81l-.63.74a58.29,58.29,0,0,1-4,4.29,55.6,55.6,0,0,1-5.43,4.78Z"/><path class="cls-2" d="M64.53,83.93H75.07v19.13c.74-.71,2.53-2.7,5.34-6l2.49,4.56c-.35.38-.71.74-1.07,1.1a137.32,137.32,0,0,0-9.46,10.16l-3.14-4.45a13.48,13.48,0,0,0,.87-1.19,6,6,0,0,0,.68-2.88V88.24H64.53Zm4-10.92,3.69-2.54A74,74,0,0,1,78,78.4l-4.24,2.83L73,79.66A28.06,28.06,0,0,0,68.48,73Zm24.2,32.1-.81.76q-3.56,3.43-11.86,8.18l-3.12-4.16a73.56,73.56,0,0,0,7.61-4.06,35.42,35.42,0,0,0,5.14-4.16,41.7,41.7,0,0,1-3.28-5A54.5,54.5,0,0,1,82.07,85.1q-.69-2.68-1.64-7.42l-.15-.87,4.31-.9a96,96,0,0,0,3,12,35.62,35.62,0,0,0,5.13,10.13c.43-.65.7-1,.8-1.19a31.18,31.18,0,0,0,3.46-7.28A81.27,81.27,0,0,0,100.4,75.3l4.81.61a107,107,0,0,1-2.81,11.66,47.21,47.21,0,0,1-6.67,14.1,28.91,28.91,0,0,0,5.93,4.45,40.33,40.33,0,0,0,4.94,2.45c.7.28,1.33.54,1.87.78l-3,4.7-.72-.34A41.18,41.18,0,0,1,92.68,105.11ZM87.87,71.8l4.4-1.57.79,1.93A54.74,54.74,0,0,1,95.8,80.9l-4.63,1.46A43.41,43.41,0,0,0,87.87,71.8Z"/><path class="cls-2" d="M19.56,157.56,22.1,154q2.83,1.48,4.29,2.36a33.25,33.25,0,0,1,4.23,3.12l-2.74,3.71A32.36,32.36,0,0,0,19.56,157.56Zm1.15,23.56a58.27,58.27,0,0,0,3.68-7.86,57.69,57.69,0,0,0,2.18-8.2l4.36,2.29-.22.83A83.84,83.84,0,0,1,25,183.66ZM22.1,147l2.59-3.61A41.5,41.5,0,0,1,29,146,44.17,44.17,0,0,1,33,149.18l-3,3.73-1.42-1.35a24,24,0,0,0-5-3.71Zm9.44,36.1v-4.2H43.82V167.35H34.19v-4h9.63v-8.78H33.22v-4.23H59.79v4.23H48.45v8.78h10.2v4H48.45v11.59H61v4.2Zm10.67-39.46,4-1.91a43.57,43.57,0,0,1,3.42,6.64l-4.29,1.64A33.83,33.83,0,0,0,42.21,143.68Z"/><path class="cls-2" d="M65.56,182.22a37,37,0,0,0,3-5.33,26.64,26.64,0,0,0,2.07-8.51c.12-1.33.21-2.63.27-3.91H66v-4h4.87V144.15H84.18v16.28h4.59V144.15h13.72v16.28h4.67v4h-4.67v15.79a3.28,3.28,0,0,1-2.69,3.37,45.79,45.79,0,0,1-5,.86l-1.19-5.1H97.1c.79,0,1.19-.49,1.19-1.46V164.47H92.94a66.07,66.07,0,0,1-.8,10.09,34.65,34.65,0,0,1-2.21,7.7c-.1.26-.33.78-.69,1.58-.09.2-.25.57-.47,1.1l-4.14-1.85a35.34,35.34,0,0,0,3.49-10.28,53.71,53.71,0,0,0,.65-8.34H84.18v15.17a3.59,3.59,0,0,1-1.25,3.05q-1.35,1-6.45,1.5l-1.14-5.05h3.5a1.42,1.42,0,0,0,1-.27,1.3,1.3,0,0,0,.26-.94V164.47h-5c0,.44,0,.88-.07,1.33a48.54,48.54,0,0,1-.9,8,36.06,36.06,0,0,1-4.49,10.69Zm9.55-21.79h5V148h-5Zm17.83,0h5.35V148.14H92.94Z"/></g></g></svg>