<?xml version="1.0" encoding="utf-8"?>
<!-- Generator: Adobe Illustrator 23.0.1, SVG Export Plug-In . SVG Version: 6.00 Build 0)  -->
<svg version="1.1" id="图层_1" xmlns="http://www.w3.org/2000/svg" xmlns:xlink="http://www.w3.org/1999/xlink" x="0px" y="0px"
	 viewBox="0 0 278.47 254.8" style="enable-background:new 0 0 278.47 254.8;" xml:space="preserve">
<style type="text/css">
	.st0{fill:#FFFFFF;}
</style>
<g>
	<g>
		<path class="st0" d="M28.5,142.07v-31.83h7.66c2.63,0,4.72,0.18,6.24,0.54c2.22,0.54,3.92,1.72,5.1,3.55
			c0.99,1.53,1.48,3.35,1.48,5.48c0,3.43-1.25,6-3.75,7.7c-1.83,1.23-4.69,1.84-8.6,1.84h-2.56v12.71H28.5z M33.98,125h1.8
			c2.49,0,4.25-0.25,5.28-0.76c1.5-0.73,2.25-2.16,2.25-4.29c0-2.01-0.68-3.45-2.04-4.33c-1.02-0.67-2.76-1.01-5.21-1.01h-2.07V125z
			"/>
		<path class="st0" d="M53.74,142.07v-14.62c0-2.95-0.07-5.89-0.2-8.83h5.05l0.18,4.4c1.39-3.19,3.46-4.78,6.2-4.78
			c0.64,0,1.33,0.09,2.04,0.27l-0.31,4.76c-0.69-0.15-1.3-0.22-1.84-0.22c-1.68,0-3.1,0.76-4.27,2.29c-0.64,0.84-1.15,1.87-1.5,3.1
			v13.63H53.74z"/>
		<path class="st0" d="M81.15,118.11c3.67,0,6.53,1.22,8.58,3.66c1.84,2.2,2.76,5.06,2.76,8.58c0,3.85-1.09,6.89-3.26,9.12
			c-2.02,2.08-4.77,3.12-8.24,3.12c-3.76,0-6.66-1.22-8.71-3.66c-1.84-2.2-2.76-5.07-2.76-8.6c0-3.85,1.08-6.88,3.26-9.1
			C74.78,119.15,77.57,118.11,81.15,118.11z M80.92,122.2c-2.14,0-3.74,1.03-4.78,3.08c-0.7,1.36-1.06,3.05-1.06,5.08
			c0,2.22,0.42,4.04,1.26,5.48c1.06,1.78,2.62,2.67,4.67,2.67c2.2,0,3.82-1.03,4.85-3.08c0.7-1.36,1.06-3.05,1.06-5.08
			c0-2.23-0.42-4.06-1.26-5.48C84.6,123.09,83.02,122.2,80.92,122.2z"/>
		<path class="st0" d="M113.42,118.6l5.17,0.02l-0.07,1.59c-0.12,3.2-0.18,5.75-0.18,7.64v11.54c0,2.75-0.17,4.81-0.49,6.18
			c-0.6,2.53-2.1,4.38-4.49,5.55c-1.86,0.9-4.07,1.35-6.65,1.35c-3.31,0-6.35-0.7-9.12-2.09l1.71-4c2.28,1.35,4.61,2.02,7.01,2.02
			c2.88,0,4.82-0.99,5.84-2.96c0.55-1.09,0.83-2.98,0.83-5.66v-1.68c-1.99,2.29-4.31,3.44-6.96,3.44c-2.83,0-5.13-1.08-6.9-3.23
			c-1.68-2.04-2.52-4.84-2.52-8.4c0-3.5,0.87-6.36,2.61-8.58c1.69-2.14,3.97-3.21,6.83-3.21c3.08,0,5.5,1.26,7.23,3.77L113.42,118.6
			z M112.97,126.55c-0.45-1.02-1-1.85-1.66-2.49c-1.21-1.21-2.55-1.82-4.02-1.82c-1.74,0-3.05,0.82-3.95,2.45
			c-0.78,1.41-1.17,3.17-1.17,5.28c0,2.07,0.41,3.77,1.24,5.12c0.93,1.54,2.27,2.31,4.02,2.31c1.45,0,2.8-0.63,4.04-1.89
			c0.57-0.58,1.07-1.29,1.5-2.11V126.55z"/>
		<path class="st0" d="M126.05,142.07v-14.62c0-2.95-0.07-5.89-0.2-8.83h5.05l0.18,4.4c1.39-3.19,3.46-4.78,6.2-4.78
			c0.64,0,1.33,0.09,2.04,0.27l-0.31,4.76c-0.69-0.15-1.3-0.22-1.84-0.22c-1.68,0-3.1,0.76-4.27,2.29c-0.64,0.84-1.15,1.87-1.5,3.1
			v13.63H126.05z"/>
		<path class="st0" d="M156.35,139.4c-0.81,0.85-1.58,1.5-2.31,1.95c-1.39,0.82-3.03,1.24-4.92,1.24c-2.43,0-4.29-0.64-5.59-1.93
			c-1.32-1.27-1.98-2.99-1.98-5.17c0-2.93,1.19-5.09,3.57-6.47c1.5-0.87,3.86-1.3,7.08-1.3c0.94,0,2.23,0.04,3.86,0.13v-0.43
			c0-3.56-1.73-5.35-5.19-5.35c-1.95,0-4.06,0.65-6.33,1.95l-1.44-3.86c2.68-1.38,5.5-2.07,8.47-2.07c3.79,0,6.5,1.02,8.13,3.05
			c0.84,1.06,1.37,2.49,1.59,4.29c0.09,0.81,0.13,2.02,0.13,3.64v7.01c0,2.49,0.07,4.48,0.22,5.97h-5.1L156.35,139.4z
			 M156.05,131.22c-0.9-0.07-1.71-0.11-2.43-0.11c-4.34,0-6.51,1.42-6.51,4.27c0,1,0.31,1.83,0.92,2.49c0.66,0.7,1.56,1.06,2.7,1.06
			c2.07,0,3.84-1.09,5.32-3.28V131.22z"/>
		<path class="st0" d="M169.08,142.07v-15.23c0-2.34-0.04-4.54-0.13-6.63l-0.07-1.59h5.05l0.18,3.46c0.79-0.88,1.56-1.6,2.31-2.16
			c1.6-1.21,3.42-1.82,5.46-1.82c3.23,0,5.35,1.43,6.36,4.29c0.9-1.05,1.74-1.88,2.54-2.49c1.57-1.2,3.38-1.8,5.41-1.8
			c2.92,0,4.93,1.1,6.04,3.3c0.66,1.3,0.99,3.49,0.99,6.56v14.11h-5.37v-13.84c0-1.89-0.13-3.21-0.4-3.98
			c-0.49-1.35-1.5-2.02-3.03-2.02c-1.98,0-3.84,1.33-5.59,3.98v15.86h-5.37V127.7c0-1.68-0.18-2.9-0.54-3.68
			c-0.52-1.18-1.45-1.77-2.76-1.77c-1.99,0-3.89,1.33-5.71,3.98v15.86H169.08z"/>
	</g>
</g>
</svg>
