<?xml version="1.0" encoding="utf-8"?>
<!-- Generator: Adobe Illustrator 23.0.1, SVG Export Plug-In . SVG Version: 6.00 Build 0)  -->
<svg version="1.1" id="图层_1" xmlns="http://www.w3.org/2000/svg" xmlns:xlink="http://www.w3.org/1999/xlink" x="0px" y="0px"
	 viewBox="0 0 200.69 28.54" style="enable-background:new 0 0 200.69 28.54;" xml:space="preserve">
<style type="text/css">
	.st0{fill:#221714;}
</style>
<g>
	<path class="st0" d="M14.31,15.13H3.57v9.96h11.97v2.99H0V0.45h14.92v2.99H3.57v8.73h10.74V15.13z"/>
	<path class="st0" d="M26.2,0.45v11.56h13.37V0.45h3.61v27.63h-3.61V15.13H26.2v12.96h-3.57V0.45H26.2z"/>
	<path class="st0" d="M51.33,23.74c1.6,0.98,3.94,1.8,6.4,1.8c3.65,0,5.78-1.93,5.78-4.71c0-2.58-1.48-4.06-5.21-5.49
		C53.79,13.74,51,11.4,51,7.5C51,3.2,54.57,0,59.94,0c2.83,0,4.88,0.66,6.11,1.35l-0.98,2.91c-0.9-0.49-2.75-1.31-5.25-1.31
		c-3.77,0-5.21,2.25-5.21,4.14c0,2.58,1.68,3.85,5.49,5.33c4.67,1.8,7.05,4.06,7.05,8.12c0,4.26-3.16,7.95-9.68,7.95
		c-2.67,0-5.58-0.78-7.05-1.76L51.33,23.74z"/>
	<path class="st0" d="M85.52,13.61c0-2.05-0.04-3.73-0.16-5.37h3.2l0.21,3.28h0.08c0.98-1.89,3.28-3.73,6.56-3.73
		c2.75,0,7.01,1.64,7.01,8.45v11.85h-3.61V16.65c0-3.2-1.19-5.86-4.59-5.86c-2.38,0-4.22,1.68-4.84,3.69
		c-0.16,0.45-0.25,1.07-0.25,1.68v11.93h-3.61V13.61z"/>
	<path class="st0" d="M128.7,18c0,7.34-5.08,10.54-9.88,10.54c-5.37,0-9.51-3.94-9.51-10.21c0-6.64,4.35-10.54,9.84-10.54
		C124.84,7.79,128.7,11.93,128.7,18z M112.95,18.2c0,4.35,2.5,7.63,6.03,7.63c3.45,0,6.03-3.24,6.03-7.71
		c0-3.36-1.68-7.63-5.95-7.63C114.8,10.5,112.95,14.43,112.95,18.2z"/>
	<path class="st0" d="M140.05,2.54v5.7h5.17v2.75h-5.17v10.7c0,2.46,0.7,3.85,2.71,3.85c0.94,0,1.64-0.12,2.09-0.25l0.16,2.71
		c-0.7,0.29-1.8,0.49-3.2,0.49c-1.68,0-3.04-0.53-3.9-1.52c-1.02-1.07-1.39-2.83-1.39-5.17V10.99h-3.08V8.24h3.08V3.49L140.05,2.54z
		"/>
	<path class="st0" d="M155.76,2.67c0.04,1.23-0.86,2.21-2.3,2.21c-1.27,0-2.17-0.98-2.17-2.21c0-1.27,0.94-2.25,2.25-2.25
		C154.9,0.41,155.76,1.39,155.76,2.67z M151.74,28.09V8.24h3.61v19.84H151.74z"/>
	<path class="st0" d="M177.94,27.35c-0.94,0.49-3.04,1.15-5.7,1.15c-5.99,0-9.88-4.06-9.88-10.13c0-6.11,4.18-10.54,10.66-10.54
		c2.13,0,4.02,0.53,5,1.03l-0.82,2.79c-0.86-0.49-2.21-0.94-4.18-0.94c-4.55,0-7.01,3.36-7.01,7.5c0,4.59,2.95,7.42,6.89,7.42
		c2.05,0,3.4-0.53,4.43-0.98L177.94,27.35z"/>
	<path class="st0" d="M186.63,18.82c0.08,4.88,3.2,6.89,6.81,6.89c2.58,0,4.14-0.45,5.49-1.02l0.61,2.58
		c-1.27,0.57-3.44,1.23-6.6,1.23c-6.11,0-9.76-4.02-9.76-10c0-5.99,3.53-10.7,9.31-10.7c6.48,0,8.2,5.7,8.2,9.35
		c0,0.74-0.08,1.31-0.12,1.68H186.63z M197.21,16.24c0.04-2.3-0.94-5.86-5-5.86c-3.65,0-5.25,3.36-5.54,5.86H197.21z"/>
</g>
</svg>
