<svg xmlns="http://www.w3.org/2000/svg" xmlns:xlink="http://www.w3.org/1999/xlink" viewBox="0 0 839.06 613.69"><defs><style>.cls-1,.cls-10,.cls-12,.cls-19,.cls-20,.cls-21,.cls-4,.cls-6,.cls-8{fill:none;}.cls-2{fill:#8400df;}.cls-3{fill:#b6c5cf;}.cls-10,.cls-12,.cls-4{stroke:#b6c5cf;}.cls-10,.cls-12,.cls-19,.cls-20,.cls-21,.cls-4,.cls-6,.cls-8{stroke-miterlimit:10;}.cls-5{fill:#c7c7c7;}.cls-6{stroke:#c7c7c7;}.cls-7{fill:#fff;}.cls-8{stroke:#221714;stroke-width:0.75px;}.cls-9{fill:#788082;}.cls-10,.cls-12{stroke-width:0.5px;}.cls-10{stroke-dasharray:4 1;}.cls-11{clip-path:url(#clip-path);}.cls-13{clip-path:url(#clip-path-2);}.cls-14{fill:#231815;}.cls-15{fill:#9494a4;}.cls-16{fill:#7c7980;}.cls-17{fill:#d4d4d7;}.cls-18{fill:#0d8641;}.cls-19,.cls-20,.cls-21{stroke:#ff3000;stroke-width:3px;}.cls-20{stroke-dasharray:7.97 7.97;}.cls-21{stroke-dasharray:8;}.cls-22{fill:#ff3000;}.cls-23{clip-path:url(#clip-path-3);}.cls-24{fill:#1af529;}</style><clipPath id="clip-path"><rect class="cls-1" x="80.95" y="276.99" width="7.19" height="16.06" transform="translate(369.57 200.48) rotate(90)"/></clipPath><clipPath id="clip-path-2"><rect class="cls-1" x="82.22" y="253.01" width="7.19" height="16.06" transform="translate(-175.23 346.86) rotate(-90)"/></clipPath><clipPath id="clip-path-3"><rect class="cls-1" x="102.63" y="461.71" width="15.76" height="16.39"/></clipPath></defs><title>资源 2</title><g id="图层_2" data-name="图层 2"><g id="图层_1-2" data-name="图层 1"><polygon class="cls-2" points="209.05 611.11 204.75 613.69 204.75 608.53 209.05 611.11"/><rect class="cls-3" x="212.27" y="-63.18" width="560.76" height="690.28" transform="translate(210.7 774.61) rotate(-90)"/><polyline class="cls-4" points="70.62 480.08 64.19 470.21 64.19 479.48"/><line class="cls-4" x1="61.97" y1="479.48" x2="61.97" y2="470.22"/><line class="cls-4" x1="59.87" y1="479.48" x2="59.87" y2="470.22"/><line class="cls-4" x1="57.76" y1="479.48" x2="57.76" y2="470.22"/><line class="cls-4" x1="68.39" y1="479.48" x2="68.39" y2="476.71"/><line class="cls-4" x1="66.29" y1="480.08" x2="66.29" y2="473.46"/><line class="cls-4" x1="64.19" y1="480.08" x2="64.19" y2="479.84"/><line class="cls-4" x1="61.97" y1="480.08" x2="61.97" y2="479.84"/><line class="cls-4" x1="59.87" y1="480.08" x2="59.87" y2="479.84"/><line class="cls-4" x1="68.39" y1="480.08" x2="68.39" y2="479.84"/><polyline class="cls-4" points="70.25 479.48 57.76 479.48 57.76 480.08"/><line class="cls-4" x1="70.37" y1="479.84" x2="57.76" y2="479.84"/><path class="cls-3" d="M46.55,470v21.34h85.58v71.5H23.42S.68,559.44,0,534.26V470Z"/><rect x="81.73" y="523.5" width="7.04" height="7.77" transform="translate(-442.14 612.64) rotate(-90)"/><rect x="32.83" y="523.5" width="7.04" height="7.77" transform="translate(-491.03 563.74) rotate(-90)"/><rect class="cls-5" x="87.58" y="447.19" width="41.47" height="46.62" transform="translate(-362.18 578.82) rotate(-90)"/><rect class="cls-6" x="84.14" y="66.41" width="48.86" height="46.62" transform="translate(18.84 198.29) rotate(-90)"/><rect class="cls-3" x="85.01" y="356.77" width="46.59" height="93.06"/><rect class="cls-7" x="116" y="357.92" width="14.46" height="3.4" transform="translate(246.46 719.23) rotate(180)"/><rect class="cls-7" x="101.28" y="357.92" width="14.46" height="3.4" transform="translate(217.02 719.23) rotate(180)"/><rect class="cls-7" x="86.56" y="357.92" width="14.46" height="3.4" transform="translate(187.58 719.23) rotate(180)"/><rect class="cls-7" x="115.86" y="445.1" width="14.46" height="3.4" transform="translate(246.18 893.59) rotate(180)"/><rect class="cls-7" x="101.42" y="445.1" width="14.46" height="3.4" transform="translate(217.3 893.59) rotate(180)"/><rect class="cls-7" x="86.7" y="445.1" width="14.46" height="3.4" transform="translate(187.86 893.59) rotate(180)"/><path class="cls-8" d="M137.73,386.48a6,6,0,0,0-6.34-5.37s5.58.74,6.34-5"/><line class="cls-8" x1="137.73" y1="376.11" x2="131.39" y2="376.11"/><line class="cls-8" x1="137.73" y1="386.48" x2="131.39" y2="386.48"/><path class="cls-8" d="M141,339.56a6,6,0,0,0,6.34,5.37s-5.58-.74-6.34,5"/><line class="cls-8" x1="141.04" y1="349.92" x2="147.38" y2="349.92"/><line class="cls-8" x1="141.04" y1="339.56" x2="147.38" y2="339.56"/><path class="cls-8" d="M137.73,428.24a6,6,0,0,0-6.34-5.36s5.58.74,6.34-5"/><line class="cls-8" x1="137.73" y1="417.88" x2="131.39" y2="417.88"/><line class="cls-8" x1="137.73" y1="428.24" x2="131.39" y2="428.24"/><path class="cls-4" d="M57.07,463.59s-5.52.43-5.52,6.18a5.44,5.44,0,0,0-5.13-6.18"/><line class="cls-4" x1="46.42" y1="463.59" x2="46.42" y2="469.77"/><line class="cls-4" x1="57.07" y1="463.59" x2="57.07" y2="469.77"/><path class="cls-4" d="M57.07,485s-5.52.42-5.52,6.18A5.44,5.44,0,0,0,46.42,485"/><line class="cls-4" x1="46.42" y1="485.02" x2="46.42" y2="491.2"/><line class="cls-4" x1="57.07" y1="485.02" x2="57.07" y2="491.2"/><rect class="cls-9" x="84.99" y="313.93" width="46.63" height="42.83"/><rect class="cls-5" x="87.58" y="69.52" width="41.47" height="46.62" transform="translate(15.49 201.15) rotate(-90)"/><path d="M110.83,110.25H105.6v-.8a4,4,0,0,1,.17-1.37,1,1,0,0,1,.54-.55,1.44,1.44,0,0,1,.64-.13,1.18,1.18,0,0,1,.94.36,1.49,1.49,0,0,1,.28.67,1.16,1.16,0,0,1,1.27-1.17,1.25,1.25,0,0,1,1.2.65,2.05,2.05,0,0,1,.18.66c0,.1,0,.32,0,.67Zm-2.88-.59v-.27a2.22,2.22,0,0,0-.16-1,1,1,0,0,0-1.54,0,2.29,2.29,0,0,0-.16,1v.27Zm2.39,0v-.27a5.28,5.28,0,0,0,0-.79c-.07-.48-.39-.71-.93-.71a.83.83,0,0,0-.83.48,3,3,0,0,0-.13,1v.27Z"/><path d="M110.38,104.25a1.46,1.46,0,0,1,.52,1.12,1.13,1.13,0,0,1-.34.89,1.1,1.1,0,0,1-.78.27c-.85,0-1.27-.56-1.27-1.68,0-.1,0-.28,0-.55h-.1a1.56,1.56,0,0,0-.64.1.75.75,0,0,0-.4.74,1.73,1.73,0,0,0,.34,1l-.41.25a2.24,2.24,0,0,1-.39-1.27,1.25,1.25,0,0,1,.52-1.16,1.48,1.48,0,0,1,.71-.17h1.72q.6,0,1,0v.52Zm-1.42,0c0,.13,0,.27,0,.41a1.81,1.81,0,0,0,.16.88.71.71,0,0,0,.65.35.66.66,0,0,0,.49-.18.64.64,0,0,0,.19-.49,1.12,1.12,0,0,0-.58-1Z"/><path d="M107.46,102.25v.61H107v-.61h-.84l-.12-.56h1v-.88h.46v.88h2.09a1.61,1.61,0,0,0,.65-.08.41.41,0,0,0,.24-.42,1.13,1.13,0,0,0-.11-.43l.46-.05a2,2,0,0,1,.11.61.81.81,0,0,1-.35.77,1.76,1.76,0,0,1-.88.16Z"/><path d="M110.83,99.93h-5.52v-.56h2.28a1.83,1.83,0,0,1-.67-1.34,1,1,0,0,1,.53-1,3.06,3.06,0,0,1,1.17-.16h2.21v.56h-2.22a3,3,0,0,0-.82.08.61.61,0,0,0-.41.65,1.59,1.59,0,0,0,.72,1.18h2.73Z"/><path d="M110.83,93.8H105.6V92.71a2.28,2.28,0,0,1,.24-1.19,1.23,1.23,0,0,1,1.13-.6,1.27,1.27,0,0,1,1,.43,1.51,1.51,0,0,1,.3.65.91.91,0,0,1,.32-.48,4,4,0,0,1,.63-.29l1.59-.63v.63l-1.31.54a2.42,2.42,0,0,0-.83.47,1.27,1.27,0,0,0-.18.79v.18h2.32ZM108,93.21v-.28a2.09,2.09,0,0,0-.15-.9.82.82,0,0,0-.83-.49.8.8,0,0,0-.78.42,2,2,0,0,0-.15.89v.36Z"/><path d="M106.92,88.4a1.55,1.55,0,0,1,.63-1.28,2.2,2.2,0,0,1,1.36-.41,2.09,2.09,0,0,1,1.44.48,1.55,1.55,0,0,1,.55,1.23,1.58,1.58,0,0,1-.63,1.31,2.2,2.2,0,0,1-1.36.41,2.12,2.12,0,0,1-1.44-.48A1.61,1.61,0,0,1,106.92,88.4Zm.46,0a1,1,0,0,0,.57.9,2,2,0,0,0,1,.21,1.85,1.85,0,0,0,1-.26,1,1,0,0,0,.49-.87,1,1,0,0,0-.56-.91,2,2,0,0,0-1-.21,1.85,1.85,0,0,0-1,.26A1,1,0,0,0,107.38,88.44Z"/><path d="M106.92,84.25a1.53,1.53,0,0,1,.63-1.28,2.14,2.14,0,0,1,1.36-.41,2.08,2.08,0,0,1,1.44.47,1.66,1.66,0,0,1-.08,2.54,2.41,2.41,0,0,1-2.8-.06A1.61,1.61,0,0,1,106.92,84.25Zm.46,0a1,1,0,0,0,.57.89,1.89,1.89,0,0,0,1,.22,1.93,1.93,0,0,0,1-.26,1,1,0,0,0,.49-.87,1,1,0,0,0-.56-.91,2,2,0,0,0-1-.22,1.93,1.93,0,0,0-1,.26A1,1,0,0,0,107.38,84.29Z"/><path d="M110.83,81.55h-2.58c-.59,0-1,0-1.25,0V81l.61,0a3.05,3.05,0,0,1-.36-.38,1.36,1.36,0,0,1-.33-.88.91.91,0,0,1,.76-1,4.55,4.55,0,0,1-.44-.44,1.34,1.34,0,0,1-.32-.87.94.94,0,0,1,.53-.92,3.2,3.2,0,0,1,1.17-.14h2.21V77h-2.22a3.13,3.13,0,0,0-.82.07.55.55,0,0,0-.41.59,1.42,1.42,0,0,0,.72,1.07h2.73v.56h-2.29a2.62,2.62,0,0,0-.76.08.56.56,0,0,0-.4.56A1.45,1.45,0,0,0,108.1,81h2.73Z"/><rect class="cls-4" x="67.3" y="249.43" width="82.2" height="46.8" transform="translate(-164.43 381.23) rotate(-90)"/><rect class="cls-4" x="50.1" y="149.68" width="116.58" height="46.8" transform="translate(-64.69 281.48) rotate(-90)"/><line class="cls-4" x1="60.36" y1="245.23" x2="60.36" y2="300.46"/><line class="cls-4" x1="65.43" y1="245.21" x2="60.11" y2="245.21"/><line class="cls-4" x1="65.43" y1="300.32" x2="60.11" y2="300.32"/><line class="cls-4" x1="62.96" y1="245.23" x2="62.96" y2="300.46"/><line class="cls-4" x1="65.43" y1="245.23" x2="65.43" y2="300.46"/><line class="cls-4" x1="85.82" y1="232.24" x2="79.03" y2="232.24"/><line class="cls-4" x1="60.36" y1="232.24" x2="60.36" y2="245.23"/><line class="cls-4" x1="85.82" y1="313.45" x2="79.03" y2="313.45"/><line class="cls-4" x1="60.36" y1="313.45" x2="60.36" y2="300.46"/><polyline class="cls-4" points="77.3 310.08 79.03 310.08 79.03 318.38 77.3 318.38 77.3 310.08"/><line class="cls-4" x1="68.39" y1="313.45" x2="60.36" y2="313.45"/><polyline class="cls-4" points="77.3 235.49 79.03 235.49 79.03 227.19 77.3 227.19 77.3 235.49"/><line class="cls-4" x1="60.36" y1="300.46" x2="60.36" y2="296.01"/><line class="cls-4" x1="62.96" y1="300.46" x2="62.96" y2="296.01"/><line class="cls-4" x1="60.36" y1="300.46" x2="60.36" y2="296.01"/><line class="cls-4" x1="65.43" y1="300.46" x2="65.43" y2="296.01"/><line class="cls-4" x1="62.96" y1="300.46" x2="62.96" y2="296.01"/><line class="cls-4" x1="60.11" y1="237.77" x2="60.11" y2="237.29"/><line class="cls-4" x1="67.53" y1="316.34" x2="62.71" y2="316.34"/><line class="cls-4" x1="68.39" y1="315.5" x2="62.71" y2="315.5"/><line class="cls-4" x1="68.39" y1="313.45" x2="61.84" y2="313.45"/><line class="cls-4" x1="67.53" y1="318.39" x2="61.84" y2="318.39"/><line class="cls-4" x1="62.71" y1="315.5" x2="62.71" y2="316.34"/><line class="cls-4" x1="75.56" y1="316.34" x2="75.56" y2="345.46"/><line class="cls-4" x1="74.7" y1="315.5" x2="74.7" y2="345.46"/><line class="cls-4" x1="68.39" y1="315.5" x2="68.39" y2="345.46"/><line class="cls-4" x1="67.53" y1="316.34" x2="67.53" y2="345.46"/><line class="cls-4" x1="74.7" y1="340.16" x2="68.39" y2="340.16"/><line class="cls-4" x1="74.7" y1="338.48" x2="68.39" y2="338.48"/><line class="cls-4" x1="74.7" y1="336.67" x2="68.39" y2="336.67"/><line class="cls-4" x1="74.7" y1="334.99" x2="68.39" y2="334.99"/><line class="cls-4" x1="74.7" y1="333.3" x2="68.39" y2="333.3"/><line class="cls-4" x1="74.7" y1="331.5" x2="68.39" y2="331.5"/><line class="cls-4" x1="74.7" y1="329.82" x2="68.39" y2="329.82"/><line class="cls-4" x1="74.7" y1="328.13" x2="68.39" y2="328.13"/><line class="cls-4" x1="74.7" y1="326.33" x2="68.39" y2="326.33"/><line class="cls-4" x1="74.7" y1="324.64" x2="68.39" y2="324.64"/><line class="cls-4" x1="77.3" y1="318.39" x2="75.56" y2="318.39"/><line class="cls-4" x1="74.7" y1="316.22" x2="68.39" y2="316.22"/><line class="cls-4" x1="74.7" y1="321.15" x2="68.39" y2="321.15"/><line class="cls-4" x1="74.7" y1="319.47" x2="68.39" y2="319.47"/><line class="cls-4" x1="74.7" y1="317.66" x2="68.39" y2="317.66"/><line class="cls-4" x1="74.7" y1="322.84" x2="68.39" y2="322.84"/><line class="cls-4" x1="77.3" y1="316.34" x2="75.56" y2="316.34"/><line class="cls-4" x1="77.3" y1="315.5" x2="74.7" y2="315.5"/><line class="cls-4" x1="68.39" y1="315.5" x2="68.39" y2="313.45"/><line class="cls-4" x1="74.7" y1="343.65" x2="68.39" y2="343.65"/><line class="cls-4" x1="74.7" y1="341.85" x2="68.39" y2="341.85"/><line class="cls-4" x1="67.53" y1="345.46" x2="68.39" y2="345.46"/><line class="cls-4" x1="75.56" y1="345.46" x2="74.7" y2="345.46"/><line class="cls-4" x1="65.43" y1="300.46" x2="65.43" y2="296.01"/><line class="cls-4" x1="71.61" y1="336.67" x2="71.61" y2="322.84"/><polygon class="cls-4" points="71.61 322.84 71.86 326.33 71.24 326.33 71.61 322.84"/><polygon class="cls-4" points="71.61 322.84 71.86 326.33 71.24 326.33 71.61 322.84"/><line class="cls-4" x1="67.53" y1="345.46" x2="67.53" y2="349.67"/><line class="cls-4" x1="68.39" y1="345.46" x2="68.39" y2="349.67"/><line class="cls-4" x1="74.7" y1="345.46" x2="74.7" y2="349.67"/><line class="cls-4" x1="75.56" y1="345.46" x2="75.56" y2="349.67"/><line class="cls-4" x1="74.7" y1="345.46" x2="74.7" y2="349.67"/><line class="cls-4" x1="75.56" y1="345.46" x2="75.56" y2="349.67"/><line class="cls-4" x1="85.82" y1="232.24" x2="79.03" y2="232.24"/><line class="cls-4" x1="68.39" y1="232.24" x2="60.36" y2="232.24"/><line class="cls-4" x1="67.53" y1="229.23" x2="62.71" y2="229.23"/><line class="cls-4" x1="68.39" y1="230.07" x2="62.71" y2="230.07"/><line class="cls-4" x1="62.71" y1="230.07" x2="62.71" y2="229.23"/><line class="cls-4" x1="75.56" y1="229.23" x2="75.56" y2="200.24"/><line class="cls-4" x1="74.7" y1="230.07" x2="74.7" y2="200.24"/><line class="cls-4" x1="68.39" y1="230.07" x2="68.39" y2="200.24"/><line class="cls-4" x1="67.53" y1="229.23" x2="67.53" y2="200.24"/><line class="cls-4" x1="74.7" y1="205.53" x2="68.39" y2="205.53"/><line class="cls-4" x1="74.7" y1="207.21" x2="68.39" y2="207.21"/><line class="cls-4" x1="74.7" y1="208.9" x2="68.39" y2="208.9"/><line class="cls-4" x1="74.7" y1="210.7" x2="68.39" y2="210.7"/><line class="cls-4" x1="74.7" y1="212.39" x2="68.39" y2="212.39"/><line class="cls-4" x1="74.7" y1="214.07" x2="68.39" y2="214.07"/><line class="cls-4" x1="74.7" y1="215.88" x2="68.39" y2="215.88"/><line class="cls-4" x1="74.7" y1="217.56" x2="68.39" y2="217.56"/><line class="cls-4" x1="74.7" y1="219.25" x2="68.39" y2="219.25"/><line class="cls-4" x1="74.7" y1="221.05" x2="68.39" y2="221.05"/><line class="cls-4" x1="77.3" y1="227.19" x2="75.56" y2="227.19"/><line class="cls-4" x1="74.7" y1="229.47" x2="68.39" y2="229.47"/><line class="cls-4" x1="74.7" y1="224.42" x2="68.39" y2="224.42"/><line class="cls-4" x1="74.7" y1="226.22" x2="68.39" y2="226.22"/><line class="cls-4" x1="74.7" y1="227.91" x2="68.39" y2="227.91"/><line class="cls-4" x1="74.7" y1="222.73" x2="68.39" y2="222.73"/><line class="cls-4" x1="77.3" y1="229.23" x2="75.56" y2="229.23"/><line class="cls-4" x1="77.3" y1="230.07" x2="74.7" y2="230.07"/><line class="cls-4" x1="68.39" y1="230.07" x2="68.39" y2="232.24"/><line class="cls-4" x1="74.7" y1="202.04" x2="68.39" y2="202.04"/><line class="cls-4" x1="74.7" y1="203.72" x2="68.39" y2="203.72"/><line class="cls-4" x1="67.53" y1="200.24" x2="68.39" y2="200.24"/><line class="cls-4" x1="75.56" y1="200.24" x2="74.7" y2="200.24"/><line class="cls-4" x1="71.61" y1="208.9" x2="71.61" y2="222.73"/><polygon class="cls-4" points="71.61 222.74 71.24 219.25 71.86 219.25 71.61 222.74"/><polygon class="cls-4" points="71.61 222.74 71.24 219.25 71.86 219.25 71.61 222.74"/><line class="cls-4" x1="67.53" y1="200.24" x2="67.53" y2="195.9"/><line class="cls-4" x1="68.39" y1="200.24" x2="68.39" y2="195.9"/><polyline class="cls-4" points="69.75 196.99 68.39 196.99 67.53 196.99 66.05 196.99"/><line class="cls-4" x1="74.7" y1="200.24" x2="74.7" y2="195.9"/><line class="cls-4" x1="68.39" y1="200.24" x2="68.39" y2="195.9"/><line class="cls-4" x1="76.06" y1="196.99" x2="68.39" y2="196.99"/><line class="cls-4" x1="74.7" y1="200.24" x2="74.7" y2="195.9"/><polyline class="cls-4" points="73.34 196.99 74.7 196.99 75.56 196.99 77.05 196.99"/><line class="cls-4" x1="77.3" y1="200.48" x2="77.3" y2="195.9"/><line class="cls-4" x1="75.56" y1="196.99" x2="74.2" y2="196.99"/><polyline class="cls-4" points="75.56 196.99 77.3 196.99 75.56 196.99"/><line class="cls-4" x1="147.51" y1="562.33" x2="147.51" y2="2.92"/><ellipse class="cls-10" cx="85.4" cy="278.24" rx="5.17" ry="5.03"/><ellipse class="cls-10" cx="85.4" cy="267.82" rx="5.17" ry="5.03"/><g class="cls-11"><ellipse class="cls-10" cx="85.28" cy="288.31" rx="5.17" ry="5.03"/></g><line class="cls-12" x1="79.95" y1="288.75" x2="90.61" y2="288.75"/><g class="cls-13"><ellipse class="cls-10" cx="85.08" cy="257.76" rx="5.17" ry="5.03"/></g><line class="cls-12" x1="90.41" y1="257.32" x2="79.74" y2="257.32"/><line class="cls-12" x1="80.17" y1="278.13" x2="90.83" y2="278.13"/><line class="cls-12" x1="80.17" y1="267.77" x2="90.83" y2="267.77"/><path class="cls-4" d="M147.63,394.42l18.17-.36v.36Zm0-.36v.36l18.17-.36Z"/><rect class="cls-14" x="210.03" y="229.76" width="5.12" height="4.53" transform="translate(444.61 19.43) rotate(90)"/><rect class="cls-14" x="275.1" y="229.76" width="5.12" height="4.53" transform="translate(509.68 -45.64) rotate(90)"/><rect class="cls-14" x="340.19" y="229.76" width="5.12" height="4.53" transform="translate(574.77 -110.73) rotate(90)"/><rect class="cls-14" x="405.59" y="229.76" width="5.12" height="4.53" transform="translate(640.17 -176.13) rotate(90)"/><rect class="cls-14" x="210.03" y="62.29" width="5.12" height="4.53" transform="translate(277.14 -148.04) rotate(90)"/><rect class="cls-14" x="275.1" y="62.29" width="5.12" height="4.53" transform="translate(342.21 -213.11) rotate(90)"/><rect class="cls-14" x="340.19" y="62.29" width="5.12" height="4.53" transform="translate(407.3 -278.2) rotate(90)"/><rect class="cls-14" x="405.59" y="62.29" width="5.12" height="4.53" transform="translate(472.7 -343.6) rotate(90)"/><rect class="cls-14" x="171.33" y="398.58" width="5.12" height="4.53" transform="translate(574.73 226.96) rotate(90)"/><rect class="cls-14" x="210.03" y="398.58" width="5.12" height="4.53" transform="translate(613.44 188.25) rotate(90)"/><rect class="cls-14" x="275.1" y="398.58" width="5.12" height="4.53" transform="translate(678.51 123.18) rotate(90)"/><rect class="cls-14" x="340.19" y="398.58" width="5.12" height="4.53" transform="translate(743.59 58.1) rotate(90)"/><rect class="cls-14" x="405.59" y="398.58" width="5.12" height="4.53" transform="translate(808.99 -7.3) rotate(90)"/><rect class="cls-14" x="465.86" y="229.76" width="5.12" height="4.53" transform="translate(700.44 -236.39) rotate(90)"/><rect class="cls-14" x="530.93" y="229.76" width="5.12" height="4.53" transform="translate(765.51 -301.46) rotate(90)"/><rect class="cls-14" x="596.02" y="229.76" width="5.12" height="4.53" transform="translate(830.6 -366.55) rotate(90)"/><rect class="cls-14" x="661.42" y="229.76" width="5.12" height="4.53" transform="translate(896 -431.95) rotate(90)"/><rect class="cls-14" x="465.86" y="62.29" width="5.12" height="4.53" transform="translate(532.97 -403.86) rotate(90)"/><rect class="cls-14" x="530.93" y="62.29" width="5.12" height="4.53" transform="translate(598.04 -468.93) rotate(90)"/><rect class="cls-14" x="596.02" y="62.29" width="5.12" height="4.53" transform="translate(663.13 -534.02) rotate(90)"/><rect class="cls-14" x="661.42" y="62.29" width="5.12" height="4.53" transform="translate(728.53 -599.42) rotate(90)"/><rect class="cls-14" x="465.86" y="398.58" width="5.12" height="4.53" transform="translate(869.26 -67.57) rotate(90)"/><rect class="cls-14" x="530.93" y="398.58" width="5.12" height="4.53" transform="translate(934.33 -132.64) rotate(90)"/><rect class="cls-14" x="596.02" y="398.58" width="5.12" height="4.53" transform="translate(999.42 -197.73) rotate(90)"/><rect class="cls-14" x="661.42" y="398.58" width="5.12" height="4.53" transform="translate(1064.82 -263.13) rotate(90)"/><rect class="cls-14" x="731.49" y="229.76" width="5.12" height="4.53" transform="translate(966.08 -502.03) rotate(90)"/><rect class="cls-14" x="796.58" y="229.76" width="5.12" height="4.53" transform="translate(1031.16 -567.12) rotate(90)"/><rect class="cls-14" x="731.49" y="62.29" width="5.12" height="4.53" transform="translate(798.61 -669.5) rotate(90)"/><rect class="cls-14" x="796.58" y="62.29" width="5.12" height="4.53" transform="translate(863.69 -734.59) rotate(90)"/><rect class="cls-14" x="731.49" y="398.58" width="5.12" height="4.53" transform="translate(1134.9 -333.21) rotate(90)"/><rect class="cls-14" x="796.58" y="398.58" width="5.12" height="4.53" transform="translate(1199.99 -398.3) rotate(90)"/><path class="cls-15" d="M400.26,250.79s-25.49,15-25.49,63.52c0,51.5,25.94,65.56,25.94,65.56l18-.16v-129Z"/><path class="cls-16" d="M404.33,250.79s-26.85,14.85-26.85,63.37c0,51.51,26.71,65.71,26.71,65.71l17.37-.16v-129Z"/><path class="cls-17" d="M407.2,264.41s-43,29.42-17.41,100.19c0,0-19.65-27.73-9.94-73.75,0,0,3.63-25.66,24.39-40.12Z"/><path class="cls-14" d="M412.36,250.79a229.63,229.63,0,0,1,9.53,64.54,224.64,224.64,0,0,1-9.76,64.54h-9s9-37.57,9-65-8.86-64.1-8.86-64.1Z"/><path d="M46.57,530.44v-7.86h.93v7.11H51v.75Z"/><path d="M56.73,524.68v3.89c0,1,0,1.58,0,1.87h-.88l0-.92a4.19,4.19,0,0,1-.62.54,2.52,2.52,0,0,1-1.48.49,1.52,1.52,0,0,1-1.51-.8,2.5,2.5,0,0,1-.23-1c0-.24,0-.49,0-.74v-3.33h.89V528a3.75,3.75,0,0,0,.13,1.21.92.92,0,0,0,1,.62,2.47,2.47,0,0,0,1.84-1.08v-4.1Z"/><path d="M58.76,530.44v-3.88c0-.94,0-1.57,0-1.88h.87l0,.92a4.26,4.26,0,0,1,.63-.55,2.55,2.55,0,0,1,1.52-.48,1.58,1.58,0,0,1,1.54.8,2.7,2.7,0,0,1,.22,1c0,.26,0,.5,0,.74v3.33h-.89v-3.35a4.2,4.2,0,0,0-.12-1.21,1,1,0,0,0-1-.62,2.53,2.53,0,0,0-1.88,1.08v4.1Z"/><path d="M69.31,529.35l.35.67a3.24,3.24,0,0,1-1.8.53,2.62,2.62,0,0,1-2-.76,3,3,0,0,1-.76-2.17,3.2,3.2,0,0,1,.8-2.33,2.52,2.52,0,0,1,1.88-.72,3.65,3.65,0,0,1,1.77.46l-.34.68a2.7,2.7,0,0,0-1.44-.45,1.52,1.52,0,0,0-1.3.61,3.3,3.3,0,0,0,.08,3.39,1.59,1.59,0,0,0,1.32.6A2.39,2.39,0,0,0,69.31,529.35Z"/><path d="M70.85,530.44v-8.31h.89v3.44a3,3,0,0,1,2.12-1,1.58,1.58,0,0,1,1.54.8,2.51,2.51,0,0,1,.22,1c0,.26,0,.5,0,.74v3.33h-.89v-3.35a3.79,3.79,0,0,0-.13-1.21,1,1,0,0,0-1-.62,2.51,2.51,0,0,0-1.87,1.08v4.1Z"/><path class="cls-3" d="M46.55,93.37V72h85.58V.53H23.42S.68,3.93,0,29.11V93.37Z"/><path d="M89.45,403.73v-6h-2v-.63h4.78v.63h-2v6Z"/><path d="M93,401.51a2.32,2.32,0,0,0,.38,1.2,1.46,1.46,0,0,0,1.22.53,2.37,2.37,0,0,0,1.36-.46l.29.57a3.19,3.19,0,0,1-1.66.47,2.25,2.25,0,0,1-1.82-.75,2.63,2.63,0,0,1-.56-1.76,2.57,2.57,0,0,1,.75-2,2,2,0,0,1,1.42-.51,1.76,1.76,0,0,1,1.78,1.06,4.7,4.7,0,0,1,.28,1.66Zm2.64-.59a2.09,2.09,0,0,0-.19-.89,1.12,1.12,0,0,0-1.09-.65,1.18,1.18,0,0,0-1.11.64,1.87,1.87,0,0,0-.23.9Z"/><path d="M100.38,403.17a2.7,2.7,0,0,1-.49.4,1.93,1.93,0,0,1-1,.25,1.55,1.55,0,0,1-1.19-.43,1.34,1.34,0,0,1-.37-1,1.42,1.42,0,0,1,.83-1.37,3.53,3.53,0,0,1,1.44-.23h.72v-.13a1.85,1.85,0,0,0-.14-.8,1,1,0,0,0-1-.5,2.45,2.45,0,0,0-1.28.42l-.33-.52a3.11,3.11,0,0,1,1.69-.49,1.69,1.69,0,0,1,1.55.66,1.91,1.91,0,0,1,.23.9c0,.14,0,.33,0,.59v1.58c0,.47,0,.87,0,1.21h-.69Zm-.06-1.8-.56,0a2.42,2.42,0,0,0-1.16.21.87.87,0,0,0-.48.82.81.81,0,0,0,.24.62.91.91,0,0,0,.66.24,1.54,1.54,0,0,0,1.3-.74Z"/><path d="M105.9,403.73h-.71v-.17q0-.87,0-1.59v-5.22H106v2.81a1.77,1.77,0,0,1,1.47-.77,1.73,1.73,0,0,1,1.42.72,3.21,3.21,0,0,1-.09,3.69,1.69,1.69,0,0,1-1.37.62,1.6,1.6,0,0,1-1-.32,3,3,0,0,1-.48-.51Zm.08-1.39a3.83,3.83,0,0,0,.38.49,1.25,1.25,0,0,0,.93.41,1.11,1.11,0,0,0,1-.61,2.7,2.7,0,0,0,.3-1.33,2.58,2.58,0,0,0-.35-1.41,1.1,1.1,0,0,0-1-.51,1.46,1.46,0,0,0-1.32.9Z"/><path d="M110.75,403.73V401c0-.64,0-1.25,0-1.86v-.22h.7l0,.89a2.18,2.18,0,0,1,.54-.69,1.25,1.25,0,0,1,.86-.3,2.23,2.23,0,0,1,.34,0l-.06.65-.26,0a1.23,1.23,0,0,0-1,.54,2.38,2.38,0,0,0-.38.68v3.06Z"/><path d="M114.46,401.51a2.32,2.32,0,0,0,.38,1.2,1.46,1.46,0,0,0,1.22.53,2.37,2.37,0,0,0,1.36-.46l.29.57a3.19,3.19,0,0,1-1.66.47,2.25,2.25,0,0,1-1.82-.75,2.63,2.63,0,0,1-.56-1.76,2.57,2.57,0,0,1,.75-2,2,2,0,0,1,1.42-.51,1.76,1.76,0,0,1,1.78,1.06,4.7,4.7,0,0,1,.28,1.66Zm2.64-.59a2.09,2.09,0,0,0-.19-.89,1.12,1.12,0,0,0-1.1-.65,1.18,1.18,0,0,0-1.1.64,1.87,1.87,0,0,0-.23.9Z"/><path d="M121.84,403.17a2.67,2.67,0,0,1-.48.4,1.93,1.93,0,0,1-1,.25,1.59,1.59,0,0,1-1.2-.43,1.37,1.37,0,0,1-.36-1,1.42,1.42,0,0,1,.83-1.37,3.53,3.53,0,0,1,1.44-.23h.72v-.13a1.85,1.85,0,0,0-.14-.8,1,1,0,0,0-1-.5,2.45,2.45,0,0,0-1.28.42l-.33-.52a3.11,3.11,0,0,1,1.69-.49,1.69,1.69,0,0,1,1.55.66,1.91,1.91,0,0,1,.23.9c0,.14,0,.33,0,.59v1.58c0,.47,0,.87,0,1.21h-.69Zm0-1.8-.56,0a2.42,2.42,0,0,0-1.16.21.87.87,0,0,0-.48.82.81.81,0,0,0,.24.62.89.89,0,0,0,.66.24,1.54,1.54,0,0,0,1.3-.74Z"/><path d="M124.25,403.73v-7H125v4.19l2-2.05H128L125.78,401l2.32,2.69h-1l-2.15-2.5v2.5Z"/><path class="cls-18" d="M146.41,304.42h39.84v51.84H166.33l-3.84-4.6a3.31,3.31,0,0,0-3.48-.38c-.76.43-.9,1.09-.43,2l2.33,3h-9l-5.53-5Z"/><path class="cls-7" d="M161.9,308.66a3.76,3.76,0,1,0,4.15,3.74,4,4,0,0,0-4.15-3.74ZM159.56,348a2.14,2.14,0,0,0,1.87-1l7.71-13.44a.75.75,0,0,1,.48-.37,1,1,0,0,1,.83.09l.12.1a.7.7,0,0,1,.26.42l1.23,5.21a4.27,4.27,0,0,0,4.26,3.12H188a2.43,2.43,0,0,0,1.7-.65,1.94,1.94,0,0,0,.7-1.51v0a2.19,2.19,0,0,0-2.24-2.12l-10.73-.28a1,1,0,0,1-.9-.88v-3.78c0-4.06-2.29-8.49-5.4-12.33l-.27-.32.44-.07,3-.47a1,1,0,0,1,.8.23l1.63,1.59.7.67c.83.8,1.43,1.39,1.89,1.85a2.28,2.28,0,0,0,2.87.17,1.73,1.73,0,0,0,.4-2.54l-3-3.63a6.88,6.88,0,0,0-5.87-2.43l-6.55.52a13.17,13.17,0,0,0-9.21,4.63l-2.11,2.57a3.18,3.18,0,0,1-2.42,1.08,9.21,9.21,0,0,1-1.08-.07l-.46-.05c-1.36-.16-1.9-.1-2.48.47a1.89,1.89,0,0,0-.55,1.68,2.23,2.23,0,0,0,1.3,1.45,10.18,10.18,0,0,0,4.27.64,6.43,6.43,0,0,0,4.88-2.3l1.41-1.84.21.37,3.41,6.13a.67.67,0,0,1,0,.72l-7.13,13.15a2,2,0,0,0,.12,2.16,2.58,2.58,0,0,0,2.14,1.07Z"/><line class="cls-19" x1="137.51" y1="56.59" x2="137.51" y2="60.59"/><line class="cls-20" x1="137.51" y1="68.56" x2="137.51" y2="511.08"/><line class="cls-19" x1="137.51" y1="515.07" x2="137.51" y2="519.07"/><line class="cls-21" x1="44.18" y1="51.88" x2="137.51" y2="51.88"/><line class="cls-21" x1="44.18" y1="51.88" x2="44.18" y2="93.37"/><line class="cls-21" x1="135.13" y1="275.35" x2="54.57" y2="275.35"/><line class="cls-21" x1="137.51" y1="519.07" x2="163.71" y2="519.07"/><line class="cls-21" x1="163.71" y1="519.07" x2="163.71" y2="561.21"/><line class="cls-1" x1="148.93" y1="464.39" x2="821.06" y2="464.39"/><line class="cls-21" x1="135.92" y1="466.03" x2="803.26" y2="466.03"/><line class="cls-21" x1="170.86" y1="115.34" x2="170.86" y2="0.11"/><line class="cls-21" x1="170.86" y1="115.34" x2="378.9" y2="115.34"/><line class="cls-21" x1="378.9" y1="115.34" x2="378.9" y2="135.38"/><line class="cls-21" x1="378.9" y1="135.38" x2="816.33" y2="135.38"/><line class="cls-21" x1="659.45" y1="130.37" x2="659.45" y2="5.12"/><line class="cls-21" x1="442.23" y1="308.56" x2="821.04" y2="308.21"/><line class="cls-21" x1="416.48" y1="463.52" x2="416.48" y2="512.72"/><line class="cls-21" x1="665.33" y1="463.52" x2="665.33" y2="512.72"/><path class="cls-18" d="M839.06,149.78l-5.53,5h-9l2.33-3c.47-.9.33-1.56-.43-2a3.31,3.31,0,0,0-3.48.38l-3.84,4.61H799.22V102.93h39.84Z"/><path class="cls-7" d="M823.57,107.16a3.76,3.76,0,1,0,4.15,3.74,4,4,0,0,0-4.15-3.74Zm2.33,39.38a2.59,2.59,0,0,0,2.15-1.07,2,2,0,0,0,.12-2.15L821,130.17a.67.67,0,0,1,0-.72l3.41-6.13.21-.38,1.41,1.85a6.5,6.5,0,0,0,4.88,2.3,10.33,10.33,0,0,0,4.27-.65,2.23,2.23,0,0,0,1.3-1.45,1.86,1.86,0,0,0-.55-1.67c-.58-.58-1.12-.64-2.48-.47l-.46,0A7.62,7.62,0,0,1,832,123a3.22,3.22,0,0,1-2.42-1.09l-2.11-2.57a13.21,13.21,0,0,0-9.21-4.63l-6.55-.51a6.86,6.86,0,0,0-5.87,2.42l-2.95,3.63a1.73,1.73,0,0,0,.4,2.54,2.27,2.27,0,0,0,2.87-.17c.46-.46,1.06-1,1.89-1.84.23-.23.46-.46.7-.68l1.63-1.59a1,1,0,0,1,.8-.23l3,.47.43.07-.26.33c-3.11,3.83-5.4,8.26-5.4,12.32v3.79a1,1,0,0,1-.9.88l-10.74.27a2.19,2.19,0,0,0-2.23,2.12v0a2,2,0,0,0,.7,1.52,2.47,2.47,0,0,0,1.7.64h11.68a4.26,4.26,0,0,0,4.26-3.12l1.23-5.21a.7.7,0,0,1,.26-.42.69.69,0,0,0,.12-.1,1,1,0,0,1,.83-.09.75.75,0,0,1,.48.37L824,145.57a2.12,2.12,0,0,0,1.86,1Z"/><path class="cls-18" d="M839.06,332.4l-5.53,5h-9l2.33-3c.47-.9.33-1.56-.43-2a3.31,3.31,0,0,0-3.48.38l-3.84,4.61H799.22V285.55h39.84Z"/><path class="cls-7" d="M823.57,289.78a3.76,3.76,0,1,0,4.15,3.74,4,4,0,0,0-4.15-3.74Zm2.33,39.38a2.59,2.59,0,0,0,2.15-1.07,2,2,0,0,0,.12-2.15L821,312.79a.67.67,0,0,1,0-.72l3.41-6.13.21-.38,1.41,1.85a6.5,6.5,0,0,0,4.88,2.3,10.33,10.33,0,0,0,4.27-.65,2.23,2.23,0,0,0,1.3-1.45,1.89,1.89,0,0,0-.55-1.68c-.58-.57-1.12-.63-2.48-.46l-.46,0a7.62,7.62,0,0,1-1.08.08,3.22,3.22,0,0,1-2.42-1.09l-2.11-2.57a13.21,13.21,0,0,0-9.21-4.63l-6.55-.51a6.86,6.86,0,0,0-5.87,2.42l-2.95,3.63a1.73,1.73,0,0,0,.4,2.54,2.27,2.27,0,0,0,2.87-.17c.46-.46,1.06-1,1.89-1.84.23-.23.46-.46.7-.68l1.63-1.59a1,1,0,0,1,.8-.23l3,.47.43.07-.26.33c-3.11,3.83-5.4,8.26-5.4,12.32v3.79a1,1,0,0,1-.9.88L797.3,319a2.19,2.19,0,0,0-2.23,2.12v0a2,2,0,0,0,.7,1.52,2.47,2.47,0,0,0,1.7.64h11.68a4.26,4.26,0,0,0,4.26-3.12l1.23-5.21a.7.7,0,0,1,.26-.42l.12-.1a1,1,0,0,1,.83-.09.75.75,0,0,1,.48.37L824,328.19a2.12,2.12,0,0,0,1.86,1Z"/><path class="cls-18" d="M839.06,494.19l-5.53,5h-9l2.33-3c.47-.9.33-1.56-.43-2a3.31,3.31,0,0,0-3.48.38l-3.84,4.6H799.22V447.33h39.84Z"/><path class="cls-7" d="M823.57,451.57a3.76,3.76,0,1,0,4.15,3.74,4,4,0,0,0-4.15-3.74ZM825.9,491a2.59,2.59,0,0,0,2.15-1.07,2,2,0,0,0,.12-2.16L821,474.57a.67.67,0,0,1,0-.72l3.41-6.13.21-.37,1.41,1.84a6.43,6.43,0,0,0,4.88,2.3,10.35,10.35,0,0,0,4.27-.64,2.23,2.23,0,0,0,1.3-1.45,1.88,1.88,0,0,0-.55-1.68c-.58-.57-1.12-.63-2.48-.47l-.46.05a9.21,9.21,0,0,1-1.08.07,3.18,3.18,0,0,1-2.42-1.08l-2.11-2.57a13.13,13.13,0,0,0-9.21-4.63l-6.55-.52a6.87,6.87,0,0,0-5.87,2.43l-2.95,3.63a1.73,1.73,0,0,0,.4,2.54,2.28,2.28,0,0,0,2.87-.17c.46-.46,1.06-1.05,1.89-1.85l.7-.67,1.63-1.59a1,1,0,0,1,.8-.23l3,.47.43.07-.26.32c-3.11,3.84-5.4,8.27-5.4,12.33v3.78a1,1,0,0,1-.9.88l-10.74.28a2.19,2.19,0,0,0-2.23,2.12v0a1.94,1.94,0,0,0,.7,1.51,2.43,2.43,0,0,0,1.7.65h11.68a4.27,4.27,0,0,0,4.26-3.12l1.23-5.21a.67.67,0,0,1,.26-.42l.12-.1a1,1,0,0,1,.83-.09.75.75,0,0,1,.48.37L824,490a2.14,2.14,0,0,0,1.86,1Z"/><path class="cls-18" d="M685,555.34l-5.53,5h-9l2.33-3c.47-.9.33-1.56-.43-2a3.31,3.31,0,0,0-3.48.38l-3.84,4.6H645.13V508.49H685Z"/><path class="cls-7" d="M669.48,512.72a3.76,3.76,0,1,0,4.15,3.74,4,4,0,0,0-4.15-3.74Zm2.33,39.38A2.59,2.59,0,0,0,674,551a2,2,0,0,0,.12-2.15L667,535.73a.67.67,0,0,1,0-.72l3.41-6.13.21-.38,1.41,1.85a6.46,6.46,0,0,0,4.88,2.29,10.18,10.18,0,0,0,4.27-.64,2.23,2.23,0,0,0,1.3-1.45,1.89,1.89,0,0,0-.55-1.68c-.58-.57-1.12-.63-2.48-.46l-.46,0a9.47,9.47,0,0,1-1.08.08,3.22,3.22,0,0,1-2.42-1.09l-2.11-2.57a13.21,13.21,0,0,0-9.21-4.63l-6.55-.52a6.9,6.9,0,0,0-5.87,2.43l-3,3.63a1.74,1.74,0,0,0,.39,2.54,2.28,2.28,0,0,0,2.88-.17c.46-.46,1.06-1,1.89-1.85l.69-.67,1.64-1.59a1,1,0,0,1,.8-.23l3,.47.43.07-.26.32c-3.11,3.84-5.4,8.27-5.4,12.33v3.79a1,1,0,0,1-.9.87l-10.74.28a2.19,2.19,0,0,0-2.23,2.12v0a1.94,1.94,0,0,0,.7,1.51,2.43,2.43,0,0,0,1.7.65h11.68a4.26,4.26,0,0,0,4.26-3.12l1.23-5.21a.73.73,0,0,1,.25-.42.53.53,0,0,0,.13-.1,1,1,0,0,1,.83-.09.75.75,0,0,1,.48.37L670,551.13a2.12,2.12,0,0,0,1.86,1Z"/><path class="cls-18" d="M439.18,555.34l-5.53,5h-9l2.33-3c.47-.9.33-1.56-.43-2a3.31,3.31,0,0,0-3.48.38l-3.84,4.6H399.34V508.49h39.84Z"/><path class="cls-7" d="M423.69,512.72a3.76,3.76,0,1,0,4.15,3.74,4,4,0,0,0-4.15-3.74ZM426,552.1a2.59,2.59,0,0,0,2.15-1.07,2,2,0,0,0,.12-2.15l-7.13-13.15a.67.67,0,0,1,0-.72l3.41-6.13.21-.38,1.41,1.85a6.46,6.46,0,0,0,4.88,2.29,10.18,10.18,0,0,0,4.27-.64,2.23,2.23,0,0,0,1.3-1.45,1.89,1.89,0,0,0-.55-1.68c-.58-.57-1.12-.63-2.48-.46l-.46,0a9.47,9.47,0,0,1-1.08.08,3.22,3.22,0,0,1-2.42-1.09l-2.11-2.57a13.21,13.21,0,0,0-9.21-4.63l-6.55-.52a6.9,6.9,0,0,0-5.87,2.43L403,525.78a1.74,1.74,0,0,0,.39,2.54,2.28,2.28,0,0,0,2.88-.17c.46-.46,1.06-1,1.89-1.85l.69-.67,1.64-1.59a1,1,0,0,1,.8-.23l3,.47.43.07-.26.32c-3.11,3.84-5.4,8.27-5.4,12.33v3.79a1,1,0,0,1-.9.87l-10.74.28a2.19,2.19,0,0,0-2.23,2.12v0a1.94,1.94,0,0,0,.7,1.51,2.43,2.43,0,0,0,1.7.65h11.68a4.26,4.26,0,0,0,4.26-3.12l1.23-5.21a.7.7,0,0,1,.26-.42l.12-.1a1,1,0,0,1,.83-.09.75.75,0,0,1,.48.37l7.71,13.44a2.12,2.12,0,0,0,1.86,1Z"/><path class="cls-18" d="M146.41,36.58h39.84V88.42H166.33l-3.84-4.61a3.31,3.31,0,0,0-3.48-.38c-.76.43-.9,1.09-.43,2l2.33,3h-9l-5.53-5Z"/><path class="cls-7" d="M161.9,40.81a4,4,0,0,0-4.15,3.74,4.17,4.17,0,0,0,8.3,0,4,4,0,0,0-4.15-3.74Zm-2.34,39.38a2.12,2.12,0,0,0,1.87-1l7.71-13.44a.75.75,0,0,1,.48-.37,1,1,0,0,1,.83.09.69.69,0,0,0,.12.1.7.7,0,0,1,.26.42l1.23,5.21a4.26,4.26,0,0,0,4.26,3.12H188a2.47,2.47,0,0,0,1.7-.64,2,2,0,0,0,.7-1.52v0A2.2,2.2,0,0,0,188.16,70l-10.73-.27a1,1,0,0,1-.9-.88V65.09c0-4.06-2.29-8.49-5.4-12.32l-.27-.33.44-.07,3-.47a1,1,0,0,1,.8.23c.54.54,1.09,1.06,1.63,1.59.24.22.47.45.7.68.83.79,1.43,1.38,1.89,1.84a2.27,2.27,0,0,0,2.87.17,1.73,1.73,0,0,0,.4-2.54l-3-3.63a6.87,6.87,0,0,0-5.87-2.42l-6.55.51A13.21,13.21,0,0,0,158,53l-2.11,2.57a3.22,3.22,0,0,1-2.42,1.09,7.62,7.62,0,0,1-1.08-.08l-.46,0c-1.36-.17-1.9-.11-2.48.47a1.86,1.86,0,0,0-.55,1.67,2.23,2.23,0,0,0,1.3,1.45,10.33,10.33,0,0,0,4.27.65,6.5,6.5,0,0,0,4.88-2.3l1.41-1.85L161,57l3.41,6.13a.67.67,0,0,1,0,.72L157.3,77a2,2,0,0,0,.12,2.15,2.58,2.58,0,0,0,2.14,1.07Z"/><path class="cls-18" d="M637.54,36.58h39.85V88.42H657.47l-3.85-4.61a3.29,3.29,0,0,0-3.47-.38c-.76.43-.91,1.09-.43,2l2.33,3h-9l-5.54-5Z"/><path class="cls-7" d="M653,40.81a4,4,0,0,0-4.15,3.74,4.17,4.17,0,0,0,8.3,0A4,4,0,0,0,653,40.81ZM650.7,80.19a2.13,2.13,0,0,0,1.87-1l7.71-13.44a.75.75,0,0,1,.48-.37,1,1,0,0,1,.82.09l.13.1A.7.7,0,0,1,662,66l1.23,5.21a4.25,4.25,0,0,0,4.26,3.12h11.67a2.48,2.48,0,0,0,1.71-.64,2,2,0,0,0,.7-1.52v0A2.2,2.2,0,0,0,679.3,70l-10.73-.27a1,1,0,0,1-.91-.88V65.09c0-4.06-2.29-8.49-5.4-12.32l-.26-.33.44-.07,3-.47a.94.94,0,0,1,.79.23l1.64,1.59.7.68c.83.79,1.43,1.38,1.89,1.84a2.27,2.27,0,0,0,2.87.17,1.73,1.73,0,0,0,.39-2.54l-2.94-3.63a6.88,6.88,0,0,0-5.87-2.42l-6.55.51A13.23,13.23,0,0,0,649.16,53l-2.11,2.57a3.2,3.2,0,0,1-2.42,1.09,7.6,7.6,0,0,1-1.07-.08l-.46,0c-1.37-.17-1.91-.11-2.48.47a1.83,1.83,0,0,0-.55,1.67,2.23,2.23,0,0,0,1.3,1.45,10.33,10.33,0,0,0,4.27.65,6.53,6.53,0,0,0,4.88-2.3l1.41-1.85.21.38,3.41,6.13a.67.67,0,0,1,0,.72L648.44,77a1.94,1.94,0,0,0,.12,2.15,2.58,2.58,0,0,0,2.14,1.07Z"/><path class="cls-18" d="M146.41,442.32h39.84v51.84H166.33l-3.84-4.6a3.31,3.31,0,0,0-3.48-.38c-.76.43-.9,1.09-.43,2l2.33,3h-9l-5.53-5Z"/><path class="cls-7" d="M161.9,446.56a3.76,3.76,0,1,0,4.15,3.74,4,4,0,0,0-4.15-3.74Zm-2.34,39.38a2.14,2.14,0,0,0,1.87-1l7.71-13.44a.75.75,0,0,1,.48-.37,1,1,0,0,1,.83.09l.12.1a.67.67,0,0,1,.26.42l1.23,5.21a4.27,4.27,0,0,0,4.26,3.12H188a2.43,2.43,0,0,0,1.7-.65,1.94,1.94,0,0,0,.7-1.51v0a2.19,2.19,0,0,0-2.24-2.12l-10.73-.28a1,1,0,0,1-.9-.88v-3.78c0-4.06-2.29-8.49-5.4-12.33l-.27-.32.44-.07,3-.47a1,1,0,0,1,.8.23l1.63,1.59.7.67c.83.8,1.43,1.39,1.89,1.85a2.28,2.28,0,0,0,2.87.17,1.73,1.73,0,0,0,.4-2.54l-3-3.63a6.88,6.88,0,0,0-5.87-2.43l-6.55.52a13.17,13.17,0,0,0-9.21,4.63l-2.11,2.57a3.18,3.18,0,0,1-2.42,1.08,9.21,9.21,0,0,1-1.08-.07l-.46-.05c-1.36-.16-1.9-.1-2.48.47a1.89,1.89,0,0,0-.55,1.68,2.23,2.23,0,0,0,1.3,1.45,10.18,10.18,0,0,0,4.27.64,6.43,6.43,0,0,0,4.88-2.3l1.41-1.84.21.37,3.41,6.13a.67.67,0,0,1,0,.72l-7.13,13.15a2,2,0,0,0,.12,2.16,2.58,2.58,0,0,0,2.14,1.07Z"/><line class="cls-21" x1="441.52" y1="135.38" x2="441.52" y2="463.52"/><polygon class="cls-22" points="43.8 93.27 36.42 80.96 51.19 80.96 43.8 93.27"/><polygon class="cls-22" points="80.03 51.68 92.33 44.29 92.33 59.06 80.03 51.68"/><polygon class="cls-22" points="95.76 274.8 108.06 267.42 108.06 282.19 95.76 274.8"/><polygon class="cls-22" points="163.64 562.53 156.26 550.22 171.03 550.22 163.64 562.53"/><polygon class="cls-22" points="415.93 498.87 408.55 486.56 423.31 486.56 415.93 498.87"/><polygon class="cls-22" points="664.47 498.87 657.09 486.56 671.86 486.56 664.47 498.87"/><polygon class="cls-22" points="207.26 466.6 219.57 459.21 219.57 473.98 207.26 466.6"/><polygon class="cls-22" points="347.93 466.6 360.24 459.21 360.24 473.98 347.93 466.6"/><polygon class="cls-22" points="577.62 466.6 565.31 473.98 565.31 459.21 577.62 466.6"/><polygon class="cls-22" points="577.62 307.6 565.31 314.98 565.31 300.21 577.62 307.6"/><polygon class="cls-22" points="577.62 135.31 565.31 142.69 565.31 127.92 577.62 135.31"/><polygon class="cls-22" points="659.21 0 666.59 12.31 651.83 12.31 659.21 0"/><polygon class="cls-22" points="170.87 0.11 178.25 12.42 163.48 12.42 170.87 0.11"/><polygon class="cls-22" points="239.29 114.66 251.6 107.27 251.6 122.04 239.29 114.66"/><polygon class="cls-22" points="761.47 134.95 749.16 142.34 749.16 127.57 761.47 134.95"/><polygon class="cls-22" points="765.13 307.6 752.82 314.98 752.82 300.21 765.13 307.6"/><polygon class="cls-22" points="764.48 466.6 752.17 473.98 752.17 459.21 764.48 466.6"/><polygon class="cls-22" points="54.57 275.35 66.88 267.97 66.88 282.74 54.57 275.35"/><g class="cls-23"><path class="cls-24" d="M104.82,461.71a2.19,2.19,0,0,0-2.19,2.19v12a2.19,2.19,0,0,0,2.19,2.19h11.37a2.19,2.19,0,0,0,2.19-2.19v-12a2.19,2.19,0,0,0-2.19-2.19Zm0,.59h11.37a1.6,1.6,0,0,1,1.6,1.6v12a1.61,1.61,0,0,1-.47,1.13,1.56,1.56,0,0,1-1.13.46H104.82a1.56,1.56,0,0,1-1.13-.46,1.6,1.6,0,0,1-.46-1.13v-12a1.59,1.59,0,0,1,1.59-1.6Zm5.69,1.37a.31.31,0,0,0-.3.3v11.84a.31.31,0,0,0,.15.26.32.32,0,0,0,.3,0,.3.3,0,0,0,.14-.26V464a.3.3,0,0,0-.08-.21.29.29,0,0,0-.21-.09Zm-3.59.22a.76.76,0,0,0-.53,1.29.72.72,0,0,0,.53.23.75.75,0,0,0,.76-.76.75.75,0,0,0-.76-.75Zm7.43,0a.78.78,0,0,0-.66.38.79.79,0,0,0,0,.76.78.78,0,0,0,.66.38.76.76,0,0,0,0-1.52Zm-.09,1.81a2.69,2.69,0,0,0-1,.22s-1.15.56-1,.6v2.07l-1,2a.39.39,0,0,0,0,.28.34.34,0,0,0,.19.2.32.32,0,0,0,.27,0,.36.36,0,0,0,.21-.19l1-2.09h0v-.1a.61.61,0,0,0,0-.19V467.2a.1.1,0,0,1,.1-.1.11.11,0,0,1,.11.1V469l-.21.43-1.28,2.73h1.51v3.56c0,.09.2.16.45.16s.46-.07.46-.16v-3.56h.31v3.56c0,.09.2.16.46.16s.45-.07.45-.16v-3.56h1.49l-1.28-2.73-.18-.38v-1.86a.1.1,0,0,1,.1-.1.1.1,0,0,1,.11.1v1.36a.31.31,0,0,0,0,.19v.1h0l1,2.09a.36.36,0,1,0,.65-.31l-1-2v-2.09h0a5.6,5.6,0,0,0-.94-.59,3.06,3.06,0,0,0-1.12-.22Zm-9,.22v0h0c-.12,0-.24.1-.32.28a1.51,1.51,0,0,0-.14.67,1.93,1.93,0,0,0,0,.42v3.19c0,.09.14.17.3.17s.3-.08.31-.17v-3.06a.16.16,0,0,1,.15-.16.16.16,0,0,1,.16.16v3h0v5.27c0,.09.21.16.46.16s.45-.07.45-.16v-5.35a.16.16,0,0,1,.08-.14.22.22,0,0,1,.16,0,.17.17,0,0,1,.07.14v5.35c0,.09.21.16.46.16s.45-.07.45-.16v-5.27h0v-3.1h0a.16.16,0,0,1,.18-.06.16.16,0,0,1,.11.15v3.06c0,.09.13.17.3.17s.3-.08.3-.17v-3.19a1.93,1.93,0,0,0,0-.42c0-.49-.18-.9-.42-.95v0Z"/></g><path d="M238.3,308.89a10.41,10.41,0,0,1-4.27.77c-4.56,0-8-2.88-8-8.19,0-5.06,3.43-8.49,8.44-8.49a8.71,8.71,0,0,1,3.85.72l-.51,1.7a7.65,7.65,0,0,0-3.26-.67c-3.8,0-6.32,2.42-6.32,6.67,0,4,2.28,6.51,6.22,6.51a8.34,8.34,0,0,0,3.41-.68Z"/><path d="M251.09,303.51c0,4.3-3,6.17-5.78,6.17-3.15,0-5.57-2.3-5.57-6,0-3.88,2.54-6.16,5.76-6.16S251.09,300,251.09,303.51Zm-9.21.12c0,2.55,1.46,4.47,3.52,4.47s3.53-1.9,3.53-4.51c0-2-1-4.47-3.48-4.47S241.88,301.42,241.88,303.63Z"/><path d="M253.76,301c0-1.21,0-2.19-.1-3.15h1.87l.12,1.92h0a4.28,4.28,0,0,1,3.84-2.18c1.61,0,4.1,1,4.1,4.94v6.94h-2.11v-6.7c0-1.87-.69-3.43-2.69-3.43a3,3,0,0,0-2.83,2.16,3.17,3.17,0,0,0-.14,1v7h-2.11Z"/><path d="M267.29,309.42v-10h-1.63V297.8h1.63v-.55a5.47,5.47,0,0,1,1.35-4.06,4,4,0,0,1,2.83-1.08,4.87,4.87,0,0,1,1.8.34l-.29,1.63a3.2,3.2,0,0,0-1.34-.26c-1.8,0-2.26,1.58-2.26,3.36v.62h2.81v1.61h-2.81v10Z"/><path d="M275,304a3.72,3.72,0,0,0,4,4,7.72,7.72,0,0,0,3.22-.6l.36,1.51a9.5,9.5,0,0,1-3.86.72c-3.58,0-5.72-2.35-5.72-5.86s2.07-6.26,5.45-6.26c3.79,0,4.8,3.33,4.8,5.47a8.79,8.79,0,0,1-.07,1Zm6.19-1.51c0-1.34-.55-3.43-2.93-3.43-2.13,0-3.07,2-3.24,3.43Z"/><path d="M285.8,301.42c0-1.36,0-2.54-.1-3.62h1.85l.07,2.28h.1a3.47,3.47,0,0,1,3.21-2.54,2.2,2.2,0,0,1,.6.07v2a3,3,0,0,0-.72-.07,3,3,0,0,0-2.83,2.71,5.7,5.7,0,0,0-.1,1v6.19H285.8Z"/><path d="M294.58,304a3.72,3.72,0,0,0,4,4,7.72,7.72,0,0,0,3.22-.6l.36,1.51a9.5,9.5,0,0,1-3.86.72c-3.58,0-5.72-2.35-5.72-5.86s2.07-6.26,5.45-6.26c3.79,0,4.8,3.33,4.8,5.47a8.79,8.79,0,0,1-.07,1Zm6.19-1.51c0-1.34-.55-3.43-2.93-3.43-2.13,0-3.07,2-3.24,3.43Z"/><path d="M305.43,301c0-1.21,0-2.19-.1-3.15h1.87l.12,1.92h.05a4.28,4.28,0,0,1,3.84-2.18c1.61,0,4.11,1,4.11,4.94v6.94H313.2v-6.7c0-1.87-.69-3.43-2.68-3.43a3,3,0,0,0-2.84,2.16,3.17,3.17,0,0,0-.14,1v7h-2.11Z"/><path d="M327,309a7.92,7.92,0,0,1-3.34.67c-3.5,0-5.78-2.38-5.78-5.93a5.9,5.9,0,0,1,6.24-6.17,7,7,0,0,1,2.93.6l-.48,1.63a4.91,4.91,0,0,0-2.45-.55c-2.67,0-4.11,2-4.11,4.39,0,2.69,1.73,4.35,4,4.35a5.9,5.9,0,0,0,2.59-.58Z"/><path d="M330.53,304a3.73,3.73,0,0,0,4,4,7.7,7.7,0,0,0,3.21-.6l.36,1.51a9.46,9.46,0,0,1-3.86.72c-3.58,0-5.71-2.35-5.71-5.86s2.06-6.26,5.44-6.26c3.8,0,4.8,3.33,4.8,5.47a6.87,6.87,0,0,1-.07,1Zm6.19-1.51c0-1.34-.55-3.43-2.92-3.43-2.14,0-3.08,2-3.24,3.43Z"/><path d="M269.2,338.22l-.17-1.47H269a4.31,4.31,0,0,1-3.55,1.73,3.31,3.31,0,0,1-3.55-3.33c0-2.81,2.49-4.35,7-4.33v-.24a2.39,2.39,0,0,0-2.64-2.68,5.74,5.74,0,0,0-3,.86l-.48-1.39a7.14,7.14,0,0,1,3.81-1c3.55,0,4.42,2.42,4.42,4.75v4.34a16.83,16.83,0,0,0,.19,2.79Zm-.31-5.93c-2.31-.05-4.92.36-4.92,2.62a1.87,1.87,0,0,0,2,2,2.9,2.9,0,0,0,2.81-1.94,2.31,2.31,0,0,0,.12-.67Z"/><path d="M274.34,330.22c0-1.36,0-2.54-.1-3.62h1.85l.07,2.28h.1a3.47,3.47,0,0,1,3.21-2.54,2.2,2.2,0,0,1,.6.07v2a3,3,0,0,0-.72-.07,3,3,0,0,0-2.83,2.71,5.7,5.7,0,0,0-.1,1v6.19h-2.08Z"/><path d="M283.12,332.79a3.72,3.72,0,0,0,4,4,7.74,7.74,0,0,0,3.22-.59l.36,1.51a9.5,9.5,0,0,1-3.86.72c-3.58,0-5.72-2.35-5.72-5.86s2.07-6.26,5.45-6.26c3.79,0,4.8,3.33,4.8,5.47a8.79,8.79,0,0,1-.07,1Zm6.19-1.51c0-1.34-.55-3.43-2.93-3.43-2.13,0-3.07,2-3.24,3.43Z"/><path d="M300.4,338.22l-.17-1.47h-.07a4.31,4.31,0,0,1-3.55,1.73,3.31,3.31,0,0,1-3.56-3.33c0-2.81,2.5-4.35,7-4.33v-.24a2.39,2.39,0,0,0-2.64-2.68,5.8,5.8,0,0,0-3,.86l-.48-1.39a7.21,7.21,0,0,1,3.82-1c3.55,0,4.42,2.42,4.42,4.75v4.34a16.83,16.83,0,0,0,.19,2.79Zm-.31-5.93c-2.31-.05-4.92.36-4.92,2.62a1.87,1.87,0,0,0,2,2A2.9,2.9,0,0,0,300,335a2.31,2.31,0,0,0,.12-.67Z"/></g></g></svg>