<svg xmlns="http://www.w3.org/2000/svg" viewBox="0 0 458.7 33.08"><defs><style>.cls-1{fill:#fff;}</style></defs><title>资源 52</title><g id="图层_2" data-name="图层 2"><g id="图层_1-2" data-name="图层 1"><path class="cls-1" d="M3.13,1.3V11.45H14.87V1.3H18V25.56H14.87V14.18H3.13V25.56H0V1.3Z"/><path class="cls-1" d="M33,25.56l-.25-2.2h-.11A6.48,6.48,0,0,1,27.32,26,5,5,0,0,1,22,21c0-4.21,3.74-6.52,10.47-6.48v-.36c0-1.44-.4-4-4-4A8.66,8.66,0,0,0,24,11.37l-.73-2.08A10.82,10.82,0,0,1,29,7.74c5.33,0,6.62,3.63,6.62,7.13v6.51a24.19,24.19,0,0,0,.29,4.18Zm-.47-8.89c-3.45-.08-7.38.54-7.38,3.92a2.8,2.8,0,0,0,3,3,4.33,4.33,0,0,0,4.21-2.91,3.31,3.31,0,0,0,.18-1Z"/><path class="cls-1" d="M40.71,12.85c0-1.8,0-3.28-.14-4.72h2.81L43.56,11h.07a6.41,6.41,0,0,1,5.76-3.27c2.41,0,6.15,1.44,6.15,7.41V25.56H52.38v-10c0-2.8-1.05-5.14-4-5.14a4.49,4.49,0,0,0-4.25,3.24,4.33,4.33,0,0,0-.22,1.47V25.56H40.71Z"/><path class="cls-1" d="M75.7,8.13c-.07,1.26-.14,2.67-.14,4.79V23c0,4-.79,6.44-2.48,8a9.23,9.23,0,0,1-6.34,2.09A11.17,11.17,0,0,1,61,31.64l.79-2.41a9.81,9.81,0,0,0,5.11,1.37c3.24,0,5.61-1.7,5.61-6.09V22.57h-.07a6.21,6.21,0,0,1-5.54,2.91c-4.32,0-7.42-3.67-7.42-8.49,0-5.9,3.86-9.25,7.85-9.25a5.81,5.81,0,0,1,5.44,3h.07l.14-2.63ZM72.43,15a4.62,4.62,0,0,0-.18-1.44,4.57,4.57,0,0,0-4.43-3.35c-3,0-5.18,2.56-5.18,6.59,0,3.42,1.73,6.26,5.15,6.26a4.63,4.63,0,0,0,4.39-3.24,5.5,5.5,0,0,0,.25-1.69Z"/><path class="cls-1" d="M78.84,23.72l7.88-10.26c.76-.93,1.48-1.76,2.27-2.7v-.07H79.56V8.13H92.84l0,2L85,20.23c-.72,1-1.44,1.84-2.23,2.73V23H93v2.52H78.84Z"/><path class="cls-1" d="M96.23,0h3.16V10.87h.07a5.93,5.93,0,0,1,2.27-2.23,6.53,6.53,0,0,1,3.24-.9c2.34,0,6.09,1.44,6.09,7.45V25.56h-3.17v-10c0-2.81-1-5.18-4-5.18a4.55,4.55,0,0,0-4.25,3.16,3.87,3.87,0,0,0-.22,1.52V25.56H96.23Z"/><path class="cls-1" d="M132,16.7c0,6.44-4.46,9.25-8.67,9.25-4.72,0-8.35-3.45-8.35-9,0-5.83,3.81-9.25,8.63-9.25C128.59,7.74,132,11.37,132,16.7Zm-13.82.18c0,3.82,2.19,6.7,5.29,6.7s5.29-2.85,5.29-6.77c0-2.95-1.47-6.7-5.22-6.7S118.15,13.57,118.15,16.88Z"/><path class="cls-1" d="M150.55,20.81c0,1.8,0,3.38.14,4.75h-2.81l-.18-2.85h-.07A6.54,6.54,0,0,1,141.87,26c-2.73,0-6-1.51-6-7.63V8.13H139v9.65c0,3.31,1,5.55,3.89,5.55a4.57,4.57,0,0,0,4.17-2.88,4.67,4.67,0,0,0,.29-1.62V8.13h3.17Z"/><path class="cls-1" d="M153.46,30a50.26,50.26,0,0,0,2.16-8.6l3.53-.36a43.86,43.86,0,0,1-3.42,8.75Z"/><path class="cls-1" d="M170.71,25.56V1.3h3.42l7.77,12.27a68.42,68.42,0,0,1,4.36,7.88l.07,0c-.29-3.24-.36-6.19-.36-10V1.3h2.95V25.56h-3.17l-7.7-12.31a77.38,77.38,0,0,1-4.53-8.1l-.11,0c.18,3.06.25,6,.25,10V25.56Z"/><path class="cls-1" d="M210.05,16.7c0,6.44-4.46,9.25-8.67,9.25-4.72,0-8.35-3.45-8.35-9,0-5.83,3.81-9.25,8.64-9.25C206.67,7.74,210.05,11.37,210.05,16.7Zm-13.82.18c0,3.82,2.2,6.7,5.29,6.7s5.29-2.85,5.29-6.77c0-2.95-1.47-6.7-5.22-6.7S196.23,13.57,196.23,16.88Z"/><path class="cls-1" d="M215,8.13l3.42,9.8a43.51,43.51,0,0,1,1.41,4.46H220c.39-1.44.89-2.88,1.47-4.46l3.38-9.8h3.32l-6.84,17.43h-3L211.64,8.13Z"/><path class="cls-1" d="M232.52,17.42c.07,4.29,2.81,6,6,6a11.55,11.55,0,0,0,4.83-.9l.54,2.27a14.23,14.23,0,0,1-5.8,1.08c-5.36,0-8.56-3.53-8.56-8.79s3.09-9.39,8.17-9.39c5.68,0,7.2,5,7.2,8.21a13.13,13.13,0,0,1-.11,1.47Zm9.29-2.27c0-2-.83-5.14-4.4-5.14-3.2,0-4.6,3-4.86,5.14Z"/><path class="cls-1" d="M248.79,12.85c0-1.8,0-3.28-.14-4.72h2.77l.14,2.81h.11a6,6,0,0,1,5.47-3.2,5.14,5.14,0,0,1,4.93,3.49h.08A7.2,7.2,0,0,1,264.09,9a6,6,0,0,1,3.85-1.22c2.3,0,5.72,1.51,5.72,7.56V25.56h-3.09V15.69c0-3.34-1.23-5.36-3.78-5.36A4.11,4.11,0,0,0,263,13.21a5.34,5.34,0,0,0-.25,1.58V25.56H259.7V15.12c0-2.77-1.23-4.79-3.64-4.79a4.31,4.31,0,0,0-3.92,3.17,4.38,4.38,0,0,0-.25,1.55V25.56h-3.1Z"/><path class="cls-1" d="M278.67,25.56c.07-1.19.14-2.95.14-4.5V0H282V10.94H282A6.49,6.49,0,0,1,288,7.74c4.32,0,7.38,3.6,7.34,8.89,0,6.23-3.92,9.32-7.81,9.32a6.2,6.2,0,0,1-5.83-3.27h-.11l-.14,2.88Zm3.28-7a6.14,6.14,0,0,0,.14,1.16,4.89,4.89,0,0,0,4.75,3.7c3.31,0,5.29-2.7,5.29-6.69,0-3.49-1.8-6.48-5.18-6.48a5,5,0,0,0-4.82,3.89,5.72,5.72,0,0,0-.18,1.29Z"/><path class="cls-1" d="M301.06,17.42c.07,4.29,2.81,6,6,6a11.53,11.53,0,0,0,4.82-.9l.54,2.27a14.13,14.13,0,0,1-5.79,1.08c-5.37,0-8.57-3.53-8.57-8.79s3.09-9.39,8.17-9.39c5.69,0,7.2,5,7.2,8.21a11.08,11.08,0,0,1-.11,1.47Zm9.29-2.27c0-2-.83-5.14-4.39-5.14-3.21,0-4.61,3-4.86,5.14Z"/><path class="cls-1" d="M317.33,13.57c0-2.05,0-3.82-.14-5.44H320l.11,3.42h.14A5.23,5.23,0,0,1,325,7.74a3.13,3.13,0,0,1,.9.11v3a5,5,0,0,0-1.08-.1c-2.24,0-3.82,1.69-4.25,4.06a9.31,9.31,0,0,0-.14,1.48v9.29h-3.14Z"/><path class="cls-1" d="M335.73,25.56V23.61l2.48-2.41c6-5.69,8.68-8.71,8.71-12.24,0-2.37-1.15-4.57-4.64-4.57a8,8,0,0,0-5,2l-1-2.23a10.25,10.25,0,0,1,6.62-2.38c5,0,7.16,3.46,7.16,6.81,0,4.32-3.13,7.81-8.06,12.56l-1.87,1.73v.07h10.51v2.63Z"/><path class="cls-1" d="M369.75,13.61c0,8-3,12.34-8.14,12.34-4.57,0-7.66-4.28-7.74-12S357.26,1.76,362,1.76C366.94,1.76,369.75,6.16,369.75,13.61ZM357,14c0,6.08,1.87,9.53,4.75,9.53,3.24,0,4.79-3.77,4.79-9.75,0-5.76-1.48-9.54-4.75-9.54C359.06,4.21,357,7.59,357,14Z"/><path class="cls-1" d="M371.62,30a52.19,52.19,0,0,0,2.16-8.6l3.53-.36a43.86,43.86,0,0,1-3.42,8.75Z"/><path class="cls-1" d="M387.75,25.56V23.61l2.48-2.41c6-5.69,8.68-8.71,8.71-12.24,0-2.37-1.15-4.57-4.64-4.57a8,8,0,0,0-5,2l-1-2.23A10.28,10.28,0,0,1,395,1.76c5,0,7.16,3.46,7.16,6.81,0,4.32-3.13,7.81-8.06,12.56l-1.88,1.73v.07h10.52v2.63Z"/><path class="cls-1" d="M421.77,13.61c0,8-3,12.34-8.14,12.34-4.57,0-7.67-4.28-7.74-12S409.28,1.76,414,1.76C419,1.76,421.77,6.16,421.77,13.61ZM409.06,14c0,6.08,1.87,9.53,4.75,9.53,3.24,0,4.79-3.77,4.79-9.75,0-5.76-1.48-9.54-4.75-9.54C411.08,4.21,409.06,7.59,409.06,14Z"/><path class="cls-1" d="M424.68,25.56V23.61l2.49-2.41c6-5.69,8.67-8.71,8.71-12.24,0-2.37-1.15-4.57-4.65-4.57a8,8,0,0,0-5,2l-1-2.23a10.25,10.25,0,0,1,6.62-2.38c5,0,7.17,3.46,7.17,6.81,0,4.32-3.14,7.81-8.07,12.56l-1.87,1.73v.07h10.51v2.63Z"/><path class="cls-1" d="M458.7,13.61c0,8-2.95,12.34-8.13,12.34-4.57,0-7.67-4.28-7.74-12S446.21,1.76,451,1.76C455.89,1.76,458.7,6.16,458.7,13.61ZM446,14c0,6.08,1.87,9.53,4.75,9.53,3.24,0,4.78-3.77,4.78-9.75,0-5.76-1.47-9.54-4.75-9.54C448,4.21,446,7.59,446,14Z"/></g></g></svg>