<svg xmlns="http://www.w3.org/2000/svg" viewBox="0 0 540.37 213.15"><defs><style>.cls-1{fill:#fff;}</style></defs><title>资源 2</title><g id="图层_2" data-name="图层 2"><g id="图层_1-2" data-name="图层 1"><path class="cls-1" d="M0,210.2v-1.78a78.9,78.9,0,0,0,5.91-5.75,16,16,0,0,0,2.36-3.24A5.47,5.47,0,0,0,8.94,197a2.62,2.62,0,0,0-1-2.14,4.26,4.26,0,0,0-2.82-.9A7.76,7.76,0,0,0,1,195.23l-.51-1.74a10.86,10.86,0,0,1,4.85-1.21,6.77,6.77,0,0,1,3.9,1A4,4,0,0,1,11,196.81a8.21,8.21,0,0,1-1.87,4.78,45.51,45.51,0,0,1-6.67,6.92h8.69v1.69Z"/><path class="cls-1" d="M20.51,192.28q6,0,6,9.08t-6.08,9.09q-6.06,0-6.07-9.1a13.63,13.63,0,0,1,1.15-6.23A5.23,5.23,0,0,1,20.51,192.28ZM20.36,194a3.35,3.35,0,0,0-3.25,2.36,13.58,13.58,0,0,0-.7,5,12.69,12.69,0,0,0,.86,5.41,3.32,3.32,0,0,0,3.15,2,3.39,3.39,0,0,0,3.31-2.35,14,14,0,0,0,.69-5.07,12.46,12.46,0,0,0-.86-5.39A3.35,3.35,0,0,0,20.36,194Z"/><path class="cls-1" d="M29.41,210.2v-1.78a78.9,78.9,0,0,0,5.91-5.75,16,16,0,0,0,2.36-3.24,5.45,5.45,0,0,0,.66-2.48,2.62,2.62,0,0,0-1-2.14,4.26,4.26,0,0,0-2.82-.9,7.74,7.74,0,0,0-4.11,1.32l-.51-1.74a10.86,10.86,0,0,1,4.85-1.21,6.82,6.82,0,0,1,3.9,1,4,4,0,0,1,1.74,3.49,8.21,8.21,0,0,1-1.87,4.78,45.16,45.16,0,0,1-6.68,6.92h8.7v1.69Z"/><path class="cls-1" d="M49.65,210.2V194.76l-3.6,2.29-.86-1.56,4.66-3h1.77V210.2Z"/><path class="cls-1" d="M72,206.73v6.42h-1.6v-6.42H58.52v-1.59h4.61v-6.51h7.24v-4.15H64.24l-.41.73A48,48,0,0,1,61,199.59l-1.5-.92a31.1,31.1,0,0,0,2.91-4.44,28.33,28.33,0,0,0,2.25-5.13l1.8.71c-.35.84-.75,1.69-1.19,2.54l-.26.54H79.53v1.59H72v4.15h6.41v1.6H72v4.91h9.27v1.59Zm-7.24-1.59h5.64v-4.91H64.73Z"/><path class="cls-1" d="M84.54,209.33l.75-1.66a7.86,7.86,0,0,0,3.83,1.14,4.26,4.26,0,0,0,3.26-1.3,4.49,4.49,0,0,0,1.14-3.13,3.69,3.69,0,0,0-1-2.63,3.87,3.87,0,0,0-3-1.15,12.82,12.82,0,0,0-4.53,1l.26-9h9.53v1.68H87.29l-.2,5.16a10.46,10.46,0,0,1,2.78-.41A5.74,5.74,0,0,1,94,200.38a5.32,5.32,0,0,1,1.63,4.1,5.6,5.6,0,0,1-2,4.53,6.6,6.6,0,0,1-4.36,1.44A10.72,10.72,0,0,1,84.54,209.33Z"/><path class="cls-1" d="M117.46,204.18H105.08a16,16,0,0,1-1,3.66,19.08,19.08,0,0,1-3.07,5.3l-1.33-1.06a17.16,17.16,0,0,0,2.25-3.42,16.43,16.43,0,0,0,1.61-5.32,32,32,0,0,0,.21-3.93l0-8.81h15.34v19.19a2.45,2.45,0,0,1-.85,2.15,9.4,9.4,0,0,1-3.81.82l-.74-2.13H116a1.47,1.47,0,0,0,1.2-.37,1.86,1.86,0,0,0,.26-1.15Zm-12.21-1.6h12.21v-4.42H105.31l0,1.66C105.33,200.86,105.3,201.79,105.25,202.58Zm.06-6h12.15v-4.37H105.3Z"/><path class="cls-1" d="M124.57,210.2v-1.78a76.45,76.45,0,0,0,5.9-5.75,16.57,16.57,0,0,0,2.37-3.24,5.45,5.45,0,0,0,.66-2.48,2.64,2.64,0,0,0-1-2.14,4.3,4.3,0,0,0-2.82-.9,7.71,7.71,0,0,0-4.11,1.32l-.51-1.74a10.82,10.82,0,0,1,4.84-1.21,6.83,6.83,0,0,1,3.91,1,4,4,0,0,1,1.74,3.49,8.21,8.21,0,0,1-1.87,4.78,45.65,45.65,0,0,1-6.68,6.92h8.7v1.69Z"/><path class="cls-1" d="M149.6,192.3l-.1,1.66c-.44,0-.8-.05-1.08-.05q-6,0-6.83,7.18a5.19,5.19,0,0,1,4.26-2.05,5.25,5.25,0,0,1,3,.88,5.17,5.17,0,0,1,2.21,4.66,5.56,5.56,0,0,1-5.82,5.87,5.08,5.08,0,0,1-4.64-2.28,9.22,9.22,0,0,1-1.2-5,14,14,0,0,1,1.46-6.56q2.26-4.31,7.61-4.3Zm-4.34,8.38a3.52,3.52,0,0,0-2.69,1.12,4.82,4.82,0,0,0,0,5.93,3.54,3.54,0,0,0,2.7,1.08,3.58,3.58,0,0,0,2.71-1.08,4.23,4.23,0,0,0,1-3,4.29,4.29,0,0,0-.95-2.95A3.51,3.51,0,0,0,145.26,200.68Z"/><path class="cls-1" d="M157.34,212.38V191.6h15.55v20.69H171.3V210.1H158.94v2.28Zm1.6-12.53H171.3V193.2H158.94Zm12.36,8.65v-7.05H158.94v7.05Z"/><path class="cls-1" d="M178.89,203.84v-1.56h5.89v1.56Z"/><path class="cls-1" d="M187.43,210.2v-1.78a75.14,75.14,0,0,0,5.91-5.75,16.57,16.57,0,0,0,2.37-3.24,5.45,5.45,0,0,0,.66-2.48,2.64,2.64,0,0,0-1-2.14,4.3,4.3,0,0,0-2.82-.9,7.71,7.71,0,0,0-4.11,1.32l-.51-1.74a10.82,10.82,0,0,1,4.84-1.21,6.77,6.77,0,0,1,3.9,1,4,4,0,0,1,1.75,3.49,8.28,8.28,0,0,1-1.87,4.78,45.65,45.65,0,0,1-6.68,6.92h8.7v1.69Z"/><path class="cls-1" d="M205.93,201a7.89,7.89,0,0,1-2.33-1.45,3.93,3.93,0,0,1-1.12-2.9,3.86,3.86,0,0,1,1.53-3.25,6.1,6.1,0,0,1,3.87-1.16,6.31,6.31,0,0,1,4,1.17,3.83,3.83,0,0,1,1.47,3.21,3.76,3.76,0,0,1-1.54,3.14,10.92,10.92,0,0,1-1.71,1,8.28,8.28,0,0,1,2.39,1.41,4.06,4.06,0,0,1,1.36,3.21,4.52,4.52,0,0,1-1.65,3.72,6.65,6.65,0,0,1-4.3,1.31,6.76,6.76,0,0,1-4.25-1.26,4.2,4.2,0,0,1-1.68-3.53C201.92,203.36,203.25,201.82,205.93,201Zm1.79.7c-2.49.74-3.74,2-3.74,3.83a2.84,2.84,0,0,0,1.1,2.37,4.38,4.38,0,0,0,2.79.87,4.2,4.2,0,0,0,2.79-.91,2.75,2.75,0,0,0,1.07-2.25,3.16,3.16,0,0,0-1.6-2.72,15.36,15.36,0,0,0-1.61-.85A8.32,8.32,0,0,0,207.72,201.74Zm.74-1.6.22-.11q2.58-1.28,2.58-3.3a2.44,2.44,0,0,0-.91-2.06,4.42,4.42,0,0,0-4.88,0,2.4,2.4,0,0,0-.95,2.07,2.76,2.76,0,0,0,1.64,2.43A16.39,16.39,0,0,0,208.46,200.14Z"/><path class="cls-1" d="M220.21,212.38V191.6h15.55v20.69h-1.59V210.1H221.8v2.28Zm1.59-12.53h12.37V193.2H221.8Zm12.37,8.65v-7.05H221.8v7.05Z"/><path class="cls-1" d="M254.18,206.53v-7.14h7.14v7.14Z"/><path class="cls-1" d="M290,192.38h8.78V194H280v6.79a40.55,40.55,0,0,1-.51,7.46,15.59,15.59,0,0,1-1.9,4.82l-1.67-1.11a10,10,0,0,0,1.92-4,30.18,30.18,0,0,0,.57-6.43v-9.13H289.1l-.63-.63a19.47,19.47,0,0,0-2-1.73l1.16-1.24a27.73,27.73,0,0,1,3.19,2.77Z"/><path class="cls-1" d="M322.43,212.91h-1.59v-2H305.37v2h-1.59V197.27h6.08v-4.46h-8v-1.59h22.55v1.59h-8.16v4.46h6.15Zm-17.06-3.58h15.47V198.87h-4.56v4.66a.84.84,0,0,0,.94,1h2.46v1.59h-2.79a2.4,2.4,0,0,1-1.69-.49,2.15,2.15,0,0,1-.52-1.61v-5.11h-3.3a13.6,13.6,0,0,1-.24,2.73,9.42,9.42,0,0,1-1.2,3,17.16,17.16,0,0,1-1.8,2.16l-1.36-1.22a11.64,11.64,0,0,0,2.07-2.31,7.16,7.16,0,0,0,.88-3.36c0-.15,0-.49,0-1h-4.41Zm6.08-12.06h3.23v-4.46h-3.23Z"/><path class="cls-1" d="M326.91,209.8a31.44,31.44,0,0,0,6.44-3.1l.7-.47v-8.66h-6.6V196h6.6v-6.41h1.59v23.18h-1.59v-4.58l-.53.33c-.16.09-.37.23-.65.41a34,34,0,0,1-5.09,2.61Zm16-11v11a1.22,1.22,0,0,0,.23.81,1.09,1.09,0,0,0,.85.26h2.37a1.45,1.45,0,0,0,.88-.25c.4-.27.71-1.45.94-3.53l1.67.5a22.68,22.68,0,0,1-.8,3.72,2,2,0,0,1-2,1.15H343a1.54,1.54,0,0,1-1.08-.43,1.82,1.82,0,0,1-.55-1.41V189.57H343V197l.79-.31a19,19,0,0,0,5-2.76l1.16,1.45A44.35,44.35,0,0,1,345,198l-1.81.75Z"/><path class="cls-1" d="M352.5,197.32l1-1.49a23.81,23.81,0,0,1,4.05,2.79l-1.09,1.62a29.5,29.5,0,0,0-2.64-2.11c-.16-.1-.39-.25-.71-.43Zm.41,14.35a27.14,27.14,0,0,0,2-4,41.47,41.47,0,0,0,1.42-4.31l1.77,1c-.79,2.24-1.35,3.73-1.68,4.49-.41.95-1,2.2-1.78,3.74Zm1.2-20.81,1.12-1.32a22,22,0,0,1,4.11,2.8l-1.27,1.45A36.71,36.71,0,0,0,354.11,190.86Zm6.06,6.83-1.59-1.24a18.43,18.43,0,0,0,4.25-7.19l1.87.71-1,2.24h11.56v1.6h-12.4l-.08.14c-.9,1.45-1.43,2.27-1.58,2.47l-.62.75Zm1.88-1.59h11.54l-.17,5.71h2.43v1.6h-2.51l-.2,4.49h2.3v1.6h-2.38l-.11,1.66a1.65,1.65,0,0,1-1.44,1.63,16.64,16.64,0,0,1-2.91.31l-.43-2H370a2.49,2.49,0,0,0,.73-.06c.18-.08.29-.3.33-.65l.13-.92H361l.49-6.09h-2.56v-1.6h2.71Zm.86,11.8h8.33l.22-4.49h-8.17Zm.52-6.09h8.1l.15-4.11h-7.94Zm2.75,2.92,1.64-.56a24.08,24.08,0,0,1,.88,2.51l-1.71.51A9.85,9.85,0,0,0,366.18,204.73Zm.05-5.87,1.64-.46a11.57,11.57,0,0,1,.83,2.18l-1.67.5A9.82,9.82,0,0,0,366.23,198.86Z"/><path class="cls-1" d="M27.54,159.92h-2v-2.5H6.15v2.5h-2V140.31h7.62v-5.59h-10v-2H30.05v2H19.82v5.59h7.72Zm-21.39-4.5H25.54V142.31H19.82v5.85a1.05,1.05,0,0,0,1.19,1.2h3.07v2h-3.5a3,3,0,0,1-2.1-.62,2.68,2.68,0,0,1-.66-2v-6.41H13.68a16.91,16.91,0,0,1-.3,3.43,11.75,11.75,0,0,1-1.5,3.76,21,21,0,0,1-2.26,2.7l-1.71-1.53a14.18,14.18,0,0,0,2.6-2.89,9.19,9.19,0,0,0,1.11-4.22c0-.18,0-.6.06-1.25H6.15Zm7.62-15.11h4.05v-5.59H13.77Z"/><path class="cls-1" d="M35.35,159.52V136.89h2v22.63Zm2.78-27.8,1.74-1.08,2.78,4.49-1.94,1.14A46.25,46.25,0,0,0,38.13,131.72Zm21.61.55v24a3,3,0,0,1-.76,2.28c-.61.56-2,1-4.13,1.19l-1.16-2.6h2.6a1.87,1.87,0,0,0,1.08-.25c.25-.16.37-.57.37-1.22v-21.4H45.55v-2Z"/><path class="cls-1" d="M79.23,138.91l7.62-4.38-18.44,0v-2H91.54v2.06a58.36,58.36,0,0,0-8.24,4.28c-.66.42-1.12.69-1.36.83l-.73.47v3.91h13v2h-13v11a2.29,2.29,0,0,1-1.75,2.43,17.84,17.84,0,0,1-3.72.55l-1.08-2.61h3.22c.89,0,1.33-.43,1.33-1.28V146.11H65.05v-2H79.21Z"/><path class="cls-1" d="M97.49,138.27a4.7,4.7,0,0,0,2-1.39,39.22,39.22,0,0,0,4.2-6.39l2.25,1-1,1.38q-1.95,2.72-3.15,4.19c-.21.26-.59.74-1.14,1.45l2.75-.19,2.92-.2c1.08-.09,1.89-.15,2.42-.21-.39-.63-1.07-1.64-2.06-3l1.78-1.11c.34.47.9,1.21,1.69,2.22q.22.31,2.46,3.61l-2.07,1.17a8.84,8.84,0,0,0-.69-1.16l-.67.05-2.67.22A51.33,51.33,0,0,0,98.27,141Zm1.74,4.47H110.4v14.39A3.41,3.41,0,0,1,110,159a2.72,2.72,0,0,1-1.56.8,23.75,23.75,0,0,1-2.57.34l-.53-2.31H107a1.69,1.69,0,0,0,1.3-.42,2.2,2.2,0,0,0,.14-1v-2.56h-7.17V160h-2Zm2,4.75h7.17v-3.05h-7.17Zm0,4.65h7.17v-2.95h-7.17Zm15.09-16.09,1-.47.53-.25a34.76,34.76,0,0,0,4.8-2.73l1.37,1.75c-1.45.73-2.33,1.18-2.65,1.32q-4,1.8-5.05,2.35v1.65a2,2,0,0,0,.26,1.13c.2.27.78.4,1.74.4h3.34a1.75,1.75,0,0,0,1.85-1.34l.42-1.36,2,1-.5,1.58a4,4,0,0,1-.8,1.23,2.27,2.27,0,0,1-1.26.77,10.25,10.25,0,0,1-1.72.1h-5.13a2.12,2.12,0,0,1-1.76-.65,3.19,3.19,0,0,1-.47-1.92V130.56h2Zm.06,14.3c.3-.14.67-.29,1.1-.46a49.88,49.88,0,0,0,5.43-2.84l1.41,1.78q-2.17,1.06-6.55,2.94c-.08,0-.54.23-1.37.61V156c0,.72.19,1.17.58,1.36a3.54,3.54,0,0,0,1.46.23h2.66a3.63,3.63,0,0,0,1.92-.34,1.66,1.66,0,0,0,.67-1.08l.41-1.74,2.13,1-.52,1.62a3.16,3.16,0,0,1-1.72,2.08,5.62,5.62,0,0,1-2.28.5h-4.5a3.41,3.41,0,0,1-2.25-.51,2.24,2.24,0,0,1-.58-1.66V144.55h2Z"/><path class="cls-1" d="M128.58,141.16,130,139.3c1.34.86,2.13,1.37,2.36,1.53a21.72,21.72,0,0,1,2.45,2l-1.67,2A21.42,21.42,0,0,0,128.58,141.16Zm.8,17.14a41.36,41.36,0,0,0,4.11-10.39l2.14,1.22c-.39,1.07-.92,2.49-1.56,4.25a48.44,48.44,0,0,1-2.66,6.09Zm1.3-25.63,1.33-1.75a24.81,24.81,0,0,1,4.82,3.47l-1.62,1.89A24.67,24.67,0,0,0,130.68,132.67Zm27,.85H140.37v8.92c0,3.59-.07,6.07-.21,7.42a21.24,21.24,0,0,1-1.72,6.91,29.81,29.81,0,0,1-1.93,3.26l-1.74-1.43a15.64,15.64,0,0,0,2.72-5.6,51,51,0,0,0,.88-11.17v-10h19.34Zm-17.63,23.53a34.37,34.37,0,0,0,3.66-7.05l2.11.95a68.14,68.14,0,0,1-3.77,7.27Zm7-19.85c.06-.22.14-.52.25-.89a18.85,18.85,0,0,0,.44-2.07l2.28.23q-.25,1-.78,2.73h7.15v11h-6v8.36c0,1.46-.26,2.38-.79,2.75a7.67,7.67,0,0,1-3.36,1l-1-2.44h1.77c.9,0,1.34-.66,1.34-2v-7.64h-6.15v-11Zm-2.78,4.54h10.12v-2.83H144.29Zm0,4.73h10.12v-3H144.29Zm8.11,4.86,1.92-1a66,66,0,0,1,4,6.86l-2.13,1.08A33.9,33.9,0,0,0,152.4,151.33Z"/><path class="cls-1" d="M161.51,157.49v-2h13.37V135.22h-10.7v-2h23.31v2H176.88v20.27h13.06v2Z"/><path class="cls-1" d="M222.16,158.6H193.37v-2h9.95V130.8h2v25.8h4.93V130.8h2v25.8h9.92ZM194.68,138l2.11-.78a87.87,87.87,0,0,1,3.79,12.55l-2.12.67q-1.05-4.71-1.63-6.64A52.8,52.8,0,0,0,194.68,138Zm19.48,12.13a83.61,83.61,0,0,0,4.39-12.85l2.3.66q-2.29,7.53-4.56,13Z"/><path class="cls-1" d="M225.24,158.31a20.31,20.31,0,0,0,2.55-6.42,35.12,35.12,0,0,0,.72-5c.14-2.1.22-3.52.22-4.28v-8.79h11.45a18.3,18.3,0,0,0-1-3.06l2.36-.59a19.38,19.38,0,0,1,.72,1.83l.47,1.34c0,.12.09.29.16.48h11.07v2H230.73v6.71c0,.45-.1,2.23-.29,5.36a35.26,35.26,0,0,1-2.79,11.43Zm5.88-1.9h13.26a132.9,132.9,0,0,0,6-15.89l2.45.7q-2.36,7-6,15.19h7.17v2H231.12Zm1.32-13.6,2.14-.89q2,4.54,3.82,10l-2.35.81A72.7,72.7,0,0,0,232.44,142.81Zm7.29-3.56,2.29-.62q1.35,5.07,2.22,10l-2.28.48A90,90,0,0,0,239.73,139.25Z"/><path class="cls-1" d="M257.23,158a18.28,18.28,0,0,0,3.32-7.08,39.07,39.07,0,0,0,.68-8.32v-11h21.7v25.28a2.23,2.23,0,0,1-1.55,2.33,27.19,27.19,0,0,1-3.72.57l-.67-2.42h2.67a1.1,1.1,0,0,0,1.27-1.23v-7.39h-8v9.81h-2v-9.81h-7.68a32.44,32.44,0,0,1-1.15,5.2,25.83,25.83,0,0,1-2.81,5.45Zm6.25-11.26h7.43V141.3h-7.43Zm.07-7.44h7.36v-5.7h-7.36Zm9.36,0h8v-5.67h-8Zm0,7.47h8V141.3h-8Z"/><path class="cls-1" d="M288.38,159.24a22.92,22.92,0,0,0,1.52-5.36,53.42,53.42,0,0,0,.5-8V131.7h9.17V158a1.75,1.75,0,0,1-1.5,1.86,13,13,0,0,1-2.75.28l-.72-2.33h2.25q.72,0,.72-.81v-8H292.3l0,.85-.05.62c-.12,2.08-.26,3.67-.44,4.75a38,38,0,0,1-1.11,4.92Zm4-19.88h5.17V133.7H292.4Zm0,7.64h5.17v-5.64H292.4Zm12.14,10.8c.16-.1.34-.18.51-.27a14,14,0,0,0,3.53-2.39l.93-.84c-.14-.18-.28-.38-.43-.61a21.63,21.63,0,0,1-2.89-7.39c-.14-.6-.26-1.06-.34-1.39h-1.37v15.2h-2V131.7h14l-.79,6.72a3,3,0,0,1-.57,1.72,4.48,4.48,0,0,1-3,1.11c-1.14.12-1.9.19-2.26.24l-.82-2.58h2.72c1.09,0,1.68-.65,1.78-2l.27-3.25h-9.37v9.21h12.18a48.34,48.34,0,0,1-1.47,6.29,17.63,17.63,0,0,1-2,4.08c-.27.42-.48.73-.63.92.58.42,1,.7,1.18.83a19,19,0,0,0,4.95,2.28l-1.3,2.35a33.36,33.36,0,0,1-4.95-2.72c-.18-.13-.43-.31-.75-.56s-.37-.3-.6-.47c-.2.21-.44.44-.71.69a37.33,37.33,0,0,1-4.11,3.26Zm3.69-12.89c0,.28.09.49.12.62a18.07,18.07,0,0,0,2.69,7.05l.39-.63a10.33,10.33,0,0,0,1-1.78,25.84,25.84,0,0,0,1.46-5.26Z"/><path class="cls-1" d="M334.83,141a27.21,27.21,0,0,1-4.56-4.48l-.47-.56a31.37,31.37,0,0,1-1.9,2.67c-.27.32-.89,1-1.86,2l-1.64-1.31a31.62,31.62,0,0,0,6.48-9.19l2,.84c-.43.76-.88,1.5-1.36,2.21h14.58a42.86,42.86,0,0,1-4.88,5.53c-.68.63-1.59,1.41-2.75,2.34a26.47,26.47,0,0,0,6.34,2.33q2.13.48,5.35,1l-.75,2.21q-1.4-.3-3.69-.75a30,30,0,0,1-5.39-1.63,30.49,30.49,0,0,1-3.77-1.94,37.41,37.41,0,0,1-7.23,2.83c-1.87.53-4.2,1.08-7,1.63l-.61-2c1.13-.15,2.72-.44,4.78-.88a33.72,33.72,0,0,0,6.3-1.89C333.11,141.86,333.77,141.54,334.83,141Zm-.89,4.1,2.22.06c-.08.57-.17,1.17-.26,1.8s-.15,1-.22,1.42h10.76l-.93,8.51a2.83,2.83,0,0,1-2.58,2.63,33.15,33.15,0,0,1-3.8.47l-.67-2.39h3a2.34,2.34,0,0,0,1.41-.32,2,2,0,0,0,.48-1.31l.67-5.59H335.4c-.11.32-.23.72-.38,1.19a10.16,10.16,0,0,1-4.23,5.85,27,27,0,0,1-6.3,2.69l-.91-2.09a32.39,32.39,0,0,0,5-1.78,8,8,0,0,0,4.14-4.6c.14-.41.28-.84.4-1.26H325v-2h8.44c0-.24.1-.52.17-.85S333.79,146.54,333.94,145.13Zm-2.06-9.89.45.5a1.62,1.62,0,0,1,.25.28,26,26,0,0,0,2.25,2.34c.44.43,1.06,1,1.86,1.63l.6-.44a18.88,18.88,0,0,0,2.58-2.22l1.9-2.09Z"/><path class="cls-1" d="M367.91,144.88c-.09.36-.21.83-.36,1.4a17.28,17.28,0,0,1-4.07,7.58,23.28,23.28,0,0,1-4.63,3.8c-1,.61-2.39,1.37-4.19,2.26l-1.4-2.31a21.92,21.92,0,0,0,5.14-2.34,15,15,0,0,0,4.56-4.41,17.17,17.17,0,0,0,2.45-6.09,43.85,43.85,0,0,0,.63-4.41H354.57v-2h11.69c.09-1.44.14-2.8.14-4.08,0-.3,0-1.25,0-2.84v-1.28l2.39-.06v2l0,4.29c0,.28,0,.93,0,1.94h12.61v2H369a35.51,35.51,0,0,0,2.13,6.2,21.63,21.63,0,0,0,3.09,5.24,20.35,20.35,0,0,0,5.11,4.25,30.29,30.29,0,0,0,3.06,1.55l-1.62,2.28a42.66,42.66,0,0,1-5.39-3.68,22.1,22.1,0,0,1-5.24-6.28,30.72,30.72,0,0,1-1.69-3.73Z"/><path class="cls-1" d="M386.74,143.85l-1.19-2.11A32.55,32.55,0,0,0,394,136.1a28.46,28.46,0,0,0,5.15-6.24l2.52.95-.53.71a24.07,24.07,0,0,0,5.37,5.83,20.42,20.42,0,0,0,7.58,3.42l-.91,2.26a26.19,26.19,0,0,1-7.21-3.48,28.46,28.46,0,0,1-6.19-6.41,44.37,44.37,0,0,1-6.56,6.31A73.56,73.56,0,0,1,386.74,143.85Zm.42,3.31h25.19v2h-14.8l1.57,1.11c-.48.47-.84.82-1.07,1.06-1.23,1.25-2.53,2.5-3.92,3.75-.84.79-1.44,1.34-1.8,1.66,1.13-.06,3.27-.19,6.43-.41s5.6-.36,7.22-.52q-1.58-1.58-3-3l1.66-1.36q2.37,2.19,7.13,7.3l-2.13,1.51a30.53,30.53,0,0,0-2.08-2.47l-3.5.24q-9.42.6-11,.8a27,27,0,0,0-3.61.6l-.78-2.81a11.43,11.43,0,0,0,3.05-2,39.08,39.08,0,0,0,5.08-5.48h-9.6Zm5-5.89H407v2H392.18Z"/><path class="cls-1" d="M417.82,156.52v-2.24a99,99,0,0,0,7.41-7.2,20.78,20.78,0,0,0,3-4.06,6.78,6.78,0,0,0,.83-3.11,3.31,3.31,0,0,0-1.23-2.69,5.37,5.37,0,0,0-3.53-1.12,9.72,9.72,0,0,0-5.16,1.65l-.64-2.19a13.68,13.68,0,0,1,6.08-1.51,8.47,8.47,0,0,1,4.89,1.31,5,5,0,0,1,2.19,4.38,10.31,10.31,0,0,1-2.35,6,56.73,56.73,0,0,1-8.37,8.69h10.9v2.11Z"/><path class="cls-1" d="M443.54,134.05q7.5,0,7.5,11.39t-7.63,11.39q-7.61,0-7.61-11.41a17,17,0,0,1,1.44-7.81A6.58,6.58,0,0,1,443.54,134.05Zm-.19,2.11a4.19,4.19,0,0,0-4.08,3,17.37,17.37,0,0,0-.87,6.33q0,4.65,1.08,6.78a4.15,4.15,0,0,0,3.95,2.5,4.24,4.24,0,0,0,4.14-2.95,17.48,17.48,0,0,0,.87-6.36q0-4.65-1.07-6.75A4.22,4.22,0,0,0,443.35,136.16Z"/><path class="cls-1" d="M454.69,156.52v-2.24a95.2,95.2,0,0,0,7.41-7.2,20.49,20.49,0,0,0,3-4.06,6.9,6.9,0,0,0,.83-3.11,3.29,3.29,0,0,0-1.24-2.69,5.34,5.34,0,0,0-3.53-1.12,9.69,9.69,0,0,0-5.15,1.65l-.65-2.19a13.71,13.71,0,0,1,6.08-1.51,8.47,8.47,0,0,1,4.89,1.31,5,5,0,0,1,2.19,4.38,10.29,10.29,0,0,1-2.34,6,57.35,57.35,0,0,1-8.38,8.69h10.91v2.11Z"/><path class="cls-1" d="M480.07,156.52V137.16L475.55,140l-1.07-1.95,5.84-3.7h2.22v22.14Z"/><path class="cls-1" d="M27.33,56.91l-5.26,2.68a39.62,39.62,0,0,0-4.61-8.74,17.43,17.43,0,0,0-1.74-2.12c-.17.28-.68,1.46-1.54,3.54Q12.5,56.4,6.12,63.1l-4.87-5A31.08,31.08,0,0,0,6,54a22.58,22.58,0,0,0,5.51-12.28A187,187,0,0,0,12.24,21V15.82h5.39v6.74q0,7.77-.29,14.76a58.71,58.71,0,0,1-1.49,10.92l4.48-3A59.08,59.08,0,0,1,27.33,56.91ZM4.06,44.44V4.87h21.4V44.44H19.88V10.7H9.7V44.44Zm22.46,8.19,1.74-.33V28.36h5.32V51l2.74-.58V24.23H27.26V18.69H47.34c0-1,0-1.9,0-2.74Q47.08,7.83,47,1.42h5.8V3.54l.25,12.83v2.32H63.39v5.54H53.3V26q0,12.74,2.35,21.15a31,31,0,0,0,2.26,6.18c.17.32.28.49.32.49q.62,0,1-5l5.61,3.51a43.74,43.74,0,0,1-1.71,6.51,6.61,6.61,0,0,1-1.93,3.1,3.87,3.87,0,0,1-2.13.64c-1.42,0-3-1-4.61-3.16q-4.32-5.45-6-17a154.46,154.46,0,0,1-1.19-18.12H42v7.9H47v5.45H42V48.79L44.89,48l3.42-.81.51,6.16L42.6,54.91q-8,2-13.86,3.77ZM44.44,13.89H28.81V8.57H44.44Zm18.4-1.1-5.38,2.78A61.25,61.25,0,0,0,53.3,7.09l4.45-2.58A48.62,48.62,0,0,1,62.84,12.79Z"/><path class="cls-1" d="M69.09,17.63a13.77,13.77,0,0,0,2.39-1Q75.11,14,82.11,1.48l6.48,2.74-1,1.32q-4.94,6.87-8.06,10.77c-.47.62-.89,1.16-1.25,1.61l3.61-.26,2.93-.23q3.48-.25,6.06-.48c-.73-1-1.57-2.09-2.51-3.19-.24-.28-.83-1-1.78-2.19l5.61-3.42q.93,1.26,3.9,5.1,1,1.35,5.61,8.05l-6.22,3.19a19,19,0,0,0-1.61-2.67l-6.16.51a111.94,111.94,0,0,0-16.69,2.16Zm3.68,8.7H97.32V55.88c0,2.15-.33,3.62-1,4.42a7.34,7.34,0,0,1-3.93,1.93c-.82.17-2.34.39-4.58.64L86.59,63,85,55.88h4.25a2.71,2.71,0,0,0,1.71-.42c.22-.19.32-.31.32-.35l0-1.39V50.27H78.86V62.58H72.77Zm6.09,9.28H91.23v-4H78.86Zm0,9.35H91.23V40.77H78.86Zm30-32.52c.6-.3,1.25-.61,2-.94a66.74,66.74,0,0,0,10-5.83l4.48,5.25q-6.51,3.2-14.11,6.45c-.69.28-1.46.63-2.32,1.06v2.49a3.93,3.93,0,0,0,.29,1.77c.23.38,1.18.58,2.83.58h6.29a3,3,0,0,0,2.06-.65,1.9,1.9,0,0,0,.61-.83l.58-2.33.71-2.8,6.06,3.61L127,24.14a8.06,8.06,0,0,1-1.7,2.87,5.24,5.24,0,0,1-3,1.83,17.22,17.22,0,0,1-3.64.26H108.44q-5.89,0-5.9-6.28v-21h6.29Zm0,28.65c.73-.32,1.52-.67,2.38-1a96.6,96.6,0,0,0,8.9-4.58l1.38-.77,3.93,5.41-1.25.55q-4.71,2.1-12,5.06l-3.35,1.39v6.34c0,1.12.27,1.81.8,2.07a7,7,0,0,0,2.58.35h4.87c1.74,0,2.85-.2,3.35-.61a1.86,1.86,0,0,0,.61-.77l.45-1.68,1.13-4.29,6.15,3.39-1.22,4q-1.9,5.92-8.8,5.93h-9c-2.64,0-4.44-.46-5.38-1.39a5.58,5.58,0,0,1-1.55-4.18V30h6Z"/><path class="cls-1" d="M144.15,38.32q-2.88,3.34-6.8,7.15l-4.8-5.09a78.92,78.92,0,0,0,9.63-9.22,52.86,52.86,0,0,0,7-10.66H135.48V14.28h23.33a87.68,87.68,0,0,1-8.31,15.56v2.39l3.15-2.71a113.35,113.35,0,0,1,7.58,10.18l-5.58,3.81a50.15,50.15,0,0,0-5.15-8.58V63.2h-6.35ZM146.76.13c.32.54.57.93.74,1.19a58.4,58.4,0,0,1,4.74,9.35L146,13.73a39.74,39.74,0,0,0-4.71-10.57Zm27.42,19.62V1.26h6.38V19.75h14.05v6.06H180.56V53.88h15.63V60h-37.7V53.88h15.69V25.81H160V19.75Z"/><path class="cls-1" d="M214.59,24.3q-2.86,2.22-9.31,6.41L201,24.78a68,68,0,0,0,17.34-11.7A63,63,0,0,0,228.74,0l7,2.77a13.69,13.69,0,0,1-.93,1.32,4.89,4.89,0,0,0-.29.42,42.07,42.07,0,0,0,11.89,12,44.72,44.72,0,0,0,14.4,5.8l-2.93,7.22A68.81,68.81,0,0,1,245.47,24v5.48H214.59Zm-10,10.92h52.21v6.13H228.94L231.51,43q-2,1.83-6.76,6.22l-4.19,3.57c-.52.44-1.38,1.18-2.58,2.23l1.48-.1,1.48-.06,7.71-.52,9.18-.58,1.48-.13,2.26-.19c-.5-.47-.86-.84-1.1-1.1Q239.12,50.92,236,48L241.12,44q7.41,6.93,14.47,14.66l.93,1L250.4,64a56.73,56.73,0,0,0-4.35-5.22l-6.29.42L228.32,60q-9.91.68-14.72,1.36a39.31,39.31,0,0,0-4.23.93l-2.09-7.6A12.3,12.3,0,0,0,210.89,53a62.57,62.57,0,0,0,12.18-11.6H204.6ZM244.47,23.4A56.58,56.58,0,0,1,230.26,9.31c-.33.37-.63.72-.91,1.07a84,84,0,0,1-5.73,6.15,81.56,81.56,0,0,1-7.8,6.87Z"/><path class="cls-1" d="M281.59,24.11l3.77-4.9c.56.34,1.2.75,1.91,1.22a66.72,66.72,0,0,1,7.41,5.29l1.61,1.45-4.38,5.19-1-1.07A47.1,47.1,0,0,0,281.59,24.11Zm1.68,34.57q5.25-8.31,8.83-22.33L298.32,40c-.45,1.11-.86,2.17-1.23,3.15a153.15,153.15,0,0,1-8,18.89ZM285.78,7l4-4.81a57,57,0,0,1,10.83,7.9l-4.55,5.12a45.17,45.17,0,0,0-4.73-4.41Q289,9.06,285.78,7Zm56.4,2.25h-34.9V26.49q0,10.58-.29,14.05a43.1,43.1,0,0,1-4.68,16.89c-.68,1.27-1.85,3.11-3.51,5.54l-5.48-3.8a31.45,31.45,0,0,0,5.77-9.51q2.55-7.12,2.55-24.39V4.38h40.54ZM304.76,56.14a77,77,0,0,0,4.77-7.86,74.19,74.19,0,0,0,3.23-7.55l6.18,2.36q-1.15,2.58-4.35,8.47-2.35,4.35-4.54,7.74Zm14.09-40.9q.76-2.28,1.61-5.67l6.28.32c-.15.56-.26,1-.32,1.29-.32,1.23-.75,2.58-1.29,4.06h14.34v23.4h-12V54.72q0,3.68-1.12,5.25-1.68,2.33-8.54,3l-2.39-6.41h4.35A1.4,1.4,0,0,0,321,56a5.13,5.13,0,0,0,.48-2.74V38.64H309.57V15.24Zm-3.42,9.41h18.08V20.11H315.43Zm0,9.32h18.08V29.39H315.43Zm13.73,10.28,5.57-2.9q2.88,4.21,4.87,7.6.78,1.35,3.93,7.61l-6.18,2.74A75.92,75.92,0,0,0,329.16,44.25Z"/><path class="cls-1" d="M373.66,36a73,73,0,0,1,6.51,15.24l-6.12,2.22c-.21-1-.48-2-.8-3.19Q358,53.6,352.07,55.75l-2.61-6.06c1.05-.6,1.7-1,1.94-1.09A10.39,10.39,0,0,0,354.72,44a112.36,112.36,0,0,0,4.67-14.44h-9.57V23.82H378v5.76H366.16A112.38,112.38,0,0,1,360,47.31l2.67-.58,3.68-.81,3.25-.77,1.42-.32a51.93,51.93,0,0,0-3.22-6.25ZM352.07,8.06h23.66v5.83H352.07Zm35.1,13.31h-8.9v-5.8h8.9c.26-4.69.38-7.78.38-9.29,0-1,0-2.56-.06-4.6l6.9.41q-.33,5.36-.52,10.51l-.1,3h14.15L406,52.69q-.22,4.32-2.29,6A13.62,13.62,0,0,1,398,61l-2.55.49-.68.12-1,.2-2.64-7.57h4.13a7.65,7.65,0,0,0,3.64-.59c.45-.27.71-1,.77-2.25l1.74-30h-7.93l-.13,2.35q-.6,9.74-1.19,13.73A38.94,38.94,0,0,1,385,55.78a66.73,66.73,0,0,1-7.54,8L371.89,59a62.34,62.34,0,0,0,5.87-4.77q6.44-6.42,8.09-16.89a124.07,124.07,0,0,0,1.25-14.56Z"/><path class="cls-1" d="M448.62,36.9V63.26h-6.35V36.67a72.38,72.38,0,0,1-10,11.8,102.89,102.89,0,0,1-12.86,10L415.27,53a74.92,74.92,0,0,0,12.12-8.41,59,59,0,0,0,10.05-12H417.36V26.78h24.91V17.66H422.13V11.73h20.14V1h6.35v10.7h19.86v5.93H448.62v9.12h24.56v5.87H452.62q5.61,8.37,10.05,12.27a63.62,63.62,0,0,0,11.15,7.51l-4,5.55-2.42-1.52A58.74,58.74,0,0,1,453.14,43.7,39.76,39.76,0,0,1,448.62,36.9Z"/><path class="cls-1" d="M523.55,31l-4.48-3.67a52.7,52.7,0,0,0,3.74-4.71,36.39,36.39,0,0,0,3-5.45l5.45,2.94a49.92,49.92,0,0,1-6,9.73c-.36.47-.67.86-.93,1.16h15.56v6.09H520.13c.37.52.64.9.81,1.16a39.41,39.41,0,0,0,10.7,10.41,41.27,41.27,0,0,0,7,3.74l1.74.77-3.61,6.09a57,57,0,0,1-13.21-8.63,46,46,0,0,1-9-11.19V63.23h-6.67V39.86a54.69,54.69,0,0,1-7.45,9.22,58.36,58.36,0,0,1-9.54,7.7q-1.32.9-4.64,3l-1.13.71-3.83-5.41a75.52,75.52,0,0,0,12.5-8.32,58.39,58.39,0,0,0,9-9.73H482.36V31h25.5V16.31H485.1V10.25h22.76v-9h6.67v9h22.75v6.06H514.53V31ZM490.13,20.46l5.06-3.67,1.1,1.1A49.47,49.47,0,0,1,503.51,27L498,30.62a43.69,43.69,0,0,0-3.48-5.42A60.75,60.75,0,0,0,490.13,20.46Z"/></g></g></svg>