<svg xmlns="http://www.w3.org/2000/svg" viewBox="0 0 896.22 283.57"><defs><style>.cls-1{fill:#d5dfe9;}.cls-2{fill:#434343;}.cls-3{fill:#4a2571;}.cls-4{fill:none;}</style></defs><title>资源 1</title><g id="图层_2" data-name="图层 2"><g id="图层_1-2" data-name="图层 1"><rect class="cls-1" width="896.22" height="85.15"/><rect class="cls-1" y="99.21" width="896.22" height="85.15"/><rect class="cls-1" y="198.42" width="896.22" height="85.15"/><path class="cls-2" d="M20.22,54.55v-19H22.9L29,45.14a53.34,53.34,0,0,1,3.41,6.19l.06,0c-.22-2.54-.28-4.86-.28-7.83v-8h2.32v19H32L26,44.88a59.25,59.25,0,0,1-3.56-6.35l-.08,0c.14,2.41.19,4.7.19,7.86v8.14Z"/><path class="cls-2" d="M51.1,47.6c0,5.06-3.5,7.26-6.81,7.26-3.7,0-6.56-2.71-6.56-7,0-4.57,3-7.26,6.79-7.26S51.1,43.42,51.1,47.6Zm-10.85.14c0,3,1.72,5.25,4.15,5.25s4.16-2.23,4.16-5.31c0-2.31-1.16-5.25-4.1-5.25S40.25,45.14,40.25,47.74Z"/><path class="cls-2" d="M55,40.87l2.68,7.69c.45,1.24.82,2.37,1.11,3.5h.08c.31-1.13.71-2.26,1.16-3.5l2.65-7.69h2.61L59.92,54.55H57.54l-5.2-13.68Z"/><path class="cls-2" d="M78.22,38.5h0L75,40.22l-.48-1.89,4-2.15h2.12V54.55H78.22Z"/><path class="cls-2" d="M88.76,52.8a10.59,10.59,0,0,0,2-.09,6.94,6.94,0,0,0,3.84-1.78A8,8,0,0,0,97,46H97a5.38,5.38,0,0,1-4.33,2,5.32,5.32,0,0,1-5.42-5.62,6.29,6.29,0,0,1,6.27-6.53c3.76,0,6.08,3.05,6.08,7.74,0,4-1.36,6.87-3.17,8.62a9.16,9.16,0,0,1-5.34,2.46,11.54,11.54,0,0,1-2.29.14Zm.91-10.57c0,2.29,1.38,3.9,3.53,3.9a4.09,4.09,0,0,0,3.61-1.92A1.59,1.59,0,0,0,97,43.3c0-3.13-1.16-5.54-3.76-5.54C91.16,37.76,89.67,39.63,89.67,42.23Z"/><path class="cls-2" d="M102.42,37.8h-1.35v-1h1.35V35l1.26-.27v2.09h2v1h-2v4.56a3.7,3.7,0,0,0,.18,1.41,1,1,0,0,0,.94.53,2.48,2.48,0,0,0,1-.25l.11,1a3.84,3.84,0,0,1-1.36.26,1.89,1.89,0,0,1-1.73-.77,3.76,3.76,0,0,1-.37-1.92Z"/><path class="cls-2" d="M107.64,45.14v-12h1.25v5a4.08,4.08,0,0,1,3-1.47,2.22,2.22,0,0,1,2.17,1.16,6.32,6.32,0,0,1,.35,2.53v4.83h-1.26V40.29a6.45,6.45,0,0,0-.17-1.77,1.36,1.36,0,0,0-1.44-.89,3.53,3.53,0,0,0-2.65,1.57v5.94Z"/><path class="cls-2" d="M123.24,34.94a18.59,18.59,0,0,0-3.57,11.56A19,19,0,0,0,123.24,58h-1.95a18.27,18.27,0,0,1-3.71-11.47,18.65,18.65,0,0,1,3.71-11.56Z"/><path class="cls-2" d="M130.92,37.59h-5.79V35.5h14.1v2.09h-5.82v17h-2.49Z"/><path class="cls-2" d="M141.06,34.49h2.49V43h.06a4.48,4.48,0,0,1,1.78-1.75,5,5,0,0,1,2.54-.71c1.84,0,4.78,1.13,4.78,5.85v8.14h-2.49V46.69c0-2.2-.82-4.07-3.17-4.07a3.56,3.56,0,0,0-3.33,2.49,3.05,3.05,0,0,0-.17,1.19v8.25h-2.49Z"/><path class="cls-2" d="M168.19,50.82c0,1.41,0,2.66.11,3.73h-2.2L166,52.32h-.06a5.15,5.15,0,0,1-4.52,2.54c-2.15,0-4.72-1.19-4.72-6v-8h2.49v7.58c0,2.6.79,4.35,3,4.35a3.61,3.61,0,0,0,3.28-2.26,3.68,3.68,0,0,0,.22-1.27v-8.4h2.49Z"/><path class="cls-2" d="M172.31,45.14c0-1.61,0-3-.11-4.27h2.18l.08,2.69h.11a4.11,4.11,0,0,1,3.79-3,2.6,2.6,0,0,1,.71.09V43a4.23,4.23,0,0,0-.85-.08,3.5,3.5,0,0,0-3.34,3.19,7.75,7.75,0,0,0-.11,1.16v7.29h-2.46Z"/><path class="cls-2" d="M181.21,52a6.56,6.56,0,0,0,3.28,1c1.81,0,2.66-.9,2.66-2s-.71-1.84-2.55-2.51c-2.45-.88-3.61-2.24-3.61-3.88,0-2.2,1.78-4,4.72-4a6.84,6.84,0,0,1,3.36.85l-.62,1.81a5.34,5.34,0,0,0-2.8-.79c-1.47,0-2.29.84-2.29,1.86s.82,1.64,2.6,2.32c2.37.9,3.59,2.09,3.59,4.12,0,2.41-1.87,4.1-5.12,4.1a7.86,7.86,0,0,1-3.84-.93Z"/><path class="cls-2" d="M204.55,34.49V51c0,1.21,0,2.6.12,3.53h-2.24l-.11-2.37h-.06a5.06,5.06,0,0,1-4.66,2.68c-3.3,0-5.85-2.8-5.85-7,0-4.55,2.8-7.35,6.13-7.35A4.58,4.58,0,0,1,202,42.65h.06V34.49Zm-2.48,11.95a4.18,4.18,0,0,0-.12-1,3.65,3.65,0,0,0-3.59-2.88c-2.57,0-4.09,2.26-4.09,5.29,0,2.77,1.35,5.05,4,5.05a3.74,3.74,0,0,0,3.64-3,4.11,4.11,0,0,0,.12-1.08Z"/><path class="cls-2" d="M216.25,54.55l-.2-1.72H216a5.12,5.12,0,0,1-4.18,2,3.9,3.9,0,0,1-4.19-3.93c0-3.3,2.94-5.11,8.23-5.08v-.29a2.82,2.82,0,0,0-3.11-3.16,6.74,6.74,0,0,0-3.56,1l-.57-1.64a8.45,8.45,0,0,1,4.5-1.22c4.18,0,5.19,2.86,5.19,5.6v5.11a19.17,19.17,0,0,0,.23,3.28Zm-.37-7c-2.71-.06-5.79.42-5.79,3.08A2.19,2.19,0,0,0,212.43,53a3.39,3.39,0,0,0,3.31-2.29,2.39,2.39,0,0,0,.14-.79Z"/><path class="cls-2" d="M223,40.87,226,49c.31.91.65,2,.87,2.8h.06c.26-.82.54-1.86.88-2.85l2.71-8h2.63l-3.73,9.75c-1.78,4.69-3,7.09-4.69,8.56a6.64,6.64,0,0,1-3.06,1.61L221,58.7a6.43,6.43,0,0,0,2.18-1.21,7.51,7.51,0,0,0,2.09-2.77,1.92,1.92,0,0,0,.2-.59,2.2,2.2,0,0,0-.17-.65l-5.06-12.61Z"/><path class="cls-2" d="M233.88,58a19.17,19.17,0,0,0,3.56-11.56,18.75,18.75,0,0,0-3.56-11.47h1.92a18,18,0,0,1,3.7,11.5A18.33,18.33,0,0,1,235.8,58Z"/><path class="cls-2" d="M448.24,35.76a25,25,0,0,1,4.72-.4c2.63,0,4.32.48,5.51,1.56a4.72,4.72,0,0,1,1.5,3.61,5,5,0,0,1-3.59,4.86v.09c1.47.51,2.34,1.86,2.8,3.84a29.54,29.54,0,0,0,1.47,5.23H458.1A25.26,25.26,0,0,1,456.83,50c-.56-2.63-1.58-3.62-3.81-3.7H450.7v8.25h-2.46Zm2.46,8.67h2.51c2.63,0,4.3-1.44,4.3-3.61,0-2.46-1.78-3.54-4.38-3.57a10.15,10.15,0,0,0-2.43.23Z"/><path class="cls-2" d="M471.27,54.55l-.2-1.72H471a5.12,5.12,0,0,1-4.18,2,3.9,3.9,0,0,1-4.19-3.93c0-3.3,2.94-5.11,8.23-5.08v-.29a2.82,2.82,0,0,0-3.11-3.16,6.74,6.74,0,0,0-3.56,1l-.57-1.64a8.44,8.44,0,0,1,4.49-1.22c4.19,0,5.2,2.86,5.2,5.6v5.11a19.17,19.17,0,0,0,.23,3.28Zm-.37-7c-2.71-.06-5.79.42-5.79,3.08A2.19,2.19,0,0,0,467.45,53a3.39,3.39,0,0,0,3.31-2.29,2.39,2.39,0,0,0,.14-.79Z"/><path class="cls-2" d="M480.08,37a1.46,1.46,0,0,1-1.58,1.52A1.48,1.48,0,0,1,477,37a1.52,1.52,0,0,1,1.56-1.56A1.48,1.48,0,0,1,480.08,37Zm-2.77,17.52V40.87h2.49V54.55Z"/><path class="cls-2" d="M483.92,44.57c0-1.41,0-2.57-.11-3.7H486l.14,2.26h0a5,5,0,0,1,4.53-2.57c1.89,0,4.83,1.13,4.83,5.82v8.17h-2.49V46.66c0-2.2-.82-4-3.16-4a3.54,3.54,0,0,0-3.34,2.55,3.64,3.64,0,0,0-.17,1.16v8.22h-2.49Z"/><path class="cls-2" d="M500.14,40.87l3,8.08c.31.91.65,2,.88,2.8h.05c.26-.82.54-1.86.88-2.85l2.71-8h2.63l-3.73,9.75c-1.78,4.69-3,7.09-4.69,8.56a6.67,6.67,0,0,1-3.05,1.61l-.63-2.09a6.34,6.34,0,0,0,2.18-1.21,7.51,7.51,0,0,0,2.09-2.77,1.92,1.92,0,0,0,.2-.59,2.2,2.2,0,0,0-.17-.65l-5.06-12.61Z"/><path class="cls-2" d="M604.18,54.55V53l2-1.89c4.69-4.47,6.81-6.84,6.84-9.61,0-1.86-.9-3.59-3.65-3.59a6.26,6.26,0,0,0-3.9,1.56l-.79-1.75a8,8,0,0,1,5.2-1.87c4,0,5.63,2.71,5.63,5.34,0,3.39-2.46,6.13-6.33,9.86l-1.47,1.36v.06h8.25v2.06Z"/><path class="cls-2" d="M626.36,54.55v-5h-8.53V47.91L626,36.18h2.69V47.6h2.57v1.95h-2.57v5Zm0-6.95V41.47c0-1,0-1.93.09-2.89h-.09c-.56,1.08-1,1.87-1.53,2.72l-4.49,6.24v.06Z"/><path class="cls-2" d="M638.54,35.56A1.54,1.54,0,1,1,640.15,34,1.54,1.54,0,0,1,638.54,35.56Zm0-2.77a1.22,1.22,0,1,0,0,2.43A1.22,1.22,0,0,0,639.81,34,1.25,1.25,0,0,0,638.54,32.79Zm16.56,16.9a7.83,7.83,0,0,1-6.84,3.87,8.94,8.94,0,0,1-9.13-9.32c0-6.19,4.61-10.07,9.07-10.07a15.89,15.89,0,0,1,5.6.8l.53,3.67-.62.06c-1-2.91-2.82-3.62-5.39-3.62-3.74,0-7.13,3.19-7.13,9.3,0,5,3.48,8.28,7.58,8.28a6.77,6.77,0,0,0,5.73-3.39Z"/><path class="cls-2" d="M660.12,55.68,668,35.19h1.92L662,55.68Z"/><path class="cls-2" d="M676.51,38.5h0l-3.2,1.72-.48-1.89,4-2.15h2.11V54.55h-2.4Z"/><path class="cls-2" d="M696.57,38.27h-7L688.86,43a10.78,10.78,0,0,1,1.5-.11,7.73,7.73,0,0,1,3.95,1,5.24,5.24,0,0,1,2.63,4.72c0,3.59-2.85,6.27-6.84,6.27a9,9,0,0,1-4.58-1.13l.63-1.89a8.24,8.24,0,0,0,3.92,1,4.05,4.05,0,0,0,4.36-4c0-2.37-1.61-4.07-5.29-4.07a18.17,18.17,0,0,0-2.54.2l1.18-8.82h8.79Z"/><path class="cls-2" d="M705.47,35.56A1.54,1.54,0,1,1,707.08,34,1.54,1.54,0,0,1,705.47,35.56Zm0-2.77a1.22,1.22,0,0,0,0,2.43A1.21,1.21,0,0,0,706.74,34,1.25,1.25,0,0,0,705.47,32.79ZM722,49.69a7.82,7.82,0,0,1-6.84,3.87,8.93,8.93,0,0,1-9.12-9.32c0-6.19,4.6-10.07,9.07-10.07a15.86,15.86,0,0,1,5.59.8l.54,3.67-.62.06c-1-2.91-2.83-3.62-5.4-3.62-3.73,0-7.12,3.19-7.12,9.3,0,5,3.47,8.28,7.57,8.28a6.79,6.79,0,0,0,5.74-3.39Z"/><path class="cls-2" d="M798.76,35.76a23.42,23.42,0,0,1,4.49-.4c2.46,0,4,.43,5.23,1.39a4,4,0,0,1,1.59,3.36,4.52,4.52,0,0,1-3.23,4.18v.06a4.91,4.91,0,0,1,3.93,4.77,5.14,5.14,0,0,1-1.61,3.82c-1.33,1.21-3.48,1.78-6.58,1.78a27.48,27.48,0,0,1-3.82-.23Zm2.46,7.8h2.23c2.6,0,4.13-1.36,4.13-3.2,0-2.23-1.7-3.11-4.18-3.11a11,11,0,0,0-2.18.17Zm0,9.12a12.39,12.39,0,0,0,2.06.12c2.55,0,4.89-.93,4.89-3.7,0-2.6-2.23-3.68-4.92-3.68h-2Z"/><path class="cls-2" d="M814,45.14c0-1.61,0-3-.11-4.27h2.17l.09,2.69h.11a4.1,4.1,0,0,1,3.79-3,2.48,2.48,0,0,1,.7.09V43a4.06,4.06,0,0,0-.84-.08,3.49,3.49,0,0,0-3.34,3.19,6.63,6.63,0,0,0-.11,1.16v7.29H814Z"/><path class="cls-2" d="M824.33,48.16c.06,3.37,2.21,4.75,4.69,4.75a8.93,8.93,0,0,0,3.79-.71l.42,1.78a11,11,0,0,1-4.55.85c-4.21,0-6.72-2.77-6.72-6.89s2.43-7.38,6.41-7.38c4.47,0,5.65,3.93,5.65,6.44a9.17,9.17,0,0,1-.08,1.16Zm7.29-1.78c0-1.58-.65-4-3.45-4-2.51,0-3.61,2.32-3.81,4Z"/><path class="cls-2" d="M838.49,48.16c0,3.37,2.2,4.75,4.69,4.75A9,9,0,0,0,847,52.2l.42,1.78a11,11,0,0,1-4.55.85c-4.21,0-6.73-2.77-6.73-6.89s2.43-7.38,6.42-7.38c4.46,0,5.65,3.93,5.65,6.44a8.78,8.78,0,0,1-.09,1.16Zm7.29-1.78c0-1.58-.65-4-3.45-4-2.51,0-3.62,2.32-3.82,4Z"/><path class="cls-2" d="M849.7,53.11l6.19-8.06c.6-.73,1.16-1.38,1.78-2.11v-.06h-7.4v-2H860.7l0,1.56-6.11,7.94c-.56.76-1.13,1.44-1.75,2.14v.06h8v2H849.7Z"/><path class="cls-2" d="M864.54,48.16c.05,3.37,2.2,4.75,4.69,4.75A9,9,0,0,0,873,52.2l.42,1.78a11,11,0,0,1-4.55.85c-4.21,0-6.73-2.77-6.73-6.89s2.43-7.38,6.42-7.38c4.46,0,5.65,3.93,5.65,6.44a11.59,11.59,0,0,1-.08,1.16Zm7.29-1.78c0-1.58-.65-4-3.45-4-2.51,0-3.62,2.32-3.81,4Z"/><path class="cls-2" d="M20.22,152.43v-19H22.9L29,143a53.34,53.34,0,0,1,3.41,6.19l.06,0c-.22-2.54-.28-4.86-.28-7.83v-8h2.32v19H32L26,142.77a60.34,60.34,0,0,1-3.56-6.36l-.08,0c.14,2.4.19,4.69.19,7.85v8.14Z"/><path class="cls-2" d="M51.1,145.48c0,5.06-3.5,7.26-6.81,7.26-3.7,0-6.56-2.71-6.56-7,0-4.58,3-7.27,6.79-7.27S51.1,141.3,51.1,145.48Zm-10.85.14c0,3,1.72,5.26,4.15,5.26s4.16-2.23,4.16-5.31c0-2.32-1.16-5.26-4.1-5.26S40.25,143,40.25,145.62Z"/><path class="cls-2" d="M55,138.75l2.68,7.69c.45,1.24.82,2.38,1.11,3.51h.08c.31-1.13.71-2.27,1.16-3.51l2.65-7.69h2.61l-5.37,13.68H57.54l-5.2-13.68Z"/><path class="cls-2" d="M72.83,152.43v-1.52l2-1.9c4.69-4.46,6.81-6.84,6.83-9.6,0-1.87-.9-3.59-3.64-3.59a6.23,6.23,0,0,0-3.9,1.55l-.79-1.75a8,8,0,0,1,5.2-1.87c4,0,5.62,2.72,5.62,5.34,0,3.4-2.46,6.14-6.33,9.87l-1.47,1.35v.06h8.25v2.06Z"/><path class="cls-2" d="M99.53,143.05c0,6.25-2.32,9.69-6.39,9.69-3.59,0-6-3.36-6.07-9.44s2.65-9.55,6.38-9.55S99.53,137.2,99.53,143.05Zm-10,.28c0,4.78,1.47,7.49,3.73,7.49,2.55,0,3.76-3,3.76-7.66,0-4.52-1.16-7.49-3.73-7.49C91.13,135.67,89.55,138.33,89.55,143.33Z"/><path class="cls-2" d="M102.42,135.68h-1.35v-1h1.35v-1.82l1.26-.27v2.09h2v1h-2v4.56a3.8,3.8,0,0,0,.18,1.42,1,1,0,0,0,.94.52,2.32,2.32,0,0,0,1-.25l.11,1a4.05,4.05,0,0,1-1.36.25,1.86,1.86,0,0,1-1.73-.77,3.76,3.76,0,0,1-.37-1.92Z"/><path class="cls-2" d="M107.64,143V131h1.25v5a4.06,4.06,0,0,1,3-1.46,2.21,2.21,0,0,1,2.17,1.15,6.35,6.35,0,0,1,.35,2.54V143h-1.26v-4.85a6.55,6.55,0,0,0-.17-1.77,1.36,1.36,0,0,0-1.44-.89,3.53,3.53,0,0,0-2.65,1.57V143Z"/><path class="cls-2" d="M123.24,132.82a18.59,18.59,0,0,0-3.57,11.56,19,19,0,0,0,3.57,11.47h-1.95a18.24,18.24,0,0,1-3.71-11.47,18.65,18.65,0,0,1,3.71-11.56Z"/><path class="cls-2" d="M126,133.39h10.26v2.06h-7.8v6.33h7.2v2h-7.2v8.62H126Z"/><path class="cls-2" d="M138.89,143c0-1.61,0-3-.11-4.27H141l.09,2.69h.11a4.1,4.1,0,0,1,3.79-3,2.48,2.48,0,0,1,.7.09v2.34a4.16,4.16,0,0,0-.85-.08,3.49,3.49,0,0,0-3.33,3.19,6.72,6.72,0,0,0-.11,1.16v7.29h-2.46Z"/><path class="cls-2" d="M151,134.91a1.54,1.54,0,0,1-3.08,0,1.51,1.51,0,0,1,1.55-1.55A1.47,1.47,0,0,1,151,134.91Zm-2.77,17.52V138.75h2.49v13.68Z"/><path class="cls-2" d="M166.66,132.37V148.9c0,1.22,0,2.6.12,3.53h-2.23l-.12-2.37h-.05a5.08,5.08,0,0,1-4.67,2.68c-3.3,0-5.85-2.79-5.85-7,0-4.55,2.8-7.35,6.14-7.35a4.57,4.57,0,0,1,4.12,2.09h.06v-8.16Zm-2.48,11.95a4.1,4.1,0,0,0-.12-1,3.64,3.64,0,0,0-3.58-2.89c-2.58,0-4.1,2.27-4.1,5.29,0,2.77,1.35,5.06,4,5.06a3.74,3.74,0,0,0,3.64-3,4.08,4.08,0,0,0,.12-1.07Z"/><path class="cls-2" d="M178.36,152.43l-.2-1.72h-.08a5.09,5.09,0,0,1-4.18,2,3.9,3.9,0,0,1-4.19-3.92c0-3.31,2.94-5.12,8.23-5.09v-.28a2.82,2.82,0,0,0-3.11-3.17,6.83,6.83,0,0,0-3.56,1l-.57-1.64a8.45,8.45,0,0,1,4.5-1.22c4.18,0,5.2,2.86,5.2,5.6v5.11a19.24,19.24,0,0,0,.22,3.28Zm-.37-7c-2.71,0-5.79.43-5.79,3.08a2.21,2.21,0,0,0,2.35,2.38,3.39,3.39,0,0,0,3.3-2.29,2.48,2.48,0,0,0,.14-.79Z"/><path class="cls-2" d="M185.08,138.75l3,8.09c.31.9.65,2,.88,2.79h0c.26-.81.54-1.86.88-2.85l2.71-8h2.63l-3.73,9.75c-1.78,4.7-3,7.1-4.69,8.57a6.88,6.88,0,0,1-3.05,1.61l-.63-2.09a6.56,6.56,0,0,0,2.18-1.22,7.51,7.51,0,0,0,2.09-2.77,1.84,1.84,0,0,0,.2-.59,2.28,2.28,0,0,0-.17-.65l-5.06-12.61Z"/><path class="cls-2" d="M196,155.85a19.11,19.11,0,0,0,3.56-11.56A18.78,18.78,0,0,0,196,132.82h1.92a18,18,0,0,1,3.7,11.5,18.33,18.33,0,0,1-3.7,11.53Z"/><path class="cls-2" d="M448.24,133.64a25.9,25.9,0,0,1,4.72-.4c2.63,0,4.32.48,5.51,1.56a4.76,4.76,0,0,1,1.5,3.62,5,5,0,0,1-3.59,4.86v.08c1.47.51,2.34,1.87,2.8,3.84a29.54,29.54,0,0,0,1.47,5.23H458.1a24.72,24.72,0,0,1-1.27-4.55c-.56-2.63-1.58-3.61-3.81-3.7H450.7v8.25h-2.46Zm2.46,8.68h2.51c2.63,0,4.3-1.45,4.3-3.62,0-2.46-1.78-3.53-4.38-3.56a10.32,10.32,0,0,0-2.43.22Z"/><path class="cls-2" d="M471.27,152.43l-.2-1.72H471a5.11,5.11,0,0,1-4.18,2,3.9,3.9,0,0,1-4.19-3.92c0-3.31,2.94-5.12,8.23-5.09v-.28a2.82,2.82,0,0,0-3.11-3.17,6.83,6.83,0,0,0-3.56,1l-.57-1.64a8.45,8.45,0,0,1,4.5-1.22c4.18,0,5.2,2.86,5.2,5.6v5.11a19.24,19.24,0,0,0,.22,3.28Zm-.37-7c-2.71,0-5.79.43-5.79,3.08a2.21,2.21,0,0,0,2.35,2.38,3.39,3.39,0,0,0,3.3-2.29,2.48,2.48,0,0,0,.14-.79Z"/><path class="cls-2" d="M480.08,134.91a1.47,1.47,0,0,1-1.58,1.53,1.49,1.49,0,0,1-1.5-1.53,1.52,1.52,0,0,1,1.56-1.55A1.47,1.47,0,0,1,480.08,134.91Zm-2.77,17.52V138.75h2.49v13.68Z"/><path class="cls-2" d="M483.92,142.46c0-1.42,0-2.57-.11-3.71H486l.14,2.27h0a5.05,5.05,0,0,1,4.53-2.58c1.89,0,4.83,1.13,4.83,5.83v8.16h-2.49v-7.88c0-2.21-.82-4-3.16-4a3.55,3.55,0,0,0-3.34,2.54,3.64,3.64,0,0,0-.17,1.16v8.22h-2.49Z"/><path class="cls-2" d="M500.15,138.75l3,8.09c.31.9.65,2,.88,2.79h.05c.26-.81.54-1.86.88-2.85l2.71-8h2.63l-3.73,9.75c-1.78,4.7-3,7.1-4.69,8.57a6.88,6.88,0,0,1-3.05,1.61l-.62-2.09a6.62,6.62,0,0,0,2.17-1.22,7.51,7.51,0,0,0,2.09-2.77,1.84,1.84,0,0,0,.2-.59,2.28,2.28,0,0,0-.17-.65l-5.06-12.61Z"/><path class="cls-2" d="M609.58,136.38h-.06l-3.19,1.73-.48-1.9,4-2.15H612v18.37h-2.4Z"/><path class="cls-2" d="M618.45,147.77c0-2.32,1.38-4,3.64-4.92l0-.08a4.56,4.56,0,0,1-2.92-4.13c0-2.91,2.46-4.89,5.69-4.89,3.56,0,5.34,2.24,5.34,4.52a4.67,4.67,0,0,1-3,4.3v.09c2.29.9,3.7,2.51,3.7,4.74,0,3.2-2.74,5.34-6.24,5.34C620.77,152.74,618.45,150.45,618.45,147.77Zm9.89-.11c0-2.24-1.55-3.31-4-4-2.15.63-3.31,2-3.31,3.79a3.4,3.4,0,0,0,3.68,3.5C626.9,150.93,628.34,149.55,628.34,147.66Zm-6.84-9.19c0,1.84,1.39,2.83,3.5,3.39a3.6,3.6,0,0,0,2.8-3.33,2.86,2.86,0,0,0-3.11-3A2.92,2.92,0,0,0,621.5,138.47Z"/><path class="cls-2" d="M638.54,133.44a1.54,1.54,0,1,1,1.61-1.61A1.54,1.54,0,0,1,638.54,133.44Zm0-2.77a1.22,1.22,0,1,0,0,2.43,1.21,1.21,0,0,0,1.27-1.27A1.25,1.25,0,0,0,638.54,130.67Zm16.56,16.9a7.83,7.83,0,0,1-6.84,3.87,8.94,8.94,0,0,1-9.13-9.32c0-6.19,4.61-10.06,9.07-10.06a16.12,16.12,0,0,1,5.6.79l.53,3.67-.62.06c-1-2.91-2.82-3.62-5.39-3.62-3.73,0-7.13,3.2-7.13,9.3,0,5,3.48,8.28,7.58,8.28a6.74,6.74,0,0,0,5.73-3.39Z"/><path class="cls-2" d="M660.12,153.56,668,133.08h1.92L662,153.56Z"/><path class="cls-2" d="M676.51,136.38h0l-3.2,1.73-.48-1.9,4-2.15h2.11v18.37h-2.4Z"/><path class="cls-2" d="M686.2,149.58a8.36,8.36,0,0,0,4.07,1.16c3.2,0,4.19-2,4.16-3.56,0-2.58-2.35-3.68-4.75-3.68h-1.39v-1.86h1.39c1.81,0,4.1-.94,4.1-3.11,0-1.47-.94-2.77-3.22-2.77a6.81,6.81,0,0,0-3.68,1.21l-.65-1.8a8.72,8.72,0,0,1,4.81-1.42c3.61,0,5.25,2.15,5.25,4.38a4.56,4.56,0,0,1-3.39,4.33v0a4.8,4.8,0,0,1,4.1,4.72c0,2.94-2.29,5.51-6.7,5.51a9.42,9.42,0,0,1-4.78-1.24Z"/><path class="cls-2" d="M705.47,133.44a1.54,1.54,0,1,1,1.61-1.61A1.54,1.54,0,0,1,705.47,133.44Zm0-2.77a1.22,1.22,0,0,0,0,2.43,1.21,1.21,0,0,0,1.27-1.27A1.25,1.25,0,0,0,705.47,130.67ZM722,147.57a7.81,7.81,0,0,1-6.84,3.87,8.94,8.94,0,0,1-9.12-9.32c0-6.19,4.6-10.06,9.07-10.06a16.1,16.1,0,0,1,5.59.79l.54,3.67-.62.06c-1-2.91-2.83-3.62-5.4-3.62-3.73,0-7.12,3.2-7.12,9.3,0,5,3.48,8.28,7.57,8.28a6.77,6.77,0,0,0,5.74-3.39Z"/><path class="cls-2" d="M798.76,133.64a23.5,23.5,0,0,1,4.49-.4c2.46,0,4,.43,5.23,1.39a4,4,0,0,1,1.59,3.36,4.52,4.52,0,0,1-3.23,4.18v.06a4.91,4.91,0,0,1,3.93,4.78,5.12,5.12,0,0,1-1.61,3.81c-1.33,1.22-3.47,1.78-6.58,1.78a29.57,29.57,0,0,1-3.82-.22Zm2.46,7.8h2.23c2.6,0,4.13-1.36,4.13-3.19,0-2.24-1.7-3.11-4.18-3.11a10.25,10.25,0,0,0-2.18.17Zm0,9.13a13.83,13.83,0,0,0,2.06.11c2.55,0,4.89-.93,4.89-3.7,0-2.6-2.23-3.68-4.92-3.68h-2Z"/><path class="cls-2" d="M814,143c0-1.61,0-3-.11-4.27h2.17l.09,2.69h.11a4.1,4.1,0,0,1,3.79-3,2.48,2.48,0,0,1,.7.09v2.34a4.06,4.06,0,0,0-.84-.08,3.5,3.5,0,0,0-3.34,3.19,7.89,7.89,0,0,0-.11,1.16v7.29H814Z"/><path class="cls-2" d="M824.33,146.05c.06,3.36,2.21,4.74,4.69,4.74a9.11,9.11,0,0,0,3.79-.7l.43,1.78a11.26,11.26,0,0,1-4.56.84c-4.21,0-6.72-2.76-6.72-6.89s2.43-7.38,6.41-7.38c4.47,0,5.66,3.93,5.66,6.45a8.94,8.94,0,0,1-.09,1.16Zm7.29-1.78c0-1.59-.65-4.05-3.44-4.05-2.52,0-3.62,2.32-3.82,4.05Z"/><path class="cls-2" d="M838.49,146.05c0,3.36,2.2,4.74,4.69,4.74a9.14,9.14,0,0,0,3.79-.7l.42,1.78a11.2,11.2,0,0,1-4.55.84c-4.21,0-6.73-2.76-6.73-6.89s2.43-7.38,6.42-7.38c4.46,0,5.65,3.93,5.65,6.45,0,.51-.06.9-.08,1.16Zm7.29-1.78c0-1.59-.65-4.05-3.45-4.05-2.51,0-3.62,2.32-3.81,4.05Z"/><path class="cls-2" d="M849.7,151l6.19-8.05c.6-.74,1.16-1.39,1.78-2.12v-.06h-7.4v-2H860.7l0,1.56-6.1,7.94c-.57.76-1.14,1.44-1.76,2.15v0h8v2H849.7Z"/><path class="cls-2" d="M864.54,146.05c.05,3.36,2.2,4.74,4.69,4.74a9.14,9.14,0,0,0,3.79-.7l.42,1.78a11.16,11.16,0,0,1-4.55.84c-4.21,0-6.73-2.76-6.73-6.89s2.43-7.38,6.42-7.38c4.47,0,5.65,3.93,5.65,6.45,0,.51-.06.9-.08,1.16Zm7.29-1.78c0-1.59-.65-4.05-3.45-4.05-2.51,0-3.62,2.32-3.81,4.05Z"/><path class="cls-2" d="M20.22,250.31v-19H22.9L29,240.9a54.17,54.17,0,0,1,3.41,6.19l.06,0c-.22-2.54-.28-4.86-.28-7.82v-8h2.32v19H32L26,240.65a60.34,60.34,0,0,1-3.56-6.36l-.08,0c.14,2.4.19,4.69.19,7.86v8.13Z"/><path class="cls-2" d="M51.1,243.36c0,5.06-3.5,7.26-6.81,7.26-3.7,0-6.56-2.71-6.56-7,0-4.58,3-7.26,6.79-7.26S51.1,239.18,51.1,243.36Zm-10.85.14c0,3,1.72,5.26,4.15,5.26s4.16-2.23,4.16-5.31c0-2.32-1.16-5.26-4.1-5.26S40.25,240.9,40.25,243.5Z"/><path class="cls-2" d="M55,236.64l2.68,7.68c.45,1.25.82,2.38,1.11,3.51h.08c.31-1.13.71-2.26,1.16-3.51l2.65-7.68h2.61l-5.37,13.67H57.54l-5.2-13.67Z"/><path class="cls-2" d="M72.83,250.31v-1.52l2-1.89c4.69-4.47,6.81-6.84,6.83-9.61,0-1.87-.9-3.59-3.64-3.59a6.29,6.29,0,0,0-3.9,1.55l-.79-1.75a8.08,8.08,0,0,1,5.2-1.87c4,0,5.62,2.72,5.62,5.35,0,3.39-2.46,6.13-6.33,9.86L76.3,248.2v.05h8.25v2.06Z"/><path class="cls-2" d="M92.72,234.26h-.06L89.47,236l-.48-1.9L93,232h2.12v18.36h-2.4Z"/><path class="cls-2" d="M101.35,240.5l.37-1a4.81,4.81,0,0,0,2,.55,1.77,1.77,0,0,0,1.09-.34,1.24,1.24,0,0,0,.5-1.07,1.08,1.08,0,0,0-.33-.84,5,5,0,0,0-1.34-.66,5.73,5.73,0,0,1-1.67-.91,2,2,0,0,1-.63-1.52,2.15,2.15,0,0,1,.86-1.77,3,3,0,0,1,1.88-.56,5.14,5.14,0,0,1,2.38.63l-.38,1a3.37,3.37,0,0,0-1.89-.61,1.91,1.91,0,0,0-1,.28,1.05,1.05,0,0,0-.48,1,1.07,1.07,0,0,0,.47.91,6.86,6.86,0,0,0,1.23.61,4.83,4.83,0,0,1,1.81,1.06,2,2,0,0,1,.46,1.37,2.23,2.23,0,0,1-.91,1.89,3.28,3.28,0,0,1-2,.61A5.54,5.54,0,0,1,101.35,240.5Z"/><path class="cls-2" d="M109.36,233.56H108v-1h1.35v-1.83l1.25-.26v2.09h2v1h-2v4.56a3.73,3.73,0,0,0,.18,1.42,1,1,0,0,0,.95.52,2.28,2.28,0,0,0,1-.25l.12,1a4.17,4.17,0,0,1-1.36.26,1.88,1.88,0,0,1-1.74-.78,3.78,3.78,0,0,1-.36-1.92Z"/><path class="cls-2" d="M120.6,230.7A18.67,18.67,0,0,0,117,242.26a19,19,0,0,0,3.56,11.47h-1.95a18.25,18.25,0,0,1-3.7-11.47,18.62,18.62,0,0,1,3.7-11.56Z"/><path class="cls-2" d="M123,247.32a8.68,8.68,0,0,0,4.41,1.24c2.51,0,4-1.33,4-3.25s-1-2.8-3.59-3.78c-3.1-1.11-5-2.72-5-5.4,0-3,2.46-5.17,6.17-5.17a8.67,8.67,0,0,1,4.21.93l-.68,2a7.58,7.58,0,0,0-3.62-.91c-2.6,0-3.59,1.56-3.59,2.86,0,1.78,1.16,2.65,3.79,3.67,3.22,1.24,4.86,2.8,4.86,5.59s-2.18,5.49-6.67,5.49a9.82,9.82,0,0,1-4.86-1.22Z"/><path class="cls-2" d="M144.81,250.31l-.19-1.72h-.09a5.09,5.09,0,0,1-4.18,2,3.89,3.89,0,0,1-4.18-3.92c0-3.31,2.93-5.12,8.22-5.09v-.28a2.82,2.82,0,0,0-3.11-3.17,6.83,6.83,0,0,0-3.56,1l-.56-1.64a8.5,8.5,0,0,1,4.49-1.21c4.18,0,5.2,2.85,5.2,5.59V247a19.19,19.19,0,0,0,.22,3.27Zm-.36-7c-2.72-.05-5.8.43-5.8,3.08a2.2,2.2,0,0,0,2.35,2.38,3.39,3.39,0,0,0,3.3-2.29,2.5,2.5,0,0,0,.15-.79Z"/><path class="cls-2" d="M153.74,232.71v3.93h3.56v1.89h-3.56v7.38c0,1.69.48,2.65,1.87,2.65a5.29,5.29,0,0,0,1.44-.17l.11,1.87a6,6,0,0,1-2.2.34,3.45,3.45,0,0,1-2.69-1,5,5,0,0,1-1-3.56v-7.46h-2.12v-1.89h2.12v-3.28Z"/><path class="cls-2" d="M171.54,246.58c0,1.42,0,2.66.12,3.73h-2.21l-.14-2.23h-.06a5.15,5.15,0,0,1-4.52,2.54c-2.15,0-4.72-1.18-4.72-6v-8h2.49v7.57c0,2.6.79,4.35,3.05,4.35a3.6,3.6,0,0,0,3.28-2.26,3.68,3.68,0,0,0,.23-1.27v-8.39h2.48Z"/><path class="cls-2" d="M175.67,240.9c0-1.61,0-3-.12-4.26h2.18l.08,2.68h.12a4.09,4.09,0,0,1,3.78-3,2.57,2.57,0,0,1,.71.08v2.35a3.52,3.52,0,0,0-.85-.09c-1.75,0-3,1.33-3.33,3.2a6.45,6.45,0,0,0-.12,1.15v7.29h-2.45Z"/><path class="cls-2" d="M196.43,230.25v16.53c0,1.22,0,2.6.12,3.53h-2.23l-.12-2.37h0a5.06,5.06,0,0,1-4.67,2.68c-3.3,0-5.85-2.79-5.85-7,0-4.55,2.8-7.34,6.14-7.34a4.57,4.57,0,0,1,4.12,2.09H194v-8.17ZM194,242.2a4.6,4.6,0,0,0-.11-1,3.67,3.67,0,0,0-3.59-2.88c-2.58,0-4.1,2.26-4.1,5.28,0,2.77,1.36,5.06,4,5.06a3.74,3.74,0,0,0,3.65-3,4.57,4.57,0,0,0,.11-1.07Z"/><path class="cls-2" d="M208.13,250.31l-.2-1.72h-.08a5.09,5.09,0,0,1-4.18,2,3.9,3.9,0,0,1-4.19-3.92c0-3.31,2.94-5.12,8.23-5.09v-.28a2.82,2.82,0,0,0-3.11-3.17,6.83,6.83,0,0,0-3.56,1l-.57-1.64a8.54,8.54,0,0,1,4.5-1.21c4.18,0,5.2,2.85,5.2,5.59V247a19.19,19.19,0,0,0,.22,3.27Zm-.37-7c-2.71-.05-5.79.43-5.79,3.08a2.2,2.2,0,0,0,2.35,2.38,3.39,3.39,0,0,0,3.3-2.29,2.48,2.48,0,0,0,.14-.79Z"/><path class="cls-2" d="M214.85,236.64l3,8.08c.31.9.65,2,.88,2.8h.05c.26-.82.54-1.87.88-2.86l2.71-8H225l-3.73,9.75c-1.78,4.69-3,7.09-4.69,8.56a6.77,6.77,0,0,1-3.05,1.61l-.63-2.09a6.56,6.56,0,0,0,2.18-1.22,7.34,7.34,0,0,0,2.09-2.77,1.84,1.84,0,0,0,.2-.59,2.28,2.28,0,0,0-.17-.65l-5.06-12.6Z"/><path class="cls-2" d="M225.76,253.73a19.07,19.07,0,0,0,3.56-11.55,18.79,18.79,0,0,0-3.56-11.48h1.92a18,18,0,0,1,3.7,11.5,18.33,18.33,0,0,1-3.7,11.53Z"/><path class="cls-2" d="M448.24,231.52a26,26,0,0,1,4.72-.39c2.63,0,4.32.48,5.51,1.55a4.76,4.76,0,0,1,1.5,3.62,5,5,0,0,1-3.59,4.86v.08c1.47.51,2.34,1.87,2.8,3.85a29.61,29.61,0,0,0,1.47,5.22H458.1a24.72,24.72,0,0,1-1.27-4.55c-.56-2.62-1.58-3.61-3.81-3.7H450.7v8.25h-2.46Zm2.46,8.68h2.51c2.63,0,4.3-1.44,4.3-3.62,0-2.46-1.78-3.53-4.38-3.56a9.64,9.64,0,0,0-2.43.23Z"/><path class="cls-2" d="M471.27,250.31l-.2-1.72H471a5.12,5.12,0,0,1-4.18,2,3.9,3.9,0,0,1-4.19-3.92c0-3.31,2.94-5.12,8.23-5.09v-.28a2.83,2.83,0,0,0-3.11-3.17,6.83,6.83,0,0,0-3.56,1l-.57-1.64a8.53,8.53,0,0,1,4.49-1.21c4.19,0,5.2,2.85,5.2,5.59V247a19.12,19.12,0,0,0,.23,3.27Zm-.37-7c-2.71-.05-5.79.43-5.79,3.08a2.2,2.2,0,0,0,2.34,2.38,3.39,3.39,0,0,0,3.31-2.29,2.48,2.48,0,0,0,.14-.79Z"/><path class="cls-2" d="M480.08,232.79a1.47,1.47,0,0,1-1.58,1.53,1.49,1.49,0,0,1-1.5-1.53,1.52,1.52,0,0,1,1.56-1.55A1.47,1.47,0,0,1,480.08,232.79Zm-2.77,17.52V236.64h2.49v13.67Z"/><path class="cls-2" d="M483.92,240.34c0-1.41,0-2.57-.11-3.7H486l.14,2.26h0a5,5,0,0,1,4.53-2.57c1.89,0,4.83,1.13,4.83,5.82v8.16h-2.49v-7.88c0-2.2-.82-4-3.16-4a3.55,3.55,0,0,0-3.34,2.54,3.68,3.68,0,0,0-.17,1.16v8.22h-2.49Z"/><path class="cls-2" d="M500.15,236.64l3,8.08c.31.9.65,2,.88,2.8h.05c.26-.82.54-1.87.88-2.86l2.71-8h2.63l-3.73,9.75c-1.78,4.69-3,7.09-4.69,8.56a6.77,6.77,0,0,1-3.05,1.61l-.62-2.09a6.62,6.62,0,0,0,2.17-1.22,7.34,7.34,0,0,0,2.09-2.77,1.84,1.84,0,0,0,.2-.59,2.28,2.28,0,0,0-.17-.65l-5.06-12.6Z"/><path class="cls-2" d="M609.58,234.26h-.06L606.33,236l-.48-1.9,4-2.14H612v18.36h-2.4Z"/><path class="cls-2" d="M620.12,248.56a10.38,10.38,0,0,0,2-.08A7,7,0,0,0,626,246.7a8.14,8.14,0,0,0,2.43-4.89h-.09a5.41,5.41,0,0,1-4.32,2,5.33,5.33,0,0,1-5.43-5.63,6.31,6.31,0,0,1,6.28-6.53c3.75,0,6.07,3.06,6.07,7.75,0,4-1.35,6.86-3.16,8.62a9.28,9.28,0,0,1-5.35,2.46,12.25,12.25,0,0,1-2.28.14ZM621,238c0,2.29,1.38,3.9,3.53,3.9a4.12,4.12,0,0,0,3.62-1.92,1.66,1.66,0,0,0,.23-.9c0-3.14-1.16-5.54-3.76-5.54C622.52,233.53,621,235.39,621,238Z"/><path class="cls-2" d="M638.54,231.32a1.54,1.54,0,1,1,1.61-1.61A1.54,1.54,0,0,1,638.54,231.32Zm0-2.77a1.22,1.22,0,1,0,0,2.44,1.22,1.22,0,0,0,1.27-1.28A1.25,1.25,0,0,0,638.54,228.55Zm16.56,16.9a7.82,7.82,0,0,1-6.84,3.88,9,9,0,0,1-9.13-9.33c0-6.19,4.61-10.06,9.07-10.06a16.12,16.12,0,0,1,5.6.79l.53,3.67-.62.06c-1-2.91-2.82-3.62-5.39-3.62-3.73,0-7.13,3.2-7.13,9.3,0,5,3.48,8.28,7.58,8.28A6.74,6.74,0,0,0,654.5,245Z"/><path class="cls-2" d="M660.12,251.44,668,231h1.92L662,251.44Z"/><path class="cls-2" d="M676.51,234.26h0l-3.2,1.73-.48-1.9,4-2.14h2.11v18.36h-2.4Z"/><path class="cls-2" d="M693.3,250.31v-5h-8.54v-1.64L693,232h2.68v11.41h2.57v1.95h-2.57v5Zm0-6.95v-6.13c0-1,0-1.92.08-2.88h-.08c-.57,1.07-1,1.86-1.53,2.71l-4.49,6.25v.05Z"/><path class="cls-2" d="M705.47,231.32a1.54,1.54,0,1,1,1.61-1.61A1.54,1.54,0,0,1,705.47,231.32Zm0-2.77a1.22,1.22,0,0,0,0,2.44,1.22,1.22,0,0,0,1.27-1.28A1.25,1.25,0,0,0,705.47,228.55ZM722,245.45a7.8,7.8,0,0,1-6.84,3.88,9,9,0,0,1-9.12-9.33c0-6.19,4.6-10.06,9.07-10.06a16.1,16.1,0,0,1,5.59.79l.54,3.67-.62.06c-1-2.91-2.83-3.62-5.4-3.62-3.73,0-7.12,3.2-7.12,9.3,0,5,3.48,8.28,7.57,8.28a6.77,6.77,0,0,0,5.74-3.39Z"/><path class="cls-2" d="M798.77,231.52a24.37,24.37,0,0,1,4.49-.39c2.46,0,4,.42,5.23,1.38a4,4,0,0,1,1.58,3.36,4.54,4.54,0,0,1-3.22,4.19v.05a4.92,4.92,0,0,1,3.93,4.78,5.09,5.09,0,0,1-1.62,3.81c-1.32,1.22-3.47,1.78-6.58,1.78a29.38,29.38,0,0,1-3.81-.22Zm2.46,7.8h2.23c2.6,0,4.12-1.36,4.12-3.19,0-2.23-1.69-3.11-4.18-3.11a10.06,10.06,0,0,0-2.17.17Zm0,9.13a13.75,13.75,0,0,0,2.06.11c2.54,0,4.89-.93,4.89-3.7,0-2.6-2.24-3.67-4.92-3.67h-2Z"/><path class="cls-2" d="M814,240.9c0-1.61,0-3-.11-4.26h2.18l.08,2.68h.11a4.11,4.11,0,0,1,3.79-3,2.62,2.62,0,0,1,.71.08v2.35a3.57,3.57,0,0,0-.85-.09,3.48,3.48,0,0,0-3.33,3.2,6.45,6.45,0,0,0-.12,1.15v7.29H814Z"/><path class="cls-2" d="M824.34,243.93c0,3.36,2.2,4.75,4.69,4.75a9.12,9.12,0,0,0,3.79-.71l.42,1.78a11.21,11.21,0,0,1-4.55.85c-4.21,0-6.73-2.77-6.73-6.9s2.43-7.37,6.42-7.37c4.46,0,5.65,3.92,5.65,6.44a8.94,8.94,0,0,1-.09,1.16Zm7.29-1.78c0-1.58-.65-4-3.45-4-2.52,0-3.62,2.31-3.82,4Z"/><path class="cls-2" d="M838.49,243.93c.06,3.36,2.21,4.75,4.69,4.75A9.08,9.08,0,0,0,847,248l.42,1.78a11.13,11.13,0,0,1-4.55.85c-4.21,0-6.72-2.77-6.72-6.9s2.43-7.37,6.41-7.37c4.47,0,5.65,3.92,5.65,6.44a9.33,9.33,0,0,1-.08,1.16Zm7.29-1.78c0-1.58-.65-4-3.45-4-2.51,0-3.61,2.31-3.81,4Z"/><path class="cls-2" d="M849.71,248.87l6.19-8.05c.59-.74,1.16-1.39,1.78-2.12v-.06h-7.41v-2H860.7l0,1.55-6.1,7.94c-.57.77-1.13,1.44-1.75,2.15v.06h8v2h-11.1Z"/><path class="cls-2" d="M864.54,243.93c.06,3.36,2.21,4.75,4.69,4.75A9.08,9.08,0,0,0,873,248l.42,1.78a11.11,11.11,0,0,1-4.54.85c-4.22,0-6.73-2.77-6.73-6.9s2.43-7.37,6.41-7.37c4.47,0,5.66,3.92,5.66,6.44a8.94,8.94,0,0,1-.09,1.16Zm7.29-1.78c0-1.58-.65-4-3.44-4-2.52,0-3.62,2.31-3.82,4Z"/><rect x="313.81" width="1.29" height="85.23"/><rect x="313.81" y="99.17" width="1.29" height="85.23"/><rect x="313.81" y="198.34" width="1.29" height="85.23"/><path class="cls-3" d="M349,255.63h0s-2.35,2.47-2.56,4.46v0a.28.28,0,0,0,0,.09v0s0,.08,0,.12a2.69,2.69,0,0,0,5.38,0c0-.1,0-.2,0-.3,0-.68-.4-2.39-2.78-4.44Z"/><path class="cls-3" d="M360.32,255.73h0s-2.36,2.33-2.57,4.21v.26a2.7,2.7,0,1,0,5.38-.28c-.05-.64-.41-2.25-2.79-4.19Z"/><path class="cls-3" d="M366.21,232.54a11.85,11.85,0,0,0-21.33.9,9,9,0,0,0,1.86,17.73h2.69v.92h0v0a2.42,2.42,0,0,0,4.84,0v0h0v-.92h5.52a2.46,2.46,0,0,0,0,.28,2.42,2.42,0,0,0,4.84,0,2.46,2.46,0,0,0,0-.28H366a9.31,9.31,0,0,0,.17-18.61Z"/><path class="cls-1" d="M366,248.43s-.68,0-.85,0H346.65a6.18,6.18,0,0,1,.07-12.36h.11a9.15,9.15,0,0,1,1.12-2.74h0a9.14,9.14,0,0,1,2-2.27h0l.12-.11.07-.05.05,0a9.19,9.19,0,0,1,14.35,4.53,6.55,6.55,0,0,1,1.41-.16,6.45,6.45,0,0,1,1.33.14h0l.48.11h0l.1,0,.06,0,.07,0,.09,0h0A6.61,6.61,0,0,1,366,248.43Z"/><rect class="cls-4" x="337.79" y="226.28" width="37.37" height="36.96"/><path class="cls-3" d="M349,152.84h0s-2.35,2.47-2.56,4.46v0a.28.28,0,0,0,0,.09v0s0,.08,0,.12a2.69,2.69,0,0,0,5.38,0c0-.1,0-.2,0-.3,0-.68-.4-2.39-2.78-4.44Z"/><path class="cls-3" d="M360.32,152.94h0s-2.36,2.33-2.57,4.21v.26a2.7,2.7,0,1,0,5.38-.28c-.05-.64-.41-2.25-2.79-4.19Z"/><path class="cls-3" d="M366.21,129.75a11.85,11.85,0,0,0-21.33.9,9,9,0,0,0,1.86,17.73h2.69v.92h0v0a2.42,2.42,0,1,0,4.84,0v0h0v-.92h5.52a2.46,2.46,0,0,0,0,.28,2.42,2.42,0,1,0,4.84,0,2.46,2.46,0,0,0,0-.28H366a9.31,9.31,0,0,0,.17-18.61Z"/><path class="cls-1" d="M366,145.64s-.68,0-.85,0H346.65a6.18,6.18,0,0,1,.07-12.36h.11a9.15,9.15,0,0,1,1.12-2.74h0a9.14,9.14,0,0,1,2-2.27h0l.12-.11.07,0,.05,0a9.19,9.19,0,0,1,14.35,4.53,6.55,6.55,0,0,1,1.41-.16,6.45,6.45,0,0,1,1.33.14h0l.48.11h0l.1,0,.06,0,.07,0,.09,0h0A6.61,6.61,0,0,1,366,145.64Z"/><rect class="cls-4" x="337.79" y="123.49" width="37.37" height="36.96"/><path class="cls-3" d="M349,53.12h0s-2.35,2.47-2.56,4.46v0a.28.28,0,0,0,0,.09v0s0,.08,0,.12a2.69,2.69,0,0,0,5.38,0,3,3,0,0,0,0-.31c0-.67-.4-2.38-2.78-4.44Z"/><path class="cls-3" d="M360.32,53.23h0s-2.36,2.33-2.57,4.2v.27a2.7,2.7,0,0,0,5.39,0,2.71,2.71,0,0,0,0-.29c-.05-.63-.41-2.25-2.79-4.18Z"/><path class="cls-3" d="M366.21,30a11.85,11.85,0,0,0-21.33.9,9,9,0,0,0,1.86,17.73h2.69v.92h0v0a2.42,2.42,0,1,0,4.84,0v0h0v-.92h5.52a2.64,2.64,0,0,0,0,.28,2.42,2.42,0,1,0,4.84,0,2.64,2.64,0,0,0,0-.28H366A9.31,9.31,0,0,0,366.21,30Z"/><path class="cls-1" d="M366,45.92s-.68,0-.85,0H346.65a6.19,6.19,0,0,1,.07-12.37h.11A8.94,8.94,0,0,1,348,30.82h0a9,9,0,0,1,2-2.28h0l.12-.1.07-.05.05-.05a9.19,9.19,0,0,1,14.35,4.53,6.55,6.55,0,0,1,1.41-.15,6.45,6.45,0,0,1,1.33.13h0a4.21,4.21,0,0,1,.48.12h0l.1,0H368l.07,0,.09,0h0A6.6,6.6,0,0,1,366,45.92Z"/><rect class="cls-4" x="337.79" y="23.77" width="37.37" height="36.96"/></g></g></svg>