<svg xmlns="http://www.w3.org/2000/svg" viewBox="0 0 384.21 38.13"><defs><style>.cls-1{fill:#221714;}</style></defs><title>资源 44</title><g id="图层_2" data-name="图层 2"><g id="图层_1-2" data-name="图层 1"><path class="cls-1" d="M0,1.93H3.57V26.57H15.38v3H0Z"/><path class="cls-1" d="M39.65,19.48c0,7.33-5.09,10.53-9.88,10.53-5.38,0-9.52-3.93-9.52-10.21,0-6.64,4.35-10.53,9.84-10.53C35.79,9.27,39.65,13.41,39.65,19.48Zm-15.75.2c0,4.35,2.5,7.63,6,7.63s6-3.24,6-7.71C36,16.24,34.28,12,30,12S23.9,15.91,23.9,19.68Z"/><path class="cls-1" d="M63.75,9.72c-.08,1.43-.16,3-.16,5.45V26.69c0,4.55-.9,7.34-2.83,9.06a10.49,10.49,0,0,1-7.22,2.38,12.79,12.79,0,0,1-6.6-1.64l.91-2.75a11.18,11.18,0,0,0,5.82,1.56c3.69,0,6.39-1.93,6.39-6.93V26.16H60a7.08,7.08,0,0,1-6.31,3.32c-4.92,0-8.45-4.18-8.45-9.68,0-6.72,4.39-10.53,8.94-10.53a6.6,6.6,0,0,1,6.19,3.44h.08l.17-3ZM60,17.55a5.27,5.27,0,0,0-5.24-5.46c-3.45,0-5.91,2.92-5.91,7.51,0,3.89,2,7.13,5.86,7.13a5.27,5.27,0,0,0,5-3.69A6.4,6.4,0,0,0,60,21.11Z"/><path class="cls-1" d="M76.05,4.14a2.13,2.13,0,0,1-2.29,2.21,2.15,2.15,0,0,1-2.18-2.21,2.2,2.2,0,0,1,2.26-2.25A2.14,2.14,0,0,1,76.05,4.14ZM72,29.56V9.72h3.6V29.56Z"/><path class="cls-1" d="M83.6,25.87a9.4,9.4,0,0,0,4.75,1.44c2.63,0,3.86-1.32,3.86-3s-1-2.66-3.69-3.64c-3.57-1.28-5.25-3.24-5.25-5.62,0-3.2,2.58-5.82,6.85-5.82A9.87,9.87,0,0,1,95,10.5l-.91,2.62A7.73,7.73,0,0,0,90,12c-2.13,0-3.32,1.23-3.32,2.71,0,1.64,1.19,2.38,3.78,3.36,3.44,1.31,5.2,3,5.2,6,0,3.48-2.7,5.94-7.42,5.94a11.29,11.29,0,0,1-5.57-1.35Z"/><path class="cls-1" d="M107.13,4v5.7h5.17v2.74h-5.17V23.17c0,2.45.7,3.85,2.71,3.85a7.7,7.7,0,0,0,2.09-.25l.16,2.71a8.74,8.74,0,0,1-3.2.49A5,5,0,0,1,105,28.45c-1-1.06-1.4-2.83-1.4-5.16V12.46h-3.07V9.72h3.07V5Z"/><path class="cls-1" d="M122.83,4.14a2.12,2.12,0,0,1-2.29,2.21,2.15,2.15,0,0,1-2.18-2.21,2.2,2.2,0,0,1,2.26-2.25A2.14,2.14,0,0,1,122.83,4.14Zm-4,25.42V9.72h3.6V29.56Z"/><path class="cls-1" d="M145,28.82a13.37,13.37,0,0,1-5.7,1.15c-6,0-9.88-4.06-9.88-10.13S133.62,9.31,140.1,9.31a12.12,12.12,0,0,1,5,1l-.82,2.79a8.4,8.4,0,0,0-4.18-.94c-4.56,0-7,3.36-7,7.5,0,4.59,3,7.42,6.89,7.42a10.26,10.26,0,0,0,4.43-1Z"/><path class="cls-1" d="M166.87,4.14a2.24,2.24,0,0,1-4.47,0,2.19,2.19,0,0,1,2.25-2.25A2.14,2.14,0,0,1,166.87,4.14Zm-4,25.42V9.72h3.61V29.56Z"/><path class="cls-1" d="M174.9,15.09c0-2.05,0-3.73-.16-5.37h3.2l.2,3.28h.08a7.3,7.3,0,0,1,6.56-3.73c2.75,0,7,1.64,7,8.44V29.56h-3.6V18.12c0-3.2-1.19-5.86-4.6-5.86A5.12,5.12,0,0,0,178.76,16a5,5,0,0,0-.25,1.68V29.56H174.9Z"/><path class="cls-1" d="M200.49,29.56V12.46H197.7V9.72h2.79v-1c0-2.78.61-5.33,2.29-6.93A6.93,6.93,0,0,1,207.62,0a8.57,8.57,0,0,1,3.08.57l-.5,2.79a5.46,5.46,0,0,0-2.29-.45c-3.08,0-3.86,2.71-3.86,5.74V9.72h4.8v2.74h-4.8v17.1Z"/><path class="cls-1" d="M232.51,19.48c0,7.33-5.09,10.53-9.88,10.53-5.37,0-9.52-3.93-9.52-10.21,0-6.64,4.35-10.53,9.84-10.53C228.65,9.27,232.51,13.41,232.51,19.48Zm-15.75.2c0,4.35,2.5,7.63,6,7.63s6-3.24,6-7.71c0-3.36-1.68-7.63-5.95-7.63S216.76,15.91,216.76,19.68Z"/><path class="cls-1" d="M239.52,15.91c0-2.34,0-4.35-.17-6.19h3.16l.12,3.89h.17a6,6,0,0,1,5.49-4.34,4,4,0,0,1,1,.12v3.4a5.57,5.57,0,0,0-1.23-.12c-2.55,0-4.35,1.93-4.84,4.63a10.36,10.36,0,0,0-.17,1.68V29.56h-3.56Z"/><path class="cls-1" d="M255.38,15.09c0-2.05,0-3.73-.16-5.37h3.16l.16,3.2h.12a6.85,6.85,0,0,1,6.24-3.65,5.87,5.87,0,0,1,5.61,4h.09a8.11,8.11,0,0,1,2.21-2.58,6.78,6.78,0,0,1,4.39-1.39c2.62,0,6.52,1.72,6.52,8.61V29.56h-3.53V18.33c0-3.82-1.39-6.11-4.31-6.11a4.66,4.66,0,0,0-4.26,3.28,6.06,6.06,0,0,0-.29,1.8V29.56h-3.52V17.67c0-3.16-1.4-5.45-4.14-5.45a4.92,4.92,0,0,0-4.47,3.61,4.82,4.82,0,0,0-.29,1.76v12h-3.53Z"/><path class="cls-1" d="M303,29.56l-.29-2.5h-.12a7.39,7.39,0,0,1-6.07,3,5.65,5.65,0,0,1-6.07-5.7c0-4.79,4.26-7.42,11.93-7.38v-.41c0-1.64-.45-4.59-4.51-4.59a9.8,9.8,0,0,0-5.16,1.48L291.92,11a12.25,12.25,0,0,1,6.51-1.76c6.07,0,7.55,4.14,7.55,8.11v7.43a27.44,27.44,0,0,0,.33,4.75Zm-.54-10.13c-3.93-.08-8.4.62-8.4,4.47a3.2,3.2,0,0,0,3.4,3.45,5,5,0,0,0,4.8-3.32,3.86,3.86,0,0,0,.2-1.15Z"/><path class="cls-1" d="M318.61,4v5.7h5.16v2.74h-5.16V23.17c0,2.45.69,3.85,2.7,3.85a7.64,7.64,0,0,0,2.09-.25l.17,2.71a8.81,8.81,0,0,1-3.2.49,5,5,0,0,1-3.9-1.52c-1-1.06-1.39-2.83-1.39-5.16V12.46H312V9.72h3.08V5Z"/><path class="cls-1" d="M334.31,4.14a2.24,2.24,0,0,1-4.47,0,2.19,2.19,0,0,1,2.25-2.25A2.14,2.14,0,0,1,334.31,4.14Zm-4,25.42V9.72h3.61V29.56Z"/><path class="cls-1" d="M360.3,19.48c0,7.33-5.08,10.53-9.88,10.53-5.37,0-9.51-3.93-9.51-10.21,0-6.64,4.35-10.53,9.84-10.53C356.45,9.27,360.3,13.41,360.3,19.48Zm-15.74.2c0,4.35,2.5,7.63,6,7.63s6-3.24,6-7.71c0-3.36-1.68-7.63-5.94-7.63S344.56,15.91,344.56,19.68Z"/><path class="cls-1" d="M367.31,15.09c0-2.05,0-3.73-.16-5.37h3.2l.2,3.28h.08a7.3,7.3,0,0,1,6.56-3.73c2.75,0,7,1.64,7,8.44V29.56H380.6V18.12c0-3.2-1.19-5.86-4.59-5.86A5.12,5.12,0,0,0,371.17,16a5,5,0,0,0-.25,1.68V29.56h-3.61Z"/></g></g></svg>