<svg xmlns="http://www.w3.org/2000/svg" viewBox="0 0 962.6 574.76"><defs><style>.cls-1{fill:#addafa;}.cls-2{fill:#004567;}.cls-3,.cls-5,.cls-6,.cls-7{fill:none;stroke-miterlimit:10;}.cls-3{stroke:#255ca9;}.cls-3,.cls-5{stroke-width:1.24px;}.cls-4{fill:#255ca9;}.cls-5{stroke:#004567;}.cls-6{stroke:#b4b4b5;stroke-width:16.34px;}.cls-7{stroke:#888;stroke-width:12.25px;}.cls-8{fill:#fff;}.cls-9{fill:#43a45f;}</style></defs><title>资源 39</title><g id="图层_2" data-name="图层 2"><g id="图层_1-2" data-name="图层 1"><polygon class="cls-1" points="15.37 445.47 59.9 402.97 114.54 317.97 161.09 234.99 268.36 170.23 337.17 147.96 428.24 190.47 462.65 212.73 535.51 283.56 565.87 297.73 598.25 293.68 644.8 261.3 673.13 208.68 707.54 135.82 723.73 77.13 745.99 22.48 756.11 8.32 833.02 8.32 818.85 58.91 786.47 137.84 762.18 202.61 729.8 255.23 671.11 332.14 618.49 354.4 561.82 364.52 519.32 354.4 470.75 313.92 452.53 289.63 420.15 257.25 381.69 230.94 369.55 216.78 304.79 220.82 278.48 232.97 233.95 251.18 203.59 269.4 159.07 317.97 116.57 400.95 70.02 451.55 39.66 487.98 17.4 498.1 15.37 445.47"/><path class="cls-2" d="M453.71,87.25A5.23,5.23,0,1,1,448.48,82,5.23,5.23,0,0,1,453.71,87.25Z"/><path class="cls-3" d="M455.08,87.25a6.6,6.6,0,1,1-6.6-6.6A6.6,6.6,0,0,1,455.08,87.25Z"/><path class="cls-4" d="M65.12,168.2A5.23,5.23,0,1,1,59.9,163,5.23,5.23,0,0,1,65.12,168.2Z"/><path class="cls-5" d="M66.49,168.2a6.59,6.59,0,1,1-6.59-6.59A6.6,6.6,0,0,1,66.49,168.2Z"/><polyline class="cls-6" points="223.83 8.32 185.38 50.82 128.71 147.96 122.64 190.47 128.71 239.04 244.07 311.9 343.24 358.45 397.89 390.83 493.01 429.28 608.37 461.67 707.54 512.26 796.59 540.6 865.4 546.67 936.24 566.91"/><polyline class="cls-6" points="353.36 10.34 345.26 38.67 347.29 64.98 337.17 147.96 339.19 277.49 343.24 358.45 343.24 431.31 331.1 504.17 323 566.91"/><polyline class="cls-6" points="7.28 107.49 179.31 113.56 231.93 81.18 347.29 64.98 446.46 54.87 549.68 34.63 691.35 36.65 754.09 58.91 875.52 109.51 958.5 113.56"/><polyline class="cls-6" points="628.61 10.34 622.54 38.67 614.44 85.22 586.11 137.84 571.94 194.51 580.03 277.49 588.13 360.47 606.35 417.14 594.2 467.74 573.96 520.36 559.8 570.95"/><polyline class="cls-6" points="5.25 372.61 106.45 457.62 140.85 471.78 173.24 471.78 272.41 447.5 375.62 467.74 553.73 494.05 604.32 500.12 741.95 459.64 855.28 409.04"/><rect class="cls-7" x="7.28" y="6.13" width="949.2" height="559.98"/><path class="cls-2" d="M757.59,149.92H463.23c-6.22,0-11.31-3.48-11.31-7.73V121.46c0-4.25,5.09-7.72,11.31-7.72H757.59c6.22,0,11.31,3.47,11.31,7.72v20.73C768.9,146.44,763.81,149.92,757.59,149.92Z"/><path class="cls-8" d="M467.7,139.39,467.64,127h2.77a15.73,15.73,0,0,1,2.39.15,4.31,4.31,0,0,1,3.09,2.08,7.47,7.47,0,0,1,.94,3.85q0,3.73-2.17,5.3a5.77,5.77,0,0,1-2.74.93c-.43,0-1,.06-1.64.07Zm1.43-1.19h1.25a5.61,5.61,0,0,0,3.28-.81,4,4,0,0,0,1.29-1.85,6.75,6.75,0,0,0,.36-2.35,6.56,6.56,0,0,0-.83-3.4,3.11,3.11,0,0,0-2.28-1.51,14.82,14.82,0,0,0-2.08-.1h-1Z"/><path class="cls-8" d="M482.88,130.07a3.78,3.78,0,0,1,3.12,1.47,5.07,5.07,0,0,1,1,3.21,4.87,4.87,0,0,1-1.14,3.41,3.87,3.87,0,0,1-3,1.33,3.83,3.83,0,0,1-3.18-1.49,5,5,0,0,1-1-3.22,4.88,4.88,0,0,1,1.15-3.4A3.89,3.89,0,0,1,482.88,130.07Zm-.09,1.09a2.35,2.35,0,0,0-2.17,1.34,4.59,4.59,0,0,0-.52,2.29,4.49,4.49,0,0,0,.64,2.46,2.41,2.41,0,0,0,2.12,1.15,2.43,2.43,0,0,0,2.22-1.35,4.7,4.7,0,0,0,.51-2.29,4.49,4.49,0,0,0-.64-2.46A2.41,2.41,0,0,0,482.79,131.16Z"/><path class="cls-8" d="M496.6,130.18l0,6.12c0,1.4,0,2.39.09,2.95h-1.35l-.06-1.45a4.35,4.35,0,0,1-3.22,1.64,2.33,2.33,0,0,1-2.31-1.24,7,7,0,0,1-.39-2.74l0-5.24h1.37l0,5.27a6.74,6.74,0,0,0,.2,1.91,1.44,1.44,0,0,0,1.52,1,3.7,3.7,0,0,0,2.8-1.71l0-6.45Z"/><path class="cls-8" d="M501,139.23H499.7v-.32c0-1.14.05-2.13.05-3l-.05-9.77h1.36l0,5.26a3.21,3.21,0,0,1,2.66-1.45,3.13,3.13,0,0,1,2.61,1.34,5.3,5.3,0,0,1,1,3.29,5.47,5.47,0,0,1-1.12,3.63,3.14,3.14,0,0,1-2.5,1.18,2.77,2.77,0,0,1-1.84-.62,5,5,0,0,1-.87-.93Zm.14-2.62a5.32,5.32,0,0,0,.7.94,2.27,2.27,0,0,0,1.69.76,2,2,0,0,0,1.87-1.17,5.23,5.23,0,0,0,.54-2.5,4.88,4.88,0,0,0-.66-2.62,1.94,1.94,0,0,0-1.77-1,2.63,2.63,0,0,0-2.39,1.71Z"/><path class="cls-8" d="M509.8,139.18l-.07-13.07h1.37l.06,13.08Z"/><path class="cls-8" d="M515,135a4.53,4.53,0,0,0,.71,2.26,2.6,2.6,0,0,0,2.22,1,4.39,4.39,0,0,0,2.48-.87l.53,1a5.62,5.62,0,0,1-3,.91,4.06,4.06,0,0,1-3.31-1.39,5,5,0,0,1-1-3.3,4.91,4.91,0,0,1,1.33-3.78,3.64,3.64,0,0,1,2.59-.95,3.19,3.19,0,0,1,3.26,2,8.9,8.9,0,0,1,.51,3.1Zm4.81-1.11a4.11,4.11,0,0,0-.36-1.69,2.05,2.05,0,0,0-2-1.2,2.19,2.19,0,0,0-2,1.2,3.82,3.82,0,0,0-.41,1.71Z"/><path class="cls-8" d="M526,139.1l-.06-11.19-3.61,0v-1.18l8.72,0v1.18l-3.66,0,0,11.2Z"/><path class="cls-8" d="M532.91,139.07l0-5.17c0-1.14,0-2.3-.07-3.48V130h1.27l.06,1.67a4.34,4.34,0,0,1,1-1.31,2.33,2.33,0,0,1,1.56-.56,4,4,0,0,1,.64.06l-.12,1.23a2.1,2.1,0,0,0-.48-.06,2.23,2.23,0,0,0-1.77,1,5.35,5.35,0,0,0-.69,1.27l0,5.73Z"/><path class="cls-8" d="M539.9,134.87a4.53,4.53,0,0,0,.71,2.26,2.63,2.63,0,0,0,2.22,1,4.37,4.37,0,0,0,2.47-.87l.53,1a5.62,5.62,0,0,1-3,.91,4.09,4.09,0,0,1-3.32-1.39,5.07,5.07,0,0,1-1-3.3,4.89,4.89,0,0,1,1.34-3.78,3.63,3.63,0,0,1,2.59-.95,3.17,3.17,0,0,1,3.25,2,8.6,8.6,0,0,1,.52,3.1Zm4.8-1.11a4.28,4.28,0,0,0-.35-1.69,2,2,0,0,0-2-1.2,2.15,2.15,0,0,0-2,1.2,3.66,3.66,0,0,0-.41,1.71Z"/><path class="cls-8" d="M549.3,134.82a4.59,4.59,0,0,0,.71,2.26,2.63,2.63,0,0,0,2.22,1,4.32,4.32,0,0,0,2.48-.87l.53,1.06a5.61,5.61,0,0,1-3,.9,4,4,0,0,1-3.31-1.39,5,5,0,0,1-1-3.3,4.87,4.87,0,0,1,1.33-3.77,3.67,3.67,0,0,1,2.59-1,3.19,3.19,0,0,1,3.26,2,8.84,8.84,0,0,1,.51,3.09Zm4.81-1.11a4,4,0,0,0-.36-1.68,2,2,0,0,0-2-1.21,2.2,2.2,0,0,0-2,1.21,3.77,3.77,0,0,0-.41,1.7Z"/><path class="cls-8" d="M563.66,138.92h-1.28v-.33c0-1.14.06-2.13,0-3l0-9.78h1.37l0,5.25a3.21,3.21,0,0,1,2.67-1.44,3.14,3.14,0,0,1,2.61,1.33,5.35,5.35,0,0,1,1,3.3,5.45,5.45,0,0,1-1.12,3.63,3.13,3.13,0,0,1-2.5,1.17,2.83,2.83,0,0,1-1.84-.61,5.53,5.53,0,0,1-.87-.94Zm.14-2.61a5.6,5.6,0,0,0,.7.93,2.27,2.27,0,0,0,1.69.76,2,2,0,0,0,1.87-1.16,5.25,5.25,0,0,0,.54-2.5,4.92,4.92,0,0,0-.66-2.63,2,2,0,0,0-1.77-1,2.66,2.66,0,0,0-2.39,1.72Z"/><path class="cls-8" d="M574.71,139l-3.62-9.17h1.46l2.1,5.42c.22.58.47,1.27.75,2.06.26-.77.51-1.49.75-2.13l2-5.38h1.27l-3.63,9.85a9,9,0,0,1-1.22,2.36,2.49,2.49,0,0,1-2.09.91,5.45,5.45,0,0,1-1.33-.17l.23-1.11a3,3,0,0,0,1,.19,1.86,1.86,0,0,0,1.69-1.19A8.93,8.93,0,0,0,574.71,139Z"/><path class="cls-8" d="M585.74,138.81l-.06-12.37h1.44l0,5.45,6,0,0-5.45h1.43l.06,12.37h-1.43l0-5.75-6,0,0,5.75Z"/><path class="cls-8" d="M598.35,125.5a.92.92,0,0,1,.77.37,1,1,0,0,1,.19.6,1,1,0,0,1-.18.58.89.89,0,0,1-.79.38.87.87,0,0,1-.78-.37,1,1,0,0,1-.18-.58,1,1,0,0,1,.18-.6A.94.94,0,0,1,598.35,125.5Zm-.63,13.25,0-9.06H599l.05,9.07Z"/><path class="cls-8" d="M602.2,138.73l-.07-13.07h1.36l.07,13.08Z"/><path class="cls-8" d="M607.12,130.74h-1.47v-1.09h1.47v-2l1.36-.29v2.27h2.14v1.09h-2.14l0,5a4.3,4.3,0,0,0,.2,1.54,1.07,1.07,0,0,0,1,.56,2.42,2.42,0,0,0,1-.28l.13,1.08a4.36,4.36,0,0,1-1.48.29,2,2,0,0,1-1.89-.83,4.17,4.17,0,0,1-.4-2.08Z"/><path class="cls-8" d="M616.31,129.41a3.82,3.82,0,0,1,3.13,1.48,5.05,5.05,0,0,1,1,3.21,4.88,4.88,0,0,1-1.15,3.41,4.09,4.09,0,0,1-6.18-.16,5,5,0,0,1-1-3.22,4.88,4.88,0,0,1,1.15-3.4A3.92,3.92,0,0,1,616.31,129.41Zm-.08,1.1a2.37,2.37,0,0,0-2.18,1.34,4.7,4.7,0,0,0-.51,2.29,4.49,4.49,0,0,0,.64,2.46,2.51,2.51,0,0,0,4.33-.2,4.59,4.59,0,0,0,.52-2.29,4.49,4.49,0,0,0-.64-2.46A2.42,2.42,0,0,0,616.23,130.51Z"/><path class="cls-8" d="M622.92,138.63l0-6.11c0-1.38,0-2.37-.09-3h1.35l.06,1.44a8.19,8.19,0,0,1,1-.88,3.88,3.88,0,0,1,2.32-.76,2.39,2.39,0,0,1,2.36,1.25,6.61,6.61,0,0,1,.39,2.75l0,5.24h-1.36l0-5.26a6.47,6.47,0,0,0-.2-1.92,1.47,1.47,0,0,0-1.57-1,3.87,3.87,0,0,0-2.86,1.72l0,6.45Z"/><path class="cls-8" d="M637.83,138.56l-.06-12.38h1.43l0,5.45,6,0,0-5.45h1.43l.06,12.38h-1.43l0-5.74-6,0,0,5.74Z"/><path class="cls-8" d="M654.61,137.42a3.57,3.57,0,0,1-2.7,1.24,2.82,2.82,0,0,1-2.18-.79,2.62,2.62,0,0,1-.67-1.86q0-3,4.09-3l1.33,0v-.24a3.5,3.5,0,0,0-.26-1.51,1.79,1.79,0,0,0-1.8-.94,4.41,4.41,0,0,0-2.34.8l-.6-1a5.56,5.56,0,0,1,3.08-.92,3,3,0,0,1,2.83,1.22,3.68,3.68,0,0,1,.43,1.67c0,.26,0,.64,0,1.12v3c0,.93,0,1.68.08,2.26h-1.26Zm-.12-3.36c-.33,0-.67,0-1,0a4.33,4.33,0,0,0-2.12.39,1.67,1.67,0,0,0-.87,1.54,1.58,1.58,0,0,0,.44,1.17,1.66,1.66,0,0,0,1.22.44,2.75,2.75,0,0,0,2.35-1.4Z"/><path class="cls-8" d="M659,138.45l0-6.11c0-1.38,0-2.36-.08-3h1.34l.06,1.44a7.26,7.26,0,0,1,1-.87,3.91,3.91,0,0,1,2.32-.77,2.41,2.41,0,0,1,2.37,1.25,7,7,0,0,1,.39,2.75l0,5.24H665l0-5.27a6.47,6.47,0,0,0-.2-1.92,1.45,1.45,0,0,0-1.56-1,3.87,3.87,0,0,0-2.87,1.71l0,6.46Z"/><path class="cls-8" d="M675,129.31h1.33c0,1.46-.06,2.65-.05,3.57l0,4.53a11.46,11.46,0,0,1-.17,2.33,3.29,3.29,0,0,1-1.43,2,4,4,0,0,1-2.27.63,6.39,6.39,0,0,1-3.44-1l.58-1.05a4.85,4.85,0,0,0,2.82.93,2.24,2.24,0,0,0,2.21-1.3,6.31,6.31,0,0,0,.34-2.48v-.75a3.65,3.65,0,0,1-2.76,1.44,3.1,3.1,0,0,1-2.53-1.22,5,5,0,0,1-1-3.23,5.28,5.28,0,0,1,1.08-3.53,3.08,3.08,0,0,1,2.43-1.11A3.18,3.18,0,0,1,675,130.7Zm-.09,2.67a2.77,2.77,0,0,0-2.46-1.75,2,2,0,0,0-1.84,1.11,5,5,0,0,0-.54,2.41,4.4,4.4,0,0,0,.59,2.33,2.09,2.09,0,0,0,1.87,1.06,2.78,2.78,0,0,0,2.4-1.61Z"/><path class="cls-8" d="M678.51,138.36v-1l4.89-7-4.69,0v-1.1l6.31,0v1.1l-4.87,6.9,5,0v1.09Z"/><path class="cls-8" d="M687.39,138.32l-.07-13.08h1.37l0,5.41a4.44,4.44,0,0,1,3.25-1.6,2.4,2.4,0,0,1,2.36,1.24,6.64,6.64,0,0,1,.39,2.75l0,5.24h-1.36l0-5.27a6.47,6.47,0,0,0-.2-1.92,1.47,1.47,0,0,0-1.57-1,3.82,3.82,0,0,0-2.86,1.72l0,6.45Z"/><path class="cls-8" d="M701.28,129a3.77,3.77,0,0,1,3.12,1.48,4.94,4.94,0,0,1,1,3.21,4.89,4.89,0,0,1-1.14,3.41,4.11,4.11,0,0,1-6.18-.16,5,5,0,0,1-1-3.22,4.86,4.86,0,0,1,1.14-3.4A3.91,3.91,0,0,1,701.28,129Zm-.08,1.09a2.39,2.39,0,0,0-2.18,1.35,4.47,4.47,0,0,0-.51,2.28,4.4,4.4,0,0,0,.64,2.46,2.37,2.37,0,0,0,2.12,1.15,2.4,2.4,0,0,0,2.21-1.34,4.63,4.63,0,0,0,.51-2.3,4.4,4.4,0,0,0-.64-2.46A2.45,2.45,0,0,0,701.2,130.09Z"/><path class="cls-8" d="M715,129.12l0,6.11c0,1.41,0,2.39.08,3h-1.34l-.06-1.45a4.4,4.4,0,0,1-3.23,1.64,2.36,2.36,0,0,1-2.31-1.25,7,7,0,0,1-.39-2.74l0-5.24h1.36l0,5.26a6.34,6.34,0,0,0,.2,1.91,1.4,1.4,0,0,0,1.51,1,3.74,3.74,0,0,0,2.81-1.7l0-6.46Z"/><path class="cls-8" d="M722.69,138.14l-.06-12.37,6.53,0v1.18l-5.1,0,0,4.33,4.85,0v1.18l-4.84,0,0,4.51,5.36,0v1.18Z"/><path class="cls-8" d="M736.89,137a3.54,3.54,0,0,1-2.7,1.24,2.83,2.83,0,0,1-2.18-.79,2.66,2.66,0,0,1-.67-1.86c0-2,1.36-3,4.09-3l1.34,0v-.25a3.69,3.69,0,0,0-.26-1.51,1.81,1.81,0,0,0-1.81-.93,4.35,4.35,0,0,0-2.33.8l-.6-1a5.53,5.53,0,0,1,3.08-.92,3,3,0,0,1,2.82,1.21,3.61,3.61,0,0,1,.43,1.68c0,.26,0,.63,0,1.12l0,3c0,.93,0,1.68.08,2.26H737Zm-.12-3.36c-.33,0-.67,0-1,0a4.35,4.35,0,0,0-2.12.39,1.67,1.67,0,0,0-.87,1.54,1.59,1.59,0,0,0,.45,1.17,1.64,1.64,0,0,0,1.21.44,2.77,2.77,0,0,0,2.35-1.4Z"/><path class="cls-8" d="M740.59,137.61l.41-1.08a5.22,5.22,0,0,0,2.21.6,2,2,0,0,0,1.18-.38,1.37,1.37,0,0,0,.54-1.17,1.17,1.17,0,0,0-.36-.91,6.34,6.34,0,0,0-1.46-.7,6.12,6.12,0,0,1-1.82-1,2.16,2.16,0,0,1-.69-1.65,2.27,2.27,0,0,1,.92-1.92,3.31,3.31,0,0,1,2-.63,5.64,5.64,0,0,1,2.59.67l-.41,1.08a3.55,3.55,0,0,0-2-.65,2,2,0,0,0-1.14.3,1.24,1.24,0,0,0,0,2,6.94,6.94,0,0,0,1.34.65,5.23,5.23,0,0,1,2,1.15,2.16,2.16,0,0,1,.5,1.48,2.38,2.38,0,0,1-1,2,3.53,3.53,0,0,1-2.19.68A6.09,6.09,0,0,1,740.59,137.61Z"/><path class="cls-8" d="M749.25,130h-1.47V129h1.47v-2l1.36-.3v2.27h2.14V130h-2.14l0,5a4,4,0,0,0,.2,1.53,1,1,0,0,0,1,.56,2.63,2.63,0,0,0,1-.27l.13,1.08a4.4,4.4,0,0,1-1.48.29,2,2,0,0,1-1.89-.83,4.1,4.1,0,0,1-.4-2.09Z"/><polygon class="cls-2" points="453.84 88.15 500.02 112.56 474.73 112.23 453.84 88.15"/><path class="cls-2" d="M326.26,148H76.72c-6,0-10.92-3.78-10.92-8.4V117c0-4.62,4.92-8.41,10.92-8.41H326.26c6,0,10.91,3.79,10.91,8.41v22.57C337.17,144.18,332.26,148,326.26,148Z"/><path class="cls-8" d="M79.46,134.24l-.06-12.38h1.43l0,5.44,6,0,0-5.45h1.43l.06,12.37H86.85l0-5.75-6,0,0,5.75Z"/><path class="cls-8" d="M96.24,133.1a3.57,3.57,0,0,1-2.7,1.24,2.82,2.82,0,0,1-2.18-.79,2.58,2.58,0,0,1-.67-1.87c0-2,1.35-3,4.09-3l1.33,0v-.25a3.53,3.53,0,0,0-.26-1.51,1.8,1.8,0,0,0-1.8-.93,4.35,4.35,0,0,0-2.34.8l-.6-1a5.56,5.56,0,0,1,3.08-.92A3.06,3.06,0,0,1,97,126.13a3.62,3.62,0,0,1,.42,1.68c0,.26,0,.63,0,1.12l0,3c0,.93,0,1.68.08,2.26H96.3Zm-.12-3.36a8.63,8.63,0,0,0-1,0,4.35,4.35,0,0,0-2.12.39,1.64,1.64,0,0,0-.86,1.54,1.58,1.58,0,0,0,.44,1.17,1.65,1.65,0,0,0,1.22.44,2.79,2.79,0,0,0,2.35-1.4Z"/><path class="cls-8" d="M100.62,134.13l0-6.11c0-1.38,0-2.36-.09-3h1.35l.06,1.44a8.19,8.19,0,0,1,1-.88,4,4,0,0,1,2.32-.76,2.41,2.41,0,0,1,2.37,1.25,7,7,0,0,1,.39,2.75l0,5.24h-1.36l0-5.26a6.47,6.47,0,0,0-.2-1.92,1.46,1.46,0,0,0-1.57-1,3.84,3.84,0,0,0-2.86,1.71l0,6.46Z"/><path class="cls-8" d="M116.66,125H118c0,1.46-.06,2.66-.06,3.58l0,4.53a11.32,11.32,0,0,1-.18,2.33,3.24,3.24,0,0,1-1.42,2,3.93,3.93,0,0,1-2.27.64,6.36,6.36,0,0,1-3.44-1l.58-1.05A4.84,4.84,0,0,0,114,137a2.25,2.25,0,0,0,2.22-1.3,6.2,6.2,0,0,0,.33-2.48v-.75a3.68,3.68,0,0,1-2.76,1.44,3.1,3.1,0,0,1-2.53-1.22,4.89,4.89,0,0,1-1-3.23,5.27,5.27,0,0,1,1.08-3.53,3,3,0,0,1,2.43-1.11,3.12,3.12,0,0,1,2.8,1.56Zm-.09,2.66a2.8,2.8,0,0,0-2.47-1.74,2,2,0,0,0-1.83,1.11,4.72,4.72,0,0,0-.54,2.41,4.31,4.31,0,0,0,.59,2.33,2.09,2.09,0,0,0,1.87,1.06,2.76,2.76,0,0,0,2.39-1.61Z"/><path class="cls-8" d="M120.13,134v-1l4.89-7-4.69,0V125l6.31,0V126l-4.86,6.91,5,0V134Z"/><path class="cls-8" d="M129,134,129,120.92h1.36l0,5.41a4.49,4.49,0,0,1,3.25-1.61A2.41,2.41,0,0,1,136,126a6.64,6.64,0,0,1,.39,2.75l0,5.24H135l0-5.26a6.47,6.47,0,0,0-.2-1.92,1.46,1.46,0,0,0-1.57-1,3.81,3.81,0,0,0-2.86,1.71l0,6.46Z"/><path class="cls-8" d="M142.91,124.68a3.75,3.75,0,0,1,3.12,1.48,5.62,5.62,0,0,1-.12,6.62,4.12,4.12,0,0,1-6.19-.17,5,5,0,0,1-1-3.21,4.94,4.94,0,0,1,1.15-3.41A3.89,3.89,0,0,1,142.91,124.68Zm-.08,1.09a2.36,2.36,0,0,0-2.18,1.35,4.47,4.47,0,0,0-.51,2.28,4.32,4.32,0,0,0,.64,2.46A2.39,2.39,0,0,0,142.9,133a2.41,2.41,0,0,0,2.21-1.35,4.7,4.7,0,0,0,.51-2.29,4.4,4.4,0,0,0-.64-2.46A2.45,2.45,0,0,0,142.83,125.77Z"/><path class="cls-8" d="M156.64,124.79l0,6.12c0,1.41,0,2.39.08,3H155.4l-.05-1.44a4.45,4.45,0,0,1-3.23,1.64,2.34,2.34,0,0,1-2.31-1.25,7,7,0,0,1-.39-2.74l0-5.24h1.36l0,5.27A6.65,6.65,0,0,0,151,132a1.4,1.4,0,0,0,1.51,1,3.7,3.7,0,0,0,2.8-1.71l0-6.45Z"/><path class="cls-8" d="M164.32,133.82l-.06-12.37,6.53,0v1.17l-5.1,0,0,4.33,4.85,0v1.18l-4.84,0,0,4.51,5.36,0v1.18Z"/><path class="cls-8" d="M178.52,132.7a3.56,3.56,0,0,1-2.7,1.24,2.87,2.87,0,0,1-2.18-.79,2.63,2.63,0,0,1-.67-1.87c0-2,1.35-3,4.09-3l1.34,0v-.24a3.69,3.69,0,0,0-.26-1.51,1.79,1.79,0,0,0-1.81-.93,4.41,4.41,0,0,0-2.33.79l-.6-1a5.62,5.62,0,0,1,3.07-.93,3.06,3.06,0,0,1,2.83,1.22,3.73,3.73,0,0,1,.43,1.68c0,.26,0,.63,0,1.12l0,3c0,.93,0,1.68.08,2.26h-1.27Zm-.12-3.37c-.33,0-.67,0-1,0a4.46,4.46,0,0,0-2.12.4,1.66,1.66,0,0,0-.87,1.54,1.59,1.59,0,0,0,.45,1.17,1.68,1.68,0,0,0,1.21.44,2.77,2.77,0,0,0,2.35-1.4Z"/><path class="cls-8" d="M182.22,133.29l.41-1.08a5,5,0,0,0,2.21.59,1.85,1.85,0,0,0,1.18-.38,1.35,1.35,0,0,0,.54-1.16,1.17,1.17,0,0,0-.36-.91,6.16,6.16,0,0,0-1.47-.71,6,6,0,0,1-1.81-1,2.2,2.2,0,0,1-.7-1.65,2.34,2.34,0,0,1,.93-1.93,3.3,3.3,0,0,1,2-.62,5.67,5.67,0,0,1,2.59.67l-.41,1.08a3.64,3.64,0,0,0-2.05-.66,2.19,2.19,0,0,0-1.14.3,1.25,1.25,0,0,0,0,2,6.94,6.94,0,0,0,1.34.65,5.37,5.37,0,0,1,2,1.14,2.18,2.18,0,0,1,.5,1.49,2.42,2.42,0,0,1-1,2.05,3.53,3.53,0,0,1-2.19.68A6.09,6.09,0,0,1,182.22,133.29Z"/><path class="cls-8" d="M190.88,125.72h-1.47v-1.1h1.47v-2l1.36-.3v2.27h2.14v1.09h-2.14l0,5a4,4,0,0,0,.2,1.54,1,1,0,0,0,1,.56,2.63,2.63,0,0,0,1.05-.27l.12,1.08a4.56,4.56,0,0,1-1.47.29,2.07,2.07,0,0,1-1.89-.83,4.13,4.13,0,0,1-.4-2.09Z"/><path class="cls-8" d="M201.1,133.64,201,121.27h2.64a5.71,5.71,0,0,1,2.91.55,2.87,2.87,0,0,1,1.46,2.66,3,3,0,0,1-1,2.42,3.75,3.75,0,0,1-1.57.72,2.06,2.06,0,0,1,1.16.76,8.84,8.84,0,0,1,.73,1.49l1.54,3.74h-1.52L206,130.52a5.68,5.68,0,0,0-1.16-2,3.23,3.23,0,0,0-1.93-.41h-.42l0,5.5Zm1.4-6.68h.66a5.27,5.27,0,0,0,2.21-.36,2,2,0,0,0,1.16-2,1.88,1.88,0,0,0-1-1.85,4.76,4.76,0,0,0-2.17-.34h-.87Z"/><path class="cls-8" d="M215.47,132.52a3.57,3.57,0,0,1-2.7,1.24,2.82,2.82,0,0,1-2.18-.79,2.63,2.63,0,0,1-.67-1.87c0-2,1.35-3,4.09-3,.22,0,.66,0,1.33,0v-.24a3.53,3.53,0,0,0-.26-1.51,1.77,1.77,0,0,0-1.8-.93,4.47,4.47,0,0,0-2.34.79l-.6-1a5.65,5.65,0,0,1,3.08-.93,3.06,3.06,0,0,1,2.83,1.22,3.73,3.73,0,0,1,.43,1.68q0,.39,0,1.11v3c0,.94,0,1.69.08,2.27h-1.26Zm-.12-3.37c-.33,0-.67,0-1,0a4.43,4.43,0,0,0-2.12.4,1.66,1.66,0,0,0-.87,1.54,1.58,1.58,0,0,0,.44,1.17,1.71,1.71,0,0,0,1.22.44,2.77,2.77,0,0,0,2.35-1.4Z"/><path class="cls-8" d="M220.47,120.3a.91.91,0,0,1,.78.37,1,1,0,0,1,.18.59,1,1,0,0,1-.18.59,1,1,0,0,1-1.56,0,.93.93,0,0,1-.19-.59,1,1,0,0,1,.18-.59A.92.92,0,0,1,220.47,120.3Zm-.62,13.25,0-9.06h1.36l0,9.06Z"/><path class="cls-8" d="M224.32,133.53l-.06-13.07h1.36l.06,13.07Z"/><path class="cls-8" d="M230.22,133.5l-2.53-9h1.4l1.52,5.67c.24.88.43,1.63.57,2.22.18-.71.38-1.47.61-2.29l1.55-5.62h1.77l1.65,5.48c.26.86.49,1.66.7,2.41.17-.7.37-1.48.59-2.32l1.48-5.59h1.23l-2.49,9.08h-1.71l-1.78-5.78c-.24-.79-.45-1.51-.63-2.15-.18.71-.38,1.47-.6,2.27l-1.6,5.68Z"/><path class="cls-8" d="M247.67,132.36a3.57,3.57,0,0,1-2.7,1.24,2.82,2.82,0,0,1-2.18-.79,2.63,2.63,0,0,1-.68-1.87c0-2,1.36-3,4.09-3l1.34,0v-.25a3.56,3.56,0,0,0-.26-1.51,1.82,1.82,0,0,0-1.81-.93,4.35,4.35,0,0,0-2.33.8l-.6-1a5.56,5.56,0,0,1,3.08-.92,3,3,0,0,1,2.82,1.21,3.49,3.49,0,0,1,.43,1.68c0,.26,0,.63,0,1.12l0,3c0,.93,0,1.68.08,2.26h-1.27Zm-.12-3.36c-.34,0-.67,0-1,0a4.35,4.35,0,0,0-2.12.39,1.64,1.64,0,0,0-.86,1.54,1.58,1.58,0,0,0,.44,1.17,1.64,1.64,0,0,0,1.21.44,2.77,2.77,0,0,0,2.36-1.4Z"/><path class="cls-8" d="M254.27,133.5l-3.61-9.16h1.46l2.09,5.41q.34.88.75,2.07c.26-.78.51-1.49.75-2.14l2-5.37H259l-3.64,9.85a8.84,8.84,0,0,1-1.22,2.36,2.51,2.51,0,0,1-2.08.91,5.57,5.57,0,0,1-1.34-.18l.23-1.11a3.11,3.11,0,0,0,1,.2,1.87,1.87,0,0,0,1.69-1.19A8.75,8.75,0,0,0,254.27,133.5Z"/><path class="cls-8" d="M264.79,133l.18-1.25a9.05,9.05,0,0,0,3,.6,2.61,2.61,0,0,0,1.86-.64,2,2,0,0,0,.65-1.58,1.83,1.83,0,0,0-.56-1.42,7.81,7.81,0,0,0-2-1.09,11,11,0,0,1-2.39-1.3,2.68,2.68,0,0,1-.95-2.16,3.19,3.19,0,0,1,.66-2.07,3.14,3.14,0,0,1,1.43-1,4.83,4.83,0,0,1,1.76-.31,9.2,9.2,0,0,1,2.93.54l-.28,1.29a6.09,6.09,0,0,0-2.65-.66,2.73,2.73,0,0,0-1.65.52,1.63,1.63,0,0,0-.68,1.4,1.68,1.68,0,0,0,.46,1.2,5.59,5.59,0,0,0,1.93,1.14,8.81,8.81,0,0,1,2.5,1.39,3.45,3.45,0,0,1-.16,5,4.45,4.45,0,0,1-2.93.92A10.39,10.39,0,0,1,264.79,133Z"/><path class="cls-8" d="M275,125.31h-1.47v-1.1H275v-2l1.36-.3,0,2.27h2.14v1.09h-2.14l0,5a4.32,4.32,0,0,0,.19,1.54,1.05,1.05,0,0,0,1,.56,2.55,2.55,0,0,0,1-.27l.13,1.08a4.28,4.28,0,0,1-1.47.28,2,2,0,0,1-1.89-.82,4.11,4.11,0,0,1-.41-2.09Z"/><path class="cls-8" d="M285.5,132.17a3.55,3.55,0,0,1-2.7,1.25,2.87,2.87,0,0,1-2.18-.79,2.69,2.69,0,0,1-.67-1.87c0-2,1.36-3,4.09-3l1.34,0v-.24a3.69,3.69,0,0,0-.26-1.51,1.81,1.81,0,0,0-1.81-.94,4.43,4.43,0,0,0-2.33.8l-.6-1a5.63,5.63,0,0,1,3.08-.93,3,3,0,0,1,2.82,1.22,3.6,3.6,0,0,1,.43,1.67c0,.27,0,.64,0,1.12l0,3c0,.93,0,1.69.08,2.26h-1.27Zm-.12-3.36c-.33,0-.67,0-1,0a4.46,4.46,0,0,0-2.12.4,1.66,1.66,0,0,0-.87,1.54,1.59,1.59,0,0,0,.45,1.17,1.68,1.68,0,0,0,1.21.44,2.8,2.8,0,0,0,2.35-1.4Z"/><path class="cls-8" d="M290.33,125.23h-1.46v-1.09h1.47v-2l1.36-.3v2.28h2.14v1.09H291.7l0,5a4,4,0,0,0,.2,1.53,1,1,0,0,0,1,.57A2.62,2.62,0,0,0,294,132l.13,1.08a4.4,4.4,0,0,1-1.48.29,2,2,0,0,1-1.89-.83,4.08,4.08,0,0,1-.4-2.08Z"/><path class="cls-8" d="M296.66,119.93a.9.9,0,0,1,.77.37,1.06,1.06,0,0,1,0,1.18,1,1,0,0,1-1.56,0,1,1,0,0,1,0-1.18A.93.93,0,0,1,296.66,119.93ZM296,133.18l0-9.07h1.36l0,9.06Z"/><path class="cls-8" d="M304,123.89a3.82,3.82,0,0,1,3.13,1.48,5.05,5.05,0,0,1,1,3.21A4.94,4.94,0,0,1,307,132a4.09,4.09,0,0,1-6.18-.16,5.06,5.06,0,0,1-1-3.22,4.86,4.86,0,0,1,1.14-3.4A4,4,0,0,1,304,123.89Zm-.08,1.09a2.39,2.39,0,0,0-2.18,1.35,4.69,4.69,0,0,0-.51,2.28,4.49,4.49,0,0,0,.64,2.46,2.51,2.51,0,0,0,4.33-.19,4.62,4.62,0,0,0,.52-2.29,4.36,4.36,0,0,0-.65-2.46A2.42,2.42,0,0,0,303.92,125Z"/><path class="cls-8" d="M310.61,133.11l0-6.11c0-1.38,0-2.37-.09-3h1.35l.06,1.44a7.4,7.4,0,0,1,1-.88,3.86,3.86,0,0,1,2.32-.76,2.39,2.39,0,0,1,2.36,1.24,6.64,6.64,0,0,1,.39,2.75l0,5.24H316.6l0-5.27a6.47,6.47,0,0,0-.2-1.92,1.48,1.48,0,0,0-1.57-1,3.87,3.87,0,0,0-2.86,1.72l0,6.45Z"/><polygon class="cls-2" points="61.13 169.64 107.31 145.23 82.02 145.55 61.13 169.64"/><path class="cls-2" d="M850,381.06H600.41c-6,0-10.91-3.78-10.91-8.41V350.09c0-4.63,4.91-8.41,10.91-8.41H850c6,0,10.92,3.78,10.92,8.41v22.56C860.87,377.28,856,381.06,850,381.06Z"/><path class="cls-8" d="M603.16,364.35,603.09,352h1.44l0,5.45,6,0,0-5.45h1.43l.07,12.37h-1.44l0-5.75-6,0,0,5.74Z"/><path class="cls-8" d="M619.93,363.21a3.55,3.55,0,0,1-2.7,1.25,2.84,2.84,0,0,1-2.18-.8,2.66,2.66,0,0,1-.67-1.86c0-2,1.35-3,4.09-3l1.34,0v-.24a3.69,3.69,0,0,0-.26-1.51,1.81,1.81,0,0,0-1.81-.94,4.43,4.43,0,0,0-2.33.8l-.6-1a5.7,5.7,0,0,1,3.08-.92,3,3,0,0,1,2.82,1.22,3.72,3.72,0,0,1,.43,1.67c0,.27,0,.64,0,1.12l0,3c0,.93,0,1.69.08,2.26H620Zm-.12-3.36c-.33,0-.67,0-1,0a4.46,4.46,0,0,0-2.12.4,1.65,1.65,0,0,0-.87,1.54,1.59,1.59,0,0,0,.45,1.17,1.63,1.63,0,0,0,1.21.43,2.75,2.75,0,0,0,2.35-1.4Z"/><path class="cls-8" d="M624.31,364.25l0-6.11c0-1.38,0-2.37-.08-3h1.34l.06,1.44a8.12,8.12,0,0,1,1-.88,3.86,3.86,0,0,1,2.32-.76,2.39,2.39,0,0,1,2.36,1.24,7,7,0,0,1,.39,2.75l0,5.24H630.3l0-5.27a6.88,6.88,0,0,0-.2-1.92,1.48,1.48,0,0,0-1.57-1,3.87,3.87,0,0,0-2.86,1.72l0,6.45Z"/><path class="cls-8" d="M640.35,355.11h1.33c0,1.46,0,2.65,0,3.57l0,4.53a10.82,10.82,0,0,1-.17,2.34,3.28,3.28,0,0,1-1.42,2,4.12,4.12,0,0,1-2.28.64,6.57,6.57,0,0,1-3.44-1l.58-1.05a5,5,0,0,0,2.82.93,2.24,2.24,0,0,0,2.21-1.31,6.13,6.13,0,0,0,.34-2.48v-.75a3.69,3.69,0,0,1-2.76,1.45,3.12,3.12,0,0,1-2.53-1.22,4.92,4.92,0,0,1-1-3.24,5.29,5.29,0,0,1,1.09-3.52,3,3,0,0,1,2.43-1.11,3.15,3.15,0,0,1,2.8,1.55Zm-.09,2.66A2.74,2.74,0,0,0,637.8,356a2,2,0,0,0-1.84,1.11,4.8,4.8,0,0,0-.53,2.41,4.35,4.35,0,0,0,.58,2.33,2.07,2.07,0,0,0,1.88,1.05,2.75,2.75,0,0,0,2.39-1.61Z"/><path class="cls-8" d="M643.83,364.15v-1l4.89-7-4.69,0v-1.09l6.32,0v1.09l-4.86,6.9,5,0v1.09Z"/><path class="cls-8" d="M652.71,364.11,652.65,351H654l0,5.41a4.46,4.46,0,0,1,3.25-1.6,2.4,2.4,0,0,1,2.36,1.25,7,7,0,0,1,.39,2.74l0,5.24H658.7l0-5.26a6.73,6.73,0,0,0-.21-1.92,1.45,1.45,0,0,0-1.56-1,3.87,3.87,0,0,0-2.87,1.72l0,6.45Z"/><path class="cls-8" d="M666.6,354.79a3.82,3.82,0,0,1,3.13,1.48,5.05,5.05,0,0,1,1,3.21,4.92,4.92,0,0,1-1.15,3.41,4.09,4.09,0,0,1-6.18-.16,5,5,0,0,1-1-3.22,4.88,4.88,0,0,1,1.14-3.4A4,4,0,0,1,666.6,354.79Zm-.08,1.1a2.36,2.36,0,0,0-2.18,1.34,4.69,4.69,0,0,0-.51,2.28,4.44,4.44,0,0,0,.64,2.46,2.39,2.39,0,0,0,2.12,1.16,2.41,2.41,0,0,0,2.21-1.35,4.59,4.59,0,0,0,.52-2.29,4.49,4.49,0,0,0-.64-2.46A2.42,2.42,0,0,0,666.52,355.89Z"/><path class="cls-8" d="M680.33,354.91l0,6.11c0,1.41,0,2.4.09,3H679.1l-.06-1.45a4.35,4.35,0,0,1-3.22,1.64,2.33,2.33,0,0,1-2.31-1.24,6.62,6.62,0,0,1-.39-2.74l0-5.24h1.36l0,5.26a6.47,6.47,0,0,0,.2,1.92,1.44,1.44,0,0,0,1.52,1,3.77,3.77,0,0,0,2.8-1.71l0-6.45Z"/><path class="cls-8" d="M688,363.94,688,351.56h1.44l.06,12.37Z"/><path class="cls-8" d="M692.61,363.92l0-6.12c0-1.38,0-2.36-.09-2.95h1.35l.06,1.45a6.74,6.74,0,0,1,1-.88,3.82,3.82,0,0,1,2.32-.76,2.41,2.41,0,0,1,2.37,1.24,7,7,0,0,1,.39,2.75l0,5.24H698.6l0-5.27a6.47,6.47,0,0,0-.2-1.92,1.47,1.47,0,0,0-1.57-1,3.86,3.86,0,0,0-2.86,1.72l0,6.45Z"/><path class="cls-8" d="M703.45,355.89H702v-1.09h1.46v-2l1.36-.3v2.27H707v1.09h-2.14l0,4.95a4,4,0,0,0,.2,1.54,1,1,0,0,0,1,.56,2.63,2.63,0,0,0,1-.27l.12,1.08a4.56,4.56,0,0,1-1.47.29,2.07,2.07,0,0,1-1.89-.83,4.13,4.13,0,0,1-.4-2.09Z"/><path class="cls-8" d="M709.88,359.67a4.48,4.48,0,0,0,.71,2.25,2.6,2.6,0,0,0,2.22,1,4.27,4.27,0,0,0,2.48-.87l.53,1.06a5.61,5.61,0,0,1-3,.9,4.06,4.06,0,0,1-3.32-1.39,5,5,0,0,1-1-3.29,4.92,4.92,0,0,1,1.34-3.78,3.65,3.65,0,0,1,2.59-1,3.19,3.19,0,0,1,3.26,2,8.86,8.86,0,0,1,.51,3.1Zm4.8-1.12a4.19,4.19,0,0,0-.35-1.68,2.05,2.05,0,0,0-2-1.21,2.18,2.18,0,0,0-2,1.21,3.65,3.65,0,0,0-.41,1.7Z"/><path class="cls-8" d="M718.57,363.79l0-5.17c0-1.14,0-2.3-.07-3.48l0-.42h1.27l.06,1.67a4.69,4.69,0,0,1,1-1.31,2.33,2.33,0,0,1,1.56-.56,3.91,3.91,0,0,1,.64.06l-.11,1.23a2.1,2.1,0,0,0-.48-.06,2.23,2.23,0,0,0-1.77,1,4.66,4.66,0,0,0-.69,1.26l0,5.74Z"/><path class="cls-8" d="M724.83,363.76l0-6.11c0-1.38,0-2.37-.08-3h1.34l.06,1.44a6.83,6.83,0,0,1,1-.88,3.86,3.86,0,0,1,2.32-.76,2.4,2.4,0,0,1,2.36,1.24,7,7,0,0,1,.39,2.75l0,5.24h-1.36l0-5.27a6.78,6.78,0,0,0-.21-1.92,1.46,1.46,0,0,0-1.56-1,3.89,3.89,0,0,0-2.87,1.72l0,6.45Z"/><path class="cls-8" d="M740,362.63a3.57,3.57,0,0,1-2.7,1.24,2.82,2.82,0,0,1-2.18-.79,2.63,2.63,0,0,1-.67-1.87c0-2,1.35-3,4.09-3l1.33,0V358a3.53,3.53,0,0,0-.26-1.51,1.78,1.78,0,0,0-1.8-.93,4.41,4.41,0,0,0-2.34.8l-.6-1a5.56,5.56,0,0,1,3.08-.92,3.05,3.05,0,0,1,2.83,1.21,3.73,3.73,0,0,1,.43,1.68c0,.26,0,.63,0,1.12v3c0,.93,0,1.68.08,2.26h-1.26Zm-.12-3.36c-.33,0-.67,0-1,0a4.33,4.33,0,0,0-2.12.39,1.67,1.67,0,0,0-.87,1.54,1.58,1.58,0,0,0,.44,1.17,1.66,1.66,0,0,0,1.22.44,2.77,2.77,0,0,0,2.35-1.4Z"/><path class="cls-8" d="M744.85,355.69h-1.47V354.6h1.46v-2l1.36-.29v2.27h2.14v1.09h-2.14l0,4.95a4,4,0,0,0,.2,1.54,1,1,0,0,0,1,.56,2.5,2.5,0,0,0,1-.28l.12,1.09a4.28,4.28,0,0,1-1.47.28,2,2,0,0,1-1.89-.83,4.06,4.06,0,0,1-.4-2.08Z"/><path class="cls-8" d="M751.17,350.38a.88.88,0,0,1,.77.37,1,1,0,0,1,.19.6,1,1,0,0,1-.18.58.91.91,0,0,1-.79.38.89.89,0,0,1-.77-.37.92.92,0,0,1-.19-.58,1,1,0,0,1,.18-.6A.91.91,0,0,1,751.17,350.38Zm-.62,13.25,0-9.06h1.37l0,9.07Z"/><path class="cls-8" d="M758.52,354.35a3.76,3.76,0,0,1,3.12,1.47,4.94,4.94,0,0,1,1,3.21,4.87,4.87,0,0,1-1.14,3.41,3.87,3.87,0,0,1-3,1.33,3.8,3.8,0,0,1-3.17-1.49,4.93,4.93,0,0,1-1-3.22,4.88,4.88,0,0,1,1.14-3.4A3.92,3.92,0,0,1,758.52,354.35Zm-.08,1.09a2.36,2.36,0,0,0-2.18,1.34,4.49,4.49,0,0,0-.51,2.29,4.4,4.4,0,0,0,.64,2.46,2.39,2.39,0,0,0,2.12,1.15,2.42,2.42,0,0,0,2.21-1.35,4.49,4.49,0,0,0,.51-2.29,4.4,4.4,0,0,0-.64-2.46A2.41,2.41,0,0,0,758.44,355.44Z"/><path class="cls-8" d="M765.12,363.56l0-6.11c0-1.38,0-2.37-.08-2.95h1.34l.06,1.44a8.21,8.21,0,0,1,1-.88,3.86,3.86,0,0,1,2.32-.76,2.39,2.39,0,0,1,2.36,1.25,7,7,0,0,1,.39,2.75l0,5.24h-1.37l0-5.26a6.83,6.83,0,0,0-.2-1.92,1.48,1.48,0,0,0-1.57-1,3.89,3.89,0,0,0-2.87,1.72l0,6.45Z"/><path class="cls-8" d="M780.31,362.43a3.58,3.58,0,0,1-2.7,1.25,2.84,2.84,0,0,1-2.18-.8,2.62,2.62,0,0,1-.67-1.86q0-3,4.09-3l1.33,0v-.24a3.5,3.5,0,0,0-.26-1.51,1.79,1.79,0,0,0-1.8-.94,4.49,4.49,0,0,0-2.34.8l-.59-1a5.5,5.5,0,0,1,3.07-.92,3,3,0,0,1,2.83,1.22,3.68,3.68,0,0,1,.43,1.67c0,.26,0,.64,0,1.12v3c0,.93,0,1.68.08,2.26h-1.26Zm-.12-3.36c-.33,0-.67,0-1,0a4.45,4.45,0,0,0-2.12.39,1.67,1.67,0,0,0-.87,1.55,1.58,1.58,0,0,0,.44,1.16,1.66,1.66,0,0,0,1.22.44,2.75,2.75,0,0,0,2.35-1.4Z"/><path class="cls-8" d="M784.69,363.47l-.06-13.08H786l.06,13.07Z"/><path class="cls-8" d="M799.89,359.06l-4.61,0-1.5,4.34h-1.45l4.34-12.4h1.81l4.5,12.36h-1.55Zm-.43-1.18-1.12-3.25c-.28-.82-.54-1.62-.77-2.38-.21.71-.46,1.51-.76,2.4l-1.11,3.25Z"/><path class="cls-8" d="M805.4,350.12a.89.89,0,0,1,.77.37,1,1,0,0,1,0,1.18.91.91,0,0,1-.79.38.9.9,0,0,1-.78-.37,1,1,0,0,1-.18-.59,1,1,0,0,1,.18-.59A.91.91,0,0,1,805.4,350.12Zm-.62,13.25,0-9.07h1.36l0,9.06Z"/><path class="cls-8" d="M809.26,363.35l0-5.17c0-1.14,0-2.3-.07-3.48v-.42h1.26l.06,1.66a4.47,4.47,0,0,1,1-1.3,2.24,2.24,0,0,1,1.56-.56,3.8,3.8,0,0,1,.63.06l-.11,1.23a2.1,2.1,0,0,0-.48-.06,2.19,2.19,0,0,0-1.77,1,5.55,5.55,0,0,0-.69,1.27l0,5.74Z"/><path class="cls-8" d="M815.54,367.16l0-9.25c0-1,0-2.06-.07-3.17l0-.49h1.27l.06,1.38a3.38,3.38,0,0,1,2.77-1.57,3.12,3.12,0,0,1,2.61,1.33,5.35,5.35,0,0,1,1,3.3,5.56,5.56,0,0,1-1.12,3.63,3.16,3.16,0,0,1-2.5,1.17,2.84,2.84,0,0,1-1.85-.61,6,6,0,0,1-.76-.8l0,5.08Zm1.33-6.45a6.94,6.94,0,0,0,.71.92,2.24,2.24,0,0,0,1.69.76,2,2,0,0,0,1.87-1.16,5.25,5.25,0,0,0,.54-2.5,4.92,4.92,0,0,0-.66-2.63,2,2,0,0,0-1.77-1,2.83,2.83,0,0,0-2.4,1.68Z"/><path class="cls-8" d="M829.06,354a3.78,3.78,0,0,1,3.12,1.48,4.94,4.94,0,0,1,1,3.21,4.89,4.89,0,0,1-1.14,3.41,4.13,4.13,0,0,1-6.19-.16,5.06,5.06,0,0,1-1-3.22,4.91,4.91,0,0,1,1.15-3.4A3.93,3.93,0,0,1,829.06,354Zm-.08,1.09a2.38,2.38,0,0,0-2.18,1.35,4.47,4.47,0,0,0-.51,2.28,4.32,4.32,0,0,0,.64,2.46,2.37,2.37,0,0,0,2.12,1.15,2.4,2.4,0,0,0,2.21-1.34,4.74,4.74,0,0,0,.51-2.3,4.43,4.43,0,0,0-.64-2.45A2.44,2.44,0,0,0,829,355.09Z"/><path class="cls-8" d="M835.68,363.22l0-5.17c0-1.14,0-2.3-.07-3.48v-.42h1.27l.06,1.66a4.45,4.45,0,0,1,1-1.3,2.28,2.28,0,0,1,1.56-.56,3.91,3.91,0,0,1,.64.06l-.12,1.23a2.1,2.1,0,0,0-.48-.06,2.25,2.25,0,0,0-1.77,1,5.55,5.55,0,0,0-.69,1.27l0,5.74Z"/><path class="cls-8" d="M842.39,355.21h-1.47v-1.09h1.46v-2l1.36-.3v2.27h2.14v1.09h-2.14l0,5a4.26,4.26,0,0,0,.19,1.53,1,1,0,0,0,1,.56,2.55,2.55,0,0,0,1-.27l.13,1.08a4.3,4.3,0,0,1-1.47.29,2,2,0,0,1-1.89-.83,4.08,4.08,0,0,1-.41-2.09Z"/><path d="M70.58,97.39V85H73a6.13,6.13,0,0,1,3.24.66,3.24,3.24,0,0,1,1.43,3A3.19,3.19,0,0,1,74.94,92a9.85,9.85,0,0,1-2.14.19H72v5.22ZM72,91h.58a6.17,6.17,0,0,0,2.52-.37,2,2,0,0,0,1-2,2.19,2.19,0,0,0-.88-2,4.46,4.46,0,0,0-2.42-.48H72Z"/><path d="M80.37,93.22a4.68,4.68,0,0,0,.7,2.27,2.63,2.63,0,0,0,2.22,1,4.31,4.31,0,0,0,2.48-.85l.52,1a5.52,5.52,0,0,1-3,.89A4.08,4.08,0,0,1,80,96.16a5.06,5.06,0,0,1-1-3.3,4.93,4.93,0,0,1,1.35-3.78,3.66,3.66,0,0,1,2.6-.94,3.19,3.19,0,0,1,3.25,2,8.72,8.72,0,0,1,.49,3.1Zm4.81-1.09a4.07,4.07,0,0,0-.34-1.68,2.05,2.05,0,0,0-2-1.22,2.17,2.17,0,0,0-2,1.2,3.65,3.65,0,0,0-.42,1.7Z"/><path d="M89,97.39V91.28c0-1.38,0-2.37-.07-3H90.3l0,1.45a7.35,7.35,0,0,1,1-.88,3.9,3.9,0,0,1,2.33-.75A2.39,2.39,0,0,1,96,89.4a6.86,6.86,0,0,1,.38,2.75v5.24H95V92.12a6.92,6.92,0,0,0-.19-1.92,1.48,1.48,0,0,0-1.57-1,3.86,3.86,0,0,0-2.87,1.71v6.45Z"/><path d="M105.11,88.32h1.33c0,1.47-.07,2.66-.07,3.58v4.53a11.32,11.32,0,0,1-.18,2.33,3.26,3.26,0,0,1-1.44,2,4,4,0,0,1-2.27.63,6.55,6.55,0,0,1-3.44-1l.59-1.05a4.93,4.93,0,0,0,2.81.94A2.25,2.25,0,0,0,104.66,99a6.27,6.27,0,0,0,.35-2.48V95.8a3.7,3.7,0,0,1-2.77,1.43A3.12,3.12,0,0,1,99.72,96a4.94,4.94,0,0,1-1-3.24,5.3,5.3,0,0,1,1.1-3.52,3,3,0,0,1,2.44-1.1,3.14,3.14,0,0,1,2.79,1.57ZM105,91a2.78,2.78,0,0,0-2.46-1.76,2,2,0,0,0-1.84,1.1,4.85,4.85,0,0,0-.55,2.41,4.31,4.31,0,0,0,.58,2.33,2.08,2.08,0,0,0,1.87,1.07,2.76,2.76,0,0,0,2.4-1.6Z"/><path d="M110,97.39v-8h-1.47v-1.1H110v-.86a4.61,4.61,0,0,1,.44-2.33,2.23,2.23,0,0,1,2.07-1,4.67,4.67,0,0,1,1.28.19l-.13,1.17a2.12,2.12,0,0,0-1.06-.27,1.06,1.06,0,0,0-1.09.82,5.61,5.61,0,0,0-.15,1.53v.75h2.14v1.1h-2.14v8Z"/><path d="M122.68,88.32v6.12c0,1.41,0,2.39.07,3h-1.34l-.06-1.45a4.37,4.37,0,0,1-3.23,1.62,2.35,2.35,0,0,1-2.3-1.25,6.86,6.86,0,0,1-.38-2.75V88.32h1.37v5.27A6.43,6.43,0,0,0,117,95.5a1.41,1.41,0,0,0,1.51,1,3.74,3.74,0,0,0,2.81-1.69V88.32Z"/><path d="M130.32,97.39V85h1.44v5.45h6V85h1.43V97.39h-1.43V91.64h-6v5.75Z"/><path d="M149.47,88.32v6.12c0,1.41,0,2.39.07,3H148.2l0-1.45a4.41,4.41,0,0,1-3.24,1.62,2.35,2.35,0,0,1-2.3-1.25,6.86,6.86,0,0,1-.38-2.75V88.32h1.37v5.27a6.43,6.43,0,0,0,.19,1.91,1.41,1.41,0,0,0,1.51,1,3.73,3.73,0,0,0,2.81-1.69V88.32Z"/><path d="M153.08,89.42h-1.47v-1.1h1.47v-2l1.36-.29v2.27h2.14v1.1h-2.14v5a4.26,4.26,0,0,0,.19,1.53,1,1,0,0,0,1,.57,2.55,2.55,0,0,0,1.05-.27l.12,1.08a4.28,4.28,0,0,1-1.47.28,2,2,0,0,1-1.89-.84,4.08,4.08,0,0,1-.39-2.08Z"/><path d="M162.28,88.14a3.8,3.8,0,0,1,3.12,1.49,5,5,0,0,1,1,3.22,4.86,4.86,0,0,1-1.16,3.4,4.11,4.11,0,0,1-6.18-.19,5,5,0,0,1-1-3.22,4.87,4.87,0,0,1,1.16-3.4A3.91,3.91,0,0,1,162.28,88.14Zm-.08,1.09A2.39,2.39,0,0,0,160,90.57a4.55,4.55,0,0,0-.52,2.28,4.4,4.4,0,0,0,.63,2.46,2.51,2.51,0,0,0,4.33-.17,4.59,4.59,0,0,0,.52-2.29,4.4,4.4,0,0,0-.63-2.46A2.42,2.42,0,0,0,162.2,89.23Z"/><path d="M168.84,97.39V91.28c0-1.38,0-2.37-.07-3h1.35l0,1.45a6.77,6.77,0,0,1,1-.88,3.85,3.85,0,0,1,2.32-.75,2.4,2.4,0,0,1,2.36,1.26,6.91,6.91,0,0,1,.37,2.75v5.24h-1.36V92.12a6.55,6.55,0,0,0-.19-1.92,1.48,1.48,0,0,0-1.56-1,3.87,3.87,0,0,0-2.88,1.71v6.45Z"/><path d="M184.93,88.32h1.32c0,1.47-.07,2.66-.07,3.58v4.53a11.32,11.32,0,0,1-.18,2.33,3.25,3.25,0,0,1-1.43,2,4.06,4.06,0,0,1-2.28.63,6.52,6.52,0,0,1-3.43-1l.58-1.05a4.93,4.93,0,0,0,2.81.94A2.24,2.24,0,0,0,184.47,99a6.27,6.27,0,0,0,.35-2.48V95.8a3.69,3.69,0,0,1-2.77,1.43A3.12,3.12,0,0,1,179.53,96a4.94,4.94,0,0,1-1-3.24,5.3,5.3,0,0,1,1.1-3.52,3,3,0,0,1,2.44-1.1,3.14,3.14,0,0,1,2.79,1.57ZM184.82,91a2.77,2.77,0,0,0-2.45-1.76,2,2,0,0,0-1.84,1.1,4.85,4.85,0,0,0-.56,2.41,4.4,4.4,0,0,0,.58,2.33,2.09,2.09,0,0,0,1.87,1.07,2.76,2.76,0,0,0,2.4-1.6Z"/><path d="M265.76,364.43l4.22-6.3-4-6.08h1.66l3.22,4.88,3.33-4.88h1.57l-4.07,6,4.21,6.37h-1.71l-3.33-5.12-3.47,5.12Z"/><path d="M278.58,351.18a.88.88,0,0,1,.77.37,1,1,0,0,1,.19.6,1,1,0,0,1-.19.58,1,1,0,0,1-1.56,0,1,1,0,0,1-.18-.58,1,1,0,0,1,.18-.6A.9.9,0,0,1,278.58,351.18Zm-.69,13.25v-9.07h1.37v9.07Z"/><path d="M287.17,363.37a3.58,3.58,0,0,1-2.71,1.23,2.84,2.84,0,0,1-2.17-.8,2.62,2.62,0,0,1-.67-1.87q0-3,4.11-3l1.33,0v-.25a3.58,3.58,0,0,0-.25-1.51,1.79,1.79,0,0,0-1.8-.94,4.39,4.39,0,0,0-2.34.79l-.59-1a5.55,5.55,0,0,1,3.08-.91,3.05,3.05,0,0,1,2.82,1.23,3.62,3.62,0,0,1,.42,1.68q0,.39,0,1.11v3c0,.94,0,1.69.07,2.27h-1.27Zm-.11-3.36c-.33,0-.67,0-1,0a4.35,4.35,0,0,0-2.12.39,1.64,1.64,0,0,0-.87,1.53,1.58,1.58,0,0,0,.43,1.17,1.65,1.65,0,0,0,1.22.45,2.75,2.75,0,0,0,2.35-1.39Z"/><path d="M295.09,355.18a3.83,3.83,0,0,1,3.12,1.49,5,5,0,0,1,1,3.21,4.93,4.93,0,0,1-1.16,3.41,3.87,3.87,0,0,1-3,1.31,3.82,3.82,0,0,1-3.17-1.5,5,5,0,0,1-1-3.22,4.9,4.9,0,0,1,1.16-3.4A3.93,3.93,0,0,1,295.09,355.18Zm-.09,1.09a2.34,2.34,0,0,0-2.18,1.34,4.51,4.51,0,0,0-.53,2.27,4.42,4.42,0,0,0,.63,2.47,2.5,2.5,0,0,0,4.33-.18,4.56,4.56,0,0,0,.53-2.29,4.4,4.4,0,0,0-.63-2.46A2.42,2.42,0,0,0,295,356.27Z"/><path d="M301,364l.41-1.07a5.18,5.18,0,0,0,2.21.6,1.94,1.94,0,0,0,1.18-.38,1.35,1.35,0,0,0,.54-1.16,1.2,1.2,0,0,0-.35-.91,5.66,5.66,0,0,0-1.46-.71,5.93,5.93,0,0,1-1.81-1,2.16,2.16,0,0,1-.69-1.65,2.31,2.31,0,0,1,.93-1.92,3.27,3.27,0,0,1,2.05-.61,5.53,5.53,0,0,1,2.58.68l-.41,1.07a3.64,3.64,0,0,0-2-.66,2,2,0,0,0-1.14.3,1.23,1.23,0,0,0,0,2,7,7,0,0,0,1.33.66,5.27,5.27,0,0,1,2,1.15,2.17,2.17,0,0,1,.5,1.48,2.43,2.43,0,0,1-1,2.06,3.55,3.55,0,0,1-2.2.66A6,6,0,0,1,301,364Z"/><path d="M309.17,364.43V351.35h1.37v5.42a4.43,4.43,0,0,1,3.25-1.59,2.41,2.41,0,0,1,2.36,1.26,6.83,6.83,0,0,1,.38,2.75v5.24h-1.37v-5.27a6.55,6.55,0,0,0-.19-1.92,1.45,1.45,0,0,0-1.56-1,3.86,3.86,0,0,0-2.87,1.7v6.46Z"/><path d="M324.37,363.37a3.58,3.58,0,0,1-2.71,1.23,2.84,2.84,0,0,1-2.17-.8,2.62,2.62,0,0,1-.67-1.87q0-3,4.11-3l1.33,0v-.25a3.58,3.58,0,0,0-.25-1.51,1.79,1.79,0,0,0-1.8-.94,4.39,4.39,0,0,0-2.34.79l-.59-1a5.55,5.55,0,0,1,3.08-.91,3.05,3.05,0,0,1,2.82,1.23,3.62,3.62,0,0,1,.42,1.68q0,.39,0,1.11v3c0,.94,0,1.69.07,2.27h-1.27Zm-.11-3.36c-.33,0-.67,0-1,0a4.35,4.35,0,0,0-2.12.39,1.64,1.64,0,0,0-.87,1.53,1.58,1.58,0,0,0,.43,1.17,1.65,1.65,0,0,0,1.22.45,2.75,2.75,0,0,0,2.35-1.39Z"/><path d="M328.74,364.43v-6.12c0-1.38,0-2.36-.07-2.95H330l.05,1.44a7.28,7.28,0,0,1,1-.87,3.87,3.87,0,0,1,2.32-.75,2.39,2.39,0,0,1,2.36,1.26,6.83,6.83,0,0,1,.38,2.75v5.24h-1.37v-5.27a6.55,6.55,0,0,0-.19-1.92,1.47,1.47,0,0,0-1.56-1,3.86,3.86,0,0,0-2.87,1.7v6.46Z"/><path d="M343.66,364.43V352.05h1.43v5.45h6v-5.45h1.43v12.38h-1.43v-5.75h-6v5.75Z"/><path d="M362.81,355.36v6.11c0,1.41,0,2.4.07,3h-1.35l0-1.45a4.39,4.39,0,0,1-3.23,1.62,2.35,2.35,0,0,1-2.31-1.26,6.85,6.85,0,0,1-.37-2.74v-5.24h1.36v5.27a6.89,6.89,0,0,0,.19,1.91,1.43,1.43,0,0,0,1.51,1,3.76,3.76,0,0,0,2.82-1.7v-6.45Z"/><path d="M366.41,356.45H365v-1.09h1.46v-2l1.37-.29v2.27h2.14v1.09h-2.14v4.95a4.1,4.1,0,0,0,.19,1.54,1,1,0,0,0,1,.57,2.63,2.63,0,0,0,1.05-.27l.12,1.08a4.33,4.33,0,0,1-1.48.28,2,2,0,0,1-1.88-.84,4.1,4.1,0,0,1-.4-2.09Z"/><path d="M375.62,355.18a3.81,3.81,0,0,1,3.12,1.49,5,5,0,0,1,1,3.21,4.93,4.93,0,0,1-1.16,3.41,3.87,3.87,0,0,1-3,1.31,3.82,3.82,0,0,1-3.17-1.5,5,5,0,0,1-1-3.22,4.9,4.9,0,0,1,1.16-3.4A3.93,3.93,0,0,1,375.62,355.18Zm-.09,1.09a2.34,2.34,0,0,0-2.18,1.34,4.51,4.51,0,0,0-.53,2.27,4.42,4.42,0,0,0,.63,2.47,2.5,2.5,0,0,0,4.33-.18,4.56,4.56,0,0,0,.53-2.29,4.4,4.4,0,0,0-.63-2.46A2.42,2.42,0,0,0,375.53,356.27Z"/><path d="M382.18,364.43v-6.12c0-1.38,0-2.36-.07-2.95h1.34l.05,1.44a8,8,0,0,1,1-.87,3.9,3.9,0,0,1,2.33-.75,2.39,2.39,0,0,1,2.35,1.26,6.83,6.83,0,0,1,.38,2.75v5.24h-1.36v-5.27a6.47,6.47,0,0,0-.2-1.92,1.45,1.45,0,0,0-1.56-1,3.87,3.87,0,0,0-2.87,1.7v6.46Z"/><path d="M398.26,355.36h1.33c0,1.46-.07,2.65-.07,3.57v4.53a11.37,11.37,0,0,1-.18,2.34,3.26,3.26,0,0,1-1.44,2,4,4,0,0,1-2.28.63,6.46,6.46,0,0,1-3.43-1l.59-1a4.93,4.93,0,0,0,2.81.94,2.25,2.25,0,0,0,2.22-1.29,6.3,6.3,0,0,0,.35-2.48v-.75a3.7,3.7,0,0,1-2.77,1.43,3.11,3.11,0,0,1-2.52-1.23,4.94,4.94,0,0,1-1-3.24,5.3,5.3,0,0,1,1.1-3.52,3,3,0,0,1,2.43-1.1,3.14,3.14,0,0,1,2.8,1.57Zm-.1,2.67a2.76,2.76,0,0,0-2.46-1.76,2,2,0,0,0-1.84,1.1,4.8,4.8,0,0,0-.55,2.41,4.33,4.33,0,0,0,.58,2.33,2.08,2.08,0,0,0,1.87,1.07,2.78,2.78,0,0,0,2.4-1.6Z"/><path d="M521.22,42.35l4.22-6.29-4-6.08h1.66l3.22,4.88L529.65,30h1.57l-4.07,6,4.21,6.36h-1.71l-3.33-5.11-3.47,5.11Z"/><path d="M534,29.11a.88.88,0,0,1,.77.37,1,1,0,0,1,.19.59,1,1,0,0,1-.19.59,1,1,0,0,1-1.56,0,1,1,0,0,1-.18-.59,1,1,0,0,1,.18-.59A.9.9,0,0,1,534,29.11Zm-.69,13.24V33.29h1.37v9.06Z"/><path d="M542.63,41.3a3.58,3.58,0,0,1-2.71,1.23,2.81,2.81,0,0,1-2.17-.81,2.57,2.57,0,0,1-.67-1.86q0-3,4.11-3l1.33,0v-.24a3.55,3.55,0,0,0-.25-1.51,1.79,1.79,0,0,0-1.8-.94,4.45,4.45,0,0,0-2.34.78l-.59-1a5.63,5.63,0,0,1,3.08-.91,3.06,3.06,0,0,1,2.82,1.24,3.57,3.57,0,0,1,.42,1.67c0,.26,0,.64,0,1.12v3c0,.93,0,1.69.07,2.26h-1.26Zm-.11-3.37c-.33,0-.67,0-1,0a4.49,4.49,0,0,0-2.12.38,1.66,1.66,0,0,0-.88,1.54A1.58,1.58,0,0,0,539,41a1.65,1.65,0,0,0,1.21.45,2.78,2.78,0,0,0,2.36-1.39Z"/><path d="M546.32,41.91l.41-1.08a5.25,5.25,0,0,0,2.21.61,1.94,1.94,0,0,0,1.19-.38,1.37,1.37,0,0,0,.54-1.16,1.17,1.17,0,0,0-.36-.91,5.73,5.73,0,0,0-1.46-.72,6,6,0,0,1-1.8-1,2.16,2.16,0,0,1-.69-1.65,2.31,2.31,0,0,1,.93-1.92,3.24,3.24,0,0,1,2-.62,5.56,5.56,0,0,1,2.59.69l-.41,1.07a3.64,3.64,0,0,0-2-.66,2.16,2.16,0,0,0-1.15.29,1.14,1.14,0,0,0-.52,1,1.18,1.18,0,0,0,.51,1,8,8,0,0,0,1.34.65,5.2,5.2,0,0,1,2,1.16,2.11,2.11,0,0,1,.5,1.48,2.43,2.43,0,0,1-1,2,3.52,3.52,0,0,1-2.21.67A6.07,6.07,0,0,1,546.32,41.91Z"/><path d="M554.53,42.35V29.28h1.36v5.41a4.45,4.45,0,0,1,3.26-1.59,2.41,2.41,0,0,1,2.36,1.26,6.91,6.91,0,0,1,.37,2.75v5.24h-1.36V37.09a6.55,6.55,0,0,0-.19-1.92,1.45,1.45,0,0,0-1.56-1,3.83,3.83,0,0,0-2.88,1.7v6.45Z"/><path d="M569.72,41.3a3.56,3.56,0,0,1-2.7,1.23,2.83,2.83,0,0,1-2.18-.81,2.61,2.61,0,0,1-.66-1.86q0-3,4.1-3l1.34,0v-.24a3.55,3.55,0,0,0-.25-1.51,1.81,1.81,0,0,0-1.8-.94,4.4,4.4,0,0,0-2.34.78l-.6-1a5.66,5.66,0,0,1,3.09-.91,3.06,3.06,0,0,1,2.82,1.24A3.69,3.69,0,0,1,571,36c0,.26,0,.64,0,1.12v3c0,.93,0,1.69.07,2.26h-1.26Zm-.1-3.37c-.33,0-.67,0-1,0a4.54,4.54,0,0,0-2.13.38,1.66,1.66,0,0,0-.87,1.54,1.58,1.58,0,0,0,.44,1.17,1.63,1.63,0,0,0,1.21.45,2.78,2.78,0,0,0,2.36-1.39Z"/><path d="M580.88,42.35V31.16h-3.61V30H586v1.18h-3.66V42.35Z"/><path d="M592.59,41.3a3.6,3.6,0,0,1-2.71,1.23,2.83,2.83,0,0,1-2.18-.81,2.61,2.61,0,0,1-.66-1.86q0-3,4.1-3l1.34,0v-.24a3.55,3.55,0,0,0-.25-1.51,1.8,1.8,0,0,0-1.8-.94,4.43,4.43,0,0,0-2.34.78l-.6-1a5.66,5.66,0,0,1,3.09-.91,3.06,3.06,0,0,1,2.82,1.24,3.57,3.57,0,0,1,.42,1.67c0,.26,0,.64,0,1.12v3c0,.93,0,1.69.07,2.26h-1.26Zm-.11-3.37c-.33,0-.67,0-1,0a4.49,4.49,0,0,0-2.12.38,1.65,1.65,0,0,0-.88,1.54,1.58,1.58,0,0,0,.44,1.17,1.65,1.65,0,0,0,1.21.45,2.78,2.78,0,0,0,2.36-1.39Z"/><path d="M597,42.35V36.24c0-1.38,0-2.36-.07-3h1.35l0,1.44a6.71,6.71,0,0,1,1-.87,3.86,3.86,0,0,1,2.32-.76,2.4,2.4,0,0,1,2.36,1.26,6.91,6.91,0,0,1,.37,2.75v5.24H603V37.09a6.55,6.55,0,0,0-.19-1.92,1.47,1.47,0,0,0-1.56-1,3.86,3.86,0,0,0-2.88,1.7v6.45Z"/><path d="M606.67,41.91l.41-1.08a5.25,5.25,0,0,0,2.21.61,2,2,0,0,0,1.19-.38A1.37,1.37,0,0,0,611,39.9a1.17,1.17,0,0,0-.36-.91,5.73,5.73,0,0,0-1.46-.72,6,6,0,0,1-1.8-1,2.16,2.16,0,0,1-.69-1.65,2.31,2.31,0,0,1,.93-1.92,3.24,3.24,0,0,1,2-.62,5.56,5.56,0,0,1,2.59.69l-.41,1.07a3.64,3.64,0,0,0-2.05-.66,2.13,2.13,0,0,0-1.15.29,1.14,1.14,0,0,0-.52,1,1.18,1.18,0,0,0,.51,1,8,8,0,0,0,1.34.65,5.2,5.2,0,0,1,2,1.16,2.11,2.11,0,0,1,.5,1.48,2.42,2.42,0,0,1-1,2,3.47,3.47,0,0,1-2.2.67A6.07,6.07,0,0,1,606.67,41.91Z"/><path d="M614.88,46.19V37c0-1,0-2.07,0-3.17l0-.49h1.27l.06,1.38a3.38,3.38,0,0,1,2.77-1.57,3.15,3.15,0,0,1,2.61,1.35,5.34,5.34,0,0,1,1,3.3,5.47,5.47,0,0,1-1.14,3.62,3.12,3.12,0,0,1-2.51,1.17,2.82,2.82,0,0,1-1.84-.62,5.59,5.59,0,0,1-.76-.81v5.08Zm1.36-6.44a7.18,7.18,0,0,0,.7.93,2.25,2.25,0,0,0,1.69.76,2,2,0,0,0,1.87-1.15,5.11,5.11,0,0,0,.55-2.5,4.8,4.8,0,0,0-.64-2.62,2,2,0,0,0-1.77-1,2.8,2.8,0,0,0-2.4,1.66Z"/><path d="M628.46,33.1a3.81,3.81,0,0,1,3.12,1.5,5,5,0,0,1,1,3.21,4.93,4.93,0,0,1-1.16,3.41,3.87,3.87,0,0,1-3,1.31,3.82,3.82,0,0,1-3.17-1.5,5,5,0,0,1-1-3.23,4.89,4.89,0,0,1,1.16-3.39A3.93,3.93,0,0,1,628.46,33.1Zm-.09,1.1a2.35,2.35,0,0,0-2.18,1.33,4.58,4.58,0,0,0-.53,2.28,4.4,4.4,0,0,0,.63,2.46,2.5,2.5,0,0,0,4.33-.17,4.59,4.59,0,0,0,.53-2.29,4.4,4.4,0,0,0-.63-2.46A2.42,2.42,0,0,0,628.37,34.2Z"/><path d="M635,42.35V37.18c0-1.14,0-2.3,0-3.47v-.42h1.27l0,1.67a4.52,4.52,0,0,1,1-1.31,2.32,2.32,0,0,1,1.56-.55,3.12,3.12,0,0,1,.64.07l-.12,1.23a2.1,2.1,0,0,0-.48-.06,2.21,2.21,0,0,0-1.78,1,5.48,5.48,0,0,0-.69,1.26v5.74Z"/><path d="M641.78,34.38h-1.46V33.29h1.46v-2l1.37-.29v2.27h2.14v1.09h-2.14v4.95a4.14,4.14,0,0,0,.19,1.54,1,1,0,0,0,1,.57,2.5,2.5,0,0,0,1-.28l.12,1.09a4.63,4.63,0,0,1-1.48.28,2,2,0,0,1-1.88-.84,4,4,0,0,1-.4-2.09Z"/><path d="M652.24,41.3a3.56,3.56,0,0,1-2.7,1.23,2.83,2.83,0,0,1-2.18-.81,2.61,2.61,0,0,1-.66-1.86q0-3,4.1-3l1.34,0v-.24a3.55,3.55,0,0,0-.25-1.51,1.81,1.81,0,0,0-1.8-.94,4.4,4.4,0,0,0-2.34.78l-.6-1a5.66,5.66,0,0,1,3.09-.91,3.06,3.06,0,0,1,2.82,1.24,3.57,3.57,0,0,1,.42,1.67c0,.26,0,.64,0,1.12v3c0,.93,0,1.69.07,2.26h-1.26Zm-.1-3.37c-.33,0-.67,0-1,0a4.57,4.57,0,0,0-2.13.38,1.66,1.66,0,0,0-.87,1.54,1.58,1.58,0,0,0,.44,1.17,1.65,1.65,0,0,0,1.21.45,2.78,2.78,0,0,0,2.36-1.39Z"/><path d="M657.11,34.38h-1.47V33.29h1.47v-2l1.36-.29v2.27h2.14v1.09h-2.14v4.95a4.36,4.36,0,0,0,.19,1.54,1,1,0,0,0,1,.57,2.43,2.43,0,0,0,1-.28l.12,1.09a4.53,4.53,0,0,1-1.47.28,2,2,0,0,1-1.89-.84,4.12,4.12,0,0,1-.39-2.09Z"/><path d="M663.46,29.11a.9.9,0,0,1,.77.37,1,1,0,0,1,.18.59,1,1,0,0,1-.18.59.93.93,0,0,1-.79.37.9.9,0,0,1-.78-.37,1,1,0,0,1-.18-.59,1,1,0,0,1,.18-.59A.92.92,0,0,1,663.46,29.11Zm-.69,13.24V33.29h1.36v9.06Z"/><path d="M670.78,33.1a3.78,3.78,0,0,1,3.12,1.5,5,5,0,0,1,1,3.21,4.89,4.89,0,0,1-1.17,3.41,4.11,4.11,0,0,1-6.18-.19,5,5,0,0,1-1-3.23,4.85,4.85,0,0,1,1.16-3.39A3.92,3.92,0,0,1,670.78,33.1Zm-.08,1.1a2.38,2.38,0,0,0-2.19,1.33,4.58,4.58,0,0,0-.52,2.28,4.4,4.4,0,0,0,.63,2.46,2.37,2.37,0,0,0,2.11,1.17A2.41,2.41,0,0,0,673,40.1a4.59,4.59,0,0,0,.52-2.29,4.4,4.4,0,0,0-.63-2.46A2.41,2.41,0,0,0,670.7,34.2Z"/><path d="M677.34,42.35V36.24c0-1.38,0-2.36-.07-3h1.35l0,1.44a6.71,6.71,0,0,1,1-.87A3.88,3.88,0,0,1,682,33.1a2.4,2.4,0,0,1,2.36,1.26,6.91,6.91,0,0,1,.37,2.75v5.24h-1.36V37.09a6.55,6.55,0,0,0-.19-1.92,1.47,1.47,0,0,0-1.56-1,3.86,3.86,0,0,0-2.88,1.7v6.45Z"/><path d="M692.2,42.35V29.28h1.37v5.41a4.43,4.43,0,0,1,3.25-1.59,2.41,2.41,0,0,1,2.36,1.26,6.86,6.86,0,0,1,.38,2.75v5.24h-1.37V37.09a6.55,6.55,0,0,0-.19-1.92,1.45,1.45,0,0,0-1.56-1,3.81,3.81,0,0,0-2.87,1.7v6.45Z"/><path d="M709.76,33.29V39.4c0,1.41,0,2.39.07,3h-1.34l0-1.45a4.37,4.37,0,0,1-3.23,1.63,2.35,2.35,0,0,1-2.31-1.26,6.85,6.85,0,0,1-.37-2.74V33.29h1.36v5.26a6.55,6.55,0,0,0,.19,1.92,1.42,1.42,0,0,0,1.51,1,3.74,3.74,0,0,0,2.81-1.7V33.29Z"/><path d="M714.1,42.35h-1.29V42c0-1.14.06-2.13.06-3V29.28h1.36v5.26a3.21,3.21,0,0,1,2.68-1.44,3.13,3.13,0,0,1,2.6,1.35,5.34,5.34,0,0,1,1,3.3,5.47,5.47,0,0,1-1.14,3.62,3.1,3.1,0,0,1-2.5,1.17,2.85,2.85,0,0,1-1.85-.62,6.15,6.15,0,0,1-.86-1Zm.14-2.61a5.87,5.87,0,0,0,.7.94,2.27,2.27,0,0,0,1.69.76,2,2,0,0,0,1.88-1.15,5.22,5.22,0,0,0,.55-2.5,4.8,4.8,0,0,0-.65-2.62,2,2,0,0,0-1.76-1,2.67,2.67,0,0,0-2.41,1.7Z"/><path d="M611.87,488.58h-4.61l-1.52,4.34h-1.45l4.41-12.38h1.8l4.44,12.38h-1.55Zm-.42-1.17-1.1-3.26c-.28-.83-.54-1.62-.76-2.39-.21.71-.47,1.51-.77,2.4l-1.13,3.25Z"/><path d="M617.43,479.67a.89.89,0,0,1,.77.37,1,1,0,0,1,.18.6,1,1,0,0,1-.18.58.92.92,0,0,1-.79.38.91.91,0,0,1-.78-.38,1,1,0,0,1-.18-.58,1,1,0,0,1,.18-.6A.92.92,0,0,1,617.43,479.67Zm-.69,13.25v-9.07h1.36v9.07Z"/><path d="M621.23,492.92v-5.17q0-1.71-.06-3.48v-.42h1.27l.05,1.67a4.65,4.65,0,0,1,1-1.3,2.27,2.27,0,0,1,1.56-.55,3.91,3.91,0,0,1,.64.06l-.12,1.23a2.1,2.1,0,0,0-.48-.06,2.21,2.21,0,0,0-1.77,1,5,5,0,0,0-.7,1.27v5.74Z"/><path d="M627.49,496.76v-9.25c0-1,0-2.06-.06-3.17v-.49h1.27l0,1.38a3.39,3.39,0,0,1,2.78-1.56,3.13,3.13,0,0,1,2.6,1.34,5.28,5.28,0,0,1,1,3.3,5.55,5.55,0,0,1-1.13,3.63,3.14,3.14,0,0,1-2.51,1.16,2.8,2.8,0,0,1-1.84-.62,5.45,5.45,0,0,1-.76-.8v5.08Zm1.36-6.45a6.54,6.54,0,0,0,.7.93,2.24,2.24,0,0,0,1.68.77,2,2,0,0,0,1.88-1.15,5.14,5.14,0,0,0,.55-2.5,4.72,4.72,0,0,0-.65-2.63,1.94,1.94,0,0,0-1.76-1,2.81,2.81,0,0,0-2.4,1.67Z"/><path d="M641.07,483.67a3.8,3.8,0,0,1,3.11,1.49,5,5,0,0,1,1,3.21,4.93,4.93,0,0,1-1.16,3.41,3.88,3.88,0,0,1-3,1.31,3.84,3.84,0,0,1-3.17-1.5,5,5,0,0,1-1-3.22A4.9,4.9,0,0,1,638,485,3.92,3.92,0,0,1,641.07,483.67Zm-.09,1.09a2.37,2.37,0,0,0-2.19,1.34,4.62,4.62,0,0,0-.52,2.27,4.42,4.42,0,0,0,.63,2.47A2.38,2.38,0,0,0,641,492a2.41,2.41,0,0,0,2.22-1.34,4.56,4.56,0,0,0,.52-2.29,4.4,4.4,0,0,0-.62-2.46A2.44,2.44,0,0,0,641,484.76Z"/><path d="M647.64,492.92v-5.17c0-1.14,0-2.3,0-3.48v-.42h1.27l0,1.67a4.47,4.47,0,0,1,1-1.3,2.27,2.27,0,0,1,1.56-.55,3.91,3.91,0,0,1,.64.06L652,485a2,2,0,0,0-.48-.06,2.21,2.21,0,0,0-1.77,1,5.37,5.37,0,0,0-.7,1.27v5.74Z"/><path d="M654.39,484.94h-1.47v-1.09h1.47v-2l1.36-.29v2.27h2.14v1.09h-2.14v4.95a4,4,0,0,0,.2,1.54,1,1,0,0,0,1,.57,2.55,2.55,0,0,0,1-.27l.13,1.08a4.38,4.38,0,0,1-1.48.28,2,2,0,0,1-1.89-.84,4.12,4.12,0,0,1-.39-2.09Z"/><path d="M664.57,492.92V480.54H666V486h6v-5.45h1.43v12.38H672v-5.75h-6v5.75Z"/><path d="M683.72,483.85V490c0,1.41,0,2.4.07,3h-1.34l-.05-1.45a4.41,4.41,0,0,1-3.24,1.62,2.34,2.34,0,0,1-2.3-1.26,6.81,6.81,0,0,1-.38-2.74v-5.24h1.37v5.27A6.47,6.47,0,0,0,678,491a1.41,1.41,0,0,0,1.51,1,3.76,3.76,0,0,0,2.81-1.7v-6.45Z"/><path d="M687.33,484.94h-1.47v-1.09h1.47v-2l1.36-.29v2.27h2.14v1.09h-2.14v4.95a4.29,4.29,0,0,0,.19,1.54,1,1,0,0,0,1,.57,2.55,2.55,0,0,0,1.05-.27l.12,1.08a4.28,4.28,0,0,1-1.47.28,2,2,0,0,1-1.89-.84,4.12,4.12,0,0,1-.39-2.09Z"/><path d="M696.53,483.67a3.8,3.8,0,0,1,3.12,1.49,5,5,0,0,1,1,3.21,4.89,4.89,0,0,1-1.17,3.41,4.11,4.11,0,0,1-6.18-.19,5,5,0,0,1-1-3.22,4.86,4.86,0,0,1,1.16-3.4A3.91,3.91,0,0,1,696.53,483.67Zm-.08,1.09a2.37,2.37,0,0,0-2.19,1.34,4.51,4.51,0,0,0-.52,2.27,4.42,4.42,0,0,0,.63,2.47,2.38,2.38,0,0,0,2.11,1.16,2.41,2.41,0,0,0,2.22-1.34,4.56,4.56,0,0,0,.52-2.29,4.4,4.4,0,0,0-.63-2.46A2.41,2.41,0,0,0,696.45,484.76Z"/><path d="M703.09,492.92V486.8c0-1.38,0-2.36-.07-2.95h1.35l0,1.44a6.71,6.71,0,0,1,1-.87,3.87,3.87,0,0,1,2.32-.75,2.4,2.4,0,0,1,2.36,1.26,6.87,6.87,0,0,1,.37,2.75v5.24h-1.36v-5.27a6.55,6.55,0,0,0-.19-1.92,1.47,1.47,0,0,0-1.56-1,3.89,3.89,0,0,0-2.88,1.7v6.46Z"/><path d="M719.18,483.85h1.32c0,1.46-.07,2.65-.07,3.57V492a11.37,11.37,0,0,1-.18,2.34,3.25,3.25,0,0,1-1.43,2,4.06,4.06,0,0,1-2.28.63,6.44,6.44,0,0,1-3.43-1l.58-1a4.93,4.93,0,0,0,2.81.94,2.24,2.24,0,0,0,2.22-1.29,6.3,6.3,0,0,0,.35-2.48v-.75a3.69,3.69,0,0,1-2.77,1.43,3.12,3.12,0,0,1-2.52-1.23,4.94,4.94,0,0,1-1-3.24,5.3,5.3,0,0,1,1.1-3.52,3,3,0,0,1,2.44-1.1,3.14,3.14,0,0,1,2.79,1.57Zm-.11,2.67a2.75,2.75,0,0,0-2.45-1.76,2,2,0,0,0-1.84,1.1,4.83,4.83,0,0,0-.55,2.41,4.42,4.42,0,0,0,.57,2.33,2.09,2.09,0,0,0,1.87,1.07,2.78,2.78,0,0,0,2.4-1.6Z"/><rect class="cls-9" x="560.77" y="182.16" width="25.53" height="14.36" rx="1.22"/><path class="cls-8" d="M568.46,189v4.6a8.09,8.09,0,0,1-3,.55,4.34,4.34,0,0,1-3.19-1.22,4.91,4.91,0,0,1-1.37-3.66,5.27,5.27,0,0,1,1.38-3.82,4.26,4.26,0,0,1,3.22-1.3,6.76,6.76,0,0,1,2.85.69l-.33.9a5.43,5.43,0,0,0-2.55-.67,3,3,0,0,0-2.54,1.24,5,5,0,0,0-.84,3,4.11,4.11,0,0,0,1.16,3.1,3.21,3.21,0,0,0,2.32.86,5.3,5.3,0,0,0,1.72-.31v-3h-1.91V189Z"/><path class="cls-8" d="M571.13,194.18l.06-.91.57,0c2.2,0,3.47-1.31,3.79-3.94a2.85,2.85,0,0,1-2.34,1.12,2.92,2.92,0,0,1-1.64-.48,2.86,2.86,0,0,1-1.23-2.58,3.05,3.05,0,0,1,3.21-3.22,2.79,2.79,0,0,1,2.56,1.25,5.09,5.09,0,0,1,.66,2.77,7.75,7.75,0,0,1-.8,3.61,4.14,4.14,0,0,1-2,2,5.56,5.56,0,0,1-2.21.4Zm2.37-9.1a1.89,1.89,0,0,0-1.45.6,2.3,2.3,0,0,0-.57,1.65A2.38,2.38,0,0,0,572,189a1.89,1.89,0,0,0,1.48.62A1.94,1.94,0,0,0,575,189a2.65,2.65,0,0,0,0-3.27A2,2,0,0,0,573.5,185.08Z"/><path class="cls-8" d="M578.63,194.05v-1a40.91,40.91,0,0,0,3.25-3.16,9.39,9.39,0,0,0,1.31-1.79,3,3,0,0,0,.36-1.36,1.46,1.46,0,0,0-.54-1.18,2.36,2.36,0,0,0-1.55-.5,4.3,4.3,0,0,0-2.27.73l-.28-1a6,6,0,0,1,2.67-.66,3.76,3.76,0,0,1,2.15.57,2.18,2.18,0,0,1,1,1.92,4.49,4.49,0,0,1-1,2.63,25.22,25.22,0,0,1-3.68,3.82h4.79v.92Z"/><polygon class="cls-2" points="856.34 403.3 810.15 378.89 835.45 379.21 856.34 403.3"/><path class="cls-2" d="M860.51,409a5.23,5.23,0,1,1-5.23-5.22A5.23,5.23,0,0,1,860.51,409Z"/><path class="cls-5" d="M861.88,409a6.6,6.6,0,1,1-6.6-6.59A6.6,6.6,0,0,1,861.88,409Z"/></g></g></svg>