<svg xmlns="http://www.w3.org/2000/svg" viewBox="0 0 816.07 668.57"><defs><style>.cls-1{fill:#5d1e80;}.cls-2{fill:#434343;}</style></defs><title>资源 42</title><g id="图层_2" data-name="图层 2"><g id="图层_1-2" data-name="图层 1"><path class="cls-1" d="M2.08,26.47l.66-4.11A21,21,0,0,0,10,24.05a4.87,4.87,0,0,0,3.54-1.18,3.6,3.6,0,0,0,1.12-2.74,2.91,2.91,0,0,0-1-2.38A19.06,19.06,0,0,0,9.46,15.6a26,26,0,0,1-5.25-2.73A5.93,5.93,0,0,1,2,7.94,7.31,7.31,0,0,1,4.71,1.87,9.65,9.65,0,0,1,11,0a25.48,25.48,0,0,1,7.58,1.35l-.93,4A17.31,17.31,0,0,0,11.2,3.81a4.82,4.82,0,0,0-3.09.91,3,3,0,0,0-1.2,2.5,2.86,2.86,0,0,0,1,2.21,16.31,16.31,0,0,0,3.85,2,23.53,23.53,0,0,1,5.64,3,6.54,6.54,0,0,1,2.24,5.35,7.37,7.37,0,0,1-2.76,6.17,10.69,10.69,0,0,1-6.72,1.92A24.8,24.8,0,0,1,2.08,26.47Z"/><path class="cls-1" d="M24.87,27.42V.44h4.72V11.73H40.91V.44h4.72v27H40.91V15.54H29.59V27.42Z"/><path class="cls-1" d="M58.81,27.42,49,.44h5l5.31,14.89c.95,2.69,1.7,5,2.23,6.8q1.23-4,2.25-6.84L69.11.44h4.7L64,27.42Z"/><path class="cls-1" d="M95.6,22.26l1.31,3.81A20.81,20.81,0,0,1,94,27.17a17.82,17.82,0,0,1-5.1.69q-6.06,0-9.5-3.48-3.69-3.73-3.7-10.25,0-7.34,4.48-11.27A12.39,12.39,0,0,1,88.68,0a19.22,19.22,0,0,1,7.94,1.81L95.06,5.48a13.83,13.83,0,0,0-6.15-1.67,7.11,7.11,0,0,0-6.09,2.84A12.08,12.08,0,0,0,80.67,14q0,5.2,2.83,7.94a7.78,7.78,0,0,0,5.62,2.09,11.78,11.78,0,0,0,4.08-.7A21.3,21.3,0,0,0,95.6,22.26Z"/><path class="cls-1" d="M103.86,7.75a2.88,2.88,0,0,1,2.15.9,3,3,0,0,1,.84,2.13,2.92,2.92,0,0,1-.84,2.13,3.11,3.11,0,0,1-4.38,0,2.92,2.92,0,0,1-.84-2.13,2.87,2.87,0,0,1,.84-2.13A3,3,0,0,1,103.86,7.75Zm0,14.05a2.88,2.88,0,0,1,2.15.9A3.12,3.12,0,0,1,106,27a3.11,3.11,0,0,1-4.38,0,2.92,2.92,0,0,1-.84-2.13,2.89,2.89,0,0,1,.84-2.13A3,3,0,0,1,103.86,21.8Z"/><path class="cls-2" d="M2.54,83.29A12.06,12.06,0,0,0,8.62,85c3.47,0,5.5-1.83,5.5-4.48,0-2.46-1.41-3.86-4.95-5.23-4.29-1.52-6.95-3.74-6.95-7.45,0-4.09,3.4-7.13,8.51-7.13A12,12,0,0,1,16.54,62l-.94,2.77a10.44,10.44,0,0,0-5-1.25c-3.59,0-4.95,2.15-4.95,3.94,0,2.46,1.59,3.67,5.22,5.07,4.45,1.72,6.71,3.86,6.71,7.73,0,4-3,7.56-9.2,7.56a13.52,13.52,0,0,1-6.71-1.68Z"/><path class="cls-2" d="M35.84,75.1H25.62v9.47H37v2.85H22.23V61.13h14.2V64H25.62v8.31H35.84Z"/><path class="cls-2" d="M53.08,64h-8V61.13H64.54V64h-8v23.4H53.08Z"/><path class="cls-2" d="M75.27,83.29A12.06,12.06,0,0,0,81.35,85c3.47,0,5.5-1.83,5.5-4.48,0-2.46-1.4-3.86-4.95-5.23C77.61,73.77,75,71.55,75,67.84c0-4.09,3.39-7.13,8.5-7.13A12,12,0,0,1,89.27,62l-.94,2.77a10.4,10.4,0,0,0-5-1.25c-3.59,0-5,2.15-5,3.94,0,2.46,1.6,3.67,5.23,5.07,4.44,1.72,6.7,3.86,6.7,7.73,0,4-3,7.56-9.2,7.56a13.52,13.52,0,0,1-6.71-1.68Z"/><path class="cls-2" d="M95,61.45a38.64,38.64,0,0,1,6.52-.51c3.35,0,5.81.78,7.37,2.18a7.08,7.08,0,0,1,2.3,5.5,7.74,7.74,0,0,1-2,5.62c-1.79,1.91-4.72,2.89-8,2.89a11.37,11.37,0,0,1-2.73-.24V87.42H95Zm3.4,12.67a11,11,0,0,0,2.8.28c4.1,0,6.6-2,6.6-5.62,0-3.47-2.46-5.15-6.21-5.15a14.55,14.55,0,0,0-3.19.27Z"/><path class="cls-2" d="M142.35,86.56a16.76,16.76,0,0,1-6.94,1.25c-7.41,0-13-4.68-13-13.3,0-8.23,5.58-13.8,13.73-13.8a14.09,14.09,0,0,1,6.24,1.17l-.82,2.77a12.28,12.28,0,0,0-5.31-1.1C130.1,63.55,126,67.49,126,74.4c0,6.43,3.7,10.56,10.1,10.56a13.52,13.52,0,0,0,5.54-1.09Z"/><path class="cls-2" d="M146.6,87.42V61.13h3.7l8.43,13.3A74.8,74.8,0,0,1,163.45,83l.07,0c-.31-3.51-.39-6.71-.39-10.81v-11h3.2V87.42H162.9l-8.35-13.34a83.78,83.78,0,0,1-4.91-8.77l-.12,0c.2,3.31.28,6.47.28,10.84V87.42Z"/><path class="cls-2" d="M180.06,83.29A12.06,12.06,0,0,0,186.14,85c3.47,0,5.5-1.83,5.5-4.48,0-2.46-1.4-3.86-4.95-5.23-4.29-1.52-6.94-3.74-6.94-7.45,0-4.09,3.39-7.13,8.5-7.13A12,12,0,0,1,194.06,62l-.94,2.77a10.4,10.4,0,0,0-5-1.25c-3.59,0-4.95,2.15-4.95,3.94,0,2.46,1.6,3.67,5.23,5.07,4.44,1.72,6.7,3.86,6.7,7.73,0,4-3,7.56-9.2,7.56a13.52,13.52,0,0,1-6.71-1.68Z"/><path class="cls-2" d="M203.15,61.13v11h12.71v-11h3.43V87.42h-3.43V75.1H203.15V87.42h-3.4V61.13Z"/><path class="cls-2" d="M231,87.42l-8.58-26.29H226l4.09,12.95c1.13,3.55,2.11,6.75,2.81,9.83H233c.74-3,1.83-6.36,3-9.79l4.45-13h3.63l-9.4,26.29Z"/><path class="cls-2" d="M265.31,86.56a16.72,16.72,0,0,1-6.94,1.25c-7.41,0-13-4.68-13-13.3,0-8.23,5.58-13.8,13.73-13.8a14.06,14.06,0,0,1,6.24,1.17l-.82,2.77a12.23,12.23,0,0,0-5.3-1.1c-6.16,0-10.26,3.94-10.26,10.85,0,6.43,3.71,10.56,10.1,10.56a13.45,13.45,0,0,0,5.54-1.09Z"/><path class="cls-2" d="M277.83,61.13H292V64H281.22v8.74h9.95v2.81h-9.95V87.42h-3.39Z"/><path class="cls-2" d="M300.22,61.13V87.42h-3.4V61.13Z"/><path class="cls-2" d="M306.14,87.42V61.13h3.71l8.42,13.3A74.8,74.8,0,0,1,323,83l.08,0c-.31-3.51-.39-6.71-.39-10.81v-11h3.2V87.42h-3.43L314.1,74.08a82,82,0,0,1-4.91-8.77l-.12,0c.19,3.31.27,6.47.27,10.84V87.42Z"/><path class="cls-2" d="M362.54,74c0,9-5.5,13.84-12.21,13.84-6.94,0-11.82-5.38-11.82-13.34,0-8.34,5.19-13.8,12.21-13.8C357.9,60.71,362.54,66.21,362.54,74Zm-20.4.42c0,5.62,3,10.65,8.38,10.65s8.43-5,8.43-10.92c0-5.22-2.73-10.68-8.39-10.68S342.14,68.66,342.14,74.43Z"/><path class="cls-2" d="M389.41,74c0,9-5.5,13.84-12.21,13.84-6.94,0-11.82-5.38-11.82-13.34,0-8.34,5.19-13.8,12.21-13.8C384.77,60.71,389.41,66.21,389.41,74Zm-20.4.42c0,5.62,3,10.65,8.39,10.65s8.42-5,8.42-10.92c0-5.22-2.73-10.68-8.39-10.68S369,68.66,369,74.43Z"/><path class="cls-2" d="M390.15,92.22a56.15,56.15,0,0,0,2.34-9.32l3.82-.39a47.23,47.23,0,0,1-3.7,9.47Z"/><path class="cls-2" d="M415.07,65.27H415l-4.41,2.38L409.92,65l5.54-3h2.92V87.42h-3.31Z"/><path class="cls-2" d="M427.32,81c0-3.2,1.91-5.46,5-6.79l0-.12c-2.81-1.32-4-3.51-4-5.69,0-4,3.39-6.75,7.84-6.75,4.91,0,7.37,3.08,7.37,6.24,0,2.15-1.05,4.45-4.17,5.93v.12c3.16,1.25,5.11,3.47,5.11,6.55,0,4.41-3.79,7.37-8.62,7.37C430.51,87.85,427.32,84.69,427.32,81ZM441,80.83c0-3.08-2.15-4.56-5.58-5.54-3,.86-4.56,2.81-4.56,5.23-.12,2.57,1.83,4.83,5.07,4.83C439,85.35,441,83.44,441,80.83Zm-9.44-12.67c0,2.53,1.91,3.9,4.83,4.68,2.19-.75,3.86-2.31,3.86-4.61a3.94,3.94,0,0,0-4.29-4.13C433.09,64.1,431.53,66,431.53,68.16Z"/><path class="cls-2" d="M457.11,61.49a34.54,34.54,0,0,1,6.51-.55c3.63,0,6,.66,7.61,2.14a6.55,6.55,0,0,1,2.07,5,6.91,6.91,0,0,1-5,6.71v.11c2,.7,3.24,2.58,3.86,5.31a42.5,42.5,0,0,0,2,7.21h-3.51A33.92,33.92,0,0,1,469,81.14c-.78-3.62-2.19-5-5.27-5.11h-3.2V87.42h-3.39Zm3.39,12H464c3.63,0,5.93-2,5.93-5,0-3.4-2.45-4.88-6-4.92a14.4,14.4,0,0,0-3.36.31Z"/><path class="cls-2" d="M495.21,77.83c0,7-4.83,10-9.4,10-5.11,0-9-3.74-9-9.71,0-6.32,4.13-10,9.36-10C491.55,68.12,495.21,72.06,495.21,77.83Zm-15,.19c0,4.14,2.38,7.26,5.73,7.26s5.73-3.08,5.73-7.34c0-3.19-1.6-7.25-5.65-7.25S480.24,74.43,480.24,78Z"/><path class="cls-2" d="M510,87.42,509.72,85h-.12a7,7,0,0,1-5.77,2.81,5.38,5.38,0,0,1-5.77-5.42c0-4.56,4.06-7.06,11.35-7V75c0-1.56-.43-4.37-4.29-4.37a9.41,9.41,0,0,0-4.92,1.41l-.78-2.27a11.78,11.78,0,0,1,6.21-1.67c5.77,0,7.17,3.94,7.17,7.72V82.9a27,27,0,0,0,.31,4.52Zm-.5-9.63c-3.75-.08-8,.58-8,4.25a3,3,0,0,0,3.24,3.28,4.68,4.68,0,0,0,4.56-3.16,3.5,3.5,0,0,0,.2-1.1Z"/><path class="cls-2" d="M534.64,59.73V82.55c0,1.67,0,3.58.16,4.87h-3.08l-.16-3.27h-.08a7,7,0,0,1-6.43,3.7c-4.57,0-8.08-3.86-8.08-9.59,0-6.28,3.86-10.14,8.47-10.14A6.31,6.31,0,0,1,531.13,71h.08V59.73Zm-3.43,16.5a5.84,5.84,0,0,0-.16-1.44,5,5,0,0,0-4.95-4c-3.55,0-5.65,3.12-5.65,7.29,0,3.82,1.87,7,5.57,7a5.16,5.16,0,0,0,5-4.09,5.87,5.87,0,0,0,.16-1.49Z"/><path class="cls-2" d="M562.33,75.1H552.11v9.47H563.5v2.85H548.72V61.13h14.2V64H552.11v8.31h10.22Z"/><path class="cls-2" d="M578.24,87.42,578,85h-.12a7,7,0,0,1-5.77,2.81,5.38,5.38,0,0,1-5.77-5.42c0-4.56,4.05-7.06,11.35-7V75c0-1.56-.43-4.37-4.29-4.37a9.41,9.41,0,0,0-4.92,1.41l-.78-2.27a11.78,11.78,0,0,1,6.21-1.67c5.77,0,7.17,3.94,7.17,7.72V82.9a27,27,0,0,0,.31,4.52Zm-.5-9.63c-3.75-.08-8,.58-8,4.25A3,3,0,0,0,573,85.32a4.69,4.69,0,0,0,4.56-3.16,3.5,3.5,0,0,0,.2-1.1Z"/><path class="cls-2" d="M586.12,83.91a9,9,0,0,0,4.52,1.37c2.5,0,3.67-1.25,3.67-2.81s-1-2.54-3.51-3.47c-3.39-1.21-5-3.08-5-5.35,0-3,2.46-5.53,6.51-5.53A9.35,9.35,0,0,1,597,69.29l-.86,2.49a7.31,7.31,0,0,0-3.86-1.09c-2,0-3.16,1.17-3.16,2.57,0,1.56,1.14,2.27,3.59,3.2,3.28,1.25,5,2.89,5,5.7,0,3.31-2.58,5.65-7.06,5.65a10.79,10.79,0,0,1-5.31-1.29Z"/><path class="cls-2" d="M606.17,63.12v5.43h4.91v2.61h-4.91V81.34c0,2.34.66,3.66,2.57,3.66a7.54,7.54,0,0,0,2-.23l.16,2.57a8.3,8.3,0,0,1-3,.47,4.78,4.78,0,0,1-3.7-1.44c-1-1-1.33-2.69-1.33-4.92V71.16h-2.92V68.55h2.92V64Z"/><path class="cls-2" d="M612.6,92.22a56.15,56.15,0,0,0,2.34-9.32l3.82-.39a47.23,47.23,0,0,1-3.7,9.47Z"/><path class="cls-2" d="M622.62,83.48a11.44,11.44,0,0,0,5.62,1.6c4.41,0,5.77-2.81,5.73-4.91,0-3.55-3.23-5.07-6.55-5.07h-1.91V72.52h1.91c2.5,0,5.66-1.28,5.66-4.29,0-2-1.29-3.82-4.45-3.82a9.3,9.3,0,0,0-5.07,1.68l-.9-2.5a12.1,12.1,0,0,1,6.63-2c5,0,7.26,3,7.26,6,0,2.61-1.56,4.83-4.68,6v.08a6.61,6.61,0,0,1,5.65,6.52c0,4-3.16,7.6-9.24,7.6a12.86,12.86,0,0,1-6.59-1.72Z"/><path class="cls-2" d="M649.26,65.27h-.08l-4.4,2.38L644.11,65l5.54-3h2.93V87.42h-3.32Z"/><path class="cls-2" d="M678.67,74.47c0,8.62-3.2,13.38-8.82,13.38-5,0-8.3-4.64-8.38-13s3.66-13.18,8.81-13.18C675.63,61.64,678.67,66.4,678.67,74.47Zm-13.77.39c0,6.59,2,10.34,5.15,10.34,3.51,0,5.19-4.1,5.19-10.57,0-6.24-1.6-10.34-5.15-10.34C667.08,64.29,664.9,68,664.9,74.86Z"/><path class="cls-2" d="M698.67,74.47c0,8.62-3.19,13.38-8.81,13.38-5,0-8.31-4.64-8.38-13s3.66-13.18,8.81-13.18C695.63,61.64,698.67,66.4,698.67,74.47Zm-13.76.39c0,6.59,2,10.34,5.15,10.34,3.51,0,5.18-4.1,5.18-10.57,0-6.24-1.6-10.34-5.15-10.34C687.09,64.29,684.91,68,684.91,74.86Z"/><path class="cls-2" d="M701.52,81c0-3.2,1.91-5.46,5-6.79l0-.12c-2.8-1.32-4-3.51-4-5.69,0-4,3.39-6.75,7.84-6.75,4.91,0,7.37,3.08,7.37,6.24,0,2.15-1.06,4.45-4.18,5.93v.12c3.16,1.25,5.11,3.47,5.11,6.55,0,4.41-3.78,7.37-8.62,7.37C704.72,87.85,701.52,84.69,701.52,81Zm13.65-.16c0-3.08-2.14-4.56-5.58-5.54-3,.86-4.56,2.81-4.56,5.23-.12,2.57,1.83,4.83,5.07,4.83C713.18,85.35,715.17,83.44,715.17,80.83Zm-9.44-12.67c0,2.53,1.91,3.9,4.84,4.68,2.18-.75,3.86-2.31,3.86-4.61a3.94,3.94,0,0,0-4.29-4.13C707.29,64.1,705.73,66,705.73,68.16Z"/><path class="cls-2" d="M729.29,65.27h-.08l-4.41,2.38L724.14,65l5.54-3h2.92V87.42h-3.31Z"/><path class="cls-2" d="M6.4,121.13v11H19.11v-11h3.43v26.29H19.11V135.1H6.4v12.32H3V121.13Z"/><path class="cls-2" d="M38.77,147.42,38.49,145h-.11a7.07,7.07,0,0,1-5.78,2.81,5.38,5.38,0,0,1-5.77-5.42c0-4.56,4.06-7.06,11.35-7V135c0-1.56-.43-4.37-4.29-4.37A9.37,9.37,0,0,0,29,132.06l-.78-2.27a11.74,11.74,0,0,1,6.2-1.67c5.77,0,7.17,3.94,7.17,7.72v7.06a25.89,25.89,0,0,0,.32,4.52Zm-.51-9.63c-3.75-.08-8,.58-8,4.25a3,3,0,0,0,3.24,3.28,4.68,4.68,0,0,0,4.56-3.16,3.5,3.5,0,0,0,.2-1.1Z"/><path class="cls-2" d="M47.11,133.65c0-2,0-3.55-.15-5.1h3l.19,3.12h.08a6.94,6.94,0,0,1,6.24-3.55c2.61,0,6.67,1.56,6.67,8v11.27H59.75V136.54c0-3-1.13-5.58-4.37-5.58a5.05,5.05,0,0,0-4.84,5.11v11.35H47.11Z"/><path class="cls-2" d="M85,128.55c-.08,1.36-.16,2.88-.16,5.18v11c0,4.33-.85,7-2.69,8.62a10,10,0,0,1-6.86,2.26A12.13,12.13,0,0,1,69,154l.86-2.61a10.63,10.63,0,0,0,5.54,1.48c3.51,0,6.08-1.83,6.08-6.59v-2.11h-.08a6.72,6.72,0,0,1-6,3.16c-4.68,0-8-4-8-9.2,0-6.4,4.17-10,8.5-10a6.27,6.27,0,0,1,5.89,3.27h.08l.16-2.84ZM81.47,136a5.1,5.1,0,0,0-.19-1.56,5,5,0,0,0-4.8-3.62c-3.28,0-5.62,2.77-5.62,7.13,0,3.71,1.87,6.79,5.58,6.79a5,5,0,0,0,4.76-3.51,6.1,6.1,0,0,0,.27-1.83Z"/><path class="cls-2" d="M88.41,145.43,97,134.32c.82-1,1.6-1.91,2.46-2.93v-.08H89.19v-2.76h14.39l0,2.14-8.42,11c-.78,1-1.56,2-2.42,3v.08h11v2.73H88.41Z"/><path class="cls-2" d="M107.25,119.73h3.43v11.78h.08a6.29,6.29,0,0,1,2.46-2.42,7.09,7.09,0,0,1,3.51-1c2.53,0,6.59,1.56,6.59,8.07v11.23h-3.44V136.58c0-3-1.13-5.62-4.36-5.62a4.91,4.91,0,0,0-4.6,3.44,4,4,0,0,0-.24,1.63v11.39h-3.43Z"/><path class="cls-2" d="M146,137.83c0,7-4.84,10-9.4,10-5.11,0-9.05-3.74-9.05-9.71,0-6.32,4.13-10,9.36-10C142.31,128.12,146,132.06,146,137.83ZM131,138c0,4.14,2.38,7.26,5.73,7.26s5.74-3.08,5.74-7.34c0-3.19-1.6-7.25-5.66-7.25S131,134.43,131,138Z"/><path class="cls-2" d="M166.1,142.27c0,1.95,0,3.67.16,5.15h-3l-.19-3.08h-.08a7.11,7.11,0,0,1-6.24,3.51c-3,0-6.51-1.64-6.51-8.27v-11h3.43V139c0,3.59,1.09,6,4.21,6a5,5,0,0,0,4.53-3.12,5.09,5.09,0,0,0,.31-1.75V128.55h3.43Z"/><path class="cls-2" d="M169.26,152.22a56.15,56.15,0,0,0,2.34-9.32l3.82-.39a47.84,47.84,0,0,1-3.7,9.47Z"/><path class="cls-2" d="M206.31,146.56a16.76,16.76,0,0,1-6.94,1.25c-7.41,0-13-4.68-13-13.3,0-8.23,5.58-13.8,13.73-13.8a14.09,14.09,0,0,1,6.24,1.17l-.82,2.77a12.28,12.28,0,0,0-5.31-1.1c-6.16,0-10.25,3.94-10.25,10.85,0,6.43,3.7,10.56,10.1,10.56a13.49,13.49,0,0,0,5.54-1.09Z"/><path class="cls-2" d="M210.44,119.73h3.43v11.78H214a6.43,6.43,0,0,1,2.46-2.42,7.09,7.09,0,0,1,3.51-1c2.53,0,6.59,1.56,6.59,8.07v11.23h-3.43V136.58c0-3-1.13-5.62-4.37-5.62a4.92,4.92,0,0,0-4.6,3.44,4,4,0,0,0-.24,1.63v11.39h-3.43Z"/><path class="cls-2" d="M235.91,123.24a2.13,2.13,0,0,1-4.25,0,2.08,2.08,0,0,1,2.14-2.14A2,2,0,0,1,235.91,123.24Zm-3.83,24.18V128.55h3.44v18.87Z"/><path class="cls-2" d="M241.21,133.65c0-2,0-3.55-.15-5.1h3l.19,3.12h.08a6.94,6.94,0,0,1,6.24-3.55c2.61,0,6.67,1.56,6.67,8v11.27h-3.43V136.54c0-3-1.13-5.58-4.37-5.58a5.05,5.05,0,0,0-4.84,5.11v11.35h-3.43Z"/><path class="cls-2" d="M273.31,147.42,273,145h-.12a7,7,0,0,1-5.77,2.81,5.38,5.38,0,0,1-5.78-5.42c0-4.56,4.06-7.06,11.35-7V135c0-1.56-.43-4.37-4.29-4.37a9.37,9.37,0,0,0-4.91,1.41l-.78-2.27a11.74,11.74,0,0,1,6.2-1.67c5.77,0,7.18,3.94,7.18,7.72v7.06a26,26,0,0,0,.31,4.52Zm-.51-9.63c-3.74-.08-8,.58-8,4.25a3,3,0,0,0,3.23,3.28,4.71,4.71,0,0,0,4.57-3.16,3.79,3.79,0,0,0,.19-1.1Z"/><path class="cls-1" d="M34.26,211.63H30.43v-3H8.84v3H5V187.45h9.12v-5.66H2.46V178.4H37v3.39H25v5.66h9.22ZM8.84,205.35H30.43V190.68H25V197a1.17,1.17,0,0,0,.21.78q.15.18.69.18h3.92v3.65H25.48q-4.15,0-4.15-4v-7h-3.6a17.26,17.26,0,0,1-1.12,6.1,13.71,13.71,0,0,1-2.82,4.36c-.24.26-.78.81-1.6,1.64L9.26,200c.33-.3.57-.51.74-.65a10.65,10.65,0,0,0,3.46-4.8,14.8,14.8,0,0,0,.48-3.87H8.84Zm9-17.9h3.47v-5.66H17.86Z"/><path class="cls-1" d="M43.32,211.17v-27.8H46.9v27.8Zm3.13-33.66,3.12-1.87,3.77,6.09-3.37,2A54.48,54.48,0,0,0,47,178.42C46.78,178,46.59,177.71,46.45,177.51Zm26.77.36v29a3.61,3.61,0,0,1-1.81,3.51,15.63,15.63,0,0,1-5,1.12l-1.69-4.63H68.4a1.11,1.11,0,0,0,1.24-1.27V181.39H55.45v-3.52Z"/><path class="cls-1" d="M96.13,186.27a43.51,43.51,0,0,1,4.4-2.79c.72-.41,1.66-1,2.82-1.79H83.58v-3.5H112v3.5l-1.12.48A84.15,84.15,0,0,0,100,187.94v3.71h15.21v3.81H100v12.42q0,2.93-3.68,3.6a34.78,34.78,0,0,1-4,.4l-1.59-4.42H95a1.27,1.27,0,0,0,.83-.21,1,1,0,0,0,.27-.86V195.46H79.58v-3.81H96.13Z"/><path class="cls-1" d="M153.43,177.6a45.13,45.13,0,0,0-3.66,4.49,19.19,19.19,0,0,0-2.32,5.17,22,22,0,0,0-.93,6.28,22.22,22.22,0,0,0,2.09,9.39,29.69,29.69,0,0,0,4.69,6.47l-2.46,2.34a34.94,34.94,0,0,1-4.57-5.33,23.28,23.28,0,0,1-.74-24.45,33.62,33.62,0,0,1,5.48-6.74Z"/><path class="cls-1" d="M171.92,197l-3.39,1.64q-.72-2.28-1.88-5.2l-.29-.66v19.31h-3.47V196.36c-.48,1.25-1.19,2.85-2.13,4.78l-.7,1.56L157,200.32c.16-.27.34-.56.56-.88a35,35,0,0,0,3.59-8.17,33.13,33.13,0,0,0,1.19-4.76h-4.12v-3.58h4.72v-7.58h3.47v7.58h4.55v3.58h-4.55v3.72l1.89-.84A74.42,74.42,0,0,1,171.92,197Zm-3.39,11.85a13.34,13.34,0,0,0,4.88-4.8,11.38,11.38,0,0,0,1.25-4.06,32,32,0,0,0,.21-3.84v-6.78h12.67V205.8a2.21,2.21,0,0,0,.13,1,1,1,0,0,0,.93.44H189c.74,0,1.26-.89,1.58-2.68.08-.42.14-.81.19-1.17l3.66,1.81a21.8,21.8,0,0,1-1.09,3.28,4.27,4.27,0,0,1-4.19,2.63h-1.65a4.22,4.22,0,0,1-3-.88,2,2,0,0,1-.52-.82,10.84,10.84,0,0,1-.2-2.66v-14h-5.11v3.37a28.32,28.32,0,0,1-.55,6.21,14.65,14.65,0,0,1-3.49,6.6,32,32,0,0,1-3.17,3Zm2.9-26.34h21.08v3.53H171.43Zm12.87-1.69-3.71,1.5a4.23,4.23,0,0,1-.4-.91,20.56,20.56,0,0,0-2.5-4.53l3.31-1.55.52.75a18.14,18.14,0,0,1,2.34,4A2.13,2.13,0,0,0,184.3,180.84Z"/><path class="cls-1" d="M197.69,197.18a59.15,59.15,0,0,0,1.23-6c.08-.62.22-1.81.42-3.56.08-.73.16-1.4.25-2l3.88.48a97.4,97.4,0,0,1-1.88,11.12l-.17.76Zm6.74-20.87h3.75v14q-.18,6.19-.42,8.74a20.37,20.37,0,0,1-4,10.44c-.34.46-1.05,1.3-2.13,2.53l-3.13-2.23a21.49,21.49,0,0,0,4.67-7,28.35,28.35,0,0,0,1.05-7.49c.12-2.45.19-4.21.19-5.27Zm4.62,9.76,3.58-.59a93,93,0,0,1,1.17,10.63l.07,1.14-3.73.46c-.06-.9-.11-1.71-.15-2.44q-.27-4.77-.57-6.83C209.24,187.28,209.12,186.49,209.05,186.07Zm9.75-9.44v34.94h-3.71V176.63Zm.86,9,3.68-.67.19.76A94.38,94.38,0,0,1,225.58,197l-3.88.67-.08-.93A67.28,67.28,0,0,0,219.66,185.64Zm10.59-9.33V212h-3.62V176.31Z"/><path class="cls-1" d="M236.65,177.71l2.53-2.41a36.35,36.35,0,0,1,4.48,5.16,23.77,23.77,0,0,1,4,13.1,23.44,23.44,0,0,1-2.88,11.27,20.11,20.11,0,0,1-1.79,2.8,49.88,49.88,0,0,1-3.75,4.21l-2.59-2.51a42.59,42.59,0,0,0,3.35-4,17.2,17.2,0,0,0,1.85-3.35,22,22,0,0,0,1.69-8.44,21.15,21.15,0,0,0-2-9.06A30.26,30.26,0,0,0,236.65,177.71Z"/><path class="cls-1" d="M309.72,182.57H276.14V179.3h14.48a16.79,16.79,0,0,0-.94-3.13l4.12-.93a27.64,27.64,0,0,1,1,4.06h14.93Zm-28,14.49v14.49h-3.75V193.83h30.3v13.42a5.2,5.2,0,0,1-.59,2.88,4.19,4.19,0,0,1-2.55,1.46c-1.36.33-2.61.57-3.75.73L299.79,208h3.47c.48,0,.78-.16.9-.46a3.45,3.45,0,0,0,.13-1.05v-9.39Zm.25-4.91v-8h21.56v8Zm2.88,15.35V199h15.44v8.55Zm.61-18.26h14.39v-2.1H285.42Zm3,15.19h8.15v-2.57h-8.15Z"/><path class="cls-1" d="M312.74,209.65a14.3,14.3,0,0,0,1.6-1.79,15.94,15.94,0,0,0,2.65-7.35,55.48,55.48,0,0,0,.29-6.19V177.83h31.25v3.73H321.07v12.25q0,2.83-.29,7a24.07,24.07,0,0,1-4.09,11.37Zm19.92-2.49V194.3h-9.54v-3.5h9.54v-7.94h3.79v7.94h9.69v3.5h-9.69v12.86h12.3v3.56H320.63v-3.56Zm6.12-8.82,3-2.34a66.65,66.65,0,0,1,5.52,7.12l-3.39,2.34a28.87,28.87,0,0,0-2.34-3.85C341.14,201.11,340.22,200,338.78,198.34Z"/><path class="cls-1" d="M385.26,181.1h-6.51v10.19h8.79v3.58h-8.79v16.87H375V194.87h-9a31.82,31.82,0,0,1-1.71,7.75,24.34,24.34,0,0,1-5.91,8.34c-.29.3-.56.56-.8.78l-2.72-2.83c.23-.22.48-.45.76-.69a18.66,18.66,0,0,0,6.63-13.35h-8.13v-3.58h8.3q.15-4.48.19-10.19h-5.75v-3.52h28.45Zm-10.3,0h-8.71l0,1.51-.06,3.71-.06,3.53,0,1.44H375Z"/><path class="cls-1" d="M403.65,182.74c-.07-.14-.19-.35-.34-.63,0,0-.07-.12-.17-.32a16.46,16.46,0,0,0-3.08-4.36l3.29-2.17a34.8,34.8,0,0,1,2.27,2.7,26.57,26.57,0,0,1,1.65,3l-2.95,1.73h6.95a39,39,0,0,0,3.91-7.63l3.78,1.58a26.08,26.08,0,0,1-3.23,6.05H425v3.68H411.27q0,3.54-.15,6.68h15.16v3.66H412.61a25.8,25.8,0,0,0,2.15,3.29,19.34,19.34,0,0,0,8.41,5.92c.87.33,2.15.77,3.85,1.3l-2.09,3.94-.9-.34a35.73,35.73,0,0,1-5.88-2.76,23.49,23.49,0,0,1-7.11-6.78c-.31-.46-.72-1.1-1.22-1.93-.15.31-.26.54-.34.69a17.69,17.69,0,0,1-6.64,7.35,50.65,50.65,0,0,1-8.21,4.34l-2.06-3.56.93-.4q4.33-1.86,5.89-2.76a17.27,17.27,0,0,0,4.57-3.43,14.11,14.11,0,0,0,2.78-4.87H393.05V193.1h14.22q.08-2.47.16-6.68H394.8v-3.68Z"/><path class="cls-1" d="M442.56,203.75v8h-3.69V193.9c-.26.27-.48.52-.67.76a42.86,42.86,0,0,1-4.49,4.29l-.75.65-2.76-3.13a47.23,47.23,0,0,0,11.39-12.2H431.32v-3.68h12.29c.39-.74.85-1.7,1.37-2.89.46-1,.8-1.83,1-2.44l3.71,1.43-1.91,3.9h18.06v3.68H446c-.25.36-.59.9-1,1.61-.05.07-.21.29-.46.67-.13.18-.3.44-.53.78H461.2v20.43a3.25,3.25,0,0,1-1.62,3.2,16.1,16.1,0,0,1-5.33,1l-1.12-4.19h3.33c.46,0,.73-.07.82-.2a1.62,1.62,0,0,0,.17-.82v-3Zm0-9.85h14.89v-3.12H442.56Zm14.89,6.42v-3.14H442.56v3.14Z"/><path class="cls-1" d="M471,211.88V177.16h11.84l-2.91,12.91.76,1.2a12.31,12.31,0,0,1,2.38,6.42,5.15,5.15,0,0,1-2.51,4.78,9.79,9.79,0,0,1-3.49,1q-.68.09-1.29.21l-1-4.06h2.36c1.45,0,2.17-.63,2.17-1.9q0-2.41-3.2-7l2.36-10.28h-4v31.44Zm24.13-17.73a44.64,44.64,0,0,0,1.77,5.2,31,31,0,0,0,4-4.57l2.78,2.47a48.63,48.63,0,0,1-5.17,5.18,17.16,17.16,0,0,0,2.75,2.9,31.16,31.16,0,0,0,4.43,2.7l-2.43,3.43-.61-.38a25.09,25.09,0,0,1-7.47-7,28.36,28.36,0,0,1-3-6.78c-.16-.52-.47-1.56-.91-3.12H488.8v12.61q2.85-1.47,4.95-2.73l.83,3.7c-.39.17-.88.38-1.48.62s-2,.94-4.29,2.1l-1.78.91-1,.5-1.67-3.12a4.41,4.41,0,0,0,.74-.86,2.84,2.84,0,0,0,.21-1.33V177.16h17v17ZM488.8,184h9.88v-3.41H488.8Zm0,6.82h9.88v-3.58H488.8Z"/><path class="cls-1" d="M508.28,193.81a30.82,30.82,0,0,0,6-6.33,36.88,36.88,0,0,0,4.22-7.73c.19-.49.57-1.58,1.15-3.25l3.84,1.39-.4,1a61.49,61.49,0,0,1-3.6,7.46A49.85,49.85,0,0,1,511.34,197ZM523.64,189l3.7,1.83q-2.83,5.6-4.46,8.2c-1.43,2.33-3,4.56-4.59,6.71l1.6-.12c2-.14,5-.29,8.9-.45.81,0,2.19-.12,4.13-.27A48.52,48.52,0,0,0,529.4,199l3.67-1.94c.88,1.41,1.73,2.77,2.57,4.09a85.18,85.18,0,0,1,4.82,8.59l-4,1.95c-.47-1.15-1-2.23-1.52-3.26l-1.28.06-1.69.09-6.86.34q-1.07.06-6.93.65c-.94.1-1.78.22-2.51.36l-1.93.33-1.35-4.86a5.12,5.12,0,0,0,2.11-1.06q2.4-2.17,5.76-8.29A64.88,64.88,0,0,0,523.64,189Zm5.07-12,3.77-.89a44.4,44.4,0,0,0,2.19,5.86,26.5,26.5,0,0,0,10.49,11.56l-3,3.53c-.2-.18-.52-.46-.95-.82a38.53,38.53,0,0,1-8.66-10.12A49.66,49.66,0,0,1,528.71,177Z"/><path class="cls-1" d="M549.58,185h24.55v3.35H549.58Zm27.54-3.75H551.94v-3.47h29v30a2.86,2.86,0,0,1-1.79,2.88,14.28,14.28,0,0,1-3.85.82q-1.12.1-1.89.21l-1.12-4.35H576a1.52,1.52,0,0,0,.87-.19c.19-.12.29-.47.29-1Zm-24.24,25.44V191.6h18.18v14.28h-3.81v-2.53h-10.6v3.33Zm3.77-6.67h10.6v-5.1h-10.6Z"/><path class="cls-1" d="M606.12,187.08l.86.8v3.51l-.9.8h-3.46l-.88-.86V187.9l.84-.82Zm0,15.16.8.78v3.74l-.78.8h-3.56l-.88-.86v-3.62l.8-.84Z"/><path class="cls-2" d="M1.33,269.8a44.7,44.7,0,0,0,2.9-6.47,64.65,64.65,0,0,0,1.88-6.88l2.59,1.39c-.19.7-.33,1.23-.43,1.58q-.88,3.34-2,6.31Q5.49,267.8,4,271.1Zm.31-22.07,1.5-2.26a36.71,36.71,0,0,1,5.54,3.67L7,251.5A25.51,25.51,0,0,0,1.64,247.73Zm2.23-9.9,1.58-2a27.62,27.62,0,0,1,5.44,3.52l-1.81,2.1a21.78,21.78,0,0,0-3-2.37A17.2,17.2,0,0,0,3.87,237.83Zm14.13,16c.92-.36,2.33-.94,4.22-1.76v2.84c-.68.33-2.09.92-4.22,1.77v10.93a3.32,3.32,0,0,1-.67,2.31,4.65,4.65,0,0,1-2.67,1c-.3.05-1.12.16-2.45.31l-.84-3.09,2.46,0a1.73,1.73,0,0,0,1.42-.47,2.17,2.17,0,0,0,.31-1.37v-8.59c-1.64.62-3.09,1.13-4.34,1.52l-1-2.8q3.41-.93,5.37-1.63V246h-5v-2.44h5v-8.15H18v8.15h4.53V246H18Zm2,16a24.93,24.93,0,0,0,3.52-7.37,49.55,49.55,0,0,0,1.35-13v-11A44.66,44.66,0,0,0,36,236.69l1.14,2.59a76.51,76.51,0,0,1-8.26,1.25l-.95.1-.59.07v7.36H37.57v2.43H34.51v21.6H32.07v-21.6H27.33l0,1-.08,1.89c-.11,3-.27,5.11-.47,6.45a31,31,0,0,1-2.15,7.83,39.71,39.71,0,0,1-2,3.69Z"/><path class="cls-2" d="M41.1,248.21l1.56-2.15,6.55,4.55-1.79,2.19Zm.74,21.23a50.61,50.61,0,0,0,2.76-6,65.81,65.81,0,0,0,2-7l2.57,1.26q-2.23,6.9-4.72,13.06Zm1.54-30,1.68-2.19,6.36,4.49L49.61,244Zm7.28,26.7H62v-24H53.13v-2.44H75v2.44H64.4v24H76.46v2.43H50.66Z"/><path class="cls-2" d="M96.55,248.15V235.49H99v11.4a47,47,0,0,0,6.05-4.11l2,2.08a82.52,82.52,0,0,1-9.75,5.58l-2.87,1.29h16.26v20.13h-2.44v-2.15H89.81v2.15H87.37V254.3c-.41.13-.84.26-1.31.38-1.85.51-3.33.9-4.46,1.18l-1.22-2.55a69.44,69.44,0,0,0,12.89-3.71C93.9,249.36,95,248.87,96.55,248.15Zm-14.38-2.68c1.89-1.66,3.25-2.9,4.08-3.74a34.92,34.92,0,0,0,2.64-3.23l2.17,1.77q-3.77,4.13-7.06,7.1Zm7.64,11.36h18.43v-2.66H89.81Zm0,5.51h18.43v-3.07H89.81Zm0,4.93h18.43v-2.5H89.81Zm15.75-26.93,1.71-1.69a78.77,78.77,0,0,1,7.9,6.19l-2,2.15c-1.19-1.3-2.1-2.23-2.72-2.8s-1.91-1.57-4.09-3.26Z"/><path class="cls-2" d="M126.48,272.05h-2.43v-18.4c-.27.69-.52,1.36-.75,2-.48,1.34-.92,2.42-1.31,3.24-.75,1.55-1.25,2.6-1.5,3.14l-2.38-1.86a32.76,32.76,0,0,0,2.51-4.78,45,45,0,0,0,2.59-8.19c0-.15.08-.43.15-.84,0-.19.08-.48.15-.86h-4.32v-2.43h4.86v-7.75h2.43v7.75h4.86v2.43h-4.86Zm5.74-15.22-2.57,1.26q-.66-2.05-1.77-4.7c-.06-.12-.27-.63-.65-1.55l-.46-1,2.11-1.15A68.35,68.35,0,0,1,132.22,256.83Zm-1.53,12.52a12.93,12.93,0,0,0,4.74-5.62,20.26,20.26,0,0,0,1.15-7.66v-6.38H148.1V265.9a2.51,2.51,0,0,0,.21,1.29,1.51,1.51,0,0,0,1.37.65h.44q1.49,0,2.07-1.83a15.71,15.71,0,0,0,.38-1.65l2.55,1.18a13.84,13.84,0,0,1-1.31,3.56,3.81,3.81,0,0,1-3.52,1.79h-1.66a3.1,3.1,0,0,1-2.44-.76,2.29,2.29,0,0,1-.36-.67,12.4,12.4,0,0,1-.17-2.59V252.13H139V256a25.43,25.43,0,0,1-1.14,8.47,19.52,19.52,0,0,1-5.2,7.14Zm2.1-26.68h20.68v2.43H132.79Zm11.88-2.17-2.7,1.08a21.63,21.63,0,0,0-2.57-5l2.49-1.12A30.69,30.69,0,0,1,144.67,240.5Z"/><path class="cls-2" d="M158.82,256.85A51.93,51.93,0,0,0,160,251.1c.24-2,.49-3.78.74-5.22l2.59.29a70.86,70.86,0,0,1-1.86,11.25Zm7.06-20.49h2.44v13.79a93.07,93.07,0,0,1-.74,11.56,23.1,23.1,0,0,1-5.07,10.19l-2.24-1.77a19.32,19.32,0,0,0,4.83-8.69,49.54,49.54,0,0,0,.65-7c.09-1.77.13-3.29.13-4.55Zm4.58,9.89,2.53-.5a98.59,98.59,0,0,1,1.14,11.08l-2.7.23c-.07-.86-.18-2.73-.35-5.6C171.06,250.92,170.85,249.18,170.46,246.25Zm8.74-9.64V271.5h-2.44V236.61Zm2.43,9.06,2.59-.51q1.35,6.19,2,11.52l-2.78.46A97.57,97.57,0,0,0,181.63,245.67Zm9.54-9.38v35.65h-2.43V236.29Z"/><path class="cls-2" d="M203.3,235.66l2.94.89a63.32,63.32,0,0,1-5.62,11.6l5.58-.08q1.28-2.23,2.32-4.32L211,245a94,94,0,0,1-8.23,12.49l-.67.86c.54-.08,1.09-.15,1.66-.21,2.34-.27,4.32-.56,6-.86l-.13,2.72q-7.47.71-11.26,1.43l-.72-2.86a7,7,0,0,0,2-1.27,48,48,0,0,0,5.49-7.18l-3,.25a24.27,24.27,0,0,0-4.51.57l-.86-2.82c1.43-.76,2.68-2.34,3.77-4.72A46.31,46.31,0,0,0,203.3,235.66Zm6.21,32.24-12.15,2-.28-2.9,1-.15q8.32-1.2,11.94-2Zm.61-.25,9.69,0V258h-7.48V255.6h17.56V258h-7.64v9.64h10.13v2.44H210.1Zm13.1-22.79A79.56,79.56,0,0,1,232,251l-1.85,2.19c-1.84-1.59-3.21-2.73-4.11-3.4s-2.37-1.71-4.51-3.13a69.1,69.1,0,0,1-8.67,6.61L211.15,251a39.85,39.85,0,0,0,5.27-3.46,37.49,37.49,0,0,0,4.78-4.32c.65-.75,1.5-1.85,2.56-3.3H212.58v-2.44h16.13A89.27,89.27,0,0,1,223.22,244.86Z"/><path class="cls-2" d="M235.7,248l1.44-2.27a34,34,0,0,1,6.57,4.44L242,252.59a47.1,47.1,0,0,0-4.19-3.34ZM237,269.8a51,51,0,0,0,5.22-13l2.63,1.36q-1.81,5.1-2.67,7.12c-.84,1.94-1.76,3.91-2.78,5.9Zm1.18-31.72,1.56-2a31.75,31.75,0,0,1,5.93,3.92l-1.81,2.29A53.37,53.37,0,0,0,238.15,238.08Zm15.5,5.58a28.37,28.37,0,0,0,2.12,2.76,15.14,15.14,0,0,0,2.8,2.45,16.14,16.14,0,0,0,4-4.79l.59-1H247.75v-2.44h22.47v2.44H266.3l-.48.87a20.86,20.86,0,0,1-4.24,5.79c-.08.07-.27.24-.56.54l1.28.55a26.75,26.75,0,0,0,3.56,1.1,40.8,40.8,0,0,0,5.52,1l-1,2.76q-3.71-.65-4.65-.87a30.06,30.06,0,0,1-6.66-2.55l-.5-.25-.34.21-.17.09-.55.31a34.88,34.88,0,0,1-6.06,2.44c-.37.11-1.13.32-2.28.62l-1.68.46-1.12-2.8a33.14,33.14,0,0,0,8.45-2.28c.47-.22.9-.42,1.3-.59-.52-.5-.85-.81-1-.94a35.12,35.12,0,0,1-3.93-4.78Zm-7.14,26a13.81,13.81,0,0,0,4.71-4.95,15.08,15.08,0,0,0,1-6.17l0-2.1h2.55l0,2.1v1.05a13.77,13.77,0,0,1-1.58,6.89,19.6,19.6,0,0,1-5.12,5.35ZM257.92,240a14,14,0,0,0-1.41-4l2.89-.74a15.66,15.66,0,0,1,1.51,4ZM265,256.43v15.43h-2.43V256.43Z"/><path class="cls-2" d="M282.79,253.41c.25-.12.51-.25.76-.4l.17-.08a29.36,29.36,0,0,0,3.2-1.77l.71,2.74c-2.24,1.23-3.65,2-4.25,2.23l-.27.11-.32.16v12.39a2.08,2.08,0,0,1-.86,1.81,11.92,11.92,0,0,1-5,1.39l-1.25-3.56h3.23a1.29,1.29,0,0,0,1.47-1.45v-9.19l-.76.36-.17.07c-.23.12-.78.35-1.66.69l-1.94.82-1.33-2.86q1.15-.36,5.12-1.79l.25-.09a5.23,5.23,0,0,1,.49-.23V245h-5.1v-2.44h5.1v-7.14h2.44v7.14h4.7V245h-4.7Zm17.42,10.81.25.21q3.38,2.7,9.85,4.15l-1,2.94q-7-2.14-10.36-5l-.27-.2-.29-.23-.4.36c-.08.07-.64.47-1.65,1.2a38,38,0,0,1-7.62,4.05l-1.43-2.49q6.13-2.33,8.84-4.68l.15-.14a2.92,2.92,0,0,0,.29-.25c-.08-.08-.21-.24-.38-.45a1.9,1.9,0,0,1-.23-.27,22,22,0,0,1-4.31-9.12c-.17-.75-.27-1.16-.28-1.22s-.07-.26-.1-.4a2,2,0,0,1-.07-.36h-1.43v-2.44h7.48v-6.17h-8.21v-2.44h8.21v-5.94h2.44v5.94h9.94v2.44H299.7v6.17h8c-.75,2.21-1.24,3.66-1.49,4.34a29.35,29.35,0,0,1-4.38,8C301,263.26,300.52,263.91,300.21,264.22Zm-6.57-11.86c0,.09.07.23.12.44a20.67,20.67,0,0,0,4.17,8.91l.55.61a4.31,4.31,0,0,1,.5-.55l.11-.14a16.41,16.41,0,0,0,1.85-2.51,25.36,25.36,0,0,0,2.53-5.35l.51-1.41Z"/><path class="cls-2" d="M332.85,245.31H348.6v2.44H335.23l.52,1.28a45,45,0,0,0,5.08,9.31,27.16,27.16,0,0,0,8.27,7.22l-1.83,2.4a35.59,35.59,0,0,1-10.15-10.48,54.45,54.45,0,0,1-4.27-9v23.61h-2.43V249.48A92.25,92.25,0,0,1,324,260a58.58,58.58,0,0,1-8,8.11L314.21,266a35.53,35.53,0,0,0,9.24-9.52,55.49,55.49,0,0,0,4.72-8.72h-13v-2.44h15.24V235.2h2.43Zm11.62-3.42-2.3,1.39a34.56,34.56,0,0,0-3.34-5.64l2.1-1.2a21.32,21.32,0,0,1,2.15,2.89C343.26,239.64,343.72,240.49,344.47,241.89Z"/><path class="cls-2" d="M378.25,240v11.64h9.28v2.43h-9.28v17.62h-2.44V254.07h-10.7c0,.46-.11,1.2-.25,2.21a23.8,23.8,0,0,1-4.15,11,33.49,33.49,0,0,1-3.75,4.15L355,269.5a26.19,26.19,0,0,0,4.23-4.55,23.08,23.08,0,0,0,3.19-9.7,10.41,10.41,0,0,0,.14-1.18h-8.46v-2.43h8.59q.13-2.37.21-10.59V240h-6v-2.44h28.2V240Zm-2.44,0H365.44l0,1,0,1-.06,3.86c-.06,3.6-.1,5.5-.11,5.72h10.6Z"/><path class="cls-2" d="M405.58,247h-8.76a17,17,0,0,0-2.53.3l-.65-2.7a5.11,5.11,0,0,0,2.82-2.5,52.56,52.56,0,0,0,2.21-5.1l2.79,1.07c-.52.85-1.11,1.95-1.79,3.31a35.07,35.07,0,0,1-1.75,3.18h8.34a77.09,77.09,0,0,0,1.6-9l2.71.29q-.9,5.81-1.66,8.7h17.16V247H408.19l-.31,1c-.21.65-.47,1.36-.78,2.15a3.48,3.48,0,0,1-.13.34c-.17.41-.35.85-.53,1.32h16.33a32.79,32.79,0,0,1-4.49,8.8,36.84,36.84,0,0,1-3.66,4,39.29,39.29,0,0,0,11.16,4.68L424.56,272a43.81,43.81,0,0,1-9-4c-.9-.54-1.87-1.19-2.92-1.94-.25.15-.57.36-.95.61a34.82,34.82,0,0,1-5.5,2.89q-.33.17-6.27,2.4l-1.06-2.55a60.61,60.61,0,0,0,7.77-2.78,33.75,33.75,0,0,0,4.05-2.24l-.57-.58a25.8,25.8,0,0,1-4.72-6.64c-.13-.27-.24-.5-.34-.69a8.68,8.68,0,0,1-.39-.8c-.24.36-.41.62-.53.78-.24.35-.49.73-.74,1.15A56.56,56.56,0,0,1,394,268.39l-1.86-2.05a50.61,50.61,0,0,0,8.36-9,38.49,38.49,0,0,0,3.5-6.15c.19-.46.62-1.57,1.28-3.32Zm13.33,7.24H406.78c.15.38.33.78.53,1.21a19.58,19.58,0,0,0,5.39,7.32,20.67,20.67,0,0,0,2.42-2.16,20.29,20.29,0,0,0,3.29-5.29Zm-2.27-16.36,2-1.43a27,27,0,0,1,4.36,4.93l-2.17,1.68c-.22-.32-.37-.56-.48-.71A30.89,30.89,0,0,0,416.64,237.87Z"/><path class="cls-2" d="M433.93,270.05V237.68h30.19v2.43H436.37v27.5H465.3v2.44Zm17.45-18.11a98.23,98.23,0,0,0,6.41-8.66l2.37,1.58a97.47,97.47,0,0,1-6.86,8.79l2.25,2.21q2.68,2.63,6.4,6.59l-2.25,2.13q-2.47-2.9-7.05-7.69l-1.16-1.22c-2.83,2.68-4.74,4.43-5.71,5.26q-1.84,1.54-4.91,3.84l-1.7-2A75.78,75.78,0,0,0,449.55,254q-2.4-2.65-3.3-3.45l-2.64-2.38c-1.45-1.33-2.36-2.16-2.74-2.48l1.71-1.69q1.19,1.08,3.33,2.91Q448.6,249.19,451.38,251.94Z"/><path class="cls-2" d="M479,267.42V243.83l-5.5,3.5L472.17,245l7.12-4.51H482v27Z"/><path class="cls-2" d="M498.79,253.43a12.18,12.18,0,0,1-3.56-2.21,6.07,6.07,0,0,1-1.71-4.44,5.9,5.9,0,0,1,2.34-5,9.39,9.39,0,0,1,5.92-1.77,9.62,9.62,0,0,1,6,1.79,6.27,6.27,0,0,1-.11,9.71,17,17,0,0,1-2.61,1.52,13.12,13.12,0,0,1,3.65,2.16,6.18,6.18,0,0,1,2.08,4.91,6.9,6.9,0,0,1-2.53,5.67,10.06,10.06,0,0,1-6.57,2,10.38,10.38,0,0,1-6.5-1.92,6.41,6.41,0,0,1-2.57-5.39Q492.66,255.21,498.79,253.43Zm2.75,1.06q-5.71,1.69-5.72,5.87A4.36,4.36,0,0,0,497.5,264a6.73,6.73,0,0,0,4.26,1.33,6.5,6.5,0,0,0,4.27-1.39,4.25,4.25,0,0,0,1.64-3.45,4.82,4.82,0,0,0-2.46-4.15,20.87,20.87,0,0,0-2.46-1.3C502,254.67,501.57,254.49,501.54,254.49Zm1.12-2.44.34-.17q3.94-1.94,3.94-5a3.76,3.76,0,0,0-1.39-3.15,6,6,0,0,0-3.79-1.16,5.9,5.9,0,0,0-3.67,1.09,3.66,3.66,0,0,0-1.45,3.16,4.22,4.22,0,0,0,2.52,3.71A22.69,22.69,0,0,0,502.66,252.05Z"/><path class="cls-2" d="M514.69,251.73h35.23v2.44H526.6l-1.24,4.89h19.16l-1,7.14a8.65,8.65,0,0,1-.76,2.92q-1,1.78-4,2.38a41.69,41.69,0,0,1-5.32.63l-1.31-3.22h3.81a7.49,7.49,0,0,0,3.27-.57,3.05,3.05,0,0,0,1.62-2.48l.63-4.36H522l1.86-7.33h-9.18Zm6.19-3.62V237.2h23v10.91Zm2.44-2.44h18.09v-6H523.32Z"/><path class="cls-2" d="M571.65,253.23c-.11.45-.26,1-.44,1.72a20.88,20.88,0,0,1-5,9.23,28,28,0,0,1-5.63,4.63q-1.82,1.13-5.11,2.76l-1.71-2.82a26.11,26.11,0,0,0,6.26-2.85,18,18,0,0,0,5.57-5.37,21,21,0,0,0,3-7.43c.27-1.32.53-3.11.76-5.37h-14v-2.44h14.24c.12-1.75.17-3.4.17-5,0-.36,0-1.52,0-3.46V235.3l2.91-.08v2.48l0,5.23c0,.35,0,1.13,0,2.36h15.37v2.44H573a43,43,0,0,0,2.59,7.56,26.24,26.24,0,0,0,3.77,6.38,24.68,24.68,0,0,0,6.22,5.18,35.33,35.33,0,0,0,3.74,1.89l-2,2.78a54,54,0,0,1-6.56-4.48,26.76,26.76,0,0,1-6.38-7.65,38,38,0,0,1-2.06-4.56C572,254.23,571.83,253.69,571.65,253.23Z"/><path class="cls-2" d="M599.57,250.89v20.65h-2.44V254l-.59.73q-1.31,1.59-2.82,3.18L592,255.75a42.11,42.11,0,0,0,4.84-5.45c.84-1.17,2-3.06,3.52-5.69l2.36,1.22c-.71,1.17-1.58,2.57-2.61,4.22Zm-7-6.22a39.93,39.93,0,0,0,7-9.15l2.53,1.26c-1.26,1.93-2.35,3.51-3.28,4.72s-2.25,2.77-4.24,5Zm10,22.62-.8-2.8c2.07-.25,4.47-.6,7.2-1v-5.33H603.3v-2.44h5.77v-3.75h2.44v3.75h5.73v2.44h-5.73v5l1-.15,4.3-.63.72-.12v2.61l-1.16.17Q608.83,266.06,602.67,267.29Zm6.4-19v-4.43h-5.71v-2.44h5.71v-5.18h2.44v5.18H617v2.44h-5.45v4.43h5v2.44H603.36V248.3Zm9.16-.85h10.7v2.43h-4v18.57c0,1.24-.87,2.07-2.59,2.48-.41.1-1.43.25-3,.45l-1.14-3.14h2.78q1.56,0,1.56-1.68V249.88h-4.23Zm.25-8.9h9.31V241h-9.31Z"/><path class="cls-2" d="M642.55,271.82l-1.49,1.64a22.8,22.8,0,0,1-4.07-4.67,23.92,23.92,0,0,1,4.07-31.13l1.49,1.64a19.72,19.72,0,0,0-3.26,4.26,23.78,23.78,0,0,0,0,24A19.68,19.68,0,0,0,642.55,271.82Z"/><path class="cls-2" d="M659.44,243.48a56.27,56.27,0,0,1-6.23,9.26h9.52v-6.17h2.44v6.17h12.55v2.44H665.17v13.14a2.9,2.9,0,0,1-1.83,2.95,13.11,13.11,0,0,1-2.61.63l-1.48.23-1.11-3h3a1.38,1.38,0,0,0,1.56-1.56V255.18H650.89l-.59-2.76a45.25,45.25,0,0,0,6.49-8.94H646.53v-2.43H658c.43-.88,1.24-2.81,2.42-5.81l2.36.93c-.34.83-1,2.38-2.06,4.67l-.09.21h19.82v2.43ZM646.58,267.4a34.1,34.1,0,0,0,8.19-9l2.1,1.6a42.35,42.35,0,0,1-8.7,9.61Zm23.94-6.95,1.77-1.81q3.11,2.6,4.19,3.64a39.61,39.61,0,0,1,3.66,4.09l-2.1,2A41.89,41.89,0,0,0,670.52,260.45Z"/><path class="cls-2" d="M684.5,239.3l1.49-1.64a23.63,23.63,0,0,1,4.07,31.13,22.73,22.73,0,0,1-4.07,4.67l-1.49-1.64a20,20,0,0,0,3.26-4.25,23.8,23.8,0,0,0,0-24A20.18,20.18,0,0,0,684.5,239.3Z"/><path class="cls-2" d="M708,267.42V243.83l-5.5,3.5L701.18,245l7.12-4.51H711v27Z"/><path class="cls-2" d="M722,267.42V264.7a116.32,116.32,0,0,0,9-8.78,25.53,25.53,0,0,0,3.62-4.95,8.38,8.38,0,0,0,1-3.79,4,4,0,0,0-1.5-3.28,6.59,6.59,0,0,0-4.31-1.37,11.85,11.85,0,0,0-6.28,2l-.78-2.66a16.55,16.55,0,0,1,7.4-1.85,10.23,10.23,0,0,1,6,1.6,6,6,0,0,1,2.67,5.33,12.51,12.51,0,0,1-2.86,7.29,69.21,69.21,0,0,1-10.2,10.59h13.29v2.57Z"/><path class="cls-2" d="M750.27,253.43a12.18,12.18,0,0,1-3.56-2.21,6.07,6.07,0,0,1-1.71-4.44,5.9,5.9,0,0,1,2.34-5,9.41,9.41,0,0,1,5.92-1.77,9.62,9.62,0,0,1,6,1.79,6.27,6.27,0,0,1-.11,9.71,17,17,0,0,1-2.61,1.52,13,13,0,0,1,3.65,2.16,6.18,6.18,0,0,1,2.08,4.91,6.87,6.87,0,0,1-2.53,5.67,10.06,10.06,0,0,1-6.57,2,10.38,10.38,0,0,1-6.5-1.92,6.41,6.41,0,0,1-2.57-5.39Q744.14,255.21,750.27,253.43Zm2.75,1.06q-5.71,1.69-5.72,5.87A4.36,4.36,0,0,0,749,264a6.74,6.74,0,0,0,4.27,1.33,6.5,6.5,0,0,0,4.26-1.39,4.25,4.25,0,0,0,1.64-3.45,4.82,4.82,0,0,0-2.46-4.15,21.48,21.48,0,0,0-2.45-1.3C753.46,254.67,753.06,254.49,753,254.49Zm1.12-2.44.34-.17q3.94-1.94,3.94-5a3.78,3.78,0,0,0-1.38-3.15,6,6,0,0,0-3.79-1.16,5.93,5.93,0,0,0-3.68,1.09,3.68,3.68,0,0,0-1.45,3.16,4.22,4.22,0,0,0,2.52,3.71A23.14,23.14,0,0,0,754.14,252.05Z"/><path class="cls-2" d="M766.18,251.73h35.23v2.44H778.08l-1.24,4.89H796l-1,7.14a8.65,8.65,0,0,1-.76,2.92q-1,1.78-4,2.38a41.69,41.69,0,0,1-5.32.63l-1.31-3.22h3.81a7.49,7.49,0,0,0,3.27-.57,3.05,3.05,0,0,0,1.62-2.48l.63-4.36H773.49l1.86-7.33h-9.17Zm6.18-3.62V237.2h23v10.91Zm2.44-2.44h18.09v-6H774.8Z"/><path class="cls-1" d="M3,338.49a47.62,47.62,0,0,1,7.22-.55c4.87,0,8.34,1.13,10.65,3.28s3.7,5.18,3.7,9.43-1.32,7.8-3.78,10.22-6.52,3.79-11.62,3.79A53.59,53.59,0,0,1,3,364.34Zm3.4,23.24a20.78,20.78,0,0,0,3.43.2c7.25,0,11.19-4.06,11.19-11.16,0-6.2-3.47-10.14-10.65-10.14a19.55,19.55,0,0,0-4,.35Z"/><path class="cls-1" d="M45.63,354.83c0,7-4.84,10-9.4,10-5.11,0-9-3.74-9-9.71,0-6.32,4.14-10,9.36-10C42,345.12,45.63,349.06,45.63,354.83Zm-15,.19c0,4.14,2.38,7.26,5.74,7.26s5.73-3.08,5.73-7.34c0-3.19-1.6-7.25-5.65-7.25S30.65,351.43,30.65,355Z"/><path class="cls-1" d="M65.29,359.27c0,2,0,3.67.15,5.15h-3l-.19-3.08h-.08a7.11,7.11,0,0,1-6.24,3.51c-3,0-6.51-1.64-6.51-8.27v-11h3.43V356c0,3.59,1.09,6,4.21,6a5,5,0,0,0,4.52-3.12,4.87,4.87,0,0,0,.32-1.75V345.55h3.43Z"/><path class="cls-1" d="M70.36,364.42c.07-1.29.15-3.2.15-4.87V336.73h3.4v11.86H74a7,7,0,0,1,6.44-3.47c4.68,0,8,3.9,8,9.63,0,6.75-4.26,10.1-8.47,10.1a6.73,6.73,0,0,1-6.32-3.55h-.11l-.16,3.12Zm3.55-7.56a6.28,6.28,0,0,0,.15,1.24,5.29,5.29,0,0,0,5.15,4c3.59,0,5.73-2.92,5.73-7.25,0-3.79-2-7-5.61-7a5.48,5.48,0,0,0-5.23,4.21,6.67,6.67,0,0,0-.19,1.4Z"/><path class="cls-1" d="M92.23,336.73h3.44v27.69H92.23Z"/><path class="cls-1" d="M102.88,355.61c.08,4.64,3,6.55,6.48,6.55a12.31,12.31,0,0,0,5.22-1l.59,2.46a15.24,15.24,0,0,1-6.28,1.17c-5.81,0-9.28-3.82-9.28-9.51s3.35-10.18,8.85-10.18c6.16,0,7.8,5.42,7.8,8.89a12.66,12.66,0,0,1-.12,1.6Zm10.06-2.46c0-2.18-.89-5.58-4.75-5.58-3.48,0-5,3.2-5.27,5.58Z"/><path class="cls-1" d="M123.86,341h-8v-2.89h19.46V341h-8v23.4h-3.44Z"/><path class="cls-1" d="M135.91,351.43c0-2.22,0-4.13-.15-5.88h3l.12,3.7H139a5.67,5.67,0,0,1,5.23-4.13,4.2,4.2,0,0,1,1,.11v3.24a5.14,5.14,0,0,0-1.17-.12c-2.42,0-4.14,1.84-4.61,4.41a10.63,10.63,0,0,0-.15,1.6v10.06h-3.4Z"/><path class="cls-1" d="M149.72,355.61c.08,4.64,3,6.55,6.48,6.55a12.34,12.34,0,0,0,5.22-1l.59,2.46a15.24,15.24,0,0,1-6.28,1.17c-5.81,0-9.28-3.82-9.28-9.51s3.35-10.18,8.85-10.18c6.16,0,7.8,5.42,7.8,8.89a12.66,12.66,0,0,1-.12,1.6Zm10.06-2.46c0-2.18-.89-5.58-4.75-5.58-3.48,0-5,3.2-5.27,5.58Z"/><path class="cls-1" d="M168.79,355.61c.08,4.64,3,6.55,6.48,6.55a12.31,12.31,0,0,0,5.22-1l.59,2.46a15.24,15.24,0,0,1-6.28,1.17c-5.81,0-9.28-3.82-9.28-9.51s3.35-10.18,8.85-10.18c6.16,0,7.8,5.42,7.8,8.89a12.66,12.66,0,0,1-.12,1.6Zm10.06-2.46c0-2.18-.89-5.58-4.75-5.58-3.48,0-5,3.2-5.27,5.58Z"/><path class="cls-1" d="M193.6,364.42c.07-1.29.15-3.2.15-4.87V336.73h3.39v11.86h.08a7,7,0,0,1,6.44-3.47c4.68,0,8,3.9,8,9.63,0,6.75-4.25,10.1-8.46,10.1a6.73,6.73,0,0,1-6.32-3.55h-.11l-.16,3.12Zm3.54-7.56a6.28,6.28,0,0,0,.16,1.24,5.29,5.29,0,0,0,5.15,4c3.59,0,5.73-2.92,5.73-7.25,0-3.79-2-7-5.61-7a5.48,5.48,0,0,0-5.23,4.21,6.62,6.62,0,0,0-.2,1.4Z"/><path class="cls-1" d="M216.45,345.55l4.13,11.15c.43,1.25.9,2.73,1.21,3.86h.08c.35-1.13.74-2.57,1.21-3.94l3.74-11.07h3.63L225.3,359c-2.45,6.48-4.13,9.79-6.47,11.82a9.29,9.29,0,0,1-4.21,2.22l-.86-2.88a9.11,9.11,0,0,0,3-1.68,10.39,10.39,0,0,0,2.89-3.82,2.71,2.71,0,0,0,.27-.82,3.13,3.13,0,0,0-.23-.9l-7-17.39Z"/><path class="cls-1" d="M244.41,338.13v11h12.72v-11h3.43v26.29h-3.43V352.1H244.41v12.32H241V338.13Z"/><path class="cls-1" d="M270.07,340.24a2,2,0,0,1-2.18,2.11,2,2,0,0,1-2.07-2.11A2.09,2.09,0,0,1,268,338.1,2,2,0,0,1,270.07,340.24Zm-3.82,24.18V345.55h3.43v18.87Z"/><path class="cls-1" d="M274.91,336.73h3.43v27.69h-3.43Z"/><path class="cls-1" d="M287.78,340.12v5.43h4.91v2.61h-4.91v10.18c0,2.34.66,3.66,2.57,3.66a7.54,7.54,0,0,0,2-.23l.16,2.57a8.24,8.24,0,0,1-3,.47,4.79,4.79,0,0,1-3.71-1.44c-1-1-1.32-2.69-1.32-4.92V348.16H281.5v-2.61h2.93V341Z"/><path class="cls-1" d="M312.94,354.83c0,7-4.84,10-9.4,10-5.11,0-9.05-3.74-9.05-9.71,0-6.32,4.13-10,9.36-10C309.27,345.12,312.94,349.06,312.94,354.83ZM298,355c0,4.14,2.38,7.26,5.73,7.26s5.74-3.08,5.74-7.34c0-3.19-1.6-7.25-5.66-7.25S298,351.43,298,355Z"/><path class="cls-1" d="M316.8,350.65c0-1.95,0-3.55-.16-5.1h3l.2,3.12H320a6.92,6.92,0,0,1,6.24-3.55c2.61,0,6.67,1.56,6.67,8v11.27h-3.44V353.54c0-3-1.13-5.58-4.36-5.58a4.88,4.88,0,0,0-4.61,3.51,5.14,5.14,0,0,0-.23,1.6v11.35H316.8Z"/><path class="cls-1" d="M349.28,338.13v11H362v-11h3.43v26.29H362V352.1H349.28v12.32h-3.39V338.13Z"/><path class="cls-1" d="M381.19,364.42l-.28-2.38h-.12a7,7,0,0,1-5.77,2.81,5.38,5.38,0,0,1-5.77-5.42c0-4.56,4.06-7.06,11.35-7V352c0-1.56-.43-4.37-4.29-4.37a9.35,9.35,0,0,0-4.91,1.41l-.78-2.27a11.74,11.74,0,0,1,6.2-1.67c5.77,0,7.17,3.94,7.17,7.72v7.06a25.89,25.89,0,0,0,.32,4.52Zm-.51-9.63c-3.75-.08-8,.58-8,4.25a3,3,0,0,0,3.24,3.28,4.68,4.68,0,0,0,4.56-3.16,3.5,3.5,0,0,0,.2-1.1Z"/><path class="cls-1" d="M389.06,350.65c0-1.95,0-3.55-.15-5.1h3l.19,3.12h.08a6.94,6.94,0,0,1,6.24-3.55c2.62,0,6.67,1.56,6.67,8v11.27H401.7V353.54c0-3-1.13-5.58-4.37-5.58a5,5,0,0,0-4.83,5.11v11.35h-3.44Z"/><path class="cls-1" d="M426.5,345.55c-.08,1.36-.15,2.88-.15,5.18v11c0,4.33-.86,7-2.69,8.62a10,10,0,0,1-6.87,2.26,12.13,12.13,0,0,1-6.28-1.56l.86-2.61a10.66,10.66,0,0,0,5.54,1.48c3.51,0,6.08-1.83,6.08-6.59v-2.11h-.08a6.72,6.72,0,0,1-6,3.16c-4.68,0-8-4-8-9.2,0-6.4,4.18-10,8.51-10a6.28,6.28,0,0,1,5.89,3.27h.07l.16-2.84ZM423,353a5.1,5.1,0,0,0-.19-1.56,5,5,0,0,0-4.8-3.62c-3.28,0-5.62,2.77-5.62,7.13,0,3.71,1.88,6.79,5.58,6.79a5,5,0,0,0,4.76-3.51,5.8,5.8,0,0,0,.27-1.83Z"/><path class="cls-1" d="M429.43,362.43,438,351.32c.82-1,1.6-1.91,2.45-2.93v-.08H430.21v-2.76H444.6l0,2.14-8.43,11c-.78,1.05-1.55,2-2.41,3v.08h11v2.73H429.43Z"/><path class="cls-1" d="M447.79,336.73h3.44v11.78h.08a6.33,6.33,0,0,1,2.45-2.42,7.15,7.15,0,0,1,3.51-1c2.54,0,6.59,1.56,6.59,8.07v11.23h-3.43V353.58c0-3-1.13-5.62-4.37-5.62a4.93,4.93,0,0,0-4.6,3.44,4.2,4.2,0,0,0-.23,1.63v11.39h-3.44Z"/><path class="cls-1" d="M486.05,354.83c0,7-4.83,10-9.39,10-5.11,0-9.05-3.74-9.05-9.71,0-6.32,4.13-10,9.36-10C482.39,345.12,486.05,349.06,486.05,354.83Zm-15,.19c0,4.14,2.38,7.26,5.73,7.26s5.73-3.08,5.73-7.34c0-3.19-1.59-7.25-5.65-7.25S471.08,351.43,471.08,355Z"/><path class="cls-1" d="M505.71,359.27c0,2,0,3.67.16,5.15h-3.05l-.19-3.08h-.08a7.1,7.1,0,0,1-6.24,3.51c-3,0-6.51-1.64-6.51-8.27v-11h3.43V356c0,3.59,1.09,6,4.21,6a5,5,0,0,0,4.53-3.12,5.09,5.09,0,0,0,.31-1.75V345.55h3.43Z"/><path class="cls-1" d="M532.46,352.1H522.25v9.47h11.38v2.85H518.85V338.13h14.2V341h-10.8v8.31h10.21Z"/><path class="cls-1" d="M547.91,364.42l-.28-2.38h-.11a7,7,0,0,1-5.77,2.81,5.38,5.38,0,0,1-5.78-5.42c0-4.56,4.06-7.06,11.35-7V352c0-1.56-.43-4.37-4.29-4.37a9.37,9.37,0,0,0-4.91,1.41l-.78-2.27a11.74,11.74,0,0,1,6.2-1.67c5.77,0,7.18,3.94,7.18,7.72v7.06a26,26,0,0,0,.31,4.52Zm-.51-9.63c-3.74-.08-8,.58-8,4.25a3,3,0,0,0,3.23,3.28,4.71,4.71,0,0,0,4.57-3.16,3.79,3.79,0,0,0,.19-1.1Z"/><path class="cls-1" d="M555.32,360.91a9,9,0,0,0,4.52,1.37c2.5,0,3.67-1.25,3.67-2.81s-1-2.54-3.51-3.47c-3.4-1.21-5-3.08-5-5.35,0-3,2.45-5.53,6.51-5.53a9.35,9.35,0,0,1,4.64,1.17l-.86,2.49a7.31,7.31,0,0,0-3.86-1.09c-2,0-3.16,1.17-3.16,2.57,0,1.56,1.13,2.27,3.59,3.2,3.28,1.25,5,2.89,5,5.7,0,3.31-2.57,5.65-7.06,5.65a10.78,10.78,0,0,1-5.3-1.29Z"/><path class="cls-1" d="M574.89,340.12v5.43h4.92v2.61h-4.92v10.18c0,2.34.67,3.66,2.58,3.66a7.54,7.54,0,0,0,2-.23l.15,2.57a8.21,8.21,0,0,1-3,.47,4.76,4.76,0,0,1-3.7-1.44c-1-1-1.33-2.69-1.33-4.92V348.16h-2.92v-2.61h2.92V341Z"/><path class="cls-1" d="M582.38,348.67a2.32,2.32,0,1,1,4.64,0,2.32,2.32,0,1,1-4.64,0Zm0,13.76a2.32,2.32,0,1,1,4.64,0,2.32,2.32,0,1,1-4.64,0Z"/><path class="cls-2" d="M16.26,401.49a12.08,12.08,0,0,0-2.57.16,10.28,10.28,0,0,0-8.81,9H5a7.59,7.59,0,0,1,6.13-2.92c4.48,0,7.64,3.24,7.64,8.19,0,4.64-3.16,8.93-8.43,8.93-5.42,0-9-4.21-9-10.8a15.94,15.94,0,0,1,4.29-11.43,13.75,13.75,0,0,1,8.11-3.74,16,16,0,0,1,2.49-.2Zm-1,14.62c0-3.62-2.07-5.81-5.23-5.81a5.65,5.65,0,0,0-4.91,3.12,2.87,2.87,0,0,0-.39,1.52c.08,4.18,2,7.26,5.57,7.26C13.3,422.2,15.29,419.74,15.29,416.11Z"/><path class="cls-2" d="M38.65,411.47c0,8.62-3.2,13.38-8.82,13.38-4.95,0-8.3-4.64-8.38-13s3.67-13.18,8.81-13.18C35.61,398.64,38.65,403.4,38.65,411.47Zm-13.77.39c0,6.59,2,10.34,5.15,10.34,3.51,0,5.19-4.1,5.19-10.57,0-6.24-1.6-10.34-5.15-10.34C27.07,401.29,24.88,405,24.88,411.86Z"/><path class="cls-2" d="M58.66,411.47c0,8.62-3.2,13.38-8.82,13.38-5,0-8.3-4.64-8.38-13s3.66-13.18,8.81-13.18C55.61,398.64,58.66,403.4,58.66,411.47Zm-13.77.39c0,6.59,2,10.34,5.15,10.34,3.51,0,5.18-4.1,5.18-10.57,0-6.24-1.6-10.34-5.14-10.34C47.07,401.29,44.89,405,44.89,411.86Z"/><path class="cls-2" d="M76.67,398.13h3.4v17.59c0,7-3.44,9.13-8,9.13a11,11,0,0,1-3.63-.62l.51-2.77a8.19,8.19,0,0,0,2.85.5c3,0,4.83-1.36,4.83-6.51Z"/><path class="cls-2" d="M89.43,400.24a2.13,2.13,0,0,1-4.26,0,2.09,2.09,0,0,1,2.15-2.14A2,2,0,0,1,89.43,400.24ZM85.6,424.42V405.55H89v18.87Z"/><path class="cls-2" d="M94.73,410.65c0-1.95,0-3.55-.16-5.1h3.05l.19,3.12h.08a6.94,6.94,0,0,1,6.24-3.55c2.61,0,6.67,1.56,6.67,8v11.27h-3.43V413.54c0-3-1.13-5.58-4.37-5.58a5.05,5.05,0,0,0-4.84,5.11v11.35H94.73Z"/><path class="cls-2" d="M115.91,420.91a9,9,0,0,0,4.52,1.37c2.5,0,3.67-1.25,3.67-2.81s-1-2.54-3.51-3.47c-3.4-1.21-5-3.08-5-5.35,0-3,2.46-5.53,6.52-5.53a9.35,9.35,0,0,1,4.64,1.17l-.86,2.49a7.31,7.31,0,0,0-3.86-1.09c-2,0-3.16,1.17-3.16,2.57,0,1.56,1.13,2.27,3.59,3.2,3.27,1.25,5,2.89,5,5.7,0,3.31-2.57,5.65-7.06,5.65a10.75,10.75,0,0,1-5.3-1.29Z"/><path class="cls-2" d="M131.82,396.73h3.43v11.78h.08a6.36,6.36,0,0,1,2.46-2.42,7.09,7.09,0,0,1,3.51-1c2.53,0,6.59,1.56,6.59,8.07v11.23h-3.43V413.58c0-3-1.14-5.62-4.37-5.62a4.91,4.91,0,0,0-4.6,3.44,4,4,0,0,0-.24,1.63v11.39h-3.43Z"/><path class="cls-2" d="M163.92,424.42l-.28-2.38h-.11a7.07,7.07,0,0,1-5.78,2.81,5.38,5.38,0,0,1-5.77-5.42c0-4.56,4.06-7.06,11.35-7V412c0-1.56-.43-4.37-4.29-4.37a9.37,9.37,0,0,0-4.91,1.41l-.78-2.27a11.74,11.74,0,0,1,6.2-1.67c5.77,0,7.17,3.94,7.17,7.72v7.06a25.89,25.89,0,0,0,.32,4.52Zm-.51-9.63c-3.74-.08-8,.58-8,4.25a3,3,0,0,0,3.24,3.28,4.68,4.68,0,0,0,4.56-3.16,3.5,3.5,0,0,0,.2-1.1Z"/><path class="cls-2" d="M184.9,416.15l-2.73,8.27h-3.51l8.93-26.29h4.09l9,26.29H197l-2.81-8.27Zm8.62-2.65-2.58-7.56c-.58-1.72-1-3.28-1.36-4.8h-.08c-.39,1.56-.82,3.16-1.33,4.76l-2.57,7.6Z"/><path class="cls-2" d="M204.9,405.55l3.71,10.6a50,50,0,0,1,1.52,4.84h.12c.43-1.56,1-3.12,1.6-4.84l3.66-10.6h3.59l-7.41,18.87h-3.27l-7.18-18.87Z"/><path class="cls-2" d="M223.86,415.61c.08,4.64,3,6.55,6.47,6.55a12.36,12.36,0,0,0,5.23-1l.58,2.46a15.2,15.2,0,0,1-6.28,1.17c-5.81,0-9.28-3.82-9.28-9.51s3.36-10.18,8.85-10.18c6.17,0,7.81,5.42,7.81,8.89a12.66,12.66,0,0,1-.12,1.6Zm10.06-2.46c0-2.18-.9-5.58-4.76-5.58-3.47,0-5,3.2-5.26,5.58Z"/><path class="cls-2" d="M241.49,410.65c0-1.95,0-3.55-.16-5.1h3l.2,3.12h.07a6.94,6.94,0,0,1,6.24-3.55c2.62,0,6.67,1.56,6.67,8v11.27h-3.43V413.54c0-3-1.13-5.58-4.37-5.58a4.88,4.88,0,0,0-4.6,3.51,5.14,5.14,0,0,0-.23,1.6v11.35h-3.43Z"/><path class="cls-2" d="M278.93,419.27c0,2,0,3.67.15,5.15h-3l-.2-3.08h-.07a7.11,7.11,0,0,1-6.24,3.51c-3,0-6.52-1.64-6.52-8.27v-11h3.44V416c0,3.59,1.09,6,4.21,6a5,5,0,0,0,4.52-3.12,4.87,4.87,0,0,0,.31-1.75V405.55h3.44Z"/><path class="cls-2" d="M286.53,415.61c.08,4.64,3,6.55,6.47,6.55a12.36,12.36,0,0,0,5.23-1l.59,2.46a15.24,15.24,0,0,1-6.28,1.17c-5.81,0-9.29-3.82-9.29-9.51s3.36-10.18,8.86-10.18c6.16,0,7.8,5.42,7.8,8.89a12.66,12.66,0,0,1-.12,1.6Zm10.06-2.46c0-2.18-.89-5.58-4.76-5.58-3.47,0-5,3.2-5.26,5.58Z"/><path class="cls-2" d="M301.47,429.22a56.15,56.15,0,0,0,2.34-9.32l3.82-.39a47.19,47.19,0,0,1-3.71,9.47Z"/><path class="cls-2" d="M341.83,428.28c-3.55-.93-7-2-10.06-3a5.19,5.19,0,0,0-1.6-.39c-6.24-.23-11.58-4.84-11.58-13.3s5.15-13.84,12.24-13.84,11.78,5.53,11.78,13.3c0,6.74-3.12,11.07-7.49,12.59v.16c2.62.66,5.46,1.29,7.69,1.68ZM339,411.16c0-5.26-2.73-10.68-8.3-10.68-5.74,0-8.54,5.3-8.51,11s3.05,10.61,8.35,10.61S339,417.17,339,411.16Z"/><path class="cls-2" d="M350.72,400.24a2,2,0,0,1-2.18,2.11,2,2,0,0,1-2.07-2.11,2.09,2.09,0,0,1,2.15-2.14A2,2,0,0,1,350.72,400.24Zm-3.82,24.18V405.55h3.43v18.87Z"/><path class="cls-2" d="M366.48,424.42l-.27-2.38h-.12a7,7,0,0,1-5.77,2.81,5.38,5.38,0,0,1-5.77-5.42c0-4.56,4.05-7.06,11.35-7V412c0-1.56-.43-4.37-4.3-4.37a9.4,9.4,0,0,0-4.91,1.41l-.78-2.27a11.74,11.74,0,0,1,6.2-1.67c5.77,0,7.18,3.94,7.18,7.72v7.06a27,27,0,0,0,.31,4.52Zm-.51-9.63c-3.74-.08-8,.58-8,4.25a3,3,0,0,0,3.23,3.28,4.71,4.71,0,0,0,4.57-3.16,3.49,3.49,0,0,0,.19-1.1Z"/><path class="cls-2" d="M374.83,410.65c0-1.95,0-3.55-.16-5.1h3l.2,3.12H378a6.94,6.94,0,0,1,6.24-3.55c2.62,0,6.67,1.56,6.67,8v11.27h-3.43V413.54c0-3-1.13-5.58-4.37-5.58a4.88,4.88,0,0,0-4.6,3.51,5.14,5.14,0,0,0-.23,1.6v11.35h-3.43Z"/><path class="cls-2" d="M400.45,400.12v5.43h4.91v2.61h-4.91v10.18c0,2.34.66,3.66,2.57,3.66a7.54,7.54,0,0,0,2-.23l.16,2.57a8.28,8.28,0,0,1-3,.47,4.79,4.79,0,0,1-3.71-1.44c-1-1-1.33-2.69-1.33-4.92V408.16h-2.92v-2.61h2.92V401Z"/><path class="cls-2" d="M419.68,424.42,419.4,422h-.11a7.05,7.05,0,0,1-5.78,2.81,5.38,5.38,0,0,1-5.77-5.42c0-4.56,4.06-7.06,11.35-7V412c0-1.56-.43-4.37-4.29-4.37a9.37,9.37,0,0,0-4.91,1.41l-.78-2.27a11.74,11.74,0,0,1,6.2-1.67c5.77,0,7.17,3.94,7.17,7.72v7.06a25.89,25.89,0,0,0,.32,4.52Zm-.51-9.63c-3.75-.08-8,.58-8,4.25a3,3,0,0,0,3.24,3.28,4.68,4.68,0,0,0,4.56-3.16,3.5,3.5,0,0,0,.2-1.1Z"/><path class="cls-2" d="M428,410.65c0-1.95,0-3.55-.15-5.1h3l.19,3.12h.08a6.94,6.94,0,0,1,6.24-3.55c2.61,0,6.67,1.56,6.67,8v11.27h-3.43V413.54c0-3-1.13-5.58-4.37-5.58a5.05,5.05,0,0,0-4.84,5.11v11.35H428Z"/><path class="cls-2" d="M465.93,405.55c-.08,1.36-.16,2.88-.16,5.18v11c0,4.33-.85,7-2.69,8.62a10,10,0,0,1-6.86,2.26,12.13,12.13,0,0,1-6.28-1.56l.86-2.61a10.66,10.66,0,0,0,5.54,1.48c3.51,0,6.08-1.83,6.08-6.59v-2.11h-.08a6.72,6.72,0,0,1-6,3.16c-4.68,0-8-4-8-9.2,0-6.4,4.17-10,8.5-10a6.27,6.27,0,0,1,5.89,3.27h.08l.16-2.84ZM462.38,413a5.1,5.1,0,0,0-.19-1.56,5,5,0,0,0-4.8-3.62c-3.28,0-5.62,2.77-5.62,7.13,0,3.71,1.87,6.79,5.58,6.79a5,5,0,0,0,4.76-3.51,6.1,6.1,0,0,0,.27-1.83Z"/><path class="cls-2" d="M479.85,424.42V398.13h3.71l8.42,13.3A74.8,74.8,0,0,1,496.7,420l.08,0c-.31-3.51-.39-6.71-.39-10.81v-11h3.2v26.29h-3.44l-8.34-13.34a82.14,82.14,0,0,1-4.92-8.77l-.11,0c.19,3.31.27,6.47.27,10.84v11.23Z"/><path class="cls-2" d="M507.31,415.61c.07,4.64,3,6.55,6.47,6.55a12.36,12.36,0,0,0,5.23-1l.58,2.46a15.2,15.2,0,0,1-6.28,1.17c-5.81,0-9.28-3.82-9.28-9.51s3.35-10.18,8.85-10.18c6.17,0,7.8,5.42,7.8,8.89a13.08,13.08,0,0,1-.11,1.6Zm10.06-2.46c0-2.18-.9-5.58-4.76-5.58-3.47,0-5,3.2-5.26,5.58Z"/><path class="cls-2" d="M526.3,405.55l2.5,9.59c.54,2.11,1.05,4.06,1.4,6h.12c.43-1.92,1-3.94,1.67-6l3.09-9.63H538l2.93,9.43c.7,2.27,1.24,4.25,1.67,6.17h.12a57.17,57.17,0,0,1,1.44-6.13l2.69-9.47h3.4l-6.09,18.87H541l-2.88-9a61.33,61.33,0,0,1-1.68-6.2h-.08a57.2,57.2,0,0,1-1.71,6.24l-3,9h-3.12l-5.69-18.87Z"/><path class="cls-2" d="M566.27,416.15l-2.73,8.27H560L569,398.13h4.09l9,26.29H578.4l-2.8-8.27Zm8.62-2.65-2.57-7.56c-.58-1.72-1-3.28-1.36-4.8h-.08c-.39,1.56-.82,3.16-1.33,4.76L567,413.5Z"/><path class="cls-2" d="M585.66,411.43c0-2.22,0-4.13-.16-5.88h3l.12,3.7h.16a5.66,5.66,0,0,1,5.22-4.13,4.13,4.13,0,0,1,1,.11v3.24a5,5,0,0,0-1.17-.12c-2.42,0-4.14,1.84-4.6,4.41a9.41,9.41,0,0,0-.16,1.6v10.06h-3.39Z"/><path class="cls-2" d="M599.93,415.61c.08,4.64,3,6.55,6.48,6.55a12.31,12.31,0,0,0,5.22-1l.59,2.46a15.24,15.24,0,0,1-6.28,1.17c-5.81,0-9.28-3.82-9.28-9.51s3.35-10.18,8.85-10.18c6.16,0,7.8,5.42,7.8,8.89a12.66,12.66,0,0,1-.12,1.6ZM610,413.15c0-2.18-.89-5.58-4.75-5.58-3.48,0-5,3.2-5.27,5.58Z"/><path class="cls-2" d="M628,424.42l-.27-2.38h-.12a7,7,0,0,1-5.77,2.81,5.38,5.38,0,0,1-5.77-5.42c0-4.56,4-7.06,11.35-7V412c0-1.56-.43-4.37-4.29-4.37a9.41,9.41,0,0,0-4.92,1.41l-.78-2.27a11.74,11.74,0,0,1,6.2-1.67c5.78,0,7.18,3.94,7.18,7.72v7.06a27,27,0,0,0,.31,4.52Zm-.51-9.63c-3.74-.08-8,.58-8,4.25a3,3,0,0,0,3.24,3.28,4.7,4.7,0,0,0,4.56-3.16,3.49,3.49,0,0,0,.19-1.1Z"/><path class="cls-2" d="M634.13,429.22a55.18,55.18,0,0,0,2.34-9.32l3.83-.39a47.8,47.8,0,0,1-3.71,9.47Z"/><path class="cls-2" d="M656.21,398.13v11h12.71v-11h3.43v26.29h-3.43V412.1H656.21v12.32h-3.4V398.13Z"/><path class="cls-2" d="M688.58,424.42,688.3,422h-.11a7,7,0,0,1-5.77,2.81,5.38,5.38,0,0,1-5.78-5.42c0-4.56,4.06-7.06,11.35-7V412c0-1.56-.43-4.37-4.29-4.37a9.37,9.37,0,0,0-4.91,1.41l-.78-2.27a11.74,11.74,0,0,1,6.2-1.67c5.77,0,7.18,3.94,7.18,7.72v7.06a26,26,0,0,0,.31,4.52Zm-.51-9.63c-3.74-.08-8,.58-8,4.25a3,3,0,0,0,3.23,3.28,4.71,4.71,0,0,0,4.57-3.16,3.79,3.79,0,0,0,.19-1.1Z"/><path class="cls-2" d="M696.92,410.65c0-1.95,0-3.55-.15-5.1h3l.19,3.12h.08a6.94,6.94,0,0,1,6.24-3.55c2.62,0,6.67,1.56,6.67,8v11.27h-3.43V413.54c0-3-1.13-5.58-4.37-5.58a5,5,0,0,0-4.83,5.11v11.35h-3.44Z"/><path class="cls-2" d="M734.83,405.55c-.08,1.36-.15,2.88-.15,5.18v11c0,4.33-.86,7-2.7,8.62a10,10,0,0,1-6.86,2.26,12.13,12.13,0,0,1-6.28-1.56l.86-2.61a10.66,10.66,0,0,0,5.54,1.48c3.51,0,6.08-1.83,6.08-6.59v-2.11h-.08a6.72,6.72,0,0,1-6,3.16c-4.68,0-8-4-8-9.2,0-6.4,4.18-10,8.51-10a6.26,6.26,0,0,1,5.88,3.27h.08l.16-2.84ZM731.28,413a5.1,5.1,0,0,0-.19-1.56,5,5,0,0,0-4.8-3.62c-3.28,0-5.62,2.77-5.62,7.13,0,3.71,1.88,6.79,5.58,6.79a5,5,0,0,0,4.76-3.51,6.1,6.1,0,0,0,.27-1.83Z"/><path class="cls-2" d="M738.22,422.43l8.54-11.11c.82-1,1.6-1.91,2.46-2.93v-.08H739v-2.76h14.4l0,2.14-8.43,11c-.78,1.05-1.56,2-2.42,3v.08h11v2.73H738.22Z"/><path class="cls-2" d="M757.06,396.73h3.43v11.78h.08a6.36,6.36,0,0,1,2.46-2.42,7.09,7.09,0,0,1,3.51-1c2.53,0,6.59,1.56,6.59,8.07v11.23H769.7V413.58c0-3-1.13-5.62-4.37-5.62a4.92,4.92,0,0,0-4.6,3.44,4,4,0,0,0-.24,1.63v11.39h-3.43Z"/><path class="cls-2" d="M795.79,414.83c0,7-4.84,10-9.4,10-5.11,0-9-3.74-9-9.71,0-6.32,4.13-10,9.36-10C792.12,405.12,795.79,409.06,795.79,414.83Zm-15,.19c0,4.14,2.38,7.26,5.73,7.26s5.74-3.08,5.74-7.34c0-3.19-1.6-7.25-5.66-7.25S780.81,411.43,780.81,415Z"/><path class="cls-2" d="M815.91,419.27c0,2,0,3.67.16,5.15h-3l-.2-3.08h-.08a7.09,7.09,0,0,1-6.24,3.51c-3,0-6.51-1.64-6.51-8.27v-11h3.43V416c0,3.59,1.09,6,4.21,6a5,5,0,0,0,4.53-3.12,5.09,5.09,0,0,0,.31-1.75V405.55h3.43Z"/><path class="cls-2" d="M8,461H0v-2.89H19.46V461h-8v23.4H8Z"/><path class="cls-2" d="M21.41,475.61c.08,4.64,3,6.55,6.48,6.55a12.31,12.31,0,0,0,5.22-1l.59,2.46a15.24,15.24,0,0,1-6.28,1.17c-5.81,0-9.28-3.82-9.28-9.51s3.35-10.18,8.85-10.18c6.16,0,7.8,5.42,7.8,8.89a12.66,12.66,0,0,1-.12,1.6Zm10.06-2.46c0-2.18-.89-5.58-4.75-5.58-3.48,0-5,3.2-5.27,5.58Z"/><path class="cls-2" d="M39,456.73h3.43v27.69H39Z"/><path class="cls-2" d="M55.15,470.5a2.22,2.22,0,0,1-2.23-2.19,2.23,2.23,0,0,1,4.45,0A2.22,2.22,0,0,1,55.15,470.5Zm0,14.51a2.22,2.22,0,0,1-2.23-2.19,2.23,2.23,0,0,1,4.45,0A2.22,2.22,0,0,1,55.15,485Z"/><path class="cls-2" d="M103,471.47c0,8.62-3.2,13.38-8.81,13.38-5,0-8.31-4.64-8.39-13s3.67-13.18,8.82-13.18C100,458.64,103,463.4,103,471.47Zm-13.77.39c0,6.59,2,10.34,5.15,10.34,3.51,0,5.19-4.1,5.19-10.57,0-6.24-1.6-10.34-5.15-10.34C91.42,461.29,89.23,465,89.23,471.86Z"/><path class="cls-2" d="M121.29,462h-9.67l-1,6.51a13.28,13.28,0,0,1,2.07-.16,10.68,10.68,0,0,1,5.46,1.37,7.22,7.22,0,0,1,3.63,6.51c0,5-3.94,8.66-9.44,8.66a12.42,12.42,0,0,1-6.32-1.56l.86-2.61a11.39,11.39,0,0,0,5.42,1.4c3.24,0,6-2.1,6-5.5S116.1,471,111,471a25.89,25.89,0,0,0-3.51.27l1.64-12.17h12.13Z"/><path class="cls-2" d="M142.62,459.07v2.26l-11,23.09H128L139,462v-.08H126.63v-2.85Z"/><path class="cls-2" d="M153.62,462.27h-.08l-4.4,2.38-.67-2.61,5.54-3h2.93v25.35h-3.32Z"/><path class="cls-2" d="M175.23,472.6v2.54h-9.64V472.6Z"/><path class="cls-2" d="M177.84,478c0-3.2,1.91-5.46,5-6.79l0-.12c-2.81-1.32-4-3.51-4-5.69,0-4,3.4-6.75,7.84-6.75,4.92,0,7.38,3.08,7.38,6.24,0,2.15-1.06,4.45-4.18,5.93v.12c3.16,1.25,5.11,3.47,5.11,6.55,0,4.41-3.78,7.37-8.62,7.37C181,484.85,177.84,481.69,177.84,478Zm13.65-.16c0-3.08-2.15-4.56-5.58-5.54-3,.86-4.56,2.81-4.56,5.23-.12,2.57,1.83,4.83,5.07,4.83C189.5,482.35,191.49,480.44,191.49,477.83Zm-9.44-12.67c0,2.53,1.91,3.9,4.84,4.68,2.18-.75,3.86-2.31,3.86-4.61a3.94,3.94,0,0,0-4.29-4.13C183.61,461.1,182.05,463,182.05,465.16Z"/><path class="cls-2" d="M200.15,482a14.65,14.65,0,0,0,2.77-.11,9.62,9.62,0,0,0,5.3-2.46,11.11,11.11,0,0,0,3.36-6.75h-.12a7.44,7.44,0,0,1-6,2.73c-4.56,0-7.49-3.43-7.49-7.76,0-4.8,3.47-9,8.66-9s8.39,4.21,8.39,10.69c0,5.58-1.88,9.48-4.37,11.89a12.73,12.73,0,0,1-7.37,3.4,16.25,16.25,0,0,1-3.16.19Zm1.25-14.58c0,3.16,1.91,5.38,4.87,5.38a5.66,5.66,0,0,0,5-2.65,2.21,2.21,0,0,0,.32-1.25c0-4.33-1.6-7.65-5.19-7.65C203.46,461.25,201.4,463.83,201.4,467.42Z"/><path class="cls-2" d="M217.85,478c0-3.2,1.91-5.46,5-6.79l0-.12c-2.81-1.32-4-3.51-4-5.69,0-4,3.39-6.75,7.84-6.75,4.91,0,7.37,3.08,7.37,6.24,0,2.15-1,4.45-4.17,5.93v.12c3.15,1.25,5.1,3.47,5.1,6.55,0,4.41-3.78,7.37-8.61,7.37C221.05,484.85,217.85,481.69,217.85,478Zm13.65-.16c0-3.08-2.14-4.56-5.57-5.54-3,.86-4.57,2.81-4.57,5.23-.11,2.57,1.84,4.83,5.07,4.83C229.51,482.35,231.5,480.44,231.5,477.83Zm-9.43-12.67c0,2.53,1.91,3.9,4.83,4.68,2.19-.75,3.86-2.31,3.86-4.61a3.94,3.94,0,0,0-4.29-4.13C223.62,461.1,222.07,463,222.07,465.16Z"/><path class="cls-2" d="M240.16,482a14.65,14.65,0,0,0,2.77-.11,9.62,9.62,0,0,0,5.3-2.46,11.11,11.11,0,0,0,3.36-6.75h-.12a7.42,7.42,0,0,1-6,2.73c-4.56,0-7.48-3.43-7.48-7.76,0-4.8,3.47-9,8.65-9s8.39,4.21,8.39,10.69c0,5.58-1.87,9.48-4.37,11.89a12.73,12.73,0,0,1-7.37,3.4,16.25,16.25,0,0,1-3.16.19Zm1.25-14.58c0,3.16,1.91,5.38,4.87,5.38a5.69,5.69,0,0,0,5-2.65,2.3,2.3,0,0,0,.31-1.25c0-4.33-1.6-7.65-5.19-7.65C243.48,461.25,241.41,463.83,241.41,467.42Z"/><path class="cls-2" d="M257.87,478c0-3.2,1.91-5.46,5-6.79l0-.12c-2.81-1.32-4-3.51-4-5.69,0-4,3.4-6.75,7.84-6.75,4.92,0,7.37,3.08,7.37,6.24,0,2.15-1.05,4.45-4.17,5.93v.12c3.16,1.25,5.11,3.47,5.11,6.55,0,4.41-3.78,7.37-8.62,7.37C261.07,484.85,257.87,481.69,257.87,478Zm13.65-.16c0-3.08-2.15-4.56-5.58-5.54-3,.86-4.56,2.81-4.56,5.23-.12,2.57,1.83,4.83,5.07,4.83C269.53,482.35,271.52,480.44,271.52,477.83Zm-9.44-12.67c0,2.53,1.91,3.9,4.84,4.68,2.18-.75,3.86-2.31,3.86-4.61a3.94,3.94,0,0,0-4.29-4.13C263.64,461.1,262.08,463,262.08,465.16Z"/><path class="cls-2" d="M277.87,478c0-3.2,1.92-5.46,5-6.79l0-.12c-2.81-1.32-4-3.51-4-5.69,0-4,3.39-6.75,7.84-6.75,4.91,0,7.37,3.08,7.37,6.24,0,2.15-1.05,4.45-4.17,5.93v.12c3.15,1.25,5.11,3.47,5.11,6.55,0,4.41-3.79,7.37-8.62,7.37C281.07,484.85,277.87,481.69,277.87,478Zm13.65-.16c0-3.08-2.14-4.56-5.57-5.54-3,.86-4.57,2.81-4.57,5.23-.11,2.57,1.84,4.83,5.07,4.83S291.52,480.44,291.52,477.83Zm-9.43-12.67c0,2.53,1.91,3.9,4.83,4.68,2.19-.75,3.86-2.31,3.86-4.61a3.94,3.94,0,0,0-4.29-4.13C283.65,461.1,282.09,463,282.09,465.16Z"/><path class="cls-2" d="M297.88,478c0-3.2,1.91-5.46,5-6.79l0-.12c-2.81-1.32-4-3.51-4-5.69,0-4,3.39-6.75,7.84-6.75,4.91,0,7.37,3.08,7.37,6.24,0,2.15-1.06,4.45-4.18,5.93v.12c3.16,1.25,5.11,3.47,5.11,6.55,0,4.41-3.78,7.37-8.62,7.37C301.08,484.85,297.88,481.69,297.88,478Zm13.65-.16c0-3.08-2.14-4.56-5.58-5.54-3,.86-4.56,2.81-4.56,5.23-.12,2.57,1.83,4.83,5.07,4.83C309.54,482.35,311.53,480.44,311.53,477.83Zm-9.44-12.67c0,2.53,1.91,3.9,4.84,4.68,2.18-.75,3.86-2.31,3.86-4.61a3.94,3.94,0,0,0-4.29-4.13C303.65,461.1,302.09,463,302.09,465.16Z"/><path class="cls-2" d="M317.89,478c0-3.2,1.91-5.46,5-6.79l0-.12c-2.81-1.32-4-3.51-4-5.69,0-4,3.4-6.75,7.84-6.75,4.92,0,7.37,3.08,7.37,6.24,0,2.15-1.05,4.45-4.17,5.93v.12c3.16,1.25,5.11,3.47,5.11,6.55,0,4.41-3.78,7.37-8.62,7.37C321.09,484.85,317.89,481.69,317.89,478Zm13.65-.16c0-3.08-2.15-4.56-5.58-5.54-3,.86-4.56,2.81-4.56,5.23-.12,2.57,1.83,4.83,5.07,4.83C329.55,482.35,331.54,480.44,331.54,477.83Zm-9.44-12.67c0,2.53,1.91,3.9,4.84,4.68,2.18-.75,3.86-2.31,3.86-4.61a3.94,3.94,0,0,0-4.29-4.13C323.66,461.1,322.1,463,322.1,465.16Z"/><path class="cls-1" d="M15.92,534l-3.39,1.64q-.72-2.28-1.88-5.2l-.29-.66v19.31H6.89V533.36c-.48,1.25-1.19,2.85-2.13,4.78l-.7,1.56L1,537.32c.16-.27.34-.56.56-.88a35,35,0,0,0,3.59-8.17,33.13,33.13,0,0,0,1.19-4.76H2.17v-3.58H6.89v-7.58h3.47v7.58h4.55v3.58H10.36v3.72l1.89-.84A74.42,74.42,0,0,1,15.92,534Zm-3.39,11.85a13.34,13.34,0,0,0,4.88-4.8A11.38,11.38,0,0,0,18.66,537a32,32,0,0,0,.21-3.84v-6.78H31.54V542.8a2.21,2.21,0,0,0,.13,1,1,1,0,0,0,.93.44H33c.74,0,1.26-.9,1.58-2.69.08-.41.14-.8.19-1.16l3.66,1.81a21.8,21.8,0,0,1-1.09,3.28,4.27,4.27,0,0,1-4.19,2.63H31.54a4.22,4.22,0,0,1-3.05-.88,2,2,0,0,1-.52-.82,10.84,10.84,0,0,1-.2-2.66v-14H22.66v3.37a28.16,28.16,0,0,1-.55,6.2A14.63,14.63,0,0,1,18.62,546a33.2,33.2,0,0,1-3.17,3Zm2.9-26.34H36.51v3.53H15.43Zm12.87-1.69-3.71,1.5a4.23,4.23,0,0,1-.4-.91,20.56,20.56,0,0,0-2.5-4.53L25,512.35l.52.75a18.14,18.14,0,0,1,2.34,4A2.13,2.13,0,0,0,28.3,517.84Z"/><path class="cls-1" d="M41.69,534.18a59.15,59.15,0,0,0,1.23-6c.08-.62.22-1.81.42-3.56.08-.73.16-1.41.25-2l3.88.48a97.4,97.4,0,0,1-1.88,11.12l-.17.76Zm6.74-20.87h3.75v14q-.18,6.19-.42,8.74a20.37,20.37,0,0,1-4,10.44c-.34.46-1.05,1.3-2.13,2.53l-3.13-2.23a21.42,21.42,0,0,0,4.67-7,28.19,28.19,0,0,0,1.05-7.48c.12-2.45.19-4.21.19-5.27Zm4.62,9.76,3.58-.59a93,93,0,0,1,1.17,10.63l.07,1.14-3.73.46c-.06-.9-.11-1.71-.15-2.44q-.27-4.77-.57-6.83C53.24,524.28,53.12,523.49,53.05,523.07Zm9.75-9.44v34.94H59.09V513.63Zm.86,9,3.68-.67.19.76a94.38,94.38,0,0,1,2,11.31l-3.88.67-.08-.93A67.28,67.28,0,0,0,63.66,522.64Zm10.59-9.33V549H70.63V513.31Z"/><path class="cls-1" d="M91.75,533.32v15.5H88v-15.5a92.79,92.79,0,0,1-6.08,9L79,539.62l.76-.82a40.09,40.09,0,0,0,3.31-4,31.32,31.32,0,0,0,4.08-7.16H80.3v-3.56H88v-5.75c-1.77.21-3.25.4-4.46.59L83,519l-.74.11L80.3,515.5l1.22-.06c.73,0,2.91-.27,6.55-.71a38.82,38.82,0,0,0,6.9-1.6l.74-.24,1.77,3.63-.68.16-.38.05-1.87.38-2,.38-.8.18v6.41h6.51v3.56H91.75v3.7L94,530l4.3,6.53-3.35,2Zm18.55,7.62h-7v3.79H99.62V518.16h14.45v26.07H110.3Zm-7-3.32h7v-16h-7Z"/><path class="cls-1" d="M118,544.57q2.69-2.49,4.25-3.82l1.12-.94V528.25h-4.4v-3.63h8.12v15.86a20.09,20.09,0,0,0,2.34,2.23,8,8,0,0,0,4.13,1.33q2.76.19,8.42.19,3.88,0,11.25-.34l1.83-.06-1.33,4h-3.45l-2,0h-6c-4.86-.09-7.76-.15-8.7-.2a14.7,14.7,0,0,1-2.51-.31,9.53,9.53,0,0,1-3.14-1.2c-.14-.1-.75-.64-1.83-1.6a2.1,2.1,0,0,0-1.28-.65q-1.22,0-3.86,4.12Zm3-29.51,3.14-1.87a68.46,68.46,0,0,1,4,7.39l-3.71,1.75c-.12-.3-.35-.94-.71-1.9A26.91,26.91,0,0,0,121,515.06Zm7.46,23.12c.41-.22.72-.38.94-.48q5.12-2.62,7.23-5.85a12.27,12.27,0,0,0,2-5c.06-.5.12-1.05.18-1.64l.1-.75h-8.66v-3.59h8.85v-1.13c0-.1,0-1.74.12-4.91,0-.06,0-.86-.12-2.38H143q0,1.55-.16,6.28c0,.16,0,.87,0,2.14h10.41v3.59H142.77c0,.39-.07.74-.1,1a18.35,18.35,0,0,1-2,7.28,20.55,20.55,0,0,1-6.38,6.83c-.66.47-1.65,1.11-3,1.91Zm17.37-10.69q.83,1.26,3.37,5c.37.53,1.69,2.81,4,6.82l-3.84,1.92c-.14-.35-.35-.85-.61-1.48a54.25,54.25,0,0,0-6-10.25Z"/><path class="cls-1" d="M169.12,536.56v10.05h-3.66V536.56a41.71,41.71,0,0,1-5.23,3.75l-.73.46-2.22-3.3a45.76,45.76,0,0,0,6.45-4.11,27.24,27.24,0,0,0,4.25-4.19H158v-3.33h12.47a25.22,25.22,0,0,0,1.93-3.68L176,523.7l-.46.74c-.27.42-.55.89-.84,1.4h18.57v3.33H172.4a52.38,52.38,0,0,1-3.45,4.11h6.32V530h3.66v3.33h10.62V543a3,3,0,0,1-1.33,2.82,11.08,11.08,0,0,1-4.11,1.13l-1.14.15-1.05-4.32h2.4c.89,0,1.33-.39,1.33-1.15v-5h-6.72v12.55h-3.66V536.56Zm18.84-11-4.8-2.5q-1.11-.57-5.54-2.57l-.82-.36a47,47,0,0,1-6.84,3q-2.37.86-6.91,2.12l-1.3-3.47a57.5,57.5,0,0,0,10.84-3.33,52.11,52.11,0,0,0-8-3.28l1.5-3a98.13,98.13,0,0,1,10.25,4.32l1.12-.59a41.54,41.54,0,0,0,6.06-3.88L186,514.6l-1,.65q-3.24,2.09-4.72,3,3.42,1.51,9.25,4.38Z"/><path class="cls-1" d="M197.55,528.81c.21-.25.43-.49.69-.75a46.47,46.47,0,0,0,7.39-9.73q.38-.71,2.53-5.52l3.92,1.5c-.18.32-.36.68-.55,1.09-.34.66-1.1,2-2.27,4.09h21.56c-.18.4-.36.81-.53,1.24-.27.66-1.21,2.78-2.82,6.34q-.12.24-.42,1l-.3.75L222.8,528l2.4-5.05H207.28l-.57.78q-3.14,4.2-4.13,5.37c-.25.31-.63.73-1.12,1.28l-.65.72Zm.46,14a39.76,39.76,0,0,0,5.1-6.24,60.46,60.46,0,0,0,3.24-5.6l3.6,2.09-8.66,12.08Zm12.57,6.3-1.45-4.34h3a.9.9,0,0,0,1-1v-19H217v20.28a3.11,3.11,0,0,1-2.1,3A15.45,15.45,0,0,1,210.58,549.12Zm8.74-15.93,2.8-2.29,9.77,10.23-3.51,2.49-.66-.93A66,66,0,0,0,219.32,533.19Z"/><path class="cls-1" d="M235.91,517.4h6.7v-4.88h3.52v4.88h6.69v3.31h-6.69v11h2.57v-8.8h3.37v13.22H248.7V535h-2.57v7.48l1.24-1c.21-.18,1.09-.85,2.61-2l.85-.65,1.11,3.95c-.43.3-1.14.77-2.13,1.4q-.28.18-2,1.41-.62.46-1.83,1.32c-.61.43-1.32,1-2.13,1.69l-2.1-3.43c.17-.16.33-.33.5-.51a4.21,4.21,0,0,0,.34-2.21V535h-5.9V522.9h3.37v8.8h2.53v-11h-6.7Zm16.91,31.9-2-3a25.46,25.46,0,0,0,4.22-2,10.07,10.07,0,0,0,4.52-6.36,42,42,0,0,0,.61-8.29c0-.54,0-1.52-.08-3l3.47.16c0,.52-.07,2.18-.14,5q-.14,6.26-1.33,9.2Q260,546,252.82,549.3Zm10.64-31.73c-.13.79-.3,1.73-.53,2.82l-.23,1.14h7.12v18.65h-3.39V524.75h-9V540h-3.35V521.53h5.16q.43-2.13.63-4h-6.49v-3.24h17.56v3.24Zm-.84,25.25,2.29-2.66.76.64c1.29,1.12,2.29,2,3,2.52q2.25,1.86,3.27,2.87l-2.57,2.69-.62-.63c-1.41-1.42-3.29-3.1-5.62-5Z"/><path class="cls-1" d="M274,544.57c1.64-1.56,3.43-3.14,5.37-4.76V528.1H275v-3.6h8.11v16a11.66,11.66,0,0,0,3.78,3.07,15.08,15.08,0,0,0,4.58.66q2.79.1,6.33.1,4,0,12.11-.44l1.18-.06-1.35,3.92h-1.07l-2.15,0h-2.74l-4,0q-10.54,0-13.06-.66a10.17,10.17,0,0,1-2.9-1.2,18.32,18.32,0,0,1-2-1.68,2.12,2.12,0,0,0-1.06-.65c-.8,0-2.11,1.44-3.91,4.33Zm2.9-29.42,3.21-1.84a54.78,54.78,0,0,1,3.91,7.27l-3.58,1.75A31,31,0,0,0,276.89,515.15Zm19.61,19.29a25.07,25.07,0,0,1-2.78,3.87,27.12,27.12,0,0,1-5.73,4.46l-.71.45-2.23-2.66a25.85,25.85,0,0,0,5.68-3.93,16.73,16.73,0,0,0,3.2-4.76H286.5v-8.81L284,521a26.11,26.11,0,0,0,8.19-9l3.65,1.3c-.53.79-1,1.5-1.5,2.11h9.81l-4.4,6h7.81v10.41h-7.58V538a1.32,1.32,0,0,0,.25,1,2.07,2.07,0,0,0,1.21.23h3.13a2.78,2.78,0,0,0,1.84-.48,3,3,0,0,0,.78-1.6c.09-.37.21-.79.37-1.28L310.8,538l-.25.63a10.62,10.62,0,0,1-1.44,2.84c-.64.71-1.79,1.07-3.47,1.07h-5.26c-1.77,0-2.9-.33-3.37-1a3.74,3.74,0,0,1-.51-2.14Zm-7.6-13h6.57l2.19-3.07H292A41.3,41.3,0,0,1,288.9,521.46Zm1.11,7.42h4.66c0-.33.07-.57.08-.74a12.84,12.84,0,0,0,.11-1.37q0-.57.15-2.25h-5Zm8.19,0h5.67v-4.36H298.5c0,.37,0,.75-.06,1.14C298.4,526.77,298.32,527.84,298.2,528.88Zm5.35,3.32a23.22,23.22,0,0,1,2.95,4.2L303.81,538a17.66,17.66,0,0,0-2.85-4.3Z"/><path class="cls-1" d="M312.65,540a33.88,33.88,0,0,0,5-8.17,36.1,36.1,0,0,0,2.23-7.22h-5.43V521h5.85v-8.49h3.67V521h5.37v3.6h-5.37v4.61L326,528l1.48,2.34q1.42,2.25,2.61,4.57l-3.24,1.85a29.85,29.85,0,0,0-2.93-5.47v17.88h-3.67V534.88a53.1,53.1,0,0,1-4.48,7.68Zm13.77.51a37.13,37.13,0,0,0,3.79-4.46,36.67,36.67,0,0,0,3.84-7.54,31.14,31.14,0,0,0,1.2-3.9H331V521h6.15V512.6H341V521h7.87v3.6h-7.14a43.67,43.67,0,0,0,1.63,5,30.31,30.31,0,0,0,4.71,7.94,22.11,22.11,0,0,0,2.7,2.63l-3.08,3.25A33.11,33.11,0,0,1,341,533.28v15.86h-3.88V530.71c-.12.25-.23.51-.33.76a50.09,50.09,0,0,1-6.59,11.09l-.51.66Z"/><path class="cls-1" d="M352.35,525.36l2.12-3.22a6.44,6.44,0,0,0,.61.32,32,32,0,0,1,6.24,4.33l-2.24,3.41a43,43,0,0,0-4.35-3.39c-.38-.24-.92-.57-1.63-1Zm.75,21.25a51,51,0,0,0,5.65-13.84l3.68,2.17-.37,1a96.57,96.57,0,0,1-5.31,12.53Zm1.4-31.13,2.37-2.86.78.44a36.21,36.21,0,0,1,5.5,3.75l-2.61,3A42,42,0,0,0,354.5,515.48Zm8.78-1.15h25.16v3.39h-7.87v4.63h6.88v26.43h-3.77v-2H367.91v2h-3.73V522.35h7.16v-4.63h-8.06Zm4.63,22.86h15.77v-2.65h-2.74a4.67,4.67,0,0,1-2.84-.61,3.69,3.69,0,0,1-.84-2.84v-5.58h-2.68a21.36,21.36,0,0,1-1.47,6.19,20.1,20.1,0,0,1-2.78,4.15l-2.42-1.48Zm0-4.17a11.08,11.08,0,0,0,2.25-2.9,16.39,16.39,0,0,0,1.18-4.61h-3.43Zm0,10.53h15.77v-3.07H367.91Zm6.82-21.2h2.53v-4.63h-2.53Zm8.95,9v-5.83h-3.11v4.78c0,.5.05.79.16.88a1.46,1.46,0,0,0,.89.17Z"/><path class="cls-1" d="M412,517.44H426.6v3.41H399.31v10.39a34.14,34.14,0,0,1-1.83,11.66,26.18,26.18,0,0,1-3,5.75l-3.32-2.23,1.2-1.9q3.28-5.13,3.28-13.28v-13.8h14a8.3,8.3,0,0,0-.78-2.06q-.5-.87-1.14-1.83l3.2-1.43a17.61,17.61,0,0,1,2.49,4.73Zm-7.48,29v2.82H401V533.41h8.72V521.59h3.75v3.94h11.75v3.3H413.44v4.58h10.25v15.83H420v-2.82Zm0-3.26H420V536.8H404.55Z"/><path class="cls-1" d="M450.12,524.08l.86.8v3.51l-.9.8h-3.46l-.88-.86V524.9l.84-.82Zm0,15.16.8.78v3.74l-.78.79h-3.56l-.88-.85v-3.62l.8-.84Z"/><path class="cls-2" d="M9.48,609.05H7.05v-18.4c-.27.69-.52,1.36-.75,2-.48,1.34-.92,2.41-1.31,3.24-.75,1.55-1.25,2.6-1.5,3.14l-2.38-1.86a32.76,32.76,0,0,0,2.51-4.78,45,45,0,0,0,2.59-8.19c0-.15.08-.43.15-.84,0-.19.08-.48.15-.86H2.19v-2.43H7.05v-7.76H9.48v7.76h4.86v2.43H9.48Zm5.74-15.22-2.57,1.26q-.66-2.05-1.77-4.7c-.06-.12-.27-.63-.65-1.55l-.46-1,2.11-1.15A68.35,68.35,0,0,1,15.22,593.83Zm-1.53,12.52a12.93,12.93,0,0,0,4.74-5.62,20.26,20.26,0,0,0,1.15-7.66v-6.38H31.1V602.9a2.51,2.51,0,0,0,.21,1.29,1.51,1.51,0,0,0,1.37.65h.44q1.49,0,2.07-1.83a15.48,15.48,0,0,0,.38-1.66l2.55,1.19a13.84,13.84,0,0,1-1.31,3.56,3.81,3.81,0,0,1-3.52,1.79H31.63a3.1,3.1,0,0,1-2.44-.76,2.29,2.29,0,0,1-.36-.67,12.4,12.4,0,0,1-.17-2.59V589.13H22V593a25.43,25.43,0,0,1-1.14,8.47,19.52,19.52,0,0,1-5.2,7.14Zm2.1-26.68H36.47v2.43H15.79Zm11.88-2.18L25,578.58a21.63,21.63,0,0,0-2.57-5l2.49-1.12A31,31,0,0,1,27.67,577.49Z"/><path class="cls-2" d="M41.82,593.85A51.93,51.93,0,0,0,43,588.1c.24-2,.49-3.78.74-5.22l2.59.29a70.86,70.86,0,0,1-1.86,11.25Zm7.06-20.49h2.44v13.79a93.07,93.07,0,0,1-.74,11.56,23.1,23.1,0,0,1-5.07,10.19l-2.24-1.77a19.37,19.37,0,0,0,4.83-8.69,49.54,49.54,0,0,0,.65-7c.09-1.77.13-3.29.13-4.55Zm4.58,9.89,2.53-.5a98.59,98.59,0,0,1,1.14,11.08l-2.7.23c-.07-.86-.18-2.73-.35-5.6C54.06,587.92,53.85,586.18,53.46,583.25Zm8.74-9.64V608.5H59.76V573.61Zm2.43,9.06,2.59-.51q1.35,6.2,2,11.52l-2.78.46A97.57,97.57,0,0,0,64.63,582.67Zm9.54-9.38v35.65H71.74V573.29Z"/><path class="cls-2" d="M82.3,585.05l10.48,0v2.43H88.09v5.22h5.49v2.44H88.09v8.3c1.11-.86,2.59-2.16,4.44-3.88l1,2.72a63.18,63.18,0,0,0-6.93,6.11l-1.83-2.57a3.19,3.19,0,0,0,.84-2.21v-8.47H80.08v-2.42h5.58v-5.24H82.13l0-2.19c-.19.27-.69.94-1.5,2l-2-1.6a31.11,31.11,0,0,0,7-13.27l2.64.8a36.41,36.41,0,0,1-1.41,3.56c-.2.43-.38.83-.53,1.18h7.39v2.44H85.2a31.51,31.51,0,0,1-2.55,4.19C82.48,584.79,82.37,585,82.3,585.05Zm20.46,4.35,11.71-3.13.47,2.35-11.88,3.06c0,.19.1.38.14.55a24.62,24.62,0,0,0,2.36,6.61,19,19,0,0,0,3.58-3.37,40.37,40.37,0,0,0,2.57-3.29L114,593.7l-2.07,2.49a49.43,49.43,0,0,1-4.92,4.86,8.76,8.76,0,0,0,2.16,2.82,4.58,4.58,0,0,0,2.62,1.37c.83,0,1.42-1.33,1.77-4l2.52,1q-1,6.44-3.39,6.44-2,0-4.88-2.46a17.54,17.54,0,0,1-2.93-3.54,46.68,46.68,0,0,1-9.65,4.61l-1.3-2.46a43.57,43.57,0,0,0,4.69-1.58,30.64,30.64,0,0,0,4.79-2.78,33.17,33.17,0,0,1-1.58-3.68c-.12-.38-.44-1.63-.95-3.75l0-.19c0-.2-.08-.39-.13-.57l-4.84,1.22-.61-2.29,5-1.18c-.09-.52-.17-1.24-.25-2.15-.06-.7-.14-1.77-.23-3.22l-4.22.84-.69-2.13,4.82-1v-10h2.44v9.33l10.53-2.51.84,2.3-11.33,2.59Q102.26,585.88,102.76,589.4Zm2.66-15.1,2-1.55a49.47,49.47,0,0,1,3.71,4.23l-2.27,1.45A28.48,28.48,0,0,0,105.42,574.3Z"/><path class="cls-2" d="M125.82,582.37h4.83v2.44h-4.83v13.42l4.3-1.27.13,2.66a98,98,0,0,0-10.87,3.68l-1-2.69,2.78-.8,2.23-.64V584.81h-4.51v-2.44h4.51v-9.52h2.44Zm9.54,6.63v1.44a58.45,58.45,0,0,1-.55,6.59,23.56,23.56,0,0,1-1.34,5.83,36.55,36.55,0,0,1-3,5.75L128,607.13a23.63,23.63,0,0,0,3.08-5.11,25.12,25.12,0,0,0,1.62-8.93q.21-5.8.21-8.44v-8.91l10.32,0L142.08,573l2.76-.88,1.32,3.58h8.22v2.44H146v2.7h7.11v5.68H155V589h-1.88v5.8H146v2.94h7.14v11.12h-2.43v-1.32H139.47v1.32H137V597.74h6.52V594.8h-6.06v-2.43h6.06V589Zm8.19-10.82h-8.19v8.38h8.19v-3.24h-5.93v-2.44h5.93Zm-4.08,26.93h11.22v-4.93H139.47ZM146,586.56h4.71v-3.24H146Zm0,5.81h4.71V589H146Z"/><path class="cls-2" d="M158,603.56a24.14,24.14,0,0,0,3.56-5.54l2.19,1.32a42,42,0,0,1-3.67,5.77Zm11.18-16a5,5,0,0,1,.25-.54q.65-1.51,1.77-5.06l2.51.8a33.27,33.27,0,0,1-1.47,3.85c-.15.35-.29.67-.42,1h4.5v2.07h-7.68v4.25h6.57V596h-6.57v9.44a2.56,2.56,0,0,1-1.14,2.34,5.77,5.77,0,0,1-2.3.71l-.73.09-.83.12-1-2.67,2,0a1.76,1.76,0,0,0,1.29-.38,1.63,1.63,0,0,0,.29-1.11V596h-6.69v-2.08h6.69v-4.25h-7.89v-2.07H169.2Zm6.76-7.16H159.29v-2.08H176Zm-12.72,6.34c-.09-.31-.17-.58-.25-.82a18.16,18.16,0,0,0-1.29-3.22l2.34-1a19.85,19.85,0,0,1,1.71,4.07Zm4-8.93a15.66,15.66,0,0,0-1.65-4.12l2.59-1a21,21,0,0,1,1.77,4.12Zm5.51,20a22,22,0,0,1,2.55,4.36l-2.29,1.32a20.42,20.42,0,0,0-2.38-4.48Zm6.4-21.55a44.17,44.17,0,0,0,12.92-2l.94,2.49a60.05,60.05,0,0,1-10,1.79l-1.43.16v7.58h11.83v2.07h-4.11V609h-2.44V588.31h-5.28c0,.57,0,1,0,1.3,0,1.48-.09,3.31-.28,5.48a30.16,30.16,0,0,1-.8,5.22,22.33,22.33,0,0,1-2.31,5.63,28.64,28.64,0,0,1-2,2.82L174,607.07a17.16,17.16,0,0,0,4.05-7.3,31,31,0,0,0,.93-6.07q.18-2.76.18-6.4Z"/><path class="cls-2" d="M199.93,607.05V574.68h30.19v2.43H202.37v27.5H231.3v2.44Zm17.45-18.11a97.2,97.2,0,0,0,6.41-8.67l2.37,1.58a96.48,96.48,0,0,1-6.86,8.8l2.25,2.21q2.69,2.63,6.4,6.59l-2.25,2.13q-2.47-2.9-7-7.69l-1.16-1.22c-2.83,2.68-4.74,4.43-5.71,5.26q-1.84,1.55-4.91,3.84l-1.7-2A76.5,76.5,0,0,0,215.55,591q-2.4-2.65-3.3-3.45l-2.64-2.38c-1.45-1.33-2.36-2.16-2.74-2.48l1.71-1.69q1.18,1.08,3.33,2.91Q214.59,586.18,217.38,588.94Z"/><path class="cls-2" d="M243.94,585.72q-.48.3-.72.48l-.84.55a45.41,45.41,0,0,1-4.49,2.55l-1.62-2.47a32.71,32.71,0,0,0,10.3-6.67,29,29,0,0,0,5.75-8.19l2.84.69a3.21,3.21,0,0,1-.17.36l-.06.13a2.2,2.2,0,0,1-.15.31l.42.76a21.82,21.82,0,0,0,3,4.09q4.35,4.94,13.74,7.2l-1.37,2.8a61.37,61.37,0,0,1-7.06-2.53l0,2.32h-8.9v5.35h12.67v2.44H254.64v9.2h4c1-1.77,2.21-4.33,3.66-7.7l2.65,1.07q-1.56,3.51-3.26,6.63h9.12v2.43H237.22v-2.43h15v-9.2H240.76v-2.44h11.45V588.1h-8.27Zm-1.33,13.12,2.3-1.33a28.56,28.56,0,0,1,3.14,4.89l-2.62,1.34A30.3,30.3,0,0,0,242.61,598.84Zm1.83-13.18h18.91l-1.66-1a27.67,27.67,0,0,1-4.48-3.64,24.81,24.81,0,0,1-3.16-4c-.19-.31-.42-.67-.7-1.09a40.67,40.67,0,0,1-7.68,8.69C245.22,585,244.8,585.36,244.44,585.66Z"/><path class="cls-2" d="M274.71,606.67a41.32,41.32,0,0,0,3.11-6.15A66.92,66.92,0,0,0,280,594l2.66,1.44c-.21.59-.78,2.14-1.69,4.65a82.68,82.68,0,0,1-3.71,8.3Zm.1-21.33,1.6-2.09a37.39,37.39,0,0,1,6.36,4.36L281.11,590q-2.07-1.83-3.56-2.92C277.4,587,276.49,586.37,274.81,585.34Zm2.36-9.43,1.68-2c1.13.68,2.28,1.39,3.44,2.11a26.32,26.32,0,0,1,2.8,2.13l-1.79,2.08a34.08,34.08,0,0,0-3.29-2.55C279.44,577.25,278.49,576.68,277.17,575.91ZM283.72,606q9.64-1.93,13.81-4.86a15.9,15.9,0,0,0,4.53-5.18q.85-1.44,2.29-4.62l2.78,1.35a32.41,32.41,0,0,1-4.44,7.41,23.44,23.44,0,0,1-9.08,6.34,69.4,69.4,0,0,1-8.44,2.68Zm1.37-15.5a54.61,54.61,0,0,0,2.29-5.12c.54-1.44,1.37-3.85,2.47-7.24l2.77.84q-.6,1.65-2,5.48c-1.09,3-1.75,4.81-2,5.33l-.81,1.89Zm10.78,6.38V572.28h2.44v24.64Zm5.45-17.37,2-1.79q3.33,3.39,7.35,8.38l.55.69-2.3,1.82Q304,582.37,301.32,579.55Z"/><path class="cls-2" d="M331.71,590.23c-.11.45-.26,1-.44,1.72a20.88,20.88,0,0,1-5,9.23,28,28,0,0,1-5.63,4.63q-1.82,1.13-5.11,2.76l-1.71-2.82a26.11,26.11,0,0,0,6.26-2.85,18.1,18.1,0,0,0,5.56-5.37,20.79,20.79,0,0,0,3-7.43,52.79,52.79,0,0,0,.77-5.37h-14v-2.44h14.24c.12-1.75.17-3.41.17-5,0-.36,0-1.52,0-3.46V572.3l2.92-.08v2.47l0,5.24c0,.34,0,1.13,0,2.36h15.36v2.44H333a44.71,44.71,0,0,0,2.59,7.56,26.9,26.9,0,0,0,3.77,6.38,24.9,24.9,0,0,0,6.23,5.18,36,36,0,0,0,3.73,1.89l-2,2.78a55.1,55.1,0,0,1-6.57-4.48,27.08,27.08,0,0,1-6.38-7.65,38.3,38.3,0,0,1-2.05-4.56C332.1,591.22,331.89,590.69,331.71,590.23Z"/><path class="cls-2" d="M352.45,604.94l1.73-1.68a16,16,0,0,1,3.3-2.61V589.17h-4.82v-2.44h7.23v14.36c.21.23.45.53.73.89a8,8,0,0,0,4.72,2.88,28.75,28.75,0,0,0,5.88.44c4.07,0,6.8,0,8.21-.06s3.67-.15,6.59-.34l2.7-.19-1,3.2-5.93,0-4.55,0c-6.05-.1-9.35-.16-9.88-.19a12.21,12.21,0,0,1-6-1.6,14.05,14.05,0,0,1-2.27-2.07,1.13,1.13,0,0,0-.81-.44q-1.08,0-3.58,3.92Zm1.43-29.44,2.53-1.4a39.33,39.33,0,0,1,3.58,6.61l-2.93,1.35A24.94,24.94,0,0,0,353.88,575.5Zm23.51,2.57c.16-.33.33-.72.54-1.15q.51-1.08,1.85-4.17l3,.88a19.45,19.45,0,0,1-1.54,2.86c-.06.08-.38.61-.95,1.56h7v2.43H376.12l-1.22,3.24h9.65v18.64H365.28V583.72H372l.93-3.24h-10v-2.41Zm-7.31-.4c-.06-.12-.14-.28-.25-.48a12.81,12.81,0,0,0-2.53-3.35l2.36-1.54a24,24,0,0,1,3,3.88Zm-2.34,11.4h14.34v-2.91H367.74Zm0,5.43h14.34v-3H367.74Zm0,5.43h14.34v-3H367.74Z"/><path class="cls-2" d="M408.32,577.08l-.15,2.53c-.67-.05-1.23-.08-1.66-.08q-9.11,0-10.43,11a7.91,7.91,0,0,1,6.51-3.12,8.09,8.09,0,0,1,4.53,1.33q3.39,2.24,3.39,7.12a8.48,8.48,0,0,1-8.89,9c-3.27,0-5.63-1.16-7.11-3.48a14.13,14.13,0,0,1-1.82-7.68,21.44,21.44,0,0,1,2.22-10q3.46-6.57,11.64-6.57Zm-6.63,12.79a5.36,5.36,0,0,0-4.11,1.72,7.36,7.36,0,0,0,0,9.06,6,6,0,0,0,8.27,0,6.48,6.48,0,0,0,1.54-4.53,6.55,6.55,0,0,0-1.45-4.52A5.39,5.39,0,0,0,401.69,589.87Z"/><path class="cls-2" d="M423.88,577q9.14,0,9.14,13.88t-9.29,13.88q-9.28,0-9.28-13.9c0-4.14.59-7.31,1.75-9.52Q418.51,577,423.88,577Zm-.23,2.57q-3.48,0-5,3.6a21,21,0,0,0-1.07,7.71q0,5.67,1.32,8.27a5.07,5.07,0,0,0,4.82,3,5.17,5.17,0,0,0,5-3.6,21.15,21.15,0,0,0,1.07-7.75q0-5.65-1.32-8.22A5.11,5.11,0,0,0,423.65,579.61Z"/><path class="cls-2" d="M446.35,577q9.13,0,9.14,13.88T446.2,604.8q-9.29,0-9.28-13.9c0-4.14.59-7.31,1.75-9.52Q441,577,446.35,577Zm-.23,2.57q-3.48,0-5,3.6a21,21,0,0,0-1.07,7.71q0,5.67,1.32,8.27a5.07,5.07,0,0,0,4.82,3,5.17,5.17,0,0,0,5-3.6,21.15,21.15,0,0,0,1.07-7.75q0-5.65-1.32-8.22A5.11,5.11,0,0,0,446.12,579.61Z"/><path class="cls-2" d="M459.17,588.73h35.22v2.44H471.07l-1.24,4.89H489l-1,7.14a8.65,8.65,0,0,1-.76,2.92q-1,1.78-4,2.38a40.11,40.11,0,0,1-5.32.62l-1.31-3.21h3.81a7.49,7.49,0,0,0,3.27-.57,3.05,3.05,0,0,0,1.62-2.48l.63-4.36H466.48l1.86-7.33h-9.17Zm6.18-3.62V574.2h23v10.91Zm2.44-2.44h18.09v-6H467.79Z"/><path class="cls-2" d="M4.82,638.37H17.67v-6.06h2.44v6.06H32.74V659H30.3V656.9H20.11v6q0,1.62.51,2a4.88,4.88,0,0,0,2.61.43h7.35c1.53,0,2.56-.35,3.09-1.06A13.48,13.48,0,0,0,35,660.77L37.61,662a12,12,0,0,1-2.07,4.5c-.8.87-2.25,1.31-4.33,1.31H23.14c-2.13,0-3.58-.27-4.32-.8a3.22,3.22,0,0,1-1.15-2.8V656.9H7.26v2.89H4.82Zm2.44,8.07H17.67v-5.63H7.26Zm0,8H17.67v-5.58H7.26Zm12.85-8H30.3v-5.63H20.11Zm0,8H30.3v-5.58H20.11Z"/><path class="cls-2" d="M40.45,645h7.86v16.54l1.32-1.46c.7-.78,1.55-1.84,2.57-3.18l1.71,2.51q-1.65,1.62-5.1,5.56l-2.08,2.38-2.21-2.76a5.58,5.58,0,0,0,1.36-3.6V647.47H40.45Zm4-10.4,2.59-1.47c.94,1.4,1.58,2.39,1.92,3a35.53,35.53,0,0,1,1.68,3.45L47.76,641A30.47,30.47,0,0,0,44.47,634.64Zm13.71,33.93H55.74V652.94h7.31v-6.19H52.56v-2.44H63.05v-6.57l-1.24.23q-.64.13-5.86,1l-1.09-2.5A84.06,84.06,0,0,0,72.33,633l1.16,2.34c-1.67.46-3.82,1-6.46,1.55l-.82.21-.72.15v7.08h11v2.44h-11v6.19h8.09v15.63H71.15v-2.85h-13Zm0-5.29h13v-7.9h-13Z"/><path class="cls-2" d="M95.39,639.89H99.6v4H95.39Zm0,16.3H99.6v4H95.39Z"/><path class="cls-2" d="M135.64,651.47c0,8.62-3.2,13.38-8.81,13.38-5,0-8.31-4.64-8.39-13s3.67-13.18,8.82-13.18C132.6,638.64,135.64,643.4,135.64,651.47Zm-13.76.39c0,6.59,2,10.34,5.14,10.34,3.51,0,5.19-4.1,5.19-10.57,0-6.24-1.6-10.34-5.15-10.34C124.06,641.29,121.88,645,121.88,651.86Z"/><path class="cls-2" d="M153.93,642h-9.67l-1,6.51a13.13,13.13,0,0,1,2.06-.16,10.68,10.68,0,0,1,5.46,1.37,7.22,7.22,0,0,1,3.63,6.51c0,5-3.94,8.66-9.44,8.66a12.42,12.42,0,0,1-6.32-1.56l.86-2.61a11.39,11.39,0,0,0,5.42,1.4c3.24,0,6-2.1,6-5.5s-2.22-5.61-7.29-5.61a25.62,25.62,0,0,0-3.51.27l1.63-12.17h12.13Z"/><path class="cls-2" d="M175.27,639.07v2.26l-11,23.09h-3.55l11-22.42v-.08h-12.4v-2.85Z"/><path class="cls-2" d="M186.26,642.27h-.07l-4.41,2.38-.66-2.62,5.53-3h2.93v25.35h-3.32Z"/><path class="cls-2" d="M207.87,652.6v2.54h-9.63V652.6Z"/><path class="cls-2" d="M210.48,658c0-3.2,1.91-5.46,5-6.79l0-.12c-2.8-1.32-4-3.51-4-5.69,0-4,3.39-6.75,7.84-6.75,4.91,0,7.37,3.08,7.37,6.24,0,2.15-1.06,4.45-4.18,5.93v.12c3.16,1.25,5.11,3.47,5.11,6.55,0,4.41-3.78,7.37-8.62,7.37C213.68,664.85,210.48,661.69,210.48,658Zm13.65-.16c0-3.08-2.14-4.56-5.57-5.54-3,.86-4.57,2.81-4.57,5.23-.11,2.57,1.84,4.83,5.07,4.83C222.14,662.35,224.13,660.44,224.13,657.83Zm-9.44-12.68c0,2.54,1.92,3.91,4.84,4.68,2.18-.74,3.86-2.3,3.86-4.6a3.94,3.94,0,0,0-4.29-4.13C216.25,641.1,214.69,643,214.69,645.15Z"/><path class="cls-2" d="M232.79,662a14.65,14.65,0,0,0,2.77-.11,9.62,9.62,0,0,0,5.3-2.46,11.11,11.11,0,0,0,3.36-6.75h-.12a7.42,7.42,0,0,1-6,2.73c-4.56,0-7.49-3.43-7.49-7.76a8.7,8.7,0,0,1,8.66-9c5.19,0,8.39,4.21,8.39,10.69,0,5.57-1.87,9.48-4.37,11.89a12.73,12.73,0,0,1-7.37,3.4,16.25,16.25,0,0,1-3.16.19ZM234,647.42c0,3.16,1.91,5.38,4.87,5.38a5.69,5.69,0,0,0,5-2.65,2.35,2.35,0,0,0,.31-1.25c0-4.33-1.6-7.65-5.19-7.65C236.11,641.25,234,643.83,234,647.42Z"/><path class="cls-2" d="M250.5,658c0-3.2,1.91-5.46,5-6.79l0-.12c-2.81-1.32-4-3.51-4-5.69,0-4,3.39-6.75,7.84-6.75,4.91,0,7.37,3.08,7.37,6.24,0,2.15-1.05,4.45-4.17,5.93v.12c3.16,1.25,5.11,3.47,5.11,6.55,0,4.41-3.79,7.37-8.62,7.37C253.69,664.85,250.5,661.69,250.5,658Zm13.65-.16c0-3.08-2.15-4.56-5.58-5.54-3,.86-4.56,2.81-4.56,5.23-.12,2.57,1.83,4.83,5.07,4.83C262.16,662.35,264.15,660.44,264.15,657.83Zm-9.44-12.68c0,2.54,1.91,3.91,4.83,4.68,2.19-.74,3.87-2.3,3.87-4.6a3.94,3.94,0,0,0-4.29-4.13C256.27,641.1,254.71,643,254.71,645.15Z"/><path class="cls-2" d="M272.8,662a14.65,14.65,0,0,0,2.77-.11,9.68,9.68,0,0,0,5.31-2.46,11.16,11.16,0,0,0,3.35-6.75h-.12a7.41,7.41,0,0,1-6,2.73c-4.57,0-7.49-3.43-7.49-7.76,0-4.8,3.47-9,8.66-9s8.38,4.21,8.38,10.69c0,5.57-1.87,9.48-4.37,11.89a12.73,12.73,0,0,1-7.37,3.4,16.25,16.25,0,0,1-3.16.19Zm1.25-14.58c0,3.16,1.91,5.38,4.88,5.38a5.68,5.68,0,0,0,5-2.65,2.35,2.35,0,0,0,.31-1.25c0-4.33-1.6-7.65-5.19-7.65C276.12,641.25,274.05,643.83,274.05,647.42Z"/><path class="cls-2" d="M290.51,658c0-3.2,1.91-5.46,5-6.79l0-.12c-2.81-1.32-4-3.51-4-5.69,0-4,3.4-6.75,7.84-6.75,4.92,0,7.38,3.08,7.38,6.24,0,2.15-1.06,4.45-4.18,5.93v.12c3.16,1.25,5.11,3.47,5.11,6.55,0,4.41-3.78,7.37-8.62,7.37C293.71,664.85,290.51,661.69,290.51,658Zm13.65-.16c0-3.08-2.15-4.56-5.58-5.54-3,.86-4.56,2.81-4.56,5.23-.12,2.57,1.83,4.83,5.07,4.83C302.17,662.35,304.16,660.44,304.16,657.83Zm-9.44-12.68c0,2.54,1.91,3.91,4.84,4.68,2.18-.74,3.86-2.3,3.86-4.6a3.94,3.94,0,0,0-4.29-4.13C296.28,641.1,294.72,643,294.72,645.15Z"/><path class="cls-2" d="M310.52,658c0-3.2,1.91-5.46,5-6.79l0-.12c-2.81-1.32-4-3.51-4-5.69,0-4,3.39-6.75,7.84-6.75,4.92,0,7.37,3.08,7.37,6.24,0,2.15-1.05,4.45-4.17,5.93v.12c3.16,1.25,5.11,3.47,5.11,6.55,0,4.41-3.79,7.37-8.62,7.37C313.71,664.85,310.52,661.69,310.52,658Zm13.65-.16c0-3.08-2.15-4.56-5.58-5.54-3,.86-4.56,2.81-4.56,5.23-.12,2.57,1.83,4.83,5.07,4.83C322.18,662.35,324.17,660.44,324.17,657.83Zm-9.44-12.68c0,2.54,1.91,3.91,4.83,4.68,2.19-.74,3.87-2.3,3.87-4.6a3.94,3.94,0,0,0-4.29-4.13C316.29,641.1,314.73,643,314.73,645.15Z"/><path class="cls-2" d="M330.52,658c0-3.2,1.91-5.46,5-6.79l0-.12c-2.81-1.32-4-3.51-4-5.69,0-4,3.39-6.75,7.84-6.75,4.91,0,7.37,3.08,7.37,6.24,0,2.15-1,4.45-4.17,5.93v.12c3.15,1.25,5.1,3.47,5.1,6.55,0,4.41-3.78,7.37-8.61,7.37C333.72,664.85,330.52,661.69,330.52,658Zm13.65-.16c0-3.08-2.14-4.56-5.57-5.54-3,.86-4.57,2.81-4.57,5.23-.11,2.57,1.84,4.83,5.07,4.83C342.18,662.35,344.17,660.44,344.17,657.83Zm-9.43-12.68c0,2.54,1.91,3.91,4.83,4.68,2.19-.74,3.86-2.3,3.86-4.6a3.94,3.94,0,0,0-4.29-4.13C336.29,641.1,334.74,643,334.74,645.15Z"/><path class="cls-2" d="M350.53,658c0-3.2,1.91-5.46,5-6.79l0-.12c-2.81-1.32-4-3.51-4-5.69,0-4,3.4-6.75,7.84-6.75,4.92,0,7.38,3.08,7.38,6.24,0,2.15-1.06,4.45-4.18,5.93v.12c3.16,1.25,5.11,3.47,5.11,6.55,0,4.41-3.78,7.37-8.62,7.37C353.73,664.85,350.53,661.69,350.53,658Zm13.65-.16c0-3.08-2.14-4.56-5.58-5.54-3,.86-4.56,2.81-4.56,5.23-.12,2.57,1.83,4.83,5.07,4.83C362.19,662.35,364.18,660.44,364.18,657.83Zm-9.44-12.68c0,2.54,1.91,3.91,4.84,4.68,2.18-.74,3.86-2.3,3.86-4.6a3.94,3.94,0,0,0-4.29-4.13C356.3,641.1,354.74,643,354.74,645.15Z"/></g></g></svg>