<svg xmlns="http://www.w3.org/2000/svg" viewBox="0 0 834.58 491.93"><defs><style>.cls-1{fill:#5d1e80;}.cls-2{fill:#434343;}</style></defs><title>资源 41</title><g id="图层_2" data-name="图层 2"><g id="图层_1-2" data-name="图层 1"><path class="cls-1" d="M7.85,29.16V6H0V2.17H20.53V6h-8V29.16Z"/><path class="cls-1" d="M24.15,29.16V16.76q0-3.75-.18-7.49h4.29L28.41,13Q30.18,8.95,33.67,9a7.3,7.3,0,0,1,1.73.23l-.27,4A7.18,7.18,0,0,0,33.57,13,4.41,4.41,0,0,0,30,15a7.86,7.86,0,0,0-1.27,2.63V29.16Z"/><path class="cls-1" d="M49.83,26.89a9.67,9.67,0,0,1-2,1.66,8.12,8.12,0,0,1-4.17,1A6.48,6.48,0,0,1,39,28a5.79,5.79,0,0,1-1.67-4.38,5.89,5.89,0,0,1,3-5.49c1.27-.74,3.27-1.1,6-1.1.8,0,1.89,0,3.28.11v-.36q0-4.53-4.4-4.53a11,11,0,0,0-5.37,1.65L38.6,10.59a15.48,15.48,0,0,1,7.18-1.75q4.81,0,6.89,2.59A7.2,7.2,0,0,1,54,15.06a29.19,29.19,0,0,1,.12,3.09v5.94c0,2.11.06,3.8.19,5.07H50ZM49.59,20c-.76-.07-1.45-.1-2.06-.1Q42,19.86,42,23.48a2.88,2.88,0,0,0,3.06,3c1.76,0,3.26-.93,4.52-2.78Z"/><path class="cls-1" d="M60.63,29.16V16.24c0-2,0-3.87-.11-5.69l-.06-1.28h4.29l.15,2.94A13.3,13.3,0,0,1,67,10.36a8.47,8.47,0,0,1,5-1.52q3.93,0,5.41,2.8c.59,1.07.88,2.93.88,5.56v12H73.68V17.42a10.56,10.56,0,0,0-.38-3.37,2.76,2.76,0,0,0-2.86-1.71c-1.85,0-3.61,1.12-5.26,3.37V29.16Z"/><path class="cls-1" d="M83.05,28l1.21-3.48a10.75,10.75,0,0,0,5.24,1.63,3.78,3.78,0,0,0,2.46-.7,2.26,2.26,0,0,0,.84-1.85A1.94,1.94,0,0,0,92,22a17,17,0,0,0-3.2-1.36,12.89,12.89,0,0,1-4.15-2.09,4.68,4.68,0,0,1-1.51-3.68,5.37,5.37,0,0,1,2.15-4.51,8.36,8.36,0,0,1,5.2-1.48A16.2,16.2,0,0,1,97,10.26l-1.18,3.51a9.88,9.88,0,0,0-5.11-1.54,3.64,3.64,0,0,0-2.17.59,2,2,0,0,0,.23,3.39,33.09,33.09,0,0,0,3.12,1.27,11.35,11.35,0,0,1,4.25,2.4,4.6,4.6,0,0,1,1.2,3.31,5.78,5.78,0,0,1-2,4.57,8.33,8.33,0,0,1-5.71,1.83A14.25,14.25,0,0,1,83.05,28Z"/><path class="cls-1" d="M102.2,37.53V17.25c0-3.21,0-5.87-.17-8h4.36l.16,2.75a7.55,7.55,0,0,1,6-3.18,6.86,6.86,0,0,1,6,3,12.32,12.32,0,0,1,2,7.3,12.07,12.07,0,0,1-2.36,7.8,7.3,7.3,0,0,1-11.47-.36V37.53Zm4.55-14.87q2.11,3.43,4.73,3.43A3.61,3.61,0,0,0,114.79,24a10.15,10.15,0,0,0,1.07-4.86,9.38,9.38,0,0,0-1.16-4.88,3.7,3.7,0,0,0-3.34-1.9q-2.56,0-4.61,3.28Z"/><path class="cls-1" d="M133.91,8.84a9,9,0,0,1,7.27,3.1,10.91,10.91,0,0,1,2.35,7.27A10.64,10.64,0,0,1,140.77,27a9.32,9.32,0,0,1-7,2.64,9.11,9.11,0,0,1-7.39-3.1,11,11,0,0,1-2.34-7.29,10.56,10.56,0,0,1,2.76-7.72A9.41,9.41,0,0,1,133.91,8.84Zm-.19,3.46a4.32,4.32,0,0,0-4.06,2.61,9.41,9.41,0,0,0-.89,4.3,9.14,9.14,0,0,0,1.06,4.65,4.57,4.57,0,0,0,8.08-.34,9.3,9.3,0,0,0,.89-4.31,9,9,0,0,0-1.06-4.64A4.39,4.39,0,0,0,133.72,12.3Z"/><path class="cls-1" d="M148.54,29.16V16.76q0-3.75-.18-7.49h4.29L152.8,13q1.77-4.06,5.26-4.06a7.3,7.3,0,0,1,1.73.23l-.27,4A7.18,7.18,0,0,0,158,13,4.41,4.41,0,0,0,154.34,15a7.86,7.86,0,0,0-1.27,2.63V29.16Z"/><path class="cls-1" d="M164.46,12.74h-3.2V9.27h3.2V5L169,4.08V9.27h4.53v3.47H169V22a6.78,6.78,0,0,0,.4,2.8,2.3,2.3,0,0,0,2.26,1.16,6.61,6.61,0,0,0,2.16-.5l.39,3.49a13.39,13.39,0,0,1-4.05.66q-3.37,0-4.74-2.05-1-1.47-1-5.32Z"/><path class="cls-1" d="M188.77,26.89a10,10,0,0,1-2,1.66,8.12,8.12,0,0,1-4.17,1A6.45,6.45,0,0,1,177.9,28a5.8,5.8,0,0,1-1.68-4.38,5.9,5.9,0,0,1,3-5.49c1.27-.74,3.27-1.1,6-1.1.8,0,1.89,0,3.28.11v-.36q0-4.53-4.4-4.53a11,11,0,0,0-5.37,1.65l-1.22-3.27a15.45,15.45,0,0,1,7.18-1.75q4.82,0,6.89,2.59A7.2,7.2,0,0,1,193,15.06a29.19,29.19,0,0,1,.12,3.09v5.94c0,2.11.06,3.8.19,5.07h-4.33ZM188.53,20c-.77-.07-1.45-.1-2.06-.1q-5.52,0-5.52,3.62a2.88,2.88,0,0,0,3.06,3,5.44,5.44,0,0,0,4.52-2.78Z"/><path class="cls-1" d="M200.62,12.74h-3.2V9.27h3.2V5l4.55-.87V9.27h4.53v3.47h-4.53V22a6.78,6.78,0,0,0,.4,2.8,2.3,2.3,0,0,0,2.26,1.16,6.61,6.61,0,0,0,2.16-.5l.4,3.49a13.5,13.5,0,0,1-4.06.66q-3.37,0-4.74-2.05-1-1.47-1-5.32Z"/><path class="cls-1" d="M216.4,0a2.72,2.72,0,0,1,2.14.93,2.86,2.86,0,0,1,.66,1.91,2.82,2.82,0,0,1-.66,1.88,2.71,2.71,0,0,1-2.17,1,2.68,2.68,0,0,1-2.17-1,2.72,2.72,0,0,1-.67-1.88A2.78,2.78,0,0,1,214.2.93,2.81,2.81,0,0,1,216.4,0Zm-2.34,29.16V9.27h4.55V29.16Z"/><path class="cls-1" d="M233.39,8.84a9,9,0,0,1,7.28,3.1A11,11,0,0,1,243,19.21,10.64,10.64,0,0,1,240.25,27a9.32,9.32,0,0,1-7,2.64,9.11,9.11,0,0,1-7.39-3.1,11,11,0,0,1-2.34-7.29,10.56,10.56,0,0,1,2.76-7.72A9.41,9.41,0,0,1,233.39,8.84Zm-.19,3.46a4.32,4.32,0,0,0-4.06,2.61,9.41,9.41,0,0,0-.89,4.3,9,9,0,0,0,1.07,4.65,4.56,4.56,0,0,0,8.07-.34,9.29,9.29,0,0,0,.9-4.31,9,9,0,0,0-1.07-4.64A4.39,4.39,0,0,0,233.2,12.3Z"/><path class="cls-1" d="M248,29.16V16.24c0-2,0-3.87-.12-5.69l0-1.28h4.28l.15,2.94a13.77,13.77,0,0,1,2.08-1.85,8.47,8.47,0,0,1,5-1.52c2.61,0,4.42.93,5.41,2.8.58,1.07.87,2.93.87,5.56v12H261V17.42a10.56,10.56,0,0,0-.38-3.37,2.76,2.76,0,0,0-2.86-1.71q-2.78,0-5.25,3.37V29.16Z"/><path class="cls-1" d="M284.67,9.48a2.91,2.91,0,0,1,2.16.9,3,3,0,0,1,.83,2.13,3,3,0,0,1-.83,2.13,2.92,2.92,0,0,1-2.19.9,2.89,2.89,0,0,1-2.19-.9,2.92,2.92,0,0,1-.84-2.13,2.89,2.89,0,0,1,.84-2.13A3,3,0,0,1,284.67,9.48Zm0,14.06a3.06,3.06,0,1,1-3.06,3,2.89,2.89,0,0,1,.84-2.14A3,3,0,0,1,284.67,23.54Z"/><path class="cls-2" d="M3.12,89.16v-27H6.25V74.05h13V62.17h3.13v27H19.23V76.62h-13V89.16Z"/><path class="cls-2" d="M39.72,86.85a7.8,7.8,0,0,1-5.9,2.69,6.16,6.16,0,0,1-4.74-1.76,5.66,5.66,0,0,1-1.45-4.07q0-6.54,9-6.53c.48,0,1.46,0,2.92.07v-.53a7.73,7.73,0,0,0-.56-3.29c-.66-1.38-2-2.06-3.92-2.06a9.62,9.62,0,0,0-5.1,1.71L28.62,71a12.22,12.22,0,0,1,6.72-2q4.5,0,6.16,2.68a8.08,8.08,0,0,1,.91,3.66c0,.57.06,1.38.06,2.44v6.45c0,2,.05,3.68.15,4.94H39.86Zm-.22-7.33c-.73,0-1.46-.08-2.21-.08a9.62,9.62,0,0,0-4.63.84,3.6,3.6,0,0,0-1.91,3.35,3.42,3.42,0,0,0,1,2.55,3.6,3.6,0,0,0,2.64,1,6,6,0,0,0,5.15-3Z"/><path class="cls-2" d="M49.26,89.16V75.83q0-4.52-.15-6.44H52l.12,3.14a15.74,15.74,0,0,1,2.11-1.9A8.39,8.39,0,0,1,59.34,69q3.75,0,5.14,2.74c.54,1.09.82,3.09.82,6V89.16h-3V77.67a14.42,14.42,0,0,0-.42-4.19c-.5-1.41-1.63-2.11-3.41-2.11q-3.2,0-6.27,3.71V89.16Z"/><path class="cls-2" d="M84.34,69.39h2.9c-.11,3.19-.16,5.78-.16,7.79v9.88a23.93,23.93,0,0,1-.4,5.08,7.09,7.09,0,0,1-3.12,4.42,8.76,8.76,0,0,1-5,1.37,14,14,0,0,1-7.48-2.15l1.27-2.28a10.77,10.77,0,0,0,6.13,2,4.9,4.9,0,0,0,4.84-2.81,13.59,13.59,0,0,0,.76-5.41V85.69a8,8,0,0,1-6,3.12,6.82,6.82,0,0,1-5.51-2.68,10.81,10.81,0,0,1-2.15-7.07,11.49,11.49,0,0,1,2.4-7.67A6.61,6.61,0,0,1,78.13,69a6.86,6.86,0,0,1,6.1,3.43Zm-.23,5.81c-1.34-2.56-3.13-3.83-5.35-3.83a4.39,4.39,0,0,0-4,2.4A10.56,10.56,0,0,0,73.54,79a9.58,9.58,0,0,0,1.26,5.09,4.54,4.54,0,0,0,4.08,2.32q3.18,0,5.23-3.48Z"/><path class="cls-2" d="M91.82,89.16V86.93l10.74-15.16H92.34V69.39h13.77v2.38l-10.69,15h11v2.39Z"/><path class="cls-2" d="M111.19,89.16V60.65h3v11.8a9.69,9.69,0,0,1,7.1-3.46q3.73,0,5.15,2.74c.54,1.09.82,3.09.82,6V89.16h-3V77.67a14.51,14.51,0,0,0-.41-4.19c-.49-1.41-1.62-2.11-3.41-2.11q-3.23,0-6.27,3.71V89.16Z"/><path class="cls-2" d="M141.58,69a8.24,8.24,0,0,1,6.8,3.26,10.91,10.91,0,0,1,2.19,7A10.68,10.68,0,0,1,148,86.68a8.95,8.95,0,0,1-13.48-.42,10.92,10.92,0,0,1-2.19-7,10.63,10.63,0,0,1,2.53-7.4A8.53,8.53,0,0,1,141.58,69Zm-.19,2.38a5.16,5.16,0,0,0-4.76,2.91,10,10,0,0,0-1.14,5,9.64,9.64,0,0,0,1.37,5.37,5.19,5.19,0,0,0,4.61,2.54,5.27,5.27,0,0,0,4.84-2.92,10,10,0,0,0,1.14-5,9.68,9.68,0,0,0-1.37-5.37A5.32,5.32,0,0,0,141.39,71.37Z"/><path class="cls-2" d="M171.52,69.39V82.72q0,4.61.15,6.44h-2.93L168.62,86q-3.27,3.56-7,3.55c-2.44,0-4.11-.92-5-2.75q-.83-1.64-.82-6V69.39h3V80.87a14.21,14.21,0,0,0,.42,4.17,3.1,3.1,0,0,0,3.3,2.12c2.1,0,4.15-1.24,6.13-3.7V69.39Z"/><path class="cls-2" d="M188.18,89.16v-27h3.12v27Z"/><path class="cls-2" d="M198.2,89.16V75.83q0-4.52-.15-6.44H201l.11,3.14a15.77,15.77,0,0,1,2.12-1.9A8.39,8.39,0,0,1,208.27,69c2.5,0,4.22.91,5.14,2.74q.83,1.63.82,6V89.16h-3V77.67a14.42,14.42,0,0,0-.42-4.19c-.49-1.41-1.63-2.11-3.41-2.11q-3.19,0-6.26,3.71V89.16Z"/><path class="cls-2" d="M221.93,71.77h-3.2V69.39h3.2V65.07l3-.63v5h4.66v2.38H224.9v10.8a9,9,0,0,0,.42,3.35,2.27,2.27,0,0,0,2.24,1.24,5.74,5.74,0,0,0,2.29-.59l.26,2.36a9.75,9.75,0,0,1-3.21.61c-2,0-3.36-.61-4.12-1.83a9,9,0,0,1-.85-4.55Z"/><path class="cls-2" d="M235.9,80.07A10,10,0,0,0,237.43,85a5.68,5.68,0,0,0,4.83,2.16,9.44,9.44,0,0,0,5.41-1.87l1.14,2.3a12.13,12.13,0,0,1-6.6,2A8.84,8.84,0,0,1,235,86.47a11,11,0,0,1-2.21-7.2c0-3.65,1-6.4,2.95-8.23A8,8,0,0,1,241.39,69c3.51,0,5.88,1.44,7.08,4.32a19.21,19.21,0,0,1,1.09,6.76Zm10.5-2.38a9,9,0,0,0-.77-3.67,4.44,4.44,0,0,0-4.34-2.65,4.75,4.75,0,0,0-4.4,2.61,8.09,8.09,0,0,0-.91,3.71Z"/><path class="cls-2" d="M254.81,89.16V77.88c0-2.49,0-5-.11-7.58l0-.91h2.76l.12,3.64a9.53,9.53,0,0,1,2.13-2.84A5,5,0,0,1,263.1,69a8.26,8.26,0,0,1,1.39.13l-.27,2.69a4.47,4.47,0,0,0-1.05-.14,4.8,4.8,0,0,0-3.86,2.21,11.92,11.92,0,0,0-1.53,2.76V89.16Z"/><path class="cls-2" d="M268.47,89.16V75.83q0-4.52-.16-6.44h2.94l.11,3.14a15.18,15.18,0,0,1,2.12-1.9A8.37,8.37,0,0,1,278.54,69q3.75,0,5.14,2.74.82,1.63.82,6V89.16h-3V77.67a14.42,14.42,0,0,0-.42-4.19c-.49-1.41-1.63-2.11-3.41-2.11q-3.19,0-6.26,3.71V89.16Z"/><path class="cls-2" d="M301.6,86.85a7.8,7.8,0,0,1-5.9,2.69A6.16,6.16,0,0,1,291,87.78a5.66,5.66,0,0,1-1.45-4.07q0-6.54,8.95-6.53c.48,0,1.45,0,2.91.07v-.53a7.75,7.75,0,0,0-.55-3.29c-.66-1.38-2-2.06-3.92-2.06a9.68,9.68,0,0,0-5.11,1.71L290.5,71a12.22,12.22,0,0,1,6.72-2q4.5,0,6.15,2.68a7.94,7.94,0,0,1,.92,3.66c0,.57,0,1.38,0,2.44v6.45c0,2,.05,3.68.16,4.94h-2.77Zm-.23-7.33c-.72,0-1.46-.08-2.21-.08a9.57,9.57,0,0,0-4.62.84,3.6,3.6,0,0,0-1.91,3.35,3.45,3.45,0,0,0,.95,2.55,3.63,3.63,0,0,0,2.65,1,6,6,0,0,0,5.14-3Z"/><path class="cls-2" d="M312.21,71.77H309V69.39h3.2V65.07l3-.63v5h4.66v2.38h-4.66v10.8a9,9,0,0,0,.42,3.35,2.27,2.27,0,0,0,2.25,1.24,5.66,5.66,0,0,0,2.28-.59l.27,2.36a9.85,9.85,0,0,1-3.22.61q-3,0-4.11-1.83a8.93,8.93,0,0,1-.86-4.55Z"/><path class="cls-2" d="M326.05,60.27a1.94,1.94,0,0,1,1.68.82,2.26,2.26,0,0,1,0,2.57,2,2,0,0,1-1.72.82,2,2,0,0,1-1.69-.82,2.26,2.26,0,0,1,0-2.57A2,2,0,0,1,326.05,60.27Zm-1.5,28.89V69.39h3V89.16Z"/><path class="cls-2" d="M342,69a8.25,8.25,0,0,1,6.8,3.26,10.91,10.91,0,0,1,2.19,7,10.73,10.73,0,0,1-2.53,7.43A9,9,0,0,1,335,86.26a10.92,10.92,0,0,1-2.19-7,10.64,10.64,0,0,1,2.54-7.4A8.53,8.53,0,0,1,342,69Zm-.19,2.38a5.16,5.16,0,0,0-4.76,2.91,10,10,0,0,0-1.14,5,9.55,9.55,0,0,0,1.37,5.37,5.45,5.45,0,0,0,9.44-.38,10,10,0,0,0,1.15-5,9.6,9.6,0,0,0-1.38-5.37A5.29,5.29,0,0,0,341.84,71.37Z"/><path class="cls-2" d="M356.33,89.16V75.83q0-4.52-.15-6.44h2.93l.12,3.14a15.74,15.74,0,0,1,2.11-1.9A8.39,8.39,0,0,1,366.41,69q3.75,0,5.14,2.74c.54,1.09.82,3.09.82,6V89.16h-3V77.67a14.42,14.42,0,0,0-.42-4.19,3.21,3.21,0,0,0-3.41-2.11c-2.14,0-4.22,1.24-6.27,3.71V89.16Z"/><path class="cls-2" d="M389.47,86.85a7.82,7.82,0,0,1-5.91,2.69,6.16,6.16,0,0,1-4.74-1.76,5.7,5.7,0,0,1-1.44-4.07q0-6.54,8.94-6.53c.49,0,1.46,0,2.92.07v-.53a7.91,7.91,0,0,0-.55-3.29c-.66-1.38-2-2.06-3.93-2.06a9.62,9.62,0,0,0-5.1,1.71L378.37,71a12.17,12.17,0,0,1,6.72-2q4.49,0,6.15,2.68a8,8,0,0,1,.91,3.66c0,.57.06,1.38.06,2.44v6.45c0,2,.05,3.68.15,4.94H389.6Zm-.23-7.33c-.73,0-1.46-.08-2.21-.08a9.64,9.64,0,0,0-4.63.84,3.59,3.59,0,0,0-1.9,3.35,3.41,3.41,0,0,0,.95,2.55,3.61,3.61,0,0,0,2.65,1,6,6,0,0,0,5.14-3Z"/><path class="cls-2" d="M399,89.16V60.65h3V89.16Z"/><path class="cls-2" d="M432.2,79.71H422.15l-3.32,9.45h-3.16l9.6-27h3.94l9.67,27h-3.37Zm-.93-2.57-2.4-7.1q-.92-2.72-1.66-5.2-.69,2.3-1.68,5.21l-2.45,7.09Z"/><path class="cls-2" d="M444.31,60.27a2,2,0,0,1,1.68.82,2.26,2.26,0,0,1,0,2.57,2,2,0,0,1-1.72.82,2,2,0,0,1-1.69-.82,2.26,2.26,0,0,1,0-2.57A2,2,0,0,1,444.31,60.27Zm-1.5,28.89V69.39h3V89.16Z"/><path class="cls-2" d="M452.59,89.16V77.88c0-2.49,0-5-.11-7.58l0-.91h2.76l.12,3.64a9.71,9.71,0,0,1,2.13-2.84,5,5,0,0,1,3.41-1.2,8.26,8.26,0,0,1,1.39.13L462,71.81a4.47,4.47,0,0,0-1.05-.14,4.81,4.81,0,0,0-3.86,2.21,11.53,11.53,0,0,0-1.52,2.76V89.16Z"/><path class="cls-2" d="M466.25,97.53V77.37q0-3.3-.12-6.91l0-1.07h2.78l.11,3A7.35,7.35,0,0,1,475.05,69a6.84,6.84,0,0,1,5.67,2.93,11.55,11.55,0,0,1,2.11,7.2,12,12,0,0,1-2.47,7.9,6.81,6.81,0,0,1-5.47,2.53,6.1,6.1,0,0,1-4-1.35,11.45,11.45,0,0,1-1.66-1.75V97.53Zm3-14a15,15,0,0,0,1.52,2,4.91,4.91,0,0,0,3.68,1.67,4.39,4.39,0,0,0,4.09-2.51,11.21,11.21,0,0,0,1.2-5.45,10.53,10.53,0,0,0-1.41-5.73,4.27,4.27,0,0,0-3.84-2.11q-3.1,0-5.24,3.64Z"/><path class="cls-2" d="M495.86,69a8.25,8.25,0,0,1,6.8,3.26,10.91,10.91,0,0,1,2.19,7,10.73,10.73,0,0,1-2.53,7.43,9,9,0,0,1-13.49-.42,10.92,10.92,0,0,1-2.19-7,10.64,10.64,0,0,1,2.54-7.4A8.53,8.53,0,0,1,495.86,69Zm-.19,2.38a5.16,5.16,0,0,0-4.76,2.91,10,10,0,0,0-1.14,5,9.55,9.55,0,0,0,1.37,5.37,5.45,5.45,0,0,0,9.44-.38,10,10,0,0,0,1.15-5,9.6,9.6,0,0,0-1.38-5.37A5.29,5.29,0,0,0,495.67,71.37Z"/><path class="cls-2" d="M510.2,89.16V77.88c0-2.49,0-5-.11-7.58l0-.91h2.76l.11,3.64a9.72,9.72,0,0,1,2.14-2.84,5,5,0,0,1,3.4-1.2,8.17,8.17,0,0,1,1.39.13l-.26,2.69a4.47,4.47,0,0,0-1.05-.14,4.83,4.83,0,0,0-3.87,2.21,11.53,11.53,0,0,0-1.52,2.76V89.16Z"/><path class="cls-2" d="M524.92,71.77h-3.2V69.39h3.2V65.07l3-.63v5h4.67v2.38h-4.67v10.8a9,9,0,0,0,.42,3.35,2.28,2.28,0,0,0,2.25,1.24,5.66,5.66,0,0,0,2.28-.59l.27,2.36a9.8,9.8,0,0,1-3.22.61q-3,0-4.11-1.83a8.93,8.93,0,0,1-.86-4.55Z"/><path class="cls-2" d="M545.18,79.44V77.06h9v2.38Z"/><path class="cls-2" d="M557.31,79.44V77.06h9v2.38Z"/><path class="cls-2" d="M590.89,89.16v-27h6a31.32,31.32,0,0,1,5.22.36,9.38,9.38,0,0,1,6.72,4.55,16.27,16.27,0,0,1,2,8.42q0,8.13-4.8,11.54a12.41,12.41,0,0,1-6,2c-.94.09-2.13.14-3.58.14ZM594,86.58h2.72c3.2,0,5.59-.57,7.16-1.73a8.45,8.45,0,0,0,2.84-4,14.47,14.47,0,0,0,.82-5.12,14.26,14.26,0,0,0-1.77-7.41A6.75,6.75,0,0,0,600.83,65a29.31,29.31,0,0,0-4.56-.25H594Z"/><path class="cls-2" d="M624.08,69a8.26,8.26,0,0,1,6.8,3.26,11,11,0,0,1,2.19,7,10.68,10.68,0,0,1-2.54,7.43,8.95,8.95,0,0,1-13.48-.42,10.92,10.92,0,0,1-2.19-7,10.63,10.63,0,0,1,2.53-7.4A8.54,8.54,0,0,1,624.08,69Zm-.19,2.38a5.15,5.15,0,0,0-4.76,2.91,9.9,9.9,0,0,0-1.15,5,9.64,9.64,0,0,0,1.37,5.37,5.46,5.46,0,0,0,9.45-.38,10,10,0,0,0,1.14-5,9.6,9.6,0,0,0-1.37-5.37A5.29,5.29,0,0,0,623.89,71.37Z"/><path class="cls-2" d="M654,69.39V82.72q0,4.61.16,6.44h-2.94L651.12,86c-2.19,2.37-4.53,3.55-7,3.55s-4.11-.92-5-2.75q-.82-1.64-.82-6V69.39h3V80.87a14.21,14.21,0,0,0,.42,4.17,3.1,3.1,0,0,0,3.29,2.12c2.11,0,4.15-1.24,6.13-3.7V69.39Z"/><path class="cls-2" d="M663.46,89.16h-2.8l0-.71q.14-3.74.13-6.49V60.65h3V72.11A7,7,0,0,1,669.61,69a6.83,6.83,0,0,1,5.67,2.93,11.56,11.56,0,0,1,2.12,7.2,12,12,0,0,1-2.48,7.9,6.81,6.81,0,0,1-5.46,2.53,6.14,6.14,0,0,1-4-1.35,12.84,12.84,0,0,1-1.89-2Zm.32-5.7a12.24,12.24,0,0,0,1.53,2A4.92,4.92,0,0,0,669,87.17a4.4,4.4,0,0,0,4.1-2.51,11.21,11.21,0,0,0,1.2-5.45,10.62,10.62,0,0,0-1.41-5.73A4.28,4.28,0,0,0,669,71.37q-3.33,0-5.24,3.71Z"/><path class="cls-2" d="M682.69,89.16V60.65h3V89.16Z"/><path class="cls-2" d="M694.08,80.07A9.9,9.9,0,0,0,695.6,85a5.7,5.7,0,0,0,4.84,2.16,9.47,9.47,0,0,0,5.41-1.87l1.14,2.3a12.16,12.16,0,0,1-6.61,2,8.82,8.82,0,0,1-7.21-3.07,10.94,10.94,0,0,1-2.21-7.2c0-3.65,1-6.4,2.95-8.23A8,8,0,0,1,699.56,69q5.28,0,7.09,4.32a19.24,19.24,0,0,1,1.08,6.76Zm10.49-2.38a9,9,0,0,0-.76-3.67,4.44,4.44,0,0,0-4.34-2.65,4.74,4.74,0,0,0-4.4,2.61,8.09,8.09,0,0,0-.91,3.71Z"/><path class="cls-2" d="M718,89.16V64.74h-7.89V62.17h19v2.57h-8V89.16Z"/><path class="cls-2" d="M733.08,89.16V77.88c0-2.49,0-5-.12-7.58v-.91h2.76l.11,3.64A9.88,9.88,0,0,1,738,70.19a5,5,0,0,1,3.41-1.2,8.17,8.17,0,0,1,1.39.13l-.26,2.69a4.47,4.47,0,0,0-1-.14,4.83,4.83,0,0,0-3.87,2.21,11.53,11.53,0,0,0-1.52,2.76V89.16Z"/><path class="cls-2" d="M748.37,80.07A10,10,0,0,0,749.89,85a5.71,5.71,0,0,0,4.84,2.16,9.44,9.44,0,0,0,5.41-1.87l1.14,2.3a12.16,12.16,0,0,1-6.61,2,8.82,8.82,0,0,1-7.21-3.07,10.94,10.94,0,0,1-2.21-7.2c0-3.65,1-6.4,3-8.23A8,8,0,0,1,753.85,69q5.28,0,7.09,4.32A19.24,19.24,0,0,1,762,80.07Zm10.49-2.38A8.84,8.84,0,0,0,758.1,74a4.44,4.44,0,0,0-4.34-2.65,4.74,4.74,0,0,0-4.4,2.61,8.09,8.09,0,0,0-.91,3.71Z"/><path class="cls-2" d="M768.88,80.07A10,10,0,0,0,770.4,85a5.71,5.71,0,0,0,4.84,2.16,9.44,9.44,0,0,0,5.41-1.87l1.14,2.3a12.16,12.16,0,0,1-6.61,2A8.82,8.82,0,0,1,768,86.47a10.94,10.94,0,0,1-2.21-7.2c0-3.65,1-6.4,3-8.23A8,8,0,0,1,774.36,69q5.28,0,7.09,4.32a19.24,19.24,0,0,1,1.08,6.76Zm10.49-2.38a9,9,0,0,0-.76-3.67,4.44,4.44,0,0,0-4.34-2.65,4.74,4.74,0,0,0-4.4,2.61,8.09,8.09,0,0,0-.91,3.71Z"/><path class="cls-2" d="M800.15,89.16h-2.8l0-.71q.14-3.74.13-6.49V60.65h3V72.11A7,7,0,0,1,806.3,69,6.83,6.83,0,0,1,812,71.92a11.56,11.56,0,0,1,2.12,7.2,12,12,0,0,1-2.48,7.9,6.81,6.81,0,0,1-5.46,2.53,6.14,6.14,0,0,1-4-1.35,12.84,12.84,0,0,1-1.89-2Zm.32-5.7a12.24,12.24,0,0,0,1.53,2,4.92,4.92,0,0,0,3.67,1.67,4.4,4.4,0,0,0,4.1-2.51,11.21,11.21,0,0,0,1.2-5.45,10.53,10.53,0,0,0-1.41-5.73,4.28,4.28,0,0,0-3.85-2.11q-3.33,0-5.24,3.71Z"/><path class="cls-2" d="M824.24,89.42l-7.79-20h3.18l4.51,11.82c.49,1.29,1,2.79,1.62,4.52.57-1.69,1.13-3.24,1.66-4.65l4.38-11.69h2.78l-8,21.44A19.26,19.26,0,0,1,823.86,96a5.46,5.46,0,0,1-4.55,2,11.68,11.68,0,0,1-2.92-.4l.52-2.41a6.48,6.48,0,0,0,2.21.43A4.07,4.07,0,0,0,822.81,93,20.32,20.32,0,0,0,824.24,89.42Z"/><path class="cls-2" d="M3.12,149.16v-27H6.25v11.88h13V122.17h3.13v27H19.23V136.62h-13v12.54Z"/><path class="cls-2" d="M30.75,120.27a1.93,1.93,0,0,1,1.68.82,2.26,2.26,0,0,1,0,2.57,2.18,2.18,0,0,1-3.41,0,2.26,2.26,0,0,1,0-2.57A2,2,0,0,1,30.75,120.27Zm-1.5,28.89V129.39h3v19.77Z"/><path class="cls-2" d="M39,149.16V120.65h3v28.51Z"/><path class="cls-2" d="M49.82,131.77h-3.2v-2.38h3.2v-4.32l3-.63v4.95h4.66v2.38H52.79v10.8a9,9,0,0,0,.42,3.35,2.27,2.27,0,0,0,2.24,1.24,5.7,5.7,0,0,0,2.29-.59l.26,2.36a9.75,9.75,0,0,1-3.21.61c-2,0-3.36-.61-4.12-1.83a9,9,0,0,1-.85-4.55Z"/><path class="cls-2" d="M69.89,129a8.26,8.26,0,0,1,6.8,3.26,10.91,10.91,0,0,1,2.19,7,10.68,10.68,0,0,1-2.54,7.43,8.95,8.95,0,0,1-13.48-.42,10.92,10.92,0,0,1-2.19-7,10.63,10.63,0,0,1,2.53-7.4A8.54,8.54,0,0,1,69.89,129Zm-.19,2.38a5.15,5.15,0,0,0-4.76,2.91,9.9,9.9,0,0,0-1.15,5,9.55,9.55,0,0,0,1.38,5.37,5.18,5.18,0,0,0,4.6,2.54,5.25,5.25,0,0,0,4.84-2.92,10,10,0,0,0,1.14-5,9.6,9.6,0,0,0-1.37-5.37A5.29,5.29,0,0,0,69.7,131.37Z"/><path class="cls-2" d="M84.19,149.16V135.83q0-4.52-.15-6.44H87l.11,3.14a15.77,15.77,0,0,1,2.12-1.9A8.39,8.39,0,0,1,94.26,129q3.75,0,5.15,2.74.81,1.64.81,6v11.43h-3V137.67a14.42,14.42,0,0,0-.42-4.19c-.49-1.41-1.63-2.11-3.41-2.11q-3.19,0-6.26,3.71v14.08Z"/><path class="cls-2" d="M116.71,149.16v-27h3.13v11.88h13V122.17H136v27h-3.12V136.62h-13v12.54Z"/><path class="cls-2" d="M153.32,146.85a7.83,7.83,0,0,1-5.91,2.69,6.16,6.16,0,0,1-4.74-1.76,5.71,5.71,0,0,1-1.45-4.07q0-6.54,8.95-6.53c.49,0,1.46,0,2.92.07v-.53a7.73,7.73,0,0,0-.56-3.29c-.66-1.38-2-2.06-3.92-2.06a9.62,9.62,0,0,0-5.1,1.71l-1.3-2.11a12.22,12.22,0,0,1,6.73-2q4.49,0,6.15,2.68a8,8,0,0,1,.91,3.66c0,.57.06,1.38.06,2.44v6.45c0,2,.05,3.68.15,4.94h-2.76Zm-.23-7.33c-.73-.05-1.46-.08-2.21-.08a9.62,9.62,0,0,0-4.63.84,3.59,3.59,0,0,0-1.9,3.35,3.41,3.41,0,0,0,1,2.55,3.61,3.61,0,0,0,2.65,1,6,6,0,0,0,5.14-3Z"/><path class="cls-2" d="M162.86,149.16V135.83c0-3-.06-5.16-.16-6.44h2.94l.11,3.14a15.74,15.74,0,0,1,2.11-1.9,8.39,8.39,0,0,1,5.07-1.64q3.75,0,5.14,2.74.83,1.64.82,6v11.43h-3V137.67a14.42,14.42,0,0,0-.42-4.19c-.5-1.41-1.63-2.11-3.41-2.11q-3.19,0-6.26,3.71v14.08Z"/><path class="cls-2" d="M197.93,129.39h2.9c-.1,3.19-.16,5.78-.16,7.79v9.88a24.76,24.76,0,0,1-.39,5.08,7.15,7.15,0,0,1-3.13,4.42,8.76,8.76,0,0,1-5,1.37,14.06,14.06,0,0,1-7.48-2.15L186,153.5a10.77,10.77,0,0,0,6.14,2.05,4.9,4.9,0,0,0,4.83-2.81,13.59,13.59,0,0,0,.76-5.41v-1.64a8,8,0,0,1-6,3.12,6.82,6.82,0,0,1-5.51-2.68,10.81,10.81,0,0,1-2.15-7.07,11.49,11.49,0,0,1,2.4-7.67,6.61,6.61,0,0,1,5.31-2.4,6.86,6.86,0,0,1,6.1,3.43Zm-.23,5.81c-1.34-2.56-3.13-3.83-5.35-3.83a4.39,4.39,0,0,0-4,2.4,10.67,10.67,0,0,0-1.2,5.25,9.58,9.58,0,0,0,1.26,5.09,4.55,4.55,0,0,0,4.08,2.32q3.18,0,5.23-3.48Z"/><path class="cls-2" d="M205.42,149.16v-2.23l10.74-15.16H205.93v-2.38H219.7v2.38l-10.69,15h11v2.39Z"/><path class="cls-2" d="M224.78,149.16V120.65h3v11.8a9.71,9.71,0,0,1,7.11-3.46c2.48,0,4.2.91,5.14,2.74.54,1.09.82,3.09.82,6v11.43h-3V137.67a14.42,14.42,0,0,0-.42-4.19c-.48-1.41-1.62-2.11-3.41-2.11-2.15,0-4.23,1.24-6.27,3.71v14.08Z"/><path class="cls-2" d="M255.18,129a8.23,8.23,0,0,1,6.79,3.26,10.91,10.91,0,0,1,2.19,7,10.68,10.68,0,0,1-2.53,7.43,8.95,8.95,0,0,1-13.48-.42,10.92,10.92,0,0,1-2.19-7,10.63,10.63,0,0,1,2.53-7.4A8.54,8.54,0,0,1,255.18,129Zm-.19,2.38a5.17,5.17,0,0,0-4.77,2.91,10,10,0,0,0-1.14,5,9.64,9.64,0,0,0,1.37,5.37,5.19,5.19,0,0,0,4.61,2.54,5.26,5.26,0,0,0,4.84-2.92,10,10,0,0,0,1.14-5,9.68,9.68,0,0,0-1.37-5.37A5.3,5.3,0,0,0,255,131.37Z"/><path class="cls-2" d="M285.11,129.39v13.33q0,4.6.15,6.44h-2.93l-.11-3.17q-3.29,3.56-7.05,3.55c-2.44,0-4.11-.92-5-2.75-.54-1.09-.82-3.08-.82-6V129.39h3v11.48a14.21,14.21,0,0,0,.42,4.17,3.11,3.11,0,0,0,3.3,2.12c2.11,0,4.15-1.24,6.13-3.7V129.39Z"/><path class="cls-2" d="M301.77,149.16v-27H316v2.57H304.9v9.45h10.56v2.57H304.9v9.82h11.69v2.58Z"/><path class="cls-2" d="M332.76,146.85a7.82,7.82,0,0,1-5.91,2.69,6.16,6.16,0,0,1-4.74-1.76,5.7,5.7,0,0,1-1.44-4.07q0-6.54,8.94-6.53c.49,0,1.46,0,2.92.07v-.53a7.91,7.91,0,0,0-.55-3.29c-.66-1.38-2-2.06-3.93-2.06a9.62,9.62,0,0,0-5.1,1.71L321.66,131a12.17,12.17,0,0,1,6.72-2q4.49,0,6.15,2.68a8,8,0,0,1,.91,3.66c0,.57.06,1.38.06,2.44v6.45c0,2,.05,3.68.15,4.94h-2.76Zm-.23-7.33c-.73-.05-1.46-.08-2.21-.08a9.64,9.64,0,0,0-4.63.84,3.59,3.59,0,0,0-1.9,3.35,3.41,3.41,0,0,0,.95,2.55,3.61,3.61,0,0,0,2.65,1,6,6,0,0,0,5.14-3Z"/><path class="cls-2" d="M340.81,148.18l.9-2.34a11.28,11.28,0,0,0,4.81,1.32,4.26,4.26,0,0,0,2.59-.82,3,3,0,0,0,1.18-2.54,2.53,2.53,0,0,0-.78-2,12.54,12.54,0,0,0-3.18-1.56,13.1,13.1,0,0,1-3.94-2.15,4.72,4.72,0,0,1-1.5-3.6,5.06,5.06,0,0,1,2-4.19,7.12,7.12,0,0,1,4.46-1.33,12.25,12.25,0,0,1,5.64,1.48l-.9,2.35a7.84,7.84,0,0,0-4.47-1.45,4.41,4.41,0,0,0-2.5.65,2.72,2.72,0,0,0,0,4.41,16,16,0,0,0,2.92,1.43,11.48,11.48,0,0,1,4.28,2.52,4.68,4.68,0,0,1,1.09,3.23,5.3,5.3,0,0,1-2.15,4.48,7.74,7.74,0,0,1-4.8,1.45A13.2,13.2,0,0,1,340.81,148.18Z"/><path class="cls-2" d="M359.78,131.77h-3.2v-2.38h3.2v-4.32l3-.63v4.95h4.66v2.38h-4.66v10.8a9,9,0,0,0,.42,3.35,2.27,2.27,0,0,0,2.25,1.24,5.66,5.66,0,0,0,2.28-.59l.27,2.36a9.85,9.85,0,0,1-3.22.61c-2,0-3.35-.61-4.12-1.83a9,9,0,0,1-.85-4.55Z"/><path class="cls-2" d="M375.2,130.44a2.2,2.2,0,0,1,1.58.62,2.39,2.39,0,0,1,0,3.36,2.41,2.41,0,0,1-3.23,0,2.29,2.29,0,0,1-.69-1.68,2.25,2.25,0,0,1,.69-1.68A2.33,2.33,0,0,1,375.2,130.44Zm0,14.49a2.16,2.16,0,0,1,1.58.63,2.22,2.22,0,0,1,.69,1.67,2.29,2.29,0,0,1-.69,1.68,2.39,2.39,0,0,1-3.23,0,2.29,2.29,0,0,1-.69-1.68,2.22,2.22,0,0,1,.69-1.67A2.3,2.3,0,0,1,375.2,144.93Z"/><path class="cls-2" d="M401.86,148.32l.71-2.52a18.35,18.35,0,0,0,6.3,1.26,6.72,6.72,0,0,0,4.89-1.66,5.2,5.2,0,0,0,1.66-4q0-5.29-8.51-5.29c-.49,0-1,0-1.5.08v-2.58a13.66,13.66,0,0,0,1.61.08,11,11,0,0,0,5.37-1.12,4.54,4.54,0,0,0,2.67-4.1,3.63,3.63,0,0,0-1.45-3,6.4,6.4,0,0,0-4.07-1.18,16.84,16.84,0,0,0-6.19,1.31l-.59-2.53a20.69,20.69,0,0,1,7-1.28,9.75,9.75,0,0,1,6.33,1.89,5.64,5.64,0,0,1,2.09,4.57,6.1,6.1,0,0,1-2.91,5.48,9,9,0,0,1-3.14,1.16,7.54,7.54,0,0,1,4.26,1.6,6.25,6.25,0,0,1,2.15,5.05,7.24,7.24,0,0,1-2.89,6,10.48,10.48,0,0,1-6.61,2A22.68,22.68,0,0,1,401.86,148.32Z"/><path class="cls-2" d="M424.73,147.82l1.15-2.53a12,12,0,0,0,5.86,1.75,6.44,6.44,0,0,0,5-2,6.77,6.77,0,0,0,1.75-4.78,5.68,5.68,0,0,0-1.46-4,6,6,0,0,0-4.59-1.75,19.43,19.43,0,0,0-6.93,1.45l.4-13.77h14.56v2.57h-11.5l-.3,7.89a15.57,15.57,0,0,1,4.24-.63,8.77,8.77,0,0,1,6.25,2.15,8.16,8.16,0,0,1,2.49,6.26,8.6,8.6,0,0,1-3.14,6.94,10.08,10.08,0,0,1-6.66,2.19A16.31,16.31,0,0,1,424.73,147.82Z"/><path class="cls-2" d="M447.79,149.16V135.83q0-4.52-.15-6.44h2.94l.11,3.12a20,20,0,0,1,2-1.85,7.5,7.5,0,0,1,4.68-1.67,4.82,4.82,0,0,1,5.18,3.92,20,20,0,0,1,2.29-2.26,7.19,7.19,0,0,1,4.65-1.66,4.91,4.91,0,0,1,4.85,2.74q.78,1.65.78,6v11.43h-3V137.67a16,16,0,0,0-.38-4.19,2.94,2.94,0,0,0-3.12-2.11q-2.91,0-5.7,3.71v14.08h-3V137.31a12.34,12.34,0,0,0-.42-3.88,2.93,2.93,0,0,0-3-2.06q-2.93,0-5.78,3.71v14.08Z"/><path class="cls-2" d="M483.23,120.27a1.93,1.93,0,0,1,1.68.82,2.26,2.26,0,0,1,0,2.57,2.18,2.18,0,0,1-3.41,0,2.26,2.26,0,0,1,0-2.57A2,2,0,0,1,483.23,120.27Zm-1.5,28.89V129.39h3v19.77Z"/><path class="cls-2" d="M491.48,149.16V135.83q0-4.52-.15-6.44h2.93l.11,3.14a15.77,15.77,0,0,1,2.12-1.9,8.39,8.39,0,0,1,5.06-1.64q3.75,0,5.15,2.74.81,1.64.81,6v11.43h-3V137.67a14.42,14.42,0,0,0-.42-4.19c-.49-1.41-1.63-2.11-3.41-2.11q-3.19,0-6.26,3.71v14.08Z"/><path class="cls-2" d="M515.21,131.77H512v-2.38h3.2v-4.32l3-.63v4.95h4.66v2.38h-4.66v10.8a9,9,0,0,0,.42,3.35,2.27,2.27,0,0,0,2.24,1.24,5.7,5.7,0,0,0,2.29-.59l.27,2.36a9.85,9.85,0,0,1-3.22.61c-2,0-3.35-.61-4.12-1.83a9,9,0,0,1-.85-4.55Z"/><path class="cls-2" d="M526.06,148.18l.9-2.34a11.28,11.28,0,0,0,4.81,1.32,4.26,4.26,0,0,0,2.59-.82,3,3,0,0,0,1.18-2.54,2.53,2.53,0,0,0-.78-2,12.54,12.54,0,0,0-3.18-1.56,13.1,13.1,0,0,1-3.94-2.15,4.72,4.72,0,0,1-1.5-3.6,5.06,5.06,0,0,1,2-4.19,7.12,7.12,0,0,1,4.46-1.33,12.25,12.25,0,0,1,5.64,1.48l-.9,2.35a7.84,7.84,0,0,0-4.47-1.45,4.41,4.41,0,0,0-2.5.65,2.72,2.72,0,0,0,0,4.41,16,16,0,0,0,2.92,1.43,11.48,11.48,0,0,1,4.28,2.52,4.68,4.68,0,0,1,1.09,3.23,5.3,5.3,0,0,1-2.15,4.48,7.74,7.74,0,0,1-4.8,1.45A13.2,13.2,0,0,1,526.06,148.18Z"/><path class="cls-2" d="M3.12,209.16v-27H6.25v11.88h13V182.17h3.13v27H19.23V196.62h-13v12.54Z"/><path class="cls-2" d="M39.72,206.85a7.8,7.8,0,0,1-5.9,2.69,6.16,6.16,0,0,1-4.74-1.76,5.66,5.66,0,0,1-1.45-4.07q0-6.54,9-6.53c.48,0,1.46,0,2.92.07v-.53a7.73,7.73,0,0,0-.56-3.29c-.66-1.38-2-2.06-3.92-2.06a9.62,9.62,0,0,0-5.1,1.71L28.62,191a12.22,12.22,0,0,1,6.72-2q4.5,0,6.16,2.68a8.08,8.08,0,0,1,.91,3.66c0,.57.06,1.38.06,2.44v6.45c0,2,.05,3.68.15,4.94H39.86Zm-.22-7.33c-.73-.05-1.46-.08-2.21-.08a9.62,9.62,0,0,0-4.63.84,3.6,3.6,0,0,0-1.91,3.35,3.42,3.42,0,0,0,1,2.55,3.6,3.6,0,0,0,2.64,1,6,6,0,0,0,5.15-3Z"/><path class="cls-2" d="M49.26,209.16V195.83q0-4.52-.15-6.44H52l.12,3.14a15.74,15.74,0,0,1,2.11-1.9A8.39,8.39,0,0,1,59.34,189q3.75,0,5.14,2.74c.54,1.09.82,3.09.82,6v11.43h-3V197.67a14.42,14.42,0,0,0-.42-4.19c-.5-1.41-1.63-2.11-3.41-2.11q-3.2,0-6.27,3.71v14.08Z"/><path class="cls-2" d="M84.34,189.39h2.9c-.11,3.19-.16,5.78-.16,7.79v9.88a23.93,23.93,0,0,1-.4,5.08,7.09,7.09,0,0,1-3.12,4.42,8.76,8.76,0,0,1-5,1.37,14,14,0,0,1-7.48-2.15l1.27-2.28a10.77,10.77,0,0,0,6.13,2.05,4.9,4.9,0,0,0,4.84-2.81,13.59,13.59,0,0,0,.76-5.41v-1.64a8,8,0,0,1-6,3.12,6.82,6.82,0,0,1-5.51-2.68,10.81,10.81,0,0,1-2.15-7.07,11.49,11.49,0,0,1,2.4-7.67,6.61,6.61,0,0,1,5.31-2.4,6.86,6.86,0,0,1,6.1,3.43Zm-.23,5.81c-1.34-2.56-3.13-3.83-5.35-3.83a4.39,4.39,0,0,0-4,2.4,10.56,10.56,0,0,0-1.2,5.25,9.58,9.58,0,0,0,1.26,5.09,4.54,4.54,0,0,0,4.08,2.32q3.18,0,5.23-3.48Z"/><path class="cls-2" d="M91.82,209.16v-2.23l10.74-15.16H92.34v-2.38h13.77v2.38l-10.69,15h11v2.39Z"/><path class="cls-2" d="M111.19,209.16V180.65h3v11.8a9.69,9.69,0,0,1,7.1-3.46q3.73,0,5.15,2.74c.54,1.09.82,3.09.82,6v11.43h-3V197.67a14.51,14.51,0,0,0-.41-4.19c-.49-1.41-1.62-2.11-3.41-2.11q-3.23,0-6.27,3.71v14.08Z"/><path class="cls-2" d="M141.58,189a8.24,8.24,0,0,1,6.8,3.26,10.91,10.91,0,0,1,2.19,7,10.68,10.68,0,0,1-2.53,7.43,8.95,8.95,0,0,1-13.48-.42,10.92,10.92,0,0,1-2.19-7,10.63,10.63,0,0,1,2.53-7.4A8.53,8.53,0,0,1,141.58,189Zm-.19,2.38a5.16,5.16,0,0,0-4.76,2.91,10,10,0,0,0-1.14,5,9.64,9.64,0,0,0,1.37,5.37,5.19,5.19,0,0,0,4.61,2.54,5.27,5.27,0,0,0,4.84-2.92,10,10,0,0,0,1.14-5,9.68,9.68,0,0,0-1.37-5.37A5.32,5.32,0,0,0,141.39,191.37Z"/><path class="cls-2" d="M171.52,189.39v13.33q0,4.6.15,6.44h-2.93l-.12-3.17q-3.27,3.56-7,3.55c-2.44,0-4.11-.92-5-2.75q-.83-1.64-.82-6V189.39h3v11.48a14.21,14.21,0,0,0,.42,4.17,3.1,3.1,0,0,0,3.3,2.12c2.1,0,4.15-1.24,6.13-3.7V189.39Z"/><path class="cls-2" d="M188.18,209.16v-27h14.25v2.57H191.3v9.45h10.57v2.57H191.3v9.82H203v2.58Z"/><path class="cls-2" d="M219.17,206.85a7.83,7.83,0,0,1-5.91,2.69,6.16,6.16,0,0,1-4.74-1.76,5.66,5.66,0,0,1-1.45-4.07q0-6.54,9-6.53c.48,0,1.46,0,2.92.07v-.53a7.73,7.73,0,0,0-.56-3.29c-.66-1.38-2-2.06-3.92-2.06a9.62,9.62,0,0,0-5.1,1.71l-1.3-2.11a12.22,12.22,0,0,1,6.73-2q4.49,0,6.15,2.68a8,8,0,0,1,.91,3.66c0,.57.06,1.38.06,2.44v6.45c0,2,.05,3.68.15,4.94H219.3Zm-.23-7.33c-.73-.05-1.46-.08-2.21-.08a9.62,9.62,0,0,0-4.63.84,3.59,3.59,0,0,0-1.9,3.35,3.41,3.41,0,0,0,1,2.55,3.6,3.6,0,0,0,2.64,1,6,6,0,0,0,5.15-3Z"/><path class="cls-2" d="M227.22,208.18l.89-2.34a11.36,11.36,0,0,0,4.82,1.32,4.26,4.26,0,0,0,2.59-.82,3,3,0,0,0,1.18-2.54,2.53,2.53,0,0,0-.78-2,12.54,12.54,0,0,0-3.18-1.56,13,13,0,0,1-3.94-2.15,4.72,4.72,0,0,1-1.5-3.6,5,5,0,0,1,2-4.19,7.1,7.1,0,0,1,4.46-1.33,12.25,12.25,0,0,1,5.64,1.48l-.9,2.35a7.87,7.87,0,0,0-4.47-1.45,4.41,4.41,0,0,0-2.5.65,2.72,2.72,0,0,0,0,4.41,16,16,0,0,0,2.92,1.43,11.57,11.57,0,0,1,4.28,2.52,4.73,4.73,0,0,1,1.09,3.23,5.28,5.28,0,0,1-2.16,4.48,7.73,7.73,0,0,1-4.79,1.45A13.16,13.16,0,0,1,227.22,208.18Z"/><path class="cls-2" d="M246.19,191.77H243v-2.38h3.2v-4.32l3-.63v4.95h4.66v2.38h-4.66v10.8a9,9,0,0,0,.42,3.35,2.27,2.27,0,0,0,2.24,1.24,5.7,5.7,0,0,0,2.29-.59l.27,2.36a9.85,9.85,0,0,1-3.22.61c-2,0-3.36-.61-4.12-1.83a9,9,0,0,1-.85-4.55Z"/><path class="cls-2" d="M268.39,209.16v-27h5.75q4.29,0,6.34,1.24a6.28,6.28,0,0,1,3.16,5.83,6.43,6.43,0,0,1-2.3,5.25,8.26,8.26,0,0,1-3.43,1.56,4.52,4.52,0,0,1,2.54,1.66A20.22,20.22,0,0,1,282,201l3.31,8.19H282l-2.86-6.77c-1-2.28-1.8-3.72-2.51-4.3s-2.16-.91-4.21-.91h-.92v12Zm3.12-14.55H273a11.81,11.81,0,0,0,4.82-.77,4.29,4.29,0,0,0,2.55-4.28,4.15,4.15,0,0,0-2.19-4.06,11,11,0,0,0-4.72-.76h-1.91Z"/><path class="cls-2" d="M299.74,206.85a7.83,7.83,0,0,1-5.91,2.69,6.16,6.16,0,0,1-4.74-1.76,5.66,5.66,0,0,1-1.45-4.07q0-6.54,8.95-6.53c.49,0,1.46,0,2.92.07v-.53a7.73,7.73,0,0,0-.56-3.29c-.66-1.38-2-2.06-3.92-2.06a9.62,9.62,0,0,0-5.1,1.71l-1.3-2.11a12.22,12.22,0,0,1,6.73-2q4.49,0,6.15,2.68a8,8,0,0,1,.91,3.66c0,.57.06,1.38.06,2.44v6.45c0,2,0,3.68.15,4.94h-2.76Zm-.23-7.33c-.73-.05-1.46-.08-2.21-.08a9.62,9.62,0,0,0-4.63.84,3.59,3.59,0,0,0-1.9,3.35,3.41,3.41,0,0,0,1,2.55,3.61,3.61,0,0,0,2.65,1,6,6,0,0,0,5.14-3Z"/><path class="cls-2" d="M310.78,180.27a2,2,0,0,1,1.68.82,2.26,2.26,0,0,1,0,2.57,2,2,0,0,1-1.72.82,2,2,0,0,1-1.69-.82,2.26,2.26,0,0,1,0-2.57A2,2,0,0,1,310.78,180.27Zm-1.5,28.89V189.39h3v19.77Z"/><path class="cls-2" d="M319,209.16V180.65h3v28.51Z"/><path class="cls-2" d="M331.9,209.16l-5.43-19.77h3l3.25,12.38c.51,1.93.92,3.54,1.22,4.85q.6-2.33,1.35-5l3.45-12.24h3.87l3.54,12c.55,1.88,1,3.63,1.48,5.27.39-1.53.82-3.22,1.32-5.06l3.29-12.17H355l-5.54,19.77H345.7l-3.8-12.63c-.52-1.73-1-3.29-1.36-4.69q-.59,2.32-1.33,4.94l-3.54,12.38Z"/><path class="cls-2" d="M370,206.85a7.82,7.82,0,0,1-5.91,2.69,6.16,6.16,0,0,1-4.74-1.76,5.71,5.71,0,0,1-1.45-4.07q0-6.54,8.95-6.53c.49,0,1.46,0,2.92.07v-.53a7.91,7.91,0,0,0-.55-3.29c-.67-1.38-2-2.06-3.93-2.06a9.62,9.62,0,0,0-5.1,1.71l-1.3-2.11a12.22,12.22,0,0,1,6.73-2q4.49,0,6.15,2.68a8,8,0,0,1,.91,3.66c0,.57.06,1.38.06,2.44v6.45c0,2,.05,3.68.15,4.94h-2.76Zm-.23-7.33c-.73-.05-1.46-.08-2.21-.08a9.64,9.64,0,0,0-4.63.84,3.59,3.59,0,0,0-1.9,3.35,3.41,3.41,0,0,0,.95,2.55,3.61,3.61,0,0,0,2.65,1,6,6,0,0,0,5.14-3Z"/><path class="cls-2" d="M384.34,209.42l-7.79-20h3.18l4.52,11.82c.48,1.29,1,2.79,1.62,4.52q.86-2.53,1.65-4.65l4.38-11.69h2.78l-8,21.44A19.54,19.54,0,0,1,384,216a5.46,5.46,0,0,1-4.55,2,11.6,11.6,0,0,1-2.91-.4l.51-2.41a6.53,6.53,0,0,0,2.21.43,4.06,4.06,0,0,0,3.69-2.57A19.58,19.58,0,0,0,384.34,209.42Z"/><path class="cls-2" d="M406.81,208.18l.9-2.34a11.28,11.28,0,0,0,4.82,1.32,4.28,4.28,0,0,0,2.59-.82,3,3,0,0,0,1.18-2.54,2.53,2.53,0,0,0-.78-2,12.92,12.92,0,0,0-3.18-1.56,13,13,0,0,1-3.95-2.15,4.72,4.72,0,0,1-1.5-3.6,5,5,0,0,1,2-4.19,7.07,7.07,0,0,1,4.45-1.33,12.25,12.25,0,0,1,5.64,1.48l-.9,2.35a7.84,7.84,0,0,0-4.47-1.45,4.39,4.39,0,0,0-2.49.65,2.47,2.47,0,0,0-1.15,2.24,2.52,2.52,0,0,0,1.13,2.17,15.51,15.51,0,0,0,2.91,1.43,11.4,11.4,0,0,1,4.28,2.52,4.68,4.68,0,0,1,1.09,3.23,5.3,5.3,0,0,1-2.15,4.48,7.74,7.74,0,0,1-4.8,1.45A13.2,13.2,0,0,1,406.81,208.18Z"/><path class="cls-2" d="M425.78,191.77h-3.2v-2.38h3.2v-4.32l3-.63v4.95h4.67v2.38h-4.67v10.8a9,9,0,0,0,.42,3.35,2.29,2.29,0,0,0,2.25,1.24,5.66,5.66,0,0,0,2.28-.59l.27,2.36a9.8,9.8,0,0,1-3.22.61q-3,0-4.11-1.83a8.93,8.93,0,0,1-.86-4.55Z"/><path class="cls-2" d="M448.59,206.85a7.8,7.8,0,0,1-5.9,2.69,6.16,6.16,0,0,1-4.74-1.76,5.66,5.66,0,0,1-1.45-4.07q0-6.54,8.95-6.53c.48,0,1.46,0,2.92.07v-.53a7.73,7.73,0,0,0-.56-3.29c-.66-1.38-2-2.06-3.92-2.06a9.62,9.62,0,0,0-5.1,1.71l-1.3-2.11a12.22,12.22,0,0,1,6.72-2q4.5,0,6.16,2.68a8.08,8.08,0,0,1,.91,3.66c0,.57.06,1.38.06,2.44v6.45c0,2,.05,3.68.15,4.94h-2.76Zm-.22-7.33c-.73-.05-1.46-.08-2.21-.08a9.62,9.62,0,0,0-4.63.84,3.6,3.6,0,0,0-1.91,3.35,3.42,3.42,0,0,0,1,2.55,3.6,3.6,0,0,0,2.64,1,6,6,0,0,0,5.15-3Z"/><path class="cls-2" d="M459.2,191.77H456v-2.38h3.2v-4.32l3-.63v4.95h4.67v2.38h-4.67v10.8a9,9,0,0,0,.42,3.35,2.29,2.29,0,0,0,2.25,1.24,5.66,5.66,0,0,0,2.28-.59l.27,2.36a9.8,9.8,0,0,1-3.22.61q-3,0-4.11-1.83a8.93,8.93,0,0,1-.86-4.55Z"/><path class="cls-2" d="M473.05,180.27a1.92,1.92,0,0,1,1.67.82,2.26,2.26,0,0,1,0,2.57,2.18,2.18,0,0,1-3.41,0,2.26,2.26,0,0,1,0-2.57A2,2,0,0,1,473.05,180.27Zm-1.51,28.89V189.39h3v19.77Z"/><path class="cls-2" d="M489,189a8.25,8.25,0,0,1,6.8,3.26,10.91,10.91,0,0,1,2.19,7,10.68,10.68,0,0,1-2.53,7.43,8.95,8.95,0,0,1-13.48-.42,10.92,10.92,0,0,1-2.19-7,10.63,10.63,0,0,1,2.53-7.4A8.53,8.53,0,0,1,489,189Zm-.19,2.38a5.16,5.16,0,0,0-4.76,2.91,10,10,0,0,0-1.14,5,9.64,9.64,0,0,0,1.37,5.37,5.19,5.19,0,0,0,4.61,2.54,5.27,5.27,0,0,0,4.84-2.92,10,10,0,0,0,1.14-5,9.68,9.68,0,0,0-1.37-5.37A5.32,5.32,0,0,0,488.83,191.37Z"/><path class="cls-2" d="M503.32,209.16V195.83q0-4.52-.15-6.44h2.93l.12,3.14a15.74,15.74,0,0,1,2.11-1.9A8.39,8.39,0,0,1,513.4,189q3.75,0,5.14,2.74c.54,1.09.82,3.09.82,6v11.43h-3V197.67a14.42,14.42,0,0,0-.42-4.19c-.5-1.41-1.63-2.11-3.41-2.11q-3.19,0-6.27,3.71v14.08Z"/><path class="cls-2" d="M533.91,199.44v-2.38h9v2.38Z"/><path class="cls-2" d="M546,199.44v-2.38h9v2.38Z"/><path class="cls-2" d="M569.86,209.16v-27h6a31.27,31.27,0,0,1,5.21.36,9.42,9.42,0,0,1,6.73,4.55,16.37,16.37,0,0,1,2,8.42q0,8.13-4.8,11.54a12.49,12.49,0,0,1-6,2c-.94.09-2.14.14-3.58.14Zm3.12-2.58h2.73c3.2,0,5.58-.57,7.16-1.73a8.44,8.44,0,0,0,2.83-4,14.47,14.47,0,0,0,.82-5.12,14.26,14.26,0,0,0-1.77-7.41,6.75,6.75,0,0,0-5-3.31,29.07,29.07,0,0,0-4.55-.25H573Z"/><path class="cls-2" d="M603.05,189a8.25,8.25,0,0,1,6.8,3.26,10.91,10.91,0,0,1,2.19,7,10.68,10.68,0,0,1-2.53,7.43,9,9,0,0,1-13.49-.42,10.92,10.92,0,0,1-2.19-7,10.64,10.64,0,0,1,2.54-7.4A8.53,8.53,0,0,1,603.05,189Zm-.19,2.38a5.16,5.16,0,0,0-4.76,2.91,10,10,0,0,0-1.14,5,9.64,9.64,0,0,0,1.37,5.37,5.45,5.45,0,0,0,9.44-.38,9.9,9.9,0,0,0,1.15-5,9.68,9.68,0,0,0-1.37-5.37A5.32,5.32,0,0,0,602.86,191.37Z"/><path class="cls-2" d="M633,189.39v13.33q0,4.6.15,6.44h-2.93l-.12-3.17q-3.27,3.56-7,3.55t-5-2.75q-.82-1.64-.82-6V189.39h3v11.48a14.21,14.21,0,0,0,.42,4.17,3.1,3.1,0,0,0,3.3,2.12c2.1,0,4.15-1.24,6.13-3.7V189.39Z"/><path class="cls-2" d="M642.43,209.16h-2.8l0-.71q.14-3.73.14-6.49V180.65h3v11.46a7,7,0,0,1,5.82-3.12,6.86,6.86,0,0,1,5.68,2.93,11.55,11.55,0,0,1,2.11,7.2,12,12,0,0,1-2.47,7.9,6.84,6.84,0,0,1-5.47,2.53,6.18,6.18,0,0,1-4-1.35,12.41,12.41,0,0,1-1.88-2Zm.33-5.7a12.25,12.25,0,0,0,1.52,2,4.94,4.94,0,0,0,3.68,1.67,4.39,4.39,0,0,0,4.09-2.51,11.21,11.21,0,0,0,1.2-5.45,10.53,10.53,0,0,0-1.41-5.73,4.28,4.28,0,0,0-3.85-2.11q-3.33,0-5.23,3.71Z"/><path class="cls-2" d="M661.67,209.16V180.65h3v28.51Z"/><path class="cls-2" d="M673.05,200.07a10,10,0,0,0,1.53,4.93,5.68,5.68,0,0,0,4.83,2.16,9.44,9.44,0,0,0,5.41-1.87l1.14,2.3a12.1,12.1,0,0,1-6.6,1.95,8.84,8.84,0,0,1-7.22-3.07,11,11,0,0,1-2.21-7.2c0-3.65,1-6.4,3-8.23a8,8,0,0,1,5.66-2c3.51,0,5.88,1.44,7.08,4.32a19.21,19.21,0,0,1,1.09,6.76Zm10.5-2.38a9,9,0,0,0-.77-3.67,4.44,4.44,0,0,0-4.34-2.65A4.75,4.75,0,0,0,674,194a8.22,8.22,0,0,0-.91,3.71Z"/><path class="cls-2" d="M697,209.16V184.74h-7.88v-2.57h19v2.57h-8v24.42Z"/><path class="cls-2" d="M712.05,209.16V197.88c0-2.49,0-5-.11-7.58l0-.91h2.76l.12,3.64a9.53,9.53,0,0,1,2.13-2.84,5,5,0,0,1,3.41-1.2,8.26,8.26,0,0,1,1.39.13l-.27,2.69a4.47,4.47,0,0,0-1.05-.14,4.81,4.81,0,0,0-3.86,2.21,11.92,11.92,0,0,0-1.53,2.76v12.52Z"/><path class="cls-2" d="M727.34,200.07a10,10,0,0,0,1.53,4.93,5.69,5.69,0,0,0,4.84,2.16,9.44,9.44,0,0,0,5.4-1.87l1.15,2.3a12.16,12.16,0,0,1-6.61,1.95,8.84,8.84,0,0,1-7.22-3.07,11,11,0,0,1-2.21-7.2c0-3.65,1-6.4,2.95-8.23a8,8,0,0,1,5.66-2q5.28,0,7.08,4.32a19,19,0,0,1,1.09,6.76Zm10.5-2.38a9.17,9.17,0,0,0-.76-3.67,4.46,4.46,0,0,0-4.35-2.65,4.75,4.75,0,0,0-4.4,2.61,8.22,8.22,0,0,0-.91,3.71Z"/><path class="cls-2" d="M747.85,200.07a10,10,0,0,0,1.53,4.93,5.68,5.68,0,0,0,4.83,2.16,9.44,9.44,0,0,0,5.41-1.87l1.15,2.3a12.16,12.16,0,0,1-6.61,1.95,8.84,8.84,0,0,1-7.22-3.07,11,11,0,0,1-2.21-7.2c0-3.65,1-6.4,2.95-8.23a8,8,0,0,1,5.66-2q5.28,0,7.08,4.32a19,19,0,0,1,1.09,6.76Zm10.5-2.38a9,9,0,0,0-.77-3.67,4.44,4.44,0,0,0-4.34-2.65,4.75,4.75,0,0,0-4.4,2.61,8.22,8.22,0,0,0-.91,3.71Z"/><path class="cls-2" d="M779.12,209.16h-2.8l0-.71q.13-3.73.14-6.49V180.65h3v11.46a7,7,0,0,1,5.82-3.12,6.86,6.86,0,0,1,5.68,2.93,11.55,11.55,0,0,1,2.11,7.2,12,12,0,0,1-2.47,7.9,6.83,6.83,0,0,1-5.47,2.53,6.18,6.18,0,0,1-4-1.35,12.41,12.41,0,0,1-1.88-2Zm.33-5.7a12.25,12.25,0,0,0,1.52,2,4.94,4.94,0,0,0,3.68,1.67,4.39,4.39,0,0,0,4.09-2.51,11.21,11.21,0,0,0,1.2-5.45,10.53,10.53,0,0,0-1.41-5.73,4.28,4.28,0,0,0-3.85-2.11q-3.33,0-5.23,3.71Z"/><path class="cls-2" d="M803.21,209.42l-7.79-20h3.18l4.52,11.82c.48,1.29,1,2.79,1.62,4.52q.85-2.53,1.65-4.65l4.38-11.69h2.78l-8,21.44a19.54,19.54,0,0,1-2.69,5.14,5.46,5.46,0,0,1-4.55,2,11.6,11.6,0,0,1-2.91-.4l.51-2.41a6.53,6.53,0,0,0,2.21.43,4.07,4.07,0,0,0,3.7-2.57A20.32,20.32,0,0,0,803.21,209.42Z"/><path class="cls-2" d="M3.12,269.16v-27H6.25v11.88h13V242.17h3.13v27H19.23V256.62h-13v12.54Z"/><path class="cls-2" d="M30.75,240.27a1.93,1.93,0,0,1,1.68.82,2.26,2.26,0,0,1,0,2.57,2.18,2.18,0,0,1-3.41,0,2.26,2.26,0,0,1,0-2.57A2,2,0,0,1,30.75,240.27Zm-1.5,28.89V249.39h3v19.77Z"/><path class="cls-2" d="M39,269.16V240.65h3v28.51Z"/><path class="cls-2" d="M49.82,251.77h-3.2v-2.38h3.2v-4.32l3-.63v4.95h4.66v2.38H52.79v10.8a9,9,0,0,0,.42,3.35,2.27,2.27,0,0,0,2.24,1.24,5.7,5.7,0,0,0,2.29-.59l.26,2.36a9.75,9.75,0,0,1-3.21.61c-2,0-3.36-.61-4.12-1.83a9,9,0,0,1-.85-4.55Z"/><path class="cls-2" d="M69.89,249a8.26,8.26,0,0,1,6.8,3.26,10.91,10.91,0,0,1,2.19,7,10.68,10.68,0,0,1-2.54,7.43,8.95,8.95,0,0,1-13.48-.42,10.92,10.92,0,0,1-2.19-7,10.63,10.63,0,0,1,2.53-7.4A8.54,8.54,0,0,1,69.89,249Zm-.19,2.38a5.15,5.15,0,0,0-4.76,2.91,9.9,9.9,0,0,0-1.15,5,9.55,9.55,0,0,0,1.38,5.37,5.18,5.18,0,0,0,4.6,2.54,5.25,5.25,0,0,0,4.84-2.92,10,10,0,0,0,1.14-5,9.6,9.6,0,0,0-1.37-5.37A5.29,5.29,0,0,0,69.7,251.37Z"/><path class="cls-2" d="M84.19,269.16V255.83q0-4.52-.15-6.44H87l.11,3.14a15.77,15.77,0,0,1,2.12-1.9A8.39,8.39,0,0,1,94.26,249q3.75,0,5.15,2.74.81,1.64.81,6v11.43h-3V257.67a14.42,14.42,0,0,0-.42-4.19c-.49-1.41-1.63-2.11-3.41-2.11q-3.19,0-6.26,3.71v14.08Z"/><path class="cls-2" d="M116.71,269.16v-27h3.13v11.88h13V242.17H136v27h-3.12V256.62h-13v12.54Z"/><path class="cls-2" d="M153.32,266.85a7.83,7.83,0,0,1-5.91,2.69,6.16,6.16,0,0,1-4.74-1.76,5.71,5.71,0,0,1-1.45-4.07q0-6.54,8.95-6.53c.49,0,1.46,0,2.92.07v-.53a7.73,7.73,0,0,0-.56-3.29c-.66-1.38-2-2.06-3.92-2.06a9.62,9.62,0,0,0-5.1,1.71l-1.3-2.11a12.22,12.22,0,0,1,6.73-2q4.49,0,6.15,2.68a8,8,0,0,1,.91,3.66c0,.57.06,1.38.06,2.44v6.45c0,2,.05,3.68.15,4.94h-2.76Zm-.23-7.33c-.73,0-1.46-.08-2.21-.08a9.62,9.62,0,0,0-4.63.84,3.59,3.59,0,0,0-1.9,3.35,3.41,3.41,0,0,0,1,2.55,3.61,3.61,0,0,0,2.65,1,6,6,0,0,0,5.14-3Z"/><path class="cls-2" d="M162.86,269.16V255.83c0-3-.06-5.16-.16-6.44h2.94l.11,3.14a15.74,15.74,0,0,1,2.11-1.9,8.39,8.39,0,0,1,5.07-1.64q3.75,0,5.14,2.74.83,1.64.82,6v11.43h-3V257.67a14.42,14.42,0,0,0-.42-4.19c-.5-1.41-1.63-2.11-3.41-2.11q-3.19,0-6.26,3.71v14.08Z"/><path class="cls-2" d="M197.93,249.39h2.9c-.1,3.19-.16,5.78-.16,7.79v9.88a24.76,24.76,0,0,1-.39,5.08,7.15,7.15,0,0,1-3.13,4.42,8.76,8.76,0,0,1-5,1.37,14.06,14.06,0,0,1-7.48-2.15L186,273.5a10.77,10.77,0,0,0,6.14,2.05,4.9,4.9,0,0,0,4.83-2.81,13.59,13.59,0,0,0,.76-5.41v-1.64a8,8,0,0,1-6,3.12,6.82,6.82,0,0,1-5.51-2.68,10.81,10.81,0,0,1-2.15-7.07,11.49,11.49,0,0,1,2.4-7.67,6.61,6.61,0,0,1,5.31-2.4,6.86,6.86,0,0,1,6.1,3.43Zm-.23,5.81c-1.34-2.56-3.13-3.83-5.35-3.83a4.39,4.39,0,0,0-4,2.4,10.67,10.67,0,0,0-1.2,5.25,9.58,9.58,0,0,0,1.26,5.09,4.55,4.55,0,0,0,4.08,2.32q3.18,0,5.23-3.48Z"/><path class="cls-2" d="M205.42,269.16v-2.23l10.74-15.16H205.93v-2.38H219.7v2.38l-10.69,15h11v2.39Z"/><path class="cls-2" d="M224.78,269.16V240.65h3v11.8a9.71,9.71,0,0,1,7.11-3.46c2.48,0,4.2.91,5.14,2.74.54,1.09.82,3.09.82,6v11.43h-3V257.67a14.42,14.42,0,0,0-.42-4.19c-.48-1.41-1.62-2.11-3.41-2.11-2.15,0-4.23,1.24-6.27,3.71v14.08Z"/><path class="cls-2" d="M255.18,249a8.23,8.23,0,0,1,6.79,3.26,10.91,10.91,0,0,1,2.19,7,10.68,10.68,0,0,1-2.53,7.43,8.95,8.95,0,0,1-13.48-.42,10.92,10.92,0,0,1-2.19-7,10.63,10.63,0,0,1,2.53-7.4A8.54,8.54,0,0,1,255.18,249Zm-.19,2.38a5.17,5.17,0,0,0-4.77,2.91,10,10,0,0,0-1.14,5,9.64,9.64,0,0,0,1.37,5.37,5.19,5.19,0,0,0,4.61,2.54,5.26,5.26,0,0,0,4.84-2.92,10,10,0,0,0,1.14-5,9.68,9.68,0,0,0-1.37-5.37A5.3,5.3,0,0,0,255,251.37Z"/><path class="cls-2" d="M285.11,249.39v13.33q0,4.61.15,6.44h-2.93l-.11-3.17q-3.29,3.56-7.05,3.55c-2.44,0-4.11-.92-5-2.75-.54-1.09-.82-3.08-.82-6V249.39h3v11.48a14.21,14.21,0,0,0,.42,4.17,3.11,3.11,0,0,0,3.3,2.12c2.11,0,4.15-1.24,6.13-3.7V249.39Z"/><path class="cls-2" d="M301.77,269.16v-27H316v2.57H304.9v9.45h10.56v2.57H304.9v9.82h11.69v2.58Z"/><path class="cls-2" d="M332.76,266.85a7.82,7.82,0,0,1-5.91,2.69,6.16,6.16,0,0,1-4.74-1.76,5.7,5.7,0,0,1-1.44-4.07q0-6.54,8.94-6.53c.49,0,1.46,0,2.92.07v-.53a7.91,7.91,0,0,0-.55-3.29c-.66-1.38-2-2.06-3.93-2.06a9.62,9.62,0,0,0-5.1,1.71L321.66,251a12.17,12.17,0,0,1,6.72-2q4.49,0,6.15,2.68a8,8,0,0,1,.91,3.66c0,.57.06,1.38.06,2.44v6.45c0,2,.05,3.68.15,4.94h-2.76Zm-.23-7.33c-.73,0-1.46-.08-2.21-.08a9.64,9.64,0,0,0-4.63.84,3.59,3.59,0,0,0-1.9,3.35,3.41,3.41,0,0,0,.95,2.55,3.61,3.61,0,0,0,2.65,1,6,6,0,0,0,5.14-3Z"/><path class="cls-2" d="M340.81,268.18l.9-2.34a11.28,11.28,0,0,0,4.81,1.32,4.26,4.26,0,0,0,2.59-.82,3,3,0,0,0,1.18-2.54,2.53,2.53,0,0,0-.78-2,12.54,12.54,0,0,0-3.18-1.56,13.1,13.1,0,0,1-3.94-2.15,4.72,4.72,0,0,1-1.5-3.6,5.06,5.06,0,0,1,2-4.19,7.12,7.12,0,0,1,4.46-1.33,12.25,12.25,0,0,1,5.64,1.48l-.9,2.35a7.84,7.84,0,0,0-4.47-1.45,4.41,4.41,0,0,0-2.5.65,2.72,2.72,0,0,0,0,4.41,16,16,0,0,0,2.92,1.43,11.48,11.48,0,0,1,4.28,2.52,4.68,4.68,0,0,1,1.09,3.23,5.3,5.3,0,0,1-2.15,4.48,7.74,7.74,0,0,1-4.8,1.45A13.2,13.2,0,0,1,340.81,268.18Z"/><path class="cls-2" d="M359.78,251.77h-3.2v-2.38h3.2v-4.32l3-.63v4.95h4.66v2.38h-4.66v10.8a9,9,0,0,0,.42,3.35,2.27,2.27,0,0,0,2.25,1.24,5.66,5.66,0,0,0,2.28-.59l.27,2.36a9.85,9.85,0,0,1-3.22.61c-2,0-3.35-.61-4.12-1.83a9,9,0,0,1-.85-4.55Z"/><path class="cls-2" d="M375.2,250.44a2.2,2.2,0,0,1,1.58.62,2.39,2.39,0,0,1,0,3.36,2.41,2.41,0,0,1-3.23,0,2.29,2.29,0,0,1-.69-1.68,2.25,2.25,0,0,1,.69-1.68A2.33,2.33,0,0,1,375.2,250.44Zm0,14.49a2.16,2.16,0,0,1,1.58.63,2.22,2.22,0,0,1,.69,1.67,2.29,2.29,0,0,1-.69,1.68,2.39,2.39,0,0,1-3.23,0,2.29,2.29,0,0,1-.69-1.68,2.22,2.22,0,0,1,.69-1.67A2.3,2.3,0,0,1,375.2,264.93Z"/><path class="cls-2" d="M401.86,268.32l.71-2.52a18.35,18.35,0,0,0,6.3,1.26,6.72,6.72,0,0,0,4.89-1.66,5.2,5.2,0,0,0,1.66-4q0-5.3-8.51-5.29c-.49,0-1,0-1.5.08v-2.58a13.66,13.66,0,0,0,1.61.08,11,11,0,0,0,5.37-1.12,4.54,4.54,0,0,0,2.67-4.1,3.63,3.63,0,0,0-1.45-3,6.4,6.4,0,0,0-4.07-1.18,16.84,16.84,0,0,0-6.19,1.31l-.59-2.53a20.69,20.69,0,0,1,7-1.28,9.75,9.75,0,0,1,6.33,1.89,5.64,5.64,0,0,1,2.09,4.57,6.1,6.1,0,0,1-2.91,5.48,9,9,0,0,1-3.14,1.16,7.54,7.54,0,0,1,4.26,1.6,6.25,6.25,0,0,1,2.15,5,7.24,7.24,0,0,1-2.89,6.05,10.48,10.48,0,0,1-6.61,2A22.68,22.68,0,0,1,401.86,268.32Z"/><path class="cls-2" d="M430.22,255.16a12,12,0,0,1-3.56-2.21,6,6,0,0,1-1.72-4.44,5.9,5.9,0,0,1,2.35-5,9.37,9.37,0,0,1,5.92-1.77,9.72,9.72,0,0,1,6,1.79,5.86,5.86,0,0,1,2.24,4.91,5.78,5.78,0,0,1-2.36,4.8,17.69,17.69,0,0,1-2.61,1.53,12.94,12.94,0,0,1,3.66,2.15,6.22,6.22,0,0,1,2.07,4.91,6.88,6.88,0,0,1-2.53,5.68,10.12,10.12,0,0,1-6.57,2,10.35,10.35,0,0,1-6.49-1.93,6.39,6.39,0,0,1-2.57-5.39Q424.09,257,430.22,255.16Zm2.74,1.06q-5.71,1.69-5.71,5.87a4.36,4.36,0,0,0,1.67,3.62,6.7,6.7,0,0,0,4.27,1.33,6.4,6.4,0,0,0,4.26-1.39,4.23,4.23,0,0,0,1.64-3.45,4.84,4.84,0,0,0-2.45-4.15,19.55,19.55,0,0,0-2.46-1.29C433.4,256.4,433,256.22,433,256.22Zm1.12-2.43.35-.17c2.62-1.3,3.94-3,3.94-5.05a3.73,3.73,0,0,0-1.39-3.14,6.79,6.79,0,0,0-7.47-.08,3.69,3.69,0,0,0-1.44,3.16,4.22,4.22,0,0,0,2.51,3.72A25.89,25.89,0,0,0,434.08,253.79Z"/><path class="cls-2" d="M447.79,269.16V255.83q0-4.52-.15-6.44h2.94l.11,3.12a20,20,0,0,1,2-1.85,7.5,7.5,0,0,1,4.68-1.67,4.82,4.82,0,0,1,5.18,3.92,20,20,0,0,1,2.29-2.26,7.19,7.19,0,0,1,4.65-1.66,4.91,4.91,0,0,1,4.85,2.74q.78,1.65.78,6v11.43h-3V257.67a16,16,0,0,0-.38-4.19,2.94,2.94,0,0,0-3.12-2.11q-2.91,0-5.7,3.71v14.08h-3V257.31a12.34,12.34,0,0,0-.42-3.88,2.93,2.93,0,0,0-3-2.06q-2.93,0-5.78,3.71v14.08Z"/><path class="cls-2" d="M483.23,240.27a1.93,1.93,0,0,1,1.68.82,2.26,2.26,0,0,1,0,2.57,2.18,2.18,0,0,1-3.41,0,2.26,2.26,0,0,1,0-2.57A2,2,0,0,1,483.23,240.27Zm-1.5,28.89V249.39h3v19.77Z"/><path class="cls-2" d="M491.48,269.16V255.83q0-4.52-.15-6.44h2.93l.11,3.14a15.77,15.77,0,0,1,2.12-1.9,8.39,8.39,0,0,1,5.06-1.64q3.75,0,5.15,2.74.81,1.64.81,6v11.43h-3V257.67a14.42,14.42,0,0,0-.42-4.19c-.49-1.41-1.63-2.11-3.41-2.11q-3.19,0-6.26,3.71v14.08Z"/><path class="cls-2" d="M515.21,251.77H512v-2.38h3.2v-4.32l3-.63v4.95h4.66v2.38h-4.66v10.8a9,9,0,0,0,.42,3.35,2.27,2.27,0,0,0,2.24,1.24,5.7,5.7,0,0,0,2.29-.59l.27,2.36a9.85,9.85,0,0,1-3.22.61c-2,0-3.35-.61-4.12-1.83a9,9,0,0,1-.85-4.55Z"/><path class="cls-2" d="M526.06,268.18l.9-2.34a11.28,11.28,0,0,0,4.81,1.32,4.26,4.26,0,0,0,2.59-.82,3,3,0,0,0,1.18-2.54,2.53,2.53,0,0,0-.78-2,12.54,12.54,0,0,0-3.18-1.56,13.1,13.1,0,0,1-3.94-2.15,4.72,4.72,0,0,1-1.5-3.6,5.06,5.06,0,0,1,2-4.19,7.12,7.12,0,0,1,4.46-1.33,12.25,12.25,0,0,1,5.64,1.48l-.9,2.35a7.84,7.84,0,0,0-4.47-1.45,4.41,4.41,0,0,0-2.5.65,2.72,2.72,0,0,0,0,4.41,16,16,0,0,0,2.92,1.43,11.48,11.48,0,0,1,4.28,2.52,4.68,4.68,0,0,1,1.09,3.23,5.3,5.3,0,0,1-2.15,4.48,7.74,7.74,0,0,1-4.8,1.45A13.2,13.2,0,0,1,526.06,268.18Z"/><path class="cls-1" d="M3,363.16v-27h6.8a25.31,25.31,0,0,1,6.53.69,10,10,0,0,1,6.46,5,16.11,16.11,0,0,1,1.69,7.72q0,8.14-5,11.46a13.44,13.44,0,0,1-6.3,1.94c-1,.09-2.25.14-3.81.14Zm4.72-3.81H9.54c3,0,5.19-.51,6.61-1.53a7.34,7.34,0,0,0,2.66-3.77,13.07,13.07,0,0,0,.69-4.38,12.6,12.6,0,0,0-1.37-6,6.29,6.29,0,0,0-4.44-3.36,23,23,0,0,0-4.36-.3H7.67Z"/><path class="cls-1" d="M29.65,363.16v-12.4q0-3.75-.17-7.49h4.28l.16,3.74q1.77-4.06,5.25-4.06a7.23,7.23,0,0,1,1.73.23l-.26,4a7.32,7.32,0,0,0-1.56-.19A4.4,4.4,0,0,0,35.46,349a7.87,7.87,0,0,0-1.28,2.63v11.56Z"/><path class="cls-1" d="M47.8,354.66q.53,5.52,5.73,5.52a10.83,10.83,0,0,0,5.92-1.92l1.62,3.35a15.06,15.06,0,0,1-7.64,2c-3.5,0-6.15-1-8-2.93-1.63-1.76-2.45-4.23-2.45-7.39a10.8,10.8,0,0,1,2.78-7.86,8.85,8.85,0,0,1,6.74-2.57q6.3,0,8.19,4.87a20.8,20.8,0,0,1,1,7ZM57,351.44a7,7,0,0,0-.68-3,3.92,3.92,0,0,0-3.81-2.21,4.19,4.19,0,0,0-3.89,2.17,6.67,6.67,0,0,0-.81,3.06Z"/><path class="cls-1" d="M65.11,362l1.22-3.48a10.68,10.68,0,0,0,5.23,1.63,3.78,3.78,0,0,0,2.46-.7,2.26,2.26,0,0,0,.84-1.85,1.94,1.94,0,0,0-.78-1.67,17,17,0,0,0-3.2-1.36,12.89,12.89,0,0,1-4.15-2.09,4.68,4.68,0,0,1-1.51-3.68,5.37,5.37,0,0,1,2.15-4.51,8.36,8.36,0,0,1,5.2-1.48A16.2,16.2,0,0,1,79,344.26l-1.18,3.51a9.88,9.88,0,0,0-5.11-1.54,3.66,3.66,0,0,0-2.17.59,2,2,0,0,0,.23,3.39,33.09,33.09,0,0,0,3.12,1.27,11.35,11.35,0,0,1,4.25,2.4,4.6,4.6,0,0,1,1.2,3.31,5.78,5.78,0,0,1-2,4.57,8.33,8.33,0,0,1-5.71,1.83A14.25,14.25,0,0,1,65.11,362Z"/><path class="cls-1" d="M82.86,362l1.21-3.48a10.72,10.72,0,0,0,5.24,1.63,3.78,3.78,0,0,0,2.46-.7,2.26,2.26,0,0,0,.84-1.85,1.94,1.94,0,0,0-.78-1.67,17,17,0,0,0-3.2-1.36,13.08,13.08,0,0,1-4.16-2.09,4.71,4.71,0,0,1-1.5-3.68,5.37,5.37,0,0,1,2.15-4.51,8.36,8.36,0,0,1,5.2-1.48,16.2,16.2,0,0,1,6.46,1.42l-1.18,3.51a9.88,9.88,0,0,0-5.11-1.54,3.64,3.64,0,0,0-2.17.59,2,2,0,0,0,.23,3.39,33.09,33.09,0,0,0,3.12,1.27,11.35,11.35,0,0,1,4.25,2.4,4.6,4.6,0,0,1,1.2,3.31,5.78,5.78,0,0,1-2,4.57,8.33,8.33,0,0,1-5.71,1.83A14.25,14.25,0,0,1,82.86,362Z"/><path class="cls-1" d="M125.19,358.53l1.46,3.35a11.88,11.88,0,0,1-6.43,1.71,9.5,9.5,0,0,1-7.31-2.82,10.55,10.55,0,0,1-2.56-7.48c0-3.36.9-6,2.71-7.9a8.78,8.78,0,0,1,6.7-2.55,14.72,14.72,0,0,1,6.48,1.5l-1.37,3.39a8.77,8.77,0,0,0-4.63-1.45,4.36,4.36,0,0,0-3.91,1.93,8.84,8.84,0,0,0-1.25,5,8.12,8.12,0,0,0,1.46,5.1,5,5,0,0,0,4.1,1.79A7.79,7.79,0,0,0,125.19,358.53Z"/><path class="cls-1" d="M139,342.84a9,9,0,0,1,7.27,3.1,11,11,0,0,1,2.34,7.27,10.64,10.64,0,0,1-2.76,7.74,9.29,9.29,0,0,1-7,2.64,9.11,9.11,0,0,1-7.39-3.1,11,11,0,0,1-2.34-7.29,10.56,10.56,0,0,1,2.76-7.72A9.42,9.42,0,0,1,139,342.84Zm-.2,3.46a4.31,4.31,0,0,0-4.05,2.61,9.28,9.28,0,0,0-.9,4.3,9.14,9.14,0,0,0,1.07,4.65,4.56,4.56,0,0,0,8.07-.34,9.29,9.29,0,0,0,.9-4.31,9,9,0,0,0-1.07-4.64A4.39,4.39,0,0,0,138.8,346.3Z"/><path class="cls-1" d="M165.92,334.65h4.55v21.5q0,4.39.17,7h-4.36l-.15-2.84a10,10,0,0,1-1.88,2,6.75,6.75,0,0,1-4.14,1.27,6.92,6.92,0,0,1-6-3.08,12.42,12.42,0,0,1-2-7.31,11.93,11.93,0,0,1,2.36-7.77,6.91,6.91,0,0,1,5.65-2.59,7,7,0,0,1,5.81,3Zm0,15c-1.26-2.19-2.79-3.29-4.61-3.29a3.68,3.68,0,0,0-3.33,1.9,9.38,9.38,0,0,0-1.16,4.88,10.15,10.15,0,0,0,1.06,4.86,3.62,3.62,0,0,0,3.32,2.11c1.76,0,3.34-1.14,4.72-3.43Z"/><path class="cls-1" d="M180.13,354.66q.52,5.52,5.73,5.52a10.83,10.83,0,0,0,5.92-1.92l1.62,3.35a15.06,15.06,0,0,1-7.64,2c-3.5,0-6.15-1-8-2.93-1.63-1.76-2.45-4.23-2.45-7.39a10.8,10.8,0,0,1,2.78-7.86,8.84,8.84,0,0,1,6.74-2.57q6.3,0,8.19,4.87a20.8,20.8,0,0,1,1,7Zm9.23-3.22a7,7,0,0,0-.68-3,3.92,3.92,0,0,0-3.81-2.21,4.19,4.19,0,0,0-3.89,2.17,6.67,6.67,0,0,0-.81,3.06Z"/><path class="cls-1" d="M211.7,343.48a2.88,2.88,0,0,1,2.15.9,3,3,0,0,1,.84,2.13,2.92,2.92,0,0,1-.84,2.13,3.11,3.11,0,0,1-4.38,0,2.92,2.92,0,0,1-.84-2.13,2.89,2.89,0,0,1,.84-2.13A3,3,0,0,1,211.7,343.48Zm0,14.06a3,3,0,1,1-2.23.89A3.05,3.05,0,0,1,211.7,357.54Z"/><path class="cls-2" d="M3.12,423.16v-27H7.33c3.42,0,5.85.29,7.31.88a5.33,5.33,0,0,1,2.9,2.76,7.56,7.56,0,0,1,.68,3.33A6,6,0,0,1,16.3,408a7.88,7.88,0,0,1-3.54,1.43Q19,410.12,19,416q0,4.45-3.45,6.19a10.09,10.09,0,0,1-3.48.91c-.54.05-1.73.08-3.57.08Zm3.13-14.9H7.66c2.56,0,4.31-.26,5.25-.8a4.16,4.16,0,0,0,2-3.94c0-2-.62-3.31-1.87-4-1-.54-2.77-.82-5.38-.82H6.25Zm0,12.36H7.66a30.93,30.93,0,0,0,4.2-.21q3.8-.57,3.79-4.8a4.19,4.19,0,0,0-2.59-4.26,15.15,15.15,0,0,0-5.4-.67H6.25Z"/><path class="cls-2" d="M40.08,403.39v13.33c0,3.07.06,5.22.16,6.44H37.31L37.19,420q-3.27,3.56-7,3.55t-5-2.75q-.82-1.64-.82-6V403.39h3v11.48a14.21,14.21,0,0,0,.42,4.17A3.1,3.1,0,0,0,31,421.16c2.11,0,4.15-1.24,6.13-3.7V403.39Z"/><path class="cls-2" d="M45.4,422.18l.89-2.34a11.32,11.32,0,0,0,4.82,1.32,4.28,4.28,0,0,0,2.59-.82,3,3,0,0,0,1.18-2.54,2.53,2.53,0,0,0-.78-2,12.54,12.54,0,0,0-3.18-1.56A13,13,0,0,1,47,412.11a4.73,4.73,0,0,1-1.51-3.6,5,5,0,0,1,2-4.19A7.1,7.1,0,0,1,52,403a12.25,12.25,0,0,1,5.64,1.48l-.9,2.35a7.87,7.87,0,0,0-4.48-1.45,4.39,4.39,0,0,0-2.49.65,2.72,2.72,0,0,0,0,4.41,16.19,16.19,0,0,0,2.91,1.43,11.55,11.55,0,0,1,4.29,2.52A4.72,4.72,0,0,1,58,417.61a5.28,5.28,0,0,1-2.15,4.48,7.74,7.74,0,0,1-4.8,1.45A13.15,13.15,0,0,1,45.4,422.18Z"/><path class="cls-2" d="M64.8,394.27a1.94,1.94,0,0,1,1.68.82,2.26,2.26,0,0,1,0,2.57,2,2,0,0,1-1.72.82,2,2,0,0,1-1.69-.82,2.26,2.26,0,0,1,0-2.57A2,2,0,0,1,64.8,394.27Zm-1.5,28.89V403.39h3v19.77Z"/><path class="cls-2" d="M73.05,423.16V409.83q0-4.51-.15-6.44h2.93l.11,3.14a15.77,15.77,0,0,1,2.12-1.9A8.39,8.39,0,0,1,83.12,403c2.5,0,4.22.91,5.14,2.74q.83,1.63.82,6v11.43h-3V411.67a14.42,14.42,0,0,0-.42-4.19c-.49-1.41-1.63-2.11-3.41-2.11q-3.19,0-6.26,3.71v14.08Z"/><path class="cls-2" d="M97.35,414.07A9.9,9.9,0,0,0,98.87,419a5.7,5.7,0,0,0,4.84,2.16,9.47,9.47,0,0,0,5.41-1.87l1.14,2.3a12.16,12.16,0,0,1-6.61,2,8.86,8.86,0,0,1-7.22-3.07,11,11,0,0,1-2.21-7.2c0-3.65,1-6.4,3-8.23a8,8,0,0,1,5.65-2.05q5.28,0,7.09,4.32a19.24,19.24,0,0,1,1.08,6.76Zm10.49-2.38a9,9,0,0,0-.76-3.67,4.44,4.44,0,0,0-4.34-2.65,4.74,4.74,0,0,0-4.4,2.61,8.09,8.09,0,0,0-.92,3.71Z"/><path class="cls-2" d="M114.73,422.18l.9-2.34a11.28,11.28,0,0,0,4.82,1.32,4.28,4.28,0,0,0,2.59-.82,3,3,0,0,0,1.18-2.54,2.53,2.53,0,0,0-.78-2,12.92,12.92,0,0,0-3.18-1.56,13,13,0,0,1-4-2.15,4.72,4.72,0,0,1-1.5-3.6,5,5,0,0,1,2-4.19A7.07,7.07,0,0,1,121.3,403a12.25,12.25,0,0,1,5.64,1.48l-.9,2.35a7.84,7.84,0,0,0-4.47-1.45,4.39,4.39,0,0,0-2.49.65,2.47,2.47,0,0,0-1.15,2.24,2.52,2.52,0,0,0,1.13,2.17,15.51,15.51,0,0,0,2.91,1.43,11.4,11.4,0,0,1,4.28,2.52,4.68,4.68,0,0,1,1.09,3.23,5.3,5.3,0,0,1-2.15,4.48,7.74,7.74,0,0,1-4.8,1.45A13.2,13.2,0,0,1,114.73,422.18Z"/><path class="cls-2" d="M131.15,422.18l.89-2.34a11.32,11.32,0,0,0,4.82,1.32,4.28,4.28,0,0,0,2.59-.82,3,3,0,0,0,1.18-2.54,2.53,2.53,0,0,0-.78-2,12.54,12.54,0,0,0-3.18-1.56,13,13,0,0,1-3.94-2.15,4.73,4.73,0,0,1-1.51-3.6,5,5,0,0,1,2-4.19,7.1,7.1,0,0,1,4.46-1.33,12.25,12.25,0,0,1,5.64,1.48l-.9,2.35a7.87,7.87,0,0,0-4.48-1.45,4.39,4.39,0,0,0-2.49.65,2.72,2.72,0,0,0,0,4.41,16.19,16.19,0,0,0,2.91,1.43,11.55,11.55,0,0,1,4.29,2.52,4.72,4.72,0,0,1,1.08,3.23,5.28,5.28,0,0,1-2.15,4.48,7.74,7.74,0,0,1-4.8,1.45A13.15,13.15,0,0,1,131.15,422.18Z"/><path class="cls-2" d="M171.39,419.4l1.14,2.31a10.41,10.41,0,0,1-6,1.83,8.66,8.66,0,0,1-6.68-2.61,10.62,10.62,0,0,1-2.54-7.49c0-3.46.9-6.13,2.69-8a8.22,8.22,0,0,1,6.25-2.46,11.86,11.86,0,0,1,5.92,1.6L171,406.93a8.81,8.81,0,0,0-4.81-1.56,5,5,0,0,0-4.35,2.11,9.62,9.62,0,0,0-1.44,5.6,9.73,9.73,0,0,0,1.71,6,5.27,5.27,0,0,0,4.42,2A7.88,7.88,0,0,0,171.39,419.4Z"/><path class="cls-2" d="M187.25,420.85a7.8,7.8,0,0,1-5.9,2.69,6.2,6.2,0,0,1-4.75-1.76,5.7,5.7,0,0,1-1.44-4.07q0-6.54,9-6.53c.48,0,1.45,0,2.91.07v-.53a7.75,7.75,0,0,0-.55-3.29c-.66-1.38-2-2.06-3.92-2.06a9.65,9.65,0,0,0-5.11,1.71L176.15,405a12.17,12.17,0,0,1,6.72-2q4.5,0,6.15,2.68a8,8,0,0,1,.91,3.66c0,.57.06,1.38.06,2.44v6.45c0,2,0,3.68.15,4.94h-2.76Zm-.23-7.33c-.72,0-1.46-.08-2.21-.08a9.64,9.64,0,0,0-4.63.84,3.59,3.59,0,0,0-1.9,3.35,3.45,3.45,0,0,0,.95,2.55,3.61,3.61,0,0,0,2.65,1,6,6,0,0,0,5.14-3Z"/><path class="cls-2" d="M195.3,422.18l.9-2.34a11.28,11.28,0,0,0,4.82,1.32,4.28,4.28,0,0,0,2.59-.82,3,3,0,0,0,1.18-2.54,2.53,2.53,0,0,0-.78-2,12.92,12.92,0,0,0-3.18-1.56,13,13,0,0,1-4-2.15,4.72,4.72,0,0,1-1.5-3.6,5,5,0,0,1,2-4.19,7.07,7.07,0,0,1,4.45-1.33,12.25,12.25,0,0,1,5.64,1.48l-.89,2.35a7.9,7.9,0,0,0-4.48-1.45,4.39,4.39,0,0,0-2.49.65,2.47,2.47,0,0,0-1.15,2.24,2.52,2.52,0,0,0,1.13,2.17,15.51,15.51,0,0,0,2.91,1.43,11.55,11.55,0,0,1,4.29,2.52,4.72,4.72,0,0,1,1.08,3.23,5.3,5.3,0,0,1-2.15,4.48,7.74,7.74,0,0,1-4.8,1.45A13.2,13.2,0,0,1,195.3,422.18Z"/><path class="cls-2" d="M228.84,403.39v13.33q0,4.61.15,6.44h-2.93l-.12-3.17q-3.27,3.56-7,3.55c-2.44,0-4.11-.92-5-2.75q-.83-1.64-.82-6V403.39h3v11.48a14.21,14.21,0,0,0,.42,4.17,3.1,3.1,0,0,0,3.3,2.12c2.1,0,4.15-1.24,6.13-3.7V403.39Z"/><path class="cls-2" d="M246.11,420.85a7.8,7.8,0,0,1-5.9,2.69,6.16,6.16,0,0,1-4.74-1.76,5.66,5.66,0,0,1-1.45-4.07q0-6.54,8.95-6.53c.48,0,1.45,0,2.91.07v-.53a7.75,7.75,0,0,0-.55-3.29c-.66-1.38-2-2.06-3.92-2.06a9.68,9.68,0,0,0-5.11,1.71L235,405a12.22,12.22,0,0,1,6.72-2q4.5,0,6.15,2.68a7.94,7.94,0,0,1,.92,3.66c0,.57,0,1.38,0,2.44v6.45c0,2,.05,3.68.15,4.94h-2.76Zm-.23-7.33c-.72,0-1.46-.08-2.21-.08a9.57,9.57,0,0,0-4.62.84,3.6,3.6,0,0,0-1.91,3.35,3.45,3.45,0,0,0,1,2.55,3.63,3.63,0,0,0,2.65,1,6,6,0,0,0,5.14-3Z"/><path class="cls-2" d="M255.65,423.16V394.65h3v28.51Z"/><path class="cls-2" d="M3.12,483.16v-27h3.6L17.1,473.35q1,1.65,2.46,4.34l.55,1c-.05-1.14-.08-2.48-.08-4V456.17h3v27H19.37L8.89,465.81Q7.44,463.38,6,460.65c.05,1.33.07,3,.07,5.08v17.43Z"/><path class="cls-2" d="M37.65,463a8.26,8.26,0,0,1,6.8,3.26,10.91,10.91,0,0,1,2.19,7,10.68,10.68,0,0,1-2.54,7.43,8.42,8.42,0,0,1-6.57,2.86,8.38,8.38,0,0,1-6.91-3.28,10.92,10.92,0,0,1-2.19-7,10.63,10.63,0,0,1,2.53-7.4A8.54,8.54,0,0,1,37.65,463Zm-.19,2.38a5.15,5.15,0,0,0-4.76,2.91,9.9,9.9,0,0,0-1.15,5,9.64,9.64,0,0,0,1.37,5.37,5.46,5.46,0,0,0,9.45-.38,10,10,0,0,0,1.14-5,9.6,9.6,0,0,0-1.37-5.37A5.29,5.29,0,0,0,37.46,465.37Z"/><path class="cls-2" d="M61.7,483.16V454.65h3v11.8a9.67,9.67,0,0,1,7.1-3.46c2.49,0,4.2.91,5.15,2.74q.81,1.63.81,6v11.43h-3V471.67a14.42,14.42,0,0,0-.42-4.19c-.48-1.41-1.61-2.11-3.41-2.11q-3.21,0-6.26,3.71v14.08Z"/><path class="cls-2" d="M85.87,454.27a1.92,1.92,0,0,1,1.67.82,2.26,2.26,0,0,1,0,2.57,2.18,2.18,0,0,1-3.41,0,2.26,2.26,0,0,1,0-2.57A2,2,0,0,1,85.87,454.27Zm-1.51,28.89V463.39h3v19.77Z"/><path class="cls-2" d="M106.53,463.39h2.89c-.1,3.19-.15,5.78-.15,7.79v9.88a24.62,24.62,0,0,1-.4,5.08,7.09,7.09,0,0,1-3.12,4.42,8.78,8.78,0,0,1-5,1.37,14.07,14.07,0,0,1-7.49-2.15l1.28-2.28a10.74,10.74,0,0,0,6.13,2.05,4.92,4.92,0,0,0,4.84-2.81,13.78,13.78,0,0,0,.76-5.41v-1.64a8,8,0,0,1-6,3.12,6.8,6.8,0,0,1-5.5-2.68,10.76,10.76,0,0,1-2.15-7.07,11.49,11.49,0,0,1,2.4-7.67,6.58,6.58,0,0,1,5.31-2.4,6.85,6.85,0,0,1,6.09,3.43Zm-.23,5.81c-1.35-2.56-3.13-3.83-5.35-3.83a4.37,4.37,0,0,0-4,2.4,10.56,10.56,0,0,0-1.2,5.25A9.58,9.58,0,0,0,97,478.11a4.53,4.53,0,0,0,4.07,2.32q3.18,0,5.24-3.48Z"/><path class="cls-2" d="M116.07,483.16V454.65h3v11.8a9.67,9.67,0,0,1,7.1-3.46q3.73,0,5.14,2.74.83,1.63.82,6v11.43h-3V471.67a14.42,14.42,0,0,0-.42-4.19c-.48-1.41-1.62-2.11-3.41-2.11q-3.21,0-6.26,3.71v14.08Z"/><path class="cls-2" d="M136.9,473.44v-2.38h9v2.38Z"/><path class="cls-2" d="M150.86,483.16V454.65h3v11.8a9.67,9.67,0,0,1,7.1-3.46q3.73,0,5.14,2.74.83,1.63.82,6v11.43h-3V471.67a14.42,14.42,0,0,0-.42-4.19c-.48-1.41-1.62-2.11-3.41-2.11q-3.21,0-6.26,3.71v14.08Z"/><path class="cls-2" d="M175.16,474.07a9.9,9.9,0,0,0,1.52,4.93,5.69,5.69,0,0,0,4.84,2.16,9.44,9.44,0,0,0,5.4-1.87l1.15,2.3a12.16,12.16,0,0,1-6.61,2,8.86,8.86,0,0,1-7.22-3.07,11,11,0,0,1-2.21-7.2c0-3.65,1-6.4,2.95-8.23a8,8,0,0,1,5.66-2.05q5.28,0,7.08,4.32a19,19,0,0,1,1.09,6.76Zm10.49-2.38a9,9,0,0,0-.76-3.67,4.45,4.45,0,0,0-4.35-2.65,4.73,4.73,0,0,0-4.39,2.61,8.09,8.09,0,0,0-.92,3.71Z"/><path class="cls-2" d="M195.67,474.07a9.9,9.9,0,0,0,1.52,4.93,5.69,5.69,0,0,0,4.84,2.16,9.44,9.44,0,0,0,5.4-1.87l1.15,2.3a12.16,12.16,0,0,1-6.61,2,8.84,8.84,0,0,1-7.22-3.07,11,11,0,0,1-2.21-7.2c0-3.65,1-6.4,3-8.23a8,8,0,0,1,5.66-2.05q5.28,0,7.08,4.32a19,19,0,0,1,1.09,6.76Zm10.49-2.38a9,9,0,0,0-.76-3.67,4.46,4.46,0,0,0-4.35-2.65,4.73,4.73,0,0,0-4.39,2.61,8.09,8.09,0,0,0-.92,3.71Z"/><path class="cls-2" d="M214.54,483.16V454.65h3v28.51Z"/><path class="cls-2" d="M232.55,482.18l.9-2.34a11.28,11.28,0,0,0,4.81,1.32,4.26,4.26,0,0,0,2.59-.82A3,3,0,0,0,242,477.8a2.54,2.54,0,0,0-.79-2,12.54,12.54,0,0,0-3.18-1.56,13.1,13.1,0,0,1-3.94-2.15,4.72,4.72,0,0,1-1.5-3.6,5,5,0,0,1,2-4.19,7.07,7.07,0,0,1,4.45-1.33,12.25,12.25,0,0,1,5.64,1.48l-.9,2.35a7.84,7.84,0,0,0-4.47-1.45,4.41,4.41,0,0,0-2.5.65,2.72,2.72,0,0,0,0,4.41,16,16,0,0,0,2.92,1.43,11.48,11.48,0,0,1,4.28,2.52,4.68,4.68,0,0,1,1.09,3.23,5.3,5.3,0,0,1-2.15,4.48,7.74,7.74,0,0,1-4.8,1.45A13.2,13.2,0,0,1,232.55,482.18Z"/><path class="cls-2" d="M250.45,483.16V454.65h3v11.8a9.69,9.69,0,0,1,7.11-3.46c2.48,0,4.2.91,5.14,2.74.54,1.09.82,3.09.82,6v11.43h-3V471.67a14.42,14.42,0,0,0-.42-4.19c-.49-1.41-1.62-2.11-3.41-2.11q-3.22,0-6.27,3.71v14.08Z"/><path class="cls-2" d="M280.84,463a8.24,8.24,0,0,1,6.8,3.26,10.91,10.91,0,0,1,2.19,7,10.68,10.68,0,0,1-2.53,7.43,8.95,8.95,0,0,1-13.48-.42,10.92,10.92,0,0,1-2.19-7,10.63,10.63,0,0,1,2.53-7.4A8.53,8.53,0,0,1,280.84,463Zm-.19,2.38a5.16,5.16,0,0,0-4.76,2.91,10,10,0,0,0-1.14,5,9.64,9.64,0,0,0,1.37,5.37,5.19,5.19,0,0,0,4.61,2.54,5.26,5.26,0,0,0,4.84-2.92,10,10,0,0,0,1.14-5,9.68,9.68,0,0,0-1.37-5.37A5.32,5.32,0,0,0,280.65,465.37Z"/><path class="cls-2" d="M296.78,474.07a10,10,0,0,0,1.53,4.93,5.68,5.68,0,0,0,4.83,2.16,9.44,9.44,0,0,0,5.41-1.87l1.15,2.3a12.16,12.16,0,0,1-6.61,2,8.84,8.84,0,0,1-7.22-3.07,11,11,0,0,1-2.21-7.2c0-3.65,1-6.4,2.95-8.23a8,8,0,0,1,5.66-2.05q5.28,0,7.08,4.32a19,19,0,0,1,1.09,6.76Zm10.5-2.38a9,9,0,0,0-.77-3.67,4.44,4.44,0,0,0-4.34-2.65,4.75,4.75,0,0,0-4.4,2.61,8.22,8.22,0,0,0-.91,3.71Z"/><path class="cls-2" d="M314.17,482.18l.9-2.34a11.28,11.28,0,0,0,4.81,1.32,4.26,4.26,0,0,0,2.59-.82,3,3,0,0,0,1.18-2.54,2.53,2.53,0,0,0-.78-2,12.54,12.54,0,0,0-3.18-1.56,13.1,13.1,0,0,1-3.94-2.15,4.72,4.72,0,0,1-1.5-3.6,5.06,5.06,0,0,1,2-4.19,7.1,7.1,0,0,1,4.46-1.33,12.25,12.25,0,0,1,5.64,1.48l-.9,2.35a7.84,7.84,0,0,0-4.47-1.45,4.41,4.41,0,0,0-2.5.65,2.72,2.72,0,0,0,0,4.41,16,16,0,0,0,2.92,1.43,11.48,11.48,0,0,1,4.28,2.52,4.68,4.68,0,0,1,1.09,3.23,5.3,5.3,0,0,1-2.15,4.48,7.74,7.74,0,0,1-4.8,1.45A13.2,13.2,0,0,1,314.17,482.18Z"/><path class="cls-2" d="M342.89,483.16V465.77h-3.2v-2.38h3.2V461.5a10.12,10.12,0,0,1,1-5.08,4.86,4.86,0,0,1,4.51-2.17,10.74,10.74,0,0,1,2.8.4l-.28,2.57a4.72,4.72,0,0,0-2.33-.59,2.29,2.29,0,0,0-2.38,1.79,12.62,12.62,0,0,0-.32,3.33v1.64h4.66v2.38h-4.66v17.39Z"/><path class="cls-2" d="M362.69,463a8.25,8.25,0,0,1,6.8,3.26,10.91,10.91,0,0,1,2.19,7,10.68,10.68,0,0,1-2.53,7.43,8.95,8.95,0,0,1-13.48-.42,10.92,10.92,0,0,1-2.19-7,10.63,10.63,0,0,1,2.53-7.4A8.53,8.53,0,0,1,362.69,463Zm-.19,2.38a5.16,5.16,0,0,0-4.76,2.91,10,10,0,0,0-1.14,5,9.64,9.64,0,0,0,1.37,5.37,5.19,5.19,0,0,0,4.61,2.54,5.27,5.27,0,0,0,4.84-2.92,10,10,0,0,0,1.14-5,9.68,9.68,0,0,0-1.37-5.37A5.32,5.32,0,0,0,362.5,465.37Z"/><path class="cls-2" d="M377,483.16V471.88c0-2.49,0-5-.11-7.58l0-.91h2.76l.11,3.64a9.72,9.72,0,0,1,2.14-2.84,5,5,0,0,1,3.41-1.2,8.26,8.26,0,0,1,1.39.13l-.27,2.69a4.47,4.47,0,0,0-1.05-.14,4.8,4.8,0,0,0-3.86,2.21,11.56,11.56,0,0,0-1.53,2.76v12.52Z"/><path class="cls-2" d="M399.43,482.34l.4-2.73a19.67,19.67,0,0,0,6.59,1.35,5.78,5.78,0,0,0,4.07-1.37,4.42,4.42,0,0,0,1.43-3.44,4.06,4.06,0,0,0-1.2-3.11,17.63,17.63,0,0,0-4.3-2.4,23.59,23.59,0,0,1-5.2-2.85,5.84,5.84,0,0,1-2.06-4.73,7,7,0,0,1,1.47-4.51,6.93,6.93,0,0,1,3.12-2.11,10.78,10.78,0,0,1,3.85-.67A20.73,20.73,0,0,1,414,457l-.63,2.8a13.09,13.09,0,0,0-5.77-1.45,5.78,5.78,0,0,0-3.6,1.11,3.58,3.58,0,0,0-1.51,3,3.76,3.76,0,0,0,1,2.63,12.61,12.61,0,0,0,4.21,2.5,19.34,19.34,0,0,1,5.43,3.06,6.82,6.82,0,0,1,2.13,5.22,6.9,6.9,0,0,1-2.53,5.66,9.79,9.79,0,0,1-6.4,2A22.81,22.81,0,0,1,399.43,482.34Z"/><path class="cls-2" d="M420.83,483.16v-27H424v11.88h13V456.17h3.12v27h-3.12V470.62H424v12.54Z"/><path class="cls-2" d="M453.13,483.16l-9.41-27h3.43l6.3,18.49c.76,2.25,1.37,4.17,1.81,5.75q1.17-3.78,2-6.15l6.21-18.09h3.12l-9.39,27Z"/><path class="cls-2" d="M487.92,479.54l.78,2.49a20.17,20.17,0,0,1-7.26,1.51,11.79,11.79,0,0,1-8.95-3.58,14.17,14.17,0,0,1-3.63-10.1q0-7.16,4.36-11.18a11.49,11.49,0,0,1,8.07-2.91,17.57,17.57,0,0,1,7.26,1.68l-1,2.49a14.4,14.4,0,0,0-6.17-1.6,7.82,7.82,0,0,0-6.84,3.39,13.89,13.89,0,0,0-2.36,8.13,14.33,14.33,0,0,0,1.22,6,8.18,8.18,0,0,0,8.07,5.12A16.28,16.28,0,0,0,487.92,479.54Z"/><path class="cls-2" d="M503.84,465.77h-3.2v-2.38h3.2v-4.32l3-.63v4.95h4.66v2.38h-4.66v10.8a9,9,0,0,0,.42,3.35,2.27,2.27,0,0,0,2.25,1.24,5.66,5.66,0,0,0,2.28-.59l.27,2.36a9.85,9.85,0,0,1-3.22.61q-3,0-4.11-1.83a8.83,8.83,0,0,1-.86-4.55Z"/><path class="cls-2" d="M523.91,463a8.25,8.25,0,0,1,6.8,3.26,10.91,10.91,0,0,1,2.19,7,10.73,10.73,0,0,1-2.53,7.43,9,9,0,0,1-13.49-.42,10.92,10.92,0,0,1-2.19-7,10.64,10.64,0,0,1,2.54-7.4A8.53,8.53,0,0,1,523.91,463Zm-.19,2.38a5.15,5.15,0,0,0-4.76,2.91,10,10,0,0,0-1.14,5,9.55,9.55,0,0,0,1.37,5.37,5.45,5.45,0,0,0,9.44-.38,10,10,0,0,0,1.15-5,9.6,9.6,0,0,0-1.38-5.37A5.29,5.29,0,0,0,523.72,465.37Z"/><path class="cls-2" d="M553.84,463.39v13.33c0,3.07.06,5.22.16,6.44h-2.93L551,480q-3.27,3.56-7,3.55t-5-2.75q-.82-1.64-.82-6V463.39h3v11.48a14.21,14.21,0,0,0,.42,4.17,3.1,3.1,0,0,0,3.29,2.12c2.11,0,4.15-1.24,6.13-3.7V463.39Z"/><path class="cls-2" d="M560.68,483.16V471.88c0-2.49,0-5-.11-7.58l0-.91h2.76l.11,3.64a9.72,9.72,0,0,1,2.14-2.84A5,5,0,0,1,569,463a8.37,8.37,0,0,1,1.4.13l-.27,2.69a4.47,4.47,0,0,0-1.05-.14,4.8,4.8,0,0,0-3.86,2.21,11.56,11.56,0,0,0-1.53,2.76v12.52Z"/></g></g></svg>