<svg xmlns="http://www.w3.org/2000/svg" viewBox="0 0 490.93 97.93"><defs><style>.cls-1{fill:#004364;}.cls-2{fill:#434343;}</style></defs><title>资源 40</title><g id="图层_2" data-name="图层 2"><g id="图层_1-2" data-name="图层 1"><path class="cls-1" d="M0,29.16v-27H15.79V6H4.72v7.58H15.23v3.81H4.72v8H16.36v3.81Z"/><path class="cls-1" d="M26.49,29.16,19,9.27h4.72l4.11,11c.58,1.54,1.07,3,1.49,4.34.41-1.36.89-2.82,1.46-4.38l4-11H39.1L31.65,29.16Z"/><path class="cls-1" d="M46.05,20.66q.53,5.52,5.73,5.52a10.83,10.83,0,0,0,5.92-1.92l1.62,3.35a15.06,15.06,0,0,1-7.64,2c-3.5,0-6.15-1-8-2.93-1.63-1.76-2.45-4.23-2.45-7.39a10.8,10.8,0,0,1,2.78-7.86,8.84,8.84,0,0,1,6.74-2.57q6.3,0,8.19,4.87a20.8,20.8,0,0,1,1,7Zm9.23-3.22a7,7,0,0,0-.68-3,3.92,3.92,0,0,0-3.81-2.21,4.19,4.19,0,0,0-3.89,2.17,6.79,6.79,0,0,0-.82,3.06Z"/><path class="cls-1" d="M64.86,29.16V16.24c0-2,0-3.87-.11-5.69l-.06-1.28H69l.16,2.94a13.3,13.3,0,0,1,2.07-1.85,8.47,8.47,0,0,1,5-1.52q3.93,0,5.41,2.8c.59,1.07.88,2.93.88,5.56v12H77.91V17.42a10.21,10.21,0,0,0-.39-3.37,2.74,2.74,0,0,0-2.85-1.71q-2.79,0-5.26,3.37V29.16Z"/><path class="cls-1" d="M89.83,12.74h-3.2V9.27h3.2V5l4.55-.87V9.27h4.53v3.47H94.38V22a6.78,6.78,0,0,0,.4,2.8A2.3,2.3,0,0,0,97,25.94a6.61,6.61,0,0,0,2.16-.5l.4,3.49a13.5,13.5,0,0,1-4.06.66q-3.37,0-4.74-2.05-1-1.47-1-5.32Z"/><path class="cls-1" d="M124.45,1.73a11.13,11.13,0,0,1,9.21,4.08,15.3,15.3,0,0,1,3.17,9.86,14.81,14.81,0,0,1-3.74,10.5,11.43,11.43,0,0,1-8.78,3.42q-6.09,0-9.37-4.07a15.32,15.32,0,0,1-3.16-9.87q0-6.51,3.74-10.49Q118.73,1.74,124.45,1.73Zm-.25,3.81a6.44,6.44,0,0,0-5.64,3,12.37,12.37,0,0,0-1.84,7.1q0,4.86,2.19,7.58a7,7,0,0,0,11.14-.45,12.38,12.38,0,0,0,1.84-7.13q0-4.85-2.19-7.56A6.7,6.7,0,0,0,124.2,5.54Z"/><path class="cls-1" d="M142,29.16V16.76c0-2.5-.05-5-.17-7.49h4.29l.15,3.74Q148,8.95,151.53,9a7.3,7.3,0,0,1,1.73.23l-.27,4a7.18,7.18,0,0,0-1.56-.19A4.41,4.41,0,0,0,147.81,15a7.86,7.86,0,0,0-1.27,2.63V29.16Z"/><path class="cls-1" d="M169.64,9.25l4.38,0L174,10.63q-.15,4.06-.15,6.47v9.79a24.14,24.14,0,0,1-.42,5.24,6.76,6.76,0,0,1-3.81,4.7A12.9,12.9,0,0,1,163.94,38a17,17,0,0,1-7.73-1.77l1.45-3.39a11.56,11.56,0,0,0,5.94,1.72q3.66,0,5-2.52a11.56,11.56,0,0,0,.7-4.8V25.78a7.59,7.59,0,0,1-5.9,2.92A7.23,7.23,0,0,1,157.5,26a10.91,10.91,0,0,1-2.13-7.13,11.45,11.45,0,0,1,2.21-7.27A7.5,7.5,0,0,1,169.5,12ZM169.25,16a6.8,6.8,0,0,0-1.4-2.12,4.74,4.74,0,0,0-3.41-1.54,3.64,3.64,0,0,0-3.36,2.08,9.12,9.12,0,0,0-1,4.47,8.18,8.18,0,0,0,1,4.34,3.76,3.76,0,0,0,3.41,2,4.77,4.77,0,0,0,3.43-1.6,7.35,7.35,0,0,0,1.27-1.79Z"/><path class="cls-1" d="M191.13,26.89a10,10,0,0,1-2,1.66,8.12,8.12,0,0,1-4.17,1A6.48,6.48,0,0,1,180.26,28a5.8,5.8,0,0,1-1.68-4.38,5.9,5.9,0,0,1,3-5.49c1.27-.74,3.27-1.1,6-1.1.8,0,1.89,0,3.28.11v-.36q0-4.53-4.4-4.53a11,11,0,0,0-5.37,1.65l-1.22-3.27a15.48,15.48,0,0,1,7.18-1.75q4.81,0,6.89,2.59a7.2,7.2,0,0,1,1.35,3.63,29.19,29.19,0,0,1,.12,3.09v5.94c0,2.11.06,3.8.19,5.07h-4.32ZM190.89,20c-.76-.07-1.45-.1-2.06-.1q-5.52,0-5.52,3.62a2.88,2.88,0,0,0,3.06,3c1.76,0,3.26-.93,4.52-2.78Z"/><path class="cls-1" d="M201.93,29.16V16.24c0-2,0-3.87-.11-5.69l-.06-1.28H206l.16,2.94a13.3,13.3,0,0,1,2.07-1.85,8.47,8.47,0,0,1,5-1.52q3.93,0,5.41,2.8c.59,1.07.88,2.93.88,5.56v12H215V17.42a10.21,10.21,0,0,0-.39-3.37,2.74,2.74,0,0,0-2.85-1.71q-2.79,0-5.26,3.37V29.16Z"/><path class="cls-1" d="M228.13,0a2.72,2.72,0,0,1,2.14.93,2.86,2.86,0,0,1,.66,1.91,2.82,2.82,0,0,1-.66,1.88,3,3,0,0,1-4.34,0,2.72,2.72,0,0,1-.67-1.88,2.78,2.78,0,0,1,.67-1.91A2.81,2.81,0,0,1,228.13,0Zm-2.34,29.16V9.27h4.55V29.16Z"/><path class="cls-1" d="M234.69,29.16V26.09l9.77-13.35H235.2V9.27h14.87v3.22l-9.69,13.2h10v3.47Z"/><path class="cls-1" d="M265.65,26.89a10.24,10.24,0,0,1-2,1.66,8.12,8.12,0,0,1-4.17,1A6.45,6.45,0,0,1,254.78,28a5.8,5.8,0,0,1-1.68-4.38,5.9,5.9,0,0,1,3-5.49c1.27-.74,3.27-1.1,6-1.1.8,0,1.89,0,3.27.11v-.36c0-3-1.46-4.53-4.4-4.53a11,11,0,0,0-5.37,1.65l-1.21-3.27a15.44,15.44,0,0,1,7.17-1.75c3.22,0,5.51.86,6.9,2.59a7.2,7.2,0,0,1,1.35,3.63,29.8,29.8,0,0,1,.11,3.09v5.94c0,2.11.07,3.8.19,5.07h-4.32ZM265.4,20c-.76-.07-1.44-.1-2-.1q-5.53,0-5.53,3.62a2.88,2.88,0,0,0,3.07,3,5.41,5.41,0,0,0,4.51-2.78Z"/><path class="cls-1" d="M277.5,12.74h-3.2V9.27h3.2V5l4.55-.87V9.27h4.53v3.47h-4.53V22a6.78,6.78,0,0,0,.4,2.8,2.29,2.29,0,0,0,2.26,1.16,6.57,6.57,0,0,0,2.15-.5l.4,3.49a13.44,13.44,0,0,1-4.05.66q-3.37,0-4.74-2.05-1-1.47-1-5.32Z"/><path class="cls-1" d="M293.28,0a2.69,2.69,0,0,1,2.13.93,2.82,2.82,0,0,1,.67,1.91,2.78,2.78,0,0,1-.67,1.88,3,3,0,0,1-4.34,0,2.77,2.77,0,0,1-.66-1.88,2.83,2.83,0,0,1,.66-1.91A2.84,2.84,0,0,1,293.28,0Zm-2.34,29.16V9.27h4.55V29.16Z"/><path class="cls-1" d="M310.27,8.84a9,9,0,0,1,7.27,3.1,11,11,0,0,1,2.34,7.27A10.64,10.64,0,0,1,317.12,27a9.29,9.29,0,0,1-7,2.64,9.1,9.1,0,0,1-7.38-3.1,11,11,0,0,1-2.35-7.29,10.52,10.52,0,0,1,2.77-7.72A9.4,9.4,0,0,1,310.27,8.84Zm-.19,3.46A4.32,4.32,0,0,0,306,14.91a9.28,9.28,0,0,0-.89,4.3,9.14,9.14,0,0,0,1.06,4.65,4.57,4.57,0,0,0,8.08-.34,9.42,9.42,0,0,0,.89-4.31,9,9,0,0,0-1.06-4.64A4.41,4.41,0,0,0,310.08,12.3Z"/><path class="cls-1" d="M324.87,29.16V16.24c0-2,0-3.87-.11-5.69l-.06-1.28H329l.15,2.94a13.77,13.77,0,0,1,2.07-1.85,8.48,8.48,0,0,1,5-1.52q3.92,0,5.4,2.8c.59,1.07.88,2.93.88,5.56v12h-4.55V17.42a10.56,10.56,0,0,0-.38-3.37,2.76,2.76,0,0,0-2.86-1.71q-2.78,0-5.25,3.37V29.16Z"/><path class="cls-1" d="M361.55,9.48a2.88,2.88,0,0,1,2.15.9,3,3,0,0,1,.84,2.13,2.92,2.92,0,0,1-.84,2.13,3.11,3.11,0,0,1-4.38,0,2.92,2.92,0,0,1-.84-2.13,2.89,2.89,0,0,1,.84-2.13A3,3,0,0,1,361.55,9.48Zm0,14.06a3,3,0,1,1-2.23.89A3.05,3.05,0,0,1,361.55,23.54Z"/><path class="cls-2" d="M.17,89.16v-27h6a31.48,31.48,0,0,1,5.22.36,9.38,9.38,0,0,1,6.72,4.55,16.37,16.37,0,0,1,2,8.42q0,8.13-4.8,11.54a12.45,12.45,0,0,1-6,2c-.94.09-2.13.14-3.58.14Zm3.12-2.58H6c3.2,0,5.58-.57,7.16-1.73a8.45,8.45,0,0,0,2.84-4,14.71,14.71,0,0,0,.81-5.12,14.26,14.26,0,0,0-1.77-7.41,6.75,6.75,0,0,0-5-3.31,29.07,29.07,0,0,0-4.55-.25H3.29Z"/><path class="cls-2" d="M27.27,80.07A10,10,0,0,0,28.79,85a5.71,5.71,0,0,0,4.84,2.16A9.44,9.44,0,0,0,39,85.29l1.14,2.3a12.16,12.16,0,0,1-6.61,2,8.82,8.82,0,0,1-7.21-3.07,10.94,10.94,0,0,1-2.21-7.2c0-3.65,1-6.4,3-8.23A8,8,0,0,1,32.75,69q5.28,0,7.09,4.32a19.24,19.24,0,0,1,1.08,6.76Zm10.49-2.38A8.84,8.84,0,0,0,37,74a4.44,4.44,0,0,0-4.34-2.65A4.74,4.74,0,0,0,28.26,74a8.09,8.09,0,0,0-.91,3.71Z"/><path class="cls-2" d="M48.79,89.16H46l0-.71q.14-3.74.13-6.49V60.65h3V72.11A7,7,0,0,1,54.94,69a6.86,6.86,0,0,1,5.68,2.93,11.62,11.62,0,0,1,2.11,7.2A12,12,0,0,1,60.25,87a6.81,6.81,0,0,1-5.46,2.53,6.14,6.14,0,0,1-4-1.35,12.84,12.84,0,0,1-1.89-2Zm.32-5.7a12.24,12.24,0,0,0,1.53,2,4.92,4.92,0,0,0,3.67,1.67,4.4,4.4,0,0,0,4.1-2.51,11.21,11.21,0,0,0,1.2-5.45,10.53,10.53,0,0,0-1.41-5.73,4.28,4.28,0,0,0-3.85-2.11q-3.33,0-5.24,3.71Z"/><path class="cls-2" d="M70.67,89.16h-2.8l0-.71Q68,84.71,68,82V60.65h3V72.11A7,7,0,0,1,76.82,69a6.86,6.86,0,0,1,5.68,2.93,11.55,11.55,0,0,1,2.11,7.2A12,12,0,0,1,82.13,87a6.81,6.81,0,0,1-5.46,2.53,6.14,6.14,0,0,1-4-1.35,12.41,12.41,0,0,1-1.88-2Zm.32-5.7a12.82,12.82,0,0,0,1.53,2,4.92,4.92,0,0,0,3.67,1.67,4.4,4.4,0,0,0,4.1-2.51,11.21,11.21,0,0,0,1.2-5.45,10.53,10.53,0,0,0-1.41-5.73,4.28,4.28,0,0,0-3.85-2.11q-3.33,0-5.24,3.71Z"/><path class="cls-2" d="M91.41,60.27a1.92,1.92,0,0,1,1.67.82,2.26,2.26,0,0,1,0,2.57,2,2,0,0,1-1.71.82,2,2,0,0,1-1.69-.82,2.26,2.26,0,0,1,0-2.57A2,2,0,0,1,91.41,60.27ZM89.9,89.16V69.39h3V89.16Z"/><path class="cls-2" d="M101.29,80.07A10,10,0,0,0,102.82,85a5.68,5.68,0,0,0,4.83,2.16,9.44,9.44,0,0,0,5.41-1.87l1.14,2.3a12.14,12.14,0,0,1-6.61,2,8.84,8.84,0,0,1-7.21-3.07,11,11,0,0,1-2.21-7.2c0-3.65,1-6.4,3-8.23A8,8,0,0,1,106.78,69q5.27,0,7.08,4.32A19.45,19.45,0,0,1,115,80.07Zm10.49-2.38A8.84,8.84,0,0,0,111,74a4.44,4.44,0,0,0-4.34-2.65,4.75,4.75,0,0,0-4.4,2.61,8.09,8.09,0,0,0-.91,3.71Z"/><path class="cls-2" d="M134.26,62.17h3.12V80.34a22.55,22.55,0,0,1-.31,4.45q-1,4.75-6.53,4.75a11.93,11.93,0,0,1-4.24-.77l.26-2.59a8.72,8.72,0,0,0,3.68.78c1.88,0,3-.63,3.52-1.9a22.32,22.32,0,0,0,.5-6.09Z"/><path class="cls-2" d="M145.53,60.27a2,2,0,0,1,1.68.82,2.26,2.26,0,0,1,0,2.57,2,2,0,0,1-1.72.82,2,2,0,0,1-1.69-.82,2.26,2.26,0,0,1,0-2.57A2,2,0,0,1,145.53,60.27ZM144,89.16V69.39h3V89.16Z"/><path class="cls-2" d="M164.25,86.85a7.8,7.8,0,0,1-5.9,2.69,6.2,6.2,0,0,1-4.75-1.76,5.7,5.7,0,0,1-1.44-4.07q0-6.54,9-6.53c.48,0,1.45,0,2.91.07v-.53a7.75,7.75,0,0,0-.55-3.29c-.66-1.38-2-2.06-3.92-2.06a9.65,9.65,0,0,0-5.11,1.71L153.15,71a12.17,12.17,0,0,1,6.72-2q4.5,0,6.15,2.68a8,8,0,0,1,.91,3.66c0,.57.06,1.38.06,2.44v6.45c0,2,0,3.68.15,4.94h-2.76ZM164,79.52c-.72,0-1.46-.08-2.21-.08a9.64,9.64,0,0,0-4.63.84,3.59,3.59,0,0,0-1.9,3.35,3.45,3.45,0,0,0,.95,2.55,3.61,3.61,0,0,0,2.65,1,6,6,0,0,0,5.14-3Z"/><path class="cls-2" d="M173.79,89.16V75.83q0-4.52-.15-6.44h2.93l.11,3.14a15.77,15.77,0,0,1,2.12-1.9A8.39,8.39,0,0,1,183.86,69c2.5,0,4.22.91,5.14,2.74q.83,1.63.82,6V89.16h-3V77.67a14.42,14.42,0,0,0-.42-4.19c-.49-1.41-1.63-2.11-3.41-2.11q-3.2,0-6.26,3.71V89.16Z"/><path class="cls-2" d="M208.87,69.39h2.89c-.1,3.19-.15,5.78-.15,7.79v9.88a24.62,24.62,0,0,1-.4,5.08,7.09,7.09,0,0,1-3.12,4.42,8.8,8.8,0,0,1-5,1.37,14.07,14.07,0,0,1-7.49-2.15l1.28-2.28a10.74,10.74,0,0,0,6.13,2,4.92,4.92,0,0,0,4.84-2.81,13.78,13.78,0,0,0,.76-5.41V85.69a8,8,0,0,1-6,3.12,6.8,6.8,0,0,1-5.5-2.68A10.76,10.76,0,0,1,195,79.06a11.49,11.49,0,0,1,2.4-7.67,6.58,6.58,0,0,1,5.31-2.4,6.85,6.85,0,0,1,6.09,3.43Zm-.23,5.81c-1.35-2.56-3.13-3.83-5.35-3.83a4.37,4.37,0,0,0-4,2.4,10.56,10.56,0,0,0-1.2,5.25,9.58,9.58,0,0,0,1.26,5.09,4.53,4.53,0,0,0,4.07,2.32q3.18,0,5.24-3.48Z"/><path class="cls-2" d="M231.24,70.44a2.21,2.21,0,0,1,1.58.62,2.39,2.39,0,0,1,0,3.36,2.26,2.26,0,0,1-1.62.62,2.29,2.29,0,0,1-1.62-.62,2.32,2.32,0,0,1-.68-1.68,2.28,2.28,0,0,1,.68-1.68A2.37,2.37,0,0,1,231.24,70.44Zm0,14.49a2.18,2.18,0,0,1,1.58.63,2.22,2.22,0,0,1,.69,1.67,2.29,2.29,0,0,1-.69,1.68,2.22,2.22,0,0,1-1.62.63,2.26,2.26,0,0,1-1.62-.63,2.32,2.32,0,0,1-.68-1.68,2.25,2.25,0,0,1,.68-1.67A2.34,2.34,0,0,1,231.24,84.93Z"/><path class="cls-2" d="M256.7,89.16V65.56l-5.5,3.5-1.32-2.38L257,62.17h2.7v27Z"/><path class="cls-2" d="M276.51,75.16A11.91,11.91,0,0,1,273,73a6,6,0,0,1-1.72-4.44,5.91,5.91,0,0,1,2.34-5,9.42,9.42,0,0,1,5.93-1.77,9.67,9.67,0,0,1,6,1.79,6.27,6.27,0,0,1-.11,9.71,17.69,17.69,0,0,1-2.61,1.53A12.94,12.94,0,0,1,286.47,77a6.22,6.22,0,0,1,2.07,4.91A6.88,6.88,0,0,1,286,87.54a10.12,10.12,0,0,1-6.57,2A10.33,10.33,0,0,1,273,87.61a6.39,6.39,0,0,1-2.57-5.39Q270.38,77,276.51,75.16Zm2.74,1.06q-5.72,1.69-5.71,5.87a4.34,4.34,0,0,0,1.67,3.62A6.68,6.68,0,0,0,279.48,87a6.44,6.44,0,0,0,4.26-1.39,4.25,4.25,0,0,0,1.64-3.45,4.83,4.83,0,0,0-2.46-4.15,20.07,20.07,0,0,0-2.45-1.29C279.69,76.4,279.29,76.22,279.25,76.22Zm1.12-2.43.34-.17q3.94-2,4-5.05a3.76,3.76,0,0,0-1.39-3.14,6.79,6.79,0,0,0-7.47-.08,3.7,3.7,0,0,0-1.45,3.16,4.23,4.23,0,0,0,2.52,3.72A25.33,25.33,0,0,0,280.37,73.79Z"/><path class="cls-2" d="M294.86,89.5,295,87c.63.06,1.16.08,1.58.08q9.18,0,10.51-11a7.9,7.9,0,0,1-6.49,3.12,8.14,8.14,0,0,1-4.56-1.33c-2.26-1.5-3.39-3.88-3.39-7.16a8.5,8.5,0,0,1,8.9-8.95q4.89,0,7.1,3.49a14.06,14.06,0,0,1,1.83,7.67,21.36,21.36,0,0,1-2.23,10,11.55,11.55,0,0,1-5.66,5.46,15.4,15.4,0,0,1-6.11,1.11Zm6.57-25.23a5.29,5.29,0,0,0-4,1.65,6.42,6.42,0,0,0-1.57,4.57,6.65,6.65,0,0,0,1.45,4.5,5.26,5.26,0,0,0,4.12,1.73A5.48,5.48,0,0,0,305.6,75a6.35,6.35,0,0,0,1.58-4.55,6.32,6.32,0,0,0-1.56-4.54A5.53,5.53,0,0,0,301.43,64.27Z"/><path class="cls-2" d="M324.11,89.16V65.56l-5.5,3.5-1.31-2.38,7.12-4.51h2.7v27Z"/><path class="cls-2" d="M347,61.77q9.15,0,9.14,13.88t-9.29,13.89q-9.27,0-9.27-13.91c0-4.13.58-7.31,1.75-9.52Q341.64,61.78,347,61.77Zm-.22,2.57q-3.5,0-5,3.6a21.05,21.05,0,0,0-1.06,7.71c0,3.79.44,6.54,1.31,8.27a5.08,5.08,0,0,0,4.82,3,5.18,5.18,0,0,0,5.05-3.59A21.22,21.22,0,0,0,353,75.62q0-5.67-1.31-8.23A5.14,5.14,0,0,0,346.78,64.34Z"/><path class="cls-2" d="M366.22,89.16h-3.43l11.94-24.42H360.41V62.17h17.52v2.57Z"/><path class="cls-2" d="M391.53,89.16V65.56L386,69.06l-1.31-2.38,7.12-4.51h2.71v27Z"/><path class="cls-2" d="M421.33,61.81l-.15,2.53c-.68,0-1.23-.07-1.66-.07q-9.11,0-10.44,11a7.91,7.91,0,0,1,6.52-3.12,8.17,8.17,0,0,1,4.53,1.33c2.26,1.49,3.39,3.86,3.39,7.13a8.51,8.51,0,0,1-8.9,9c-3.26,0-5.63-1.17-7.1-3.49a14.06,14.06,0,0,1-1.83-7.67,21.46,21.46,0,0,1,2.23-10q3.46-6.57,11.64-6.57Zm-6.63,12.8a5.37,5.37,0,0,0-4.11,1.71,7.36,7.36,0,0,0,0,9.06,6,6,0,0,0,8.26,0,6.4,6.4,0,0,0,1.55-4.53,6.55,6.55,0,0,0-1.45-4.51A5.36,5.36,0,0,0,414.7,74.61Z"/><path class="cls-2" d="M433.63,89.16H430.2l11.94-24.42H427.82V62.17h17.52v2.57Z"/><path class="cls-2" d="M450.39,88.32l.7-2.52a18.44,18.44,0,0,0,6.31,1.26,6.72,6.72,0,0,0,4.89-1.66,5.24,5.24,0,0,0,1.66-4q0-5.3-8.52-5.29c-.49,0-1,0-1.5.08V73.63a14,14,0,0,0,1.62.08,11,11,0,0,0,5.37-1.12,4.53,4.53,0,0,0,2.66-4.1,3.65,3.65,0,0,0-1.44-3,6.43,6.43,0,0,0-4.08-1.18,16.88,16.88,0,0,0-6.19,1.31l-.59-2.53a20.7,20.7,0,0,1,7.05-1.28,9.74,9.74,0,0,1,6.32,1.89,5.61,5.61,0,0,1,2.1,4.57,6.1,6.1,0,0,1-2.92,5.48,9,9,0,0,1-3.14,1.16,7.6,7.6,0,0,1,4.27,1.6,6.28,6.28,0,0,1,2.15,5,7.25,7.25,0,0,1-2.9,6,10.45,10.45,0,0,1-6.6,2A22.63,22.63,0,0,1,450.39,88.32Z"/><path class="cls-2" d="M488.74,61.81l-.15,2.53c-.67,0-1.23-.07-1.66-.07q-9.1,0-10.43,11A7.91,7.91,0,0,1,483,72.11a8.17,8.17,0,0,1,4.53,1.33c2.26,1.49,3.39,3.86,3.39,7.13a8.49,8.49,0,0,1-8.89,9c-3.27,0-5.63-1.17-7.11-3.49a14.07,14.07,0,0,1-1.82-7.67,21.45,21.45,0,0,1,2.22-10q3.46-6.57,11.64-6.57Zm-6.63,12.8A5.39,5.39,0,0,0,478,76.32a7.36,7.36,0,0,0,0,9.06,6,6,0,0,0,8.27,0,7.58,7.58,0,0,0,.09-9A5.36,5.36,0,0,0,482.11,74.61Z"/></g></g></svg>