<svg xmlns="http://www.w3.org/2000/svg" viewBox="0 0 896.22 283.57"><defs><style>.cls-1{fill:#dae4ee;}.cls-2{fill:#434343;}.cls-3{fill:#4e217a;}</style></defs><title>资源 43</title><g id="图层_2" data-name="图层 2"><g id="图层_1-2" data-name="图层 1"><rect class="cls-1" width="896.22" height="85.15"/><rect class="cls-1" y="99.21" width="896.22" height="85.15"/><rect class="cls-1" y="198.42" width="896.22" height="85.15"/><path class="cls-2" d="M36.27,46.18C36.13,43.53,36,40.33,36,38H35.9c-.65,2.23-1.44,4.61-2.4,7.24l-3.37,9.24H28.27l-3.08-9.08c-.9-2.68-1.67-5.14-2.2-7.4h-.06c-.06,2.37-.2,5.57-.37,8.42l-.51,8.17H19.71L21,35.5h3.13l3.25,9.22c.79,2.34,1.44,4.43,1.92,6.41h.09c.48-1.92,1.16-4,2-6.41l3.4-9.22H38l1.19,19h-2.4Z"/><path class="cls-2" d="M50.59,54.55l-.2-1.72h-.08a5.09,5.09,0,0,1-4.18,2,3.9,3.9,0,0,1-4.19-3.93c0-3.3,2.94-5.11,8.23-5.08v-.29a2.82,2.82,0,0,0-3.11-3.16,6.74,6.74,0,0,0-3.56,1l-.57-1.64a8.45,8.45,0,0,1,4.5-1.22c4.18,0,5.2,2.86,5.2,5.6v5.11a19.24,19.24,0,0,0,.22,3.28Zm-.37-7c-2.71-.06-5.79.42-5.79,3.08A2.2,2.2,0,0,0,46.78,53a3.39,3.39,0,0,0,3.3-2.29,2.39,2.39,0,0,0,.14-.79Z"/><path class="cls-2" d="M57.31,40.87l3,8.08c.31.91.65,2,.88,2.8h.05c.26-.82.54-1.86.88-2.85l2.71-8h2.63l-3.73,9.75c-1.78,4.69-3,7.09-4.69,8.56a6.67,6.67,0,0,1-3,1.61l-.63-2.09a6.34,6.34,0,0,0,2.18-1.21,7.51,7.51,0,0,0,2.09-2.77,1.92,1.92,0,0,0,.2-.59,2.2,2.2,0,0,0-.17-.65L54.6,40.87Z"/><path class="cls-2" d="M80.31,38.5h0l-3.2,1.72-.48-1.89,4-2.15h2.12V54.55H80.31Z"/><path class="cls-2" d="M89.18,49.89c0-2.32,1.39-4,3.65-4.92l0-.09a4.55,4.55,0,0,1-2.91-4.12c0-2.91,2.46-4.89,5.68-4.89,3.56,0,5.34,2.23,5.34,4.52a4.67,4.67,0,0,1-3,4.3v.08c2.29.91,3.7,2.52,3.7,4.75,0,3.19-2.74,5.34-6.25,5.34C91.5,54.86,89.18,52.57,89.18,49.89Zm9.89-.12c0-2.23-1.55-3.3-4-4-2.15.62-3.3,2-3.3,3.79a3.39,3.39,0,0,0,3.67,3.5C97.63,53.05,99.07,51.67,99.07,49.77Zm-6.83-9.18c0,1.84,1.38,2.83,3.5,3.39a3.63,3.63,0,0,0,2.8-3.33,2.86,2.86,0,0,0-3.11-3A2.92,2.92,0,0,0,92.24,40.59Z"/><path class="cls-2" d="M103.44,44.73l.37-1a4.84,4.84,0,0,0,2,.56,1.78,1.78,0,0,0,1.09-.35,1.23,1.23,0,0,0,.5-1.07,1.08,1.08,0,0,0-.33-.84,5.7,5.7,0,0,0-1.34-.66,5.52,5.52,0,0,1-1.67-.9,2,2,0,0,1-.63-1.53,2.12,2.12,0,0,1,.86-1.76,3,3,0,0,1,1.88-.57,5.14,5.14,0,0,1,2.38.63l-.38,1a3.29,3.29,0,0,0-1.89-.61,1.91,1.91,0,0,0-1,.27,1.06,1.06,0,0,0-.48,1,1.09,1.09,0,0,0,.47.92,7,7,0,0,0,1.23.6,5,5,0,0,1,1.81,1.06,2,2,0,0,1,.46,1.37,2.23,2.23,0,0,1-.91,1.89,3.22,3.22,0,0,1-2,.61A5.54,5.54,0,0,1,103.44,44.73Z"/><path class="cls-2" d="M111.45,37.8H110.1v-1h1.35V35l1.25-.27v2.09h2v1h-2v4.56a3.7,3.7,0,0,0,.18,1.41,1,1,0,0,0,1,.53,2.44,2.44,0,0,0,1-.25l.12,1a3.92,3.92,0,0,1-1.36.26,1.89,1.89,0,0,1-1.74-.77,3.78,3.78,0,0,1-.36-1.92Z"/><path class="cls-2" d="M122.69,34.94a18.65,18.65,0,0,0-3.56,11.56A19,19,0,0,0,122.69,58h-2A18.27,18.27,0,0,1,117,46.5a18.59,18.59,0,0,1,3.7-11.56Z"/><path class="cls-2" d="M129.92,54.55l-4.83-19h2.6L130,45.14c.56,2.37,1.07,4.75,1.41,6.58h.06c.31-1.89.9-4.15,1.55-6.61l2.55-9.61h2.57l2.31,9.67c.54,2.26,1,4.52,1.33,6.53h.06c.39-2.1.93-4.21,1.53-6.59l2.51-9.61h2.52l-5.4,19h-2.57L138,44.63a59.66,59.66,0,0,1-1.24-6.22h-.06a58.31,58.31,0,0,1-1.46,6.22l-2.72,9.92Z"/><path class="cls-2" d="M151.08,48.16c.06,3.37,2.21,4.75,4.69,4.75a8.93,8.93,0,0,0,3.79-.71L160,54a11,11,0,0,1-4.55.85c-4.22,0-6.73-2.77-6.73-6.89s2.43-7.38,6.41-7.38c4.47,0,5.66,3.93,5.66,6.44a8.78,8.78,0,0,1-.09,1.16Zm7.29-1.78c0-1.58-.65-4-3.44-4-2.52,0-3.62,2.32-3.82,4Z"/><path class="cls-2" d="M175.67,34.49V51c0,1.21,0,2.6.11,3.53h-2.23l-.12-2.37h-.05a5.07,5.07,0,0,1-4.66,2.68c-3.31,0-5.85-2.8-5.85-7,0-4.55,2.79-7.35,6.13-7.35a4.57,4.57,0,0,1,4.12,2.09h.06V34.49Zm-2.49,11.95a4.68,4.68,0,0,0-.11-1,3.67,3.67,0,0,0-3.59-2.88c-2.57,0-4.1,2.26-4.1,5.29,0,2.77,1.36,5.05,4,5.05a3.75,3.75,0,0,0,3.65-3,4.6,4.6,0,0,0,.11-1.08Z"/><path class="cls-2" d="M179.79,44.57c0-1.41,0-2.57-.11-3.7h2.2l.14,2.26h.06a5,5,0,0,1,4.52-2.57c1.89,0,4.83,1.13,4.83,5.82v8.17H189V46.66c0-2.2-.82-4-3.17-4a3.52,3.52,0,0,0-3.33,2.55,3.38,3.38,0,0,0-.17,1.16v8.22h-2.49Z"/><path class="cls-2" d="M196.86,48.16c0,3.37,2.2,4.75,4.69,4.75a8.87,8.87,0,0,0,3.78-.71l.43,1.78a11,11,0,0,1-4.55.85c-4.21,0-6.73-2.77-6.73-6.89s2.43-7.38,6.42-7.38c4.46,0,5.65,3.93,5.65,6.44a8.78,8.78,0,0,1-.09,1.16Zm7.29-1.78c0-1.58-.65-4-3.45-4-2.52,0-3.62,2.32-3.82,4Z"/><path class="cls-2" d="M209.29,52a6.49,6.49,0,0,0,3.28,1c1.8,0,2.65-.9,2.65-2s-.7-1.84-2.54-2.51c-2.46-.88-3.62-2.24-3.62-3.88,0-2.2,1.78-4,4.72-4a6.81,6.81,0,0,1,3.36.85l-.62,1.81a5.31,5.31,0,0,0-2.8-.79c-1.46,0-2.29.84-2.29,1.86s.83,1.64,2.61,2.32c2.37.9,3.58,2.09,3.58,4.12,0,2.41-1.86,4.1-5.11,4.1a7.83,7.83,0,0,1-3.84-.93Z"/><path class="cls-2" d="M232.63,34.49V51c0,1.21,0,2.6.11,3.53h-2.23l-.12-2.37h0a5.06,5.06,0,0,1-4.66,2.68c-3.31,0-5.85-2.8-5.85-7,0-4.55,2.79-7.35,6.13-7.35a4.57,4.57,0,0,1,4.12,2.09h.06V34.49Zm-2.49,11.95a4.68,4.68,0,0,0-.11-1,3.67,3.67,0,0,0-3.59-2.88c-2.57,0-4.1,2.26-4.1,5.29,0,2.77,1.36,5.05,4,5.05a3.74,3.74,0,0,0,3.65-3,4.6,4.6,0,0,0,.11-1.08Z"/><path class="cls-2" d="M244.32,54.55l-.19-1.72H244a5.09,5.09,0,0,1-4.18,2,3.89,3.89,0,0,1-4.18-3.93c0-3.3,2.94-5.11,8.22-5.08v-.29a2.82,2.82,0,0,0-3.11-3.16,6.74,6.74,0,0,0-3.56,1l-.56-1.64a8.44,8.44,0,0,1,4.49-1.22c4.18,0,5.2,2.86,5.2,5.6v5.11a19.17,19.17,0,0,0,.23,3.28Zm-.36-7c-2.72-.06-5.8.42-5.8,3.08A2.2,2.2,0,0,0,240.51,53a3.41,3.41,0,0,0,3.31-2.29,2.68,2.68,0,0,0,.14-.79Z"/><path class="cls-2" d="M251.05,40.87,254,49c.31.91.65,2,.88,2.8H255c.26-.82.54-1.86.88-2.85l2.71-8h2.63l-3.73,9.75c-1.78,4.69-3,7.09-4.69,8.56a6.67,6.67,0,0,1-3.05,1.61l-.62-2.09a6.4,6.4,0,0,0,2.17-1.21,7.51,7.51,0,0,0,2.09-2.77,1.68,1.68,0,0,0,.2-.59,1.92,1.92,0,0,0-.17-.65l-5.06-12.61Z"/><path class="cls-2" d="M262,58a19.11,19.11,0,0,0,3.56-11.56A18.69,18.69,0,0,0,262,34.94h1.92a18,18,0,0,1,3.71,11.5A18.33,18.33,0,0,1,263.87,58Z"/><path class="cls-2" d="M461.55,53.93a12.23,12.23,0,0,1-5,.9c-5.37,0-9.41-3.39-9.41-9.63,0-6,4-10,9.95-10a10.19,10.19,0,0,1,4.52.85l-.6,2a8.82,8.82,0,0,0-3.84-.8c-4.46,0-7.43,2.86-7.43,7.86,0,4.66,2.68,7.66,7.32,7.66a9.83,9.83,0,0,0,4-.79Z"/><path class="cls-2" d="M464.54,34.49H467V54.55h-2.49Z"/><path class="cls-2" d="M483.59,47.6c0,5.06-3.51,7.26-6.81,7.26-3.71,0-6.56-2.71-6.56-7,0-4.57,3-7.26,6.78-7.26C480.93,40.56,483.59,43.42,483.59,47.6Zm-10.85.14c0,3,1.72,5.25,4.15,5.25s4.16-2.23,4.16-5.31c0-2.32-1.16-5.25-4.1-5.25S472.74,45.14,472.74,47.74Z"/><path class="cls-2" d="M498.17,50.82c0,1.41,0,2.66.11,3.73h-2.2l-.15-2.23h-.05a5.15,5.15,0,0,1-4.52,2.54c-2.15,0-4.72-1.19-4.72-6v-8h2.48v7.58c0,2.6.79,4.35,3.06,4.35a3.59,3.59,0,0,0,3.27-2.26,3.46,3.46,0,0,0,.23-1.27v-8.4h2.49Z"/><path class="cls-2" d="M514.1,34.49V51c0,1.21,0,2.6.12,3.53H512l-.11-2.37h-.06a5.06,5.06,0,0,1-4.66,2.68c-3.31,0-5.85-2.8-5.85-7,0-4.55,2.8-7.35,6.13-7.35a4.58,4.58,0,0,1,4.13,2.09h.06V34.49Zm-2.48,11.95a4.18,4.18,0,0,0-.12-1,3.65,3.65,0,0,0-3.59-2.88c-2.57,0-4.09,2.26-4.09,5.29,0,2.77,1.35,5.05,4,5.05a3.74,3.74,0,0,0,3.64-3,4.11,4.11,0,0,0,.12-1.08Z"/><path class="cls-2" d="M519.13,40.87l3,8.08c.31.91.65,2,.87,2.8h.06c.25-.82.54-1.86.87-2.85l2.72-8h2.63l-3.73,9.75c-1.79,4.69-3,7.09-4.7,8.56a6.62,6.62,0,0,1-3.05,1.61l-.62-2.09a6.52,6.52,0,0,0,2.18-1.21,7.73,7.73,0,0,0,2.09-2.77,1.92,1.92,0,0,0,.2-.59,2.2,2.2,0,0,0-.17-.65l-5.06-12.61Z"/><path class="cls-2" d="M609.58,38.5h-.06l-3.19,1.72-.48-1.89,4-2.15H612V54.55h-2.4Z"/><path class="cls-2" d="M630.6,36.18v1.64l-8,16.73H620l8-16.25v-.06h-9V36.18Z"/><path class="cls-2" d="M638.54,35.56A1.54,1.54,0,1,1,640.15,34,1.54,1.54,0,0,1,638.54,35.56Zm0-2.77a1.22,1.22,0,1,0,0,2.43A1.22,1.22,0,0,0,639.81,34,1.25,1.25,0,0,0,638.54,32.79Zm16.56,16.9a7.83,7.83,0,0,1-6.84,3.87,8.94,8.94,0,0,1-9.13-9.32c0-6.19,4.61-10.07,9.07-10.07a15.89,15.89,0,0,1,5.6.8l.53,3.67-.62.06c-1-2.91-2.82-3.62-5.39-3.62-3.74,0-7.13,3.19-7.13,9.3,0,5,3.48,8.28,7.58,8.28a6.77,6.77,0,0,0,5.73-3.39Z"/><path class="cls-2" d="M660.12,55.68,668,35.19h1.92L662,55.68Z"/><path class="cls-2" d="M672.56,52.8a10.51,10.51,0,0,0,2-.09,6.91,6.91,0,0,0,3.84-1.78A8,8,0,0,0,680.84,46h-.09a5.38,5.38,0,0,1-4.32,2A5.32,5.32,0,0,1,671,42.4a6.3,6.3,0,0,1,6.28-6.53c3.75,0,6.07,3.05,6.07,7.74,0,4-1.36,6.87-3.16,8.62a9.22,9.22,0,0,1-5.35,2.46,11.44,11.44,0,0,1-2.28.14Zm.9-10.57c0,2.29,1.38,3.9,3.53,3.9a4.12,4.12,0,0,0,3.62-1.92,1.67,1.67,0,0,0,.23-.91c0-3.13-1.16-5.54-3.76-5.54C675,37.76,673.46,39.63,673.46,42.23Z"/><path class="cls-2" d="M691,35.56A1.54,1.54,0,1,1,692.59,34,1.54,1.54,0,0,1,691,35.56Zm0-2.77a1.22,1.22,0,1,0,0,2.43A1.22,1.22,0,0,0,692.25,34,1.25,1.25,0,0,0,691,32.79Zm16.56,16.9a7.83,7.83,0,0,1-6.84,3.87,8.94,8.94,0,0,1-9.13-9.32c0-6.19,4.61-10.07,9.07-10.07a15.89,15.89,0,0,1,5.6.8l.53,3.67-.62.06c-1-2.91-2.82-3.62-5.39-3.62-3.73,0-7.13,3.19-7.13,9.3,0,5,3.48,8.28,7.58,8.28a6.76,6.76,0,0,0,5.73-3.39Z"/><path class="cls-2" d="M798.76,35.76a23.42,23.42,0,0,1,4.49-.4c2.46,0,4,.43,5.23,1.39a4,4,0,0,1,1.59,3.36,4.52,4.52,0,0,1-3.23,4.18v.06a4.91,4.91,0,0,1,3.93,4.77,5.14,5.14,0,0,1-1.61,3.82c-1.33,1.21-3.48,1.78-6.58,1.78a27.48,27.48,0,0,1-3.82-.23Zm2.46,7.8h2.23c2.6,0,4.13-1.36,4.13-3.2,0-2.23-1.7-3.11-4.18-3.11a11,11,0,0,0-2.18.17Zm0,9.12a12.39,12.39,0,0,0,2.06.12c2.55,0,4.89-.94,4.89-3.7,0-2.6-2.23-3.68-4.92-3.68h-2Z"/><path class="cls-2" d="M814,45.14c0-1.61,0-3-.11-4.27h2.17l.09,2.69h.11a4.1,4.1,0,0,1,3.79-3,2.48,2.48,0,0,1,.7.09V43a4.06,4.06,0,0,0-.84-.08,3.49,3.49,0,0,0-3.34,3.19,6.63,6.63,0,0,0-.11,1.16v7.29H814Z"/><path class="cls-2" d="M824.33,48.16c.06,3.37,2.21,4.75,4.69,4.75a8.93,8.93,0,0,0,3.79-.71l.42,1.78a11,11,0,0,1-4.55.85c-4.21,0-6.72-2.77-6.72-6.89s2.43-7.38,6.41-7.38c4.47,0,5.65,3.93,5.65,6.44a9.17,9.17,0,0,1-.08,1.16Zm7.29-1.78c0-1.58-.65-4-3.45-4-2.51,0-3.61,2.32-3.81,4Z"/><path class="cls-2" d="M838.49,48.16c0,3.37,2.2,4.75,4.69,4.75A9,9,0,0,0,847,52.2l.42,1.78a11,11,0,0,1-4.55.85c-4.21,0-6.73-2.77-6.73-6.89s2.43-7.38,6.42-7.38c4.46,0,5.65,3.93,5.65,6.44a8.78,8.78,0,0,1-.09,1.16Zm7.29-1.78c0-1.58-.65-4-3.45-4-2.51,0-3.62,2.32-3.82,4Z"/><path class="cls-2" d="M849.7,53.11l6.19-8.06c.6-.73,1.16-1.38,1.78-2.11v-.06h-7.4v-2H860.7l0,1.56-6.11,7.94c-.56.76-1.13,1.44-1.75,2.14v.06h8v2H849.7Z"/><path class="cls-2" d="M864.54,48.16c.05,3.37,2.2,4.75,4.69,4.75A9,9,0,0,0,873,52.2l.42,1.78a11,11,0,0,1-4.55.85c-4.21,0-6.73-2.77-6.73-6.89s2.43-7.38,6.42-7.38c4.46,0,5.65,3.93,5.65,6.44a11.59,11.59,0,0,1-.08,1.16Zm7.29-1.78c0-1.58-.65-4-3.45-4-2.51,0-3.62,2.32-3.81,4Z"/><path class="cls-2" d="M36.27,144.07c-.14-2.66-.31-5.85-.29-8.23H35.9c-.65,2.24-1.44,4.61-2.4,7.24l-3.37,9.24H28.27l-3.08-9.07c-.9-2.69-1.67-5.14-2.2-7.41h-.06c-.06,2.38-.2,5.57-.37,8.43l-.51,8.16H19.71l1.33-19h3.13l3.25,9.21c.79,2.34,1.44,4.43,1.92,6.41h.09c.48-1.92,1.16-4,2-6.41l3.4-9.21H38l1.19,19h-2.4Z"/><path class="cls-2" d="M50.59,152.43l-.2-1.72h-.08a5.09,5.09,0,0,1-4.18,2,3.9,3.9,0,0,1-4.19-3.92c0-3.31,2.94-5.12,8.23-5.09v-.28a2.82,2.82,0,0,0-3.11-3.17,6.83,6.83,0,0,0-3.56,1l-.57-1.64a8.45,8.45,0,0,1,4.5-1.22c4.18,0,5.2,2.86,5.2,5.6v5.11a19.24,19.24,0,0,0,.22,3.28Zm-.37-7c-2.71,0-5.79.43-5.79,3.08a2.21,2.21,0,0,0,2.35,2.38,3.39,3.39,0,0,0,3.3-2.29,2.48,2.48,0,0,0,.14-.79Z"/><path class="cls-2" d="M57.31,138.75l3,8.09c.31.9.65,2,.88,2.79h.05c.26-.81.54-1.86.88-2.85l2.71-8h2.63l-3.73,9.75c-1.78,4.7-3,7.1-4.69,8.57a6.88,6.88,0,0,1-3,1.61l-.63-2.09a6.56,6.56,0,0,0,2.18-1.22,7.51,7.51,0,0,0,2.09-2.77,1.84,1.84,0,0,0,.2-.59,2.28,2.28,0,0,0-.17-.65L54.6,138.75Z"/><path class="cls-2" d="M80.31,136.38h0l-3.2,1.73-.48-1.9,4-2.15h2.12v18.37H80.31Z"/><path class="cls-2" d="M90.85,150.68a10.45,10.45,0,0,0,2-.08,7,7,0,0,0,3.84-1.78,8.08,8.08,0,0,0,2.43-4.89h-.08a5.41,5.41,0,0,1-4.33,2,5.32,5.32,0,0,1-5.42-5.62,6.3,6.3,0,0,1,6.27-6.53c3.76,0,6.08,3.06,6.08,7.75,0,4-1.36,6.86-3.17,8.61a9.1,9.1,0,0,1-5.34,2.46,11.54,11.54,0,0,1-2.29.14Zm.91-10.57c0,2.29,1.38,3.9,3.53,3.9a4.09,4.09,0,0,0,3.61-1.92,1.58,1.58,0,0,0,.23-.9c0-3.14-1.16-5.54-3.76-5.54C93.25,135.65,91.76,137.51,91.76,140.11Z"/><path class="cls-2" d="M103.44,142.61l.37-1a4.84,4.84,0,0,0,2,.56,1.78,1.78,0,0,0,1.09-.35,1.22,1.22,0,0,0,.5-1.07,1,1,0,0,0-.33-.83,5,5,0,0,0-1.34-.66,5.73,5.73,0,0,1-1.67-.91,2,2,0,0,1-.63-1.52,2.13,2.13,0,0,1,.86-1.77,3,3,0,0,1,1.88-.56,5.12,5.12,0,0,1,2.38.62l-.38,1a3.29,3.29,0,0,0-1.89-.61,1.91,1.91,0,0,0-1,.27,1.16,1.16,0,0,0,0,1.87,7,7,0,0,0,1.23.6,4.81,4.81,0,0,1,1.81,1.07,2,2,0,0,1,.46,1.36,2.21,2.21,0,0,1-.91,1.89,3.22,3.22,0,0,1-2,.61A5.54,5.54,0,0,1,103.44,142.61Z"/><path class="cls-2" d="M111.45,135.68H110.1v-1h1.35v-1.82l1.25-.27v2.09h2v1h-2v4.56a3.8,3.8,0,0,0,.18,1.42,1,1,0,0,0,1,.52,2.28,2.28,0,0,0,1-.25l.12,1a4.14,4.14,0,0,1-1.36.25,1.87,1.87,0,0,1-1.74-.77,3.78,3.78,0,0,1-.36-1.92Z"/><path class="cls-2" d="M122.69,132.82a18.65,18.65,0,0,0-3.56,11.56,19,19,0,0,0,3.56,11.47h-2a18.25,18.25,0,0,1-3.7-11.47,18.59,18.59,0,0,1,3.7-11.56Z"/><path class="cls-2" d="M130.37,135.48h-5.79v-2.09h14.1v2.09h-5.82v17h-2.49Z"/><path class="cls-2" d="M140.51,132.37H143v8.53h.06a4.61,4.61,0,0,1,1.78-1.75,5.14,5.14,0,0,1,2.54-.71c1.84,0,4.78,1.13,4.78,5.85v8.14h-2.49v-7.85c0-2.21-.82-4.07-3.16-4.07a3.58,3.58,0,0,0-3.34,2.48,3.05,3.05,0,0,0-.17,1.19v8.25h-2.49Z"/><path class="cls-2" d="M167.64,148.7c0,1.41,0,2.66.12,3.73h-2.21l-.14-2.23h-.06a5.15,5.15,0,0,1-4.52,2.54c-2.15,0-4.72-1.18-4.72-6v-8h2.49v7.58c0,2.6.79,4.35,3.05,4.35a3.6,3.6,0,0,0,3.28-2.26,3.68,3.68,0,0,0,.23-1.27v-8.4h2.48Z"/><path class="cls-2" d="M171.76,143c0-1.61,0-3-.11-4.27h2.18l.08,2.69H174a4.1,4.1,0,0,1,3.78-3,2.6,2.6,0,0,1,.71.09v2.34a4.23,4.23,0,0,0-.85-.08,3.49,3.49,0,0,0-3.33,3.19,6.67,6.67,0,0,0-.12,1.16v7.29h-2.46Z"/><path class="cls-2" d="M180.67,149.89a6.49,6.49,0,0,0,3.27,1c1.81,0,2.66-.91,2.66-2s-.71-1.83-2.54-2.51c-2.46-.88-3.62-2.23-3.62-3.87,0-2.21,1.78-4,4.72-4a6.84,6.84,0,0,1,3.36.85l-.62,1.81a5.34,5.34,0,0,0-2.8-.79c-1.47,0-2.29.85-2.29,1.86s.82,1.64,2.6,2.32c2.38.91,3.59,2.09,3.59,4.13,0,2.4-1.86,4.09-5.11,4.09a7.77,7.77,0,0,1-3.85-.93Z"/><path class="cls-2" d="M204,132.37V148.9c0,1.21,0,2.6.11,3.53h-2.23l-.12-2.37h-.05a5.08,5.08,0,0,1-4.67,2.68c-3.3,0-5.85-2.79-5.85-7,0-4.55,2.8-7.35,6.14-7.35a4.57,4.57,0,0,1,4.12,2.09h.06v-8.16Zm-2.49,11.95a4.6,4.6,0,0,0-.11-1,3.66,3.66,0,0,0-3.59-2.89c-2.57,0-4.1,2.27-4.1,5.29,0,2.77,1.36,5.06,4,5.06a3.76,3.76,0,0,0,3.65-3,4.57,4.57,0,0,0,.11-1.07Z"/><path class="cls-2" d="M215.7,152.43l-.2-1.72h-.08a5.09,5.09,0,0,1-4.18,2,3.9,3.9,0,0,1-4.19-3.92c0-3.31,2.94-5.12,8.23-5.09v-.28a2.82,2.82,0,0,0-3.11-3.17,6.83,6.83,0,0,0-3.56,1l-.57-1.64a8.45,8.45,0,0,1,4.5-1.22c4.18,0,5.2,2.86,5.2,5.6v5.11a19.24,19.24,0,0,0,.22,3.28Zm-.37-7c-2.71,0-5.79.43-5.79,3.08a2.21,2.21,0,0,0,2.35,2.38,3.39,3.39,0,0,0,3.3-2.29,2.48,2.48,0,0,0,.14-.79Z"/><path class="cls-2" d="M222.42,138.75l3,8.09c.31.9.65,2,.88,2.79h0c.26-.81.54-1.86.88-2.85l2.71-8h2.63l-3.73,9.75c-1.78,4.7-3,7.1-4.69,8.57a6.88,6.88,0,0,1-3.05,1.61l-.62-2.09a6.62,6.62,0,0,0,2.17-1.22,7.51,7.51,0,0,0,2.09-2.77,1.62,1.62,0,0,0,.2-.59,2.28,2.28,0,0,0-.17-.65l-5.06-12.61Z"/><path class="cls-2" d="M233.33,155.85a19.11,19.11,0,0,0,3.56-11.56,18.71,18.71,0,0,0-3.56-11.47h1.92a18,18,0,0,1,3.7,11.5,18.33,18.33,0,0,1-3.7,11.53Z"/><path class="cls-2" d="M461.55,151.81a12.23,12.23,0,0,1-5,.9c-5.37,0-9.41-3.39-9.41-9.63,0-6,4-10,9.95-10a10.19,10.19,0,0,1,4.52.85l-.59,2a9.06,9.06,0,0,0-3.85-.79c-4.46,0-7.43,2.85-7.43,7.85,0,4.67,2.68,7.66,7.32,7.66a9.83,9.83,0,0,0,4-.79Z"/><path class="cls-2" d="M464.54,132.37H467v20.06h-2.49Z"/><path class="cls-2" d="M483.59,145.48c0,5.06-3.51,7.26-6.81,7.26-3.7,0-6.56-2.71-6.56-7,0-4.58,3-7.27,6.78-7.27C480.93,138.44,483.59,141.3,483.59,145.48Zm-10.85.14c0,3,1.72,5.26,4.15,5.26s4.16-2.23,4.16-5.31c0-2.32-1.16-5.26-4.1-5.26S472.74,143,472.74,145.62Z"/><path class="cls-2" d="M498.17,148.7c0,1.41,0,2.66.11,3.73h-2.2l-.14-2.23h-.06a5.15,5.15,0,0,1-4.52,2.54c-2.15,0-4.72-1.18-4.72-6v-8h2.49v7.58c0,2.6.79,4.35,3.05,4.35a3.62,3.62,0,0,0,3.28-2.26,3.68,3.68,0,0,0,.22-1.27v-8.4h2.49Z"/><path class="cls-2" d="M514.1,132.37V148.9c0,1.21,0,2.6.12,3.53H512l-.12-2.37h-.05a5.08,5.08,0,0,1-4.67,2.68c-3.3,0-5.85-2.79-5.85-7,0-4.55,2.8-7.35,6.13-7.35a4.57,4.57,0,0,1,4.13,2.09h.06v-8.16Zm-2.48,11.95a4.1,4.1,0,0,0-.12-1,3.65,3.65,0,0,0-3.59-2.89c-2.57,0-4.09,2.27-4.09,5.29,0,2.77,1.35,5.06,4,5.06a3.74,3.74,0,0,0,3.64-3,4.08,4.08,0,0,0,.12-1.07Z"/><path class="cls-2" d="M519.13,138.75l3,8.09c.31.9.65,2,.87,2.79h.06c.25-.81.54-1.86.88-2.85l2.71-8h2.63l-3.73,9.75c-1.78,4.7-3,7.1-4.69,8.57a6.9,6.9,0,0,1-3.06,1.61l-.62-2.09a6.76,6.76,0,0,0,2.18-1.22,7.62,7.62,0,0,0,2.09-2.77,1.84,1.84,0,0,0,.2-.59,2.28,2.28,0,0,0-.17-.65l-5.06-12.61Z"/><path class="cls-2" d="M609.58,136.38h-.06l-3.19,1.73-.48-1.9,4-2.15H612v18.37h-2.4Z"/><path class="cls-2" d="M630.6,134.06v1.64l-8,16.73H620l8-16.25v-.05h-9v-2.07Z"/><path class="cls-2" d="M638.54,133.44a1.54,1.54,0,1,1,1.61-1.61A1.54,1.54,0,0,1,638.54,133.44Zm0-2.77a1.22,1.22,0,1,0,0,2.43,1.21,1.21,0,0,0,1.27-1.27A1.25,1.25,0,0,0,638.54,130.67Zm16.56,16.9a7.83,7.83,0,0,1-6.84,3.87,8.94,8.94,0,0,1-9.13-9.32c0-6.19,4.61-10.06,9.07-10.06a16.12,16.12,0,0,1,5.6.79l.53,3.67-.62.06c-1-2.91-2.82-3.62-5.39-3.62-3.74,0-7.13,3.2-7.13,9.3,0,5,3.48,8.28,7.58,8.28a6.75,6.75,0,0,0,5.73-3.39Z"/><path class="cls-2" d="M660.12,153.56,668,133.07h1.92L662,153.56Z"/><path class="cls-2" d="M672.56,150.68a10.38,10.38,0,0,0,2-.08,7,7,0,0,0,3.84-1.78,8.09,8.09,0,0,0,2.44-4.89h-.09a5.4,5.4,0,0,1-4.32,2,5.32,5.32,0,0,1-5.43-5.62,6.31,6.31,0,0,1,6.28-6.53c3.75,0,6.07,3.06,6.07,7.75,0,4-1.36,6.86-3.16,8.61a9.15,9.15,0,0,1-5.35,2.46,11.44,11.44,0,0,1-2.28.14Zm.9-10.57c0,2.29,1.38,3.9,3.53,3.9a4.12,4.12,0,0,0,3.62-1.92,1.66,1.66,0,0,0,.23-.9c0-3.14-1.16-5.54-3.76-5.54C675,135.65,673.46,137.51,673.46,140.11Z"/><path class="cls-2" d="M691,133.44a1.54,1.54,0,1,1,1.61-1.61A1.54,1.54,0,0,1,691,133.44Zm0-2.77a1.22,1.22,0,1,0,0,2.43,1.21,1.21,0,0,0,1.27-1.27A1.25,1.25,0,0,0,691,130.67Zm16.56,16.9a7.83,7.83,0,0,1-6.84,3.87,8.94,8.94,0,0,1-9.13-9.32c0-6.19,4.61-10.06,9.07-10.06a16.12,16.12,0,0,1,5.6.79l.53,3.67-.62.06c-1-2.91-2.82-3.62-5.39-3.62-3.73,0-7.13,3.2-7.13,9.3,0,5,3.48,8.28,7.58,8.28a6.74,6.74,0,0,0,5.73-3.39Z"/><path class="cls-2" d="M798.76,133.64a23.42,23.42,0,0,1,4.49-.4c2.46,0,4,.43,5.23,1.39a4,4,0,0,1,1.59,3.36,4.52,4.52,0,0,1-3.23,4.18v.06a4.91,4.91,0,0,1,3.93,4.78,5.12,5.12,0,0,1-1.61,3.81c-1.33,1.22-3.48,1.78-6.58,1.78a29.57,29.57,0,0,1-3.82-.22Zm2.46,7.8h2.23c2.6,0,4.13-1.36,4.13-3.19,0-2.24-1.7-3.11-4.18-3.11a10.25,10.25,0,0,0-2.18.17Zm0,9.13a13.83,13.83,0,0,0,2.06.11c2.55,0,4.89-.93,4.89-3.7,0-2.6-2.23-3.68-4.92-3.68h-2Z"/><path class="cls-2" d="M814,143c0-1.61,0-3-.11-4.27h2.17l.09,2.69h.11a4.1,4.1,0,0,1,3.79-3,2.48,2.48,0,0,1,.7.09v2.34a4.06,4.06,0,0,0-.84-.08,3.49,3.49,0,0,0-3.34,3.19,6.72,6.72,0,0,0-.11,1.16v7.29H814Z"/><path class="cls-2" d="M824.33,146.05c.06,3.36,2.21,4.74,4.69,4.74a9.11,9.11,0,0,0,3.79-.7l.42,1.78a11.16,11.16,0,0,1-4.55.84c-4.21,0-6.72-2.76-6.72-6.89s2.43-7.38,6.41-7.38c4.47,0,5.65,3.93,5.65,6.45a9.33,9.33,0,0,1-.08,1.16Zm7.29-1.78c0-1.59-.65-4.05-3.45-4.05-2.51,0-3.61,2.32-3.81,4.05Z"/><path class="cls-2" d="M838.49,146.05c0,3.36,2.2,4.74,4.69,4.74a9.14,9.14,0,0,0,3.79-.7l.42,1.78a11.24,11.24,0,0,1-4.55.84c-4.21,0-6.73-2.76-6.73-6.89s2.43-7.38,6.42-7.38c4.46,0,5.65,3.93,5.65,6.45a8.94,8.94,0,0,1-.09,1.16Zm7.29-1.78c0-1.59-.65-4.05-3.45-4.05-2.51,0-3.62,2.32-3.82,4.05Z"/><path class="cls-2" d="M849.7,151l6.19-8.05c.6-.74,1.16-1.39,1.78-2.12v-.06h-7.4v-2H860.7l0,1.56-6.11,7.94c-.56.76-1.13,1.44-1.75,2.15v0h8v2H849.7Z"/><path class="cls-2" d="M864.54,146.05c.05,3.36,2.2,4.74,4.69,4.74a9.14,9.14,0,0,0,3.79-.7l.42,1.78a11.2,11.2,0,0,1-4.55.84c-4.21,0-6.73-2.76-6.73-6.89s2.43-7.38,6.42-7.38c4.46,0,5.65,3.93,5.65,6.45,0,.51-.06.9-.08,1.16Zm7.29-1.78c0-1.59-.65-4.05-3.45-4.05-2.51,0-3.62,2.32-3.81,4.05Z"/><path class="cls-2" d="M36.27,242c-.14-2.66-.31-5.85-.29-8.22H35.9c-.65,2.23-1.44,4.6-2.4,7.23l-3.37,9.24H28.27l-3.08-9.07c-.9-2.68-1.67-5.14-2.2-7.4h-.06c-.06,2.37-.2,5.56-.37,8.42l-.51,8.16H19.71l1.33-19h3.13l3.25,9.21c.79,2.35,1.44,4.44,1.92,6.42h.09c.48-1.93,1.16-4,2-6.42l3.4-9.21H38l1.19,19h-2.4Z"/><path class="cls-2" d="M50.59,250.31l-.2-1.72h-.08a5.09,5.09,0,0,1-4.18,2,3.9,3.9,0,0,1-4.19-3.92c0-3.31,2.94-5.12,8.23-5.09v-.28a2.82,2.82,0,0,0-3.11-3.17,6.83,6.83,0,0,0-3.56,1l-.57-1.64a8.54,8.54,0,0,1,4.5-1.21c4.18,0,5.2,2.85,5.2,5.59V247a19.19,19.19,0,0,0,.22,3.27Zm-.37-7c-2.71-.05-5.79.43-5.79,3.08a2.2,2.2,0,0,0,2.35,2.38,3.39,3.39,0,0,0,3.3-2.29,2.48,2.48,0,0,0,.14-.79Z"/><path class="cls-2" d="M57.31,236.64l3,8.08c.31.9.65,2,.88,2.8h.05c.26-.82.54-1.87.88-2.86l2.71-8h2.63l-3.73,9.75c-1.78,4.69-3,7.09-4.69,8.56a6.77,6.77,0,0,1-3,1.61l-.63-2.09a6.56,6.56,0,0,0,2.18-1.22,7.34,7.34,0,0,0,2.09-2.77,1.84,1.84,0,0,0,.2-.59,2.28,2.28,0,0,0-.17-.65l-5.06-12.6Z"/><path class="cls-2" d="M74.92,250.31v-1.52l2-1.89c4.69-4.47,6.81-6.84,6.83-9.61,0-1.87-.9-3.59-3.64-3.59a6.29,6.29,0,0,0-3.9,1.55l-.79-1.75a8.08,8.08,0,0,1,5.2-1.87c4,0,5.62,2.72,5.62,5.35,0,3.39-2.46,6.13-6.33,9.86l-1.47,1.36v.05h8.25v2.06Z"/><path class="cls-2" d="M101.62,240.93c0,6.25-2.32,9.69-6.39,9.69-3.59,0-6-3.36-6.07-9.43s2.65-9.56,6.38-9.56S101.62,235.08,101.62,240.93Zm-10,.28c0,4.78,1.47,7.49,3.73,7.49,2.55,0,3.76-3,3.76-7.65,0-4.53-1.16-7.49-3.73-7.49C93.22,233.56,91.64,236.21,91.64,241.21Z"/><path class="cls-2" d="M103.44,240.5l.37-1a4.81,4.81,0,0,0,2,.55,1.77,1.77,0,0,0,1.09-.34,1.24,1.24,0,0,0,.5-1.07,1.08,1.08,0,0,0-.33-.84,5,5,0,0,0-1.34-.66,5.73,5.73,0,0,1-1.67-.91,2,2,0,0,1-.63-1.52,2.15,2.15,0,0,1,.86-1.77,3,3,0,0,1,1.88-.56,5.14,5.14,0,0,1,2.38.63l-.38,1a3.37,3.37,0,0,0-1.89-.61,1.91,1.91,0,0,0-1,.28,1.05,1.05,0,0,0-.48,1,1.07,1.07,0,0,0,.47.91,6.86,6.86,0,0,0,1.23.61,4.83,4.83,0,0,1,1.81,1.06,2,2,0,0,1,.46,1.37,2.23,2.23,0,0,1-.91,1.89,3.28,3.28,0,0,1-2,.61A5.54,5.54,0,0,1,103.44,240.5Z"/><path class="cls-2" d="M111.45,233.56H110.1v-1h1.35v-1.83l1.25-.26v2.09h2v1h-2v4.56a3.73,3.73,0,0,0,.18,1.42,1,1,0,0,0,1,.52,2.28,2.28,0,0,0,1-.25l.12,1a4.17,4.17,0,0,1-1.36.26,1.88,1.88,0,0,1-1.74-.78,3.78,3.78,0,0,1-.36-1.92Z"/><path class="cls-2" d="M122.69,230.7a18.67,18.67,0,0,0-3.56,11.56,19,19,0,0,0,3.56,11.47h-2a18.25,18.25,0,0,1-3.7-11.47,18.62,18.62,0,0,1,3.7-11.56Z"/><path class="cls-2" d="M125.4,231.27h10.26v2.06h-7.8v6.33h7.2v2h-7.2v8.61H125.4Z"/><path class="cls-2" d="M138.34,240.9c0-1.61,0-3-.11-4.26h2.17l.09,2.68h.11a4.09,4.09,0,0,1,3.79-3,2.5,2.5,0,0,1,.7.08v2.35a3.43,3.43,0,0,0-.84-.09,3.49,3.49,0,0,0-3.34,3.19,7.89,7.89,0,0,0-.11,1.16v7.29h-2.46Z"/><path class="cls-2" d="M150.46,232.79a1.54,1.54,0,0,1-3.08,0,1.52,1.52,0,0,1,1.56-1.55A1.47,1.47,0,0,1,150.46,232.79Zm-2.77,17.52V236.64h2.49v13.67Z"/><path class="cls-2" d="M166.12,230.25v16.53c0,1.22,0,2.6.11,3.53H164l-.12-2.37h0a5.05,5.05,0,0,1-4.66,2.68c-3.31,0-5.85-2.79-5.85-7,0-4.55,2.79-7.34,6.13-7.34a4.57,4.57,0,0,1,4.12,2.09h.06v-8.17Zm-2.49,11.95a4.6,4.6,0,0,0-.11-1,3.67,3.67,0,0,0-3.59-2.88c-2.57,0-4.1,2.26-4.1,5.28,0,2.77,1.36,5.06,4,5.06a3.74,3.74,0,0,0,3.65-3,4.57,4.57,0,0,0,.11-1.07Z"/><path class="cls-2" d="M177.81,250.31l-.19-1.72h-.09a5.09,5.09,0,0,1-4.18,2,3.89,3.89,0,0,1-4.18-3.92c0-3.31,2.93-5.12,8.22-5.09v-.28a2.82,2.82,0,0,0-3.11-3.17,6.83,6.83,0,0,0-3.56,1l-.56-1.64a8.5,8.5,0,0,1,4.49-1.21c4.18,0,5.2,2.85,5.2,5.59V247a19.19,19.19,0,0,0,.22,3.27Zm-.36-7c-2.72-.05-5.8.43-5.8,3.08a2.2,2.2,0,0,0,2.35,2.38,3.39,3.39,0,0,0,3.3-2.29,2.5,2.5,0,0,0,.15-.79Z"/><path class="cls-2" d="M184.54,236.64l3,8.08c.31.9.65,2,.88,2.8h.05c.26-.82.54-1.87.88-2.86l2.71-8h2.63L191,246.39c-1.78,4.69-3,7.09-4.69,8.56a6.77,6.77,0,0,1-3,1.61l-.62-2.09a6.62,6.62,0,0,0,2.17-1.22,7.34,7.34,0,0,0,2.09-2.77,1.62,1.62,0,0,0,.2-.59,2.28,2.28,0,0,0-.17-.65l-5.06-12.6Z"/><path class="cls-2" d="M195.44,253.73A19.07,19.07,0,0,0,199,242.18a18.72,18.72,0,0,0-3.56-11.48h1.92a18,18,0,0,1,3.71,11.5,18.33,18.33,0,0,1-3.71,11.53Z"/><path class="cls-2" d="M461.55,249.69a12.19,12.19,0,0,1-5,.91c-5.37,0-9.41-3.39-9.41-9.64,0-6,4-10,9.95-10a10.39,10.39,0,0,1,4.52.84l-.6,2a9,9,0,0,0-3.84-.79c-4.46,0-7.43,2.85-7.43,7.86,0,4.66,2.68,7.65,7.32,7.65a9.83,9.83,0,0,0,4-.79Z"/><path class="cls-2" d="M464.54,230.25H467v20.06h-2.49Z"/><path class="cls-2" d="M483.59,243.36c0,5.06-3.51,7.26-6.81,7.26-3.71,0-6.56-2.71-6.56-7,0-4.58,3-7.26,6.78-7.26C480.93,236.33,483.59,239.18,483.59,243.36Zm-10.85.14c0,3,1.72,5.26,4.15,5.26s4.15-2.23,4.15-5.31c0-2.32-1.15-5.26-4.09-5.26S472.74,240.9,472.74,243.5Z"/><path class="cls-2" d="M498.17,246.58c0,1.42,0,2.66.11,3.73h-2.21l-.14-2.23h-.05a5.15,5.15,0,0,1-4.52,2.54c-2.15,0-4.72-1.18-4.72-6v-8h2.48v7.57c0,2.6.79,4.35,3.05,4.35a3.6,3.6,0,0,0,3.28-2.26,3.68,3.68,0,0,0,.23-1.27v-8.39h2.49Z"/><path class="cls-2" d="M514.1,230.25v16.53c0,1.22,0,2.6.12,3.53H512l-.11-2.37h-.06a5,5,0,0,1-4.66,2.68c-3.31,0-5.85-2.79-5.85-7,0-4.55,2.8-7.34,6.13-7.34a4.58,4.58,0,0,1,4.13,2.09h.06v-8.17Zm-2.48,11.95a4.1,4.1,0,0,0-.12-1,3.65,3.65,0,0,0-3.59-2.88c-2.57,0-4.09,2.26-4.09,5.28,0,2.77,1.35,5.06,4,5.06a3.73,3.73,0,0,0,3.64-3,4.08,4.08,0,0,0,.12-1.07Z"/><path class="cls-2" d="M519.13,236.64l3,8.08c.31.9.64,2,.87,2.8h.06c.25-.82.53-1.87.87-2.86l2.72-8h2.62l-3.73,9.75c-1.78,4.69-3,7.09-4.69,8.56a6.72,6.72,0,0,1-3.05,1.61l-.62-2.09a6.76,6.76,0,0,0,2.18-1.22,7.55,7.55,0,0,0,2.09-2.77,1.84,1.84,0,0,0,.2-.59,2.28,2.28,0,0,0-.17-.65l-5.06-12.6Z"/><path class="cls-2" d="M596,234.26h0l-3.2,1.73-.48-1.9,4-2.14h2.11v18.36H596Z"/><path class="cls-2" d="M617.06,232v1.63l-8,16.73h-2.57l8-16.24V234h-9V232Z"/><path class="cls-2" d="M625,231.32a1.54,1.54,0,1,1,1.61-1.61A1.54,1.54,0,0,1,625,231.32Zm0-2.77a1.22,1.22,0,0,0,0,2.44,1.22,1.22,0,0,0,1.27-1.28A1.25,1.25,0,0,0,625,228.55Zm16.56,16.9a7.79,7.79,0,0,1-6.84,3.87,8.93,8.93,0,0,1-9.12-9.32c0-6.19,4.6-10.06,9.07-10.06a16.1,16.1,0,0,1,5.59.79l.54,3.67-.62.06c-1-2.91-2.83-3.62-5.4-3.62-3.73,0-7.12,3.2-7.12,9.3,0,5,3.48,8.28,7.57,8.28A6.77,6.77,0,0,0,641,245Z"/><path class="cls-2" d="M646.58,251.44,654.46,231h1.92l-7.91,20.48Z"/><path class="cls-2" d="M659,248.56a10.45,10.45,0,0,0,2-.08,6.91,6.91,0,0,0,3.84-1.78,8.14,8.14,0,0,0,2.43-4.89h-.08a5.41,5.41,0,0,1-4.33,2,5.32,5.32,0,0,1-5.42-5.63,6.3,6.3,0,0,1,6.27-6.53c3.76,0,6.08,3.06,6.08,7.75,0,4-1.36,6.86-3.17,8.62a9.22,9.22,0,0,1-5.34,2.46,12.35,12.35,0,0,1-2.29.14Zm.9-10.57c0,2.29,1.39,3.9,3.54,3.9a4.13,4.13,0,0,0,3.62-1.92,1.66,1.66,0,0,0,.22-.9c0-3.14-1.16-5.54-3.76-5.54C661.41,233.53,659.91,235.39,659.91,238Z"/><path class="cls-2" d="M677.43,231.32a1.54,1.54,0,1,1,1.61-1.61A1.54,1.54,0,0,1,677.43,231.32Zm0-2.77a1.22,1.22,0,1,0,1.28,1.16A1.26,1.26,0,0,0,677.43,228.55ZM694,245.45a7.79,7.79,0,0,1-6.84,3.87A8.93,8.93,0,0,1,678,240c0-6.19,4.6-10.06,9.07-10.06a16.06,16.06,0,0,1,5.59.79l.54,3.67-.62.06c-1.05-2.91-2.83-3.62-5.4-3.62-3.73,0-7.12,3.2-7.12,9.3,0,5,3.48,8.28,7.57,8.28A6.77,6.77,0,0,0,693.4,245Z"/><path class="cls-2" d="M765.53,231.52a24.37,24.37,0,0,1,4.49-.39c2.46,0,4,.42,5.23,1.38a4,4,0,0,1,1.58,3.36,4.53,4.53,0,0,1-3.22,4.19v.05a4.92,4.92,0,0,1,3.93,4.78,5.12,5.12,0,0,1-1.61,3.81c-1.33,1.22-3.48,1.78-6.59,1.78a29.51,29.51,0,0,1-3.81-.22Zm2.46,7.8h2.23c2.6,0,4.13-1.36,4.13-3.19,0-2.23-1.7-3.11-4.19-3.11a10.06,10.06,0,0,0-2.17.17Zm0,9.13a13.75,13.75,0,0,0,2.06.11c2.54,0,4.89-.93,4.89-3.7,0-2.6-2.23-3.67-4.92-3.67h-2Z"/><path class="cls-2" d="M780.76,240.9c0-1.61,0-3-.11-4.26h2.17l.09,2.68H783a4.09,4.09,0,0,1,3.79-3,2.5,2.5,0,0,1,.7.08v2.35a3.41,3.41,0,0,0-4.18,3.1,6.72,6.72,0,0,0-.11,1.16v7.29h-2.46Z"/><path class="cls-2" d="M791.1,243.93c.06,3.36,2.21,4.75,4.69,4.75a9.08,9.08,0,0,0,3.79-.71l.42,1.78a11.13,11.13,0,0,1-4.55.85c-4.21,0-6.72-2.77-6.72-6.9s2.43-7.37,6.41-7.37c4.47,0,5.65,3.92,5.65,6.44a9.33,9.33,0,0,1-.08,1.16Zm7.29-1.78c0-1.58-.65-4-3.45-4-2.51,0-3.61,2.31-3.81,4Z"/><path class="cls-2" d="M805.25,243.93c.06,3.36,2.21,4.75,4.7,4.75a9,9,0,0,0,3.78-.71l.43,1.78a11.21,11.21,0,0,1-4.55.85c-4.21,0-6.73-2.77-6.73-6.9s2.43-7.37,6.42-7.37c4.46,0,5.65,3.92,5.65,6.44a8.94,8.94,0,0,1-.09,1.16Zm7.3-1.78c0-1.58-.65-4-3.45-4-2.52,0-3.62,2.31-3.82,4Z"/><path class="cls-2" d="M816.47,248.87l6.19-8.05c.59-.74,1.16-1.39,1.78-2.12v-.06H817v-2h10.43l0,1.55-6.11,7.94c-.56.77-1.13,1.44-1.75,2.15v.06h8v2H816.47Z"/><path class="cls-2" d="M831.31,243.93c.05,3.36,2.2,4.75,4.69,4.75a9,9,0,0,0,3.78-.71l.43,1.78a11.21,11.21,0,0,1-4.55.85c-4.21,0-6.73-2.77-6.73-6.9s2.43-7.37,6.42-7.37c4.46,0,5.65,3.92,5.65,6.44a8.94,8.94,0,0,1-.09,1.16Zm7.29-1.78c0-1.58-.65-4-3.45-4-2.52,0-3.62,2.31-3.82,4Z"/><path class="cls-3" d="M366,243.22a3.28,3.28,0,0,1-1.32-1.51c-1.46-3.7-4.05-6.09-8-6.68a9.88,9.88,0,0,0-10.09,4.45,3.11,3.11,0,0,1-1.78,1.17,8,8,0,0,0-6.82,8.62,7.94,7.94,0,0,0,7.94,7.4c2.74,0,5.48,0,8.22,0h0c2.88,0,5.76.05,8.64,0a7.07,7.07,0,0,0,6.76-5.47A7.28,7.28,0,0,0,366,243.22Zm.83,6.54a4.14,4.14,0,0,1-4,4c-2.87.14-5.76,0-8.65,0v0c-2.64,0-5.29.1-7.93,0-3.91-.17-6.29-3.54-5-6.93a5,5,0,0,1,5.63-3.27c.86.12,1.18-.08,1.49-.84,1.4-3.45,4.19-5.25,7.46-4.91s5.73,2.61,6.41,6.23a1.38,1.38,0,0,0,1.2,1.34A4.24,4.24,0,0,1,366.81,249.76Z"/><path class="cls-3" d="M357,233.15a9.09,9.09,0,0,1,8.6,6.84c.4,1.6,1.45,1.86,2.78,2.18.53-3.79-.68-6.77-3.71-8.85a7.76,7.76,0,0,0-9.05-.17C356.07,233.15,356.53,233.13,357,233.15Z"/><path class="cls-3" d="M359.71,230.32c1.25,0,1.7-.73,1.7-2.88,0-.43,0-.86,0-1.29a1.55,1.55,0,0,0-1.51-1.75c-1.11-.07-1.67.61-1.79,1.65a11.35,11.35,0,0,0,0,1.43C358.08,229.53,358.52,230.29,359.71,230.32Z"/><path class="cls-3" d="M375.78,240c-.32-.65-1.19-.92-2.75-.92h0C374.59,239,375.46,239.31,375.78,240Z"/><path class="cls-3" d="M375.78,240c-.32-.65-1.19-.92-2.75-.92h-1.29c-1.07,0-1.75.54-1.78,1.63s.7,1.61,1.72,1.72a10.9,10.9,0,0,0,1.28,0c2.08,0,3-.49,3-1.67A1.6,1.6,0,0,0,375.78,240Z"/><path class="cls-3" d="M367.86,233.87c1.37,0,3.83-2.5,3.83-3.48a1.6,1.6,0,0,0-2.41-1.45,11.33,11.33,0,0,0-2.42,2.42,2,2,0,0,0,0,1.72C367,233.51,367.66,233.73,367.86,233.87Z"/><path class="cls-3" d="M350.57,233.54a1.82,1.82,0,0,0,1.57-.07c.43-.24.66-.84.83-1.07-.05-1.33-2.58-3.81-3.55-3.8A1.59,1.59,0,0,0,348,231,13.18,13.18,0,0,0,350.57,233.54Z"/><path class="cls-3" d="M366,145.39a3.28,3.28,0,0,1-1.32-1.51c-1.46-3.7-4.05-6.1-8-6.68a9.88,9.88,0,0,0-10.09,4.45,3.11,3.11,0,0,1-1.78,1.17,8,8,0,0,0-6.82,8.62,7.94,7.94,0,0,0,7.94,7.4c2.74,0,5.48,0,8.22,0h0c2.88,0,5.76,0,8.64,0a7.07,7.07,0,0,0,6.76-5.48A7.27,7.27,0,0,0,366,145.39Zm.83,6.54a4.13,4.13,0,0,1-4,4c-2.87.15-5.76,0-8.65,0v0c-2.64,0-5.29.09-7.93,0-3.91-.17-6.29-3.54-5-6.94a5,5,0,0,1,5.63-3.26c.86.12,1.18-.08,1.49-.84,1.4-3.45,4.19-5.26,7.46-4.91s5.73,2.61,6.41,6.23a1.39,1.39,0,0,0,1.2,1.34A4.24,4.24,0,0,1,366.81,151.93Z"/><path class="cls-3" d="M357,135.32a9.1,9.1,0,0,1,8.6,6.83c.4,1.61,1.45,1.87,2.78,2.19.53-3.79-.68-6.77-3.71-8.85a7.74,7.74,0,0,0-9.05-.17C356.07,135.32,356.53,135.3,357,135.32Z"/><path class="cls-3" d="M359.71,132.49c1.25,0,1.7-.73,1.7-2.88,0-.43,0-.86,0-1.3a1.55,1.55,0,0,0-1.51-1.74c-1.11-.07-1.67.61-1.79,1.65a11.35,11.35,0,0,0,0,1.43C358.08,131.69,358.52,132.45,359.71,132.49Z"/><path class="cls-3" d="M375.78,142.13c-.32-.65-1.19-.93-2.75-.93h-1.29c.43,0,.86,0,1.29,0C374.59,141.2,375.46,141.48,375.78,142.13Z"/><path class="cls-3" d="M375.78,142.13c-.32-.65-1.19-.93-2.75-.92-.43,0-.86,0-1.29,0a1.58,1.58,0,0,0-1.78,1.63c0,1.11.7,1.61,1.72,1.72a10.9,10.9,0,0,0,1.28,0c2.08,0,3-.49,3-1.68A1.56,1.56,0,0,0,375.78,142.13Z"/><path class="cls-3" d="M367.86,136c1.37,0,3.83-2.5,3.83-3.49a1.59,1.59,0,0,0-2.41-1.44,11.33,11.33,0,0,0-2.42,2.42,2,2,0,0,0,0,1.72C367,135.68,367.66,135.9,367.86,136Z"/><path class="cls-3" d="M350.57,135.7a1.75,1.75,0,0,0,1.57-.07c.43-.23.66-.84.83-1.06-.05-1.33-2.58-3.81-3.55-3.81a1.6,1.6,0,0,0-1.4,2.44A13.13,13.13,0,0,0,350.57,135.7Z"/><path class="cls-3" d="M366,47.56a3.28,3.28,0,0,1-1.32-1.51c-1.46-3.7-4.05-6.1-8-6.68a9.87,9.87,0,0,0-10.09,4.45A3.16,3.16,0,0,1,344.8,45,8,8,0,0,0,338,53.61a8,8,0,0,0,7.94,7.4c2.74,0,5.48,0,8.22,0h0c2.88,0,5.76,0,8.64,0a7.08,7.08,0,0,0,6.76-5.48A7.27,7.27,0,0,0,366,47.56Zm.83,6.53a4.14,4.14,0,0,1-4,4c-2.87.15-5.76,0-8.65,0v0c-2.64,0-5.29.09-7.93,0-3.91-.18-6.29-3.54-5-6.94a5,5,0,0,1,5.63-3.26c.86.12,1.18-.08,1.49-.85,1.4-3.45,4.19-5.25,7.46-4.91s5.73,2.61,6.41,6.24a1.39,1.39,0,0,0,1.2,1.34A4.22,4.22,0,0,1,366.81,54.09Z"/><path class="cls-3" d="M357,37.49a9.1,9.1,0,0,1,8.6,6.83c.4,1.61,1.45,1.87,2.78,2.18a8.53,8.53,0,0,0-3.71-8.85,7.76,7.76,0,0,0-9.05-.17C356.07,37.48,356.53,37.47,357,37.49Z"/><path class="cls-3" d="M359.71,34.66c1.25,0,1.7-.73,1.7-2.89,0-.43,0-.86,0-1.29a1.54,1.54,0,0,0-1.51-1.74c-1.11-.08-1.67.61-1.79,1.64a11.53,11.53,0,0,0,0,1.44C358.08,33.86,358.52,34.62,359.71,34.66Z"/><path class="cls-3" d="M375.78,44.3c-.32-.65-1.19-.93-2.75-.93h0C374.59,43.37,375.46,43.65,375.78,44.3Z"/><path class="cls-3" d="M375.78,44.3c-.32-.65-1.19-.93-2.75-.93h-1.29A1.59,1.59,0,0,0,370,45c0,1.11.7,1.6,1.72,1.72a10.9,10.9,0,0,0,1.28,0c2.08,0,3-.49,3-1.68A1.54,1.54,0,0,0,375.78,44.3Z"/><path class="cls-3" d="M367.86,38.21c1.37,0,3.83-2.5,3.83-3.49a1.6,1.6,0,0,0-2.41-1.45,11.33,11.33,0,0,0-2.42,2.42,2,2,0,0,0,0,1.73C367,37.84,367.66,38.06,367.86,38.21Z"/><path class="cls-3" d="M350.57,37.87a1.82,1.82,0,0,0,1.57-.07c.43-.23.66-.84.83-1.07-.05-1.32-2.58-3.8-3.55-3.8a1.6,1.6,0,0,0-1.4,2.44A13.13,13.13,0,0,0,350.57,37.87Z"/><rect x="313.81" width="1.29" height="85.23"/><rect x="313.81" y="99.17" width="1.29" height="85.23"/><rect x="313.81" y="198.34" width="1.29" height="85.23"/></g></g></svg>