<?xml version="1.0" encoding="utf-8"?>
<!-- Generator: Adobe Illustrator 16.0.0, SVG Export Plug-In . SVG Version: 6.00 Build 0)  -->
<!DOCTYPE svg PUBLIC "-//W3C//DTD SVG 1.1//EN" "http://www.w3.org/Graphics/SVG/1.1/DTD/svg11.dtd">
<svg version="1.1" id="图层_1" xmlns="http://www.w3.org/2000/svg" xmlns:xlink="http://www.w3.org/1999/xlink" x="0px" y="0px"
	 width="40px" height="40px" viewBox="0 0 40 40" enable-background="new 0 0 40 40" xml:space="preserve">
<g>
	<path fill="#004364" d="M29.04,22.676c-0.554-0.321-1.09-0.918-1.324-1.511c-1.459-3.698-4.049-6.094-7.989-6.676
		c-4.214-0.622-7.601,0.924-10.091,4.447c-0.387,0.548-1.127,1.052-1.778,1.172c-4.293,0.791-7.116,4.293-6.821,8.619
		c0.283,4.152,3.673,7.335,7.943,7.4c2.738,0.042,5.477,0.008,8.214,0.008c0-0.003,0-0.005,0-0.008c2.882,0,5.765,0.042,8.646-0.011
		c3.268-0.061,5.969-2.293,6.755-5.476C33.357,27.545,31.87,24.31,29.04,22.676z M29.866,29.213
		c-0.142,2.154-1.701,3.856-4.027,3.977c-2.877,0.149-5.767,0.036-8.65,0.036c0,0.014,0,0.027,0,0.04
		c-2.645,0-5.293,0.094-7.932-0.021c-3.913-0.171-6.293-3.538-5.018-6.935c0.865-2.307,3.031-3.627,5.629-3.264
		c0.854,0.12,1.176-0.077,1.486-0.844c1.398-3.448,4.189-5.252,7.458-4.91c3.366,0.353,5.731,2.612,6.413,6.233
		c0.145,0.769,0.398,1.154,1.199,1.34C28.608,25.37,29.999,27.193,29.866,29.213z"/>
	<path fill="#004364" d="M20.047,12.605c4.096,0.171,7.609,2.854,8.601,6.835c0.401,1.609,1.45,1.868,2.782,2.183
		c0.527-3.785-0.684-6.765-3.71-8.85c-2.866-1.973-5.954-2.079-9.05-0.17C19.128,12.604,19.588,12.587,20.047,12.605z"/>
	<path fill="#004364" d="M22.764,9.776c1.25,0.037,1.701-0.729,1.697-2.882c0-0.431,0.006-0.861-0.002-1.293
		c-0.017-1.006-0.496-1.677-1.519-1.744c-1.105-0.073-1.66,0.608-1.786,1.646c-0.057,0.473-0.021,0.957-0.021,1.436
		C21.133,8.98,21.573,9.742,22.764,9.776z"/>
	<path fill="#004364" d="M38.836,19.417c-0.324-0.648-1.188-0.927-2.751-0.926c-0.43,0.002-0.859-0.007-1.29,0.004
		c0.431-0.011,0.86-0.002,1.29-0.002C37.648,18.491,38.512,18.769,38.836,19.417z"/>
	<path fill="#004364" d="M38.836,19.417c-0.324-0.648-1.188-0.926-2.751-0.924c-0.43,0-0.859-0.009-1.29,0.002
		c-1.064,0.026-1.752,0.542-1.784,1.632c-0.032,1.113,0.7,1.607,1.721,1.72c0.425,0.048,0.858,0.02,1.288,0.02
		c2.077,0,2.941-0.489,2.965-1.675C38.992,19.89,38.944,19.633,38.836,19.417z"/>
	<path fill="#004364" d="M30.917,13.326c1.369-0.035,3.826-2.5,3.834-3.486c0.008-1.265-1.413-2.18-2.414-1.446
		c-0.916,0.67-1.752,1.51-2.424,2.421c-0.287,0.392-0.247,1.231-0.031,1.725C30.067,12.963,30.714,13.185,30.917,13.326z"/>
	<path fill="#004364" d="M13.627,12.992c0.334,0.252,1.142,0.163,1.569-0.07c0.433-0.234,0.663-0.841,0.827-1.067
		c-0.048-1.329-2.575-3.807-3.547-3.804c-1.26,0.005-2.157,1.447-1.406,2.437C11.788,11.432,12.682,12.275,13.627,12.992z"/>
</g>
</svg>
