<?xml version="1.0" encoding="utf-8"?>
<!-- Generator: Adobe Illustrator 16.0.0, SVG Export Plug-In . SVG Version: 6.00 Build 0)  -->
<!DOCTYPE svg PUBLIC "-//W3C//DTD SVG 1.1//EN" "http://www.w3.org/Graphics/SVG/1.1/DTD/svg11.dtd">
<svg version="1.1" id="图层_1" xmlns="http://www.w3.org/2000/svg" xmlns:xlink="http://www.w3.org/1999/xlink" x="0px" y="0px"
	 width="245.015px" height="222.316px" viewBox="0 0 245.015 222.316" enable-background="new 0 0 245.015 222.316"
	 xml:space="preserve">
<path fill="#FFFFFF" d="M45.314,146.105l1.179,3.418c-1.037,0.467-1.898,0.798-2.581,0.991c-1.39,0.41-2.916,0.615-4.58,0.615
	c-3.623,0-6.466-1.043-8.528-3.128c-2.211-2.232-3.315-5.298-3.315-9.194c0-4.386,1.339-7.759,4.016-10.117
	c1.959-1.709,4.495-2.563,7.605-2.563c2.335,0,4.711,0.542,7.126,1.625l-1.401,3.297c-1.982-1.002-3.823-1.504-5.52-1.504
	c-2.382,0-4.204,0.85-5.469,2.547c-1.288,1.755-1.93,3.959-1.93,6.613c0,3.122,0.847,5.498,2.545,7.128
	c1.299,1.252,2.98,1.879,5.042,1.879c1.288,0,2.506-0.21,3.657-0.633C43.708,146.886,44.425,146.562,45.314,146.105"/>
<path fill="#FFFFFF" d="M57.533,132.502c2.791,0,4.967,0.929,6.527,2.785c1.403,1.675,2.103,3.852,2.103,6.528
	c0,2.929-0.826,5.241-2.478,6.938c-1.539,1.584-3.63,2.376-6.272,2.376c-2.861,0-5.071-0.929-6.631-2.786
	c-1.401-1.675-2.103-3.856-2.103-6.544c0-2.929,0.827-5.236,2.479-6.923C52.684,133.294,54.809,132.502,57.533,132.502
	 M57.361,135.612c-1.629,0-2.843,0.78-3.64,2.341c-0.536,1.037-0.803,2.324-0.803,3.862c0,1.687,0.319,3.076,0.957,4.17
	c0.809,1.355,1.994,2.034,3.554,2.034c1.676,0,2.907-0.78,3.692-2.342c0.536-1.036,0.803-2.324,0.803-3.862
	c0-1.697-0.319-3.087-0.957-4.17C60.158,136.29,58.958,135.612,57.361,135.612"/>
<path fill="#FFFFFF" d="M70.642,150.736v-11.587c0-1.777-0.034-3.457-0.103-5.041l-0.05-1.214h3.844l0.137,2.632
	c0.604-0.672,1.191-1.219,1.761-1.641c1.219-0.923,2.602-1.384,4.152-1.384c2.461,0,4.073,1.088,4.836,3.264
	c0.684-0.797,1.327-1.43,1.932-1.896c1.196-0.911,2.569-1.367,4.119-1.367c2.221,0,3.753,0.837,4.597,2.512
	c0.501,0.991,0.752,2.655,0.752,4.99v10.732h-4.085v-10.527c0-1.436-0.102-2.443-0.307-3.024c-0.377-1.025-1.146-1.538-2.308-1.538
	c-1.504,0-2.923,1.008-4.255,3.024v12.065H81.58v-10.938c0-1.274-0.137-2.209-0.411-2.802c-0.399-0.899-1.099-1.35-2.102-1.35
	c-1.515,0-2.962,1.008-4.34,3.024v12.065H70.642z"/>
<path fill="#FFFFFF" d="M102.274,150.736v-11.587c0-1.777-0.034-3.457-0.103-5.041l-0.05-1.214h3.844l0.137,2.632
	c0.604-0.672,1.191-1.219,1.761-1.641c1.219-0.923,2.602-1.384,4.152-1.384c2.461,0,4.073,1.088,4.836,3.264
	c0.684-0.797,1.327-1.43,1.932-1.896c1.196-0.911,2.569-1.367,4.119-1.367c2.222,0,3.753,0.837,4.597,2.512
	c0.502,0.991,0.752,2.655,0.752,4.99v10.732h-4.084v-10.527c0-1.436-0.103-2.443-0.308-3.024c-0.377-1.025-1.146-1.538-2.308-1.538
	c-1.504,0-2.923,1.008-4.255,3.024v12.065h-4.084v-10.938c0-1.274-0.137-2.209-0.411-2.802c-0.399-0.899-1.099-1.35-2.102-1.35
	c-1.515,0-2.962,1.008-4.34,3.024v12.065H102.274z"/>
<path fill="#FFFFFF" d="M135.958,124.572c0.786,0,1.424,0.279,1.914,0.837c0.398,0.468,0.599,1.037,0.599,1.709
	c0,0.661-0.2,1.226-0.599,1.692c-0.49,0.569-1.139,0.854-1.948,0.854s-1.459-0.285-1.948-0.854c-0.4-0.456-0.599-1.02-0.599-1.692
	c0-0.684,0.198-1.253,0.599-1.709C134.478,124.852,135.138,124.572,135.958,124.572 M133.856,132.895h4.084v17.842h-4.084V132.895z"
	/>
<path fill="#FFFFFF" d="M144.641,136.005h-2.871v-3.11h2.871v-3.879l4.084-0.786v4.665h4.067v3.11h-4.067v8.289
	c0,1.208,0.119,2.045,0.358,2.512c0.354,0.695,1.031,1.043,2.035,1.043c0.488,0,1.133-0.148,1.931-0.444l0.358,3.127
	c-1.254,0.398-2.467,0.599-3.64,0.599c-2.019,0-3.437-0.615-4.256-1.846c-0.581-0.877-0.871-2.466-0.871-4.769V136.005z"/>
<path fill="#FFFFFF" d="M29.592,178.005h-2.871v-3.11h2.871v-3.879l4.084-0.787v4.666h4.067v3.11h-4.067v8.288
	c0,1.208,0.119,2.046,0.359,2.513c0.353,0.695,1.031,1.042,2.034,1.042c0.489,0,1.133-0.147,1.931-0.443l0.359,3.127
	c-1.254,0.398-2.467,0.598-3.64,0.598c-2.018,0-3.436-0.615-4.256-1.846c-0.581-0.877-0.871-2.465-0.871-4.768V178.005z"/>
<path fill="#FFFFFF" d="M49.211,174.502c2.791,0,4.967,0.929,6.527,2.785c1.403,1.675,2.103,3.852,2.103,6.528
	c0,2.929-0.826,5.241-2.478,6.938c-1.539,1.584-3.63,2.375-6.272,2.375c-2.861,0-5.071-0.928-6.631-2.785
	c-1.401-1.675-2.103-3.856-2.103-6.546c0-2.928,0.827-5.234,2.479-6.921C44.362,175.294,46.487,174.502,49.211,174.502
	 M49.039,177.611c-1.629,0-2.843,0.781-3.64,2.342c-0.536,1.037-0.803,2.324-0.803,3.862c0,1.687,0.319,3.076,0.957,4.17
	c0.809,1.355,1.994,2.034,3.554,2.034c1.676,0,2.907-0.78,3.692-2.342c0.536-1.036,0.803-2.324,0.803-3.862
	c0-1.697-0.319-3.087-0.957-4.17C51.836,178.29,50.635,177.611,49.039,177.611"/>
<path fill="#FFFFFF" d="M89.987,179.646v11.963c-2.826,1.016-5.515,1.521-8.066,1.521c-3.659,0-6.512-1.002-8.563-3.008
	c-2.302-2.232-3.452-5.303-3.452-9.211c0-4.272,1.305-7.588,3.913-9.946c2.086-1.891,4.848-2.837,8.289-2.837
	c2.632,0,5.235,0.559,7.811,1.675l-1.385,3.384c-2.199-1.094-4.318-1.641-6.358-1.641c-2.666,0-4.671,0.935-6.015,2.803
	c-1.22,1.687-1.828,3.834-1.828,6.444c0,3.063,0.871,5.399,2.614,7.005c1.378,1.276,3.116,1.914,5.212,1.914
	c1.254,0,2.478-0.222,3.675-0.666v-5.981H81.39v-3.418H89.987z"/>
<path fill="#FFFFFF" d="M95.883,192.736V168.52h5.828c2.005,0,3.589,0.137,4.751,0.41c1.686,0.41,2.98,1.311,3.88,2.701
	c0.752,1.162,1.127,2.553,1.127,4.17c0,2.608-0.951,4.563-2.853,5.861c-1.391,0.935-3.573,1.401-6.545,1.401h-1.95v9.673H95.883z
	 M100.053,179.748h1.367c1.892,0,3.231-0.193,4.017-0.581c1.138-0.558,1.709-1.646,1.709-3.265c0-1.526-0.519-2.625-1.556-3.298
	c-0.774-0.513-2.096-0.769-3.965-0.769h-1.572V179.748z"/>
<path fill="#FFFFFF" d="M178.896,33.973c-1.528,2.508-2.944,4.829-4.504,7.389c-3.91-3.366-8.43-4.616-13.439-2.928
	c-3.495,1.178-6.034,3.574-7.57,6.948c-3.301,7.247,0.049,15.885,7.186,18.601c6.494,2.47,14.016-0.646,16.088-6.95H160.69v-6.849
	h25.742c2.073,7.359-3.875,17.507-12.486,21.32c-9.828,4.353-21.565,0.725-27.275-8.431c-5.891-9.446-3.867-21.707,4.771-28.911
	C159.202,27.69,171.787,27.561,178.896,33.973"/>
<path fill="#FFFFFF" d="M182.31,66.772c1.504-2.489,2.998-4.966,4.494-7.441c6.897,4.499,12.539,4.815,17.238,0.987
	c4.516-3.679,6.236-10.182,4.148-15.686c-2.021-5.329-6.959-8.46-12.92-8.19c-6.334,0.287-10.269,4.153-12.532,12.448h-8.276
	c-0.953-8.366,6.208-17.821,15.383-20.458c10.541-3.029,21.436,2.008,26.116,12.074c4.476,9.623,1.157,21.516-7.696,27.585
	C200.222,73.605,188.265,72.98,182.31,66.772"/>
<path fill="#FFFFFF" d="M190.185,56.92V42.533c4.477,2.486,8.59,4.771,13.336,7.407C198.878,52.37,194.735,54.538,190.185,56.92"/>
<path fill="#FFFFFF" d="M155.178,92.486h-7.21l-1.63,4.555h-4.285l7.29-19.095h4.487l7.547,19.095h-4.556L155.178,92.486z
	 M154.046,89.252l-1.509-4.123c-0.306-0.845-0.634-1.837-0.984-2.979c-0.233,0.836-0.562,1.824-0.983,2.965l-1.482,4.137H154.046z"
	/>
<rect x="163.721" y="76.868" fill="#FFFFFF" width="4.164" height="20.173"/>
<rect x="172.251" y="76.868" fill="#FFFFFF" width="4.164" height="20.173"/>
<rect x="187.761" y="77.946" fill="#FFFFFF" width="4.299" height="19.095"/>
<path fill="#FFFFFF" d="M196.534,97.041v-8.894c-0.01-1.375-0.055-3.122-0.136-5.242h3.827l0.135,1.954
	c0.566-0.584,1.051-1.011,1.455-1.28c0.989-0.674,2.143-1.011,3.465-1.011c1.903,0,3.237,0.67,4.002,2.008
	c0.431,0.764,0.646,2.004,0.646,3.72v8.745h-4.165v-8.437c0-0.924-0.085-1.571-0.255-1.939c-0.307-0.674-0.872-1.011-1.698-1.011
	c-1.096,0-2.134,0.74-3.112,2.224v9.163H196.534z"/>
<path fill="#FFFFFF" d="M216.396,92.271c0.746,0,1.361,0.261,1.847,0.782c0.448,0.476,0.674,1.068,0.674,1.778
	c0,0.701-0.226,1.289-0.674,1.766c-0.485,0.521-1.109,0.781-1.873,0.781c-0.772,0-1.401-0.261-1.886-0.781
	c-0.45-0.477-0.674-1.064-0.674-1.766c0-0.728,0.224-1.32,0.674-1.778C214.985,92.531,215.624,92.271,216.396,92.271"/>
</svg>
