<?xml version="1.0" encoding="utf-8"?>
<!-- Generator: Adobe Illustrator 16.0.0, SVG Export Plug-In . SVG Version: 6.00 Build 0)  -->
<!DOCTYPE svg PUBLIC "-//W3C//DTD SVG 1.1//EN" "http://www.w3.org/Graphics/SVG/1.1/DTD/svg11.dtd">
<svg version="1.1" id="图层_1" xmlns="http://www.w3.org/2000/svg" xmlns:xlink="http://www.w3.org/1999/xlink" x="0px" y="0px"
	 width="245.015px" height="222.316px" viewBox="0 0 245.015 222.316" enable-background="new 0 0 245.015 222.316"
	 xml:space="preserve">
<polygon fill="#FFFFFF" points="26.75,149.944 26.75,125.727 40.917,125.727 40.917,129.145 30.987,129.145 30.987,135.948 
	40.421,135.948 40.421,139.366 30.987,139.366 30.987,146.526 41.431,146.526 41.431,149.944 "/>
<path fill="#FFFFFF" d="M50.521,149.944l-6.75-17.842h4.238l3.692,9.879c0.512,1.379,0.957,2.678,1.333,3.896
	c0.364-1.219,0.803-2.529,1.315-3.932l3.59-9.844h3.896l-6.682,17.842H50.521z"/>
<path fill="#FFFFFF" d="M68.073,142.323c0.318,3.303,2.034,4.955,5.143,4.955c1.767,0,3.539-0.574,5.316-1.727l1.452,3.008
	c-2.061,1.186-4.347,1.777-6.852,1.777c-3.145,0-5.527-0.877-7.144-2.633c-1.47-1.582-2.205-3.793-2.205-6.629
	c0-2.984,0.832-5.338,2.496-7.059c1.469-1.537,3.486-2.307,6.049-2.307c3.771,0,6.221,1.459,7.349,4.375
	c0.558,1.447,0.848,3.525,0.871,6.238H68.073z M76.361,139.434c-0.033-1.061-0.238-1.965-0.615-2.717
	c-0.672-1.322-1.811-1.982-3.418-1.982c-1.572,0-2.735,0.648-3.487,1.947c-0.443,0.775-0.689,1.691-0.734,2.752H76.361z"/>
<path fill="#FFFFFF" d="M84.958,149.944v-11.586c0-1.777-0.034-3.48-0.103-5.111l-0.05-1.145h3.844l0.137,2.633
	c0.694-0.73,1.316-1.283,1.862-1.658c1.311-0.912,2.797-1.367,4.461-1.367c2.347,0,3.965,0.838,4.854,2.512
	c0.523,0.969,0.786,2.633,0.786,4.99v10.732h-4.085v-10.527c0-1.424-0.113-2.432-0.342-3.025c-0.41-1.025-1.263-1.537-2.563-1.537
	c-1.664,0-3.237,1.008-4.717,3.025v12.064H84.958z"/>
<path fill="#FFFFFF" d="M107.363,135.213h-2.871v-3.111h2.871v-3.879l4.084-0.787v4.666h4.067v3.111h-4.067v8.287
	c0,1.209,0.119,2.047,0.359,2.514c0.353,0.695,1.031,1.041,2.034,1.041c0.489,0,1.133-0.146,1.931-0.443l0.359,3.127
	c-1.254,0.398-2.467,0.598-3.64,0.598c-2.018,0-3.436-0.615-4.256-1.846c-0.581-0.877-0.871-2.465-0.871-4.768V135.213z"/>
<path fill="#FFFFFF" d="M25.587,191.09l0.599-3.691c2.608,1.014,4.785,1.52,6.528,1.52c1.39,0,2.449-0.352,3.179-1.057
	c0.672-0.641,1.008-1.461,1.008-2.463c0-0.912-0.308-1.623-0.923-2.137c-0.558-0.467-1.811-1.111-3.76-1.932
	c-2.335-0.99-3.907-1.805-4.717-2.443c-1.332-1.059-1.999-2.535-1.999-4.426c0-2.336,0.814-4.152,2.444-5.451
	c1.39-1.117,3.264-1.676,5.622-1.676c1.983,0,4.249,0.404,6.802,1.213l-0.838,3.607c-2.244-0.934-4.164-1.402-5.758-1.402
	c-1.163,0-2.085,0.273-2.769,0.82c-0.718,0.57-1.076,1.316-1.076,2.238c0,0.787,0.301,1.447,0.905,1.982
	c0.581,0.502,1.732,1.111,3.452,1.83c2.495,1.025,4.181,1.908,5.059,2.648c1.344,1.105,2.016,2.707,2.016,4.803
	c0,2.404-0.826,4.25-2.477,5.537c-1.482,1.15-3.493,1.725-6.033,1.725C30.446,192.336,28.025,191.922,25.587,191.09"/>
<path fill="#FFFFFF" d="M61.409,174.102v11.57c0,2.131,0.052,4.221,0.153,6.271h-3.844l-0.137-2.631
	c-0.65,0.684-1.265,1.236-1.846,1.656c-1.276,0.912-2.734,1.367-4.375,1.367c-2.313,0-3.908-0.836-4.785-2.512
	c-0.513-0.979-0.769-2.643-0.769-4.99v-10.732h4.084v10.527c0,1.426,0.114,2.434,0.342,3.025c0.399,1.025,1.219,1.537,2.461,1.537
	c1.629,0,3.173-1.008,4.631-3.023v-12.066H61.409z"/>
<path fill="#FFFFFF" d="M67.236,191.944v-11.125c0-2.244-0.051-4.482-0.153-6.717h3.844l0.137,3.35
	c1.061-2.426,2.633-3.641,4.717-3.641c0.49,0,1.009,0.068,1.556,0.205l-0.24,3.623c-0.524-0.113-0.991-0.17-1.401-0.17
	c-1.276,0-2.358,0.58-3.247,1.742c-0.49,0.639-0.871,1.426-1.145,2.359v10.373H67.236z"/>
<path fill="#FFFFFF" d="M84.838,191.944l-6.75-17.842h4.238l3.692,9.879c0.512,1.379,0.957,2.678,1.333,3.896
	c0.364-1.219,0.803-2.529,1.315-3.932l3.59-9.844h3.896l-6.682,17.842H84.838z"/>
<path fill="#FFFFFF" d="M102.39,184.323c0.318,3.305,2.034,4.955,5.143,4.955c1.767,0,3.539-0.574,5.316-1.727l1.452,3.008
	c-2.061,1.186-4.347,1.777-6.852,1.777c-3.145,0-5.527-0.877-7.144-2.631c-1.47-1.584-2.205-3.795-2.205-6.631
	c0-2.984,0.832-5.338,2.496-7.059c1.469-1.537,3.486-2.307,6.049-2.307c3.771,0,6.221,1.459,7.349,4.375
	c0.558,1.447,0.848,3.527,0.871,6.238H102.39z M110.678,181.434c-0.033-1.061-0.238-1.965-0.615-2.717
	c-0.672-1.322-1.811-1.982-3.418-1.982c-1.572,0-2.735,0.648-3.487,1.947c-0.443,0.775-0.689,1.691-0.734,2.752H110.678z"/>
<path fill="#FFFFFF" d="M123.803,191.67l-7.178-17.568h4.359l3.571,9.041c0.523,1.311,1.023,2.672,1.504,4.084
	c0.523-1.594,1.025-3.018,1.504-4.271l3.348-8.854h3.984l-7.213,18.234c-1.07,2.713-2.045,4.592-2.922,5.641
	c-1.06,1.264-2.592,1.896-4.598,1.896c-1.059,0-2.25-0.205-3.571-0.615l0.7-3.178c0.855,0.33,1.595,0.494,2.222,0.494
	c1.253,0,2.263-0.684,3.024-2.051C122.994,193.727,123.416,192.774,123.803,191.67"/>
<path fill="#FFFFFF" d="M192.31,86.016l0.113-0.512c-0.211,0.05-0.43,0.078-0.654,0.081L192.31,86.016z"/>
<path fill="#FFFFFF" d="M196.384,90.285c2.602-1.577,4.34-4.435,4.34-7.698v-1.378h-2.391L196.384,90.285z"/>
<path fill="#FFFFFF" d="M182.968,85.586h-20.217c-0.943,0-1.832,0.444-2.398,1.199l-12.076,9.604l-2.125-9.604
	c-0.566-0.755-1.455-1.199-2.4-1.199h-11.992c-1.656,0-2.998-1.343-2.998-2.999v-35.98c0-1.657,1.342-2.999,2.998-2.999h8.104V37.61
	h-8.104c-4.969,0-8.996,4.027-8.996,8.996v35.98c0,4.968,4.027,8.996,8.996,8.996h10.494l2.057,9.584
	c0.373,1.698,1.289,2.292,2.225,2.426c0.965,0.139,2.057-0.492,2.834-1.216l13.873-10.794h27.436L182.968,85.586z"/>
<rect x="139.862" y="37.61" fill="#FFFFFF" width="5.996" height="5.997"/>
<path fill="#FFFFFF" d="M208.827,27.237h-59.971c-4.967,0-8.994,4.026-8.994,8.995v1.378h5.998v-1.378
	c0-1.656,1.342-2.999,2.996-2.999h59.971c1.656,0,2.998,1.343,2.998,2.999v35.982c0,1.655-1.342,2.999-2.998,2.999h-8.104h-3.891
	c-0.795,0-1.549,0.315-2.107,0.865c-0.104,0.104-0.201,0.214-0.291,0.333l-2.012,9.092l-0.113,0.512l-0.543-0.431l-11.535-9.173
	c-0.564-0.755-1.453-1.198-2.398-1.198h-28.977c-1.654,0-2.996-1.344-2.996-2.999V43.607h-5.998v28.607
	c0,4.967,4.027,8.994,8.994,8.994h28.486l5.625,4.377l7.709,5.997l0.541,0.421c0.777,0.723,1.869,1.354,2.834,1.216
	c0.936-0.134,1.852-0.728,2.223-2.426l0.109-0.509l1.949-9.076h2.391h8.104c4.969,0,8.996-4.027,8.996-8.994V36.232
	C217.823,31.264,213.796,27.237,208.827,27.237"/>
<path fill="#FFFFFF" d="M169.774,49.784c0.053-1.955,0.285-3.441,0.691-4.459c0.406-1.019,1.059-1.928,1.955-2.729
	c0.896-0.8,1.895-1.391,2.992-1.771c1.102-0.38,2.262-0.57,3.484-0.57c2.469,0,4.527,0.728,6.17,2.18
	c1.641,1.452,2.463,3.387,2.463,5.804c0,1.086-0.211,2.07-0.631,2.952c-0.422,0.883-1.318,1.982-2.689,3.299
	c-1.369,1.317-2.279,2.254-2.727,2.811c-0.449,0.557-0.789,1.222-1.018,1.995c-0.232,0.775-0.334,1.813-0.307,3.116h-3.178
	c0-1.521,0.123-2.735,0.367-3.646c0.244-0.909,0.543-1.703,0.896-2.383c0.354-0.678,1.166-1.676,2.443-2.993
	c1.277-1.316,2.193-2.273,2.75-2.871c0.555-0.597,0.834-1.514,0.834-2.749s-0.463-2.328-1.385-3.278s-2.281-1.426-4.072-1.426
	c-3.965,0-5.947,2.24-5.947,6.72H169.774z M180.444,69.456h-3.543v-3.747h3.543V69.456z"/>
<path fill="none" stroke="#FFFFFF" stroke-width="2.21" stroke-miterlimit="10" d="M169.774,49.784
	c0.053-1.955,0.285-3.441,0.691-4.459c0.406-1.019,1.059-1.928,1.955-2.729c0.896-0.8,1.895-1.391,2.992-1.771
	c1.102-0.38,2.262-0.57,3.484-0.57c2.469,0,4.527,0.728,6.17,2.18c1.641,1.452,2.463,3.387,2.463,5.804
	c0,1.086-0.211,2.07-0.631,2.952c-0.422,0.883-1.318,1.982-2.689,3.299c-1.369,1.317-2.279,2.254-2.727,2.811
	c-0.449,0.557-0.789,1.222-1.018,1.995c-0.232,0.775-0.334,1.813-0.307,3.116h-3.178c0-1.521,0.123-2.735,0.367-3.646
	c0.244-0.909,0.543-1.703,0.896-2.383c0.354-0.678,1.166-1.676,2.443-2.993c1.277-1.316,2.193-2.273,2.75-2.871
	c0.555-0.597,0.834-1.514,0.834-2.749s-0.463-2.328-1.385-3.278s-2.281-1.426-4.072-1.426c-3.965,0-5.947,2.24-5.947,6.72H169.774z
	 M180.444,69.456h-3.543v-3.747h3.543V69.456z"/>
</svg>
