<?xml version="1.0" encoding="utf-8"?>
<!-- Generator: Adobe Illustrator 16.0.0, SVG Export Plug-In . SVG Version: 6.00 Build 0)  -->
<!DOCTYPE svg PUBLIC "-//W3C//DTD SVG 1.1//EN" "http://www.w3.org/Graphics/SVG/1.1/DTD/svg11.dtd">
<svg version="1.1" id="图层_1" xmlns="http://www.w3.org/2000/svg" xmlns:xlink="http://www.w3.org/1999/xlink" x="0px" y="0px"
	 width="245.015px" height="222.316px" viewBox="0 0 245.015 222.316" enable-background="new 0 0 245.015 222.316"
	 xml:space="preserve">
<polygon fill="#FFFFFF" points="26.75,193.066 26.75,168.849 30.987,168.849 30.987,189.648 41.431,189.648 41.431,193.066 "/>
<path fill="#FFFFFF" d="M51.838,174.832c2.791,0,4.967,0.928,6.527,2.785c1.403,1.674,2.103,3.852,2.103,6.527
	c0,2.93-0.826,5.242-2.478,6.939c-1.539,1.584-3.63,2.375-6.272,2.375c-2.861,0-5.071-0.928-6.631-2.785
	c-1.401-1.676-2.103-3.857-2.103-6.545c0-2.928,0.827-5.236,2.479-6.922C46.99,175.623,49.115,174.832,51.838,174.832
	 M51.667,177.941c-1.629,0-2.843,0.781-3.64,2.342c-0.536,1.037-0.803,2.324-0.803,3.861c0,1.688,0.319,3.076,0.957,4.17
	c0.809,1.355,1.994,2.035,3.554,2.035c1.676,0,2.907-0.781,3.692-2.342c0.536-1.037,0.803-2.324,0.803-3.863
	c0-1.697-0.319-3.086-0.957-4.17C54.463,178.619,53.263,177.941,51.667,177.941"/>
<path fill="#FFFFFF" d="M76.396,175.207l3.93,0.018l-0.051,1.213c-0.091,2.439-0.137,4.375-0.137,5.811v8.785
	c0,2.096-0.125,3.662-0.375,4.699c-0.456,1.926-1.596,3.332-3.418,4.221c-1.413,0.684-3.1,1.025-5.059,1.025
	c-2.518,0-4.831-0.529-6.939-1.59l1.299-3.041c1.732,1.025,3.51,1.537,5.332,1.537c2.187,0,3.669-0.752,4.443-2.256
	c0.422-0.832,0.633-2.268,0.633-4.307v-1.281c-1.516,1.744-3.281,2.615-5.298,2.615c-2.153,0-3.902-0.82-5.247-2.461
	c-1.275-1.549-1.914-3.68-1.914-6.393c0-2.666,0.661-4.842,1.982-6.527c1.289-1.629,3.02-2.443,5.196-2.443
	c2.347,0,4.181,0.957,5.504,2.871L76.396,175.207z M76.054,181.257c-0.342-0.775-0.764-1.408-1.265-1.898
	c-0.923-0.922-1.942-1.383-3.059-1.383c-1.322,0-2.324,0.621-3.008,1.861c-0.592,1.072-0.889,2.41-0.889,4.018
	c0,1.572,0.314,2.871,0.941,3.896c0.706,1.174,1.725,1.76,3.059,1.76c1.105,0,2.13-0.479,3.076-1.436
	c0.433-0.445,0.814-0.98,1.145-1.607V181.257z"/>
<path fill="#FFFFFF" d="M88.034,166.902c0.786,0,1.423,0.279,1.914,0.836c0.398,0.469,0.598,1.037,0.598,1.709
	c0,0.662-0.2,1.227-0.598,1.693c-0.491,0.568-1.14,0.854-1.949,0.854s-1.459-0.285-1.948-0.854c-0.399-0.457-0.599-1.02-0.599-1.693
	c0-0.684,0.2-1.252,0.599-1.709C86.552,167.181,87.213,166.902,88.034,166.902 M85.931,175.224h4.085v17.842h-4.085V175.224z"/>
<path fill="#FFFFFF" d="M94.425,192.058l1.094-3.129c1.709,0.98,3.275,1.471,4.7,1.471c0.957,0,1.692-0.211,2.204-0.633
	c0.502-0.41,0.752-0.963,0.752-1.658c0-0.66-0.233-1.162-0.7-1.504c-0.365-0.262-1.322-0.666-2.871-1.213
	c-1.801-0.637-3.042-1.264-3.726-1.879c-0.9-0.809-1.349-1.908-1.349-3.299c0-1.721,0.642-3.07,1.93-4.051
	c1.162-0.889,2.718-1.332,4.665-1.332c1.892,0,3.822,0.426,5.794,1.281l-1.059,3.145c-1.538-0.924-3.066-1.385-4.58-1.385
	c-0.798,0-1.448,0.178-1.949,0.529c-0.512,0.354-0.768,0.855-0.768,1.504c0,0.662,0.324,1.174,0.973,1.539
	c0.365,0.205,1.299,0.586,2.803,1.145c1.834,0.684,3.105,1.402,3.812,2.154c0.716,0.752,1.076,1.742,1.076,2.973
	c0,1.676-0.605,3.043-1.812,4.102c-1.242,1.094-2.951,1.641-5.127,1.641C98.225,193.458,96.271,192.992,94.425,192.058"/>
<path fill="#FFFFFF" d="M112.644,178.333h-2.871v-3.109h2.871v-3.879l4.084-0.787v4.666h4.067v3.109h-4.067v8.289
	c0,1.209,0.119,2.045,0.359,2.512c0.353,0.695,1.031,1.043,2.034,1.043c0.489,0,1.133-0.148,1.931-0.443l0.359,3.127
	c-1.254,0.398-2.467,0.598-3.64,0.598c-2.018,0-3.436-0.615-4.256-1.846c-0.581-0.877-0.871-2.465-0.871-4.768V178.333z"/>
<path fill="#FFFFFF" d="M126.812,166.902c0.785,0,1.424,0.279,1.914,0.836c0.396,0.469,0.598,1.037,0.598,1.709
	c0,0.662-0.201,1.227-0.598,1.693c-0.49,0.568-1.141,0.854-1.949,0.854s-1.459-0.285-1.949-0.854
	c-0.398-0.457-0.598-1.02-0.598-1.693c0-0.684,0.199-1.252,0.598-1.709C125.329,167.181,125.991,166.902,126.812,166.902
	 M124.708,175.224h4.084v17.842h-4.084V175.224z"/>
<path fill="#FFFFFF" d="M146.517,188.914l1.314,3.008c-1.641,1.025-3.564,1.537-5.775,1.537c-2.803,0-4.99-0.842-6.563-2.529
	c-1.527-1.652-2.291-3.891-2.291-6.717c0-3.018,0.811-5.383,2.428-7.092c1.447-1.525,3.451-2.289,6.016-2.289
	c2.016,0,3.953,0.449,5.811,1.35l-1.23,3.041c-1.391-0.865-2.775-1.299-4.152-1.299c-1.574,0-2.742,0.576-3.504,1.727
	c-0.752,1.117-1.129,2.609-1.129,4.479c0,1.936,0.438,3.463,1.316,4.58c0.865,1.07,2.092,1.605,3.674,1.605
	C143.833,190.314,145.194,189.847,146.517,188.914"/>
<rect x="160.239" y="168.849" fill="#FFFFFF" width="4.238" height="24.217"/>
<path fill="#FFFFFF" d="M170.392,193.066v-11.588c0-1.777-0.035-3.48-0.104-5.109l-0.051-1.145h3.844l0.139,2.631
	c0.693-0.729,1.314-1.281,1.861-1.656c1.311-0.912,2.797-1.367,4.461-1.367c2.348,0,3.965,0.836,4.854,2.512
	c0.523,0.969,0.787,2.631,0.787,4.99v10.732h-4.086v-10.527c0-1.424-0.113-2.432-0.342-3.025c-0.41-1.025-1.264-1.537-2.563-1.537
	c-1.664,0-3.236,1.008-4.717,3.023v12.066H170.392z"/>
<path fill="#FFFFFF" d="M192.778,193.066v-14.732h-2.854v-3.109h2.854v-1.18c0-2.141,0.324-3.736,0.975-4.785
	c0.912-1.457,2.461-2.188,4.648-2.188c1.025,0,2.111,0.16,3.264,0.479l-0.324,3.264c-0.729-0.33-1.43-0.494-2.102-0.494
	c-1.061,0-1.762,0.512-2.104,1.537c-0.182,0.57-0.273,1.424-0.273,2.564v0.803h4.086v3.109h-4.086v14.732H192.778z"/>
<path fill="#FFFFFF" d="M212.296,174.832c2.791,0,4.967,0.928,6.527,2.785c1.404,1.674,2.104,3.852,2.104,6.527
	c0,2.93-0.826,5.242-2.479,6.939c-1.539,1.584-3.629,2.375-6.271,2.375c-2.861,0-5.072-0.928-6.631-2.785
	c-1.402-1.676-2.104-3.857-2.104-6.545c0-2.928,0.826-5.236,2.479-6.922C207.448,175.623,209.573,174.832,212.296,174.832
	 M212.124,177.941c-1.629,0-2.842,0.781-3.641,2.342c-0.535,1.037-0.803,2.324-0.803,3.861c0,1.688,0.32,3.076,0.957,4.17
	c0.811,1.355,1.994,2.035,3.555,2.035c1.676,0,2.906-0.781,3.691-2.342c0.537-1.037,0.805-2.324,0.805-3.863
	c0-1.697-0.32-3.086-0.957-4.17C214.921,178.619,213.72,177.941,212.124,177.941"/>
<path fill="#FFFFFF" d="M227.591,188.025c0.764,0,1.408,0.268,1.932,0.803c0.502,0.512,0.752,1.15,0.752,1.914
	s-0.25,1.4-0.752,1.914c-0.512,0.535-1.168,0.803-1.965,0.803c-0.799,0-1.453-0.268-1.965-0.803
	c-0.502-0.514-0.752-1.15-0.752-1.914c0-0.775,0.25-1.412,0.752-1.914C226.128,188.292,226.794,188.025,227.591,188.025"/>
<path fill="#FFFFFF" d="M189.603,34.018c-1.113-3.785-4.453-6.458-8.461-6.458s-7.572,2.896-8.463,6.904
	c-12.471,3.785-21.377,15.365-21.377,28.503v14.697c-4.232,2.674-7.127,7.571-7.127,12.471v0.223c0,2.005,0.445,4.009,1.113,5.79
	l0.223,0.223c0.668,1.336,1.781,2.449,3.34,2.672c0.67,0.223,1.338,0.446,1.783,0.446h60.57c0.445,0,0.891,0,1.113-0.224
	c1.781-0.223,3.34-1.336,4.008-2.895c0.891-1.781,1.336-4.008,1.336-6.013v-0.223c0-4.453-2.004-8.685-5.566-11.579V62.745
	C212.095,49.161,202.741,37.358,189.603,34.018 M213.431,90.135v0.223c0,1.56-0.223,2.896-0.891,4.231
	c0,0.223-0.223,0.223-0.445,0.445c-0.223,0-0.445,0-0.668,0.223h-60.793c-0.225,0-0.225-0.223-0.445-0.223
	c-0.225,0-0.447-0.223-0.447-0.223v-0.223c-0.445-1.335-0.891-2.672-0.891-4.009v-0.223c0-4.008,2.227-7.571,5.791-9.353
	c0.668-0.445,1.336-1.113,1.336-2.003V62.967c0-11.579,8.238-21.823,19.373-24.495c1.113-0.223,1.783-1.113,1.783-2.227
	c0-2.228,1.779-4.009,4.008-4.009c2.227,0,4.008,1.781,4.23,4.009c0,0.891,0.891,1.781,1.781,2.004
	c11.803,2.227,20.488,12.471,20.488,24.718v16.925c0,0.668,0.443,1.336,0.889,1.781C211.649,83.454,213.431,86.795,213.431,90.135
	 M190.271,103.941c0-1.336-0.891-2.227-2.227-2.227s-2.227,1.113-2.227,2.227c0,2.672-2.004,4.677-4.676,4.677
	c-2.674,0-4.678-2.005-4.678-4.677c0-1.336-0.891-2.227-2.227-2.227s-2.227,1.113-2.227,2.227c0,5.122,4.008,9.13,9.131,9.13
	C186.263,113.072,190.271,109.063,190.271,103.941"/>
<path fill="none" stroke="#FFFFFF" stroke-miterlimit="10" d="M189.603,34.018c-1.113-3.785-4.453-6.458-8.461-6.458
	s-7.572,2.896-8.463,6.904c-12.471,3.785-21.377,15.365-21.377,28.503v14.697c-4.232,2.674-7.127,7.571-7.127,12.471v0.223
	c0,2.005,0.445,4.009,1.113,5.79l0.223,0.223c0.668,1.336,1.781,2.449,3.34,2.672c0.67,0.223,1.338,0.446,1.783,0.446h60.57
	c0.445,0,0.891,0,1.113-0.224c1.781-0.223,3.34-1.336,4.008-2.895c0.891-1.781,1.336-4.008,1.336-6.013v-0.223
	c0-4.453-2.004-8.685-5.566-11.579V62.745C212.095,49.161,202.741,37.358,189.603,34.018z M213.431,90.135v0.223
	c0,1.56-0.223,2.896-0.891,4.231c0,0.223-0.223,0.223-0.445,0.445c-0.223,0-0.445,0-0.668,0.223h-60.793
	c-0.225,0-0.225-0.223-0.445-0.223c-0.225,0-0.447-0.223-0.447-0.223v-0.223c-0.445-1.335-0.891-2.672-0.891-4.009v-0.223
	c0-4.008,2.227-7.571,5.791-9.353c0.668-0.445,1.336-1.113,1.336-2.003V62.967c0-11.579,8.238-21.823,19.373-24.495
	c1.113-0.223,1.783-1.113,1.783-2.227c0-2.228,1.779-4.009,4.008-4.009c2.227,0,4.008,1.781,4.23,4.009
	c0,0.891,0.891,1.781,1.781,2.004c11.803,2.227,20.488,12.471,20.488,24.718v16.925c0,0.668,0.443,1.336,0.889,1.781
	C211.649,83.454,213.431,86.795,213.431,90.135z M190.271,103.941c0-1.336-0.891-2.227-2.227-2.227s-2.227,1.113-2.227,2.227
	c0,2.672-2.004,4.677-4.676,4.677c-2.674,0-4.678-2.005-4.678-4.677c0-1.336-0.891-2.227-2.227-2.227s-2.227,1.113-2.227,2.227
	c0,5.122,4.008,9.13,9.131,9.13C186.263,113.072,190.271,109.063,190.271,103.941z"/>
</svg>
