<?xml version="1.0" encoding="utf-8"?>
<!-- Generator: Adobe Illustrator 16.0.0, SVG Export Plug-In . SVG Version: 6.00 Build 0)  -->
<!DOCTYPE svg PUBLIC "-//W3C//DTD SVG 1.1//EN" "http://www.w3.org/Graphics/SVG/1.1/DTD/svg11.dtd">
<svg version="1.1" id="图层_1" xmlns="http://www.w3.org/2000/svg" xmlns:xlink="http://www.w3.org/1999/xlink" x="0px" y="0px"
	 width="245.015px" height="222.316px" viewBox="0 0 245.015 222.316" enable-background="new 0 0 245.015 222.316"
	 xml:space="preserve">
<path fill="#FFFFFF" d="M169.823,48.462h-12.611V27.775h12.611V48.462z M162.257,43.29h2.521V32.946h-2.521V43.29z"/>
<path fill="#FFFFFF" d="M197.567,48.462h-12.611V27.775h12.611V48.462z M190.001,43.29h2.521V32.946h-2.521V43.29z"/>
<polygon fill="#FFFFFF" points="217.745,100.182 137.034,100.182 137.034,35.532 152.167,35.532 152.167,40.703 142.079,40.703 
	142.079,95.01 212.702,95.01 212.702,40.703 202.612,40.703 202.612,35.532 217.745,35.532 "/>
<rect x="174.866" y="35.532" fill="#FFFFFF" width="5.045" height="5.172"/>
<rect x="157.212" y="69.15" fill="#FFFFFF" width="40.355" height="5.172"/>
<rect x="157.212" y="79.494" fill="#FFFFFF" width="40.355" height="5.172"/>
<rect x="139.556" y="53.634" fill="#FFFFFF" width="75.668" height="5.172"/>
<polygon fill="#FFFFFF" points="29.618,152.521 29.618,128.304 43.786,128.304 43.786,131.722 33.855,131.722 33.855,138.523 
	43.29,138.523 43.29,141.941 33.855,141.941 33.855,149.103 44.299,149.103 44.299,152.521 "/>
<path fill="#FFFFFF" d="M53.389,152.521l-6.75-17.842h4.238l3.692,9.877c0.512,1.379,0.957,2.678,1.333,3.896
	c0.364-1.219,0.803-2.529,1.315-3.93l3.59-9.844h3.896l-6.682,17.842H53.389z"/>
<path fill="#FFFFFF" d="M70.941,144.898c0.318,3.305,2.034,4.957,5.143,4.957c1.767,0,3.539-0.574,5.316-1.727l1.452,3.008
	c-2.061,1.186-4.347,1.777-6.852,1.777c-3.145,0-5.527-0.877-7.144-2.633c-1.47-1.582-2.205-3.793-2.205-6.631
	c0-2.984,0.832-5.336,2.496-7.057c1.469-1.539,3.486-2.309,6.049-2.309c3.771,0,6.221,1.459,7.349,4.375
	c0.558,1.447,0.848,3.527,0.871,6.238H70.941z M79.229,142.009c-0.033-1.059-0.238-1.965-0.615-2.717
	c-0.672-1.32-1.811-1.982-3.418-1.982c-1.572,0-2.735,0.65-3.487,1.949c-0.443,0.773-0.689,1.691-0.734,2.75H79.229z"/>
<path fill="#FFFFFF" d="M87.826,152.521v-11.588c0-1.777-0.034-3.48-0.103-5.109l-0.05-1.145h3.844l0.137,2.631
	c0.694-0.729,1.316-1.281,1.862-1.658c1.311-0.91,2.797-1.367,4.461-1.367c2.347,0,3.965,0.838,4.854,2.514
	c0.523,0.969,0.786,2.631,0.786,4.99v10.732h-4.085v-10.527c0-1.424-0.113-2.434-0.342-3.025c-0.41-1.025-1.263-1.539-2.562-1.539
	c-1.664,0-3.237,1.01-4.717,3.025v12.066H87.826z"/>
<path fill="#FFFFFF" d="M110.231,137.789h-2.871v-3.109h2.871v-3.881l4.084-0.785v4.666h4.067v3.109h-4.067v8.289
	c0,1.207,0.119,2.045,0.359,2.512c0.353,0.695,1.031,1.043,2.034,1.043c0.489,0,1.133-0.148,1.931-0.445l0.359,3.129
	c-1.254,0.398-2.467,0.598-3.64,0.598c-2.018,0-3.436-0.615-4.256-1.846c-0.581-0.877-0.871-2.465-0.871-4.768V137.789z"/>
<path fill="#FFFFFF" d="M42.794,187.582h-9.092l-2.477,6.939h-4.256l8.955-24.217h4.717l9.16,24.217H45.29L42.794,187.582z
	 M41.632,184.267l-2.034-5.742c-0.479-1.367-0.929-2.758-1.35-4.17c-0.342,1.195-0.798,2.586-1.367,4.17l-2.033,5.742H41.632z"/>
<path fill="#FFFFFF" d="M64.481,176.662l3.93,0.018l-0.051,1.213c-0.091,2.438-0.137,4.375-0.137,5.811v8.785
	c0,2.096-0.125,3.662-0.375,4.699c-0.456,1.924-1.596,3.332-3.418,4.221c-1.413,0.684-3.1,1.025-5.059,1.025
	c-2.518,0-4.831-0.529-6.939-1.59l1.299-3.041c1.732,1.025,3.51,1.537,5.332,1.537c2.187,0,3.669-0.752,4.443-2.256
	c0.422-0.832,0.633-2.268,0.633-4.307v-1.281c-1.516,1.744-3.281,2.615-5.298,2.615c-2.153,0-3.902-0.82-5.247-2.461
	c-1.275-1.549-1.914-3.68-1.914-6.393c0-2.666,0.661-4.842,1.982-6.527c1.289-1.629,3.02-2.443,5.196-2.443
	c2.347,0,4.181,0.957,5.504,2.871L64.481,176.662z M64.139,182.712c-0.342-0.775-0.764-1.408-1.265-1.898
	c-0.923-0.922-1.942-1.383-3.059-1.383c-1.322,0-2.324,0.621-3.008,1.861c-0.592,1.072-0.889,2.41-0.889,4.018
	c0,1.572,0.314,2.871,0.941,3.896c0.706,1.172,1.725,1.76,3.059,1.76c1.105,0,2.13-0.479,3.076-1.436
	c0.433-0.445,0.814-0.98,1.145-1.607V182.712z"/>
<path fill="#FFFFFF" d="M77.007,186.898c0.318,3.305,2.034,4.957,5.143,4.957c1.767,0,3.539-0.576,5.316-1.727l1.452,3.008
	c-2.061,1.186-4.347,1.777-6.852,1.777c-3.145,0-5.527-0.877-7.144-2.633c-1.47-1.584-2.205-3.793-2.205-6.629
	c0-2.986,0.832-5.338,2.496-7.059c1.469-1.539,3.486-2.307,6.049-2.307c3.771,0,6.221,1.457,7.349,4.375
	c0.558,1.445,0.848,3.525,0.871,6.236H77.007z M85.295,184.011c-0.033-1.063-0.238-1.967-0.615-2.719
	c-0.672-1.32-1.811-1.982-3.418-1.982c-1.572,0-2.735,0.65-3.487,1.949c-0.443,0.773-0.689,1.689-0.734,2.752H85.295z"/>
<path fill="#FFFFFF" d="M93.892,194.521v-11.588c0-1.777-0.034-3.48-0.103-5.109l-0.05-1.145h3.844l0.137,2.631
	c0.694-0.729,1.316-1.281,1.862-1.656c1.311-0.912,2.797-1.367,4.461-1.367c2.347,0,3.965,0.836,4.854,2.512
	c0.523,0.969,0.786,2.631,0.786,4.99v10.732h-4.085v-10.527c0-1.424-0.113-2.434-0.342-3.025c-0.41-1.025-1.263-1.537-2.562-1.537
	c-1.664,0-3.237,1.008-4.717,3.023v12.066H93.892z"/>
<path fill="#FFFFFF" d="M126.415,168.937h4.084v19.295c0,2.631,0.051,4.729,0.152,6.289h-3.912l-0.139-2.547
	c-0.58,0.787-1.143,1.385-1.689,1.795c-1.025,0.762-2.263,1.145-3.709,1.145c-2.313,0-4.113-0.924-5.4-2.768
	c-1.197-1.709-1.795-3.896-1.795-6.563c0-2.906,0.707-5.23,2.119-6.973c1.266-1.551,2.957-2.324,5.076-2.324
	c2.108,0,3.846,0.883,5.213,2.648V168.937z M126.415,182.386c-1.129-1.971-2.507-2.955-4.138-2.955
	c-1.298,0-2.295,0.568-2.989,1.709c-0.695,1.15-1.043,2.607-1.043,4.375c0,1.719,0.319,3.172,0.957,4.357
	c0.684,1.264,1.676,1.896,2.976,1.896c1.582,0,2.996-1.025,4.238-3.076V182.386z"/>
<path fill="#FFFFFF" d="M145.931,192.488c-0.615,0.648-1.201,1.145-1.76,1.486c-1.061,0.625-2.309,0.939-3.742,0.939
	c-1.846,0-3.264-0.49-4.256-1.469c-1.002-0.969-1.504-2.279-1.504-3.932c0-2.232,0.904-3.873,2.717-4.922
	c1.139-0.66,2.934-0.99,5.385-0.99c0.715,0,1.697,0.033,2.939,0.102v-0.324c0-2.711-1.316-4.068-3.949-4.068
	c-1.482,0-3.088,0.496-4.82,1.488l-1.092-2.939c2.039-1.049,4.188-1.572,6.443-1.572c2.881,0,4.943,0.773,6.186,2.324
	c0.637,0.809,1.043,1.896,1.213,3.264c0.068,0.615,0.104,1.539,0.104,2.768v5.332c0,1.893,0.057,3.408,0.17,4.547h-3.879
	L145.931,192.488z M145.71,186.267c-0.686-0.059-1.299-0.086-1.848-0.086c-3.303,0-4.957,1.082-4.957,3.246
	c0,0.764,0.234,1.396,0.701,1.898c0.502,0.535,1.186,0.803,2.051,0.803c1.572,0,2.924-0.832,4.053-2.496V186.267z"/>
</svg>
