<?xml version="1.0" encoding="utf-8"?>
<!-- Generator: Adobe Illustrator 16.0.0, SVG Export Plug-In . SVG Version: 6.00 Build 0)  -->
<!DOCTYPE svg PUBLIC "-//W3C//DTD SVG 1.1//EN" "http://www.w3.org/Graphics/SVG/1.1/DTD/svg11.dtd">
<svg version="1.1" id="图层_1" xmlns="http://www.w3.org/2000/svg" xmlns:xlink="http://www.w3.org/1999/xlink" x="0px" y="0px"
	 width="894.047px" height="261.31px" viewBox="0 0 894.047 261.31" enable-background="new 0 0 894.047 261.31"
	 xml:space="preserve">
<path fill="#FFFFFF" d="M66.492,70.288c7.506,0,13.328,2.575,17.466,7.723c3.995,5.005,5.991,11.224,5.991,18.659
	c0,8.204-2.358,14.845-7.073,19.921c-4.042,4.331-9.587,6.496-16.638,6.496c-7.699,0-13.617-2.574-17.756-7.723
	c-3.994-4.98-5.99-11.212-5.99-18.694c0-4.909,0.902-9.323,2.707-13.245C49.19,74.667,56.291,70.288,66.492,70.288 M66.021,77.505
	c-4.547,0-8.107,1.901-10.682,5.702c-2.334,3.417-3.5,7.904-3.5,13.462c0,6.135,1.383,10.923,4.151,14.363
	c2.597,3.225,6.013,4.836,10.248,4.836c4.619,0,8.24-1.899,10.863-5.702c2.334-3.392,3.5-7.891,3.5-13.497
	c0-6.136-1.383-10.911-4.148-14.328C73.853,79.117,70.375,77.505,66.021,77.505"/>
<path fill="#FFFFFF" d="M99.765,122.256V98.763c0.023-4.74-0.084-9.467-0.324-14.183h8.119l0.289,7.073
	c2.238-5.125,5.559-7.687,9.961-7.687c1.033,0,2.129,0.145,3.283,0.433l-0.504,7.651c-1.107-0.24-2.07-0.361-2.888-0.361
	c-2.743,0-5.053,1.227-6.928,3.681c-1.035,1.349-1.842,3.008-2.418,4.981v21.906H99.765z"/>
<path fill="#FFFFFF" d="M152.058,84.579h8.3l-0.107,2.563c-0.17,4.33-0.266,8.421-0.289,12.27v18.55
	c0,4.451-0.266,7.759-0.795,9.924c-0.963,4.09-3.369,7.074-7.217,8.951c-2.984,1.443-6.545,2.165-10.683,2.165
	c-5.293,0-10.178-1.119-14.653-3.356l2.744-6.459c3.608,2.165,7.35,3.249,11.223,3.249c4.643,0,7.783-1.589,9.42-4.765
	c0.889-1.757,1.336-4.788,1.336-9.095v-2.706c-3.178,3.681-6.906,5.521-11.189,5.521c-4.547,0-8.241-1.731-11.079-5.196
	c-2.695-3.272-4.043-7.771-4.043-13.498c0-5.63,1.397-10.226,4.188-13.786c2.719-3.441,6.375-5.161,10.971-5.161
	c4.931,0,8.804,2.021,11.621,6.063L152.058,84.579z M151.337,97.319c-0.723-1.636-1.613-2.971-2.672-4.006
	c-1.949-1.949-4.101-2.923-6.459-2.923c-2.793,0-4.908,1.312-6.351,3.934c-1.252,2.262-1.877,5.089-1.877,8.48
	c0,3.321,0.66,6.063,1.984,8.229c1.492,2.478,3.645,3.717,6.459,3.717c2.311,0,4.477-1.011,6.496-3.032
	c0.94-0.938,1.744-2.068,2.42-3.392V97.319z"/>
<path fill="#FFFFFF" d="M192.371,117.962c-1.299,1.371-2.539,2.418-3.717,3.139c-2.238,1.323-4.873,1.985-7.904,1.985
	c-3.899,0-6.893-1.034-8.987-3.103c-2.117-2.045-3.175-4.812-3.175-8.301c0-4.715,1.912-8.181,5.738-10.395
	c2.406-1.395,6.195-2.093,11.367-2.093c1.397,0,3.465,0.072,6.209,0.216v-0.685c0-5.702-2.779-8.553-8.338-8.553
	c-3.152,0-6.545,1.047-10.176,3.139l-2.31-6.207c4.379-2.213,8.914-3.32,13.605-3.32c6.086,0,10.442,1.636,13.065,4.908
	c1.347,1.709,2.201,4.006,2.562,6.893c0.145,1.276,0.217,3.212,0.217,5.81v11.261c0.072,4.932,0.191,8.132,0.361,9.599h-8.193
	L192.371,117.962z M191.901,104.825c-1.42-0.12-2.721-0.181-3.898-0.181c-3.489,0-6.004,0.481-7.543,1.444
	c-1.95,1.227-2.924,3.031-2.924,5.414c0,1.612,0.494,2.947,1.48,4.006c1.059,1.13,2.514,1.695,4.367,1.695
	c3.295,0,6.135-1.755,8.518-5.269V104.825z"/>
<path fill="#FFFFFF" d="M212.831,122.256V97.787c-0.023-4.595-0.096-8.191-0.215-10.79l-0.109-2.418h8.121l0.287,5.557
	c1.469-1.539,2.779-2.706,3.936-3.5c2.765-1.925,5.906-2.887,9.417-2.887c4.958,0,8.374,1.768,10.25,5.305
	c1.106,2.045,1.661,5.557,1.661,10.538v22.664h-8.625v-22.231c0-3.007-0.243-5.137-0.723-6.388c-0.865-2.165-2.67-3.248-5.412-3.248
	c-3.514,0-6.834,2.129-9.961,6.388v25.479H212.831z"/>
<path fill="#FFFFFF" d="M262.491,67.004c1.66,0,3.008,0.59,4.041,1.768c0.842,0.987,1.264,2.19,1.264,3.609
	c0,1.396-0.422,2.587-1.264,3.573c-1.033,1.204-2.406,1.805-4.113,1.805c-1.709,0-3.08-0.601-4.115-1.805
	c-0.842-0.962-1.262-2.153-1.262-3.573c0-1.443,0.42-2.646,1.262-3.609C259.362,67.594,260.759,67.004,262.491,67.004
	 M258.052,84.579h8.625v37.677h-8.625V84.579z"/>
<polygon fill="#FFFFFF" points="274.905,122.256 274.905,116.445 293.454,91.147 275.88,91.147 275.88,84.58 304.065,84.58 
	304.065,90.679 285.696,115.688 304.643,115.688 304.643,122.256 "/>
<path fill="#FFFFFF" d="M333.587,117.962c-1.299,1.371-2.539,2.418-3.717,3.139c-2.238,1.323-4.873,1.985-7.904,1.985
	c-3.899,0-6.893-1.034-8.987-3.103c-2.117-2.045-3.175-4.812-3.175-8.301c0-4.715,1.912-8.181,5.738-10.395
	c2.406-1.395,6.195-2.093,11.367-2.093c1.397,0,3.465,0.072,6.209,0.216v-0.685c0-5.702-2.779-8.553-8.338-8.553
	c-3.152,0-6.545,1.047-10.176,3.139l-2.31-6.207c4.379-2.213,8.914-3.32,13.605-3.32c6.086,0,10.442,1.636,13.065,4.908
	c1.347,1.709,2.201,4.006,2.562,6.893c0.145,1.276,0.217,3.212,0.217,5.81v11.261c0.072,4.932,0.191,8.132,0.361,9.599h-8.193
	L333.587,117.962z M333.118,104.825c-1.42-0.12-2.721-0.181-3.898-0.181c-3.489,0-6.004,0.481-7.543,1.444
	c-1.95,1.227-2.924,3.031-2.924,5.414c0,1.612,0.494,2.947,1.48,4.006c1.059,1.13,2.514,1.695,4.367,1.695
	c3.295,0,6.135-1.755,8.518-5.269V104.825z"/>
<path fill="#FFFFFF" d="M356.034,91.147h-6.064V84.58h6.064v-8.193l8.625-1.66v9.853h8.59v6.568h-8.59v17.503
	c0,2.551,0.252,4.319,0.758,5.305c0.746,1.468,2.178,2.202,4.295,2.202c1.058,0,2.418-0.313,4.078-0.938l0.758,6.604
	c-2.647,0.842-5.209,1.264-7.688,1.264c-4.258,0-7.254-1.299-8.986-3.897c-1.227-1.853-1.84-5.209-1.84-10.07V91.147z"/>
<path fill="#FFFFFF" d="M385.952,67.004c1.66,0,3.008,0.59,4.041,1.768c0.842,0.987,1.264,2.19,1.264,3.609
	c0,1.396-0.422,2.587-1.264,3.573c-1.033,1.204-2.406,1.805-4.113,1.805c-1.709,0-3.08-0.601-4.115-1.805
	c-0.842-0.962-1.262-2.153-1.262-3.573c0-1.443,0.42-2.646,1.262-3.609C382.823,67.594,384.22,67.004,385.952,67.004
	 M381.513,84.579h8.625v37.677h-8.625V84.579z"/>
<path fill="#FFFFFF" d="M418.143,83.786c5.895,0,10.489,1.961,13.785,5.882c2.959,3.513,4.44,8.097,4.44,13.75
	c0,6.184-1.744,11.067-5.233,14.651c-3.224,3.345-7.64,5.018-13.246,5.018c-6.039,0-10.705-1.961-14.002-5.883
	c-2.959-3.512-4.439-8.107-4.439-13.786c0-6.184,1.744-11.067,5.232-14.652C407.928,85.445,412.417,83.786,418.143,83.786
	 M417.782,90.354c-3.441,0-6.004,1.648-7.687,4.944c-1.131,2.189-1.696,4.908-1.696,8.156c0,3.561,0.672,6.484,2.02,8.77
	c1.709,2.863,4.199,4.295,7.47,4.295c3.561,0,6.172-1.648,7.832-4.945c1.131-2.189,1.696-4.908,1.696-8.156
	c0-3.585-0.674-6.508-2.02-8.771C423.688,91.786,421.149,90.354,417.782,90.354"/>
<path fill="#FFFFFF" d="M445.823,122.256V97.787c-0.023-4.595-0.096-8.191-0.217-10.79l-0.107-2.418h8.119l0.289,5.557
	c1.468-1.539,2.779-2.706,3.935-3.5c2.765-1.925,5.906-2.887,9.419-2.887c4.956,0,8.374,1.768,10.249,5.305
	c1.106,2.045,1.66,5.557,1.66,10.538v22.664h-8.625v-22.231c0-3.007-0.241-5.137-0.722-6.388c-0.866-2.165-2.672-3.248-5.414-3.248
	c-3.514,0-6.834,2.129-9.961,6.388v25.479H445.823z"/>
<path fill="#FFFFFF" d="M511.65,117.962c-1.3,1.371-2.537,2.418-3.718,3.139c-2.237,1.323-4.87,1.985-7.903,1.985
	c-3.897,0-6.894-1.034-8.985-3.103c-2.119-2.045-3.177-4.812-3.177-8.301c0-4.715,1.914-8.181,5.738-10.395
	c2.405-1.395,6.194-2.093,11.368-2.093c1.396,0,3.466,0.072,6.207,0.216v-0.685c0-5.702-2.778-8.553-8.336-8.553
	c-3.151,0-6.545,1.047-10.178,3.139l-2.31-6.207c4.379-2.213,8.914-3.32,13.606-3.32c6.086,0,10.442,1.636,13.065,4.908
	c1.345,1.709,2.201,4.006,2.56,6.893c0.146,1.276,0.217,3.212,0.217,5.81v11.261c0.072,4.932,0.193,8.132,0.361,9.599h-8.191
	L511.65,117.962z M511.18,104.825c-1.42-0.12-2.719-0.181-3.896-0.181c-3.491,0-6.004,0.481-7.543,1.444
	c-1.95,1.227-2.924,3.031-2.924,5.414c0,1.612,0.491,2.947,1.479,4.006c1.058,1.13,2.515,1.695,4.365,1.695
	c3.297,0,6.137-1.755,8.518-5.269V104.825z"/>
<rect x="532.075" y="68.23" fill="#FFFFFF" width="8.627" height="54.026"/>
<path fill="#FFFFFF" d="M571.63,122.257V71.118h12.883c5.076,0,9.203,0.433,12.378,1.299c5.534,1.493,9.612,4.68,12.235,9.563
	c2.14,3.97,3.213,8.83,3.213,14.58c0,10.322-3.153,17.576-9.455,21.762c-2.985,1.997-6.967,3.224-11.948,3.681
	c-1.851,0.169-4.257,0.253-7.216,0.253H571.63z M580.579,115.039h3.537c5.654,0,9.828-0.962,12.524-2.887
	c2.261-1.588,3.945-3.97,5.052-7.146c0.866-2.479,1.299-5.257,1.299-8.337c0-4.378-0.864-8.179-2.598-11.404
	c-1.83-3.44-4.632-5.558-8.41-6.351c-1.804-0.385-4.558-0.578-8.263-0.578h-3.142V115.039z"/>
<path fill="#FFFFFF" d="M628.397,106.161c0.289,3.104,1.082,5.449,2.383,7.037c1.925,2.286,4.765,3.429,8.517,3.429
	c3.705,0,7.435-1.215,11.188-3.646l3.066,6.352c-4.355,2.503-9.179,3.754-14.47,3.754c-6.642,0-11.67-1.864-15.086-5.594
	c-3.104-3.344-4.656-7.999-4.656-13.967c0-6.303,1.755-11.271,5.269-14.904c3.104-3.224,7.361-4.836,12.775-4.836
	c7.963,0,13.137,3.08,15.52,9.238c1.179,3.056,1.791,7.436,1.841,13.137H628.397z M645.901,100.062
	c-0.071-2.238-0.506-4.15-1.299-5.738c-1.42-2.767-3.826-4.151-7.219-4.151c-3.32,0-5.773,1.372-7.361,4.115
	c-0.938,1.612-1.457,3.536-1.553,5.774H645.901z"/>
<path fill="#FFFFFF" d="M665.459,91.147h-6.062V84.58h6.062v-8.193l8.625-1.66v9.853h8.591v6.568h-8.591v17.503
	c0,2.551,0.254,4.319,0.759,5.305c0.745,1.468,2.178,2.202,4.295,2.202c1.058,0,2.418-0.313,4.078-0.938l0.758,6.604
	c-2.647,0.842-5.209,1.264-7.687,1.264c-4.26,0-7.254-1.299-8.985-3.897c-1.229-1.853-1.843-5.209-1.843-10.07V91.147z"/>
<path fill="#FFFFFF" d="M712.269,117.962c-1.3,1.371-2.539,2.418-3.718,3.139c-2.237,1.323-4.873,1.985-7.903,1.985
	c-3.899,0-6.894-1.034-8.987-3.103c-2.117-2.045-3.175-4.812-3.175-8.301c0-4.715,1.912-8.181,5.738-10.395
	c2.405-1.395,6.194-2.093,11.366-2.093c1.397,0,3.466,0.072,6.209,0.216v-0.685c0-5.702-2.778-8.553-8.338-8.553
	c-3.151,0-6.545,1.047-10.176,3.139l-2.31-6.207c4.379-2.213,8.914-3.32,13.604-3.32c6.086,0,10.442,1.636,13.065,4.908
	c1.347,1.709,2.201,4.006,2.562,6.893c0.146,1.276,0.217,3.212,0.217,5.81v11.261c0.072,4.932,0.191,8.132,0.361,9.599h-8.193
	L712.269,117.962z M711.799,104.825c-1.42-0.12-2.721-0.181-3.897-0.181c-3.489,0-6.004,0.481-7.543,1.444
	c-1.95,1.227-2.924,3.031-2.924,5.414c0,1.612,0.493,2.947,1.479,4.006c1.06,1.13,2.514,1.695,4.367,1.695
	c3.295,0,6.135-1.755,8.518-5.269V104.825z"/>
<path fill="#FFFFFF" d="M737.061,67.004c1.661,0,3.008,0.59,4.042,1.768c0.841,0.987,1.263,2.19,1.263,3.609
	c0,1.396-0.422,2.587-1.263,3.573c-1.034,1.204-2.407,1.805-4.114,1.805c-1.709,0-3.08-0.601-4.115-1.805
	c-0.842-0.962-1.262-2.153-1.262-3.573c0-1.443,0.42-2.646,1.262-3.609C733.933,67.594,735.329,67.004,737.061,67.004
	 M732.622,84.579h8.625v37.677h-8.625V84.579z"/>
<rect x="753.372" y="68.23" fill="#FFFFFF" width="8.627" height="54.026"/>
<path fill="#FFFFFF" d="M771.417,120.127l2.312-6.604c1.466,0.842,2.609,1.432,3.427,1.768c2.117,0.891,4.295,1.336,6.533,1.336
	c1.997,0,3.536-0.445,4.62-1.336c1.058-0.842,1.588-1.997,1.588-3.464c0-1.42-0.495-2.491-1.481-3.212
	c-0.769-0.53-2.791-1.384-6.062-2.563c-2.696-0.962-4.573-1.744-5.631-2.345c-3.392-1.949-5.088-4.8-5.088-8.554
	c0-3.632,1.358-6.484,4.078-8.553c2.454-1.876,5.737-2.815,9.853-2.815c3.92,0,7.998,0.89,12.233,2.671l-2.236,6.64
	c-3.274-1.925-6.497-2.887-9.672-2.887c-1.687,0-3.058,0.374-4.116,1.119c-1.082,0.746-1.623,1.804-1.623,3.175
	c0,1.396,0.687,2.479,2.057,3.249c0.796,0.433,2.769,1.239,5.918,2.417c3.851,1.444,6.533,2.948,8.05,4.512
	c1.515,1.588,2.272,3.694,2.272,6.316c0,3.513-1.274,6.387-3.826,8.625c-2.621,2.31-6.229,3.464-10.825,3.464
	C779.44,123.086,775.315,122.1,771.417,120.127"/>
<path fill="#FFFFFF" d="M68.044,177.638v13.459c-1.26,0.482-2.678,0.875-4.258,1.176c-1.58,0.301-3.047,0.452-4.4,0.452
	c-3.83,0-6.944-1.192-9.34-3.576c-2.68-2.651-4.018-6.214-4.018-10.687c0-4.674,1.346-8.403,4.037-11.188
	c2.452-2.544,5.598-3.817,9.442-3.817c2.664,0,5.443,0.67,8.336,2.01l-0.963,2.631c-2.506-1.285-4.996-1.929-7.473-1.929
	c-3.215,0-5.685,1.212-7.414,3.636c-1.646,2.33-2.47,5.203-2.47,8.619c0,3.896,1.125,6.922,3.375,9.078
	c1.753,1.674,4.025,2.512,6.81,2.512c1.647,0,3.328-0.301,5.041-0.904v-8.758h-5.603v-2.713H68.044z"/>
<path fill="#FFFFFF" d="M75.175,192.322v-28.464h5.504c3.428,0,5.912,0.502,7.453,1.507c2.195,1.419,3.295,3.683,3.295,6.789
	c0,2.036-0.537,3.729-1.607,5.082c-1.059,1.313-2.592,2.19-4.6,2.632c-1.313,0.294-2.953,0.442-4.922,0.442H78.47v12.012H75.175z
	 M78.47,177.599h1.346c2.744,0,4.674-0.281,5.785-0.845c1.553-0.79,2.33-2.323,2.33-4.6c0-1.205-0.281-2.276-0.844-3.214
	c-0.67-1.111-1.701-1.801-3.094-2.069c-1.003-0.201-2.222-0.301-3.656-0.301H78.47V177.599z"/>
<path fill="#FFFFFF" d="M106.392,192.322v-28.464h4.44c2.197,0,3.882,0.08,5.062,0.241c4.285,0.589,6.428,2.96,6.428,7.11
	c0,2.276-0.676,3.978-2.03,5.103c-0.843,0.696-2.087,1.199-3.736,1.506c4.365,0.496,6.549,2.806,6.549,6.931
	c0,3.134-1.211,5.311-3.635,6.528c-1.031,0.509-2.258,0.831-3.678,0.964c-0.562,0.055-1.814,0.081-3.755,0.081H106.392z
	 M109.687,176.613h1.486c2.705,0,4.553-0.28,5.545-0.843c1.407-0.804,2.108-2.189,2.108-4.159c0-2.088-0.657-3.495-1.967-4.218
	c-1.031-0.576-2.928-0.864-5.686-0.864h-1.486V176.613z M109.687,189.65h1.486c1.969,0,3.448-0.073,4.44-0.221
	c2.664-0.402,3.998-2.082,3.998-5.042c0-2.236-0.912-3.736-2.733-4.499c-1.125-0.483-3.027-0.724-5.705-0.724h-1.486V189.65z"/>
<path fill="#FFFFFF" d="M145.382,171.472v14.062c0.014,3.481,0.066,5.745,0.16,6.789h-3.094l-0.119-3.334
	c-0.738,0.79-1.467,1.446-2.191,1.968c-1.647,1.18-3.387,1.769-5.223,1.769c-2.584,0-4.357-0.964-5.322-2.894
	c-0.43-0.869-0.69-2.074-0.783-3.615c-0.055-0.897-0.08-1.795-0.08-2.691v-12.053h3.132v12.112c0,2.104,0.147,3.569,0.442,4.399
	c0.51,1.486,1.668,2.23,3.476,2.23c2.209,0,4.366-1.3,6.467-3.897v-14.845H145.382z"/>
<path fill="#FFFFFF" d="M150.985,191.298l0.945-2.471c1.914,0.924,3.602,1.386,5.061,1.386c1.058,0,1.976-0.288,2.752-0.864
	c0.83-0.615,1.246-1.499,1.246-2.65c0-0.924-0.275-1.627-0.824-2.109c-0.469-0.415-1.586-0.958-3.354-1.627
	c-1.406-0.549-2.398-1.011-2.972-1.387c-1.85-1.165-2.774-2.725-2.774-4.68c0-1.834,0.717-3.308,2.15-4.42
	c1.219-0.937,2.786-1.405,4.702-1.405c1.955,0,3.935,0.516,5.945,1.546l-0.945,2.471c-1.5-1.004-3.073-1.506-4.721-1.506
	c-1.07,0-1.947,0.229-2.631,0.683c-0.803,0.522-1.205,1.313-1.205,2.37c0,0.964,0.395,1.728,1.186,2.29
	c0.576,0.402,1.599,0.897,3.072,1.486c1.635,0.657,2.754,1.198,3.355,1.628c1.539,1.058,2.311,2.537,2.311,4.439
	c0,2.008-0.758,3.582-2.27,4.72c-1.34,1.018-3.027,1.526-5.062,1.526C154.983,192.724,152.995,192.249,150.985,191.298"/>
<path fill="#FFFFFF" d="M171.454,161.85c0.764,0,1.354,0.288,1.77,0.864c0.281,0.388,0.422,0.843,0.422,1.365
	c0,0.51-0.141,0.957-0.422,1.346c-0.416,0.576-1.02,0.864-1.809,0.864c-0.777,0-1.373-0.288-1.787-0.864
	c-0.281-0.389-0.422-0.836-0.422-1.346c0-0.522,0.141-0.978,0.422-1.365C170.042,162.138,170.651,161.85,171.454,161.85
	 M169.868,171.471h3.133v20.851h-3.133V171.471z"/>
<path fill="#FFFFFF" d="M180.153,192.322v-14.062c-0.014-3.401-0.066-5.664-0.16-6.789h3.094l0.119,3.334
	c0.791-0.83,1.533-1.499,2.23-2.008c1.58-1.152,3.362-1.728,5.344-1.728c2.637,0,4.445,0.963,5.424,2.892
	c0.428,0.857,0.689,2.063,0.783,3.616c0.053,0.938,0.08,1.835,0.08,2.691v12.053h-3.135V180.21c0-2.09-0.146-3.556-0.441-4.399
	c-0.522-1.487-1.721-2.23-3.596-2.23c-2.263,0-4.467,1.3-6.609,3.897v14.845H180.153z"/>
<path fill="#FFFFFF" d="M205.785,182.741c0.228,2.329,0.763,4.064,1.607,5.202c1.152,1.513,2.854,2.27,5.104,2.27
	c1.914,0,3.816-0.655,5.703-1.968l1.207,2.431c-2.17,1.366-4.494,2.049-6.971,2.049c-3.295,0-5.832-1.078-7.613-3.235
	c-1.555-1.888-2.33-4.419-2.33-7.593c0-3.843,1.037-6.729,3.113-8.657c1.553-1.446,3.541-2.17,5.965-2.17
	c3.711,0,6.201,1.521,7.472,4.561c0.711,1.714,1.092,4.085,1.147,7.111H205.785z M216.853,180.229
	c-0.039-1.54-0.307-2.825-0.803-3.857c-0.896-1.86-2.424-2.791-4.58-2.791c-2.062,0-3.609,0.918-4.64,2.752
	c-0.59,1.058-0.911,2.356-0.963,3.896H216.853z"/>
<path fill="#FFFFFF" d="M224.126,191.298l0.943-2.471c1.916,0.924,3.602,1.386,5.063,1.386c1.056,0,1.974-0.288,2.752-0.864
	c0.83-0.615,1.246-1.499,1.246-2.65c0-0.924-0.275-1.627-0.824-2.109c-0.469-0.415-1.588-0.958-3.356-1.627
	c-1.406-0.549-2.396-1.011-2.972-1.387c-1.848-1.165-2.772-2.725-2.772-4.68c0-1.834,0.717-3.308,2.149-4.42
	c1.218-0.937,2.785-1.405,4.701-1.405c1.955,0,3.937,0.516,5.945,1.546l-0.943,2.471c-1.5-1.004-3.075-1.506-4.721-1.506
	c-1.072,0-1.949,0.229-2.631,0.683c-0.805,0.522-1.205,1.313-1.205,2.37c0,0.964,0.395,1.728,1.184,2.29
	c0.576,0.402,1.601,0.897,3.074,1.486c1.633,0.657,2.752,1.198,3.355,1.628c1.539,1.058,2.309,2.537,2.309,4.439
	c0,2.008-0.756,3.582-2.27,4.72c-1.339,1.018-3.027,1.526-5.062,1.526C228.122,192.724,226.134,192.249,224.126,191.298"/>
<path fill="#FFFFFF" d="M240.817,191.298l0.945-2.471c1.914,0.924,3.602,1.386,5.061,1.386c1.058,0,1.976-0.288,2.752-0.864
	c0.83-0.615,1.246-1.499,1.246-2.65c0-0.924-0.275-1.627-0.824-2.109c-0.469-0.415-1.586-0.958-3.354-1.627
	c-1.406-0.549-2.398-1.011-2.972-1.387c-1.85-1.165-2.774-2.725-2.774-4.68c0-1.834,0.717-3.308,2.15-4.42
	c1.219-0.937,2.786-1.405,4.702-1.405c1.955,0,3.935,0.516,5.945,1.546l-0.945,2.471c-1.5-1.004-3.073-1.506-4.721-1.506
	c-1.07,0-1.947,0.229-2.631,0.683c-0.803,0.522-1.205,1.313-1.205,2.37c0,0.964,0.395,1.728,1.186,2.29
	c0.576,0.402,1.599,0.897,3.072,1.486c1.635,0.657,2.754,1.198,3.355,1.628c1.539,1.058,2.311,2.537,2.311,4.439
	c0,2.008-0.758,3.582-2.27,4.72c-1.34,1.018-3.027,1.526-5.062,1.526C244.815,192.724,242.827,192.249,240.817,191.298"/>
<path fill="#FFFFFF" d="M288.747,188.506l0.824,2.631c-2.719,1.059-5.269,1.587-7.654,1.587c-3.91,0-7.057-1.259-9.441-3.775
	c-2.557-2.705-3.836-6.254-3.836-10.647c0-3.04,0.601-5.731,1.808-8.075c1.338-2.584,3.194-4.438,5.563-5.563
	c1.715-0.804,3.629-1.205,5.746-1.205c2.476,0,5.027,0.589,7.652,1.767l-1.064,2.633c-2.358-1.125-4.534-1.688-6.528-1.688
	c-3.134,0-5.531,1.186-7.191,3.555c-1.662,2.385-2.492,5.25-2.492,8.598c0,2.304,0.429,4.398,1.287,6.287
	c0.924,2.05,2.303,3.535,4.137,4.459c1.259,0.631,2.718,0.944,4.378,0.944C284.173,190.012,286.444,189.51,288.747,188.506"/>
<path fill="#FFFFFF" d="M302.286,171.069c2.959,0,5.35,1.146,7.172,3.436c1.539,1.929,2.311,4.392,2.311,7.392
	c0,3.229-0.893,5.832-2.672,7.814c-1.809,2.009-4.119,3.014-6.932,3.014c-3.039,0-5.471-1.146-7.291-3.437
	c-1.541-1.94-2.31-4.411-2.31-7.411c0-3.24,0.89-5.845,2.671-7.814C297.03,172.067,299.38,171.069,302.286,171.069 M302.085,173.581
	c-1.285,0-2.438,0.395-3.455,1.185c-1.848,1.446-2.772,3.824-2.772,7.131c0,2.29,0.483,4.179,1.446,5.665
	c1.152,1.768,2.773,2.651,4.861,2.651c2.264,0,3.965-1.024,5.104-3.073c0.802-1.419,1.205-3.174,1.205-5.263
	c0-2.29-0.483-4.171-1.448-5.646C305.876,174.465,304.228,173.581,302.085,173.581"/>
<path fill="#FFFFFF" d="M317.372,192.322v-14.062c-0.014-3.401-0.066-5.664-0.16-6.789h3.094l0.119,3.334
	c0.791-0.83,1.533-1.499,2.23-2.008c1.58-1.152,3.362-1.728,5.344-1.728c2.637,0,4.445,0.963,5.424,2.892
	c0.428,0.857,0.689,2.063,0.783,3.616c0.053,0.938,0.08,1.835,0.08,2.691v12.053h-3.135V180.21c0-2.09-0.146-3.556-0.441-4.399
	c-0.522-1.487-1.721-2.23-3.596-2.23c-2.263,0-4.467,1.3-6.609,3.897v14.845H317.372z"/>
<path fill="#FFFFFF" d="M342.401,192.322v-18.34h-3.375v-2.511h3.375v-1.988c0-2.451,0.342-4.232,1.023-5.344
	c0.938-1.526,2.526-2.29,4.762-2.29c0.91,0,1.889,0.134,2.934,0.401l-0.281,2.713c-0.739-0.402-1.536-0.604-2.391-0.604
	c-1.326,0-2.184,0.629-2.572,1.888c-0.227,0.737-0.342,1.902-0.342,3.495v1.729h4.922v2.511h-4.922v18.34H342.401z"/>
<path fill="#FFFFFF" d="M356.121,182.741c0.228,2.329,0.763,4.064,1.607,5.202c1.152,1.513,2.854,2.27,5.104,2.27
	c1.914,0,3.816-0.655,5.703-1.968l1.207,2.431c-2.17,1.366-4.494,2.049-6.971,2.049c-3.295,0-5.832-1.078-7.613-3.235
	c-1.555-1.888-2.33-4.419-2.33-7.593c0-3.843,1.037-6.729,3.113-8.657c1.553-1.446,3.541-2.17,5.965-2.17
	c3.711,0,6.201,1.521,7.472,4.561c0.711,1.714,1.092,4.085,1.147,7.111H356.121z M367.188,180.229
	c-0.039-1.54-0.307-2.825-0.803-3.857c-0.896-1.86-2.424-2.791-4.58-2.791c-2.062,0-3.609,0.918-4.64,2.752
	c-0.59,1.058-0.911,2.356-0.963,3.896H367.188z"/>
<path fill="#FFFFFF" d="M376.069,192.322v-11.892c0-2.732-0.041-5.397-0.121-7.995l-0.02-0.964h2.912l0.122,3.837
	c0.695-1.286,1.445-2.277,2.248-2.974c0.964-0.844,2.17-1.265,3.617-1.265c0.428,0,0.91,0.046,1.445,0.14l-0.281,2.813
	c-0.375-0.08-0.736-0.12-1.084-0.12c-1.555,0-2.92,0.771-4.098,2.31c-0.656,0.884-1.193,1.855-1.607,2.912v13.198H376.069z"/>
<path fill="#FFFFFF" d="M391.617,182.741c0.228,2.329,0.763,4.064,1.607,5.202c1.152,1.513,2.854,2.27,5.104,2.27
	c1.914,0,3.816-0.655,5.703-1.968l1.207,2.431c-2.17,1.366-4.494,2.049-6.971,2.049c-3.295,0-5.832-1.078-7.613-3.235
	c-1.555-1.888-2.33-4.419-2.33-7.593c0-3.843,1.037-6.729,3.113-8.657c1.553-1.446,3.541-2.17,5.965-2.17
	c3.711,0,6.201,1.521,7.472,4.561c0.711,1.714,1.092,4.085,1.147,7.111H391.617z M402.685,180.229
	c-0.039-1.54-0.307-2.825-0.803-3.857c-0.896-1.86-2.424-2.791-4.58-2.791c-2.062,0-3.609,0.918-4.64,2.752
	c-0.59,1.058-0.911,2.356-0.963,3.896H402.685z"/>
<path fill="#FFFFFF" d="M411.524,192.322v-14.062c-0.014-3.401-0.066-5.664-0.16-6.789h3.094l0.119,3.334
	c0.791-0.83,1.533-1.499,2.23-2.008c1.58-1.152,3.362-1.728,5.344-1.728c2.637,0,4.445,0.963,5.424,2.892
	c0.427,0.857,0.689,2.063,0.783,3.616c0.053,0.938,0.08,1.835,0.08,2.691v12.053h-3.135V180.21c0-2.09-0.146-3.556-0.441-4.399
	c-0.522-1.487-1.721-2.23-3.596-2.23c-2.263,0-4.467,1.3-6.609,3.897v14.845H411.524z"/>
<path fill="#FFFFFF" d="M448.706,188.365l1.205,2.431c-1.887,1.285-3.996,1.929-6.326,1.929c-3,0-5.352-0.917-7.051-2.752
	c-1.781-1.929-2.672-4.554-2.672-7.875c0-3.655,0.944-6.468,2.832-8.437c1.647-1.728,3.85-2.591,6.61-2.591
	c2.154,0,4.229,0.555,6.226,1.667l-1.185,2.47c-1.688-1.084-3.375-1.627-5.063-1.627c-2.035,0-3.568,0.737-4.599,2.21
	c-1.018,1.46-1.528,3.43-1.528,5.906c0,2.665,0.604,4.788,1.809,6.367c1.111,1.433,2.664,2.15,4.66,2.15
	C445.392,190.214,447.087,189.598,448.706,188.365"/>
<path fill="#FFFFFF" d="M456.119,182.741c0.228,2.329,0.763,4.064,1.606,5.202c1.152,1.513,2.854,2.27,5.104,2.27
	c1.914,0,3.815-0.655,5.703-1.968l1.207,2.431c-2.17,1.366-4.494,2.049-6.972,2.049c-3.295,0-5.832-1.078-7.612-3.235
	c-1.556-1.888-2.33-4.419-2.33-7.593c0-3.843,1.037-6.729,3.112-8.657c1.554-1.446,3.541-2.17,5.966-2.17
	c3.711,0,6.2,1.521,7.472,4.561c0.711,1.714,1.092,4.085,1.146,7.111H456.119z M467.186,180.229
	c-0.039-1.54-0.307-2.825-0.803-3.857c-0.896-1.86-2.424-2.791-4.58-2.791c-2.062,0-3.608,0.918-4.64,2.752
	c-0.59,1.058-0.911,2.356-0.963,3.896H467.186z"/>
<path fill="#FFFFFF" d="M505.073,188.506l0.824,2.631c-2.719,1.059-5.269,1.587-7.654,1.587c-3.909,0-7.057-1.259-9.44-3.775
	c-2.557-2.705-3.836-6.254-3.836-10.647c0-3.04,0.601-5.731,1.808-8.075c1.338-2.584,3.194-4.438,5.563-5.563
	c1.715-0.804,3.629-1.205,5.746-1.205c2.476,0,5.026,0.589,7.651,1.767l-1.063,2.633c-2.358-1.125-4.534-1.688-6.528-1.688
	c-3.134,0-5.531,1.186-7.191,3.555c-1.661,2.385-2.491,5.25-2.491,8.598c0,2.304,0.429,4.398,1.287,6.287
	c0.924,2.05,2.303,3.535,4.137,4.459c1.259,0.631,2.718,0.944,4.378,0.944C500.5,190.012,502.77,189.51,505.073,188.506"/>
<path fill="#FFFFFF" d="M510.456,192.322v-30.071h3.136v12.454c2.289-2.424,4.787-3.635,7.491-3.635
	c2.625,0,4.435,0.963,5.425,2.892c0.428,0.857,0.688,2.063,0.782,3.616c0.054,0.938,0.08,1.835,0.08,2.691v12.053h-3.133V180.21
	c0-2.09-0.147-3.556-0.44-4.399c-0.511-1.487-1.709-2.23-3.597-2.23c-2.276,0-4.479,1.3-6.608,3.897v14.845H510.456z"/>
<path fill="#FFFFFF" d="M535.948,161.85c0.765,0,1.353,0.288,1.769,0.864c0.28,0.388,0.422,0.843,0.422,1.365
	c0,0.51-0.142,0.957-0.422,1.346c-0.416,0.576-1.019,0.864-1.81,0.864c-0.774,0-1.373-0.288-1.787-0.864
	c-0.28-0.389-0.422-0.836-0.422-1.346c0-0.522,0.142-0.978,0.422-1.365C534.534,162.138,535.145,161.85,535.948,161.85
	 M534.36,171.471h3.135v20.851h-3.135V171.471z"/>
<path fill="#FFFFFF" d="M544.645,192.322v-14.062c-0.012-3.401-0.065-5.664-0.159-6.789h3.094l0.121,3.334
	c0.789-0.83,1.532-1.499,2.228-2.008c1.58-1.152,3.362-1.728,5.344-1.728c2.64,0,4.445,0.963,5.425,2.892
	c0.428,0.857,0.688,2.063,0.782,3.616c0.054,0.938,0.08,1.835,0.08,2.691v12.053h-3.133V180.21c0-2.09-0.147-3.556-0.44-4.399
	c-0.524-1.487-1.724-2.23-3.597-2.23c-2.264,0-4.467,1.3-6.608,3.897v14.845H544.645z"/>
<path fill="#FFFFFF" d="M579.598,189.892c-0.709,0.764-1.392,1.346-2.049,1.747c-1.205,0.724-2.597,1.085-4.177,1.085
	c-2.185,0-3.851-0.615-5.002-1.848c-1.019-1.085-1.528-2.518-1.528-4.299c0-2.758,1.159-4.713,3.478-5.865
	c1.352-0.684,3.358-1.025,6.024-1.025c0.549,0,1.553,0.028,3.014,0.081v-0.563c0-1.513-0.194-2.664-0.584-3.455
	c-0.694-1.446-2.073-2.169-4.137-2.169c-1.687,0-3.481,0.602-5.384,1.807l-1.366-2.249c2.185-1.379,4.547-2.069,7.092-2.069
	c3.16,0,5.322,0.944,6.488,2.832c0.549,0.898,0.87,2.184,0.963,3.857c0.041,0.589,0.062,1.439,0.062,2.551v6.811
	c-0.015,2.009,0.041,3.742,0.159,5.203h-2.911L579.598,189.892z M579.358,182.157c-0.735-0.053-1.521-0.079-2.352-0.079
	c-2.222,0-3.843,0.295-4.861,0.884c-1.338,0.763-2.008,1.941-2.008,3.535c0,1.125,0.334,2.021,1.004,2.691
	c0.697,0.684,1.627,1.024,2.793,1.024c2.183,0,3.99-1.063,5.424-3.194V182.157z"/>
<path fill="#FFFFFF" d="M599.004,192.322v-2.873c4.353-3.91,7.525-6.989,9.521-9.239c1.793-2.035,3.066-3.776,3.816-5.223
	c0.709-1.407,1.064-2.739,1.064-3.998c0-1.433-0.529-2.584-1.588-3.455c-1.164-0.964-2.684-1.445-4.559-1.445
	c-2.143,0-4.346,0.703-6.609,2.108l-0.824-2.812c2.625-1.286,5.237-1.93,7.834-1.93c2.545,0,4.635,0.563,6.268,1.688
	c1.875,1.273,2.813,3.154,2.813,5.645c0,1.875-0.543,3.736-1.627,5.584c-1.271,2.21-3.755,5.163-7.453,8.859
	c-1.42,1.42-2.986,2.88-4.699,4.379h14.022v2.712H599.004z"/>
<path fill="#FFFFFF" d="M632.067,163.456c6.428,0,9.644,4.875,9.644,14.625c0,4.365-0.615,7.72-1.849,10.063
	c-1.621,3.053-4.265,4.58-7.935,4.58c-3.991,0-6.771-1.795-8.336-5.384c-0.978-2.25-1.467-5.344-1.467-9.28
	c0-4.353,0.616-7.694,1.849-10.024C625.593,164.982,628.292,163.456,632.067,163.456 M631.827,166.169
	c-1.364,0-2.563,0.449-3.596,1.346c-1.847,1.607-2.771,5.135-2.771,10.586c0,3.991,0.461,6.89,1.385,8.698
	c1.086,2.142,2.779,3.214,5.082,3.214c2.492,0,4.265-1.266,5.324-3.797c0.75-1.769,1.125-4.486,1.125-8.155
	c0-3.991-0.464-6.884-1.388-8.678C635.905,167.239,634.184,166.169,631.827,166.169"/>
<polygon fill="#FFFFFF" points="655.329,192.322 655.329,167.434 649.524,171.13 648.138,168.619 655.651,163.858 658.503,163.858 
	658.503,192.322 "/>
<path fill="#FFFFFF" d="M671.881,192.685l0.16-2.673c0.67,0.054,1.232,0.081,1.688,0.081c3.845,0,6.716-1.413,8.617-4.238
	c1.272-1.875,2.09-4.313,2.451-7.313c-1.742,2.197-4.025,3.295-6.849,3.295c-1.769,0-3.369-0.469-4.802-1.407
	c-2.385-1.565-3.575-4.077-3.575-7.532c0-2.825,0.877-5.108,2.631-6.85c1.754-1.728,4.004-2.591,6.75-2.591
	c2.356,0,4.304,0.608,5.845,1.827c2.383,1.888,3.575,5.197,3.575,9.924c0,4.057-0.784,7.586-2.351,10.586
	c-1.459,2.759-3.446,4.68-5.965,5.766c-1.821,0.776-3.951,1.164-6.389,1.164C673.416,192.724,672.818,192.711,671.881,192.685
	 M678.811,166.088c-1.741,0-3.159,0.583-4.258,1.748s-1.647,2.772-1.647,4.821c0,1.981,0.51,3.555,1.526,4.72
	c1.084,1.219,2.531,1.828,4.338,1.828c1.836,0,3.314-0.603,4.439-1.808c1.112-1.166,1.668-2.766,1.668-4.802
	c0-2.021-0.548-3.608-1.646-4.76C682.119,166.671,680.645,166.088,678.811,166.088"/>
</svg>
