<?xml version="1.0" encoding="utf-8"?>
<!-- Generator: Adobe Illustrator 16.0.0, SVG Export Plug-In . SVG Version: 6.00 Build 0)  -->
<!DOCTYPE svg PUBLIC "-//W3C//DTD SVG 1.1//EN" "http://www.w3.org/Graphics/SVG/1.1/DTD/svg11.dtd">
<svg version="1.1" id="图层_1" xmlns="http://www.w3.org/2000/svg" xmlns:xlink="http://www.w3.org/1999/xlink" x="0px" y="0px"
	 width="902.8px" height="241.125px" viewBox="0 0 902.8 241.125" enable-background="new 0 0 902.8 241.125" xml:space="preserve">
<path fill="#FFFFFF" d="M47.602,90.504v-22.13l-3.065-0.126v-3.674h10.247c2.462,0,4.408,0.168,5.836,0.503
	c2.072,0.491,3.66,1.596,4.765,3.318c0.924,1.428,1.387,3.136,1.387,5.123c0,3.205-1.168,5.599-3.506,7.181
	c-1.176,0.797-2.674,1.315-4.494,1.553c-0.994,0.126-2.176,0.189-3.549,0.189h-2.414v8.063l3.695,0.126v3.695H44.537V90.63
	L47.602,90.504z M52.725,78.368h1.68c2.338,0,3.99-0.238,4.955-0.714c1.4-0.685,2.099-2.022,2.099-4.01
	c0-1.876-0.636-3.226-1.91-4.052c-0.951-0.63-2.582-0.945-4.892-0.945h-1.932V78.368z"/>
<polygon fill="#FFFFFF" points="72.147,90.504 72.147,66.715 69.354,66.568 69.354,62.894 77.165,62.684 77.165,90.504 
	79.958,90.651 79.958,94.325 69.354,94.325 69.354,90.651 "/>
<path fill="#FFFFFF" d="M88.65,84.961c0.168,1.806,0.629,3.171,1.385,4.095c1.121,1.33,2.772,1.994,4.955,1.994
	c2.157,0,4.326-0.706,6.51-2.12l1.785,3.695c-2.535,1.456-5.342,2.184-8.42,2.184c-3.863,0-6.789-1.085-8.777-3.255
	c-1.805-1.945-2.707-4.654-2.707-8.125c0-3.667,1.021-6.558,3.064-8.672c1.807-1.875,4.284-2.813,7.434-2.813
	c4.633,0,7.643,1.792,9.027,5.375c0.686,1.778,1.043,4.325,1.071,7.643H88.65z M98.834,81.413c-0.043-1.302-0.295-2.415-0.756-3.338
	c-0.826-1.61-2.226-2.415-4.199-2.415c-1.932,0-3.359,0.798-4.283,2.394c-0.547,0.938-0.848,2.057-0.905,3.359H98.834z"/>
<path fill="#FFFFFF" d="M121.594,94.325l-0.19-2.498c-0.755,0.797-1.476,1.406-2.162,1.826c-1.302,0.77-2.836,1.155-4.599,1.155
	c-2.268,0-4.01-0.602-5.227-1.806c-1.232-1.189-1.848-2.799-1.848-4.829c0-2.743,1.112-4.759,3.338-6.047
	c1.399-0.811,3.598-1.217,6.592-1.217c0.869,0,2.08,0.042,3.633,0.126v-0.672c0-1.386-0.279-2.436-0.84-3.15
	c-0.812-1.035-2.127-1.553-3.947-1.553c-1.875,0-3.871,0.608-5.984,1.826l-1.344-3.611c2.549-1.288,5.187-1.932,7.916-1.932
	c3.554,0,6.09,0.889,7.601,2.667c0.797,0.952,1.293,2.225,1.491,3.821c0.084,0.686,0.125,1.715,0.125,3.086v9.008l2.793,0.126v3.674
	H121.594z M121.131,84.184c-0.84-0.07-1.596-0.105-2.268-0.105c-2.029,0-3.492,0.28-4.388,0.84
	c-1.133,0.714-1.699,1.764-1.699,3.149c0,0.938,0.285,1.715,0.859,2.331c0.617,0.658,1.463,0.987,2.541,0.987
	c1.918,0,3.57-1.022,4.955-3.066V84.184z"/>
<path fill="#FFFFFF" d="M132.196,93.275v-6.194h3.926l0.273,3.234c1.287,0.518,2.639,0.776,4.053,0.776
	c1.301,0,2.338-0.244,3.107-0.734c0.743-0.476,1.112-1.169,1.112-2.079c0-0.616-0.201-1.12-0.608-1.512
	c-0.365-0.349-1.064-0.664-2.099-0.945c-3.598-0.951-5.901-1.693-6.909-2.225c-1.904-1.008-2.855-2.646-2.855-4.913
	c0-2.212,0.805-3.912,2.414-5.102c1.457-1.092,3.492-1.638,6.109-1.638c2.536,0,5.18,0.406,7.938,1.218v6.257h-3.863l-0.252-3.255
	c-1.219-0.42-2.457-0.63-3.717-0.63c-1.133,0-2.016,0.21-2.645,0.63c-0.714,0.476-1.072,1.155-1.072,2.037
	c0,0.952,0.455,1.637,1.365,2.057c0.477,0.225,1.834,0.644,4.075,1.26c2.169,0.602,3.568,1.064,4.199,1.386
	c1.918,0.98,2.875,2.618,2.875,4.913c0,2.226-0.789,3.955-2.371,5.186c-1.555,1.204-3.864,1.806-6.93,1.806
	C137.27,94.809,134.561,94.297,132.196,93.275"/>
<path fill="#FFFFFF" d="M158.945,84.961c0.168,1.806,0.629,3.171,1.385,4.095c1.121,1.33,2.772,1.994,4.955,1.994
	c2.157,0,4.326-0.706,6.51-2.12l1.785,3.695c-2.535,1.456-5.342,2.184-8.42,2.184c-3.863,0-6.789-1.085-8.777-3.255
	c-1.805-1.945-2.707-4.654-2.707-8.125c0-3.667,1.021-6.558,3.064-8.672c1.807-1.875,4.284-2.813,7.434-2.813
	c4.633,0,7.643,1.792,9.027,5.375c0.686,1.778,1.043,4.325,1.071,7.643H158.945z M169.129,81.413
	c-0.043-1.302-0.295-2.415-0.756-3.338c-0.826-1.61-2.226-2.415-4.199-2.415c-1.932,0-3.359,0.798-4.283,2.394
	c-0.547,0.938-0.848,2.057-0.905,3.359H169.129z"/>
<path fill="#FFFFFF" d="M205.557,91.113c-2.24,2.464-4.801,3.695-7.686,3.695c-2.98,0-5.003-1.146-6.066-3.443
	c-0.533-1.134-0.799-3.016-0.799-5.648v-9.49l-2.793-0.126v-3.696l7.811-0.209V85.78c0,1.624,0.189,2.8,0.568,3.527
	c0.559,1.092,1.526,1.638,2.897,1.638c1.988,0,3.877-1.197,5.67-3.59V76.227l-2.793-0.126v-3.696l7.81-0.209v18.329l2.793,0.126
	v3.674h-7.412V91.113z"/>
<path fill="#FFFFFF" d="M218.363,99.764V76.227l-2.793-0.126v-3.695l7.581-0.21v3.254c0.728-0.909,1.406-1.596,2.037-2.057
	c1.33-0.966,2.861-1.449,4.597-1.449c2.815,0,5.012,1.12,6.594,3.359c1.482,2.114,2.225,4.795,2.225,8.042
	c0,3.583-0.868,6.446-2.604,8.587c-1.539,1.918-3.619,2.877-6.236,2.877s-4.744-1.092-6.383-3.276v8.231l3.256,0.126v3.674H215.57
	V99.89L218.363,99.764z M223.381,87.187c1.555,2.506,3.283,3.758,5.187,3.758c1.596,0,2.813-0.769,3.653-2.309
	c0.783-1.456,1.176-3.241,1.176-5.354c0-2.184-0.428-3.975-1.282-5.375c-0.853-1.4-2.078-2.1-3.673-2.1
	c-1.905,0-3.59,1.197-5.061,3.59V87.187z"/>
<polygon fill="#FFFFFF" points="244.84,90.504 244.84,66.715 242.047,66.568 242.047,62.894 249.858,62.684 249.858,90.504 
	252.651,90.651 252.651,94.325 242.047,94.325 242.047,90.651 "/>
<path fill="#FFFFFF" d="M266.948,71.944c3.43,0,6.103,1.141,8.021,3.422c1.721,2.044,2.583,4.711,2.583,8
	c0,3.597-1.014,6.439-3.045,8.524c-1.875,1.946-4.444,2.918-7.706,2.918c-3.513,0-6.228-1.14-8.146-3.422
	c-1.721-2.043-2.582-4.717-2.582-8.02c0-3.598,1.016-6.439,3.045-8.525C261.006,72.91,263.618,71.944,266.948,71.944
	 M266.739,75.765c-2.002,0-3.492,0.959-4.473,2.876c-0.658,1.274-0.986,2.856-0.986,4.746c0,2.071,0.393,3.772,1.176,5.102
	c0.994,1.666,2.443,2.498,4.345,2.498c2.073,0,3.59-0.958,4.557-2.876c0.658-1.274,0.986-2.856,0.986-4.745
	c0-2.086-0.39-3.787-1.175-5.102C270.175,76.598,268.698,75.765,266.739,75.765"/>
<path fill="#FFFFFF" d="M295.231,94.325l-0.19-2.498c-0.755,0.797-1.476,1.406-2.162,1.826c-1.302,0.77-2.836,1.155-4.599,1.155
	c-2.268,0-4.01-0.602-5.227-1.806c-1.232-1.189-1.848-2.799-1.848-4.829c0-2.743,1.112-4.759,3.338-6.047
	c1.399-0.811,3.598-1.217,6.592-1.217c0.869,0,2.08,0.042,3.633,0.126v-0.672c0-1.386-0.279-2.436-0.84-3.15
	c-0.812-1.035-2.127-1.553-3.947-1.553c-1.875,0-3.871,0.608-5.984,1.826l-1.344-3.611c2.549-1.288,5.187-1.932,7.916-1.932
	c3.554,0,6.09,0.889,7.601,2.667c0.797,0.952,1.293,2.225,1.491,3.821c0.084,0.686,0.125,1.715,0.125,3.086v9.008l2.793,0.126v3.674
	H295.231z M294.768,84.184c-0.84-0.07-1.596-0.105-2.268-0.105c-2.029,0-3.492,0.28-4.388,0.84
	c-1.133,0.714-1.699,1.764-1.699,3.149c0,0.938,0.285,1.715,0.859,2.331c0.617,0.658,1.463,0.987,2.541,0.987
	c1.918,0,3.57-1.022,4.955-3.066V84.184z"/>
<path fill="#FFFFFF" d="M321.434,94.325l-0.127-3.128c-0.712,0.966-1.406,1.7-2.078,2.204c-1.259,0.938-2.779,1.407-4.556,1.407
	c-2.842,0-5.053-1.134-6.635-3.401c-1.469-2.1-2.203-4.787-2.203-8.063c0-3.555,0.867-6.404,2.603-8.545
	c1.553-1.903,3.631-2.856,6.235-2.856c2.576,0,4.711,1.079,6.404,3.234v-8.462l-2.939-0.126v-3.695l7.957-0.21v27.841l2.793,0.126
	v3.674H321.434z M321.077,79.439c-1.385-2.421-3.086-3.632-5.102-3.632c-1.582,0-2.8,0.7-3.654,2.099
	c-0.853,1.4-1.279,3.192-1.279,5.375c0,2.114,0.39,3.899,1.176,5.354c0.839,1.54,2.056,2.311,3.652,2.311
	c1.945,0,3.682-1.26,5.207-3.779V79.439z"/>
<path fill="#FFFFFF" d="M350.073,93.989l-7.266-17.784l-2.14-0.104v-3.695h10.265v3.695l-2.855,0.104l2.92,7.307
	c0.545,1.428,1.154,3.143,1.826,5.144c0.154-0.462,0.301-0.903,0.441-1.323c0.336-1.063,0.811-2.414,1.428-4.052l2.688-7.076
	l-2.836-0.104v-3.695h9.763v3.695l-2.14,0.104l-7.35,18.604c-1.316,3.345-2.512,5.661-3.59,6.95c-1.302,1.553-3.164,2.33-5.586,2.33
	c-1.384,0-2.861-0.252-4.429-0.756l0.861-3.926c1.035,0.42,1.945,0.63,2.729,0.63c1.134,0,2.029-0.364,2.687-1.092
	C348.372,97.992,349.232,96.341,350.073,93.989"/>
<path fill="#FFFFFF" d="M377.219,71.944c3.43,0,6.103,1.141,8.021,3.422c1.721,2.044,2.583,4.711,2.583,8
	c0,3.597-1.014,6.439-3.045,8.524c-1.875,1.946-4.444,2.918-7.706,2.918c-3.513,0-6.228-1.14-8.146-3.422
	c-1.721-2.043-2.582-4.717-2.582-8.02c0-3.598,1.016-6.439,3.045-8.525C371.278,72.91,373.889,71.944,377.219,71.944 M377.01,75.765
	c-2.002,0-3.492,0.959-4.473,2.876c-0.658,1.274-0.986,2.856-0.986,4.746c0,2.071,0.393,3.772,1.176,5.102
	c0.994,1.666,2.443,2.498,4.345,2.498c2.073,0,3.59-0.958,4.557-2.876c0.658-1.274,0.986-2.856,0.986-4.745
	c0-2.086-0.39-3.787-1.175-5.102C380.446,76.598,378.969,75.765,377.01,75.765"/>
<path fill="#FFFFFF" d="M408.42,91.113c-2.24,2.464-4.801,3.695-7.686,3.695c-2.98,0-5.003-1.146-6.066-3.443
	c-0.533-1.134-0.799-3.016-0.799-5.648v-9.49l-2.793-0.126v-3.696l7.811-0.209V85.78c0,1.624,0.189,2.8,0.568,3.527
	c0.559,1.092,1.526,1.638,2.897,1.638c1.988,0,3.877-1.197,5.67-3.59V76.227l-2.793-0.126v-3.696l7.81-0.209v18.329l2.793,0.126
	v3.674h-7.412V91.113z"/>
<path fill="#FFFFFF" d="M421.227,90.525V76.227l-2.791-0.126v-3.696l7.516-0.21v4.116c1.259-2.842,3.164-4.263,5.711-4.263
	c0.63,0,1.281,0.099,1.953,0.294l-0.231,4.41c-0.658-0.154-1.24-0.231-1.744-0.231c-1.609,0-2.953,0.671-4.031,2.015
	c-0.572,0.7-1.035,1.659-1.385,2.877v9.112l3.213,0.126v3.674h-11.002v-3.674L421.227,90.525z"/>
<path fill="#FFFFFF" d="M449.152,99.764V76.227l-2.793-0.126v-3.695l7.581-0.21v3.254c0.729-0.909,1.406-1.596,2.037-2.057
	c1.33-0.966,2.86-1.449,4.597-1.449c2.815,0,5.012,1.12,6.594,3.359c1.482,2.114,2.226,4.795,2.226,8.042
	c0,3.583-0.868,6.446-2.604,8.587c-1.539,1.918-3.619,2.877-6.235,2.877c-2.617,0-4.744-1.092-6.383-3.276v8.231l3.256,0.126v3.674
	h-11.067V99.89L449.152,99.764z M454.171,87.187c1.555,2.506,3.282,3.758,5.187,3.758c1.596,0,2.813-0.769,3.653-2.309
	c0.782-1.456,1.176-3.241,1.176-5.354c0-2.184-0.429-3.975-1.282-5.375c-0.853-1.4-2.078-2.1-3.673-2.1
	c-1.905,0-3.59,1.197-5.061,3.59V87.187z"/>
<path fill="#FFFFFF" d="M478.758,84.961c0.168,1.806,0.629,3.171,1.385,4.095c1.121,1.33,2.772,1.994,4.955,1.994
	c2.157,0,4.326-0.706,6.51-2.12l1.785,3.695c-2.535,1.456-5.342,2.184-8.42,2.184c-3.863,0-6.789-1.085-8.777-3.255
	c-1.805-1.945-2.707-4.654-2.707-8.125c0-3.667,1.021-6.558,3.064-8.672c1.807-1.875,4.284-2.813,7.434-2.813
	c4.634,0,7.644,1.792,9.027,5.375c0.686,1.778,1.043,4.325,1.071,7.643H478.758z M488.941,81.413
	c-0.043-1.302-0.295-2.415-0.756-3.338c-0.826-1.61-2.226-2.415-4.199-2.415c-1.932,0-3.358,0.798-4.282,2.394
	c-0.548,0.938-0.849,2.057-0.905,3.359H488.941z"/>
<path fill="#FFFFFF" d="M500.236,90.525V76.227l-2.793-0.126v-3.696l7.519-0.21v4.116c1.259-2.842,3.162-4.263,5.711-4.263
	c0.628,0,1.281,0.099,1.953,0.294l-0.233,4.41c-0.658-0.154-1.238-0.231-1.742-0.231c-1.608,0-2.953,0.671-4.03,2.015
	c-0.574,0.7-1.035,1.659-1.386,2.877v9.112l3.211,0.126v3.674h-11.002v-3.674L500.236,90.525z"/>
<path fill="#FFFFFF" d="M515.752,93.275v-6.194h3.927l0.272,3.234c1.287,0.518,2.639,0.776,4.053,0.776
	c1.302,0,2.338-0.244,3.107-0.734c0.743-0.476,1.112-1.169,1.112-2.079c0-0.616-0.201-1.12-0.608-1.512
	c-0.365-0.349-1.064-0.664-2.099-0.945c-3.599-0.951-5.901-1.693-6.909-2.225c-1.904-1.008-2.855-2.646-2.855-4.913
	c0-2.212,0.806-3.912,2.414-5.102c1.457-1.092,3.492-1.638,6.109-1.638c2.536,0,5.18,0.406,7.938,1.218v6.257h-3.862l-0.252-3.255
	c-1.22-0.42-2.457-0.63-3.718-0.63c-1.133,0-2.016,0.21-2.645,0.63c-0.714,0.476-1.072,1.155-1.072,2.037
	c0,0.952,0.455,1.637,1.365,2.057c0.477,0.225,1.834,0.644,4.075,1.26c2.169,0.602,3.567,1.064,4.199,1.386
	c1.918,0.98,2.875,2.618,2.875,4.913c0,2.226-0.789,3.955-2.371,5.186c-1.556,1.204-3.864,1.806-6.931,1.806
	C520.826,94.809,518.117,94.297,515.752,93.275"/>
<path fill="#FFFFFF" d="M548.107,71.944c3.431,0,6.104,1.141,8.021,3.422c1.721,2.044,2.583,4.711,2.583,8
	c0,3.597-1.016,6.439-3.045,8.524c-1.875,1.946-4.444,2.918-7.706,2.918c-3.513,0-6.229-1.14-8.146-3.422
	c-1.723-2.043-2.582-4.717-2.582-8.02c0-3.598,1.015-6.439,3.043-8.525C542.167,72.91,544.775,71.944,548.107,71.944
	 M547.898,75.765c-2.002,0-3.493,0.959-4.473,2.876c-0.658,1.274-0.986,2.856-0.986,4.746c0,2.071,0.392,3.772,1.177,5.102
	c0.991,1.666,2.44,2.498,4.345,2.498c2.071,0,3.59-0.958,4.557-2.876c0.656-1.274,0.986-2.856,0.986-4.745
	c0-2.086-0.393-3.787-1.175-5.102C551.335,76.598,549.857,75.765,547.898,75.765"/>
<path fill="#FFFFFF" d="M564.924,90.525V76.227l-2.791-0.126v-3.696l7.494-0.21v3.465c0.813-0.854,1.576-1.533,2.289-2.037
	c1.64-1.119,3.451-1.68,5.438-1.68c3.009,0,5.06,1.142,6.151,3.423c0.547,1.147,0.818,3.01,0.818,5.585v9.574l2.793,0.126v3.674
	h-10.603v-3.674l2.793-0.126v-9.574c0-1.596-0.195-2.764-0.589-3.507c-0.573-1.091-1.573-1.637-3.002-1.637
	c-2.002,0-3.926,1.232-5.772,3.695v11.023l2.791,0.126v3.674h-10.603v-3.674L564.924,90.525z"/>
<path fill="#FFFFFF" d="M603.979,94.325l-0.189-2.498c-0.755,0.797-1.476,1.406-2.162,1.826c-1.302,0.77-2.836,1.155-4.599,1.155
	c-2.269,0-4.011-0.602-5.228-1.806c-1.231-1.189-1.848-2.799-1.848-4.829c0-2.743,1.112-4.759,3.338-6.047
	c1.399-0.811,3.598-1.217,6.592-1.217c0.869,0,2.08,0.042,3.633,0.126v-0.672c0-1.386-0.278-2.436-0.84-3.15
	c-0.812-1.035-2.127-1.553-3.947-1.553c-1.875,0-3.87,0.608-5.983,1.826l-1.344-3.611c2.549-1.288,5.187-1.932,7.916-1.932
	c3.554,0,6.09,0.889,7.601,2.667c0.797,0.952,1.293,2.225,1.491,3.821c0.084,0.686,0.125,1.715,0.125,3.086v9.008l2.793,0.126v3.674
	H603.979z M603.516,84.184c-0.84-0.07-1.596-0.105-2.268-0.105c-2.029,0-3.492,0.28-4.388,0.84
	c-1.134,0.714-1.699,1.764-1.699,3.149c0,0.938,0.285,1.715,0.858,2.331c0.617,0.658,1.464,0.987,2.541,0.987
	c1.918,0,3.57-1.022,4.955-3.066V84.184z"/>
<polygon fill="#FFFFFF" points="616.723,90.504 616.723,66.715 613.93,66.568 613.93,62.894 621.741,62.684 621.741,90.504 
	624.534,90.651 624.534,94.325 613.93,94.325 613.93,90.651 "/>
<path fill="#FFFFFF" d="M640.846,99.764V76.227l-2.791-0.126v-3.695l7.579-0.21v3.254c0.728-0.909,1.408-1.596,2.037-2.057
	c1.33-0.966,2.862-1.449,4.597-1.449c2.815,0,5.012,1.12,6.594,3.359c1.484,2.114,2.226,4.795,2.226,8.042
	c0,3.583-0.867,6.446-2.604,8.587c-1.539,1.918-3.617,2.877-6.233,2.877c-2.617,0-4.746-1.092-6.384-3.276v8.231l3.254,0.126v3.674
	h-11.064V99.89L640.846,99.764z M645.865,87.187c1.554,2.506,3.281,3.758,5.187,3.758c1.595,0,2.812-0.769,3.651-2.309
	c0.785-1.456,1.177-3.241,1.177-5.354c0-2.184-0.427-3.975-1.28-5.375c-0.853-1.4-2.08-2.1-3.675-2.1c-1.903,0-3.59,1.197-5.06,3.59
	V87.187z"/>
<path fill="#FFFFFF" d="M667.322,90.525v-23.81l-2.793-0.126v-3.695l7.812-0.21v12.619c0.701-0.686,1.356-1.246,1.974-1.68
	c1.651-1.119,3.465-1.68,5.438-1.68c3.009,0,5.06,1.142,6.151,3.423c0.545,1.147,0.818,3.01,0.818,5.585v9.574l2.793,0.126v3.674
	h-10.604v-3.674l2.794-0.126v-9.574c0-1.596-0.197-2.764-0.589-3.507c-0.573-1.091-1.573-1.637-3.002-1.637
	c-2.03,0-3.955,1.232-5.774,3.695v11.023l2.793,0.126v3.674h-10.604v-3.674L667.322,90.525z"/>
<path fill="#FFFFFF" d="M703.646,71.944c3.431,0,6.104,1.141,8.021,3.422c1.721,2.044,2.583,4.711,2.583,8
	c0,3.597-1.017,6.439-3.045,8.524c-1.875,1.946-4.444,2.918-7.706,2.918c-3.514,0-6.229-1.14-8.146-3.422
	c-1.723-2.043-2.582-4.717-2.582-8.02c0-3.598,1.015-6.439,3.043-8.525C697.706,72.91,700.314,71.944,703.646,71.944
	 M703.438,75.765c-2.002,0-3.494,0.959-4.473,2.876c-0.658,1.274-0.986,2.856-0.986,4.746c0,2.071,0.392,3.772,1.177,5.102
	c0.991,1.666,2.44,2.498,4.345,2.498c2.071,0,3.59-0.958,4.557-2.876c0.656-1.274,0.986-2.856,0.986-4.745
	c0-2.086-0.393-3.787-1.175-5.102C706.874,76.598,705.396,75.765,703.438,75.765"/>
<path fill="#FFFFFF" d="M720.57,76.227h-3.526v-3.821h3.526V67.64l5.019-0.966v5.732h4.996v3.821h-4.996V86.41
	c0,1.484,0.146,2.513,0.44,3.087c0.435,0.854,1.267,1.28,2.498,1.28c0.615,0,1.406-0.181,2.373-0.546l0.44,3.843
	c-1.54,0.489-3.03,0.735-4.472,0.735c-2.479,0-4.221-0.756-5.229-2.268c-0.715-1.078-1.07-3.03-1.07-5.858V76.227z"/>
<path fill="#FFFFFF" d="M744.588,71.944c3.431,0,6.104,1.141,8.021,3.422c1.721,2.044,2.583,4.711,2.583,8
	c0,3.597-1.017,6.439-3.045,8.524c-1.875,1.946-4.444,2.918-7.706,2.918c-3.514,0-6.229-1.14-8.146-3.422
	c-1.723-2.043-2.582-4.717-2.582-8.02c0-3.598,1.015-6.439,3.043-8.525C738.647,72.91,741.256,71.944,744.588,71.944
	 M744.379,75.765c-2.002,0-3.494,0.959-4.473,2.876c-0.658,1.274-0.986,2.856-0.986,4.746c0,2.071,0.392,3.772,1.176,5.102
	c0.992,1.666,2.441,2.498,4.346,2.498c2.07,0,3.59-0.958,4.557-2.876c0.656-1.274,0.986-2.856,0.986-4.745
	c0-2.086-0.393-3.787-1.175-5.102C747.815,76.598,746.338,75.765,744.379,75.765"/>
<path fill="#FFFFFF" d="M48.967,148.524v-14.297h-3.506v-3.822h3.506v-1.7c0-2.59,0.391-4.5,1.176-5.731
	c1.105-1.723,3.01-2.583,5.711-2.583c1.259,0,2.609,0.197,4.052,0.588l-0.419,4.009c-0.883-0.391-1.723-0.588-2.52-0.588
	c-1.316,0-2.184,0.631-2.604,1.891c-0.251,0.729-0.378,1.771-0.378,3.129v0.986h5.017v3.822h-5.017v14.276l3.716,0.147v3.674H45.776
	v-3.674L48.967,148.524z"/>
<path fill="#FFFFFF" d="M72.776,129.944c3.43,0,6.103,1.141,8.021,3.422c1.721,2.043,2.583,4.711,2.583,8
	c0,3.597-1.016,6.438-3.045,8.523c-1.875,1.946-4.444,2.918-7.706,2.918c-3.513,0-6.228-1.14-8.146-3.422
	c-1.723-2.043-2.582-4.717-2.582-8.02c0-3.599,1.014-6.439,3.043-8.525C66.835,130.909,69.444,129.944,72.776,129.944
	 M72.567,133.765c-2.002,0-3.494,0.959-4.473,2.876c-0.658,1.274-0.986,2.856-0.986,4.746c0,2.071,0.391,3.772,1.176,5.103
	c0.992,1.666,2.441,2.498,4.345,2.498c2.071,0,3.59-0.959,4.557-2.877c0.656-1.273,0.986-2.855,0.986-4.744
	c0-2.086-0.392-3.787-1.175-5.103C76.003,134.598,74.526,133.765,72.567,133.765"/>
<path fill="#FFFFFF" d="M89.594,148.524v-14.297l-2.793-0.127v-3.695l7.518-0.211v4.117c1.259-2.843,3.162-4.264,5.711-4.264
	c0.628,0,1.281,0.1,1.953,0.294l-0.233,4.41c-0.658-0.153-1.238-0.231-1.742-0.231c-1.609,0-2.953,0.672-4.031,2.016
	c-0.574,0.699-1.035,1.658-1.385,2.877v9.111l3.211,0.127v3.674H86.801v-3.674L89.594,148.524z"/>
<path fill="#FFFFFF" d="M135.681,134.228v15.6c0,2.589-0.155,4.514-0.461,5.773c-0.561,2.379-1.961,4.115-4.2,5.207
	c-1.736,0.84-3.808,1.26-6.214,1.26c-3.081,0-5.922-0.65-8.526-1.952l1.596-3.759c2.099,1.26,4.277,1.89,6.529,1.89
	c2.703,0,4.529-0.925,5.481-2.771c0.517-1.022,0.777-2.787,0.777-5.291v-1.576c-1.848,2.143-4.018,3.213-6.51,3.213
	c-2.644,0-4.793-1.008-6.445-3.023c-1.566-1.902-2.352-4.514-2.352-7.832c0-3.275,0.813-5.947,2.436-8.02
	c1.582-2.002,3.709-3.004,6.383-3.004c2.869,0,5.123,1.17,6.761,3.508l0.084-3.256l7.475,0.211v3.695L135.681,134.228z
	 M130.663,137.817c-0.42-0.952-0.937-1.729-1.555-2.332c-1.133-1.118-2.379-1.678-3.736-1.678c-1.639,0-2.877,0.762-3.717,2.287
	c-0.726,1.316-1.092,2.954-1.092,4.913c0,1.933,0.385,3.528,1.155,4.788c0.869,1.441,2.121,2.162,3.759,2.162
	c1.358,0,2.618-0.588,3.78-1.764c0.545-0.545,1.013-1.203,1.406-1.974V137.817z"/>
<path fill="#FFFFFF" d="M144.583,148.524v-14.297l-2.793-0.127v-3.695l7.518-0.211v4.117c1.259-2.843,3.162-4.264,5.711-4.264
	c0.628,0,1.281,0.1,1.953,0.294l-0.233,4.41c-0.658-0.153-1.238-0.231-1.742-0.231c-1.609,0-2.953,0.672-4.031,2.016
	c-0.574,0.699-1.035,1.658-1.385,2.877v9.111l3.211,0.127v3.674H141.79v-3.674L144.583,148.524z"/>
<path fill="#FFFFFF" d="M170.325,129.944c3.43,0,6.103,1.141,8.021,3.422c1.721,2.043,2.583,4.711,2.583,8
	c0,3.597-1.016,6.438-3.045,8.523c-1.875,1.946-4.444,2.918-7.706,2.918c-3.513,0-6.228-1.14-8.146-3.422
	c-1.723-2.043-2.582-4.717-2.582-8.02c0-3.599,1.014-6.439,3.043-8.525C164.384,130.909,166.993,129.944,170.325,129.944
	 M170.116,133.765c-2.002,0-3.494,0.959-4.473,2.876c-0.658,1.274-0.986,2.856-0.986,4.746c0,2.071,0.391,3.772,1.176,5.103
	c0.992,1.666,2.441,2.498,4.345,2.498c2.071,0,3.59-0.959,4.557-2.877c0.656-1.273,0.986-2.855,0.986-4.744
	c0-2.086-0.392-3.787-1.175-5.103C173.552,134.598,172.075,133.765,170.116,133.765"/>
<path fill="#FFFFFF" d="M201.524,149.112c-2.238,2.465-4.801,3.695-7.684,3.695c-2.982,0-5.004-1.146-6.068-3.443
	c-0.531-1.133-0.799-3.016-0.799-5.647v-9.49l-2.791-0.126v-3.695l7.811-0.209v13.584c0,1.623,0.187,2.8,0.566,3.526
	c0.561,1.093,1.526,1.638,2.897,1.638c1.988,0,3.879-1.196,5.67-3.59v-11.128l-2.793-0.126v-3.695l7.81-0.209v18.328l2.793,0.127
	v3.674h-7.412V149.112z"/>
<path fill="#FFFFFF" d="M214.332,157.764v-23.537l-2.793-0.126v-3.695l7.581-0.21v3.255c0.728-0.91,1.406-1.597,2.037-2.058
	c1.33-0.966,2.861-1.449,4.597-1.449c2.815,0,5.012,1.12,6.594,3.359c1.482,2.114,2.225,4.795,2.225,8.042
	c0,3.583-0.868,6.445-2.604,8.587c-1.539,1.918-3.619,2.877-6.236,2.877c-2.617,0-4.744-1.092-6.383-3.276v8.231l3.256,0.126v3.674
	h-11.067v-3.674L214.332,157.764z M219.35,145.187c1.555,2.506,3.283,3.758,5.187,3.758c1.596,0,2.813-0.769,3.653-2.309
	c0.783-1.456,1.176-3.241,1.176-5.354c0-2.185-0.428-3.976-1.282-5.375c-0.853-1.4-2.078-2.101-3.673-2.101
	c-1.905,0-3.59,1.196-5.061,3.59V145.187z"/>
<path fill="#FFFFFF" d="M251.557,157.764v-23.537l-2.791-0.126v-3.695l7.579-0.21v3.255c0.728-0.91,1.408-1.597,2.037-2.058
	c1.33-0.966,2.863-1.449,4.597-1.449c2.815,0,5.012,1.12,6.594,3.359c1.484,2.114,2.225,4.795,2.225,8.042
	c0,3.583-0.867,6.445-2.604,8.587c-1.539,1.918-3.617,2.877-6.234,2.877s-4.746-1.092-6.383-3.276v8.231l3.254,0.126v3.674h-11.065
	v-3.674L251.557,157.764z M256.577,145.187c1.553,2.506,3.281,3.758,5.186,3.758c1.595,0,2.812-0.769,3.652-2.309
	c0.785-1.456,1.176-3.241,1.176-5.354c0-2.185-0.426-3.976-1.28-5.375c-0.853-1.4-2.08-2.101-3.675-2.101
	c-1.903,0-3.59,1.196-5.059,3.59V145.187z"/>
<path fill="#FFFFFF" d="M278.034,148.524v-23.81l-2.793-0.126v-3.695l7.811-0.21v12.619c0.701-0.686,1.357-1.245,1.974-1.68
	c1.651-1.119,3.465-1.681,5.438-1.681c3.009,0,5.06,1.143,6.152,3.424c0.545,1.147,0.818,3.01,0.818,5.585v9.573l2.793,0.127v3.674
	h-10.603v-3.674l2.793-0.127v-9.573c0-1.597-0.197-2.765-0.588-3.507c-0.574-1.092-1.574-1.637-3.002-1.637
	c-2.031,0-3.955,1.231-5.775,3.694v11.022l2.793,0.127v3.674h-10.604v-3.674L278.034,148.524z"/>
<path fill="#FFFFFF" d="M314.358,129.944c3.43,0,6.103,1.141,8.021,3.422c1.721,2.043,2.583,4.711,2.583,8
	c0,3.597-1.016,6.438-3.045,8.523c-1.875,1.946-4.444,2.918-7.706,2.918c-3.513,0-6.228-1.14-8.146-3.422
	c-1.723-2.043-2.582-4.717-2.582-8.02c0-3.599,1.014-6.439,3.043-8.525C308.417,130.909,311.026,129.944,314.358,129.944
	 M314.149,133.765c-2.002,0-3.494,0.959-4.473,2.876c-0.658,1.274-0.986,2.856-0.986,4.746c0,2.071,0.391,3.772,1.176,5.103
	c0.992,1.666,2.441,2.498,4.345,2.498c2.071,0,3.59-0.959,4.557-2.877c0.656-1.273,0.986-2.855,0.986-4.744
	c0-2.086-0.392-3.787-1.175-5.103C317.585,134.598,316.108,133.765,314.149,133.765"/>
<path fill="#FFFFFF" d="M331.282,134.227h-3.527v-3.821h3.527v-4.766l5.018-0.966v5.731h4.996v3.821H336.3v10.183
	c0,1.484,0.146,2.514,0.441,3.088c0.434,0.854,1.266,1.279,2.498,1.279c0.615,0,1.406-0.181,2.373-0.546l0.44,3.843
	c-1.54,0.489-3.03,0.735-4.471,0.735c-2.479,0-4.221-0.756-5.229-2.269c-0.715-1.077-1.07-3.029-1.07-5.857V134.227z"/>
<path fill="#FFFFFF" d="M355.299,129.944c3.43,0,6.103,1.141,8.021,3.422c1.721,2.043,2.583,4.711,2.583,8
	c0,3.597-1.016,6.438-3.045,8.523c-1.875,1.946-4.444,2.918-7.706,2.918c-3.513,0-6.228-1.14-8.146-3.422
	c-1.723-2.043-2.582-4.717-2.582-8.02c0-3.599,1.014-6.439,3.043-8.525C349.358,130.909,351.967,129.944,355.299,129.944
	 M355.09,133.765c-2.002,0-3.494,0.959-4.473,2.876c-0.658,1.274-0.986,2.856-0.986,4.746c0,2.071,0.391,3.772,1.176,5.103
	c0.992,1.666,2.441,2.498,4.345,2.498c2.071,0,3.59-0.959,4.557-2.877c0.656-1.273,0.986-2.855,0.986-4.744
	c0-2.086-0.392-3.787-1.175-5.103C358.526,134.598,357.049,133.765,355.09,133.765"/>
</svg>
