<?xml version="1.0" encoding="utf-8"?>
<!-- Generator: Adobe Illustrator 16.0.0, SVG Export Plug-In . SVG Version: 6.00 Build 0)  -->
<!DOCTYPE svg PUBLIC "-//W3C//DTD SVG 1.1//EN" "http://www.w3.org/Graphics/SVG/1.1/DTD/svg11.dtd">
<svg version="1.1" id="图层_1" xmlns="http://www.w3.org/2000/svg" xmlns:xlink="http://www.w3.org/1999/xlink" x="0px" y="0px"
	 width="894.048px" height="261.31px" viewBox="0 0 894.048 261.31" enable-background="new 0 0 894.048 261.31"
	 xml:space="preserve">
<path fill="#FFFFFF" d="M52.994,122.255L41.012,71.117h8.986L56.17,99.05c0.937,4.187,1.719,8.084,2.345,11.693
	c0.889-4.09,1.791-7.879,2.706-11.368l7.291-28.258h9.419l7,27.356c1.108,4.235,2.034,8.157,2.78,11.765
	c0.601-3.272,1.408-7.169,2.418-11.693l6.279-27.428h8.518l-12.27,51.139h-9.529l-7.072-27.428
	c-1.084-4.138-2.094-8.337-3.032-12.595c-0.939,4.042-1.986,8.205-3.14,12.487l-7.326,27.536H52.994z"/>
<path fill="#FFFFFF" d="M117.449,67.003c1.66,0,3.008,0.589,4.041,1.768c0.842,0.987,1.264,2.19,1.264,3.609
	c0,1.396-0.422,2.586-1.264,3.573c-1.033,1.203-2.406,1.804-4.113,1.804c-1.709,0-3.08-0.601-4.115-1.804
	C112.42,74.991,112,73.8,112,72.38c0-1.443,0.42-2.646,1.262-3.609C114.32,67.592,115.717,67.003,117.449,67.003 M113.01,84.578
	h8.625v37.677h-8.625V84.578z"/>
<path fill="#FFFFFF" d="M130.945,120.126l2.311-6.604c1.466,0.842,2.609,1.432,3.427,1.768c2.117,0.891,4.295,1.336,6.533,1.336
	c1.997,0,3.536-0.445,4.62-1.336c1.058-0.842,1.588-1.997,1.588-3.464c0-1.42-0.495-2.491-1.481-3.212
	c-0.769-0.53-2.791-1.384-6.062-2.563c-2.696-0.962-4.573-1.744-5.631-2.345c-3.391-1.949-5.088-4.8-5.088-8.554
	c0-3.632,1.359-6.484,4.078-8.553c2.455-1.876,5.738-2.815,9.853-2.815c3.92,0,7.998,0.89,12.233,2.671l-2.236,6.64
	c-3.274-1.925-6.497-2.887-9.672-2.887c-1.686,0-3.057,0.374-4.116,1.119c-1.082,0.746-1.623,1.804-1.623,3.175
	c0,1.396,0.686,2.479,2.057,3.249c0.795,0.433,2.768,1.239,5.918,2.417c3.85,1.444,6.533,2.948,8.049,4.512
	c1.515,1.588,2.273,3.694,2.273,6.316c0,3.513-1.275,6.387-3.826,8.625c-2.621,2.31-6.23,3.464-10.826,3.464
	C138.968,123.085,134.843,122.099,130.945,120.126"/>
<path fill="#FFFFFF" d="M167.396,122.255V68.229h8.625V89.63c3.777-3.896,8.061-5.846,12.848-5.846c4.957,0,8.373,1.768,10.25,5.305
	c1.105,2.045,1.66,5.546,1.66,10.502v22.664h-8.625v-22.195c0-3.032-0.242-5.161-0.723-6.388c-0.865-2.165-2.67-3.248-5.412-3.248
	c-3.514,0-6.834,2.118-9.961,6.352v25.479H167.396z"/>
<path fill="#FFFFFF" d="M218.969,106.16c0.287,3.104,1.082,5.449,2.381,7.037c1.926,2.286,4.764,3.429,8.517,3.429
	c3.706,0,7.434-1.215,11.188-3.645l3.068,6.351c-4.355,2.503-9.179,3.754-14.472,3.754c-6.641,0-11.67-1.864-15.086-5.594
	c-3.104-3.344-4.655-7.999-4.655-13.967c0-6.303,1.756-11.271,5.268-14.904c3.106-3.224,7.363-4.836,12.777-4.836
	c7.963,0,13.135,3.08,15.518,9.238c1.178,3.056,1.793,7.435,1.84,13.137H218.969z M236.471,100.061
	c-0.072-2.238-0.504-4.15-1.299-5.738c-1.42-2.767-3.824-4.151-7.217-4.151c-3.32,0-5.775,1.372-7.363,4.115
	c-0.937,1.612-1.455,3.536-1.551,5.774H236.471z"/>
<path fill="#FFFFFF" d="M251.773,120.126l2.309-6.604c1.468,0.842,2.611,1.432,3.429,1.768c2.117,0.891,4.295,1.336,6.532,1.336
	c1.996,0,3.537-0.445,4.619-1.336c1.058-0.842,1.588-1.997,1.588-3.464c0-1.42-0.493-2.491-1.479-3.212
	c-0.771-0.53-2.791-1.384-6.064-2.563c-2.694-0.962-4.571-1.744-5.629-2.345c-3.393-1.949-5.088-4.8-5.088-8.554
	c0-3.632,1.357-6.484,4.078-8.553c2.453-1.876,5.738-2.815,9.851-2.815c3.922,0,8,0.89,12.235,2.671l-2.238,6.64
	c-3.272-1.925-6.497-2.887-9.672-2.887c-1.684,0-3.055,0.374-4.114,1.119c-1.082,0.746-1.625,1.804-1.625,3.175
	c0,1.396,0.686,2.479,2.059,3.249c0.793,0.433,2.766,1.239,5.918,2.417c3.85,1.444,6.531,2.948,8.047,4.512
	c1.517,1.588,2.275,3.694,2.275,6.316c0,3.513-1.277,6.387-3.826,8.625c-2.623,2.31-6.232,3.464-10.826,3.464
	C259.796,123.085,255.669,122.099,251.773,120.126"/>
<path fill="#FFFFFF" d="M308.723,91.147h-6.064v-6.568h6.064v-8.193l8.625-1.66v9.853h8.59v6.568h-8.59v17.503
	c0,2.551,0.252,4.319,0.758,5.305c0.746,1.468,2.178,2.202,4.295,2.202c1.058,0,2.418-0.313,4.078-0.939l0.758,6.605
	c-2.647,0.842-5.209,1.263-7.688,1.263c-4.258,0-7.254-1.299-8.986-3.897c-1.227-1.853-1.84-5.209-1.84-10.07V91.147z"/>
<path fill="#FFFFFF" d="M349.503,83.785c5.895,0,10.489,1.961,13.785,5.882c2.959,3.513,4.44,8.097,4.44,13.75
	c0,6.184-1.744,11.068-5.232,14.652c-3.225,3.345-7.641,5.017-13.247,5.017c-6.039,0-10.705-1.961-14.002-5.883
	c-2.959-3.512-4.439-8.107-4.439-13.786c0-6.183,1.744-11.067,5.232-14.652C339.289,85.445,343.778,83.785,349.503,83.785
	 M349.143,90.353c-3.441,0-6.004,1.648-7.687,4.944c-1.131,2.19-1.696,4.908-1.696,8.156c0,3.561,0.672,6.484,2.02,8.771
	c1.709,2.863,4.199,4.295,7.47,4.295c3.561,0,6.172-1.648,7.832-4.945c1.131-2.189,1.696-4.908,1.696-8.156
	c0-3.585-0.674-6.508-2.02-8.77C355.049,91.785,352.51,90.353,349.143,90.353"/>
<path fill="#FFFFFF" d="M435.611,94.611v25.263c-5.967,2.141-11.645,3.212-17.033,3.212c-7.699,0-13.727-2.13-18.082-6.388
	c-4.86-4.715-7.289-11.2-7.289-19.452c0-8.998,2.754-15.988,8.263-20.968c4.405-3.994,10.239-5.991,17.504-5.991
	c5.606,0,11.104,1.191,16.492,3.573l-2.921,7.109c-4.645-2.309-9.108-3.464-13.391-3.464c-5.652,0-9.9,1.973-12.738,5.918
	c-2.575,3.562-3.862,8.097-3.862,13.606c0,6.473,1.84,11.404,5.522,14.797c2.91,2.695,6.58,4.042,11.008,4.042
	c2.644,0,5.232-0.469,7.757-1.408v-12.631h-9.382v-7.218H435.611z"/>
<path fill="#FFFFFF" d="M448.062,122.256V71.117h12.308c4.233,0,7.579,0.289,10.032,0.866c3.562,0.843,6.291,2.743,8.194,5.702
	c1.587,2.455,2.38,5.378,2.38,8.77c0,5.534-2.009,9.66-6.027,12.379c-2.019,1.371-4.596,2.262-7.723,2.67
	c-1.709,0.217-3.742,0.325-6.099,0.325h-4.113v20.427H448.062z M456.87,94.828h2.887c3.994,0,6.82-0.409,8.479-1.227
	c2.406-1.179,3.61-3.477,3.61-6.893c0-3.224-1.094-5.546-3.284-6.965c-1.636-1.083-4.427-1.624-8.373-1.624h-3.319V94.828z"/>
<path fill="#FFFFFF" d="M68.045,177.637v13.458c-1.26,0.483-2.68,0.875-4.26,1.176c-1.58,0.302-3.047,0.453-4.398,0.453
	c-3.83,0-6.944-1.192-9.342-3.576c-2.678-2.651-4.018-6.215-4.018-10.687c0-4.674,1.346-8.403,4.039-11.188
	c2.45-2.545,5.598-3.817,9.442-3.817c2.664,0,5.443,0.67,8.336,2.009l-0.965,2.631c-2.504-1.285-4.996-1.928-7.473-1.928
	c-3.213,0-5.685,1.212-7.412,3.636c-1.646,2.33-2.47,5.203-2.47,8.618c0,3.896,1.125,6.923,3.375,9.079
	c1.753,1.674,4.023,2.511,6.808,2.511c1.649,0,3.328-0.301,5.043-0.904v-8.758h-5.605v-2.712H68.045z"/>
<path fill="#FFFFFF" d="M75.176,192.322v-28.465h5.504c3.428,0,5.912,0.502,7.451,1.508c2.197,1.419,3.295,3.683,3.295,6.789
	c0,2.035-0.535,3.729-1.607,5.082c-1.057,1.313-2.59,2.189-4.6,2.632c-1.313,0.294-2.953,0.442-4.922,0.442h-1.828v12.012H75.176z
	 M78.469,177.597h1.346c2.746,0,4.674-0.281,5.785-0.844c1.555-0.79,2.332-2.323,2.332-4.6c0-1.205-0.281-2.276-0.844-3.215
	c-0.67-1.11-1.701-1.801-3.094-2.068c-1.005-0.201-2.224-0.301-3.656-0.301h-1.869V177.597z"/>
<path fill="#FFFFFF" d="M106.393,192.322v-28.464h4.439c2.196,0,3.883,0.08,5.061,0.241c4.285,0.589,6.43,2.959,6.43,7.11
	c0,2.276-0.678,3.978-2.03,5.103c-0.843,0.695-2.089,1.199-3.736,1.506c4.365,0.496,6.549,2.806,6.549,6.931
	c0,3.134-1.213,5.31-3.637,6.528c-1.031,0.509-2.256,0.831-3.676,0.964c-0.562,0.054-1.814,0.081-3.755,0.081H106.393z
	 M109.686,176.613h1.486c2.705,0,4.555-0.281,5.545-0.843c1.407-0.804,2.11-2.19,2.11-4.159c0-2.088-0.657-3.495-1.969-4.219
	c-1.031-0.575-2.926-0.863-5.686-0.863h-1.486V176.613z M109.686,189.65h1.486c1.969,0,3.45-0.073,4.44-0.221
	c2.666-0.402,3.998-2.082,3.998-5.043c0-2.235-0.91-3.735-2.733-4.498c-1.125-0.483-3.025-0.724-5.705-0.724h-1.486V189.65z"/>
<path fill="#FFFFFF" d="M145.381,171.47v14.063c0.014,3.48,0.068,5.744,0.162,6.789h-3.094l-0.121-3.334
	c-0.736,0.789-1.467,1.445-2.189,1.968c-1.647,1.179-3.389,1.769-5.223,1.769c-2.584,0-4.359-0.965-5.324-2.894
	c-0.428-0.87-0.69-2.075-0.783-3.615c-0.053-0.897-0.08-1.795-0.08-2.692V171.47h3.134v12.113c0,2.104,0.147,3.568,0.442,4.398
	c0.508,1.487,1.668,2.23,3.474,2.23c2.209,0,4.366-1.299,6.469-3.896V171.47H145.381z"/>
<path fill="#FFFFFF" d="M150.986,191.297l0.943-2.472c1.916,0.924,3.602,1.387,5.063,1.387c1.056,0,1.974-0.288,2.752-0.864
	c0.83-0.615,1.246-1.499,1.246-2.651c0-0.924-0.275-1.627-0.824-2.108c-0.469-0.415-1.588-0.958-3.356-1.627
	c-1.406-0.55-2.396-1.011-2.972-1.388c-1.848-1.164-2.772-2.724-2.772-4.68c0-1.834,0.717-3.307,2.149-4.419
	c1.218-0.937,2.785-1.405,4.701-1.405c1.955,0,3.937,0.516,5.945,1.545l-0.943,2.472c-1.5-1.005-3.075-1.507-4.721-1.507
	c-1.072,0-1.949,0.229-2.631,0.684c-0.805,0.521-1.205,1.313-1.205,2.37c0,0.964,0.395,1.728,1.184,2.29
	c0.576,0.402,1.601,0.896,3.074,1.486c1.633,0.656,2.752,1.198,3.355,1.627c1.539,1.059,2.309,2.537,2.309,4.439
	c0,2.008-0.756,3.582-2.27,4.721c-1.339,1.018-3.027,1.526-5.062,1.526C154.982,192.723,152.994,192.248,150.986,191.297"/>
<path fill="#FFFFFF" d="M171.455,161.849c0.764,0,1.352,0.288,1.768,0.864c0.281,0.388,0.422,0.843,0.422,1.364
	c0,0.511-0.141,0.959-0.422,1.347c-0.416,0.575-1.018,0.864-1.809,0.864c-0.775,0-1.373-0.289-1.787-0.864
	c-0.281-0.388-0.422-0.836-0.422-1.347c0-0.521,0.141-0.977,0.422-1.364C170.041,162.137,170.652,161.849,171.455,161.849
	 M169.867,171.47h3.135v20.851h-3.135V171.47z"/>
<path fill="#FFFFFF" d="M180.152,192.322v-14.063c-0.012-3.4-0.066-5.664-0.16-6.789h3.094l0.121,3.334
	c0.789-0.83,1.533-1.498,2.228-2.008c1.58-1.152,3.362-1.727,5.344-1.727c2.639,0,4.445,0.963,5.424,2.892
	c0.428,0.857,0.689,2.062,0.783,3.616c0.053,0.938,0.08,1.835,0.08,2.691v12.053h-3.133v-12.113c0-2.089-0.148-3.555-0.441-4.398
	c-0.524-1.487-1.723-2.23-3.596-2.23c-2.264,0-4.467,1.3-6.609,3.896v14.846H180.152z"/>
<path fill="#FFFFFF" d="M205.786,182.74c0.226,2.33,0.763,4.064,1.607,5.203c1.15,1.513,2.852,2.27,5.102,2.27
	c1.916,0,3.816-0.656,5.705-1.969l1.205,2.432c-2.17,1.365-4.492,2.049-6.971,2.049c-3.293,0-5.832-1.078-7.613-3.235
	c-1.553-1.888-2.33-4.419-2.33-7.593c0-3.844,1.039-6.729,3.113-8.657c1.555-1.446,3.543-2.17,5.967-2.17
	c3.709,0,6.199,1.521,7.472,4.56c0.709,1.715,1.092,4.086,1.145,7.111H205.786z M216.854,180.229
	c-0.041-1.54-0.309-2.825-0.803-3.857c-0.898-1.86-2.426-2.792-4.58-2.792c-2.062,0-3.609,0.918-4.64,2.752
	c-0.59,1.059-0.913,2.357-0.965,3.897H216.854z"/>
<path fill="#FFFFFF" d="M224.125,191.297l0.945-2.472c1.914,0.924,3.602,1.387,5.061,1.387c1.058,0,1.976-0.288,2.752-0.864
	c0.83-0.615,1.246-1.499,1.246-2.651c0-0.924-0.275-1.627-0.824-2.108c-0.469-0.415-1.586-0.958-3.354-1.627
	c-1.406-0.55-2.398-1.011-2.972-1.388c-1.85-1.164-2.774-2.724-2.774-4.68c0-1.834,0.717-3.307,2.15-4.419
	c1.219-0.937,2.786-1.405,4.702-1.405c1.955,0,3.935,0.516,5.945,1.545l-0.945,2.472c-1.5-1.005-3.073-1.507-4.721-1.507
	c-1.07,0-1.947,0.229-2.631,0.684c-0.803,0.521-1.205,1.313-1.205,2.37c0,0.964,0.395,1.728,1.186,2.29
	c0.576,0.402,1.599,0.896,3.072,1.486c1.635,0.656,2.754,1.198,3.354,1.627c1.539,1.059,2.311,2.537,2.311,4.439
	c0,2.008-0.758,3.582-2.27,4.721c-1.34,1.018-3.027,1.526-5.062,1.526C228.123,192.723,226.135,192.248,224.125,191.297"/>
<path fill="#FFFFFF" d="M240.818,191.297l0.943-2.472c1.916,0.924,3.602,1.387,5.063,1.387c1.056,0,1.974-0.288,2.752-0.864
	c0.83-0.615,1.246-1.499,1.246-2.651c0-0.924-0.275-1.627-0.824-2.108c-0.469-0.415-1.588-0.958-3.356-1.627
	c-1.406-0.55-2.396-1.011-2.972-1.388c-1.848-1.164-2.772-2.724-2.772-4.68c0-1.834,0.717-3.307,2.149-4.419
	c1.218-0.937,2.785-1.405,4.701-1.405c1.955,0,3.937,0.516,5.945,1.545l-0.943,2.472c-1.5-1.005-3.075-1.507-4.721-1.507
	c-1.072,0-1.949,0.229-2.631,0.684c-0.805,0.521-1.205,1.313-1.205,2.37c0,0.964,0.395,1.728,1.184,2.29
	c0.576,0.402,1.601,0.896,3.074,1.486c1.633,0.656,2.752,1.198,3.355,1.627c1.539,1.059,2.309,2.537,2.309,4.439
	c0,2.008-0.756,3.582-2.27,4.721c-1.339,1.018-3.027,1.526-5.062,1.526C244.814,192.723,242.826,192.248,240.818,191.297"/>
<path fill="#FFFFFF" d="M288.748,188.505l0.822,2.631c-2.718,1.059-5.269,1.587-7.652,1.587c-3.912,0-7.059-1.259-9.441-3.776
	c-2.559-2.705-3.838-6.254-3.838-10.646c0-3.04,0.603-5.732,1.808-8.075c1.34-2.584,3.194-4.438,5.565-5.563
	c1.713-0.805,3.629-1.205,5.744-1.205c2.478,0,5.029,0.589,7.654,1.767l-1.064,2.632c-2.358-1.125-4.534-1.687-6.53-1.687
	c-3.132,0-5.531,1.185-7.191,3.555c-1.66,2.384-2.49,5.25-2.49,8.597c0,2.305,0.427,4.399,1.285,6.288
	c0.924,2.05,2.303,3.535,4.139,4.459c1.257,0.63,2.718,0.944,4.378,0.944C284.174,190.011,286.443,189.509,288.748,188.505"/>
<path fill="#FFFFFF" d="M302.287,171.069c2.959,0,5.35,1.146,7.17,3.435c1.541,1.93,2.311,4.393,2.311,7.393
	c0,3.229-0.891,5.832-2.672,7.814c-1.807,2.008-4.117,3.014-6.93,3.014c-3.041,0-5.471-1.146-7.293-3.437
	c-1.539-1.94-2.308-4.411-2.308-7.411c0-3.24,0.89-5.846,2.671-7.814C297.029,172.067,299.381,171.069,302.287,171.069
	 M302.086,173.58c-1.285,0-2.438,0.396-3.455,1.186c-1.848,1.445-2.774,3.824-2.774,7.131c0,2.29,0.483,4.179,1.448,5.665
	c1.152,1.768,2.771,2.651,4.861,2.651c2.264,0,3.963-1.024,5.102-3.073c0.804-1.419,1.205-3.175,1.205-5.263
	c0-2.291-0.483-4.172-1.446-5.646C305.875,174.464,304.229,173.58,302.086,173.58"/>
<path fill="#FFFFFF" d="M317.371,192.322v-14.063c-0.012-3.4-0.066-5.664-0.16-6.789h3.094l0.121,3.334
	c0.789-0.83,1.533-1.498,2.228-2.008c1.58-1.152,3.362-1.727,5.344-1.727c2.639,0,4.445,0.963,5.424,2.892
	c0.428,0.857,0.689,2.062,0.783,3.616c0.053,0.938,0.08,1.835,0.08,2.691v12.053h-3.133v-12.113c0-2.089-0.148-3.555-0.441-4.398
	c-0.524-1.487-1.723-2.23-3.596-2.23c-2.264,0-4.467,1.3-6.609,3.896v14.846H317.371z"/>
<path fill="#FFFFFF" d="M342.4,192.322v-18.34h-3.373v-2.512h3.373v-1.988c0-2.45,0.342-4.231,1.025-5.344
	c0.938-1.525,2.524-2.289,4.76-2.289c0.912,0,1.889,0.133,2.934,0.401l-0.281,2.712c-0.737-0.402-1.534-0.603-2.391-0.603
	c-1.326,0-2.184,0.629-2.57,1.888c-0.229,0.737-0.342,1.902-0.342,3.495v1.728h4.922v2.512h-4.922v18.34H342.4z"/>
<path fill="#FFFFFF" d="M356.122,182.74c0.226,2.33,0.763,4.064,1.607,5.203c1.15,1.513,2.852,2.27,5.102,2.27
	c1.916,0,3.816-0.656,5.705-1.969l1.205,2.432c-2.17,1.365-4.492,2.049-6.971,2.049c-3.293,0-5.832-1.078-7.613-3.235
	c-1.553-1.888-2.33-4.419-2.33-7.593c0-3.844,1.039-6.729,3.113-8.657c1.555-1.446,3.543-2.17,5.967-2.17
	c3.709,0,6.199,1.521,7.472,4.56c0.709,1.715,1.092,4.086,1.145,7.111H356.122z M367.189,180.229
	c-0.041-1.54-0.309-2.825-0.803-3.857c-0.898-1.86-2.426-2.792-4.58-2.792c-2.062,0-3.609,0.918-4.64,2.752
	c-0.59,1.059-0.913,2.357-0.965,3.897H367.189z"/>
<path fill="#FFFFFF" d="M376.068,192.322v-11.893c0-2.731-0.041-5.396-0.121-7.994l-0.02-0.965h2.912l0.122,3.838
	c0.695-1.287,1.447-2.277,2.25-2.974c0.964-0.844,2.169-1.265,3.615-1.265c0.43,0,0.91,0.046,1.447,0.14l-0.281,2.812
	c-0.375-0.079-0.736-0.119-1.086-0.119c-1.553,0-2.918,0.77-4.098,2.31c-0.656,0.884-1.191,1.855-1.607,2.912v13.198H376.068z"/>
<path fill="#FFFFFF" d="M391.618,182.74c0.226,2.33,0.763,4.064,1.607,5.203c1.15,1.513,2.852,2.27,5.102,2.27
	c1.916,0,3.816-0.656,5.705-1.969l1.205,2.432c-2.17,1.365-4.492,2.049-6.971,2.049c-3.293,0-5.832-1.078-7.613-3.235
	c-1.553-1.888-2.33-4.419-2.33-7.593c0-3.844,1.039-6.729,3.113-8.657c1.555-1.446,3.543-2.17,5.967-2.17
	c3.709,0,6.199,1.521,7.472,4.56c0.709,1.715,1.092,4.086,1.145,7.111H391.618z M402.686,180.229
	c-0.041-1.54-0.309-2.825-0.803-3.857c-0.898-1.86-2.426-2.792-4.58-2.792c-2.062,0-3.609,0.918-4.64,2.752
	c-0.59,1.059-0.913,2.357-0.965,3.897H402.686z"/>
<path fill="#FFFFFF" d="M411.523,192.322v-14.063c-0.012-3.4-0.066-5.664-0.16-6.789h3.094l0.121,3.334
	c0.789-0.83,1.533-1.498,2.228-2.008c1.58-1.152,3.362-1.727,5.344-1.727c2.639,0,4.445,0.963,5.424,2.892
	c0.428,0.857,0.688,2.062,0.783,3.616c0.053,0.938,0.08,1.835,0.08,2.691v12.053h-3.133v-12.113c0-2.089-0.148-3.555-0.441-4.398
	c-0.524-1.487-1.723-2.23-3.596-2.23c-2.264,0-4.467,1.3-6.609,3.896v14.846H411.523z"/>
<path fill="#FFFFFF" d="M448.708,188.365l1.204,2.43c-1.889,1.286-3.998,1.93-6.328,1.93c-3,0-5.35-0.918-7.051-2.752
	c-1.781-1.93-2.672-4.554-2.672-7.875c0-3.656,0.946-6.469,2.832-8.437c1.649-1.728,3.852-2.591,6.61-2.591
	c2.156,0,4.231,0.555,6.226,1.667l-1.183,2.47c-1.688-1.084-3.375-1.627-5.063-1.627c-2.035,0-3.568,0.736-4.599,2.21
	c-1.02,1.46-1.528,3.429-1.528,5.906c0,2.665,0.602,4.788,1.809,6.366c1.111,1.434,2.664,2.15,4.66,2.15
	C445.393,190.212,447.086,189.597,448.708,188.365"/>
<path fill="#FFFFFF" d="M456.12,182.74c0.226,2.33,0.763,4.064,1.606,5.203c1.15,1.513,2.853,2.27,5.103,2.27
	c1.916,0,3.816-0.656,5.705-1.969l1.205,2.432c-2.17,1.365-4.492,2.049-6.972,2.049c-3.293,0-5.831-1.078-7.612-3.235
	c-1.554-1.888-2.33-4.419-2.33-7.593c0-3.844,1.039-6.729,3.113-8.657c1.555-1.446,3.543-2.17,5.967-2.17
	c3.709,0,6.199,1.521,7.472,4.56c0.709,1.715,1.092,4.086,1.146,7.111H456.12z M467.188,180.229c-0.041-1.54-0.31-2.825-0.804-3.857
	c-0.897-1.86-2.426-2.792-4.58-2.792c-2.062,0-3.608,0.918-4.64,2.752c-0.59,1.059-0.913,2.357-0.965,3.897H467.188z"/>
<path fill="#FFFFFF" d="M505.075,188.505l0.821,2.631c-2.718,1.059-5.269,1.587-7.651,1.587c-3.912,0-7.06-1.259-9.441-3.776
	c-2.559-2.705-3.838-6.254-3.838-10.646c0-3.04,0.603-5.732,1.808-8.075c1.34-2.584,3.194-4.438,5.565-5.563
	c1.713-0.805,3.629-1.205,5.744-1.205c2.478,0,5.028,0.589,7.653,1.767l-1.063,2.632c-2.358-1.125-4.534-1.687-6.53-1.687
	c-3.132,0-5.531,1.185-7.19,3.555c-1.66,2.384-2.49,5.25-2.49,8.597c0,2.305,0.427,4.399,1.285,6.288
	c0.924,2.05,2.303,3.535,4.139,4.459c1.257,0.63,2.718,0.944,4.378,0.944C500.5,190.011,502.769,189.509,505.075,188.505"/>
<path fill="#FFFFFF" d="M510.458,192.322V162.25h3.133v12.454c2.291-2.424,4.789-3.635,7.494-3.635c2.623,0,4.432,0.963,5.424,2.892
	c0.428,0.857,0.688,2.062,0.783,3.616c0.053,0.938,0.079,1.835,0.079,2.691v12.053h-3.135v-12.113c0-2.089-0.146-3.555-0.44-4.398
	c-0.511-1.487-1.707-2.23-3.597-2.23c-2.276,0-4.478,1.3-6.608,3.896v14.846H510.458z"/>
<path fill="#FFFFFF" d="M535.947,161.849c0.765,0,1.354,0.288,1.771,0.864c0.28,0.388,0.422,0.843,0.422,1.364
	c0,0.511-0.142,0.959-0.422,1.347c-0.416,0.575-1.021,0.864-1.81,0.864c-0.776,0-1.373-0.289-1.787-0.864
	c-0.28-0.388-0.422-0.836-0.422-1.347c0-0.521,0.142-0.977,0.422-1.364C534.535,162.137,535.145,161.849,535.947,161.849
	 M534.361,171.47h3.133v20.851h-3.133V171.47z"/>
<path fill="#FFFFFF" d="M544.647,192.322v-14.063c-0.015-3.4-0.066-5.664-0.16-6.789h3.094l0.119,3.334
	c0.791-0.83,1.533-1.498,2.229-2.008c1.58-1.152,3.362-1.727,5.345-1.727c2.637,0,4.444,0.963,5.424,2.892
	c0.428,0.857,0.688,2.062,0.783,3.616c0.053,0.938,0.079,1.835,0.079,2.691v12.053h-3.135v-12.113c0-2.089-0.146-3.555-0.44-4.398
	c-0.522-1.487-1.722-2.23-3.597-2.23c-2.263,0-4.467,1.3-6.608,3.896v14.846H544.647z"/>
<path fill="#FFFFFF" d="M579.599,189.891c-0.711,0.763-1.394,1.346-2.049,1.747c-1.207,0.724-2.599,1.085-4.179,1.085
	c-2.182,0-3.851-0.615-5.002-1.849c-1.019-1.084-1.526-2.517-1.526-4.299c0-2.758,1.159-4.713,3.476-5.865
	c1.352-0.683,3.36-1.024,6.024-1.024c0.551,0,1.556,0.028,3.015,0.081v-0.563c0-1.514-0.193-2.664-0.582-3.455
	c-0.697-1.446-2.076-2.17-4.14-2.17c-1.687,0-3.481,0.603-5.383,1.808l-1.365-2.249c2.183-1.379,4.545-2.069,7.09-2.069
	c3.16,0,5.324,0.944,6.488,2.832c0.549,0.898,0.871,2.183,0.965,3.857c0.039,0.589,0.062,1.439,0.062,2.551v6.81
	c-0.015,2.01,0.039,3.743,0.16,5.203h-2.912L579.599,189.891z M579.358,182.157c-0.736-0.053-1.521-0.079-2.351-0.079
	c-2.222,0-3.843,0.295-4.861,0.883c-1.34,0.764-2.01,1.942-2.01,3.535c0,1.125,0.336,2.022,1.006,2.692
	c0.695,0.683,1.627,1.024,2.791,1.024c2.185,0,3.99-1.064,5.425-3.194V182.157z"/>
<path fill="#FFFFFF" d="M599.004,192.322v-2.873c4.352-3.91,7.524-6.99,9.521-9.24c1.795-2.035,3.067-3.775,3.817-5.222
	c0.711-1.407,1.063-2.739,1.063-3.998c0-1.433-0.528-2.584-1.586-3.455c-1.166-0.964-2.685-1.446-4.56-1.446
	c-2.144,0-4.347,0.703-6.61,2.109l-0.822-2.813c2.625-1.285,5.237-1.929,7.834-1.929c2.543,0,4.634,0.563,6.269,1.687
	c1.875,1.273,2.812,3.154,2.812,5.646c0,1.875-0.543,3.735-1.627,5.584c-1.272,2.21-3.757,5.163-7.453,8.858
	c-1.42,1.421-2.985,2.881-4.7,4.38h14.021v2.712H599.004z"/>
<path fill="#FFFFFF" d="M632.068,163.456c6.429,0,9.644,4.875,9.644,14.624c0,4.366-0.617,7.721-1.851,10.064
	c-1.618,3.053-4.265,4.58-7.933,4.58c-3.991,0-6.77-1.795-8.336-5.385c-0.979-2.25-1.467-5.343-1.467-9.279
	c0-4.353,0.615-7.694,1.847-10.024C625.594,164.982,628.292,163.456,632.068,163.456 M631.827,166.167
	c-1.365,0-2.564,0.449-3.597,1.346c-1.847,1.607-2.771,5.136-2.771,10.586c0,3.992,0.463,6.891,1.387,8.699
	c1.084,2.142,2.777,3.213,5.082,3.213c2.49,0,4.265-1.266,5.322-3.797c0.75-1.768,1.125-4.485,1.125-8.154
	c0-3.991-0.461-6.885-1.385-8.678C635.904,167.239,634.183,166.167,631.827,166.167"/>
<polygon fill="#FFFFFF" points="655.331,192.322 655.331,167.433 649.523,171.129 648.139,168.619 655.65,163.857 658.504,163.857 
	658.504,192.322 "/>
<path fill="#FFFFFF" d="M671.88,192.683l0.16-2.672c0.67,0.054,1.233,0.081,1.688,0.081c3.844,0,6.717-1.413,8.618-4.239
	c1.272-1.874,2.089-4.312,2.449-7.312c-1.74,2.196-4.022,3.295-6.849,3.295c-1.769,0-3.367-0.47-4.801-1.407
	c-2.384-1.566-3.576-4.077-3.576-7.532c0-2.825,0.877-5.108,2.633-6.85c1.753-1.728,4.003-2.591,6.748-2.591
	c2.356,0,4.306,0.608,5.845,1.826c2.385,1.889,3.577,5.197,3.577,9.925c0,4.057-0.784,7.586-2.35,10.586
	c-1.461,2.759-3.449,4.68-5.968,5.765c-1.819,0.777-3.95,1.165-6.389,1.165C673.415,192.723,672.819,192.71,671.88,192.683
	 M678.811,166.087c-1.74,0-3.16,0.583-4.259,1.748c-1.097,1.165-1.646,2.771-1.646,4.82c0,1.982,0.508,3.556,1.524,4.721
	c1.086,1.219,2.531,1.828,4.341,1.828c1.834,0,3.313-0.603,4.438-1.809c1.112-1.165,1.666-2.765,1.666-4.801
	c0-2.021-0.548-3.609-1.646-4.76C682.12,166.67,680.647,166.087,678.811,166.087"/>
</svg>
